ply
format ascii 1.0
comment converted from poly
element vertex 16
property float x
property float y
property float z
element face 11
property list uchar uint vertex_indices
property uchar red
property uchar green
property uchar blue
end_header
3000 1000 1000
3000 2000 1000
0 2000 1000
0 1000 1000
3000 0 3000
3000 1000 3000
0 1000 3000
0 0 3000
3000 2000 3000
3000 3000 3000
0 3000 3000
0 2000 3000
3000 0 1000
3000 3000 1000
0 3000 1000
0 0 1000
4 4 5 6 7 100 100 100
4 8 9 10 11 100 100 100
8 12 0 1 13 14 2 3 15 -1 0 0
4 12 0 5 4 100 0 0
4 13 1 8 9 100 0 0
4 14 2 11 10 100 0 0
4 15 3 6 7 100 0 0
4 13 14 10 9 100 0 0
4 15 12 4 7 100 0 0
4 0 3 6 5 100 0 0
4 2 1 8 11 100 0 0
