ply
format ascii 1.0
comment converted from poly
element vertex 16
property float x
property float y
property float z
element face 12
property list uchar uint vertex_indices
property uchar red
property uchar green
property uchar blue
end_header
0 1000 2000
0 2000 2000
3000 2000 2000
3000 1000 2000
0 0 2000
0 3000 2000
3000 3000 2000
3000 0 2000
3000 0 3000
3000 1000 3000
0 1000 3000
0 0 3000
3000 2000 3000
3000 3000 3000
0 3000 3000
0 2000 3000
4 1 2 12 15 100 100 100
4 3 0 10 9 100 100 100
4 8 9 10 11 100 100 100
4 12 13 14 15 100 100 100
4 4 7 8 11 100 100 100
4 6 5 14 13 100 100 100
4 0 4 11 10 100 100 100
4 5 1 15 14 100 100 100
4 2 6 13 12 100 100 100
4 7 3 9 8 100 100 100
4 7 3 0 4 100 100 100
4 2 6 5 1 100 100 100
