ply
format ascii 1.0
comment converted from poly
element vertex 16
property float x
property float y
property float z
element face 10
property list uchar uint vertex_indices
property uchar red
property uchar green
property uchar blue
end_header
3000 0 0
3000 3000 0
0 3000 0
0 0 0
3000 1000 1000
3000 2000 1000
0 2000 1000
0 1000 1000
3000 0 3000
3000 1000 3000
0 1000 3000
0 0 3000
3000 2000 3000
3000 3000 3000
0 3000 3000
0 2000 3000
4 0 3 2 1 100 100 100
4 4 5 6 7 100 100 100
4 8 9 10 11 100 100 100
4 12 13 14 15 100 100 100
8 0 1 13 12 5 4 9 8 100 100 100
8 3 11 10 7 6 15 14 2 100 100 100
4 1 2 14 13 100 100 100
4 0 8 11 3 100 100 100
4 4 7 10 9 100 100 100
4 5 12 15 6 100 100 100
