ply
format ascii 1.0
comment converted from poly
element vertex 16
property float x
property float y
property float z
element face 12
property list uchar uint vertex_indices
property uchar red
property uchar green
property uchar blue
end_header
3000 0 3000
3000 1000 3000
0 1000 3000
0 0 3000
3000 2000 3000
3000 3000 3000
0 3000 3000
0 2000 3000
3000 0 2000
3000 3000 2000
0 3000 2000
0 0 2000
3000 1000 2000
3000 2000 2000
0 2000 2000
0 1000 2000
4 0 1 2 3 100 100 100
4 4 5 6 7 100 100 100
4 8 12 15 11 -1 0 0
4 13 9 10 14 -1 0 0
4 8 12 1 0 100 0 0
4 13 9 5 4 100 0 0
4 10 14 7 6 100 0 0
4 15 11 3 2 100 0 0
4 9 10 6 5 100 0 0
4 11 8 0 3 100 0 0
4 12 15 2 1 100 0 0
4 14 13 4 7 100 0 0
