ply
format ascii 1.0
comment converted from join-facets-rise
element vertex 512
property float x
property float y
property float z
element face 258
property list uchar uint vertex_indices
property uchar red
property uchar green
property uchar blue
end_header
-722 2146 -5410
-541 2150 -5411
2014 -2482 -5208
2081 -2445 -5407
-2921 -1141 -5224
-1329 2093 -5201
-2221 1807 -5392
2095 -2433 -5267
-1378 -2715 -5223
-317 2149 -5439
-861 2139 -5371
940 2038 -5378
2466 1272 -5424
2514 1194 -5266
1308 1967 -5323
2353 -2149 -5366
2368 -2127 -5219
-2110 -2524 -5296
-982 -2771 -5267
-897 -2782 -5361
-2313 -2409 -5236
1491 1916 -5196
1317 1963 -5237
1450 1928 -5211
1319 1963 -5243
656 -2794 -5213
428 -2804 -5239
833 -2784 -5188
966 -2773 -5162
-237 -2813 -5277
-332 -2811 -5277
1180 -2749 -5109
1092 -2760 -5133
42 -2812 -5268
212 -2810 -5257
2668 -1346 -5169
2760 -473 -5286
2749 -662 -5276
2684 -1248 -5191
2707 -1084 -5223
2734 -857 -5258
2730 -903 -5253
2763 -323 -5286
2763 -172 -5280
-2815 778 -5095
-2783 906 -5072
1494 1914 -5171
2056 1669 -5235
1945 1730 -5221
2289 1488 -5233
2236 1538 -5239
1753 1821 -5188
1825 1788 -5201
2116 1630 -5240
2173 1589 -5241
1702 1843 -5177
1631 1870 -5160
1607 1877 -5154
2450 1293 -5238
2644 885 -5195
2515 1192 -5238
2550 1129 -5234
2606 998 -5217
2576 1073 -5228
2353 1420 -5228
2390 1375 -5233
2667 805 -5177
391 -339 -3260
2361 -878 -4746
313 -385 -3198
2579 -1720 -5155
2614 -1602 -5129
2230 -2293 -5171
2317 -2191 -5184
2423 -2039 -5188
2454 -1987 -5186
2495 -1915 -5182
2337 -2167 -5186
2368 -2125 -5189
2544 -1822 -5175
2536 -1839 -5177
263 -380 -3162
2611 -1528 -5097
270 -381 -3167
2011 -2483 -5171
2086 -2438 -5173
1654 -2650 -5128
1551 -2679 -5103
1923 -2531 -5164
1817 -2582 -5153
1677 -2642 -5133
1750 -2612 -5144
1463 -2699 -5080
1414 -2709 -5065
2145 -2383 -5163
2097 -2430 -5173
-123 -721 -3146
-120 -752 -3169
-2440 -2294 -5121
-2015 -2553 -5082
-2105 -2519 -5102
-2259 -2444 -5128
-2303 -2412 -5129
-1911 -2586 -5054
-2420 -2312 -5122
-2212 -2470 -5122
-2197 -2477 -5119
-1839 -2606 -5034
-2325 -2395 -5128
-2354 -2371 -5127
-129 -725 -3150
-2709 -1945 -5141
-2741 -1878 -5134
-2813 -1682 -5101
-2777 -1788 -5121
-2539 -2195 -5137
-2577 -2154 -5143
-2646 -2056 -5146
-2832 -1613 -5085
-2600 -2126 -5147
-2611 -2113 -5148
-2646 1294 -5156
-2544 1479 -5175
-2487 1550 -5172
-2727 1096 -5118
-2560 1457 -5175
-2595 1392 -5168
-2695 1181 -5136
-2661 1260 -5150
-2766 969 -5087
-2746 1040 -5106
-2485 1552 -5172
-2418 1625 -5164
-2781 912 -5071
-2780 909 -5069
-2060 1901 -5181
-2026 1918 -5177
-1925 1959 -5161
-1747 2016 -5123
-1827 1994 -5142
-1697 2027 -5109
-2380 1665 -5164
-2184 1825 -5184
-2115 1870 -5184
-2235 1789 -5182
-2261 1770 -5181
-2339 1702 -5171
-2275 1758 -5179
2328 1446 -5225
2340 1434 -5225
258 -380 -3159
2174 -2353 -5160
2152 -2376 -5161
-123 -719 -3144
-124 -717 -3143
-93 -368 -2975
258 -380 -3159
-2440 -2293 -5120
-2468 -2266 -5121
-117 -390 -2975
-124 -716 -3142
-2404 1640 -5161
-519 -350 -3168
-2384 1660 -5163
-116 -345 -2975
-108 -6 -3155
-140 -366 -2975
-495 -357 -3153
-105 28 -3179
-108 9 -3165
-120 21 -3176
-85 614 -3630
-211 368 -3453
-109 2 -3160
-117 15 -3171
-2842 -1572 -5074
-574 -358 -3205
-534 -354 -3177
-511 -355 -3162
-515 -354 -3164
-848 2139 -5325
215 2121 -5396
409 2104 -5385
-1182 2110 -5244
-796 2141 -5334
657 2076 -5359
-475 2149 -5377
778 2060 -5344
-50 2138 -5399
-252 2146 -5394
-572 2148 -5367
-670 2146 -5354
-285 2147 -5392
-370 2148 -5386
-893 2135 -5315
-1130 2115 -5257
1064 2015 -5292
942 2037 -5318
1185 1991 -5263
1189 1990 -5262
1419 1864 -5067
641 1626 -4582
-18 1518 -4334
-1154 -2748 -5209
-981 -2771 -5238
-1393 -2710 -5159
-1632 -2660 -5088
-1547 -2679 -5116
-1298 -2726 -5181
-1356 -2717 -5168
-503 -2806 -5272
-593 -2801 -5269
-1716 -2638 -5055
-812 -2786 -5255
-723 -2793 -5262
-480 -2806 -5272
-158 -2246 -4317
-776 -2333 -4496
-1800 -2615 -5022
-1800 -2615 -5022
-2847 611 -5126
-2947 -685 -5236
-2886 -1390 -5135
-2950 -292 -5248
-2951 -488 -5246
-2941 -121 -5240
-2938 -86 -5237
-2846 -1557 -5077
-2905 -1274 -5164
-2918 -1144 -5186
-2903 257 -5195
-2885 378 -5173
-2938 -897 -5219
-2934 -969 -5211
-2908 208 -5202
-2925 60 -5221
-2827 715 -5100
-2448 -339 -4552
-2762 764 -5011
-2544 231 -4698
-2844 -1564 -5074
-2586 -957 -4730
2725 454 -5227
2755 107 -5267
2762 -78 -5277
2739 323 -5245
2711 559 -5208
2689 695 -5178
2680 744 -5166
2752 169 -5263
2744 266 -5252
2763 -135 -5278
2678 753 -5163
2677 751 -5161
2378 54 -4757
2284 -406 -4630
1300 -2730 -5070
1265 -2735 -5079
1364 -2718 -5050
1344 -2709 -5036
463 -2383 -4527
766 -2710 -5045
-68 -2267 -4348
2635 -1518 -5128
2658 -1399 -5155
2340 -702 -4708
2626 -1555 -5117
2618 -1541 -5106
2672 -801 -5155
2326 -612 -4686
-1569 2054 -5124
-1340 2091 -5201
-1329 2093 -5204
-1596 2031 -5070
-1581 2010 -5050
-755 1693 -4571
-1215 2106 -5234
-66 1530 -4350
198 2125 -5529
485 2100 -5510
1451 1933 -5530
538 2094 -5508
844 2054 -5502
766 2065 -5502
1312 1969 -5516
1094 2013 -5504
966 2036 -5501
1161 2001 -5507
1197 1993 -5509
1437 1938 -5528
1411 1944 -5525
1330 1562 -5920
2062 1667 -5471
1931 1739 -5480
2234 1540 -5482
1730 1834 -5508
1872 1768 -5487
2110 1636 -5470
2167 1595 -5474
1650 1867 -5522
1621 1878 -5528
2264 1513 -5489
1547 1902 -5546
1331 1562 -5919
2650 871 -5488
2548 1135 -5446
2295 1483 -5481
2603 1008 -5461
2579 1069 -5452
2356 1418 -5464
2392 1374 -5456
2466 1272 -5446
2519 1187 -5444
2672 787 -5509
2666 817 -5501
2272 1505 -5489
2730 435 -5499
2757 78 -5507
2763 -74 -5516
2733 403 -5499
2717 529 -5501
2695 669 -5509
2764 -299 -5536
2764 -181 -5525
2751 197 -5502
2750 204 -5502
2677 764 -5516
2238 578 -5939
2666 -1361 -5505
2636 -1519 -5511
2760 -473 -5538
2749 -683 -5520
2688 -1224 -5503
2705 -1103 -5504
2746 -711 -5518
2729 -911 -5507
2762 -391 -5547
2759 -391 -5550
2352 -2152 -5428
2585 -1704 -5481
2613 -1611 -5509
2243 -2283 -5444
2288 -2229 -5436
2428 -2035 -5430
2382 -2106 -5428
2434 -2024 -5430
2511 -1888 -5441
2542 -1828 -5449
2526 -1861 -5444
2171 -2359 -5459
2245 -1454 -5879
2620 -1584 -5517
2261 -1452 -5868
2086 -2442 -5425
1616 -2669 -5429
1563 -2684 -5439
1911 -2541 -5414
1829 -2581 -5414
1666 -2652 -5423
1749 -2617 -5417
1984 -2502 -5417
2082 -2445 -5424
1463 -2709 -5460
2142 -2390 -5446
2115 -2416 -5435
2168 -2362 -5459
1305 -2319 -5868
634 -2802 -5446
520 -2806 -5449
1310 -2739 -5464
797 -2793 -5445
1024 -2775 -5448
1354 -2732 -5469
1196 -2756 -5455
1089 -2769 -5450
25 -2817 -5470
245 -2813 -5460
1401 -2722 -5475
1297 -2339 -5853
-1115 -2760 -5424
-231 -2817 -5477
-433 -2813 -5456
-1619 -2675 -5445
-1594 -2681 -5443
-1261 -2739 -5427
-1394 -2718 -5431
-495 -2811 -5450
-552 -2808 -5446
-1662 -2665 -5450
-738 -2796 -5435
-1018 -2772 -5424
-894 -2784 -5428
-178 -2817 -5483
-178 -2813 -5487
-2465 -2284 -5429
-2025 -2562 -5413
-2268 -2448 -5390
-1929 -2593 -5432
-2388 -2355 -5409
-2215 -2477 -5392
-2106 -2529 -5401
-1851 -2616 -5451
-2319 -2411 -5396
-2375 -2365 -5406
-2488 -2262 -5436
-1613 -2250 -5852
-1792 -2632 -5466
-1610 -2262 -5844
-2713 -1967 -5385
-2760 -1870 -5388
-2828 -1698 -5407
-2800 -1776 -5396
-2530 -2219 -5425
-2593 -2149 -5404
-2667 -2047 -5387
-2850 -1624 -5421
-2623 -2113 -5395
-2645 -2084 -5390
-2499 -2251 -5436
-2958 -706 -5426
-2899 -1410 -5408
-2963 -301 -5464
-2963 -461 -5447
-2942 -1015 -5409
-2873 -1531 -5420
-2923 -1236 -5404
-2919 -1274 -5403
-2951 -864 -5416
-2944 -987 -5410
-2858 -1594 -5428
-2870 588 -5448
-2959 -189 -5477
-2946 -16 -5464
-2835 779 -5453
-2817 857 -5459
-2915 278 -5451
-2901 382 -5449
-2929 156 -5455
-2939 59 -5460
-2959 -202 -5479
-2953 -203 -5485
-2656 1303 -5420
-2557 1477 -5418
-2518 1527 -5427
-2395 1663 -5464
-2742 1102 -5445
-2576 1450 -5415
-2618 1376 -5416
-2707 1190 -5432
-2682 1246 -5425
-2776 1007 -5463
-2770 1025 -5459
-2442 1613 -5448
-2441 1615 -5449
-2333 1720 -5488
-2786 971 -5472
-2392 849 -5863
-2071 1901 -5442
-2019 1928 -5440
-1923 1967 -5445
-1723 2030 -5474
-1843 1996 -5454
-1669 2043 -5485
-2131 1868 -5447
-2275 1769 -5473
-2222 1808 -5461
-2326 1727 -5488
-2314 1737 -5485
-2326 1727 -5489
-1470 1632 -5930
-1275 2106 -5476
-326 2150 -5511
-48 2141 -5543
-212 2147 -5524
-720 2147 -5482
-537 2152 -5492
-1540 2070 -5490
-1315 2102 -5477
-1064 2126 -5474
-874 2141 -5475
-16 2139 -5548
-16 2135 -5552
-1610 2056 -5498
-1469 1635 -5928
-67 1179 -6213
1475 803 -6211
1328 1557 -5923
1499 778 -6211
1812 -341 -6210
2212 598 -5950
2230 579 -5945
1810 -416 -6210
1412 -1537 -6211
2238 -1451 -5884
1403 -1546 -6211
-13 -1788 -6213
1302 -2311 -5873
-130 -1784 -6213
-1605 -1480 -6215
-1603 -2232 -5865
-1612 -1473 -6215
-1908 -254 -6216
-2416 -1394 -5875
-2418 -1389 -5874
-2418 -1392 -5874
-1908 -247 -6216
-2386 851 -5867
-2373 865 -5872
-149 1182 -6213
-1465 1620 -5937
-1597 896 -6215
-1598 898 -6214
26 196 197 187 185 182 181 188 189 192 193 186 190 191 184 180 194 195 183 5 275 202 201 46 23 22 198 100 100 100
19 216 217 219 218 212 206 207 205 209 208 203 204 213 214 211 210 215 261 262 100 100 100
22 237 239 238 236 220 231 230 234 235 226 225 223 224 221 232 233 229 228 222 227 240 241 100 100 100
16 243 249 250 245 242 246 247 248 252 253 254 255 269 268 251 244 100 100 100
7 155 156 150 149 148 165 164 100 100 100
8 155 159 160 154 153 152 151 156 100 100 100
6 159 166 167 158 157 160 100 100 100
11 165 173 174 163 161 162 179 178 167 166 164 100 100 100
8 484 508 509 469 483 481 291 486 100 100 100
8 488 490 327 337 352 350 493 491 100 100 100
9 495 496 366 378 393 407 405 499 497 100 100 100
6 440 456 506 505 501 503 100 100 100
7 256 258 259 260 262 261 257 100 100 100
7 265 267 266 263 264 268 269 100 100 100
0 100 100 100
4 168 201 202 171 100 100 100
5 46 201 168 169 57 100 100 100
15 55 56 57 169 173 165 148 49 50 54 53 47 48 52 51 100 100 100
15 67 253 252 66 59 62 63 61 60 58 65 64 149 150 81 100 100 100
3 67 254 253 100 100 100
6 67 81 83 69 255 254 100 100 100
5 68 265 269 255 69 100 100 100
4 68 69 83 82 100 100 100
19 71 266 267 82 83 81 150 156 151 72 73 77 78 74 75 76 80 79 70 100 100 100
17 84 85 95 94 152 153 96 259 258 93 92 87 86 90 91 89 88 100 100 100
4 96 97 260 259 100 100 100
4 97 216 262 260 100 100 100
7 96 153 154 110 217 216 97 100 100 100
3 110 219 217 100 100 100
18 104 109 108 102 101 105 106 100 99 103 107 218 219 110 154 160 157 98 100 100 100
14 113 114 112 111 117 120 119 116 115 158 167 178 175 118 100 100 100
3 176 237 241 100 100 100
4 176 177 239 237 100 100 100
6 134 238 239 177 179 162 100 100 100
16 129 133 134 162 161 132 131 123 122 125 126 121 128 127 124 130 100 100 100
17 170 273 140 138 139 137 136 135 143 142 144 145 147 146 141 163 174 100 100 100
4 170 172 275 273 100 100 100
4 171 202 275 172 100 100 100
7 175 178 179 177 176 241 240 100 100 100
18 285 287 288 284 290 289 280 302 303 291 481 480 278 279 281 283 282 286 100 100 100
12 292 297 298 294 301 303 302 300 299 295 296 293 100 100 100
16 327 490 489 315 306 309 310 311 312 305 308 307 304 314 313 326 100 100 100
14 316 319 325 324 317 318 323 322 336 337 327 326 321 320 100 100 100
12 330 331 334 335 333 332 328 329 351 352 337 336 100 100 100
15 347 348 346 345 343 344 338 342 341 349 350 352 351 340 339 100 100 100
16 363 364 353 361 360 356 357 359 358 354 355 362 377 378 366 365 100 100 100
14 369 373 374 371 370 367 368 376 375 392 393 378 377 372 100 100 100
17 387 389 391 390 379 384 385 383 382 388 406 407 393 392 380 381 386 100 100 100
14 405 407 406 401 397 395 400 399 396 402 403 398 394 404 100 100 100
14 412 413 416 417 414 408 409 411 410 415 429 504 502 418 100 100 100
15 419 422 421 439 440 503 504 429 424 420 426 425 423 428 427 100 100 100
13 431 432 438 437 435 436 430 433 434 455 456 440 439 100 100 100
18 445 448 449 441 447 446 442 443 452 453 444 454 507 506 456 455 450 451 100 100 100
15 466 467 464 465 463 457 458 459 461 460 462 482 483 469 468 100 100 100
14 470 478 479 474 475 471 473 472 480 481 483 482 476 477 100 100 100
3 484 486 485 100 100 100
4 489 490 488 487 100 100 100
3 491 493 492 100 100 100
3 494 496 495 100 100 100
3 497 499 498 100 100 100
5 500 502 504 503 501 100 100 100
5 506 507 511 510 505 100 100 100
4 510 511 509 508 100 100 100
15 484 485 487 488 491 492 494 495 497 498 500 501 505 510 508 100 100 100
4 155 164 166 159 100 100 100
5 29 380 392 375 33 100 100 100
5 181 278 480 472 188 100 100 100
5 36 330 336 322 42 100 100 100
5 223 225 431 439 421 100 100 100
4 99 395 397 103 100 100 100
4 138 140 462 460 100 100 100
4 113 118 415 410 100 100 100
4 51 295 299 55 100 100 100
6 141 146 466 468 454 444 100 100 100
4 70 79 347 339 100 100 100
4 124 127 448 445 100 100 100
8 72 151 152 94 363 365 349 341 100 100 100
8 98 157 158 115 412 418 404 394 100 100 100
4 86 354 358 90 100 100 100
4 59 304 307 62 100 100 100
6 49 148 149 64 309 306 100 100 100
4 203 208 384 379 100 100 100
3 10 194 180 100 100 100
4 198 287 285 196 100 100 100
3 4 423 425 100 100 100
5 31 373 369 256 257 100 100 100
4 242 316 320 246 100 100 100
5 220 236 44 433 430 100 100 100
4 35 328 332 38 100 100 100
4 111 408 414 117 100 100 100
4 135 136 458 457 100 100 100
4 74 343 345 75 100 100 100
5 2 84 88 356 360 100 100 100
4 53 297 292 47 100 100 100
4 12 58 60 13 100 100 100
4 122 442 446 125 100 100 100
4 101 396 399 105 100 100 100
4 25 367 370 27 100 100 100
3 1 190 186 100 100 100
4 185 281 279 182 100 100 100
4 18 19 213 204 100 100 100
4 243 317 324 249 100 100 100
4 221 224 422 419 100 100 100
0 100 100 100
4 212 388 382 206 100 100 100
4 230 435 437 234 100 100 100
4 40 334 331 37 100 100 100
4 46 280 289 23 100 100 100
3 6 144 142 100 100 100
4 222 420 424 227 100 100 100
4 126 447 441 121 100 100 100
6 45 133 129 450 455 434 100 100 100
4 114 411 409 112 100 100 100
4 139 461 459 137 100 100 100
3 20 102 108 100 100 100
4 123 131 452 443 100 100 100
4 87 92 362 355 100 100 100
4 50 294 298 54 100 100 100
4 48 293 296 52 100 100 100
5 210 386 381 30 215 100 100 100
5 15 77 73 342 338 100 100 100
6 263 266 71 340 351 329 100 100 100
5 247 321 326 313 248 100 100 100
4 63 308 305 61 100 100 100
4 89 91 359 357 100 100 100
4 116 119 416 413 100 100 100
3 17 100 106 100 100 100
5 8 205 207 383 385 100 100 100
4 34 376 368 26 100 100 100
3 11 286 282 100 100 100
5 12 311 310 65 58 100 100 100
4 28 371 374 32 100 100 100
4 183 195 478 470 100 100 100
4 220 430 436 231 100 100 100
5 244 251 43 323 318 100 100 100
4 221 419 427 232 100 100 100
6 7 95 85 3 361 353 100 100 100
4 39 333 335 41 100 100 100
6 10 180 184 0 474 479 100 100 100
5 189 473 471 9 192 100 100 100
4 14 22 290 284 100 100 100
4 245 319 316 242 100 100 100
4 222 228 426 420 100 100 100
4 76 346 348 80 100 100 100
4 47 292 293 48 100 100 100
4 214 389 387 211 100 100 100
4 223 421 422 224 100 100 100
5 35 264 263 329 328 100 100 100
4 66 314 304 59 100 100 100
4 15 338 344 16 100 100 100
4 98 394 398 104 100 100 100
4 225 226 432 431 100 100 100
4 181 182 279 278 100 100 100
4 26 368 367 25 100 100 100
4 111 112 409 408 100 100 100
4 135 457 463 143 100 100 100
4 137 459 458 136 100 100 100
4 113 410 411 114 100 100 100
3 7 353 364 100 100 100
4 145 464 467 147 100 100 100
4 138 460 461 139 100 100 100
4 235 438 432 226 100 100 100
5 256 369 372 93 258 100 100 100
4 37 331 330 36 100 100 100
5 13 60 61 305 312 100 100 100
5 17 400 395 99 100 100 100 100
6 49 306 315 301 294 50 100 100 100
4 2 3 85 84 100 100 100
7 140 273 275 5 476 482 462 100 100 100
4 45 434 433 44 100 100 100
4 70 339 340 71 100 100 100
5 203 379 390 18 204 100 100 100
4 183 470 477 5 100 100 100
5 101 102 20 402 396 100 100 100
4 121 441 449 128 100 100 100
6 46 57 56 300 302 280 100 100 100
4 87 355 354 86 100 100 100
4 122 123 443 442 100 100 100
6 141 444 453 132 161 163 100 100 100
5 233 428 423 4 229 100 100 100
3 0 184 191 100 100 100
4 185 187 283 281 100 100 100
4 51 52 296 295 100 100 100
4 244 318 317 243 100 100 100
4 103 397 401 107 100 100 100
6 1 186 193 9 471 475 100 100 100
4 124 445 451 130 100 100 100
4 62 307 308 63 100 100 100
4 245 250 325 319 100 100 100
4 27 370 371 28 100 100 100
4 72 341 342 73 100 100 100
5 187 197 11 282 283 100 100 100
4 53 54 298 297 100 100 100
5 6 142 143 463 465 100 100 100
4 89 357 356 88 100 100 100
4 125 446 447 126 100 100 100
4 115 116 413 412 100 100 100
4 246 320 321 247 100 100 100
3 14 284 288 100 100 100
4 90 358 359 91 100 100 100
4 188 472 473 189 100 100 100
4 117 414 417 120 100 100 100
4 65 310 309 64 100 100 100
7 227 424 429 415 118 175 240 100 100 100
5 16 344 343 74 78 100 100 100
4 29 30 381 380 100 100 100
6 0 191 190 1 475 474 100 100 100
4 104 398 403 109 100 100 100
4 2 360 361 3 100 100 100
5 93 372 377 362 92 100 100 100
3 8 209 205 100 100 100
5 4 425 426 228 229 100 100 100
3 5 477 476 100 100 100
4 75 345 346 76 100 100 100
4 206 382 383 207 100 100 100
4 38 332 333 39 100 100 100
5 6 465 464 145 144 100 100 100
4 31 32 374 373 100 100 100
5 7 364 363 94 95 100 100 100
5 8 385 384 208 209 100 100 100
4 210 211 387 386 100 100 100
3 9 193 192 100 100 100
5 10 479 478 195 194 100 100 100
5 11 197 196 285 286 100 100 100
4 12 13 312 311 100 100 100
5 14 288 287 198 22 100 100 100
4 231 436 435 230 100 100 100
4 55 299 300 56 100 100 100
4 40 41 335 334 100 100 100
5 248 313 314 66 252 100 100 100
4 23 289 290 22 100 100 100
4 15 16 78 77 100 100 100
5 17 106 105 399 400 100 100 100
6 212 218 107 401 406 388 100 100 100
4 232 427 428 233 100 100 100
4 127 128 449 448 100 100 100
4 33 375 376 34 100 100 100
4 130 451 450 129 100 100 100
4 146 147 467 466 100 100 100
4 42 322 323 43 100 100 100
5 19 391 389 214 213 100 100 100
4 79 80 348 347 100 100 100
4 18 390 391 19 100 100 100
5 20 108 109 403 402 100 100 100
4 234 437 438 235 100 100 100
4 119 120 417 416 100 100 100
4 132 453 452 131 100 100 100
4 249 324 325 250 100 100 100
4 265 68 82 267 100 100 100
7 172 170 174 173 169 168 171 100 100 100
0 100 100 100
13 215 30 29 33 34 26 25 27 28 32 31 257 261 100 100 100
12 264 35 38 39 41 40 37 36 42 43 251 268 100 100 100
6 133 45 44 236 238 134 100 100 100
8 485 486 291 303 301 315 489 487 100 100 100
8 366 496 494 492 493 350 349 365 100 100 100
7 498 499 405 404 418 502 500 100 100 100
6 469 509 511 507 454 468 100 100 100
