ply
format ascii 1.0
comment converted from made-by-Polyhedron_join_facets_2
element vertex 512
property float x
property float y
property float z
element face 258
property list uchar uint vertex_indices
property uchar red
property uchar green
property uchar blue
end_header
-722 2146 -5410
-541 2150 -5411
2014 -2482 -5208
2081 -2445 -5407
-2921 -1141 -5224
-1540 2069 -5463
-2221 1807 -5392
2095 -2433 -5267
-1378 -2715 -5223
-317 2149 -5439
-861 2139 -5371
940 2038 -5378
2466 1272 -5424
2514 1194 -5266
1308 1967 -5323
2353 -2149 -5366
2368 -2127 -5219
-2110 -2524 -5296
-982 -2771 -5267
-897 -2782 -5361
-2313 -2409 -5236
1491 1916 -5196
1315 1964 -5244
1450 1928 -5211
1319 1963 -5243
656 -2794 -5213
428 -2804 -5239
833 -2784 -5188
966 -2773 -5162
-237 -2813 -5277
-332 -2811 -5277
1180 -2749 -5109
1092 -2760 -5133
42 -2812 -5268
212 -2810 -5257
-2815 778 -5095
-2783 906 -5072
1602 1879 -5152
2056 1669 -5235
1945 1730 -5221
2289 1488 -5233
2236 1538 -5239
1753 1821 -5188
1825 1788 -5201
2116 1630 -5240
2173 1589 -5241
1702 1843 -5177
1631 1870 -5160
1607 1877 -5154
2450 1293 -5238
2644 885 -5195
2515 1192 -5238
2550 1129 -5234
2606 998 -5217
2576 1073 -5228
2353 1420 -5228
2390 1375 -5233
2667 805 -5177
391 -339 -3260
2361 -878 -4746
313 -385 -3198
2579 -1720 -5155
2230 -2293 -5171
2317 -2191 -5184
2423 -2039 -5188
2454 -1987 -5186
2495 -1915 -5182
2337 -2167 -5186
2368 -2125 -5189
2544 -1822 -5175
2536 -1839 -5177
263 -380 -3162
270 -381 -3167
2011 -2483 -5171
2086 -2438 -5173
1654 -2650 -5128
1551 -2679 -5103
1923 -2531 -5164
1817 -2582 -5153
1677 -2642 -5133
1750 -2612 -5144
1463 -2699 -5080
1414 -2709 -5065
2145 -2383 -5163
2097 -2430 -5173
-123 -721 -3146
-120 -752 -3169
-2440 -2294 -5121
-2015 -2553 -5082
-2105 -2519 -5102
-2259 -2444 -5128
-2303 -2412 -5129
-1911 -2586 -5054
-2420 -2312 -5122
-2212 -2470 -5122
-2197 -2477 -5119
-1839 -2606 -5034
-2325 -2395 -5128
-2354 -2371 -5127
-129 -725 -3150
-2709 -1945 -5141
-2741 -1878 -5134
-2813 -1682 -5101
-2777 -1788 -5121
-2539 -2195 -5137
-2577 -2154 -5143
-2646 -2056 -5146
-2832 -1613 -5085
-2600 -2126 -5147
-2611 -2113 -5148
-2646 1294 -5156
-2544 1479 -5175
-2487 1550 -5172
-2727 1096 -5118
-2560 1457 -5175
-2595 1392 -5168
-2695 1181 -5136
-2661 1260 -5150
-2766 969 -5087
-2746 1040 -5106
-2485 1552 -5172
-2418 1625 -5164
-2781 912 -5071
-2780 909 -5069
-2060 1901 -5181
-2026 1918 -5177
-1925 1959 -5161
-1747 2016 -5123
-1827 1994 -5142
-1697 2027 -5109
-2380 1665 -5164
-2184 1825 -5184
-2115 1870 -5184
-2235 1789 -5182
-2261 1770 -5181
-2339 1702 -5171
-2275 1758 -5179
2328 1446 -5225
2340 1434 -5225
258 -380 -3159
2174 -2353 -5160
2152 -2376 -5161
-123 -719 -3144
-124 -717 -3143
-93 -368 -2975
258 -380 -3159
-2440 -2293 -5120
-2468 -2266 -5121
-117 -390 -2975
-124 -716 -3142
-2404 1640 -5161
-519 -350 -3168
-2384 1660 -5163
-116 -345 -2975
-108 -6 -3155
-140 -366 -2975
-495 -357 -3153
-105 28 -3179
-108 9 -3165
-120 21 -3176
-85 614 -3630
-211 368 -3453
-109 2 -3160
-117 15 -3171
-2842 -1572 -5074
-574 -358 -3205
-534 -354 -3177
-511 -355 -3162
-515 -354 -3164
-848 2139 -5325
215 2121 -5396
409 2104 -5385
-1182 2110 -5244
-796 2141 -5334
657 2076 -5359
-475 2149 -5377
778 2060 -5344
-50 2138 -5399
-252 2146 -5394
-572 2148 -5367
-670 2146 -5354
-285 2147 -5392
-370 2148 -5386
-893 2135 -5315
-1130 2115 -5257
1064 2015 -5292
942 2037 -5318
1185 1991 -5263
1189 1990 -5262
1419 1864 -5067
641 1626 -4582
-18 1518 -4334
-1154 -2748 -5209
-981 -2771 -5238
-1393 -2710 -5159
-1632 -2660 -5088
-1547 -2679 -5116
-1298 -2726 -5181
-1356 -2717 -5168
-503 -2806 -5272
-593 -2801 -5269
-1716 -2638 -5055
-812 -2786 -5255
-723 -2793 -5262
-480 -2806 -5272
-158 -2246 -4317
-776 -2333 -4496
-1800 -2615 -5022
-1800 -2615 -5022
-2847 611 -5126
-2947 -685 -5236
-2886 -1390 -5135
-2950 -292 -5248
-2951 -488 -5246
-2941 -121 -5240
-2938 -86 -5237
-2846 -1557 -5077
-2905 -1274 -5164
-2918 -1144 -5186
-2903 257 -5195
-2885 378 -5173
-2938 -897 -5219
-2934 -969 -5211
-2908 208 -5202
-2925 60 -5221
-2827 715 -5100
-2448 -339 -4552
-2762 764 -5011
-2544 231 -4698
-2844 -1564 -5074
-2586 -957 -4730
2378 54 -4757
2284 -406 -4630
1300 -2730 -5070
1265 -2735 -5079
1364 -2718 -5050
1344 -2709 -5036
463 -2383 -4527
766 -2710 -5045
-68 -2267 -4348
2340 -702 -4708
2326 -612 -4686
-1569 2054 -5124
-1340 2091 -5201
-1329 2093 -5204
-1641 2038 -5093
-1581 2010 -5050
-753 1687 -4565
-1215 2106 -5234
-66 1530 -4350
198 2125 -5529
485 2100 -5510
1451 1933 -5530
538 2094 -5508
844 2054 -5502
766 2065 -5502
1312 1969 -5516
1094 2013 -5504
966 2036 -5501
1161 2001 -5507
1197 1993 -5509
1437 1938 -5528
1411 1944 -5525
1330 1562 -5920
2062 1667 -5471
1931 1739 -5480
2234 1540 -5482
1730 1834 -5508
1872 1768 -5487
2110 1636 -5470
2167 1595 -5474
1650 1867 -5522
1621 1878 -5528
2264 1513 -5489
1547 1902 -5546
1331 1562 -5919
2650 871 -5488
2548 1135 -5446
2295 1483 -5481
2603 1008 -5461
2579 1069 -5452
2356 1418 -5464
2392 1374 -5456
2466 1272 -5446
2519 1187 -5444
2672 787 -5509
2666 817 -5501
2272 1505 -5489
2730 435 -5499
2757 78 -5507
2763 -74 -5516
2733 403 -5499
2717 529 -5501
2695 669 -5509
2764 -299 -5536
2764 -181 -5525
2751 197 -5502
2750 204 -5502
2677 764 -5516
2238 578 -5939
2666 -1361 -5505
2636 -1519 -5511
2760 -473 -5538
2749 -683 -5520
2688 -1224 -5503
2705 -1103 -5504
2746 -711 -5518
2729 -911 -5507
2762 -391 -5547
2759 -391 -5550
2352 -2152 -5428
2585 -1704 -5481
2613 -1611 -5509
2243 -2283 -5444
2288 -2229 -5436
2428 -2035 -5430
2382 -2106 -5428
2434 -2024 -5430
2511 -1888 -5441
2542 -1828 -5449
2526 -1861 -5444
2171 -2359 -5459
2245 -1454 -5879
2620 -1584 -5517
2261 -1452 -5868
2086 -2442 -5425
1616 -2669 -5429
1563 -2684 -5439
1911 -2541 -5414
1829 -2581 -5414
1666 -2652 -5423
1749 -2617 -5417
1984 -2502 -5417
2082 -2445 -5424
1463 -2709 -5460
2142 -2390 -5446
2115 -2416 -5435
2168 -2362 -5459
1305 -2319 -5868
634 -2802 -5446
520 -2806 -5449
1310 -2739 -5464
797 -2793 -5445
1024 -2775 -5448
1354 -2732 -5469
1196 -2756 -5455
1089 -2769 -5450
25 -2817 -5470
245 -2813 -5460
1401 -2722 -5475
1297 -2339 -5853
-1115 -2760 -5424
-231 -2817 -5477
-433 -2813 -5456
-1619 -2675 -5445
-1594 -2681 -5443
-1261 -2739 -5427
-1394 -2718 -5431
-495 -2811 -5450
-552 -2808 -5446
-1662 -2665 -5450
-738 -2796 -5435
-1018 -2772 -5424
-894 -2784 -5428
-178 -2817 -5483
-178 -2813 -5487
-2465 -2284 -5429
-2025 -2562 -5413
-2268 -2448 -5390
-1929 -2593 -5432
-2388 -2355 -5409
-2215 -2477 -5392
-2106 -2529 -5401
-1851 -2616 -5451
-2319 -2411 -5396
-2375 -2365 -5406
-2488 -2262 -5436
-1613 -2250 -5852
-1792 -2632 -5466
-1610 -2262 -5844
-2713 -1967 -5385
-2760 -1870 -5388
-2828 -1698 -5407
-2800 -1776 -5396
-2530 -2219 -5425
-2593 -2149 -5404
-2667 -2047 -5387
-2850 -1624 -5421
-2623 -2113 -5395
-2645 -2084 -5390
-2499 -2251 -5436
-2958 -706 -5426
-2899 -1410 -5408
-2963 -301 -5464
-2963 -461 -5447
-2942 -1015 -5409
-2873 -1531 -5420
-2923 -1236 -5404
-2919 -1274 -5403
-2951 -864 -5416
-2944 -987 -5410
-2858 -1594 -5428
-2870 588 -5448
-2959 -189 -5477
-2946 -16 -5464
-2835 779 -5453
-2817 857 -5459
-2915 278 -5451
-2901 382 -5449
-2929 156 -5455
-2939 59 -5460
-2959 -202 -5479
-2953 -203 -5485
-2656 1303 -5420
-2557 1477 -5418
-2518 1527 -5427
-2395 1663 -5464
-2742 1102 -5445
-2576 1450 -5415
-2618 1376 -5416
-2707 1190 -5432
-2682 1246 -5425
-2776 1007 -5463
-2770 1025 -5459
-2442 1613 -5448
-2441 1615 -5449
-2333 1720 -5488
-2786 971 -5472
-2392 849 -5863
-2071 1901 -5442
-2019 1928 -5440
-1923 1967 -5445
-1723 2030 -5474
-1843 1996 -5454
-1669 2043 -5485
-2131 1868 -5447
-2275 1769 -5473
-2222 1808 -5461
-2326 1727 -5488
-2314 1737 -5485
-2326 1727 -5489
-1470 1632 -5930
-1275 2106 -5476
-326 2150 -5511
-48 2141 -5543
-212 2147 -5524
-720 2147 -5482
-537 2152 -5492
-1540 2070 -5490
-1315 2102 -5477
-1064 2126 -5474
-874 2141 -5475
-16 2139 -5548
-16 2135 -5552
-1610 2056 -5498
-1469 1635 -5928
-67 1179 -6213
1475 803 -6211
1328 1557 -5923
1499 778 -6211
1812 -341 -6210
2212 598 -5950
2230 579 -5945
1810 -416 -6210
1412 -1537 -6211
2238 -1451 -5884
1403 -1546 -6211
-13 -1788 -6213
1302 -2311 -5873
-130 -1784 -6213
-1605 -1480 -6215
-1603 -2232 -5865
-1612 -1473 -6215
-1908 -254 -6216
-2416 -1394 -5875
-2418 -1389 -5874
-2418 -1392 -5874
-1908 -247 -6216
-2386 851 -5867
-2373 865 -5872
-149 1182 -6213
-1465 1620 -5937
-1597 896 -6215
-1598 898 -6214
2668 -1349 -5235
2760 -473 -5381
2749 -670 -5367
2685 -1242 -5264
2706 -1089 -5300
2738 -805 -5352
2730 -906 -5338
2764 -314 -5382
2764 -176 -5377
2674 770 -5168
2666 746 -5152
2557 -1386 -5020
2610 -1617 -5132
2614 -1602 -5140
2580 -1513 -5071
2726 450 -5280
2756 97 -5352
2763 -76 -5372
2738 342 -5307
2712 555 -5249
2690 693 -5200
2680 745 -5179
2751 178 -5340
2746 247 -5326
2654 697 -5130
2635 -1518 -5178
2555 -1350 -5016
2562 -740 -5005
25 185 186 176 174 171 170 177 178 181 182 175 179 180 173 169 183 184 172 248 249 191 190 189 188 187 100 100 100
19 205 206 208 207 201 195 196 194 198 197 192 193 202 203 200 199 204 238 239 100 100 100
22 226 228 227 225 209 220 219 223 224 215 214 212 213 210 221 222 218 217 211 216 229 230 100 100 100
7 144 145 139 138 137 154 153 100 100 100
8 144 148 149 143 142 141 140 145 100 100 100
6 148 155 156 147 146 149 100 100 100
11 154 162 163 152 150 151 168 167 156 155 153 100 100 100
8 456 480 481 441 455 453 263 458 100 100 100
8 460 462 299 309 324 322 465 463 100 100 100
9 467 468 338 350 365 379 377 471 469 100 100 100
6 412 428 478 477 473 475 100 100 100
7 233 235 236 237 239 238 234 100 100 100
8 242 245 246 247 249 248 244 243 100 100 100
4 157 190 191 160 100 100 100
6 37 189 190 157 158 48 100 100 100
15 46 47 48 158 162 154 137 40 41 45 44 38 39 43 42 100 100 100
6 58 71 72 60 232 231 100 100 100
5 59 240 241 232 60 100 100 100
17 73 74 84 83 141 142 85 236 235 82 81 76 75 79 80 78 77 100 100 100
4 85 86 237 236 100 100 100
4 86 205 239 237 100 100 100
7 85 142 143 99 206 205 86 100 100 100
3 99 208 206 100 100 100
18 93 98 97 91 90 94 95 89 88 92 96 207 208 99 143 149 146 87 100 100 100
14 102 103 101 100 106 109 108 105 104 147 156 167 164 107 100 100 100
3 165 226 230 100 100 100
4 165 166 228 226 100 100 100
6 123 227 228 166 168 151 100 100 100
16 118 122 123 151 150 121 120 112 111 114 115 110 117 116 113 119 100 100 100
18 159 246 245 129 127 128 126 125 124 132 131 133 134 136 135 130 152 163 100 100 100
4 159 161 247 246 100 100 100
5 160 191 249 247 161 100 100 100
7 164 167 168 166 165 230 229 100 100 100
18 257 259 260 256 262 261 252 274 275 263 453 452 250 251 253 255 254 258 100 100 100
12 264 269 270 266 273 275 274 272 271 267 268 265 100 100 100
16 299 462 461 287 278 281 282 283 284 277 280 279 276 286 285 298 100 100 100
14 288 291 297 296 289 290 295 294 308 309 299 298 293 292 100 100 100
12 302 303 306 307 305 304 300 301 323 324 309 308 100 100 100
15 319 320 318 317 315 316 310 314 313 321 322 324 323 312 311 100 100 100
16 335 336 325 333 332 328 329 331 330 326 327 334 349 350 338 337 100 100 100
14 341 345 346 343 342 339 340 348 347 364 365 350 349 344 100 100 100
17 359 361 363 362 351 356 357 355 354 360 378 379 365 364 352 353 358 100 100 100
14 377 379 378 373 369 367 372 371 368 374 375 370 366 376 100 100 100
14 384 385 388 389 386 380 381 383 382 387 401 476 474 390 100 100 100
15 391 394 393 411 412 475 476 401 396 392 398 397 395 400 399 100 100 100
13 403 404 410 409 407 408 402 405 406 427 428 412 411 100 100 100
18 417 420 421 413 419 418 414 415 424 425 416 426 479 478 428 427 422 423 100 100 100
15 438 439 436 437 435 429 430 431 433 432 434 454 455 441 440 100 100 100
14 442 450 451 446 447 443 445 444 452 453 455 454 448 449 100 100 100
3 456 458 457 100 100 100
4 461 462 460 459 100 100 100
3 463 465 464 100 100 100
3 466 468 467 100 100 100
3 469 471 470 100 100 100
5 472 474 476 475 473 100 100 100
5 478 479 483 482 477 100 100 100
4 482 483 481 480 100 100 100
15 456 457 459 460 463 464 466 467 469 470 472 473 477 482 480 100 100 100
4 144 153 155 148 100 100 100
5 29 352 364 347 33 100 100 100
5 170 250 452 444 177 100 100 100
5 212 214 403 411 393 100 100 100
4 88 367 369 92 100 100 100
4 127 129 434 432 100 100 100
4 102 107 387 382 100 100 100
4 42 267 271 46 100 100 100
6 130 135 438 440 426 416 100 100 100
4 61 69 319 311 100 100 100
4 113 116 420 417 100 100 100
8 62 140 141 83 335 337 321 313 100 100 100
8 87 146 147 104 384 390 376 366 100 100 100
4 75 326 330 79 100 100 100
4 50 276 279 53 100 100 100
6 40 137 138 55 281 278 100 100 100
4 192 197 356 351 100 100 100
3 10 183 169 100 100 100
4 187 259 257 185 100 100 100
3 4 395 397 100 100 100
5 31 345 341 233 234 100 100 100
5 209 225 35 405 402 100 100 100
4 100 380 386 106 100 100 100
4 124 125 430 429 100 100 100
4 64 315 317 65 100 100 100
5 2 73 77 328 332 100 100 100
4 44 269 264 38 100 100 100
4 12 49 51 13 100 100 100
4 111 414 418 114 100 100 100
4 90 368 371 94 100 100 100
4 25 339 342 27 100 100 100
3 1 179 175 100 100 100
4 174 253 251 171 100 100 100
4 18 19 202 193 100 100 100
4 210 213 394 391 100 100 100
3 5 242 243 100 100 100
4 201 360 354 195 100 100 100
4 219 407 409 223 100 100 100
4 21 252 261 23 100 100 100
3 6 133 131 100 100 100
4 211 392 396 216 100 100 100
4 115 419 413 110 100 100 100
6 36 122 118 422 427 406 100 100 100
4 103 383 381 101 100 100 100
4 128 433 431 126 100 100 100
3 20 91 97 100 100 100
4 112 120 424 415 100 100 100
4 76 81 334 327 100 100 100
4 41 266 270 45 100 100 100
4 39 265 268 43 100 100 100
5 199 358 353 30 204 100 100 100
5 15 67 63 314 310 100 100 100
4 54 280 277 52 100 100 100
4 78 80 331 329 100 100 100
4 105 108 388 385 100 100 100
3 17 89 95 100 100 100
5 8 194 196 355 357 100 100 100
4 34 348 340 26 100 100 100
3 11 258 254 100 100 100
5 12 283 282 56 49 100 100 100
4 28 343 346 32 100 100 100
4 172 184 450 442 100 100 100
4 209 402 408 220 100 100 100
4 210 391 399 221 100 100 100
6 7 84 74 3 333 325 100 100 100
6 10 169 173 0 446 451 100 100 100
5 178 445 443 9 181 100 100 100
5 14 22 24 262 256 100 100 100
4 211 217 398 392 100 100 100
4 66 318 320 70 100 100 100
4 38 264 265 39 100 100 100
4 203 361 359 200 100 100 100
4 212 393 394 213 100 100 100
4 57 286 276 50 100 100 100
4 15 310 316 16 100 100 100
4 87 366 370 93 100 100 100
4 214 215 404 403 100 100 100
4 170 171 251 250 100 100 100
4 26 340 339 25 100 100 100
4 100 101 381 380 100 100 100
4 124 429 435 132 100 100 100
4 126 431 430 125 100 100 100
4 102 382 383 103 100 100 100
3 7 325 336 100 100 100
4 134 436 439 136 100 100 100
4 127 432 433 128 100 100 100
4 224 410 404 215 100 100 100
5 233 341 344 82 235 100 100 100
5 13 51 52 277 284 100 100 100
5 17 372 367 88 89 100 100 100
6 40 278 287 273 266 41 100 100 100
4 2 3 74 73 100 100 100
7 129 245 242 5 448 454 434 100 100 100
4 36 406 405 35 100 100 100
5 192 351 362 18 193 100 100 100
5 172 442 449 244 248 100 100 100
5 90 91 20 374 368 100 100 100
4 110 413 421 117 100 100 100
7 21 37 48 47 272 274 252 100 100 100
4 76 327 326 75 100 100 100
4 111 112 415 414 100 100 100
6 130 416 425 121 150 152 100 100 100
5 222 400 395 4 218 100 100 100
3 0 173 180 100 100 100
4 174 176 255 253 100 100 100
4 42 43 268 267 100 100 100
4 92 369 373 96 100 100 100
6 1 175 182 9 443 447 100 100 100
4 113 417 423 119 100 100 100
4 53 279 280 54 100 100 100
4 27 342 343 28 100 100 100
4 62 313 314 63 100 100 100
5 176 186 11 254 255 100 100 100
4 44 45 270 269 100 100 100
5 6 131 132 435 437 100 100 100
4 78 329 328 77 100 100 100
4 114 418 419 115 100 100 100
4 104 105 385 384 100 100 100
3 14 256 260 100 100 100
4 79 330 331 80 100 100 100
4 177 444 445 178 100 100 100
4 106 386 389 109 100 100 100
4 56 282 281 55 100 100 100
7 216 396 401 387 107 164 229 100 100 100
5 16 316 315 64 68 100 100 100
4 29 30 353 352 100 100 100
6 0 180 179 1 447 446 100 100 100
4 93 370 375 98 100 100 100
4 2 332 333 3 100 100 100
5 82 344 349 334 81 100 100 100
3 8 198 194 100 100 100
5 4 397 398 217 218 100 100 100
5 5 243 244 449 448 100 100 100
4 65 317 318 66 100 100 100
4 195 354 355 196 100 100 100
5 6 437 436 134 133 100 100 100
4 31 32 346 345 100 100 100
5 7 336 335 83 84 100 100 100
5 8 357 356 197 198 100 100 100
4 199 200 359 358 100 100 100
3 9 182 181 100 100 100
5 10 451 450 184 183 100 100 100
5 11 186 185 257 258 100 100 100
4 12 13 284 283 100 100 100
6 14 260 259 187 188 22 100 100 100
4 220 408 407 219 100 100 100
4 46 271 272 47 100 100 100
4 23 261 262 24 100 100 100
4 15 16 68 67 100 100 100
5 17 95 94 371 372 100 100 100
6 201 207 96 373 378 360 100 100 100
4 221 399 400 222 100 100 100
4 116 117 421 420 100 100 100
4 33 347 348 34 100 100 100
4 119 423 422 118 100 100 100
4 135 136 439 438 100 100 100
5 19 363 361 203 202 100 100 100
4 69 70 320 319 100 100 100
4 18 362 363 19 100 100 100
5 20 97 98 375 374 100 100 100
4 223 409 410 224 100 100 100
4 108 109 389 388 100 100 100
4 121 425 424 120 100 100 100
7 161 159 163 162 158 157 160 100 100 100
7 24 22 188 189 37 21 23 100 100 100
13 204 30 29 33 34 26 25 27 28 32 31 234 238 100 100 100
6 122 36 35 225 227 123 100 100 100
8 457 458 263 275 273 287 461 459 100 100 100
8 338 468 466 464 465 322 321 337 100 100 100
7 470 471 377 376 390 474 472 100 100 100
6 441 481 483 479 426 440 100 100 100
28 511 508 494 493 505 504 503 499 502 507 506 500 501 492 491 485 486 489 490 488 487 484 509 497 496 498 495 510 -1 0 0
5 511 508 231 232 241 100 0 0
4 510 511 241 240 100 0 0
15 494 493 57 50 53 54 52 51 49 56 55 138 139 71 58 100 0 0
4 508 494 58 231 100 0 0
5 498 495 59 60 72 100 0 0
17 496 498 72 71 139 145 140 62 63 67 68 64 65 66 70 69 61 100 0 0
5 491 485 302 308 294 100 0 0
4 503 499 288 292 100 0 0
4 487 484 300 304 100 0 0
4 506 500 289 296 100 0 0
4 486 489 306 303 100 0 0
5 509 497 312 323 301 100 0 0
5 505 504 293 298 285 100 0 0
4 501 492 295 290 100 0 0
4 490 488 305 307 100 0 0
4 499 502 291 288 100 0 0
4 484 509 301 300 100 0 0
4 485 486 303 302 100 0 0
5 497 496 61 311 312 100 0 0
4 500 501 290 289 100 0 0
4 502 507 297 291 100 0 0
4 504 503 292 293 100 0 0
4 488 487 304 305 100 0 0
4 489 490 307 306 100 0 0
5 493 505 285 286 57 100 0 0
4 492 491 294 295 100 0 0
4 507 506 296 297 100 0 0
4 495 510 240 59 100 0 0
