ply
format ascii 1.0
comment converted from made-by-Polyhedron_join_facets_2
element vertex 510
property float x
property float y
property float z
element face 258
property list uchar uint vertex_indices
property uchar red
property uchar green
property uchar blue
end_header
-722 2146 -5410
-541 2150 -5411
2014 -2482 -5208
2081 -2445 -5407
-2921 -1141 -5224
-1540 2069 -5463
-2221 1807 -5392
2095 -2433 -5267
-1378 -2715 -5223
-317 2149 -5439
-861 2139 -5371
940 2038 -5378
2466 1272 -5424
2514 1194 -5266
1308 1967 -5323
2353 -2149 -5366
2368 -2127 -5219
-2110 -2524 -5296
-982 -2771 -5267
-897 -2782 -5361
-2313 -2409 -5236
1491 1916 -5196
1315 1964 -5244
1450 1928 -5211
1319 1963 -5243
656 -2794 -5213
428 -2804 -5239
833 -2784 -5188
966 -2773 -5162
-237 -2813 -5277
-332 -2811 -5277
1180 -2749 -5109
1092 -2760 -5133
42 -2812 -5268
212 -2810 -5257
2668 -1346 -5169
2760 -473 -5286
2749 -662 -5276
2684 -1248 -5191
2707 -1084 -5223
2734 -857 -5258
2730 -903 -5253
2763 -323 -5286
2763 -172 -5280
-2815 778 -5095
-2783 906 -5072
1602 1879 -5152
2056 1669 -5235
1945 1730 -5221
2289 1488 -5233
2236 1538 -5239
1753 1821 -5188
1825 1788 -5201
2116 1630 -5240
2173 1589 -5241
1702 1843 -5177
1631 1870 -5160
1607 1877 -5154
2450 1293 -5238
2644 885 -5195
2515 1192 -5238
2550 1129 -5234
2606 998 -5217
2576 1073 -5228
2353 1420 -5228
2390 1375 -5233
2667 805 -5177
391 -339 -3260
2361 -878 -4746
313 -385 -3198
2579 -1720 -5155
2614 -1602 -5129
2230 -2293 -5171
2317 -2191 -5184
2423 -2039 -5188
2454 -1987 -5186
2495 -1915 -5182
2337 -2167 -5186
2368 -2125 -5189
2544 -1822 -5175
2536 -1839 -5177
263 -380 -3162
270 -381 -3167
2011 -2483 -5171
2086 -2438 -5173
1654 -2650 -5128
1551 -2679 -5103
1923 -2531 -5164
1817 -2582 -5153
1677 -2642 -5133
1750 -2612 -5144
1463 -2699 -5080
1414 -2709 -5065
2145 -2383 -5163
2097 -2430 -5173
-123 -721 -3146
-120 -752 -3169
-2440 -2294 -5121
-2015 -2553 -5082
-2105 -2519 -5102
-2259 -2444 -5128
-2303 -2412 -5129
-1911 -2586 -5054
-2420 -2312 -5122
-2212 -2470 -5122
-2197 -2477 -5119
-1839 -2606 -5034
-2325 -2395 -5128
-2354 -2371 -5127
-129 -725 -3150
-2709 -1945 -5141
-2741 -1878 -5134
-2813 -1682 -5101
-2777 -1788 -5121
-2539 -2195 -5137
-2577 -2154 -5143
-2646 -2056 -5146
-2832 -1613 -5085
-2600 -2126 -5147
-2611 -2113 -5148
-2646 1294 -5156
-2544 1479 -5175
-2487 1550 -5172
-2727 1096 -5118
-2560 1457 -5175
-2595 1392 -5168
-2695 1181 -5136
-2661 1260 -5150
-2766 969 -5087
-2746 1040 -5106
-2485 1552 -5172
-2418 1625 -5164
-2781 912 -5071
-2780 909 -5069
-2060 1901 -5181
-2026 1918 -5177
-1925 1959 -5161
-1747 2016 -5123
-1827 1994 -5142
-1697 2027 -5109
-2380 1665 -5164
-2184 1825 -5184
-2115 1870 -5184
-2235 1789 -5182
-2261 1770 -5181
-2339 1702 -5171
-2275 1758 -5179
2328 1446 -5225
2340 1434 -5225
258 -380 -3159
2174 -2353 -5160
2152 -2376 -5161
-123 -719 -3144
-124 -717 -3143
-93 -368 -2975
258 -380 -3159
-2440 -2293 -5120
-2468 -2266 -5121
-117 -390 -2975
-124 -716 -3142
-2404 1640 -5161
-519 -350 -3168
-2384 1660 -5163
-116 -345 -2975
-108 -6 -3155
-140 -366 -2975
-495 -357 -3153
-105 28 -3179
-108 9 -3165
-120 21 -3176
-85 614 -3630
-211 368 -3453
-109 2 -3160
-117 15 -3171
-2842 -1572 -5074
-574 -358 -3205
-534 -354 -3177
-511 -355 -3162
-515 -354 -3164
-848 2139 -5325
215 2121 -5396
409 2104 -5385
-1182 2110 -5244
-796 2141 -5334
657 2076 -5359
-475 2149 -5377
778 2060 -5344
-50 2138 -5399
-252 2146 -5394
-572 2148 -5367
-670 2146 -5354
-285 2147 -5392
-370 2148 -5386
-893 2135 -5315
-1130 2115 -5257
1064 2015 -5292
942 2037 -5318
1185 1991 -5263
1189 1990 -5262
1419 1864 -5067
641 1626 -4582
-18 1518 -4334
-1154 -2748 -5209
-981 -2771 -5238
-1393 -2710 -5159
-1632 -2660 -5088
-1547 -2679 -5116
-1298 -2726 -5181
-1356 -2717 -5168
-503 -2806 -5272
-593 -2801 -5269
-1716 -2638 -5055
-812 -2786 -5255
-723 -2793 -5262
-480 -2806 -5272
-158 -2246 -4317
-776 -2333 -4496
-1800 -2615 -5022
-1800 -2615 -5022
-2847 611 -5126
-2947 -685 -5236
-2886 -1390 -5135
-2950 -292 -5248
-2951 -488 -5246
-2941 -121 -5240
-2938 -86 -5237
-2846 -1557 -5077
-2905 -1274 -5164
-2918 -1144 -5186
-2903 257 -5195
-2885 378 -5173
-2938 -897 -5219
-2934 -969 -5211
-2908 208 -5202
-2925 60 -5221
-2827 715 -5100
-2448 -339 -4552
-2762 764 -5011
-2544 231 -4698
-2844 -1564 -5074
-2586 -957 -4730
2725 454 -5227
2755 107 -5267
2762 -78 -5277
2739 323 -5245
2711 559 -5208
2689 695 -5178
2680 744 -5166
2752 169 -5263
2744 266 -5252
2763 -135 -5278
2678 753 -5163
2677 751 -5161
2378 54 -4757
2284 -406 -4630
1300 -2730 -5070
1265 -2735 -5079
1364 -2718 -5050
1344 -2709 -5036
463 -2383 -4527
766 -2710 -5045
-68 -2267 -4348
2670 -812 -5153
2365 -879 -4749
-1569 2054 -5124
-1340 2091 -5201
-1329 2093 -5204
-1641 2038 -5093
-1581 2010 -5050
-753 1687 -4565
-1215 2106 -5234
-66 1530 -4350
198 2125 -5529
485 2100 -5510
1451 1933 -5530
538 2094 -5508
844 2054 -5502
766 2065 -5502
1312 1969 -5516
1094 2013 -5504
966 2036 -5501
1161 2001 -5507
1197 1993 -5509
1437 1938 -5528
1411 1944 -5525
1330 1562 -5920
2062 1667 -5471
1931 1739 -5480
2234 1540 -5482
1730 1834 -5508
1872 1768 -5487
2110 1636 -5470
2167 1595 -5474
1650 1867 -5522
1621 1878 -5528
2264 1513 -5489
1547 1902 -5546
1331 1562 -5919
2650 871 -5488
2548 1135 -5446
2295 1483 -5481
2603 1008 -5461
2579 1069 -5452
2356 1418 -5464
2392 1374 -5456
2466 1272 -5446
2519 1187 -5444
2672 787 -5509
2666 817 -5501
2272 1505 -5489
2730 435 -5499
2757 78 -5507
2763 -74 -5516
2733 403 -5499
2717 529 -5501
2695 669 -5509
2764 -299 -5536
2764 -181 -5525
2751 197 -5502
2750 204 -5502
2677 764 -5516
2238 578 -5939
2666 -1361 -5505
2636 -1519 -5511
2760 -473 -5538
2749 -683 -5520
2688 -1224 -5503
2705 -1103 -5504
2746 -711 -5518
2729 -911 -5507
2762 -391 -5547
2759 -391 -5550
2352 -2152 -5428
2585 -1704 -5481
2613 -1611 -5509
2243 -2283 -5444
2288 -2229 -5436
2428 -2035 -5430
2382 -2106 -5428
2434 -2024 -5430
2511 -1888 -5441
2542 -1828 -5449
2526 -1861 -5444
2171 -2359 -5459
2245 -1454 -5879
2620 -1584 -5517
2261 -1452 -5868
2086 -2442 -5425
1616 -2669 -5429
1563 -2684 -5439
1911 -2541 -5414
1829 -2581 -5414
1666 -2652 -5423
1749 -2617 -5417
1984 -2502 -5417
2082 -2445 -5424
1463 -2709 -5460
2142 -2390 -5446
2115 -2416 -5435
2168 -2362 -5459
1305 -2319 -5868
634 -2802 -5446
520 -2806 -5449
1310 -2739 -5464
797 -2793 -5445
1024 -2775 -5448
1354 -2732 -5469
1196 -2756 -5455
1089 -2769 -5450
25 -2817 -5470
245 -2813 -5460
1401 -2722 -5475
1297 -2339 -5853
-1115 -2760 -5424
-231 -2817 -5477
-433 -2813 -5456
-1619 -2675 -5445
-1594 -2681 -5443
-1261 -2739 -5427
-1394 -2718 -5431
-495 -2811 -5450
-552 -2808 -5446
-1662 -2665 -5450
-738 -2796 -5435
-1018 -2772 -5424
-894 -2784 -5428
-178 -2817 -5483
-178 -2813 -5487
-2465 -2284 -5429
-2025 -2562 -5413
-2268 -2448 -5390
-1929 -2593 -5432
-2388 -2355 -5409
-2215 -2477 -5392
-2106 -2529 -5401
-1851 -2616 -5451
-2319 -2411 -5396
-2375 -2365 -5406
-2488 -2262 -5436
-1613 -2250 -5852
-1792 -2632 -5466
-1610 -2262 -5844
-2713 -1967 -5385
-2760 -1870 -5388
-2828 -1698 -5407
-2800 -1776 -5396
-2530 -2219 -5425
-2593 -2149 -5404
-2667 -2047 -5387
-2850 -1624 -5421
-2623 -2113 -5395
-2645 -2084 -5390
-2499 -2251 -5436
-2958 -706 -5426
-2899 -1410 -5408
-2963 -301 -5464
-2963 -461 -5447
-2942 -1015 -5409
-2873 -1531 -5420
-2923 -1236 -5404
-2919 -1274 -5403
-2951 -864 -5416
-2944 -987 -5410
-2858 -1594 -5428
-2870 588 -5448
-2959 -189 -5477
-2946 -16 -5464
-2835 779 -5453
-2817 857 -5459
-2915 278 -5451
-2901 382 -5449
-2929 156 -5455
-2939 59 -5460
-2959 -202 -5479
-2953 -203 -5485
-2656 1303 -5420
-2557 1477 -5418
-2518 1527 -5427
-2395 1663 -5464
-2742 1102 -5445
-2576 1450 -5415
-2618 1376 -5416
-2707 1190 -5432
-2682 1246 -5425
-2776 1007 -5463
-2770 1025 -5459
-2442 1613 -5448
-2441 1615 -5449
-2333 1720 -5488
-2786 971 -5472
-2392 849 -5863
-2071 1901 -5442
-2019 1928 -5440
-1923 1967 -5445
-1723 2030 -5474
-1843 1996 -5454
-1669 2043 -5485
-2131 1868 -5447
-2275 1769 -5473
-2222 1808 -5461
-2326 1727 -5488
-2314 1737 -5485
-2326 1727 -5489
-1470 1632 -5930
-1275 2106 -5476
-326 2150 -5511
-48 2141 -5543
-212 2147 -5524
-720 2147 -5482
-537 2152 -5492
-1540 2070 -5490
-1315 2102 -5477
-1064 2126 -5474
-874 2141 -5475
-16 2139 -5548
-16 2135 -5552
-1610 2056 -5498
-1469 1635 -5928
-67 1179 -6213
1475 803 -6211
1328 1557 -5923
1499 778 -6211
1812 -341 -6210
2212 598 -5950
2230 579 -5945
1810 -416 -6210
1412 -1537 -6211
2238 -1451 -5884
1403 -1546 -6211
-13 -1788 -6213
1302 -2311 -5873
-130 -1784 -6213
-1605 -1480 -6215
-1603 -2232 -5865
-1612 -1473 -6215
-1908 -254 -6216
-2416 -1394 -5875
-2418 -1389 -5874
-2418 -1392 -5874
-1908 -247 -6216
-2386 851 -5867
-2373 865 -5872
-149 1182 -6213
-1465 1620 -5937
-1597 896 -6215
-1598 898 -6214
2658 -1398 -5155
2626 -1555 -5117
2611 -1527 -5096
2635 -1518 -5128
25 195 196 186 184 181 180 187 188 191 192 185 189 190 183 179 193 194 182 270 271 201 200 199 198 197 100 100 100
19 215 216 218 217 211 205 206 204 208 207 202 203 212 213 210 209 214 260 261 100 100 100
22 236 238 237 235 219 230 229 233 234 225 224 222 223 220 231 232 228 227 221 226 239 240 100 100 100
7 154 155 149 148 147 164 163 100 100 100
8 154 158 159 153 152 151 150 155 100 100 100
6 158 165 166 157 156 159 100 100 100
11 164 172 173 162 160 161 178 177 166 165 163 100 100 100
8 478 502 503 463 477 475 285 480 100 100 100
8 482 484 321 331 346 344 487 485 100 100 100
9 489 490 360 372 387 401 399 493 491 100 100 100
6 434 450 500 499 495 497 100 100 100
7 255 257 258 259 261 260 256 100 100 100
8 264 267 268 269 271 270 266 265 100 100 100
4 167 200 201 170 100 100 100
6 46 199 200 167 168 57 100 100 100
15 55 56 57 168 172 164 147 49 50 54 53 47 48 52 51 100 100 100
15 67 252 251 66 59 62 63 61 60 58 65 64 148 149 81 100 100 100
3 67 253 252 100 100 100
6 67 81 82 69 254 253 100 100 100
3 263 254 69 100 100 100
17 83 84 94 93 151 152 95 258 257 92 91 86 85 89 90 88 87 100 100 100
4 95 96 259 258 100 100 100
4 96 215 261 259 100 100 100
7 95 152 153 109 216 215 96 100 100 100
3 109 218 216 100 100 100
18 103 108 107 101 100 104 105 99 98 102 106 217 218 109 153 159 156 97 100 100 100
14 112 113 111 110 116 119 118 115 114 157 166 177 174 117 100 100 100
3 175 236 240 100 100 100
4 175 176 238 236 100 100 100
6 133 237 238 176 178 161 100 100 100
16 128 132 133 161 160 131 130 122 121 124 125 120 127 126 123 129 100 100 100
18 169 268 267 139 137 138 136 135 134 142 141 143 144 146 145 140 162 173 100 100 100
4 169 171 269 268 100 100 100
5 170 201 271 269 171 100 100 100
7 174 177 178 176 175 240 239 100 100 100
18 279 281 282 278 284 283 274 296 297 285 475 474 272 273 275 277 276 280 100 100 100
12 286 291 292 288 295 297 296 294 293 289 290 287 100 100 100
16 321 484 483 309 300 303 304 305 306 299 302 301 298 308 307 320 100 100 100
14 310 313 319 318 311 312 317 316 330 331 321 320 315 314 100 100 100
12 324 325 328 329 327 326 322 323 345 346 331 330 100 100 100
15 341 342 340 339 337 338 332 336 335 343 344 346 345 334 333 100 100 100
16 357 358 347 355 354 350 351 353 352 348 349 356 371 372 360 359 100 100 100
14 363 367 368 365 364 361 362 370 369 386 387 372 371 366 100 100 100
17 381 383 385 384 373 378 379 377 376 382 400 401 387 386 374 375 380 100 100 100
14 399 401 400 395 391 389 394 393 390 396 397 392 388 398 100 100 100
14 406 407 410 411 408 402 403 405 404 409 423 498 496 412 100 100 100
15 413 416 415 433 434 497 498 423 418 414 420 419 417 422 421 100 100 100
13 425 426 432 431 429 430 424 427 428 449 450 434 433 100 100 100
18 439 442 443 435 441 440 436 437 446 447 438 448 501 500 450 449 444 445 100 100 100
15 460 461 458 459 457 451 452 453 455 454 456 476 477 463 462 100 100 100
14 464 472 473 468 469 465 467 466 474 475 477 476 470 471 100 100 100
3 478 480 479 100 100 100
4 483 484 482 481 100 100 100
3 485 487 486 100 100 100
3 488 490 489 100 100 100
3 491 493 492 100 100 100
5 494 496 498 497 495 100 100 100
5 500 501 505 504 499 100 100 100
4 504 505 503 502 100 100 100
15 478 479 481 482 485 486 488 489 491 492 494 495 499 504 502 100 100 100
4 154 163 165 158 100 100 100
5 29 374 386 369 33 100 100 100
5 180 272 474 466 187 100 100 100
5 36 324 330 316 42 100 100 100
5 222 224 425 433 415 100 100 100
4 98 389 391 102 100 100 100
4 137 139 456 454 100 100 100
4 112 117 409 404 100 100 100
4 51 289 293 55 100 100 100
6 140 145 460 462 448 438 100 100 100
4 70 79 341 333 100 100 100
4 123 126 442 439 100 100 100
8 72 150 151 93 357 359 343 335 100 100 100
8 97 156 157 114 406 412 398 388 100 100 100
4 85 348 352 89 100 100 100
4 59 298 301 62 100 100 100
6 49 147 148 64 303 300 100 100 100
4 202 207 378 373 100 100 100
3 10 193 179 100 100 100
4 197 281 279 195 100 100 100
3 4 417 419 100 100 100
5 31 367 363 255 256 100 100 100
4 241 310 314 245 100 100 100
5 219 235 44 427 424 100 100 100
4 35 322 326 38 100 100 100
4 110 402 408 116 100 100 100
4 134 135 452 451 100 100 100
4 74 337 339 75 100 100 100
5 2 83 87 350 354 100 100 100
4 53 291 286 47 100 100 100
4 12 58 60 13 100 100 100
4 121 436 440 124 100 100 100
4 100 390 393 104 100 100 100
4 25 361 364 27 100 100 100
3 1 189 185 100 100 100
4 184 275 273 181 100 100 100
4 18 19 212 203 100 100 100
4 242 311 318 248 100 100 100
4 220 223 416 413 100 100 100
3 5 264 265 100 100 100
4 211 382 376 205 100 100 100
4 229 429 431 233 100 100 100
4 40 328 325 37 100 100 100
4 21 274 283 23 100 100 100
3 6 143 141 100 100 100
4 221 414 418 226 100 100 100
4 125 441 435 120 100 100 100
6 45 132 128 444 449 428 100 100 100
4 113 405 403 111 100 100 100
4 138 455 453 136 100 100 100
3 20 101 107 100 100 100
4 122 130 446 437 100 100 100
4 86 91 356 349 100 100 100
4 50 288 292 54 100 100 100
4 48 287 290 52 100 100 100
5 209 380 375 30 214 100 100 100
5 15 77 73 336 332 100 100 100
5 246 315 320 307 247 100 100 100
4 63 302 299 61 100 100 100
4 88 90 353 351 100 100 100
4 115 118 410 407 100 100 100
3 17 99 105 100 100 100
5 8 204 206 377 379 100 100 100
4 34 370 362 26 100 100 100
3 11 280 276 100 100 100
5 12 305 304 65 58 100 100 100
4 28 365 368 32 100 100 100
4 182 194 472 464 100 100 100
4 219 424 430 230 100 100 100
5 243 250 43 317 312 100 100 100
4 220 413 421 231 100 100 100
6 7 94 84 3 355 347 100 100 100
4 39 327 329 41 100 100 100
6 10 179 183 0 468 473 100 100 100
5 188 467 465 9 191 100 100 100
5 14 22 24 284 278 100 100 100
4 244 313 310 241 100 100 100
4 221 227 420 414 100 100 100
4 76 340 342 80 100 100 100
4 47 286 287 48 100 100 100
4 213 383 381 210 100 100 100
4 222 415 416 223 100 100 100
4 66 308 298 59 100 100 100
4 15 332 338 16 100 100 100
4 97 388 392 103 100 100 100
4 224 225 426 425 100 100 100
4 180 181 273 272 100 100 100
4 26 362 361 25 100 100 100
4 110 111 403 402 100 100 100
4 134 451 457 142 100 100 100
4 136 453 452 135 100 100 100
4 112 404 405 113 100 100 100
3 7 347 358 100 100 100
4 144 458 461 146 100 100 100
4 137 454 455 138 100 100 100
4 234 432 426 225 100 100 100
5 255 363 366 92 257 100 100 100
4 37 325 324 36 100 100 100
5 13 60 61 299 306 100 100 100
5 17 394 389 98 99 100 100 100
6 49 300 309 295 288 50 100 100 100
4 2 3 84 83 100 100 100
7 139 267 264 5 470 476 456 100 100 100
4 45 428 427 44 100 100 100
4 70 333 334 71 100 100 100
5 202 373 384 18 203 100 100 100
5 182 464 471 266 270 100 100 100
5 100 101 20 396 390 100 100 100
4 120 435 443 127 100 100 100
7 21 46 57 56 294 296 274 100 100 100
4 86 349 348 85 100 100 100
4 121 122 437 436 100 100 100
6 140 438 447 131 160 162 100 100 100
5 232 422 417 4 228 100 100 100
3 0 183 190 100 100 100
4 184 186 277 275 100 100 100
4 51 52 290 289 100 100 100
4 243 312 311 242 100 100 100
4 102 391 395 106 100 100 100
6 1 185 192 9 465 469 100 100 100
4 123 439 445 129 100 100 100
4 62 301 302 63 100 100 100
4 244 249 319 313 100 100 100
4 27 364 365 28 100 100 100
4 72 335 336 73 100 100 100
5 186 196 11 276 277 100 100 100
4 53 54 292 291 100 100 100
5 6 141 142 457 459 100 100 100
4 88 351 350 87 100 100 100
4 124 440 441 125 100 100 100
4 114 115 407 406 100 100 100
4 245 314 315 246 100 100 100
3 14 278 282 100 100 100
4 89 352 353 90 100 100 100
4 187 466 467 188 100 100 100
4 116 408 411 119 100 100 100
4 65 304 303 64 100 100 100
7 226 418 423 409 117 174 239 100 100 100
5 16 338 337 74 78 100 100 100
4 29 30 375 374 100 100 100
6 0 190 189 1 469 468 100 100 100
4 103 392 397 108 100 100 100
4 2 354 355 3 100 100 100
5 92 366 371 356 91 100 100 100
3 8 208 204 100 100 100
5 4 419 420 227 228 100 100 100
5 5 265 266 471 470 100 100 100
4 75 339 340 76 100 100 100
4 205 376 377 206 100 100 100
4 38 326 327 39 100 100 100
5 6 459 458 144 143 100 100 100
4 31 32 368 367 100 100 100
5 7 358 357 93 94 100 100 100
5 8 379 378 207 208 100 100 100
4 209 210 381 380 100 100 100
3 9 192 191 100 100 100
5 10 473 472 194 193 100 100 100
5 11 196 195 279 280 100 100 100
4 12 13 306 305 100 100 100
6 14 282 281 197 198 22 100 100 100
4 230 430 429 229 100 100 100
4 55 293 294 56 100 100 100
4 40 41 329 328 100 100 100
5 247 307 308 66 251 100 100 100
4 23 283 284 24 100 100 100
4 15 16 78 77 100 100 100
5 17 105 104 393 394 100 100 100
6 211 217 106 395 400 382 100 100 100
4 231 421 422 232 100 100 100
4 126 127 443 442 100 100 100
4 33 369 370 34 100 100 100
4 129 445 444 128 100 100 100
4 145 146 461 460 100 100 100
4 42 316 317 43 100 100 100
5 19 385 383 213 212 100 100 100
4 79 80 342 341 100 100 100
4 18 384 385 19 100 100 100
5 20 107 108 397 396 100 100 100
4 233 431 432 234 100 100 100
4 118 119 411 410 100 100 100
4 131 447 446 130 100 100 100
4 248 318 319 249 100 100 100
7 171 169 173 172 168 167 170 100 100 100
7 24 22 198 199 46 21 23 100 100 100
13 214 30 29 33 34 26 25 27 28 32 31 256 260 100 100 100
6 132 45 44 235 237 133 100 100 100
8 479 480 285 297 295 309 483 481 100 100 100
8 360 490 488 486 487 344 343 359 100 100 100
7 492 493 399 398 412 496 494 100 100 100
6 463 503 505 501 448 462 100 100 100
2 262 263 -1 0 0
6 263 508 507 509 506 262 -1 0 0
16 263 262 250 243 242 248 249 244 241 245 246 247 251 252 253 254 100 0 0
4 508 263 69 82 100 0 0
18 507 508 82 81 149 155 150 72 73 77 78 74 75 76 80 79 70 71 100 0 0
6 509 507 71 334 345 323 100 0 0
5 506 509 323 322 35 100 0 0
12 262 506 35 38 39 41 40 37 36 42 43 250 100 0 0
