ply
format ascii 1.0
comment converted from made-by-Polyhedron_join_facets_2
element vertex 424
property float x
property float y
property float z
element face 214
property list uchar uint vertex_indices
property uchar red
property uchar green
property uchar blue
end_header
1346 -1797 -924
1343 -1802 -924
1345 -1800 -924
345 -320 1046
377 -279 1046
284 -233 1176
345 -320 1046
380 -394 970
392 -405 953
409 -410 937
465 -490 828
466 -489 828
464 -488 831
555 -627 648
559 -641 634
780 -953 208
782 -951 208
607 -679 563
779 -976 188
787 -993 164
810 -963 164
812 -987 147
814 -1033 114
843 -1058 72
851 -1048 72
870 -1117 2
879 -1115 -4
881 -1121 -11
895 -1103 -11
905 -1222 -116
910 -1238 -134
939 -1291 -205
1053 -1271 -302
1029 -1323 -320
1068 -1275 -320
1051 -1393 -373
1061 -1392 -379
1083 -1364 -379
1106 -1435 -444
1098 -1453 -450
1102 -1456 -455
1115 -1440 -455
-1207 1265 -970
-1191 1276 -970
-1204 1269 -969
-1206 1267 -969
-1177 1282 -935
-1082 1340 -869
-1055 1357 -869
-1092 1330 -863
-984 1385 -836
-871 1459 -836
-834 1478 -812
-774 1509 -769
-902 1413 -717
-572 1630 -717
-819 1490 -681
-726 1551 -681
-827 1485 -672
-729 1552 -625
-711 1563 -625
-724 1553 -617
-600 1624 -565
-618 1605 -531
-482 1695 -531
-576 1639 -514
-592 1637 -487
-588 1640 -486
-576 1648 -486
-537 1614 -357
-504 1636 -357
-485 1662 -387
-478 1675 -406
-461 1712 -461
-660 1470 -294
-659 1468 -291
-482 1585 -291
-486 1601 -311
-656 1471 -288
-574 1527 -260
-531 1555 -260
-490 1580 -285
-578 1502 -221
-552 1513 -210
2238 1424 -1180
2233 1428 -1180
2235 1427 -1180
2244 1418 -1183
2238 1408 -1209
2197 1401 -1278
2071 1495 -1278
2125 1474 -1244
2189 1440 -1218
2223 1434 -1184
2161 1443 -1333
284 -232 1177
299 -287 1114
325 -338 1046
359 -379 995
547 -635 648
480 -548 769
772 -1024 147
767 -1011 164
782 -1035 132
864 -1129 -4
957 -1358 -302
1023 -1419 -373
1074 -1464 -444
1044 -1448 -411
2264 1315 -1020
1698 1518 -1020
1986 1399 -980
2235 1305 -970
2268 1375 -1102
2262 1393 -1123
2210 1417 -1131
1942 1538 -1163
1614 1656 -1163
1391 1727 -1218
1567 1673 -1165
2086 1485 -1171
1964 1547 -1281
1796 1604 -1273
-1094 1262 -810
-1092 1258 -805
-1084 1269 -805
-984 1273 -662
-828 1481 -662
-839 1475 -672
-1052 1278 -769
-945 1321 -627
-840 1460 -627
-905 1336 -578
-818 1452 -578
-831 1465 -617
-860 1403 -542
-853 1412 -542
-839 1426 -565
-803 1429 -475
-779 1461 -475
-780 1476 -498
-818 1438 -514
-751 1407 -394
-665 1521 -394
-762 1477 -469
-706 1459 -353
-697 1472 -355
-1118 1308 -863
-1096 1262 -812
-1104 1278 -830
-779 1478 -497
307 2039 -1165
288 2044 -1165
289 2044 -1165
406 2016 -1167
550 1980 -1175
929 1868 -1235
252 2022 -1235
255 2025 -1227
580 1970 -1281
316 2037 -1295
253 2023 -1237
111 -1105 -3080
24 -1085 -3079
-605 -922 -3079
-1078 -793 -3078
-1109 -722 -3078
-1120 -670 -3078
-604 938 -3080
-576 1020 -3080
-405 1020 -3080
-274 990 -3080
-202 969 -3080
559 735 -3081
583 718 -3081
585 691 -3081
178 -860 -3080
-399 1262 91
-379 1217 140
-298 1050 321
-3 511 898
9 490 921
43 445 966
74 413 996
172 326 1075
-402 1347 -11
-1202 -778 -177
121 -144 1271
60 -165 1217
-485 -389 671
-491 -392 664
1658 -1198 -1108
1820 -643 -1087
2000 -31 -1054
1638 -1270 -1095
1564 -1522 -1112
1570 -1499 -1114
-1729 869 -1530
-1728 874 -1529
-1727 877 -1529
-1710 929 -1529
-1696 939 -1583
-1752 754 -1599
-1842 501 -1559
586 1968 -1281
1011 1844 -1273
2153 1445 -1345
2146 1439 -1357
1884 1320 -1646
-2053 -231 -1557
-2215 -968 -1500
-2217 -1222 -1407
-486 -386 669
-142 -105 1038
-66 -13 1108
-60 17 1105
-73 95 1057
-213 413 743
2030 71 -1050
448 4 1075
313 -147 1193
1349 -1804 -930
1420 -1849 -1047
1430 -1838 -1056
1497 -1696 -1086
294 -1392 -2751
670 -1984 -2072
777 -2209 -1802
766 -2232 -1769
756 -2236 -1761
748 -2233 -1762
2147 1417 -1357
2179 1388 -1308
2292 1021 -1045
-1691 958 -1542
-362 1757 -556
-764 1360 -2640
-785 1348 -2647
-798 1342 -2631
-1688 958 -1561
1264 -2072 -1294
1354 -2026 -1191
1355 -2023 -1187
1290 -1836 -921
523 -627 669
231 -184 1249
191 -147 1292
170 -142 1292
-1394 -1721 -1685
697 -2232 -1738
875 -2230 -1673
1114 -2138 -1447
375 232 1119
483 251 1054
532 263 1019
637 302 930
1439 760 39
1716 921 -271
1418 1718 -1165
226 94 1244
184 23 1274
177 -18 1290
193 -33 1294
214 28 1269
-2085 -1422 -1848
-2051 -1389 -1904
-1820 -1219 -2220
-1187 -844 -2969
-1113 -810 -3043
-2133 -1477 -1756
-633 1149 -2929
-606 1078 -3012
-742 1297 -2728
253 161 1212
251 186 1196
-1773 662 -1624
-1675 924 -1641
-2100 -379 -1575
-2096 -366 -1576
-2203 -1106 -1802
-2221 -1114 -1761
-2201 -818 -1611
-2158 -604 -1577
847 1893 -1175
-1154 -1753 -1744
748 -2241 -1746
-1791 -1622 -1680
-2036 -1559 -1680
193 -144 1294
211 -139 1291
215 -121 1291
214 -111 1292
193 -67 1299
171 -96 1301
163 -121 1301
1362 -2021 -1191
1370 -2013 -1181
1368 -2010 -1171
-471 1385 -50
-470 1382 -47
-2060 -1553 -1680
-2084 -1531 -1648
-2227 -1468 -1604
-2183 -1505 -1658
-2118 -1536 -1682
1203 -2098 -1367
1269 -2069 -1294
-291 1032 340
-18 534 872
2278 1161 -933
2271 1134 -933
2259 875 -1025
2308 1056 -1027
2308 1057 -1027
2285 1155 -947
1522 -1651 -1112
1407 -1937 -1156
1357 -2024 -1199
244 -156 1265
253 -145 1261
-423 1626 -360
269 2039 -1151
-621 1439 -2571
-631 1361 -2682
-652 1420 -2607
266 170 1204
299 218 1165
273 226 1165
993 -2049 -1647
-2234 -1463 -1598
-2046 -1275 -1244
-2242 -1436 -1564
-2239 -1458 -1595
-1978 43 -1576
280 -129 1240
683 305 880
604 270 967
592 262 980
348 -26 1189
2251 1209 -880
2194 1191 -811
1047 521 476
250 -182 1243
-411 1384 -56
-1701 946 -1523
155 -58 1294
-362 975 313
-431 1154 146
-547 1377 -101
-608 1478 -225
-665 1469 -300
-84 183 1006
-176 522 745
148 -65 1293
143 -79 1293
151 -124 1298
227 1994 -1396
-484 1615 -328
-2095 -1268 -1904
-2215 -1484 -1659
-2231 -1472 -1645
-2265 -1438 -1619
-2285 -1391 -1615
-2277 -1338 -1648
-2275 -1331 -1653
-2193 -1163 -1829
2286 1163 -950
2305 1138 -1017
2275 1353 -1083
2265 1228 -913
-2286 -1388 -1580
-2285 -1389 -1577
-2270 -1316 -1506
-2266 -1228 -1547
-2023 -1092 -2038
-1838 -1214 -2203
2249 1415 -1165
297 154 1194
-2223 -1251 -1407
-2233 -1259 -1424
-2266 -1304 -1493
-2278 -1406 -1581
-2244 -1434 -1564
-2132 -1265 -1316
-2151 -1236 -1316
-170 -173 1012
1391 -1913 -1074
1373 -1970 -1118
2307 1057 -1030
2240 1370 -1209
847 -2237 -1702
845 -2237 -1705
1349 -1814 -939
1314 -1861 -960
-2244 -1057 -1587
-2208 -834 -1587
2236 1237 -886
2258 1223 -898
227 1996 -1381
145 -136 1293
-731 1378 -2630
-666 1412 -2612
-759 1322 -2694
-2265 -1438 -1608
-2249 -1454 -1605
-510 1461 -138
-2204 -1493 -1666
-2162 -1509 -1701
-1930 -1177 -1052
-1893 -1149 -996
-2188 -1148 -1839
-2253 -1235 -1474
-2257 -1150 -1547
-2235 -1022 -1520
-2228 -973 -1524
-2199 -782 -1567
-1687 950 -1594
-1665 955 -1641
-1111 -639 -3078
-763 446 -3079
-2163 -916 -1778
-2079 -505 -1713
-1811 532 -1629
-1863 358 -1633
3 2 0 1 100 100 100
3 5 3 4 100 100 100
6 9 4 3 6 7 8 100 100 100
3 12 10 11 100 100 100
7 17 11 10 13 14 15 16 100 100 100
5 20 16 15 18 19 100 100 100
6 24 20 19 21 22 23 100 100 100
6 28 24 23 25 26 27 100 100 100
8 34 28 27 29 30 31 32 33 100 100 100
5 37 34 33 35 36 100 100 100
6 41 37 36 38 39 40 100 100 100
4 40 1 0 41 100 100 100
4 45 42 43 44 100 100 100
5 48 43 42 46 47 100 100 100
5 51 48 47 49 50 100 100 100
6 55 51 50 52 53 54 100 100 100
4 57 55 54 56 100 100 100
5 60 57 56 58 59 100 100 100
6 64 60 59 61 62 63 100 100 100
6 68 64 63 65 66 67 100 100 100
7 73 68 67 69 70 71 72 100 100 100
6 77 70 69 74 75 76 100 100 100
6 81 76 75 78 79 80 100 100 100
4 80 79 82 83 100 100 100
3 86 84 85 100 100 100
9 93 85 84 87 88 89 90 91 92 100 100 100
3 90 89 94 100 100 100
6 97 6 3 5 95 96 100 100 100
4 7 6 97 98 100 100 100
7 99 13 10 12 9 8 100 100 100 100
3 14 13 99 100 100 100
5 101 21 19 18 102 100 100 100
4 103 22 21 101 100 100 100
3 104 26 25 100 100 100
4 104 29 27 26 100 100 100
3 32 31 105 100 100 100
5 35 33 32 105 106 100 100 100
6 107 38 36 35 106 108 100 100 100
3 39 38 107 100 100 100
4 112 109 110 111 100 100 100
7 117 110 109 113 114 115 116 100 100 100
7 93 92 118 119 117 116 120 100 100 100
5 92 91 121 122 118 100 100 100
3 125 123 124 100 100 100
6 129 125 124 126 127 128 100 100 100
4 131 127 126 130 100 100 100
5 134 131 130 132 133 100 100 100
5 137 133 132 135 136 100 100 100
6 141 136 135 138 139 140 100 100 100
5 144 139 138 142 143 100 100 100
4 143 142 145 146 100 100 100
4 49 47 46 147 100 100 100
6 148 52 50 49 147 149 100 100 100
6 129 53 52 148 123 125 100 100 100
6 128 58 56 54 53 129 100 100 100
7 134 61 59 58 128 127 131 100 100 100
5 137 62 61 134 133 100 100 100
6 141 65 63 62 137 136 100 100 100
5 141 140 150 66 65 100 100 100
3 153 151 152 100 100 100
7 158 152 151 154 155 156 157 100 100 100
5 161 157 156 159 160 100 100 100
9 177 178 179 180 181 182 183 184 185 100 100 100
5 186 187 188 189 190 100 100 100
6 191 192 193 194 195 196 100 100 100
7 197 198 199 200 201 202 203 100 100 100
9 204 205 122 121 206 207 208 173 172 100 100 100
11 197 209 210 211 212 213 214 215 216 217 198 100 100 100
19 193 218 219 220 17 16 20 24 28 34 37 41 0 2 221 222 223 224 194 100 100 100
8 162 225 226 227 228 229 230 163 100 100 100
7 175 231 232 233 192 191 176 100 100 100
16 43 48 51 55 57 60 64 68 73 235 236 237 238 239 234 44 100 100 100
23 240 241 242 243 108 106 105 31 30 103 101 102 244 98 97 96 245 246 247 248 249 250 251 100 100 100
11 252 253 254 255 256 257 111 110 117 119 258 100 100 100
5 259 260 261 262 263 100 100 100
6 264 265 266 267 268 269 100 100 100
3 270 271 272 100 100 100
6 259 273 274 183 182 260 100 100 100
6 155 283 205 204 159 156 100 100 100
8 229 285 249 248 286 287 284 230 100 100 100
7 288 289 290 291 292 293 294 100 100 100
4 230 284 164 163 100 100 100
5 241 295 296 297 242 100 100 100
4 177 298 299 178 100 100 100
5 300 301 302 303 304 100 100 100
4 240 251 305 306 100 100 100
4 179 307 308 180 100 100 100
6 309 310 311 312 313 314 100 100 100
7 195 315 316 296 295 317 196 100 100 100
4 289 318 319 290 100 100 100
8 151 153 321 235 73 72 320 154 100 100 100
6 118 122 205 283 258 119 100 100 100
5 170 323 324 322 171 100 100 100
5 273 325 326 327 274 100 100 100
3 225 328 226 100 100 100
4 329 330 331 332 100 100 100
7 219 335 336 337 338 334 220 100 100 100
7 309 339 340 257 256 341 310 100 100 100
6 245 342 318 289 288 246 100 100 100
11 252 258 283 155 154 320 343 185 184 327 326 100 100 100
8 42 45 344 200 199 149 147 46 100 100 100
5 261 345 293 292 262 100 100 100
22 198 217 346 347 348 349 78 75 74 350 145 142 138 135 132 130 126 124 123 148 149 199 100 100 100
6 197 203 333 278 277 209 100 100 100
5 216 351 352 346 217 100 100 100
6 293 345 353 354 355 294 100 100 100
4 194 224 315 195 100 100 100
4 286 301 300 287 100 100 100
7 171 322 356 160 159 204 172 100 100 100
5 240 306 317 295 241 100 100 100
5 71 357 343 320 72 100 100 100
9 196 317 306 305 328 225 162 176 191 100 100 100
4 214 354 353 215 100 100 100
10 264 359 360 361 362 363 364 365 358 265 100 100 100
4 366 367 368 369 100 100 100
9 143 146 350 74 69 67 66 150 144 100 100 100
4 349 82 79 78 100 100 100
4 370 371 372 373 100 100 100
6 166 267 266 375 374 167 100 100 100
4 84 86 376 87 100 100 100
9 253 377 263 262 292 291 338 337 254 100 100 100
9 378 379 380 372 371 381 382 383 384 100 100 100
3 188 385 189 100 100 100
9 215 353 345 261 260 182 181 351 216 100 100 100
7 222 386 387 297 296 316 223 100 100 100
7 114 376 86 85 93 120 115 100 100 100
11 312 388 389 88 87 376 114 113 368 367 313 100 100 100
5 90 94 206 121 91 100 100 100
8 226 328 305 251 250 390 391 227 100 100 100
4 386 392 393 387 100 100 100
6 394 395 281 280 364 363 100 100 100
5 228 391 390 285 229 100 100 100
5 307 347 346 352 308 100 100 100
5 169 271 270 323 170 100 100 100
7 99 100 244 102 18 15 14 100 100 100
7 25 23 22 103 30 29 104 100 100 100
10 392 221 2 1 40 39 107 108 243 393 100 100 100
7 396 397 369 368 113 109 112 100 100 100
8 88 389 232 231 207 206 94 89 100 100 100
4 356 398 161 160 100 100 100
4 153 152 158 321 100 100 100
8 213 385 188 187 399 355 354 214 100 100 100
5 236 400 401 402 237 100 100 100
4 360 404 403 361 100 100 100
4 223 316 315 224 100 100 100
4 80 83 405 81 100 100 100
4 71 70 77 357 100 100 100
4 406 407 304 303 100 100 100
7 298 405 83 82 349 348 299 100 100 100
6 361 403 381 371 370 362 100 100 100
4 408 409 384 383 100 100 100
5 279 410 365 364 280 100 100 100
3 379 411 380 100 100 100
4 265 358 375 266 100 100 100
6 394 412 413 414 415 395 100 100 100
3 145 350 146 100 100 100
4 150 140 139 144 100 100 100
4 339 397 396 340 100 100 100
6 270 272 402 401 324 323 100 100 100
12 4 9 12 11 17 220 334 319 318 342 95 5 100 100 100
7 210 414 413 411 379 378 211 100 100 100
6 209 277 282 415 414 210 100 100 100
5 252 326 325 377 253 100 100 100
3 173 208 174 100 100 100
4 165 268 267 166 100 100 100
9 300 304 407 269 268 165 164 284 287 100 100 100
5 111 257 340 396 112 100 100 100
5 180 308 352 351 181 100 100 100
6 381 403 404 332 331 382 100 100 100
12 186 409 408 330 329 302 301 286 248 247 399 187 100 100 100
4 232 389 388 233 100 100 100
6 201 416 417 276 275 202 100 100 100
4 313 367 366 314 100 100 100
5 242 297 387 393 243 100 100 100
3 227 391 228 100 100 100
7 233 388 312 311 218 193 192 100 100 100
5 269 407 406 359 264 100 100 100
5 358 365 410 374 375 100 100 100
6 178 299 348 347 307 179 100 100 100
4 183 274 327 184 100 100 100
9 168 276 417 238 237 402 272 271 169 100 100 100
5 330 408 383 382 331 100 100 100
9 177 185 343 357 77 76 81 405 298 100 100 100
4 238 417 416 239 100 100 100
6 218 311 310 341 335 219 100 100 100
4 221 392 386 222 100 100 100
6 362 370 373 412 394 363 100 100 100
7 211 378 384 409 186 190 212 100 100 100
5 334 338 291 290 319 100 100 100
6 246 288 294 355 399 247 100 100 100
6 234 239 416 201 200 344 100 100 100
6 369 397 339 309 314 366 100 100 100
8 359 406 303 302 329 332 404 360 100 100 100
5 259 263 377 325 273 100 100 100
5 255 336 335 341 256 100 100 100
4 95 342 245 96 100 100 100
5 8 7 98 244 100 100 100 100
5 207 231 175 174 208 100 100 100
6 322 324 401 400 398 356 100 100 100
4 44 234 344 45 100 100 100
6 380 411 413 412 373 372 100 100 100
3 115 120 116 100 100 100
4 285 390 250 249 100 100 100
8 235 321 158 157 161 398 400 236 100 100 100
4 281 395 415 282 100 100 100
5 189 385 213 212 190 100 100 100
4 254 337 336 255 100 100 100
6 418 419 422 423 421 420 -1 0 0
17 418 419 168 169 170 171 172 173 174 175 176 162 163 164 165 166 167 100 0 0
5 419 422 275 276 168 100 0 0
8 421 420 279 280 281 282 277 278 100 0 0
4 423 421 278 333 100 0 0
6 420 418 167 374 410 279 100 0 0
6 422 423 333 203 202 275 100 0 0
