ply
format ascii 1.0
comment converted from made-by-Polyhedron_join_facets_2
element vertex 48
property float x
property float y
property float z
element face 26
property list uchar uint vertex_indices
property uchar red
property uchar green
property uchar blue
end_header
3173 -2957 -5551
-2623 -3158 -4948
-349 1660 -2318
-3053 2563 -4806
-2116 -1404 -3528
-2677 2591 -5660
-2313 2949 -5445
2494 2555 -5762
-2364 2941 -5464
-1688 -2186 -6282
-2337 2979 -5487
-2677 2571 -5659
-2647 -3035 -5424
616 512 -5638
-2355 3002 -5470
-514 -716 -5564
-2647 -3021 -5424
3216 -3003 -5552
-2357 2954 -5472
-3032 -2553 -4789
-1782 -2793 -6173
-2280 -1961 -5185
-2562 -581 -5245
-2932 2503 -4666
-2784 -2208 -4426
-2712 -3273 -5073
-2700 -3142 -5374
-2304 2953 -5443
-2899 2872 -5484
-2310 2967 -5476
-2897 2894 -5533
-2900 2882 -5484
62 91 -1451
-880 -902 -2503
326 39 -1552
349 -403 -1483
1199 -133 -1886
2847 3105 -4971
603 1416 -2644
-2359 2909 -5469
-2359 2909 -5469
2504 3654 -5893
2757 -1447 -3685
1793 200 -2582
1284 -186 -1961
1821 237 -2464
1426 130 -2185
1753 257 -2554
5 2 37 40 28 23 100 100 100
7 38 45 47 43 42 0 40 100 100 100
2 0 25 100 100 100
3 23 24 4 100 100 100
1 40 100 100 100
3 40 20 9 100 100 100
7 5 11 12 9 20 26 28 100 100 100
4 5 28 40 7 100 100 100
4 5 7 12 11 100 100 100
2 40 7 100 100 100
3 9 12 40 100 100 100
2 11 12 100 100 100
3 7 40 12 100 100 100
2 34 33 100 100 100
3 0 25 40 100 100 100
4 20 40 25 26 100 100 100
5 23 28 26 25 24 100 100 100
2 28 40 100 100 100
5 44 43 47 46 36 100 100 100
3 40 37 38 100 100 100
3 44 42 43 100 100 100
3 47 45 46 100 100 100
7 2 34 36 46 45 38 37 100 100 100
7 0 42 44 36 34 33 25 100 100 100
4 33 4 24 25 100 100 100
5 23 4 33 34 2 100 100 100
