ply
format ascii 1.0
comment converted from made-by-Polyhedron_join_facets_2
element vertex 512
property float x
property float y
property float z
element face 258
property list uchar uint vertex_indices
property uchar red
property uchar green
property uchar blue
end_header
-722 2146 -5410
-541 2150 -5411
2014 -2482 -5208
2081 -2445 -5407
-1540 2069 -5463
-2221 1807 -5392
2095 -2433 -5267
-1378 -2715 -5223
-317 2149 -5439
-861 2139 -5371
940 2038 -5378
2466 1272 -5424
2514 1194 -5266
1308 1967 -5323
2353 -2149 -5366
2368 -2127 -5219
-2110 -2524 -5296
-982 -2771 -5267
-897 -2782 -5361
-2313 -2409 -5236
1491 1916 -5196
1315 1964 -5244
1450 1928 -5211
1319 1963 -5243
656 -2794 -5213
428 -2804 -5239
833 -2784 -5188
966 -2773 -5162
-237 -2813 -5277
-332 -2811 -5277
1180 -2749 -5109
1092 -2760 -5133
42 -2812 -5268
212 -2810 -5257
2668 -1346 -5169
2760 -473 -5286
2749 -662 -5276
2684 -1248 -5191
2707 -1084 -5223
2734 -857 -5258
2730 -903 -5253
2763 -323 -5286
2763 -172 -5280
1602 1879 -5152
2056 1669 -5235
1945 1730 -5221
2289 1488 -5233
2236 1538 -5239
1753 1821 -5188
1825 1788 -5201
2116 1630 -5240
2173 1589 -5241
1702 1843 -5177
1631 1870 -5160
1607 1877 -5154
2450 1293 -5238
2644 885 -5195
2515 1192 -5238
2550 1129 -5234
2606 998 -5217
2576 1073 -5228
2353 1420 -5228
2390 1375 -5233
2667 805 -5177
391 -339 -3260
2361 -878 -4746
313 -385 -3198
2579 -1720 -5155
2614 -1602 -5129
2230 -2293 -5171
2317 -2191 -5184
2423 -2039 -5188
2454 -1987 -5186
2495 -1915 -5182
2337 -2167 -5186
2368 -2125 -5189
2544 -1822 -5175
2536 -1839 -5177
263 -380 -3162
2611 -1528 -5097
270 -381 -3167
2011 -2483 -5171
2086 -2438 -5173
1654 -2650 -5128
1551 -2679 -5103
1923 -2531 -5164
1817 -2582 -5153
1677 -2642 -5133
1750 -2612 -5144
1463 -2699 -5080
1414 -2709 -5065
2145 -2383 -5163
2097 -2430 -5173
-123 -721 -3146
-120 -752 -3169
-2440 -2294 -5121
-2015 -2553 -5082
-2105 -2519 -5102
-2259 -2444 -5128
-2303 -2412 -5129
-1911 -2586 -5054
-2420 -2312 -5122
-2212 -2470 -5122
-2197 -2477 -5119
-1839 -2606 -5034
-2325 -2395 -5128
-2354 -2371 -5127
-129 -725 -3150
-2709 -1945 -5141
-2741 -1878 -5134
-2777 -1788 -5121
-2539 -2195 -5137
-2577 -2154 -5143
-2646 -2056 -5146
-2600 -2126 -5147
-2611 -2113 -5148
-2646 1294 -5156
-2544 1479 -5175
-2487 1550 -5172
-2727 1096 -5118
-2560 1457 -5175
-2595 1392 -5168
-2695 1181 -5136
-2661 1260 -5150
-2746 1040 -5106
-2485 1552 -5172
-2418 1625 -5164
-2060 1901 -5181
-2026 1918 -5177
-1925 1959 -5161
-1747 2016 -5123
-1827 1994 -5142
-1697 2027 -5109
-2380 1665 -5164
-2184 1825 -5184
-2115 1870 -5184
-2235 1789 -5182
-2261 1770 -5181
-2339 1702 -5171
-2275 1758 -5179
2328 1446 -5225
2340 1434 -5225
258 -380 -3159
2174 -2353 -5160
2152 -2376 -5161
-123 -719 -3144
-124 -717 -3143
-93 -368 -2975
258 -380 -3159
-2440 -2293 -5120
-2468 -2266 -5121
-117 -390 -2975
-124 -716 -3142
-2404 1640 -5161
-519 -350 -3168
-2384 1660 -5163
-116 -345 -2975
-108 -6 -3155
-140 -366 -2975
-495 -357 -3153
-105 28 -3179
-108 9 -3165
-120 21 -3176
-85 614 -3630
-211 368 -3453
-109 2 -3160
-117 15 -3171
-574 -358 -3205
-534 -354 -3177
-511 -355 -3162
-515 -354 -3164
-848 2139 -5325
215 2121 -5396
409 2104 -5385
-1182 2110 -5244
-796 2141 -5334
657 2076 -5359
-475 2149 -5377
778 2060 -5344
-50 2138 -5399
-252 2146 -5394
-572 2148 -5367
-670 2146 -5354
-285 2147 -5392
-370 2148 -5386
-893 2135 -5315
-1130 2115 -5257
1064 2015 -5292
942 2037 -5318
1185 1991 -5263
1189 1990 -5262
1419 1864 -5067
641 1626 -4582
-18 1518 -4334
-1154 -2748 -5209
-981 -2771 -5238
-1393 -2710 -5159
-1632 -2660 -5088
-1547 -2679 -5116
-1298 -2726 -5181
-1356 -2717 -5168
-503 -2806 -5272
-593 -2801 -5269
-1716 -2638 -5055
-812 -2786 -5255
-723 -2793 -5262
-480 -2806 -5272
-158 -2246 -4317
-776 -2333 -4496
-1800 -2615 -5022
-1800 -2615 -5022
-2448 -339 -4552
-2544 231 -4698
-2586 -957 -4730
2725 454 -5227
2755 107 -5267
2762 -78 -5277
2739 323 -5245
2711 559 -5208
2689 695 -5178
2680 744 -5166
2752 169 -5263
2744 266 -5252
2763 -135 -5278
2678 753 -5163
2677 751 -5161
2378 54 -4757
2284 -406 -4630
1300 -2730 -5070
1265 -2735 -5079
1364 -2718 -5050
1344 -2709 -5036
463 -2383 -4527
766 -2710 -5045
-68 -2267 -4348
2635 -1518 -5128
2658 -1399 -5155
2340 -702 -4708
2626 -1555 -5117
2618 -1541 -5106
2672 -801 -5155
2326 -612 -4686
-1569 2054 -5124
-1340 2091 -5201
-1329 2093 -5204
-1641 2038 -5093
-1581 2010 -5050
-753 1687 -4565
-1215 2106 -5234
-66 1530 -4350
198 2125 -5529
485 2100 -5510
1451 1933 -5530
538 2094 -5508
844 2054 -5502
766 2065 -5502
1312 1969 -5516
1094 2013 -5504
966 2036 -5501
1161 2001 -5507
1197 1993 -5509
1437 1938 -5528
1411 1944 -5525
1330 1562 -5920
2062 1667 -5471
1931 1739 -5480
2234 1540 -5482
1730 1834 -5508
1872 1768 -5487
2110 1636 -5470
2167 1595 -5474
1650 1867 -5522
1621 1878 -5528
2264 1513 -5489
1547 1902 -5546
1331 1562 -5919
2650 871 -5488
2548 1135 -5446
2295 1483 -5481
2603 1008 -5461
2579 1069 -5452
2356 1418 -5464
2392 1374 -5456
2466 1272 -5446
2519 1187 -5444
2672 787 -5509
2666 817 -5501
2272 1505 -5489
2730 435 -5499
2757 78 -5507
2763 -74 -5516
2733 403 -5499
2717 529 -5501
2695 669 -5509
2764 -299 -5536
2764 -181 -5525
2751 197 -5502
2750 204 -5502
2677 764 -5516
2238 578 -5939
2666 -1361 -5505
2636 -1519 -5511
2760 -473 -5538
2749 -683 -5520
2688 -1224 -5503
2705 -1103 -5504
2746 -711 -5518
2729 -911 -5507
2762 -391 -5547
2759 -391 -5550
2352 -2152 -5428
2585 -1704 -5481
2613 -1611 -5509
2243 -2283 -5444
2288 -2229 -5436
2428 -2035 -5430
2382 -2106 -5428
2434 -2024 -5430
2511 -1888 -5441
2542 -1828 -5449
2526 -1861 -5444
2171 -2359 -5459
2245 -1454 -5879
2620 -1584 -5517
2261 -1452 -5868
2086 -2442 -5425
1616 -2669 -5429
1563 -2684 -5439
1911 -2541 -5414
1829 -2581 -5414
1666 -2652 -5423
1749 -2617 -5417
1984 -2502 -5417
2082 -2445 -5424
1463 -2709 -5460
2142 -2390 -5446
2115 -2416 -5435
2168 -2362 -5459
1305 -2319 -5868
634 -2802 -5446
520 -2806 -5449
1310 -2739 -5464
797 -2793 -5445
1024 -2775 -5448
1354 -2732 -5469
1196 -2756 -5455
1089 -2769 -5450
25 -2817 -5470
245 -2813 -5460
1401 -2722 -5475
1297 -2339 -5853
-1115 -2760 -5424
-231 -2817 -5477
-433 -2813 -5456
-1619 -2675 -5445
-1594 -2681 -5443
-1261 -2739 -5427
-1394 -2718 -5431
-495 -2811 -5450
-552 -2808 -5446
-1662 -2665 -5450
-738 -2796 -5435
-1018 -2772 -5424
-894 -2784 -5428
-178 -2817 -5483
-178 -2813 -5487
-2465 -2284 -5429
-2025 -2562 -5413
-2268 -2448 -5390
-1929 -2593 -5432
-2388 -2355 -5409
-2215 -2477 -5392
-2106 -2529 -5401
-1851 -2616 -5451
-2319 -2411 -5396
-2375 -2365 -5406
-2488 -2262 -5436
-1613 -2250 -5852
-1792 -2632 -5466
-1610 -2262 -5844
-2713 -1967 -5385
-2760 -1870 -5388
-2828 -1698 -5407
-2800 -1776 -5396
-2530 -2219 -5425
-2593 -2149 -5404
-2667 -2047 -5387
-2850 -1624 -5421
-2623 -2113 -5395
-2645 -2084 -5390
-2499 -2251 -5436
-2899 -1410 -5408
-2963 -301 -5464
-2963 -461 -5447
-2942 -1015 -5409
-2873 -1531 -5420
-2923 -1236 -5404
-2919 -1274 -5403
-2951 -864 -5416
-2944 -987 -5410
-2858 -1594 -5428
-2870 588 -5448
-2959 -189 -5477
-2946 -16 -5464
-2835 779 -5453
-2817 857 -5459
-2915 278 -5451
-2901 382 -5449
-2929 156 -5455
-2939 59 -5460
-2959 -202 -5479
-2953 -203 -5485
-2656 1303 -5420
-2557 1477 -5418
-2518 1527 -5427
-2395 1663 -5464
-2742 1102 -5445
-2576 1450 -5415
-2618 1376 -5416
-2707 1190 -5432
-2682 1246 -5425
-2776 1007 -5463
-2770 1025 -5459
-2442 1613 -5448
-2441 1615 -5449
-2333 1720 -5488
-2786 971 -5472
-2392 849 -5863
-2071 1901 -5442
-2019 1928 -5440
-1923 1967 -5445
-1723 2030 -5474
-1843 1996 -5454
-1669 2043 -5485
-2131 1868 -5447
-2275 1769 -5473
-2222 1808 -5461
-2326 1727 -5488
-2314 1737 -5485
-2326 1727 -5489
-1470 1632 -5930
-1275 2106 -5476
-326 2150 -5511
-48 2141 -5543
-212 2147 -5524
-720 2147 -5482
-537 2152 -5492
-1540 2070 -5490
-1315 2102 -5477
-1064 2126 -5474
-874 2141 -5475
-16 2139 -5548
-16 2135 -5552
-1610 2056 -5498
-1469 1635 -5928
-67 1179 -6213
1475 803 -6211
1328 1557 -5923
1499 778 -6211
1812 -341 -6210
2212 598 -5950
2230 579 -5945
1810 -416 -6210
1412 -1537 -6211
2238 -1451 -5884
1403 -1546 -6211
-13 -1788 -6213
1302 -2311 -5873
-130 -1784 -6213
-1605 -1480 -6215
-1603 -2232 -5865
-1612 -1473 -6215
-1908 -254 -6216
-2416 -1394 -5875
-2418 -1389 -5874
-2418 -1392 -5874
-1908 -247 -6216
-2386 851 -5867
-2373 865 -5872
-149 1182 -6213
-1465 1620 -5937
-1597 896 -6215
-1598 898 -6214
-2938 -1036 -5379
-2922 -1203 -5341
-2823 779 -5235
-2793 892 -5184
-2805 -1707 -5105
-2814 -1684 -5123
-2837 -1616 -5168
-2747 1037 -5105
-2768 975 -5141
-2691 859 -4993
-2739 -1518 -4990
-2859 599 -5295
-2892 -1400 -5279
-2962 -300 -5451
-2963 -461 -5447
-2956 -180 -5444
-2944 -27 -5429
-2856 -1547 -5206
-2914 -1274 -5324
-2911 272 -5379
-2895 380 -5354
-2951 -865 -5408
-2943 -986 -5389
-2924 167 -5399
-2936 59 -5417
-2545 232 -4698
-2588 -962 -4733
-2962 -512 -5443
-2957 -738 -5424
25 187 188 178 176 173 172 179 180 183 184 177 181 182 175 171 185 186 174 248 249 193 192 191 190 189 100 100 100
19 207 208 210 209 203 197 198 196 200 199 194 195 204 205 202 201 206 233 234 100 100 100
16 215 221 222 217 214 218 219 220 224 225 226 227 241 240 223 216 100 100 100
7 147 148 142 141 140 157 156 100 100 100
8 147 151 152 146 145 144 143 148 100 100 100
6 151 158 159 150 149 152 100 100 100
11 157 165 166 155 153 154 170 169 159 158 156 100 100 100
8 455 479 480 440 454 452 263 457 100 100 100
8 459 461 299 309 324 322 464 462 100 100 100
9 466 467 338 350 365 379 377 470 468 100 100 100
6 411 427 477 476 472 474 100 100 100
7 228 230 231 232 234 233 229 100 100 100
7 237 239 238 235 236 240 241 100 100 100
8 242 245 246 247 249 248 244 243 100 100 100
4 160 192 193 163 100 100 100
6 43 191 192 160 161 54 100 100 100
15 52 53 54 161 165 157 140 46 47 51 50 44 45 49 48 100 100 100
15 64 225 224 63 56 59 60 58 57 55 62 61 141 142 78 100 100 100
3 64 226 225 100 100 100
6 64 78 80 66 227 226 100 100 100
5 65 237 241 227 66 100 100 100
4 65 66 80 79 100 100 100
19 68 238 239 79 80 78 142 148 143 69 70 74 75 71 72 73 77 76 67 100 100 100
17 81 82 92 91 144 145 93 231 230 90 89 84 83 87 88 86 85 100 100 100
4 93 94 232 231 100 100 100
4 94 207 234 232 100 100 100
7 93 145 146 107 208 207 94 100 100 100
3 107 210 208 100 100 100
18 101 106 105 99 98 102 103 97 96 100 104 209 210 107 146 152 149 95 100 100 100
3 167 211 213 100 100 100
4 167 168 212 211 100 100 100
18 162 246 245 132 130 131 129 128 127 135 134 136 137 139 138 133 155 166 100 100 100
4 162 164 247 246 100 100 100
5 163 193 249 247 164 100 100 100
18 257 259 260 256 262 261 252 274 275 263 452 451 250 251 253 255 254 258 100 100 100
12 264 269 270 266 273 275 274 272 271 267 268 265 100 100 100
16 299 461 460 287 278 281 282 283 284 277 280 279 276 286 285 298 100 100 100
14 288 291 297 296 289 290 295 294 308 309 299 298 293 292 100 100 100
12 302 303 306 307 305 304 300 301 323 324 309 308 100 100 100
15 319 320 318 317 315 316 310 314 313 321 322 324 323 312 311 100 100 100
16 335 336 325 333 332 328 329 331 330 326 327 334 349 350 338 337 100 100 100
14 341 345 346 343 342 339 340 348 347 364 365 350 349 344 100 100 100
17 359 361 363 362 351 356 357 355 354 360 378 379 365 364 352 353 358 100 100 100
14 377 379 378 373 369 367 372 371 368 374 375 370 366 376 100 100 100
14 384 385 388 389 386 380 381 383 382 387 400 475 473 390 100 100 100
13 402 403 409 408 406 407 401 404 405 426 427 411 410 100 100 100
18 416 419 420 412 418 417 413 414 423 424 415 425 478 477 427 426 421 422 100 100 100
15 437 438 435 436 434 428 429 430 432 431 433 453 454 440 439 100 100 100
14 441 449 450 445 446 442 444 443 451 452 454 453 447 448 100 100 100
3 455 457 456 100 100 100
4 460 461 459 458 100 100 100
3 462 464 463 100 100 100
3 465 467 466 100 100 100
3 468 470 469 100 100 100
5 471 473 475 474 472 100 100 100
5 477 478 482 481 476 100 100 100
4 481 482 480 479 100 100 100
15 455 456 458 459 462 463 465 466 468 469 471 472 476 481 479 100 100 100
4 147 156 158 151 100 100 100
5 28 352 364 347 32 100 100 100
5 172 250 451 443 179 100 100 100
5 35 302 308 294 41 100 100 100
4 96 367 369 100 100 100 100
4 130 132 433 431 100 100 100
4 48 267 271 52 100 100 100
6 133 138 437 439 425 415 100 100 100
4 67 76 319 311 100 100 100
4 119 122 419 416 100 100 100
8 69 143 144 91 335 337 321 313 100 100 100
8 95 149 150 111 384 390 376 366 100 100 100
4 83 326 330 87 100 100 100
4 56 276 279 59 100 100 100
6 46 140 141 61 281 278 100 100 100
4 194 199 356 351 100 100 100
3 9 185 171 100 100 100
4 189 259 257 187 100 100 100
5 30 345 341 228 229 100 100 100
4 214 288 292 218 100 100 100
4 34 300 304 37 100 100 100
4 108 380 386 113 100 100 100
4 127 128 429 428 100 100 100
4 71 315 317 72 100 100 100
5 2 81 85 328 332 100 100 100
4 50 269 264 44 100 100 100
4 11 55 57 12 100 100 100
4 117 413 417 120 100 100 100
4 98 368 371 102 100 100 100
4 24 339 342 26 100 100 100
3 1 181 177 100 100 100
4 176 253 251 173 100 100 100
4 17 18 204 195 100 100 100
4 215 289 296 221 100 100 100
3 4 242 243 100 100 100
4 203 360 354 197 100 100 100
4 39 306 303 36 100 100 100
4 20 252 261 22 100 100 100
3 5 136 134 100 100 100
4 121 418 412 116 100 100 100
4 110 383 381 109 100 100 100
4 131 432 430 129 100 100 100
3 19 99 105 100 100 100
4 118 125 423 414 100 100 100
4 84 89 334 327 100 100 100
4 47 266 270 51 100 100 100
4 45 265 268 49 100 100 100
5 201 358 353 29 206 100 100 100
5 14 74 70 314 310 100 100 100
6 235 238 68 312 323 301 100 100 100
5 219 293 298 285 220 100 100 100
4 60 280 277 58 100 100 100
4 86 88 331 329 100 100 100
4 112 114 388 385 100 100 100
3 16 97 103 100 100 100
5 7 196 198 355 357 100 100 100
4 33 348 340 25 100 100 100
3 10 258 254 100 100 100
5 11 283 282 62 55 100 100 100
4 27 343 346 31 100 100 100
4 174 186 449 441 100 100 100
5 216 223 42 295 290 100 100 100
6 6 92 82 3 333 325 100 100 100
4 38 305 307 40 100 100 100
6 9 171 175 0 445 450 100 100 100
5 180 444 442 8 183 100 100 100
5 13 21 23 262 256 100 100 100
4 217 291 288 214 100 100 100
4 73 318 320 77 100 100 100
4 44 264 265 45 100 100 100
4 205 361 359 202 100 100 100
5 34 236 235 301 300 100 100 100
4 63 286 276 56 100 100 100
4 14 310 316 15 100 100 100
4 95 366 370 101 100 100 100
4 172 173 251 250 100 100 100
4 25 340 339 24 100 100 100
4 108 109 381 380 100 100 100
4 127 428 434 135 100 100 100
4 129 430 429 128 100 100 100
3 6 325 336 100 100 100
4 137 435 438 139 100 100 100
4 130 431 432 131 100 100 100
5 228 341 344 90 230 100 100 100
4 36 303 302 35 100 100 100
5 12 57 58 277 284 100 100 100
5 16 372 367 96 97 100 100 100
6 46 278 287 273 266 47 100 100 100
4 2 3 82 81 100 100 100
7 132 245 242 4 447 453 433 100 100 100
4 67 311 312 68 100 100 100
5 194 351 362 17 195 100 100 100
5 174 441 448 244 248 100 100 100
5 98 99 19 374 368 100 100 100
4 116 412 420 123 100 100 100
7 20 43 54 53 272 274 252 100 100 100
4 84 327 326 83 100 100 100
4 117 118 414 413 100 100 100
6 133 415 424 126 153 155 100 100 100
3 0 175 182 100 100 100
4 176 178 255 253 100 100 100
4 48 49 268 267 100 100 100
4 216 290 289 215 100 100 100
4 100 369 373 104 100 100 100
6 1 177 184 8 442 446 100 100 100
4 119 416 422 124 100 100 100
4 59 279 280 60 100 100 100
4 217 222 297 291 100 100 100
4 26 342 343 27 100 100 100
4 69 313 314 70 100 100 100
5 178 188 10 254 255 100 100 100
4 50 51 270 269 100 100 100
5 5 134 135 434 436 100 100 100
4 86 329 328 85 100 100 100
4 120 417 418 121 100 100 100
4 111 112 385 384 100 100 100
4 218 292 293 219 100 100 100
3 13 256 260 100 100 100
4 87 330 331 88 100 100 100
4 179 443 444 180 100 100 100
4 113 386 389 115 100 100 100
4 62 282 281 61 100 100 100
5 15 316 315 71 75 100 100 100
4 28 29 353 352 100 100 100
6 0 182 181 1 446 445 100 100 100
4 101 370 375 106 100 100 100
4 2 332 333 3 100 100 100
5 90 344 349 334 89 100 100 100
3 7 200 196 100 100 100
5 4 243 244 448 447 100 100 100
4 72 317 318 73 100 100 100
4 197 354 355 198 100 100 100
4 37 304 305 38 100 100 100
5 5 436 435 137 136 100 100 100
4 30 31 346 345 100 100 100
5 6 336 335 91 92 100 100 100
5 7 357 356 199 200 100 100 100
4 201 202 359 358 100 100 100
3 8 184 183 100 100 100
5 9 450 449 186 185 100 100 100
5 10 188 187 257 258 100 100 100
4 11 12 284 283 100 100 100
6 13 260 259 189 190 21 100 100 100
4 52 271 272 53 100 100 100
4 39 40 307 306 100 100 100
5 220 285 286 63 224 100 100 100
4 22 261 262 23 100 100 100
4 14 15 75 74 100 100 100
5 16 103 102 371 372 100 100 100
6 203 209 104 373 378 360 100 100 100
4 122 123 420 419 100 100 100
4 32 347 348 33 100 100 100
4 138 139 438 437 100 100 100
4 41 294 295 42 100 100 100
5 18 363 361 205 204 100 100 100
4 76 77 320 319 100 100 100
4 17 362 363 18 100 100 100
5 19 105 106 375 374 100 100 100
4 114 115 389 388 100 100 100
4 126 424 423 125 100 100 100
4 221 296 297 222 100 100 100
4 237 65 79 239 100 100 100
7 164 162 166 165 161 160 163 100 100 100
7 23 21 190 191 43 20 22 100 100 100
13 206 29 28 32 33 25 24 26 27 31 30 229 233 100 100 100
12 236 34 37 38 40 39 36 35 41 42 223 240 100 100 100
8 456 457 263 275 273 287 460 458 100 100 100
8 338 467 465 463 464 322 321 337 100 100 100
7 469 470 377 376 390 473 471 100 100 100
6 440 480 482 478 425 439 100 100 100
29 508 509 493 487 488 489 500 495 501 484 483 505 504 511 510 497 496 498 499 507 506 502 503 494 485 486 491 490 492 -1 0 0
5 508 509 213 211 212 100 0 0
13 493 487 110 109 108 113 115 114 112 111 150 159 169 100 0 0
6 492 508 212 168 170 154 100 0 0
15 490 492 154 153 126 125 118 117 120 121 116 123 122 119 124 100 0 0
7 509 493 169 170 168 167 213 100 0 0
16 511 510 393 392 410 411 474 475 400 395 391 397 396 394 399 398 100 0 0
5 496 498 402 410 392 100 0 0
4 488 489 387 382 100 0 0
4 484 483 394 396 100 0 0
4 494 485 404 401 100 0 0
3 510 497 393 100 0 0
4 506 502 406 408 100 0 0
4 500 495 391 395 100 0 0
5 486 491 421 426 405 100 0 0
4 503 494 401 407 100 0 0
3 504 511 398 100 0 0
4 495 501 397 391 100 0 0
4 497 496 392 393 100 0 0
4 498 499 403 402 100 0 0
5 487 488 382 383 110 100 0 0
4 499 507 409 403 100 0 0
4 485 486 405 404 100 0 0
4 483 505 399 394 100 0 0
5 489 500 395 400 387 100 0 0
4 501 484 396 397 100 0 0
4 502 503 407 406 100 0 0
4 505 504 398 399 100 0 0
5 491 490 124 422 421 100 0 0
4 507 506 408 409 100 0 0
