ply
format ascii 1.0
comment converted from made-by-Polyhedron_join_facets_2
element vertex 292
property float x
property float y
property float z
element face 148
property list uchar uint vertex_indices
property uchar red
property uchar green
property uchar blue
end_header
-2921 -1141 -5224
-1540 2069 -5463
-2221 1807 -5392
-1378 -2715 -5223
-861 2139 -5371
-2110 -2524 -5296
-982 -2771 -5267
-897 -2782 -5361
-2313 -2409 -5236
656 -2794 -5213
428 -2804 -5239
833 -2784 -5188
966 -2773 -5162
-237 -2813 -5277
-332 -2811 -5277
42 -2812 -5268
212 -2810 -5257
-2815 778 -5095
-2783 906 -5072
-123 -721 -3146
-120 -752 -3169
-2440 -2294 -5121
-2015 -2553 -5082
-2105 -2519 -5102
-2259 -2444 -5128
-2303 -2412 -5129
-1911 -2586 -5054
-2420 -2312 -5122
-2212 -2470 -5122
-2197 -2477 -5119
-1839 -2606 -5034
-2325 -2395 -5128
-2354 -2371 -5127
-129 -725 -3150
-2709 -1945 -5141
-2741 -1878 -5134
-2813 -1682 -5101
-2777 -1788 -5121
-2539 -2195 -5137
-2577 -2154 -5143
-2646 -2056 -5146
-2832 -1613 -5085
-2600 -2126 -5147
-2611 -2113 -5148
-2646 1294 -5156
-2544 1479 -5175
-2487 1550 -5172
-2727 1096 -5118
-2560 1457 -5175
-2595 1392 -5168
-2695 1181 -5136
-2661 1260 -5150
-2766 969 -5087
-2746 1040 -5106
-2485 1552 -5172
-2418 1625 -5164
-2781 912 -5071
-2780 909 -5069
-2060 1901 -5181
-2026 1918 -5177
-1925 1959 -5161
-1747 2016 -5123
-1827 1994 -5142
-1697 2027 -5109
-2380 1665 -5164
-2184 1825 -5184
-2115 1870 -5184
-2235 1789 -5182
-2261 1770 -5181
-2339 1702 -5171
-2275 1758 -5179
-123 -719 -3144
-124 -717 -3143
-93 -368 -2975
-2440 -2293 -5120
-2468 -2266 -5121
-117 -390 -2975
-124 -716 -3142
-2404 1640 -5161
-519 -350 -3168
-2384 1660 -5163
-116 -345 -2975
-108 -6 -3155
-140 -366 -2975
-495 -357 -3153
-105 28 -3179
-108 9 -3165
-120 21 -3176
-211 368 -3453
-109 2 -3160
-117 15 -3171
-2842 -1572 -5074
-574 -358 -3205
-534 -354 -3177
-511 -355 -3162
-515 -354 -3164
-848 2139 -5325
-1182 2110 -5244
-796 2141 -5334
-893 2135 -5315
-1130 2115 -5257
-1154 -2748 -5209
-981 -2771 -5238
-1393 -2710 -5159
-1632 -2660 -5088
-1547 -2679 -5116
-1298 -2726 -5181
-1356 -2717 -5168
-503 -2806 -5272
-593 -2801 -5269
-1716 -2638 -5055
-812 -2786 -5255
-723 -2793 -5262
-480 -2806 -5272
-158 -2246 -4317
-776 -2333 -4496
-1800 -2615 -5022
-1800 -2615 -5022
-2847 611 -5126
-2947 -685 -5236
-2886 -1390 -5135
-2950 -292 -5248
-2951 -488 -5246
-2941 -121 -5240
-2938 -86 -5237
-2846 -1557 -5077
-2905 -1274 -5164
-2918 -1144 -5186
-2903 257 -5195
-2885 378 -5173
-2938 -897 -5219
-2934 -969 -5211
-2908 208 -5202
-2925 60 -5221
-2827 715 -5100
-2448 -339 -4552
-2762 764 -5011
-2544 231 -4698
-2844 -1564 -5074
-2586 -957 -4730
463 -2383 -4527
766 -2710 -5045
-68 -2267 -4348
-1569 2054 -5124
-1340 2091 -5201
-1329 2093 -5204
-1641 2038 -5093
-1581 2010 -5050
-753 1687 -4565
-1215 2106 -5234
634 -2802 -5446
520 -2806 -5449
797 -2793 -5445
1024 -2775 -5448
25 -2817 -5470
245 -2813 -5460
-1115 -2760 -5424
-231 -2817 -5477
-433 -2813 -5456
-1619 -2675 -5445
-1594 -2681 -5443
-1261 -2739 -5427
-1394 -2718 -5431
-495 -2811 -5450
-552 -2808 -5446
-1662 -2665 -5450
-738 -2796 -5435
-1018 -2772 -5424
-894 -2784 -5428
-178 -2817 -5483
-178 -2813 -5487
-2465 -2284 -5429
-2025 -2562 -5413
-2268 -2448 -5390
-1929 -2593 -5432
-2388 -2355 -5409
-2215 -2477 -5392
-2106 -2529 -5401
-1851 -2616 -5451
-2319 -2411 -5396
-2375 -2365 -5406
-2488 -2262 -5436
-1613 -2250 -5852
-1792 -2632 -5466
-1610 -2262 -5844
-2713 -1967 -5385
-2760 -1870 -5388
-2828 -1698 -5407
-2800 -1776 -5396
-2530 -2219 -5425
-2593 -2149 -5404
-2667 -2047 -5387
-2850 -1624 -5421
-2623 -2113 -5395
-2645 -2084 -5390
-2499 -2251 -5436
-2958 -706 -5426
-2899 -1410 -5408
-2963 -301 -5464
-2963 -461 -5447
-2942 -1015 -5409
-2873 -1531 -5420
-2923 -1236 -5404
-2919 -1274 -5403
-2951 -864 -5416
-2944 -987 -5410
-2858 -1594 -5428
-2870 588 -5448
-2959 -189 -5477
-2946 -16 -5464
-2835 779 -5453
-2817 857 -5459
-2915 278 -5451
-2901 382 -5449
-2929 156 -5455
-2939 59 -5460
-2959 -202 -5479
-2953 -203 -5485
-2656 1303 -5420
-2557 1477 -5418
-2518 1527 -5427
-2395 1663 -5464
-2742 1102 -5445
-2576 1450 -5415
-2618 1376 -5416
-2707 1190 -5432
-2682 1246 -5425
-2776 1007 -5463
-2770 1025 -5459
-2442 1613 -5448
-2441 1615 -5449
-2333 1720 -5488
-2786 971 -5472
-2392 849 -5863
-2071 1901 -5442
-2019 1928 -5440
-1923 1967 -5445
-1723 2030 -5474
-1843 1996 -5454
-1669 2043 -5485
-2131 1868 -5447
-2275 1769 -5473
-2222 1808 -5461
-2326 1727 -5488
-2314 1737 -5485
-2326 1727 -5489
-1470 1632 -5930
-1275 2106 -5476
-1540 2070 -5490
-1315 2102 -5477
-1064 2126 -5474
-874 2141 -5475
-1610 2056 -5498
-1469 1635 -5928
-13 -1788 -6213
-130 -1784 -6213
-1605 -1480 -6215
-1603 -2232 -5865
-1612 -1473 -6215
-1908 -254 -6216
-2416 -1394 -5875
-2418 -1389 -5874
-2418 -1392 -5874
-1908 -247 -6216
-2386 851 -5867
-2373 865 -5872
-1465 1620 -5937
-1597 896 -6215
-1598 898 -6214
-796 2141 -5335
1030 -2766 -5147
-18 107 -3269
688 -1821 -4192
0 58 -3247
436 -1127 -3641
163 -377 -3109
-95 310 -3396
-40 165 -3300
-157 473 -3529
-796 2141 -5334
1014 -2723 -5062
959 -2566 -4813
-606 1653 -4519
-677 1836 -4820
1030 -2774 -5448
911 -2463 -5757
-798 2144 -5478
-709 1896 -5731
615 -1680 -6212
774 -2101 -6009
-490 1295 -6142
-428 1127 -6214
19 114 115 117 116 110 104 105 103 107 106 101 102 111 112 109 108 113 141 142 100 100 100
22 135 137 136 134 118 129 128 132 133 124 123 121 122 119 130 131 127 126 120 125 138 139 100 100 100
6 76 83 84 75 74 77 100 100 100
11 82 89 90 80 78 79 95 94 84 83 81 100 100 100
6 217 233 264 263 259 261 100 100 100
4 20 114 142 140 100 100 100
7 19 71 72 33 115 114 20 100 100 100
3 33 117 115 100 100 100
18 27 32 31 25 24 28 29 23 22 26 30 116 117 33 72 77 74 21 100 100 100
14 36 37 35 34 40 43 42 39 38 75 84 94 91 41 100 100 100
3 92 135 139 100 100 100
4 92 93 137 135 100 100 100
6 57 136 137 93 95 79 100 100 100
16 52 56 57 79 78 55 54 46 45 48 49 44 51 50 47 53 100 100 100
18 87 147 146 63 61 62 60 59 58 66 65 67 68 70 69 64 80 90 100 100 100
4 87 88 148 147 100 100 100
7 91 94 95 93 92 139 138 100 100 100
17 164 166 168 167 156 161 162 160 159 165 183 184 170 169 157 158 163 100 100 100
14 182 184 183 178 174 172 177 176 173 179 180 175 171 181 100 100 100
14 189 190 193 194 191 185 186 188 187 192 206 262 260 195 100 100 100
15 196 199 198 216 217 261 262 206 201 197 203 202 200 205 204 100 100 100
13 208 209 215 214 212 213 207 210 211 232 233 217 216 100 100 100
18 222 225 226 218 224 223 219 220 229 230 221 231 265 264 233 232 227 228 100 100 100
15 243 244 241 242 240 234 235 236 238 237 239 252 253 246 245 100 100 100
3 255 257 256 100 100 100
5 258 260 262 261 259 100 100 100
5 264 265 268 267 263 100 100 100
4 73 81 83 76 100 100 100
5 13 157 169 154 15 100 100 100
5 121 123 208 216 198 100 100 100
4 22 172 174 26 100 100 100
4 61 63 239 237 100 100 100
4 36 41 192 187 100 100 100
6 64 69 243 245 231 221 100 100 100
4 47 50 225 222 100 100 100
8 21 74 75 38 189 195 181 171 100 100 100
4 101 106 161 156 100 100 100
3 4 99 96 100 100 100
3 0 200 202 100 100 100
5 118 134 17 210 207 100 100 100
4 34 185 191 40 100 100 100
4 58 59 235 234 100 100 100
4 45 219 223 48 100 100 100
4 24 173 176 28 100 100 100
4 9 150 152 11 100 100 100
4 6 7 111 102 100 100 100
4 119 122 199 196 100 100 100
3 1 143 144 100 100 100
4 110 165 159 104 100 100 100
4 128 212 214 132 100 100 100
3 2 67 65 100 100 100
4 120 197 201 125 100 100 100
4 49 224 218 44 100 100 100
6 18 56 52 227 232 211 100 100 100
4 37 188 186 35 100 100 100
4 62 238 236 60 100 100 100
3 8 25 31 100 100 100
4 46 54 229 220 100 100 100
5 108 163 158 14 113 100 100 100
4 39 42 193 190 100 100 100
3 5 23 29 100 100 100
5 3 103 105 160 162 100 100 100
4 16 155 151 10 100 100 100
4 97 100 250 247 100 100 100
4 118 207 213 129 100 100 100
4 119 196 204 130 100 100 100
4 120 126 203 197 100 100 100
4 112 166 164 109 100 100 100
4 121 198 199 122 100 100 100
4 21 171 175 27 100 100 100
4 123 124 209 208 100 100 100
4 10 151 150 9 100 100 100
4 34 35 186 185 100 100 100
4 58 234 240 66 100 100 100
4 60 236 235 59 100 100 100
4 36 187 188 37 100 100 100
4 68 241 244 70 100 100 100
4 61 237 238 62 100 100 100
4 133 215 209 124 100 100 100
5 5 177 172 22 23 100 100 100
7 63 146 143 1 248 252 239 100 100 100
4 18 211 210 17 100 100 100
5 101 156 167 6 102 100 100 100
5 97 247 249 145 149 100 100 100
5 24 25 8 179 173 100 100 100
4 44 218 226 51 100 100 100
4 45 46 220 219 100 100 100
6 64 221 230 55 78 80 100 100 100
5 131 205 200 0 127 100 100 100
4 26 174 178 30 100 100 100
4 47 222 228 53 100 100 100
4 11 152 153 12 100 100 100
5 2 65 66 240 242 100 100 100
4 48 223 224 49 100 100 100
4 38 39 190 189 100 100 100
4 40 191 194 43 100 100 100
7 125 201 206 192 41 91 138 100 100 100
4 13 14 158 157 100 100 100
4 27 175 180 32 100 100 100
3 3 107 103 100 100 100
5 0 202 203 126 127 100 100 100
5 1 144 145 249 248 100 100 100
4 104 159 160 105 100 100 100
5 2 242 241 68 67 100 100 100
5 3 162 161 106 107 100 100 100
4 108 109 164 163 100 100 100
5 4 251 250 100 99 100 100 100
4 129 213 212 128 100 100 100
5 5 29 28 176 177 100 100 100
6 110 116 30 178 183 165 100 100 100
4 130 204 205 131 100 100 100
4 50 51 226 225 100 100 100
4 15 154 155 16 100 100 100
4 53 228 227 52 100 100 100
4 69 70 244 243 100 100 100
5 7 168 166 112 111 100 100 100
4 6 167 168 7 100 100 100
5 8 31 32 180 179 100 100 100
4 132 214 215 133 100 100 100
4 42 43 194 193 100 100 100
4 55 230 229 54 100 100 100
6 56 18 17 134 136 57 100 100 100
7 256 257 182 181 195 260 258 100 100 100
6 246 266 268 265 231 245 100 100 100
23 283 279 269 286 287 290 291 288 289 285 284 270 280 281 272 274 275 273 271 277 276 278 282 -1 0 0
8 283 279 98 96 99 100 97 149 100 0 0
5 275 273 82 81 73 100 0 0
7 274 275 73 76 77 72 71 100 0 0
5 287 290 266 246 253 100 0 0
8 289 285 170 184 182 257 255 254 100 0 0
5 280 281 140 142 141 100 0 0
9 282 283 149 145 144 143 146 147 148 100 0 0
3 277 276 85 100 0 0
4 271 277 85 86 100 0 0
5 273 271 86 89 82 100 0 0
4 272 274 71 19 100 0 0
5 281 272 19 20 140 100 0 0
4 278 282 148 88 100 0 0
10 285 284 153 152 150 151 155 154 169 170 100 0 0
9 286 287 253 252 248 249 247 250 251 100 0 0
3 288 289 254 100 0 0
5 290 291 267 268 266 100 0 0
9 291 288 254 255 256 258 259 263 267 100 0 0
4 284 270 12 153 100 0 0
6 269 286 251 4 96 98 100 0 0
3 279 269 98 100 0 0
8 276 278 88 87 90 89 86 85 100 0 0
12 270 280 141 113 14 13 15 16 10 9 11 12 100 0 0
