ply
format ascii 1.0
comment converted from made-by-Polyhedron_join_facets_2
element vertex 262
property float x
property float y
property float z
element face 133
property list uchar uint vertex_indices
property uchar red
property uchar green
property uchar blue
end_header
1346 -1797 -924
1343 -1802 -924
1345 -1800 -924
380 -394 970
392 -405 953
409 -410 937
465 -490 828
466 -489 828
464 -488 831
555 -627 648
559 -641 634
780 -953 208
782 -951 208
607 -679 563
779 -976 188
787 -993 164
810 -963 164
812 -987 147
814 -1033 114
843 -1058 72
851 -1048 72
870 -1117 2
879 -1115 -4
881 -1121 -11
895 -1103 -11
905 -1222 -116
910 -1238 -134
939 -1291 -205
1053 -1271 -302
1029 -1323 -320
1068 -1275 -320
1051 -1393 -373
1061 -1392 -379
1083 -1364 -379
1106 -1435 -444
1098 -1453 -450
1102 -1456 -455
1115 -1440 -455
2238 1424 -1180
2233 1428 -1180
2235 1427 -1180
2244 1418 -1183
2238 1408 -1209
2197 1401 -1278
2071 1495 -1278
2125 1474 -1244
2189 1440 -1218
2223 1434 -1184
2161 1443 -1333
359 -379 995
547 -635 648
480 -548 769
772 -1024 147
767 -1011 164
782 -1035 132
864 -1129 -4
957 -1358 -302
1023 -1419 -373
1074 -1464 -444
1044 -1448 -411
2264 1315 -1020
1698 1518 -1020
1986 1399 -980
2235 1305 -970
2268 1375 -1102
2262 1393 -1123
2210 1417 -1131
1942 1538 -1163
1614 1656 -1163
1391 1727 -1218
1567 1673 -1165
2086 1485 -1171
1964 1547 -1281
1796 1604 -1273
929 1868 -1235
580 1970 -1281
111 -1105 -3080
24 -1085 -3079
-605 -922 -3079
-1078 -793 -3078
-1109 -722 -3078
-1120 -670 -3078
-1027 -367 -3079
-604 938 -3080
-576 1020 -3080
-405 1020 -3080
-274 990 -3080
-202 969 -3080
559 735 -3081
583 718 -3081
585 691 -3081
178 -860 -3080
1658 -1198 -1108
1820 -643 -1087
2000 -31 -1054
1638 -1270 -1095
1564 -1522 -1112
1570 -1499 -1114
586 1968 -1281
1011 1844 -1273
2153 1445 -1345
2146 1439 -1357
1884 1320 -1646
-2215 -968 -1500
-2217 -1222 -1407
2030 71 -1050
1349 -1804 -930
1420 -1849 -1047
1430 -1838 -1056
1497 -1696 -1086
294 -1392 -2751
670 -1984 -2072
777 -2209 -1802
766 -2232 -1769
756 -2236 -1761
748 -2233 -1762
2147 1417 -1357
2179 1388 -1308
2292 1021 -1045
-764 1360 -2640
-785 1348 -2647
-798 1342 -2631
1264 -2072 -1294
1354 -2026 -1191
1355 -2023 -1187
1290 -1836 -921
523 -627 669
-1394 -1721 -1685
697 -2232 -1738
875 -2230 -1673
1114 -2138 -1447
1439 760 39
1716 921 -271
1418 1718 -1165
-2085 -1422 -1848
-2051 -1389 -1904
-1820 -1219 -2220
-1187 -844 -2969
-1113 -810 -3043
-2133 -1477 -1756
-633 1149 -2929
-606 1078 -3012
-742 1297 -2728
-2086 -562 -1734
-2078 -518 -1727
-2203 -1106 -1802
-2221 -1114 -1761
-2201 -818 -1611
-2158 -604 -1577
847 1893 -1175
-1154 -1753 -1744
748 -2241 -1746
-1791 -1622 -1680
-2036 -1559 -1680
1362 -2021 -1191
1370 -2013 -1181
1368 -2010 -1171
-2060 -1553 -1680
-2084 -1531 -1648
-2227 -1468 -1604
-2183 -1505 -1658
-2118 -1536 -1682
1203 -2098 -1367
1269 -2069 -1294
2278 1161 -933
2271 1134 -933
2259 875 -1025
2308 1056 -1027
2308 1057 -1027
2285 1155 -947
1522 -1651 -1112
1407 -1937 -1156
1357 -2024 -1199
-621 1439 -2571
-631 1361 -2682
-652 1420 -2607
993 -2049 -1647
-2234 -1463 -1598
-2046 -1275 -1244
-2242 -1436 -1564
-2239 -1458 -1595
2251 1209 -880
2194 1191 -811
1047 521 476
-2095 -1268 -1904
-2215 -1484 -1659
-2231 -1472 -1645
-2265 -1438 -1619
-2285 -1391 -1615
-2277 -1338 -1648
-2275 -1331 -1653
-2193 -1163 -1829
2286 1163 -950
2305 1138 -1017
2275 1353 -1083
2265 1228 -913
-2286 -1388 -1580
-2285 -1389 -1577
-2270 -1316 -1506
-2266 -1228 -1547
-2023 -1092 -2038
-1838 -1214 -2203
2249 1415 -1165
-2223 -1251 -1407
-2233 -1259 -1424
-2266 -1304 -1493
-2278 -1406 -1581
-2244 -1434 -1564
-2132 -1265 -1316
-2151 -1236 -1316
1391 -1913 -1074
1373 -1970 -1118
2307 1057 -1030
2240 1370 -1209
847 -2237 -1702
845 -2237 -1705
1349 -1814 -939
1314 -1861 -960
-2244 -1057 -1587
-2208 -834 -1587
2236 1237 -886
2258 1223 -898
-731 1378 -2630
-666 1412 -2612
-759 1322 -2694
-2265 -1438 -1608
-2249 -1454 -1605
-2204 -1493 -1666
-2162 -1509 -1701
-1930 -1177 -1052
-1893 -1149 -996
-2188 -1148 -1839
-2253 -1235 -1474
-2257 -1150 -1547
-2235 -1022 -1520
-2228 -973 -1524
-2199 -782 -1567
380 -289 1038
348 -325 1040
387 -280 1035
329 -343 1040
591 1968 -1181
595 1967 -1175
533 1958 -1235
516 1986 -1284
-1294 929 -2154
-1230 -792 -210
-2105 -467 -1539
-1294 -776 -299
565 9 918
-646 1477 -2027
-1112 1206 -2253
-1126 1196 -2257
-173 -489 638
748 764 302
792 391 757
-2005 -220 -1695
-2093 -395 -1604
-2117 -446 -1576
3 1848 -1706
779 361 774
-39 1825 -1728
3 2 0 1 100 100 100
3 8 6 7 100 100 100
7 13 7 6 9 10 11 12 100 100 100
5 16 12 11 14 15 100 100 100
6 20 16 15 17 18 19 100 100 100
6 24 20 19 21 22 23 100 100 100
8 30 24 23 25 26 27 28 29 100 100 100
5 33 30 29 31 32 100 100 100
6 37 33 32 34 35 36 100 100 100
4 36 1 0 37 100 100 100
3 40 38 39 100 100 100
9 47 39 38 41 42 43 44 45 46 100 100 100
3 44 43 48 100 100 100
7 50 9 6 8 5 4 51 100 100 100
3 10 9 50 100 100 100
5 52 17 15 14 53 100 100 100
4 54 18 17 52 100 100 100
3 55 22 21 100 100 100
4 55 25 23 22 100 100 100
3 28 27 56 100 100 100
5 31 29 28 56 57 100 100 100
6 58 34 32 31 57 59 100 100 100
3 35 34 58 100 100 100
4 63 60 61 62 100 100 100
7 68 61 60 64 65 66 67 100 100 100
7 47 46 69 70 68 67 71 100 100 100
5 46 45 72 73 69 100 100 100
16 76 77 78 79 80 81 82 83 84 85 86 87 88 89 90 91 100 100 100
6 92 93 94 95 96 97 100 100 100
9 98 99 73 72 100 101 102 88 87 100 100 100
8 76 110 111 112 113 114 115 77 100 100 100
7 90 116 117 118 93 92 91 100 100 100
6 134 135 136 137 138 139 100 100 100
3 140 141 142 100 100 100
8 114 151 128 127 152 153 150 115 100 100 100
4 115 150 78 77 100 100 100
5 123 154 155 156 124 100 100 100
5 157 158 159 160 161 100 100 100
4 122 130 162 163 100 100 100
6 164 165 166 167 168 169 100 100 100
7 96 170 171 155 154 172 97 100 100 100
6 69 73 99 149 133 70 100 100 100
5 85 174 175 173 86 100 100 100
3 110 176 111 100 100 100
4 177 178 179 180 100 100 100
7 164 181 182 132 131 183 165 100 100 100
4 95 109 170 96 100 100 100
4 152 158 157 153 100 100 100
5 122 163 172 154 123 100 100 100
9 97 172 163 162 176 110 76 91 92 100 100 100
10 134 185 186 187 188 189 190 191 184 135 100 100 100
4 192 193 194 195 100 100 100
4 196 197 198 199 100 100 100
6 80 137 136 201 200 81 100 100 100
4 38 40 202 41 100 100 100
9 203 204 205 198 197 206 207 208 209 100 100 100
7 107 210 211 156 155 171 108 100 100 100
7 65 202 40 39 47 71 66 100 100 100
11 167 212 213 42 41 202 65 64 194 193 168 100 100 100
5 44 48 100 72 45 100 100 100
8 111 176 162 130 129 214 215 112 100 100 100
4 210 216 217 211 100 100 100
6 218 219 147 146 190 189 100 100 100
5 113 215 214 151 114 100 100 100
5 84 141 140 174 85 100 100 100
7 50 51 126 53 14 11 10 100 100 100
7 21 19 18 54 26 25 55 100 100 100
10 216 106 2 1 36 35 58 59 125 217 100 100 100
7 220 221 195 194 64 60 63 100 100 100
8 42 213 117 116 101 100 48 43 100 100 100
5 119 222 223 224 120 100 100 100
4 186 226 225 187 100 100 100
4 108 171 170 109 100 100 100
4 227 228 161 160 100 100 100
6 187 225 206 197 196 188 100 100 100
4 229 230 209 208 100 100 100
5 145 231 191 190 146 100 100 100
3 204 232 205 100 100 100
4 135 184 201 136 100 100 100
6 218 233 234 235 236 219 100 100 100
4 181 221 220 182 100 100 100
6 140 142 224 223 175 174 100 100 100
7 103 235 234 232 204 203 104 100 100 100
3 88 102 89 100 100 100
4 79 138 137 80 100 100 100
9 157 161 228 139 138 79 78 150 153 100 100 100
5 62 132 182 220 63 100 100 100
6 206 225 226 180 179 207 100 100 100
4 117 213 212 118 100 100 100
4 168 193 192 169 100 100 100
5 124 156 211 217 125 100 100 100
3 112 215 113 100 100 100
7 118 212 167 166 105 94 93 100 100 100
5 139 228 227 185 134 100 100 100
5 184 191 231 200 201 100 100 100
5 178 229 208 207 179 100 100 100
4 106 216 210 107 100 100 100
6 188 196 199 233 218 189 100 100 100
6 195 221 181 164 169 192 100 100 100
6 200 231 145 143 82 81 100 100 100
8 185 227 160 159 177 180 226 186 100 100 100
5 4 3 49 126 51 100 100 100
5 101 116 90 89 102 100 100 100
6 205 232 234 233 199 198 100 100 100
3 66 71 67 100 100 100
4 151 214 129 128 100 100 100
4 147 219 236 148 100 100 100
25 237 238 240 253 246 248 247 258 257 256 245 252 251 250 261 259 244 243 241 242 254 255 260 249 239 -1 0 0
5 237 238 3 4 5 100 0 0
4 238 240 49 3 100 0 0
3 243 241 74 100 0 0
4 244 243 74 75 100 0 0
4 248 247 103 104 100 0 0
19 249 239 13 12 16 20 24 30 33 37 0 2 106 107 108 109 95 94 105 100 0 0
5 251 250 119 120 121 100 0 0
20 240 253 127 128 129 130 122 123 124 125 59 57 56 27 26 54 52 53 126 49 100 0 0
9 254 255 131 132 62 61 68 70 133 100 0 0
6 256 245 83 82 143 144 100 0 0
8 258 257 144 143 145 146 147 148 100 0 0
7 241 242 149 99 98 75 74 100 0 0
3 257 256 144 100 0 0
4 242 254 133 149 100 0 0
7 259 244 75 98 87 86 173 100 0 0
6 239 237 5 8 7 13 100 0 0
6 247 258 148 236 235 103 100 0 0
10 253 246 230 229 178 177 159 158 152 127 100 0 0
9 245 252 121 120 224 142 141 84 83 100 0 0
3 252 251 121 100 0 0
6 260 249 105 166 165 183 100 0 0
6 246 248 104 203 209 230 100 0 0
4 255 260 183 131 100 0 0
6 261 259 173 175 223 222 100 0 0
4 250 261 222 119 100 0 0
