ply
format ascii 1.0
comment converted from made-by-Polyhedron_join_facets_2
element vertex 48
property float x
property float y
property float z
element face 9
property list uchar uint vertex_indices
property uchar red
property uchar green
property uchar blue
end_header
792 -648 -829
-423 423 -2140
98 3202 -3138
-3110 2905 -4960
-1774 1313 -3257
-2250 3535 -4832
-366 -273 -1756
-755 -573 -1877
273 68 -1575
-1259 -934 -2032
13 846 -1517
-1284 2342 -3627
63 16 -1626
62 16 -1626
-556 71 -1745
-504 997 -2470
2521 -197 -1154
-419 255 -2057
-264 -251 -1822
-389 392 -2103
474 4416 -3477
-268 956 -2296
-131 922 -2251
-482 -48 -1951
-389 392 -2103
854 146 -1719
-579 -489 -1802
-476 -198 -1890
-151 1512 -2486
44 803 -2163
728 -165 -1626
-463 51 -1987
-940 502 -2274
-593 433 -2167
-315 2124 -2793
-937 501 -2273
-940 502 -2274
-1266 -340 -2019
-1218 -217 -2059
786 940 -2043
-1890 2310 -3202
1125 594 -1831
-939 505 -2277
-870 683 -2330
-940 502 -2274
-1310 -354 -2345
-1054 208 -2185
-130 2594 -2905
3 2 30 0 100 100 100
3 45 47 0 100 100 100
3 0 11 26 100 100 100
3 11 0 26 100 100 100
3 30 26 0 100 100 100
3 26 30 0 100 100 100
3 0 2 45 100 100 100
3 47 45 0 100 100 100
3 2 0 45 100 100 100
