ply
format ascii 1.0
comment converted from made-by-Polyhedron_join_facets_2
element vertex 11
property float x
property float y
property float z
element face 7
property list uchar uint vertex_indices
property uchar red
property uchar green
property uchar blue
end_header
100000 100000 100000
2000 -2000 -2000
-2000 -2000 -2000
-2000 2000 -2000
2000 2000 -2000
2000 -2000 2000
-2000 -2000 2000
-2000 2000 2000
2000 2000 2000
2000 0 3000
-2000 0 3000
4 1 2 3 4 100 100 100
4 1 5 6 2 100 100 100
5 1 4 8 9 5 100 100 100
4 4 3 7 8 100 100 100
5 2 6 10 7 3 100 100 100
4 5 9 10 6 100 100 100
4 7 10 9 8 100 100 100
