ply
format ascii 1.0
comment converted from made-by-Polyhedron_join_facets_2
element vertex 30
property float x
property float y
property float z
element face 17
property list uchar uint vertex_indices
property uchar red
property uchar green
property uchar blue
end_header
-2847 611 -5126
-2947 -685 -5236
-2950 -292 -5248
-2951 -488 -5246
-2941 -121 -5240
-2938 -86 -5237
-2903 257 -5195
-2885 378 -5173
-2908 208 -5202
-2925 60 -5221
-2827 715 -5100
-2448 -339 -4552
-2762 764 -5011
-2544 231 -4698
-2815 777 -5095
-2768 814 -5031
-2441 -339 -4547
-2533 227 -4689
-2848 610 -5136
-2944 -755 -5231
-2947 -685 -5237
-2950 -292 -5251
-2951 -488 -5247
-2941 -122 -5244
-2939 -85 -5241
-2903 258 -5202
-2886 378 -5181
-2909 207 -5209
-2925 60 -5227
-2583 -944 -4726
16 19 29 16 17 15 14 18 26 25 27 28 24 23 21 22 20 -1 0 0
16 19 29 11 13 12 10 0 7 6 8 9 5 4 2 3 1 100 0 0
3 29 16 11 100 0 0
4 16 17 13 11 100 0 0
4 17 15 12 13 100 0 0
4 23 21 2 4 100 0 0
4 14 18 0 10 100 0 0
4 22 20 1 3 100 0 0
4 25 27 8 6 100 0 0
4 18 26 7 0 100 0 0
3 20 19 1 100 0 0
4 21 22 3 2 100 0 0
4 24 23 4 5 100 0 0
4 28 24 5 9 100 0 0
4 26 25 6 7 100 0 0
4 27 28 9 8 100 0 0
4 15 14 10 12 100 0 0
