ply
format ascii 1.0
comment converted from made-by-Polyhedron_join_facets_2
element vertex 290
property float x
property float y
property float z
element face 147
property list uchar uint vertex_indices
property uchar red
property uchar green
property uchar blue
end_header
-1207 1265 -970
-1191 1276 -970
-1204 1269 -969
-1206 1267 -969
-1177 1282 -935
-1082 1340 -869
-1055 1357 -869
-1092 1330 -863
-984 1385 -836
-871 1459 -836
-834 1478 -812
-774 1509 -769
-902 1413 -717
-572 1630 -717
-819 1490 -681
-726 1551 -681
-827 1485 -672
-729 1552 -625
-711 1563 -625
-724 1553 -617
-600 1624 -565
-618 1605 -531
-482 1695 -531
-576 1639 -514
-592 1637 -487
-588 1640 -486
-576 1648 -486
-537 1614 -357
-504 1636 -357
-485 1662 -387
-478 1675 -406
-461 1712 -461
-660 1470 -294
-659 1468 -291
-482 1585 -291
-486 1601 -311
-656 1471 -288
-574 1527 -260
-531 1555 -260
-490 1580 -285
-578 1502 -221
-552 1513 -210
2238 1424 -1180
2233 1428 -1180
2235 1427 -1180
2244 1418 -1183
2238 1408 -1209
2197 1401 -1278
2071 1495 -1278
2125 1474 -1244
2189 1440 -1218
2223 1434 -1184
2161 1443 -1333
2264 1315 -1020
1698 1518 -1020
1986 1399 -980
2235 1305 -970
2268 1375 -1102
2262 1393 -1123
2210 1417 -1131
1942 1538 -1163
1614 1656 -1163
1391 1727 -1218
1567 1673 -1165
2086 1485 -1171
1964 1547 -1281
1796 1604 -1273
-1094 1262 -810
-1092 1258 -805
-1084 1269 -805
-984 1273 -662
-828 1481 -662
-839 1475 -672
-1052 1278 -769
-945 1321 -627
-840 1460 -627
-905 1336 -578
-818 1452 -578
-831 1465 -617
-860 1403 -542
-853 1412 -542
-839 1426 -565
-803 1429 -475
-779 1461 -475
-780 1476 -498
-818 1438 -514
-751 1407 -394
-665 1521 -394
-762 1477 -469
-706 1459 -353
-697 1472 -355
-1118 1308 -863
-1096 1262 -812
-1104 1278 -830
-779 1478 -497
307 2039 -1165
288 2044 -1165
289 2044 -1165
406 2016 -1167
550 1980 -1175
929 1868 -1235
252 2022 -1235
255 2025 -1227
580 1970 -1281
316 2037 -1295
253 2023 -1237
111 -1105 -3080
24 -1085 -3079
-605 -922 -3079
-1078 -793 -3078
-1109 -722 -3078
-1120 -670 -3078
-1027 -367 -3079
-604 938 -3080
-576 1020 -3080
-405 1020 -3080
-274 990 -3080
-202 969 -3080
559 735 -3081
583 718 -3081
585 691 -3081
178 -860 -3080
-399 1262 91
-379 1217 140
-298 1050 321
-402 1347 -11
-1202 -778 -177
-1729 869 -1530
-1728 874 -1529
-1727 877 -1529
-1710 929 -1529
-1696 939 -1583
-1752 754 -1599
-1842 501 -1559
586 1968 -1281
1011 1844 -1273
2153 1445 -1345
2146 1439 -1357
1884 1320 -1646
-2053 -231 -1557
-2215 -968 -1500
-2217 -1222 -1407
-213 413 743
294 -1392 -2751
670 -1984 -2072
2147 1417 -1357
2179 1388 -1308
2292 1021 -1045
-1691 958 -1542
-362 1757 -556
-764 1360 -2640
-785 1348 -2647
-798 1342 -2631
-1688 958 -1561
-1394 -1721 -1685
1418 1718 -1165
-2085 -1422 -1848
-2051 -1389 -1904
-1820 -1219 -2220
-1187 -844 -2969
-1113 -810 -3043
-2133 -1477 -1756
-633 1149 -2929
-606 1078 -3012
-742 1297 -2728
-2086 -562 -1734
-2078 -518 -1727
-1861 365 -1634
-1773 662 -1624
-1675 924 -1641
-2100 -379 -1575
-2096 -366 -1576
-2203 -1106 -1802
-2221 -1114 -1761
-2201 -818 -1611
-2158 -604 -1577
847 1893 -1175
-1154 -1753 -1744
-1791 -1622 -1680
-2036 -1559 -1680
-471 1385 -50
-470 1382 -47
-2060 -1553 -1680
-2084 -1531 -1648
-2227 -1468 -1604
-2183 -1505 -1658
-2118 -1536 -1682
-291 1032 340
2278 1161 -933
2271 1134 -933
2259 875 -1025
2308 1056 -1027
2308 1057 -1027
2285 1155 -947
-423 1626 -360
269 2039 -1151
-621 1439 -2571
-631 1361 -2682
-652 1420 -2607
-2234 -1463 -1598
-2046 -1275 -1244
-2242 -1436 -1564
-2239 -1458 -1595
-1978 43 -1576
2251 1209 -880
2194 1191 -811
-411 1384 -56
-1701 946 -1523
-362 975 313
-431 1154 146
-547 1377 -101
-608 1478 -225
-665 1469 -300
-176 522 745
227 1994 -1396
-484 1615 -328
-2095 -1268 -1904
-2215 -1484 -1659
-2231 -1472 -1645
-2265 -1438 -1619
-2285 -1391 -1615
-2277 -1338 -1648
-2275 -1331 -1653
-2193 -1163 -1829
2286 1163 -950
2305 1138 -1017
2275 1353 -1083
2265 1228 -913
-2286 -1388 -1580
-2285 -1389 -1577
-2270 -1316 -1506
-2266 -1228 -1547
-2023 -1092 -2038
-1838 -1214 -2203
2249 1415 -1165
-2223 -1251 -1407
-2233 -1259 -1424
-2266 -1304 -1493
-2278 -1406 -1581
-2244 -1434 -1564
-2132 -1265 -1316
-2151 -1236 -1316
2307 1057 -1030
2240 1370 -1209
-2244 -1057 -1587
-2208 -834 -1587
2236 1237 -886
2258 1223 -898
227 1996 -1381
-731 1378 -2630
-666 1412 -2612
-759 1322 -2694
-2265 -1438 -1608
-2249 -1454 -1605
-510 1461 -138
-2204 -1493 -1666
-2162 -1509 -1701
-1930 -1177 -1052
-1893 -1149 -996
-2188 -1148 -1839
-2253 -1235 -1474
-2257 -1150 -1547
-2235 -1022 -1520
-2228 -973 -1524
-2199 -782 -1567
-1687 950 -1594
-1665 955 -1641
1730 947 -309
728 -2201 -1798
1348 -1127 -1520
-26 553 853
34 570 815
-550 -466 536
-567 -433 574
2097 335 -1063
-563 -423 577
-179 336 819
2122 393 -1040
909 -1971 -1779
769 -2191 -1824
880 -2026 -1796
672 -2214 -1761
-390 -708 225
639 -2218 -1737
721 725 362
1778 956 -342
-28 551 853
-44 532 852
1817 906 -410
-143 401 838
4 3 0 1 2 100 100 100
5 6 1 0 4 5 100 100 100
5 9 6 5 7 8 100 100 100
6 13 9 8 10 11 12 100 100 100
4 15 13 12 14 100 100 100
5 18 15 14 16 17 100 100 100
6 22 18 17 19 20 21 100 100 100
6 26 22 21 23 24 25 100 100 100
7 31 26 25 27 28 29 30 100 100 100
6 35 28 27 32 33 34 100 100 100
6 39 34 33 36 37 38 100 100 100
4 38 37 40 41 100 100 100
3 44 42 43 100 100 100
9 51 43 42 45 46 47 48 49 50 100 100 100
3 48 47 52 100 100 100
4 56 53 54 55 100 100 100
7 61 54 53 57 58 59 60 100 100 100
7 51 50 62 63 61 60 64 100 100 100
5 50 49 65 66 62 100 100 100
3 69 67 68 100 100 100
6 73 69 68 70 71 72 100 100 100
4 75 71 70 74 100 100 100
5 78 75 74 76 77 100 100 100
5 81 77 76 79 80 100 100 100
6 85 80 79 82 83 84 100 100 100
5 88 83 82 86 87 100 100 100
4 87 86 89 90 100 100 100
4 7 5 4 91 100 100 100
6 92 10 8 7 91 93 100 100 100
6 73 11 10 92 67 69 100 100 100
6 72 16 14 12 11 73 100 100 100
7 78 19 17 16 72 71 75 100 100 100
5 81 20 19 78 77 100 100 100
6 85 23 21 20 81 80 100 100 100
5 85 84 94 24 23 100 100 100
3 97 95 96 100 100 100
7 102 96 95 98 99 100 101 100 100 100
5 105 101 100 103 104 100 100 100
16 106 107 108 109 110 111 112 113 114 115 116 117 118 119 120 121 100 100 100
7 127 128 129 130 131 132 133 100 100 100
9 134 135 66 65 136 137 138 118 117 100 100 100
16 1 6 9 13 15 18 22 26 31 149 150 151 152 153 148 2 100 100 100
6 156 157 158 159 160 161 100 100 100
3 162 163 164 100 100 100
7 112 165 166 167 168 169 113 100 100 100
8 170 171 166 165 172 173 174 175 100 100 100
6 99 176 135 134 103 100 100 100 100
4 122 180 181 123 100 100 100
5 182 183 184 185 186 100 100 100
6 188 189 190 191 192 193 100 100 100
8 95 97 195 149 31 30 194 98 100 100 100
6 62 66 135 176 155 63 100 100 100
5 115 197 198 196 116 100 100 100
4 199 200 201 202 100 100 100
4 166 171 203 167 100 100 100
8 0 3 207 130 129 93 91 4 100 100 100
22 128 142 208 209 210 211 36 33 32 212 89 86 82 79 76 74 70 68 67 92 93 129 100 100 100
6 127 133 203 171 170 139 100 100 100
4 178 183 182 179 100 100 100
7 116 196 214 104 103 134 117 100 100 100
5 29 215 206 194 30 100 100 100
10 156 217 218 219 220 221 222 223 216 157 100 100 100
4 224 225 226 227 100 100 100
9 87 90 212 32 27 25 24 94 88 100 100 100
4 211 40 37 36 100 100 100
4 228 229 230 231 100 100 100
6 110 159 158 233 232 111 100 100 100
4 42 44 234 45 100 100 100
9 235 236 237 230 229 238 239 240 241 100 100 100
7 58 234 44 43 51 64 59 100 100 100
11 191 242 243 46 45 234 58 57 226 225 192 100 100 100
5 48 52 136 65 49 100 100 100
6 244 245 174 173 222 221 100 100 100
5 114 163 162 197 115 100 100 100
7 246 247 227 226 57 53 56 100 100 100
8 46 243 146 145 137 136 52 47 100 100 100
4 214 248 105 104 100 100 100
4 97 96 102 195 100 100 100
5 150 249 250 251 151 100 100 100
4 218 253 252 219 100 100 100
4 38 41 254 39 100 100 100
4 29 28 35 215 100 100 100
4 255 256 186 185 100 100 100
7 180 254 41 40 211 210 181 100 100 100
6 219 252 238 229 228 220 100 100 100
4 257 258 241 240 100 100 100
5 172 259 223 222 173 100 100 100
3 236 260 237 100 100 100
4 157 216 233 158 100 100 100
6 244 261 262 263 264 245 100 100 100
3 89 212 90 100 100 100
4 94 84 83 88 100 100 100
4 204 247 246 205 100 100 100
6 162 164 251 250 198 197 100 100 100
7 140 263 262 260 236 235 141 100 100 100
6 139 170 175 264 263 140 100 100 100
3 118 138 119 100 100 100
4 109 160 159 110 100 100 100
9 182 186 256 161 160 109 108 177 179 100 100 100
6 238 252 253 202 201 239 100 100 100
4 146 243 242 147 100 100 100
6 131 265 266 169 168 132 100 100 100
4 192 225 224 193 100 100 100
5 161 256 255 217 156 100 100 100
5 216 223 259 232 233 100 100 100
6 123 181 210 209 187 124 100 100 100
9 113 169 266 152 151 251 164 163 114 100 100 100
5 200 257 240 239 201 100 100 100
9 122 125 206 215 35 34 39 254 180 100 100 100
4 152 266 265 153 100 100 100
6 220 228 231 261 244 221 100 100 100
6 148 153 265 131 130 207 100 100 100
6 227 247 204 188 193 224 100 100 100
6 232 259 172 165 112 111 100 100 100
8 217 255 185 184 199 202 253 218 100 100 100
5 137 145 120 119 138 100 100 100
6 196 198 250 249 248 214 100 100 100
4 2 148 207 3 100 100 100
6 237 260 262 261 231 230 100 100 100
3 59 64 60 100 100 100
8 149 195 102 101 105 248 249 150 100 100 100
4 174 245 264 175 100 100 100
5 167 203 133 132 168 100 100 100
23 270 271 284 267 285 288 277 274 269 278 280 279 268 281 283 282 272 273 275 276 289 287 286 -1 0 0
6 270 271 125 122 123 124 100 0 0
3 272 273 126 100 0 0
8 275 276 142 128 127 139 140 141 100 0 0
6 279 268 107 106 143 144 100 0 0
7 274 269 121 120 145 146 147 100 0 0
3 283 282 154 100 0 0
7 284 267 55 54 61 63 155 100 0 0
6 281 283 154 178 179 177 100 0 0
5 268 281 177 108 107 100 0 0
4 286 270 124 187 100 0 0
4 278 280 144 143 100 0 0
6 285 288 189 188 204 205 100 0 0
9 271 284 155 176 99 98 194 206 125 100 0 0
5 276 289 213 208 142 100 0 0
5 269 278 143 106 121 100 0 0
3 280 279 144 100 0 0
6 287 286 187 209 208 213 100 0 0
6 267 285 205 246 56 55 100 0 0
3 289 287 213 100 0 0
11 282 272 126 258 257 200 199 184 183 178 154 100 0 0
6 277 274 147 242 191 190 100 0 0
4 288 277 190 189 100 0 0
7 273 275 141 235 241 258 126 100 0 0
