ply
format ascii 1.0
comment converted from made-by-Polyhedron_join_facets_2
element vertex 512
property float x
property float y
property float z
element face 257
property list uchar uint vertex_indices
property uchar red
property uchar green
property uchar blue
end_header
-722 2146 -5410
-541 2150 -5411
2014 -2482 -5208
2081 -2445 -5407
-2921 -1141 -5224
-1540 2069 -5463
-2221 1807 -5392
2095 -2433 -5267
-1378 -2715 -5223
-317 2149 -5439
-861 2139 -5371
940 2038 -5378
2466 1272 -5424
2514 1194 -5266
1308 1967 -5323
2353 -2149 -5366
2368 -2127 -5219
-2110 -2524 -5296
-982 -2771 -5267
-897 -2782 -5361
-2313 -2409 -5236
1491 1916 -5196
1315 1964 -5244
1450 1928 -5211
1319 1963 -5243
656 -2794 -5213
428 -2804 -5239
833 -2784 -5188
966 -2773 -5162
-237 -2813 -5277
-332 -2811 -5277
1180 -2749 -5109
1092 -2760 -5133
42 -2812 -5268
212 -2810 -5257
2668 -1346 -5169
2760 -473 -5286
2749 -662 -5276
2684 -1248 -5191
2707 -1084 -5223
2734 -857 -5258
2730 -903 -5253
2763 -323 -5286
2763 -172 -5280
-2783 906 -5070
1602 1879 -5152
2056 1669 -5235
1945 1730 -5221
2289 1488 -5233
2236 1538 -5239
1753 1821 -5188
1825 1788 -5201
2116 1630 -5240
2173 1589 -5241
1702 1843 -5177
1631 1870 -5160
1607 1877 -5154
2450 1293 -5238
2644 885 -5195
2515 1192 -5238
2550 1129 -5234
2606 998 -5217
2576 1073 -5228
2353 1420 -5228
2390 1375 -5233
2667 805 -5177
391 -339 -3260
2361 -878 -4746
313 -385 -3198
2579 -1720 -5155
2614 -1602 -5129
2230 -2293 -5171
2317 -2191 -5184
2423 -2039 -5188
2454 -1987 -5186
2495 -1915 -5182
2337 -2167 -5186
2368 -2125 -5189
2544 -1822 -5175
2536 -1839 -5177
263 -380 -3162
2611 -1528 -5097
270 -381 -3167
2011 -2483 -5171
2086 -2438 -5173
1654 -2650 -5128
1551 -2679 -5103
1923 -2531 -5164
1817 -2582 -5153
1677 -2642 -5133
1750 -2612 -5144
1463 -2699 -5080
1414 -2709 -5065
2145 -2383 -5163
2097 -2430 -5173
-123 -721 -3146
-120 -752 -3169
-2440 -2294 -5121
-2015 -2553 -5082
-2105 -2519 -5102
-2259 -2444 -5128
-2303 -2412 -5129
-1911 -2586 -5054
-2420 -2312 -5122
-2212 -2470 -5122
-2197 -2477 -5119
-1839 -2606 -5034
-2325 -2395 -5128
-2354 -2371 -5127
-129 -725 -3150
-2709 -1945 -5141
-2741 -1878 -5134
-2813 -1682 -5101
-2777 -1788 -5121
-2539 -2195 -5137
-2577 -2154 -5143
-2646 -2056 -5146
-2832 -1613 -5085
-2600 -2126 -5147
-2611 -2113 -5148
-2646 1294 -5156
-2544 1479 -5175
-2487 1550 -5172
-2727 1096 -5118
-2560 1457 -5175
-2595 1392 -5168
-2695 1181 -5136
-2661 1260 -5150
-2766 969 -5087
-2746 1040 -5106
-2485 1552 -5172
-2418 1625 -5164
-2782 910 -5070
-2780 909 -5069
-2060 1901 -5181
-2026 1918 -5177
-1925 1959 -5161
-1747 2016 -5123
-1827 1994 -5142
-1697 2027 -5109
-2380 1665 -5164
-2184 1825 -5184
-2115 1870 -5184
-2235 1789 -5182
-2261 1770 -5181
-2339 1702 -5171
-2275 1758 -5179
2328 1446 -5225
2340 1434 -5225
258 -380 -3159
2174 -2353 -5160
2152 -2376 -5161
-123 -719 -3144
-124 -717 -3143
-93 -368 -2975
258 -380 -3159
-2440 -2293 -5120
-2468 -2266 -5121
-117 -390 -2975
-124 -716 -3142
-2404 1640 -5161
-519 -350 -3168
-2384 1660 -5163
-116 -345 -2975
-108 -6 -3155
-140 -366 -2975
-495 -357 -3153
-105 28 -3179
-108 9 -3165
-120 21 -3176
-85 614 -3630
-211 368 -3453
-109 2 -3160
-117 15 -3171
-2842 -1572 -5074
-574 -358 -3205
-534 -354 -3177
-511 -355 -3162
-515 -354 -3164
-848 2139 -5325
215 2121 -5396
409 2104 -5385
-1182 2110 -5244
-796 2141 -5334
657 2076 -5359
-475 2149 -5377
778 2060 -5344
-50 2138 -5399
-252 2146 -5394
-572 2148 -5367
-670 2146 -5354
-285 2147 -5392
-370 2148 -5386
-893 2135 -5315
-1130 2115 -5257
1064 2015 -5292
942 2037 -5318
1185 1991 -5263
1189 1990 -5262
1419 1864 -5067
641 1626 -4582
-18 1518 -4334
-1154 -2748 -5209
-981 -2771 -5238
-1393 -2710 -5159
-1632 -2660 -5088
-1547 -2679 -5116
-1298 -2726 -5181
-1356 -2717 -5168
-503 -2806 -5272
-593 -2801 -5269
-1716 -2638 -5055
-812 -2786 -5255
-723 -2793 -5262
-480 -2806 -5272
-158 -2246 -4317
-776 -2333 -4496
-1800 -2615 -5022
-1800 -2615 -5022
-2947 -685 -5237
-2885 -1389 -5131
-2846 -1557 -5077
-2904 -1274 -5160
-2918 -1144 -5183
-2938 -898 -5218
-2933 -968 -5210
-2530 226 -4687
-2845 -1557 -5073
2725 454 -5227
2755 107 -5267
2762 -78 -5277
2739 323 -5245
2711 559 -5208
2689 695 -5178
2680 744 -5166
2752 169 -5263
2744 266 -5252
2763 -135 -5278
2678 753 -5163
2677 751 -5161
2378 54 -4757
2284 -406 -4630
1300 -2730 -5070
1265 -2735 -5079
1364 -2718 -5050
1344 -2709 -5036
463 -2383 -4527
766 -2710 -5045
-68 -2267 -4348
2635 -1518 -5128
2658 -1399 -5155
2340 -702 -4708
2626 -1555 -5117
2618 -1541 -5106
2672 -801 -5155
2326 -612 -4686
-1569 2054 -5124
-1340 2091 -5201
-1329 2093 -5204
-1641 2038 -5093
-1581 2010 -5050
-753 1687 -4565
-1215 2106 -5234
-66 1530 -4350
198 2125 -5529
485 2100 -5510
1451 1933 -5530
538 2094 -5508
844 2054 -5502
766 2065 -5502
1312 1969 -5516
1094 2013 -5504
966 2036 -5501
1161 2001 -5507
1197 1993 -5509
1437 1938 -5528
1411 1944 -5525
1330 1562 -5920
2062 1667 -5471
1931 1739 -5480
2234 1540 -5482
1730 1834 -5508
1872 1768 -5487
2110 1636 -5470
2167 1595 -5474
1650 1867 -5522
1621 1878 -5528
2264 1513 -5489
1547 1902 -5546
1331 1562 -5919
2650 871 -5488
2548 1135 -5446
2295 1483 -5481
2603 1008 -5461
2579 1069 -5452
2356 1418 -5464
2392 1374 -5456
2466 1272 -5446
2519 1187 -5444
2672 787 -5509
2666 817 -5501
2272 1505 -5489
2730 435 -5499
2757 78 -5507
2763 -74 -5516
2733 403 -5499
2717 529 -5501
2695 669 -5509
2764 -299 -5536
2764 -181 -5525
2751 197 -5502
2750 204 -5502
2677 764 -5516
2238 578 -5939
2666 -1361 -5505
2636 -1519 -5511
2760 -473 -5538
2749 -683 -5520
2688 -1224 -5503
2705 -1103 -5504
2746 -711 -5518
2729 -911 -5507
2762 -391 -5547
2759 -391 -5550
2352 -2152 -5428
2585 -1704 -5481
2613 -1611 -5509
2243 -2283 -5444
2288 -2229 -5436
2428 -2035 -5430
2382 -2106 -5428
2434 -2024 -5430
2511 -1888 -5441
2542 -1828 -5449
2526 -1861 -5444
2171 -2359 -5459
2245 -1454 -5879
2620 -1584 -5517
2261 -1452 -5868
2086 -2442 -5425
1616 -2669 -5429
1563 -2684 -5439
1911 -2541 -5414
1829 -2581 -5414
1666 -2652 -5423
1749 -2617 -5417
1984 -2502 -5417
2082 -2445 -5424
1463 -2709 -5460
2142 -2390 -5446
2115 -2416 -5435
2168 -2362 -5459
1305 -2319 -5868
634 -2802 -5446
520 -2806 -5449
1310 -2739 -5464
797 -2793 -5445
1024 -2775 -5448
1354 -2732 -5469
1196 -2756 -5455
1089 -2769 -5450
25 -2817 -5470
245 -2813 -5460
1401 -2722 -5475
1297 -2339 -5853
-1115 -2760 -5424
-231 -2817 -5477
-433 -2813 -5456
-1619 -2675 -5445
-1594 -2681 -5443
-1261 -2739 -5427
-1394 -2718 -5431
-495 -2811 -5450
-552 -2808 -5446
-1662 -2665 -5450
-738 -2796 -5435
-1018 -2772 -5424
-894 -2784 -5428
-178 -2817 -5483
-178 -2813 -5487
-2465 -2284 -5429
-2025 -2562 -5413
-2268 -2448 -5390
-1929 -2593 -5432
-2388 -2355 -5409
-2215 -2477 -5392
-2106 -2529 -5401
-1851 -2616 -5451
-2319 -2411 -5396
-2375 -2365 -5406
-2488 -2262 -5436
-1613 -2250 -5852
-1792 -2632 -5466
-1610 -2262 -5844
-2713 -1967 -5385
-2760 -1870 -5388
-2828 -1698 -5407
-2800 -1776 -5396
-2530 -2219 -5425
-2593 -2149 -5404
-2667 -2047 -5387
-2850 -1624 -5421
-2623 -2113 -5395
-2645 -2084 -5390
-2499 -2251 -5436
-2958 -706 -5426
-2899 -1410 -5408
-2963 -301 -5464
-2963 -461 -5447
-2942 -1015 -5409
-2873 -1531 -5420
-2923 -1236 -5404
-2919 -1274 -5403
-2951 -864 -5416
-2944 -987 -5410
-2858 -1594 -5428
-2870 588 -5448
-2959 -189 -5477
-2946 -16 -5464
-2835 779 -5453
-2817 857 -5459
-2915 278 -5451
-2901 382 -5449
-2929 156 -5455
-2939 59 -5460
-2959 -202 -5479
-2953 -203 -5485
-2656 1303 -5420
-2557 1477 -5418
-2518 1527 -5427
-2395 1663 -5464
-2742 1102 -5445
-2576 1450 -5415
-2618 1376 -5416
-2707 1190 -5432
-2682 1246 -5425
-2776 1007 -5463
-2770 1025 -5459
-2442 1613 -5448
-2441 1615 -5449
-2333 1720 -5488
-2786 971 -5472
-2392 849 -5863
-2071 1901 -5442
-2019 1928 -5440
-1923 1967 -5445
-1723 2030 -5474
-1843 1996 -5454
-1669 2043 -5485
-2131 1868 -5447
-2275 1769 -5473
-2222 1808 -5461
-2326 1727 -5488
-2314 1737 -5485
-2326 1727 -5489
-1470 1632 -5930
-1275 2106 -5476
-326 2150 -5511
-48 2141 -5543
-212 2147 -5524
-720 2147 -5482
-537 2152 -5492
-1540 2070 -5490
-1315 2102 -5477
-1064 2126 -5474
-874 2141 -5475
-16 2139 -5548
-16 2135 -5552
-1610 2056 -5498
-1469 1635 -5928
-67 1179 -6213
1475 803 -6211
1328 1557 -5923
1499 778 -6211
1812 -341 -6210
2212 598 -5950
2230 579 -5945
1810 -416 -6210
1412 -1537 -6211
2238 -1451 -5884
1403 -1546 -6211
-13 -1788 -6213
1302 -2311 -5873
-130 -1784 -6213
-1605 -1480 -6215
-1603 -2232 -5865
-1612 -1473 -6215
-1908 -254 -6216
-2416 -1394 -5875
-2418 -1389 -5874
-2418 -1392 -5874
-1908 -247 -6216
-2386 851 -5867
-2373 865 -5872
-149 1182 -6213
-1465 1620 -5937
-1597 896 -6215
-1598 898 -6214
-2846 -1553 -5072
-2790 876 -5065
-2815 778 -5097
-2440 -339 -4546
-2586 -957 -4730
-2848 610 -5138
-2950 -292 -5252
-2951 -488 -5248
-2941 -123 -5245
-2939 -85 -5242
-2903 258 -5203
-2886 378 -5183
-2909 206 -5210
-2925 60 -5228
25 195 196 186 184 181 180 187 188 191 192 185 189 190 183 179 193 194 182 262 263 201 200 199 198 197 -1 -1 -1
19 215 216 218 217 211 205 206 204 208 207 202 203 212 213 210 209 214 247 248 -1 -1 -1
16 229 235 236 231 228 232 233 234 238 239 240 241 255 254 237 230 -1 -1 -1
7 154 155 149 148 147 164 163 -1 -1 -1
8 154 158 159 153 152 151 150 155 -1 -1 -1
6 158 165 166 157 156 159 -1 -1 -1
11 164 172 173 162 160 161 178 177 166 165 163 -1 -1 -1
8 470 494 495 455 469 467 277 472 -1 -1 -1
8 474 476 313 323 338 336 479 477 -1 -1 -1
9 481 482 352 364 379 393 391 485 483 -1 -1 -1
6 426 442 492 491 487 489 -1 -1 -1
7 242 244 245 246 248 247 243 -1 -1 -1
7 251 253 252 249 250 254 255 -1 -1 -1
8 256 259 260 261 263 262 258 257 -1 -1 -1
4 167 200 201 170 -1 -1 -1
6 45 199 200 167 168 56 -1 -1 -1
15 54 55 56 168 172 164 147 48 49 53 52 46 47 51 50 -1 -1 -1
15 66 239 238 65 58 61 62 60 59 57 64 63 148 149 80 -1 -1 -1
3 66 240 239 -1 -1 -1
6 66 80 82 68 241 240 -1 -1 -1
5 67 251 255 241 68 -1 -1 -1
4 67 68 82 81 -1 -1 -1
19 70 252 253 81 82 80 149 155 150 71 72 76 77 73 74 75 79 78 69 -1 -1 -1
17 83 84 94 93 151 152 95 245 244 92 91 86 85 89 90 88 87 -1 -1 -1
4 95 96 246 245 -1 -1 -1
4 96 215 248 246 -1 -1 -1
7 95 152 153 109 216 215 96 -1 -1 -1
3 109 218 216 -1 -1 -1
18 103 108 107 101 100 104 105 99 98 102 106 217 218 109 153 159 156 97 -1 -1 -1
14 112 113 111 110 116 119 118 115 114 157 166 177 174 117 -1 -1 -1
15 128 132 161 160 131 130 122 121 124 125 120 127 126 123 129 -1 -1 -1
18 169 260 259 139 137 138 136 135 134 142 141 143 144 146 145 140 162 173 -1 -1 -1
4 169 171 261 260 -1 -1 -1
5 170 201 263 261 171 -1 -1 -1
18 271 273 274 270 276 275 266 288 289 277 467 466 264 265 267 269 268 272 -1 -1 -1
12 278 283 284 280 287 289 288 286 285 281 282 279 -1 -1 -1
16 313 476 475 301 292 295 296 297 298 291 294 293 290 300 299 312 -1 -1 -1
14 302 305 311 310 303 304 309 308 322 323 313 312 307 306 -1 -1 -1
12 316 317 320 321 319 318 314 315 337 338 323 322 -1 -1 -1
15 333 334 332 331 329 330 324 328 327 335 336 338 337 326 325 -1 -1 -1
16 349 350 339 347 346 342 343 345 344 340 341 348 363 364 352 351 -1 -1 -1
14 355 359 360 357 356 353 354 362 361 378 379 364 363 358 -1 -1 -1
17 373 375 377 376 365 370 371 369 368 374 392 393 379 378 366 367 372 -1 -1 -1
14 391 393 392 387 383 381 386 385 382 388 389 384 380 390 -1 -1 -1
14 398 399 402 403 400 394 395 397 396 401 415 490 488 404 -1 -1 -1
15 405 408 407 425 426 489 490 415 410 406 412 411 409 414 413 -1 -1 -1
13 417 418 424 423 421 422 416 419 420 441 442 426 425 -1 -1 -1
18 431 434 435 427 433 432 428 429 438 439 430 440 493 492 442 441 436 437 -1 -1 -1
15 452 453 450 451 449 443 444 445 447 446 448 468 469 455 454 -1 -1 -1
14 456 464 465 460 461 457 459 458 466 467 469 468 462 463 -1 -1 -1
3 470 472 471 -1 -1 -1
4 475 476 474 473 -1 -1 -1
3 477 479 478 -1 -1 -1
3 480 482 481 -1 -1 -1
3 483 485 484 -1 -1 -1
5 486 488 490 489 487 -1 -1 -1
5 492 493 497 496 491 -1 -1 -1
4 496 497 495 494 -1 -1 -1
15 470 471 473 474 477 478 480 481 483 484 486 487 491 496 494 -1 -1 -1
4 154 163 165 158 -1 -1 -1
5 29 366 378 361 33 -1 -1 -1
5 180 264 466 458 187 -1 -1 -1
5 36 316 322 308 42 -1 -1 -1
4 98 381 383 102 -1 -1 -1
4 137 139 448 446 -1 -1 -1
4 112 117 401 396 -1 -1 -1
4 50 281 285 54 -1 -1 -1
6 140 145 452 454 440 430 -1 -1 -1
4 69 78 333 325 -1 -1 -1
4 123 126 434 431 -1 -1 -1
8 71 150 151 93 349 351 335 327 -1 -1 -1
8 97 156 157 114 398 404 390 380 -1 -1 -1
4 85 340 344 89 -1 -1 -1
4 58 290 293 61 -1 -1 -1
6 48 147 148 63 295 292 -1 -1 -1
4 202 207 370 365 -1 -1 -1
3 10 193 179 -1 -1 -1
4 197 273 271 195 -1 -1 -1
3 4 409 411 -1 -1 -1
5 31 359 355 242 243 -1 -1 -1
4 228 302 306 232 -1 -1 -1
4 35 314 318 38 -1 -1 -1
4 110 394 400 116 -1 -1 -1
4 134 135 444 443 -1 -1 -1
4 73 329 331 74 -1 -1 -1
5 2 83 87 342 346 -1 -1 -1
4 52 283 278 46 -1 -1 -1
4 12 57 59 13 -1 -1 -1
4 121 428 432 124 -1 -1 -1
4 100 382 385 104 -1 -1 -1
4 25 353 356 27 -1 -1 -1
3 1 189 185 -1 -1 -1
4 184 267 265 181 -1 -1 -1
4 18 19 212 203 -1 -1 -1
4 229 303 310 235 -1 -1 -1
3 5 256 257 -1 -1 -1
4 211 374 368 205 -1 -1 -1
4 40 320 317 37 -1 -1 -1
4 21 266 275 23 -1 -1 -1
3 6 143 141 -1 -1 -1
4 125 433 427 120 -1 -1 -1
6 44 132 128 436 441 420 -1 -1 -1
4 113 397 395 111 -1 -1 -1
4 138 447 445 136 -1 -1 -1
3 20 101 107 -1 -1 -1
4 122 130 438 429 -1 -1 -1
4 86 91 348 341 -1 -1 -1
4 49 280 284 53 -1 -1 -1
4 47 279 282 51 -1 -1 -1
5 209 372 367 30 214 -1 -1 -1
5 15 76 72 328 324 -1 -1 -1
6 249 252 70 326 337 315 -1 -1 -1
5 233 307 312 299 234 -1 -1 -1
4 62 294 291 60 -1 -1 -1
4 88 90 345 343 -1 -1 -1
4 115 118 402 399 -1 -1 -1
3 17 99 105 -1 -1 -1
5 8 204 206 369 371 -1 -1 -1
4 34 362 354 26 -1 -1 -1
3 11 272 268 -1 -1 -1
5 12 297 296 64 57 -1 -1 -1
4 28 357 360 32 -1 -1 -1
4 182 194 464 456 -1 -1 -1
5 230 237 43 309 304 -1 -1 -1
6 7 94 84 3 347 339 -1 -1 -1
4 39 319 321 41 -1 -1 -1
6 10 179 183 0 460 465 -1 -1 -1
5 188 459 457 9 191 -1 -1 -1
5 14 22 24 276 270 -1 -1 -1
4 231 305 302 228 -1 -1 -1
4 75 332 334 79 -1 -1 -1
4 46 278 279 47 -1 -1 -1
4 213 375 373 210 -1 -1 -1
5 35 250 249 315 314 -1 -1 -1
4 65 300 290 58 -1 -1 -1
4 15 324 330 16 -1 -1 -1
4 97 380 384 103 -1 -1 -1
4 180 181 265 264 -1 -1 -1
4 26 354 353 25 -1 -1 -1
4 110 111 395 394 -1 -1 -1
4 134 443 449 142 -1 -1 -1
4 136 445 444 135 -1 -1 -1
4 112 396 397 113 -1 -1 -1
3 7 339 350 -1 -1 -1
4 144 450 453 146 -1 -1 -1
4 137 446 447 138 -1 -1 -1
5 242 355 358 92 244 -1 -1 -1
4 37 317 316 36 -1 -1 -1
5 13 59 60 291 298 -1 -1 -1
5 17 386 381 98 99 -1 -1 -1
6 48 292 301 287 280 49 -1 -1 -1
4 2 3 84 83 -1 -1 -1
7 139 259 256 5 462 468 448 -1 -1 -1
4 69 325 326 70 -1 -1 -1
5 202 365 376 18 203 -1 -1 -1
5 182 456 463 258 262 -1 -1 -1
5 100 101 20 388 382 -1 -1 -1
4 120 427 435 127 -1 -1 -1
7 21 45 56 55 286 288 266 -1 -1 -1
4 86 341 340 85 -1 -1 -1
4 121 122 429 428 -1 -1 -1
6 140 430 439 131 160 162 -1 -1 -1
3 0 183 190 -1 -1 -1
4 184 186 269 267 -1 -1 -1
4 50 51 282 281 -1 -1 -1
4 230 304 303 229 -1 -1 -1
4 102 383 387 106 -1 -1 -1
6 1 185 192 9 457 461 -1 -1 -1
4 123 431 437 129 -1 -1 -1
4 61 293 294 62 -1 -1 -1
4 231 236 311 305 -1 -1 -1
4 27 356 357 28 -1 -1 -1
4 71 327 328 72 -1 -1 -1
5 186 196 11 268 269 -1 -1 -1
4 52 53 284 283 -1 -1 -1
5 6 141 142 449 451 -1 -1 -1
4 88 343 342 87 -1 -1 -1
4 124 432 433 125 -1 -1 -1
4 114 115 399 398 -1 -1 -1
4 232 306 307 233 -1 -1 -1
3 14 270 274 -1 -1 -1
4 89 344 345 90 -1 -1 -1
4 187 458 459 188 -1 -1 -1
4 116 400 403 119 -1 -1 -1
4 64 296 295 63 -1 -1 -1
6 410 415 401 117 174 227 -1 -1 -1
5 16 330 329 73 77 -1 -1 -1
4 29 30 367 366 -1 -1 -1
6 0 190 189 1 461 460 -1 -1 -1
4 103 384 389 108 -1 -1 -1
4 2 346 347 3 -1 -1 -1
5 92 358 363 348 91 -1 -1 -1
3 8 208 204 -1 -1 -1
5 5 257 258 463 462 -1 -1 -1
4 74 331 332 75 -1 -1 -1
4 205 368 369 206 -1 -1 -1
4 38 318 319 39 -1 -1 -1
5 6 451 450 144 143 -1 -1 -1
4 31 32 360 359 -1 -1 -1
5 7 350 349 93 94 -1 -1 -1
5 8 371 370 207 208 -1 -1 -1
4 209 210 373 372 -1 -1 -1
3 9 192 191 -1 -1 -1
5 10 465 464 194 193 -1 -1 -1
5 11 196 195 271 272 -1 -1 -1
4 12 13 298 297 -1 -1 -1
6 14 274 273 197 198 22 -1 -1 -1
4 54 285 286 55 -1 -1 -1
4 40 41 321 320 -1 -1 -1
5 234 299 300 65 238 -1 -1 -1
4 23 275 276 24 -1 -1 -1
4 15 16 77 76 -1 -1 -1
5 17 105 104 385 386 -1 -1 -1
6 211 217 106 387 392 374 -1 -1 -1
4 126 127 435 434 -1 -1 -1
4 33 361 362 34 -1 -1 -1
4 129 437 436 128 -1 -1 -1
4 145 146 453 452 -1 -1 -1
4 42 308 309 43 -1 -1 -1
5 19 377 375 213 212 -1 -1 -1
4 78 79 334 333 -1 -1 -1
4 18 376 377 19 -1 -1 -1
5 20 107 108 389 388 -1 -1 -1
4 118 119 403 402 -1 -1 -1
4 131 439 438 130 -1 -1 -1
4 235 310 311 236 -1 -1 -1
4 251 67 81 253 -1 -1 -1
7 171 169 173 172 168 167 170 -1 -1 -1
7 24 22 198 199 45 21 23 -1 -1 -1
13 214 30 29 33 34 26 25 27 28 32 31 243 247 -1 -1 -1
12 250 35 38 39 41 40 37 36 42 43 237 254 -1 -1 -1
8 471 472 277 289 287 301 475 473 -1 -1 -1
8 352 482 480 478 479 336 335 351 -1 -1 -1
7 484 485 391 390 404 488 486 -1 -1 -1
6 455 495 497 493 440 454 -1 -1 -1
21 502 501 226 499 500 503 509 508 510 511 507 506 504 505 219 224 225 223 222 220 498 -1 0 0
3 501 502 175 0 -1 0
4 226 501 175 176 0 -1 0
7 499 226 176 178 161 132 44 0 -1 0
8 502 498 227 174 177 178 176 175 0 -1 0
5 504 506 417 425 407 0 -1 0
4 503 500 419 416 0 -1 0
4 219 505 408 405 0 -1 0
4 510 508 421 423 0 -1 0
5 498 220 406 410 227 0 -1 0
4 509 503 416 422 0 -1 0
4 224 219 405 413 0 -1 0
4 220 222 412 406 0 -1 0
4 505 504 407 408 0 -1 0
4 506 507 418 417 0 -1 0
4 507 511 424 418 0 -1 0
5 500 499 44 420 419 0 -1 0
5 223 225 414 409 4 0 -1 0
5 222 223 4 411 412 0 -1 0
4 508 509 422 421 0 -1 0
4 225 224 413 414 0 -1 0
4 511 510 423 424 0 -1 0
