ply
format ascii 1.0
comment converted from made-by-Polyhedron_join_facets_2
element vertex 48
property float x
property float y
property float z
element face 26
property list uchar uint vertex_indices
property uchar red
property uchar green
property uchar blue
end_header
3771 -67791 -3573
3771 -67791 -3573
8536970910455 -4335184337734 -49420990248
-3072 2784 -4857
781731 1561922 13866
160 -82 -9223372036854775808
8677 93075 3122
3624 4152 -4789
57108 -818589 7699
-1420 -14407 1005
8677 93075 3122
160 -82 -9223372036854775808
2548 -2268 -5878
2048 2158 -6216
1657 10514 -6213
3105 -1519 -9223372036854775808
3289 -85503 -9223372036854775808
-734 -19585 261
57108 -818589 7699
-270 -2765 -1843
-1420 -14407 1005
-3477 -21280 4514
-3477 -21280 4514
8536970910455 -4335184337734 -49420990248
923858 -3151380 18161
-2207 53334 -12440
-2207 53334 -12440
57108 -818589 7699
2285803 1063202 12217
57108 -818589 7699
8536970910455 -4335184337734 -49420990248
976053 185061 -4508
3771 -67791 -3573
3771 -67791 -3573
-2104949 -552967 -12040
781731 1561922 13866
-1043 -15040 465
8536970910455 -4335184337734 -49420990248
166944 16616 -80
-734 -19585 261
8536970910455 -4335184337734 -49420990248
-3477 -21280 4514
3771 -67791 -3573
-764 -11188 -322
-1043 -15040 465
166944 16616 -80
-764 -11188 -322
-764 -11188 -322
3 2 37 30 100 100 100
3 37 14 43 100 100 100
2 43 14 100 100 100
2 30 14 100 100 100
3 14 7 18 100 100 100
3 14 18 43 100 100 100
3 7 15 14 100 100 100
1 7 100 100 100
3 7 13 15 100 100 100
3 14 13 7 100 100 100
1 14 100 100 100
2 15 14 100 100 100
3 13 14 15 100 100 100
1 14 100 100 100
3 43 18 7 100 100 100
2 14 43 100 100 100
3 30 7 14 100 100 100
3 30 37 7 100 100 100
3 44 43 14 100 100 100
3 7 37 43 100 100 100
2 44 43 100 100 100
1 14 100 100 100
3 2 14 37 100 100 100
3 43 44 14 100 100 100
1 14 100 100 100
3 30 14 2 100 100 100
