ply
format ascii 1.0
comment converted from made-by-Polyhedron_join_facets_2
element vertex 510
property float x
property float y
property float z
element face 258
property list uchar uint vertex_indices
property uchar red
property uchar green
property uchar blue
end_header
-722 2146 -5410
-541 2150 -5411
2014 -2482 -5208
2081 -2445 -5407
-2921 -1141 -5224
-1540 2069 -5463
-2221 1807 -5392
2095 -2433 -5267
-1378 -2715 -5223
-317 2149 -5439
-861 2139 -5371
940 2038 -5378
2466 1272 -5424
2514 1194 -5266
1308 1967 -5323
2353 -2149 -5366
2368 -2127 -5219
-2110 -2524 -5296
-982 -2771 -5267
-897 -2782 -5361
-2313 -2409 -5236
1491 1916 -5196
1315 1964 -5244
1450 1928 -5211
1319 1963 -5243
656 -2794 -5213
428 -2804 -5239
833 -2784 -5188
966 -2773 -5162
-237 -2813 -5277
-332 -2811 -5277
1180 -2749 -5109
1092 -2760 -5133
42 -2812 -5268
212 -2810 -5257
2668 -1346 -5169
2760 -473 -5286
2749 -662 -5276
2684 -1248 -5191
2707 -1084 -5223
2734 -857 -5258
2730 -903 -5253
2763 -323 -5286
2763 -172 -5280
-2815 778 -5095
-2783 906 -5072
1602 1879 -5152
2056 1669 -5235
1945 1730 -5221
2289 1488 -5233
2236 1538 -5239
1753 1821 -5188
1825 1788 -5201
2116 1630 -5240
2173 1589 -5241
1702 1843 -5177
1631 1870 -5160
1607 1877 -5154
2450 1293 -5238
2644 885 -5195
2515 1192 -5238
2550 1129 -5234
2606 998 -5217
2576 1073 -5228
2353 1420 -5228
2390 1375 -5233
2667 805 -5177
391 -339 -3260
2361 -878 -4746
313 -385 -3198
2579 -1720 -5155
2614 -1602 -5129
2230 -2293 -5171
2317 -2191 -5184
2423 -2039 -5188
2454 -1987 -5186
2495 -1915 -5182
2337 -2167 -5186
2368 -2125 -5189
2544 -1822 -5175
2536 -1839 -5177
263 -380 -3162
2611 -1528 -5097
270 -381 -3167
2011 -2483 -5171
2086 -2438 -5173
1654 -2650 -5128
1551 -2679 -5103
1923 -2531 -5164
1817 -2582 -5153
1677 -2642 -5133
1750 -2612 -5144
1463 -2699 -5080
1414 -2709 -5065
2145 -2383 -5163
2097 -2430 -5173
-123 -721 -3146
-120 -752 -3169
-2440 -2294 -5121
-2015 -2553 -5082
-2105 -2519 -5102
-2259 -2444 -5128
-2303 -2412 -5129
-1911 -2586 -5054
-2420 -2312 -5122
-2212 -2470 -5122
-2197 -2477 -5119
-1839 -2606 -5034
-2325 -2395 -5128
-2354 -2371 -5127
-129 -725 -3150
-2709 -1945 -5141
-2741 -1878 -5134
-2813 -1682 -5101
-2777 -1788 -5121
-2539 -2195 -5137
-2577 -2154 -5143
-2646 -2056 -5146
-2832 -1613 -5085
-2600 -2126 -5147
-2611 -2113 -5148
-2646 1294 -5156
-2544 1479 -5175
-2487 1550 -5172
-2727 1096 -5118
-2560 1457 -5175
-2595 1392 -5168
-2695 1181 -5136
-2661 1260 -5150
-2766 969 -5087
-2746 1040 -5106
-2485 1552 -5172
-2418 1625 -5164
-2781 912 -5071
-2780 909 -5069
-2060 1901 -5181
-2026 1918 -5177
-1925 1959 -5161
-1747 2016 -5123
-1827 1994 -5142
-1697 2027 -5109
-2380 1665 -5164
-2184 1825 -5184
-2115 1870 -5184
-2235 1789 -5182
-2261 1770 -5181
-2339 1702 -5171
-2275 1758 -5179
2328 1446 -5225
2340 1434 -5225
258 -380 -3159
2174 -2353 -5160
2152 -2376 -5161
-123 -719 -3144
-124 -717 -3143
-93 -368 -2975
258 -380 -3159
-2440 -2293 -5120
-2468 -2266 -5121
-117 -390 -2975
-124 -716 -3142
-2404 1640 -5161
-519 -350 -3168
-2384 1660 -5163
-116 -345 -2975
-108 -6 -3155
-140 -366 -2975
-495 -357 -3153
-105 28 -3179
-105 27 -3179
-109 3 -3161
-2842 -1572 -5074
-574 -358 -3205
-534 -354 -3177
-511 -355 -3162
-515 -354 -3164
-848 2139 -5325
215 2121 -5396
409 2104 -5385
-1182 2110 -5244
-796 2141 -5334
657 2076 -5359
-475 2149 -5377
778 2060 -5344
-50 2138 -5399
-252 2146 -5394
-572 2148 -5367
-670 2146 -5354
-285 2147 -5392
-370 2148 -5386
-893 2135 -5315
-1130 2115 -5257
1064 2015 -5292
942 2037 -5318
1185 1991 -5263
1189 1990 -5262
1419 1864 -5067
641 1626 -4582
-1154 -2748 -5209
-981 -2771 -5238
-1393 -2710 -5159
-1632 -2660 -5088
-1547 -2679 -5116
-1298 -2726 -5181
-1356 -2717 -5168
-503 -2806 -5272
-593 -2801 -5269
-1716 -2638 -5055
-812 -2786 -5255
-723 -2793 -5262
-480 -2806 -5272
-158 -2246 -4317
-776 -2333 -4496
-1800 -2615 -5022
-1800 -2615 -5022
-2847 611 -5126
-2947 -685 -5236
-2886 -1390 -5135
-2950 -292 -5248
-2951 -488 -5246
-2941 -121 -5240
-2938 -86 -5237
-2846 -1557 -5077
-2905 -1274 -5164
-2918 -1144 -5186
-2903 257 -5195
-2885 378 -5173
-2938 -897 -5219
-2934 -969 -5211
-2908 208 -5202
-2925 60 -5221
-2827 715 -5100
-2448 -339 -4552
-2762 764 -5011
-2544 231 -4698
-2844 -1564 -5074
-2586 -957 -4730
2725 454 -5227
2755 107 -5267
2762 -78 -5277
2739 323 -5245
2711 559 -5208
2689 695 -5178
2680 744 -5166
2752 169 -5263
2744 266 -5252
2763 -135 -5278
2678 753 -5163
2677 751 -5161
2378 54 -4757
2284 -406 -4630
1300 -2730 -5070
1265 -2735 -5079
1364 -2718 -5050
1344 -2709 -5036
463 -2383 -4527
766 -2710 -5045
-68 -2267 -4348
2635 -1518 -5128
2658 -1399 -5155
2340 -702 -4708
2626 -1555 -5117
2618 -1541 -5106
2672 -801 -5155
2326 -612 -4686
-1569 2054 -5124
-1340 2091 -5201
-1329 2093 -5204
-1641 2038 -5093
-1581 2010 -5050
-753 1687 -4565
-1215 2106 -5234
-753 1687 -4565
198 2125 -5529
485 2100 -5510
1451 1933 -5530
538 2094 -5508
844 2054 -5502
766 2065 -5502
1312 1969 -5516
1094 2013 -5504
966 2036 -5501
1161 2001 -5507
1197 1993 -5509
1437 1938 -5528
1411 1944 -5525
1330 1562 -5920
2062 1667 -5471
1931 1739 -5480
2234 1540 -5482
1730 1834 -5508
1872 1768 -5487
2110 1636 -5470
2167 1595 -5474
1650 1867 -5522
1621 1878 -5528
2264 1513 -5489
1547 1902 -5546
1331 1562 -5919
2650 871 -5488
2548 1135 -5446
2295 1483 -5481
2603 1008 -5461
2579 1069 -5452
2356 1418 -5464
2392 1374 -5456
2466 1272 -5446
2519 1187 -5444
2672 787 -5509
2666 817 -5501
2272 1505 -5489
2730 435 -5499
2757 78 -5507
2763 -74 -5516
2733 403 -5499
2717 529 -5501
2695 669 -5509
2764 -299 -5536
2764 -181 -5525
2751 197 -5502
2750 204 -5502
2677 764 -5516
2238 578 -5939
2666 -1361 -5505
2636 -1519 -5511
2760 -473 -5538
2749 -683 -5520
2688 -1224 -5503
2705 -1103 -5504
2746 -711 -5518
2729 -911 -5507
2762 -391 -5547
2759 -391 -5550
2352 -2152 -5428
2585 -1704 -5481
2613 -1611 -5509
2243 -2283 -5444
2288 -2229 -5436
2428 -2035 -5430
2382 -2106 -5428
2434 -2024 -5430
2511 -1888 -5441
2542 -1828 -5449
2526 -1861 -5444
2171 -2359 -5459
2245 -1454 -5879
2620 -1584 -5517
2261 -1452 -5868
2086 -2442 -5425
1616 -2669 -5429
1563 -2684 -5439
1911 -2541 -5414
1829 -2581 -5414
1666 -2652 -5423
1749 -2617 -5417
1984 -2502 -5417
2082 -2445 -5424
1463 -2709 -5460
2142 -2390 -5446
2115 -2416 -5435
2168 -2362 -5459
1305 -2319 -5868
634 -2802 -5446
520 -2806 -5449
1310 -2739 -5464
797 -2793 -5445
1024 -2775 -5448
1354 -2732 -5469
1196 -2756 -5455
1089 -2769 -5450
25 -2817 -5470
245 -2813 -5460
1401 -2722 -5475
1297 -2339 -5853
-1115 -2760 -5424
-231 -2817 -5477
-433 -2813 -5456
-1619 -2675 -5445
-1594 -2681 -5443
-1261 -2739 -5427
-1394 -2718 -5431
-495 -2811 -5450
-552 -2808 -5446
-1662 -2665 -5450
-738 -2796 -5435
-1018 -2772 -5424
-894 -2784 -5428
-178 -2817 -5483
-178 -2813 -5487
-2465 -2284 -5429
-2025 -2562 -5413
-2268 -2448 -5390
-1929 -2593 -5432
-2388 -2355 -5409
-2215 -2477 -5392
-2106 -2529 -5401
-1851 -2616 -5451
-2319 -2411 -5396
-2375 -2365 -5406
-2488 -2262 -5436
-1613 -2250 -5852
-1792 -2632 -5466
-1610 -2262 -5844
-2713 -1967 -5385
-2760 -1870 -5388
-2828 -1698 -5407
-2800 -1776 -5396
-2530 -2219 -5425
-2593 -2149 -5404
-2667 -2047 -5387
-2850 -1624 -5421
-2623 -2113 -5395
-2645 -2084 -5390
-2499 -2251 -5436
-2958 -706 -5426
-2899 -1410 -5408
-2963 -301 -5464
-2963 -461 -5447
-2942 -1015 -5409
-2873 -1531 -5420
-2923 -1236 -5404
-2919 -1274 -5403
-2951 -864 -5416
-2944 -987 -5410
-2858 -1594 -5428
-2870 588 -5448
-2959 -189 -5477
-2946 -16 -5464
-2835 779 -5453
-2817 857 -5459
-2915 278 -5451
-2901 382 -5449
-2929 156 -5455
-2939 59 -5460
-2959 -202 -5479
-2953 -203 -5485
-2656 1303 -5420
-2557 1477 -5418
-2518 1527 -5427
-2395 1663 -5464
-2742 1102 -5445
-2576 1450 -5415
-2618 1376 -5416
-2707 1190 -5432
-2682 1246 -5425
-2776 1007 -5463
-2770 1025 -5459
-2442 1613 -5448
-2441 1615 -5449
-2333 1720 -5488
-2786 971 -5472
-2392 849 -5863
-2071 1901 -5442
-2019 1928 -5440
-1923 1967 -5445
-1723 2030 -5474
-1843 1996 -5454
-1669 2043 -5485
-2131 1868 -5447
-2275 1769 -5473
-2222 1808 -5461
-2326 1727 -5488
-2314 1737 -5485
-2326 1727 -5489
-1470 1632 -5930
-1275 2106 -5476
-326 2150 -5511
-48 2141 -5543
-212 2147 -5524
-720 2147 -5482
-537 2152 -5492
-1540 2070 -5490
-1315 2102 -5477
-1064 2126 -5474
-874 2141 -5475
-16 2139 -5548
-16 2135 -5552
-1610 2056 -5498
-1469 1635 -5928
-67 1179 -6213
1475 803 -6211
1328 1557 -5923
1499 778 -6211
1812 -341 -6210
2212 598 -5950
2230 579 -5945
1810 -416 -6210
1412 -1537 -6211
2238 -1451 -5884
1403 -1546 -6211
-13 -1788 -6213
1302 -2311 -5873
-130 -1784 -6213
-1605 -1480 -6215
-1603 -2232 -5865
-1612 -1473 -6215
-1908 -254 -6216
-2416 -1394 -5875
-2418 -1389 -5874
-2418 -1392 -5874
-1908 -247 -6216
-2386 851 -5867
-2373 865 -5872
-149 1182 -6213
-1465 1620 -5937
-1597 896 -6215
-1598 898 -6214
-118 15 -3171
-124 27 -3181
-18 1518 -4334
19 211 212 214 213 207 201 202 200 204 203 198 199 208 209 206 205 210 256 257 100 100 100
22 232 234 233 231 215 226 225 229 230 221 220 218 219 216 227 228 224 223 217 222 235 236 100 100 100
16 238 244 245 240 237 241 242 243 247 248 249 250 264 263 246 239 100 100 100
7 155 156 150 149 148 165 164 100 100 100
8 155 159 160 154 153 152 151 156 100 100 100
6 159 166 167 158 157 160 100 100 100
8 479 503 504 464 478 476 286 481 100 100 100
8 483 485 322 332 347 345 488 486 100 100 100
9 490 491 361 373 388 402 400 494 492 100 100 100
6 435 451 501 500 496 498 100 100 100
7 251 253 254 255 257 256 252 100 100 100
7 260 262 261 258 259 263 264 100 100 100
7 265 268 269 272 271 267 266 100 100 100
5 46 196 197 169 57 100 100 100
15 67 248 247 66 59 62 63 61 60 58 65 64 149 150 81 100 100 100
3 67 249 248 100 100 100
6 67 81 83 69 250 249 100 100 100
5 68 260 264 250 69 100 100 100
4 68 69 83 82 100 100 100
19 71 261 262 82 83 81 150 156 151 72 73 77 78 74 75 76 80 79 70 100 100 100
17 84 85 95 94 152 153 96 254 253 93 92 87 86 90 91 89 88 100 100 100
4 96 97 255 254 100 100 100
4 97 211 257 255 100 100 100
7 96 153 154 110 212 211 97 100 100 100
3 110 214 212 100 100 100
18 104 109 108 102 101 105 106 100 99 103 107 213 214 110 154 160 157 98 100 100 100
14 113 114 112 111 117 120 119 116 115 158 167 174 171 118 100 100 100
3 172 232 236 100 100 100
4 172 173 234 232 100 100 100
6 134 233 234 173 175 162 100 100 100
16 129 133 134 162 161 132 131 123 122 125 126 121 128 127 124 130 100 100 100
6 202 272 170 174 170 169 100 100 100
7 171 174 175 173 172 236 235 100 100 100
18 280 282 283 279 285 284 275 297 298 286 476 475 273 274 276 278 277 281 100 100 100
12 287 292 293 289 296 298 297 295 294 290 291 288 100 100 100
16 322 485 484 310 301 304 305 306 307 300 303 302 299 309 308 321 100 100 100
14 311 314 320 319 312 313 318 317 331 332 322 321 316 315 100 100 100
12 325 326 329 330 328 327 323 324 346 347 332 331 100 100 100
15 342 343 341 340 338 339 333 337 336 344 345 347 346 335 334 100 100 100
16 358 359 348 356 355 351 352 354 353 349 350 357 372 373 361 360 100 100 100
14 364 368 369 366 365 362 363 371 370 387 388 373 372 367 100 100 100
17 382 384 386 385 374 379 380 378 377 383 401 402 388 387 375 376 381 100 100 100
14 400 402 401 396 392 390 395 394 391 397 398 393 389 399 100 100 100
14 407 408 411 412 409 403 404 406 405 410 424 499 497 413 100 100 100
15 414 417 416 434 435 498 499 424 419 415 421 420 418 423 422 100 100 100
13 426 427 433 432 430 431 425 428 429 450 451 435 434 100 100 100
18 440 443 444 436 442 441 437 438 447 448 439 449 502 501 451 450 445 446 100 100 100
15 461 462 459 460 458 452 453 454 456 455 457 477 478 464 463 100 100 100
14 465 473 474 469 470 466 468 467 475 476 478 477 471 472 100 100 100
3 479 481 480 100 100 100
4 484 485 483 482 100 100 100
3 486 488 487 100 100 100
3 489 491 490 100 100 100
3 492 494 493 100 100 100
5 495 497 499 498 496 100 100 100
5 501 502 506 505 500 100 100 100
4 505 506 504 503 100 100 100
15 479 480 482 483 486 487 489 490 492 493 495 496 500 505 503 100 100 100
4 155 164 166 159 100 100 100
5 29 375 387 370 33 100 100 100
5 177 273 475 467 184 100 100 100
5 36 325 331 317 42 100 100 100
5 218 220 426 434 416 100 100 100
4 99 390 392 103 100 100 100
4 138 140 457 455 100 100 100
4 113 118 410 405 100 100 100
4 51 290 294 55 100 100 100
6 141 146 461 463 449 439 100 100 100
4 70 79 342 334 100 100 100
4 124 127 443 440 100 100 100
8 72 151 152 94 358 360 344 336 100 100 100
8 98 157 158 115 407 413 399 389 100 100 100
4 86 349 353 90 100 100 100
4 59 299 302 62 100 100 100
6 49 148 149 64 304 301 100 100 100
4 198 203 379 374 100 100 100
3 10 190 176 100 100 100
4 194 282 280 192 100 100 100
3 4 418 420 100 100 100
5 31 368 364 251 252 100 100 100
4 237 311 315 241 100 100 100
5 215 231 44 428 425 100 100 100
4 35 323 327 38 100 100 100
4 111 403 409 117 100 100 100
4 135 136 453 452 100 100 100
4 74 338 340 75 100 100 100
5 2 84 88 351 355 100 100 100
4 53 292 287 47 100 100 100
4 12 58 60 13 100 100 100
4 122 437 441 125 100 100 100
4 101 391 394 105 100 100 100
4 25 362 365 27 100 100 100
3 1 186 182 100 100 100
4 181 276 274 178 100 100 100
4 18 19 208 199 100 100 100
4 238 312 319 244 100 100 100
4 216 219 417 414 100 100 100
3 5 265 266 100 100 100
4 207 383 377 201 100 100 100
4 225 430 432 229 100 100 100
4 40 329 326 37 100 100 100
4 21 275 284 23 100 100 100
3 6 144 142 100 100 100
4 217 415 419 222 100 100 100
4 126 442 436 121 100 100 100
6 45 133 129 445 450 429 100 100 100
4 114 406 404 112 100 100 100
4 139 456 454 137 100 100 100
3 20 102 108 100 100 100
4 123 131 447 438 100 100 100
4 87 92 357 350 100 100 100
4 50 289 293 54 100 100 100
4 48 288 291 52 100 100 100
5 205 381 376 30 210 100 100 100
5 15 77 73 337 333 100 100 100
6 258 261 71 335 346 324 100 100 100
5 242 316 321 308 243 100 100 100
4 63 303 300 61 100 100 100
4 89 91 354 352 100 100 100
4 116 119 411 408 100 100 100
3 17 100 106 100 100 100
5 8 200 202 378 380 100 100 100
4 34 371 363 26 100 100 100
3 11 281 277 100 100 100
5 12 306 305 65 58 100 100 100
4 28 366 369 32 100 100 100
4 179 191 473 465 100 100 100
4 215 425 431 226 100 100 100
5 239 246 43 318 313 100 100 100
4 216 414 422 227 100 100 100
6 7 95 85 3 356 348 100 100 100
4 39 328 330 41 100 100 100
6 10 176 180 0 469 474 100 100 100
5 185 468 466 9 188 100 100 100
5 14 22 24 285 279 100 100 100
4 240 314 311 237 100 100 100
4 217 223 421 415 100 100 100
4 76 341 343 80 100 100 100
4 47 287 288 48 100 100 100
4 209 384 382 206 100 100 100
4 218 416 417 219 100 100 100
5 35 259 258 324 323 100 100 100
4 66 309 299 59 100 100 100
4 15 333 339 16 100 100 100
4 98 389 393 104 100 100 100
4 220 221 427 426 100 100 100
4 177 178 274 273 100 100 100
4 26 363 362 25 100 100 100
4 111 112 404 403 100 100 100
4 135 452 458 143 100 100 100
4 137 454 453 136 100 100 100
4 113 405 406 114 100 100 100
3 7 348 359 100 100 100
4 145 459 462 147 100 100 100
4 138 455 456 139 100 100 100
4 230 433 427 221 100 100 100
5 251 364 367 93 253 100 100 100
4 37 326 325 36 100 100 100
5 13 60 61 300 307 100 100 100
5 17 395 390 99 100 100 100 100
6 49 301 310 296 289 50 100 100 100
4 2 3 85 84 100 100 100
7 140 268 265 5 471 477 457 100 100 100
4 45 429 428 44 100 100 100
4 70 334 335 71 100 100 100
5 198 374 385 18 199 100 100 100
5 179 465 472 267 271 100 100 100
5 101 102 20 397 391 100 100 100
4 121 436 444 128 100 100 100
7 21 46 57 56 295 297 275 100 100 100
4 87 350 349 86 100 100 100
4 122 123 438 437 100 100 100
6 141 439 448 132 161 163 100 100 100
5 228 423 418 4 224 100 100 100
3 0 180 187 100 100 100
4 181 183 278 276 100 100 100
4 51 52 291 290 100 100 100
4 239 313 312 238 100 100 100
4 103 392 396 107 100 100 100
6 1 182 189 9 466 470 100 100 100
4 124 440 446 130 100 100 100
4 62 302 303 63 100 100 100
4 240 245 320 314 100 100 100
4 27 365 366 28 100 100 100
4 72 336 337 73 100 100 100
5 183 193 11 277 278 100 100 100
4 53 54 293 292 100 100 100
5 6 142 143 458 460 100 100 100
4 89 352 351 88 100 100 100
4 125 441 442 126 100 100 100
4 115 116 408 407 100 100 100
4 241 315 316 242 100 100 100
3 14 279 283 100 100 100
4 90 353 354 91 100 100 100
4 184 467 468 185 100 100 100
4 117 409 412 120 100 100 100
4 65 305 304 64 100 100 100
7 222 419 424 410 118 171 235 100 100 100
5 16 339 338 74 78 100 100 100
4 29 30 376 375 100 100 100
6 0 187 186 1 470 469 100 100 100
4 104 393 398 109 100 100 100
4 2 355 356 3 100 100 100
5 93 367 372 357 92 100 100 100
3 8 204 200 100 100 100
5 4 420 421 223 224 100 100 100
5 5 266 267 472 471 100 100 100
4 75 340 341 76 100 100 100
4 201 377 378 202 100 100 100
4 38 327 328 39 100 100 100
5 6 460 459 145 144 100 100 100
4 31 32 369 368 100 100 100
5 7 359 358 94 95 100 100 100
5 8 380 379 203 204 100 100 100
4 205 206 382 381 100 100 100
3 9 189 188 100 100 100
5 10 474 473 191 190 100 100 100
5 11 193 192 280 281 100 100 100
4 12 13 307 306 100 100 100
6 14 283 282 194 195 22 100 100 100
4 226 431 430 225 100 100 100
4 55 294 295 56 100 100 100
4 40 41 330 329 100 100 100
5 243 308 309 66 247 100 100 100
4 23 284 285 24 100 100 100
4 15 16 78 77 100 100 100
5 17 106 105 394 395 100 100 100
6 207 213 107 396 401 383 100 100 100
4 227 422 423 228 100 100 100
4 127 128 444 443 100 100 100
4 33 370 371 34 100 100 100
4 130 446 445 129 100 100 100
4 146 147 462 461 100 100 100
4 42 317 318 43 100 100 100
5 19 386 384 209 208 100 100 100
4 79 80 343 342 100 100 100
4 18 385 386 19 100 100 100
5 20 108 109 398 397 100 100 100
4 229 432 433 230 100 100 100
4 119 120 412 411 100 100 100
4 132 448 447 131 100 100 100
4 244 319 320 245 100 100 100
4 260 68 82 262 100 100 100
7 24 22 195 196 46 21 23 100 100 100
13 210 30 29 33 34 26 25 27 28 32 31 252 256 100 100 100
12 259 35 38 39 41 40 37 36 42 43 246 263 100 100 100
6 133 45 44 231 233 134 100 100 100
8 480 481 286 298 296 310 484 482 100 100 100
8 361 491 489 487 488 345 344 360 100 100 100
7 493 494 400 399 413 497 495 100 100 100
6 464 504 506 502 449 463 100 100 100
6 272 509 169 170 507 508 -1 0 0
25 272 509 197 196 195 194 192 193 183 181 178 177 184 185 188 189 182 186 187 180 176 190 191 179 271 100 0 0
11 170 507 163 161 162 175 174 167 166 164 165 100 0 0
3 509 169 197 100 0 0
15 169 170 165 148 49 50 54 53 47 48 52 51 55 56 57 100 0 0
18 507 508 269 268 140 138 139 137 136 135 143 142 144 145 147 146 141 163 100 0 0
3 508 272 269 100 0 0
