ply
format ascii 1.0
comment converted from made-by-Polyhedron_join_facets_2
element vertex 847
property float x
property float y
property float z
element face 428
property list uchar uint vertex_indices
property uchar red
property uchar green
property uchar blue
end_header
-1263 2375 -1037
-1151 2483 -984
-1447 2175 -807
-2173 -2467 -1124
2750 2173 -913
1846 3070 -861
-2747 -736 -1021
2392 2659 -867
1601 -2151 -1060
-2422 -2118 -1153
-1493 2130 -1051
-1658 1929 -1112
-1590 -2908 -978
-2471 -2042 -1303
-538 2921 -859
-1022 -3129 -1207
2913 531 -1105
475 -2987 -1021
-1802 1750 -930
-69 -3157 -1025
-160 -3165 -1224
-1951 -2680 -1228
2860 1892 -1089
2865 1873 -1068
2867 1866 -1046
2955 1045 -1020
2947 844 -1032
-1100 2528 -901
-812 2754 -1033
-2649 -87 -704
-2691 -269 -1007
-2725 -485 -920
-313 -3184 -1284
2840 1949 -879
-699 -3184 -1249
-2250 -2378 -1424
1712 3133 -826
-2698 -1384 -927
-2725 -1213 -987
-362 3016 -1008
-1696 -2860 -1249
-2142 -2508 -1345
2949 1158 -1073
2668 2328 -1034
724 3302 -727
-1056 -3127 -1321
2357 2696 -911
2311 2733 -690
2287 2763 -941
2919 1631 -913
2844 149 -1135
-2658 -1565 -923
-2676 -1495 -1093
2583 2442 -948
2581 2444 -927
-71 3142 -979
-165 3109 -877
-1946 -2682 -1021
1211 3276 -738
1413 -2349 -836
653 -2899 -823
-1820 1729 -875
-1921 1573 -893
-1867 1657 -893
-2176 1122 -847
-2292 893 -847
-1013 2595 -835
2951 786 -893
2961 980 -942
2958 890 -942
-120 3126 -802
-163 3111 -811
2256 -1236 -834
1573 3176 -537
1688 3129 -529
1639 3151 -540
1589 3171 -540
1174 3267 -478
1228 3259 -486
2803 -12 -721
2823 64 -708
-1590 -2908 -977
-1709 -2838 -977
-1438 -2957 -722
110 3201 -748
-7 3163 -748
-2402 -2144 -937
-2495 -1984 -877
-2533 -1905 -815
-2515 -1944 -849
2396 -982 -818
2312 -1134 -785
-517 2933 -823
-372 3012 -823
-282 3055 -754
-2750 -953 -869
-2750 -905 -836
2927 577 -824
2916 504 -785
2949 767 -873
1541 -2211 -783
1694 -2041 -876
2191 2837 -637
2068 2895 -462
-2649 -89 -690
-2604 -30 -464
-2462 497 -762
-2415 616 -807
654 -2897 -762
528 -2956 -762
269 3242 -695
225 3231 -695
817 -2807 -744
986 -2700 -744
758 -2839 -703
1035 3286 -494
1131 3272 -465
2954 1378 -813
2953 1391 -819
2934 1560 -858
2931 1578 -858
2959 1317 -755
-1666 1926 -780
-1720 1861 -802
-1765 1803 -802
2422 2626 -779
2582 2435 -715
2525 2508 -779
2550 2478 -763
2593 2420 -691
-1478 -2933 -718
-724 2795 -670
-839 2709 -632
-621 2860 -670
-640 -3180 -891
-663 -3154 -667
-2749 -865 -777
1022 -2674 -719
1130 3261 -419
-1994 1450 -879
-1952 1522 -879
-2118 1228 -818
1730 3108 -510
1642 3119 -400
706 3300 -661
593 3293 -661
-1389 -3003 -943
-1474 -2966 -943
-1370 -3010 -933
-1311 -3029 -862
-1496 -2953 -913
-1424 -2967 -732
1453 3219 -626
1401 3232 -626
1352 3241 -597
1545 3185 -526
1274 3251 -486
1497 3191 -467
1319 3237 -467
2891 368 -682
2840 139 -682
2896 397 -678
-2178 -2455 -998
-2279 -2325 -998
-2348 -2223 -937
-478 -3129 -515
-918 -3087 -621
-425 -3126 -489
2660 2328 -712
2704 2248 -712
2641 2353 -691
2652 2309 -635
-2536 290 -729
-2563 205 -694
-2595 93 -594
-2587 105 -560
-2477 455 -729
-2468 437 -560
438 3274 -690
279 3244 -690
534 3286 -624
532 3278 -553
-2603 -30 -462
-2698 -313 -733
-2688 -263 -714
-2681 -233 -690
-2686 -327 -573
-874 -3150 -998
-764 -3165 -933
-863 -3152 -998
-934 -3112 -694
-728 -3169 -891
-782 -3141 -694
1965 2991 -610
2166 2858 -638
2103 2904 -665
1989 2978 -634
2054 2938 -665
2167 2857 -637
2041 2925 -490
-1803 -2778 -976
-1931 -2692 -1004
-1759 -2805 -957
1409 -2351 -743
1503 -2252 -743
1473 -2261 -563
-2704 -1341 -731
-297 3042 -710
-463 2942 -614
-1456 2164 -776
-1599 2000 -711
-1600 1989 -655
-2729 -1169 -823
-2719 -1252 -790
-2740 -1061 -823
-2705 -1336 -729
-2704 -1319 -700
2310 2734 -669
2234 2799 -626
2235 2781 -556
2340 2703 -669
-1064 -3096 -793
-1229 -3055 -857
-1184 -3068 -857
-1247 -3034 -725
-1293 -3033 -829
-1307 -3019 -744
-1056 -3097 -785
-1037 -3095 -725
1143 -2586 -730
1150 -2580 -734
1281 -2472 -734
1132 -2594 -719
1341 -2415 -671
1340 -2412 -634
2154 -1406 -873
2141 -1427 -878
2156 -1403 -871
-504 -3191 -923
-407 -3191 -891
-561 -3188 -901
-593 -3184 -872
-582 -3172 -748
1818 3067 -516
1816 3068 -515
1808 3071 -510
1839 3027 -401
1927 3008 -540
1994 2957 -490
2497 2520 -631
2254 2763 -561
2371 2664 -631
888 3298 -586
1033 3286 -494
933 3279 -441
802 3298 -586
765 3288 -510
-2647 -1598 -748
-2584 -1789 -864
-2630 -1660 -813
-2533 -1904 -815
-2649 -1590 -731
-2646 -1594 -719
1952 -1704 -912
1831 -1870 -912
1781 -1936 -882
1776 -1942 -876
1788 -1908 -749
2004 -1628 -878
1907 -1745 -749
-2740 -643 -806
-2743 -686 -780
-2729 -519 -806
-2719 -448 -759
-2743 -688 -777
-2719 -563 -560
-2731 -685 -565
-2716 -426 -733
-2714 -509 -573
-2172 -2461 -988
2692 -347 -842
2680 -379 -833
2765 -140 -812
2734 -230 -842
2801 -18 -721
-2713 -1155 -625
-2730 -946 -592
2511 -753 -875
2579 -610 -875
2439 -898 -818
2547 -648 -710
2667 -411 -814
2665 -411 -781
-2327 819 -835
-2311 854 -835
-2369 722 -807
-2440 496 -542
-1876 1592 -607
2731 -203 -664
2760 -119 -664
2516 2473 -590
2424 2571 -561
2488 2509 -584
2768 2123 -726
2804 2040 -726
2734 2189 -700
-1765 1799 -779
-1616 1963 -624
-1834 1659 -607
1810 3026 -350
1837 3000 -329
-2647 -1463 -550
-2640 -1508 -568
-1391 -2946 -656
-1236 -3026 -697
-1008 -3055 -609
-2249 966 -1310
203 -3078 -1370
-1436 -2996 -1395
-288 3050 -1123
-394 2997 -1145
-321 3035 -1123
-2676 -1357 -1434
-469 2955 -1189
2897 1554 -1246
-2075 -2536 -1649
292 3249 -918
134 3209 -996
-2622 29 -1167
-2537 299 -1141
-2596 118 -1141
-2483 450 -1188
-2669 -1363 -1464
-1059 -3127 -1352
-1148 -3101 -1352
-1251 -3069 -1390
-1233 -3075 -1378
-1288 -3055 -1429
-1277 -3056 -1457
1831 3081 -930
1794 3100 -939
1943 3016 -959
1994 2984 -987
2024 2965 -1014
-2000 -2640 -1455
-2105 -2545 -1355
-2090 -2560 -1363
-2144 -2506 -1361
-2140 -2511 -1355
-1996 -2643 -1462
416 3273 -896
598 3296 -896
376 3265 -918
408 3260 -1008
-747 -3183 -1420
-842 -3170 -1399
-847 -3169 -1399
-978 -3145 -1427
-2443 552 -1201
-2359 745 -1259
-2475 470 -1201
1503 3214 -955
1574 3191 -943
1630 3171 -943
1734 3130 -961
1738 3128 -963
-1353 -3004 -1603
2665 2336 -1142
2414 2633 -1114
2610 2410 -1114
2614 2406 -1120
2575 2434 -1248
-1917 -2709 -1425
-1768 -2821 -1389
-1783 -2810 -1383
-1838 -2770 -1383
-1964 -2670 -1481
-1944 -2681 -1524
2294 -1139 -694
2535 -662 -681
1663 -2037 -598
1480 -2251 -553
2815 123 -582
1986 -1609 -659
2054 -1511 -669
2705 -252 -646
2814 121 -582
-2096 1214 -574
-2594 -13 -452
-1389 2180 -466
-1353 2216 -456
-2234 940 -565
-2436 504 -538
-1971 1423 -569
-1614 1940 -525
-1765 1738 -550
2941 846 -699
2958 1318 -735
2896 425 -648
2815 126 -581
765 -2825 -635
1016 -2662 -616
1230 -2497 -584
1173 -2545 -595
1416 -2302 -529
69 60 1142
399 -130 945
-2735 -827 -563
-2733 -782 -561
-2668 -1322 -542
-2734 -848 -563
-2647 -1439 -534
-2588 -24 -445
55 52 1142
-902 2647 -569
-917 2635 -566
-1343 2223 -451
68 74 1142
54 68 1142
-296 258 938
-430 -3089 -448
-1222 -2141 292
2896 1735 -724
2880 1800 -719
2835 1955 -704
2916 1649 -729
2684 2251 -635
2604 2312 -590
2829 1969 -702
2723 2188 -655
2924 1581 -728
959 3271 -416
1072 3253 -376
-1412 -2850 -507
-1234 -2152 285
1702 3077 -347
1726 3063 -340
1803 2991 -285
1195 3185 -304
2014 2908 -400
1897 2962 -336
2332 2644 -522
1806 2982 -276
-2466 -1968 -723
-2556 -1821 -719
-2542 -1860 -734
-2632 -1529 -568
-2612 -1500 -515
-2316 -2030 -571
-56 -3157 -966
-192 -3175 -904
-146 -3121 -544
374 -3027 -886
245 -3078 -967
483 -2975 -749
447 -2973 -628
-2284 -2280 -842
-2278 -2294 -853
-2129 -2255 -571
-1675 -2524 -291
-1676 -2167 19
-1609 -2530 -238
-1453 -2208 151
-1787 -2130 -45
-1807 -2163 -91
-2378 -1718 -383
-2266 -1958 -440
-287 -3184 -880
-380 -3130 -504
-396 -3191 -880
-484 -3175 -748
-238 -3179 -871
-153 -3122 -544
-1099 2529 -897
-1065 2555 -855
-1081 2499 -566
-1335 2281 -706
-1276 2308 -508
-433 -3114 -475
-1047 -3008 -553
-430 -3089 -448
-1141 -2963 -534
-868 -2612 -72
-1548 -2760 -481
-1542 -2736 -432
-1622 -2570 -285
-1674 -2525 -291
30 -3137 -975
190 -3096 -975
-31 -3151 -961
71 -3084 -584
206 -3091 -967
159 -3063 -597
-2046 -2588 -995
-1951 -2677 -1006
-1947 -2681 -1006
-1610 -2867 -789
-1940 -2686 -1004
-1679 -2835 -846
-2073 -2561 -988
-2182 -2436 -933
-2204 -2400 -902
-1574 -2758 -518
-2074 -2462 -799
2271 2439 -390
1512 2675 68
1534 2808 -1
2170 2621 -390
1664 2886 -127
1461 3150 -1331
1491 3218 -962
2750 2183 -1103
2804 2057 -1103
2665 2187 -1483
-2651 -84 -1151
-2623 24 -1170
2845 153 -1148
2766 147 -1562
1278 -2478 -1179
1412 -2352 -1215
1226 -2446 -1556
-732 -3132 -1745
-666 -3189 -1479
1914 2993 -1209
1886 3029 -1107
1743 3123 -986
1878 3001 -1250
-2376 -2193 -1455
-2252 -2285 -1747
-2311 -2198 -1747
-2473 443 -1306
-2745 -703 -1118
-2744 -688 -1118
-1382 2251 -1228
-1451 2177 -1228
-1395 2170 -1543
-2616 -1713 -1327
2329 -1096 -1171
2361 -1037 -1157
2458 -847 -1157
2532 -688 -1198
800 -2826 -1214
-606 2880 -1174
-572 2899 -1189
-591 2847 -1387
-208 3080 -1180
-355 2988 -1330
1757 -1960 -1269
2174 2858 -1050
2056 2943 -1025
2050 2947 -1025
2022 2929 -1209
2691 -302 -1202
532 -2965 -1233
661 -2903 -1244
620 -2924 -1233
698 -2883 -1264
2923 708 -1200
-1717 -2852 -1375
-1767 -2821 -1389
-1804 -2781 -1549
1943 -1712 -1221
1966 -1679 -1221
1841 -1853 -1261
1807 -1895 -1286
343 3243 -1041
-1600 1997 -1227
-1562 1969 -1539
-1499 2119 -1263
-1466 2107 -1484
2858 1897 -1096
2877 1681 -1246
-1907 1563 -1287
-1098 2518 -1228
-898 2651 -1387
2938 1218 -1167
2935 1255 -1167
2911 1463 -1224
2902 1512 -1254
2311 2743 -1060
2299 2754 -1060
2418 2598 -1290
2402 2645 -1122
2452 2574 -1248
2237 2807 -1093
2239 2780 -1215
-2746 -997 -1096
-2745 -789 -1156
-1100 -3104 -1510
-981 -3144 -1438
-1096 -3079 -1650
-1086 -3080 -1654
-841 -3127 -1698
-845 -3150 -1567
2210 -1295 -1213
2280 -1176 -1213
2064 -1520 -1275
-2725 -478 -1104
-2690 -262 -1104
-2664 -143 -1151
-2733 -572 -1141
2676 2318 -1144
2582 2374 -1395
2668 2331 -1147
2595 2406 -1264
2697 2282 -1150
2652 2232 -1455
-2557 -8 -1577
-2596 82 -1248
-2469 292 -1577
-2503 337 -1340
1576 -2180 -1221
1442 -2322 -1221
1430 -2335 -1224
1401 -2303 -1496
1649 -2092 -1269
1121 -2606 -1176
951 -2730 -1176
1160 -2576 -1188
1184 -2556 -1203
1070 -2589 -1529
880 -2775 -1214
1604 3109 -1298
1530 3139 -1298
1553 3168 -1123
1728 3123 -1016
1734 3069 -1250
-2475 -2036 -1376
-2396 -2161 -1462
-2380 -2121 -1666
-2475 -1951 -1617
2799 -5 -1160
2789 -36 -1167
2836 121 -1160
2755 80 -1544
2763 -101 -1202
2689 -145 -1544
-1336 2292 -1266
-1340 2234 -1518
-1144 2472 -1266
-607 -3192 -1481
-634 -3191 -1490
-626 -3157 -1685
-2657 -1572 -1281
-2671 -1517 -1270
-2683 -1455 -1282
-2677 -1420 -1363
-2645 -1470 -1481
-2627 -1536 -1500
-2619 -1703 -1331
-2595 -1680 -1500
2827 1995 -1114
2822 2008 -1118
2765 2004 -1388
2855 1906 -1101
2820 1825 -1371
2608 -511 -1208
2540 -669 -1208
2647 -409 -1234
34 -3119 -1415
53 -3115 -1409
129 -3096 -1409
2908 506 -1141
2867 249 -1143
2869 261 -1141
2864 237 -1148
2811 288 -1493
2913 607 -1200
2858 541 -1454
487 3235 -1147
429 3230 -1135
-117 3068 -1321
-756 2792 -1092
-905 2682 -1100
-805 2759 -1064
-700 2825 -1154
-1012 2589 -1228
-898 2653 -1382
-196 -3163 -1438
-284 -3178 -1391
-465 -3192 -1478
-333 -3185 -1391
-467 -3192 -1481
-449 -3187 -1510
-128 -3146 -1520
-2313 843 -1287
-2287 893 -1310
-2353 757 -1267
-2398 609 -1373
-24 3157 -1056
120 3205 -1011
-170 3095 -1170
163 3209 -1041
-103 3098 -1235
2931 951 -1222
2927 804 -1222
2926 791 -1226
2925 1070 -1276
-2232 -2401 -1437
-2244 -2386 -1441
-2254 -2372 -1449
-2124 -2490 -1649
-2187 -2455 -1437
-2129 -2501 -1559
-2259 -2364 -1455
-2168 -2432 -1667
-2089 1260 -1285
-1946 1501 -1285
-2189 1075 -1336
-1942 1507 -1287
-1837 1668 -1258
-1650 1925 -1258
-1656 1853 -1522
-1893 1582 -1293
-1820 1627 -1522
408 -3014 -1289
278 -3054 -1370
437 -3003 -1289
-2725 -1217 -1109
-2708 -1324 -1176
-2693 -1402 -1254
-2691 -1273 -1399
-2743 -1023 -1109
-2703 -1147 -1399
-1547 -2944 -1339
-1524 -2956 -1339
-1438 -2995 -1395
-1686 -2869 -1384
-2578 -1819 -1316
-2538 -1911 -1316
-2538 -1911 -1316
-2587 -1794 -1327
-2477 -2033 -1376
-2488 -1946 -1560
1296 3155 -1421
1432 3139 -1375
2544 2417 -1395
2413 2587 -1336
1909 2969 -1289
1636 3082 -1328
2127 2842 -1283
2193 2797 -1286
2754 160 -1597
2666 2146 -1521
2866 678 -1477
2876 1392 -1418
2795 1856 -1445
2788 1879 -1449
2885 823 -1453
2896 1043 -1428
1740 1652 -2246
2656 2150 -1528
1330 -2318 -1637
2677 -174 -1552
1803 -1846 -1503
2258 -1126 -1473
1988 -1579 -1481
1497 -2183 -1577
1598 -2082 -1549
2466 -710 -1491
2633 -308 -1531
1868 287 -2249
2727 102 -1622
650 -2873 -1531
953 -2669 -1561
874 -2728 -1549
-510 -3145 -1748
-505 -3146 -1746
87 -3080 -1587
-241 -3146 -1655
-172 -3140 -1636
323 -3009 -1553
520 -2934 -1535
711 -1738 -2253
1276 -2351 -1659
-674 -3121 -1795
-2061 -2545 -1653
-2251 -2285 -1747
-1467 -2953 -1612
-1081 -3066 -1682
-1736 -2816 -1601
-1555 -2916 -1604
-1623 -2882 -1600
-612 -2425 -2254
-639 -3120 -1809
-2673 -1218 -1513
-2602 -1555 -1557
-2314 -2184 -1753
-2582 -144 -1604
-2523 -1823 -1609
-2490 -1903 -1631
-2693 -1020 -1503
-2697 -901 -1503
-2618 -280 -1575
-2673 -579 -1528
-1640 -1833 -2253
-2251 -2204 -1798
-1422 2113 -1609
-1426 2108 -1608
-2467 297 -1579
-1825 1618 -1525
-2278 832 -1512
-2338 689 -1524
-2134 1118 -1503
-1960 1410 -1512
-1696 -210 -2249
-2517 -9 -1655
-572 2855 -1396
-374 2966 -1384
-963 2584 -1455
-1169 2394 -1518
-1110 2454 -1496
334 3043 -1558
-178 3023 -1408
790 2245 -2245
-750 1519 -2246
-1386 2140 -1622
792 2486 -2082
1308 3189 -1331
1185 3125 -1488
516 3041 -1617
1100 3084 -1551
1216 3282 -866
1115 3294 -866
1269 3273 -886
1265 3273 -884
1357 3252 -962
1255 3243 -1131
1254 3165 -1421
1249 3174 -1404
1227 3154 -1442
598 3071 -1571
942 3307 -907
761 3306 -912
790 3307 -907
677 3301 -941
981 3305 -919
1016 3288 -1015
765 2787 -1868
681 2981 -1711
818 2981 -1711
617 3286 -1008
507 3237 -1147
802 3207 -1308
948 3224 -1283
647 3291 -998
884 3272 -1112
7 405 406 399 398 396 397 430 100 100 100
14 400 401 403 402 404 406 405 413 421 420 451 490 492 455 100 100 100
14 460 462 434 421 413 412 408 407 410 409 411 447 465 463 100 100 100
14 738 740 741 737 736 751 750 814 817 821 819 734 735 739 100 100 100
12 742 762 761 750 751 743 747 746 745 749 748 744 100 100 100
13 761 762 753 760 759 755 756 754 758 757 752 774 773 100 100 100
14 773 774 764 765 763 772 771 768 770 769 767 766 784 783 100 100 100
12 776 777 796 795 783 784 775 779 778 781 782 780 100 100 100
14 791 792 794 793 788 806 805 795 796 787 790 789 786 785 100 100 100
12 797 816 815 805 806 799 802 801 803 804 800 798 100 100 100
14 814 815 816 810 811 809 807 808 813 812 820 839 838 817 100 100 100
12 380 383 384 378 379 385 386 382 399 406 404 381 100 100 100
10 388 412 390 389 394 395 393 387 391 392 100 100 100
4 817 838 840 821 100 100 100
8 750 761 773 783 795 805 815 814 100 100 100
2 405 413 100 100 100
4 12 81 82 40 100 100 100
5 5 339 340 244 243 100 100 100
3 30 183 184 100 100 100
6 19 659 660 487 489 449 100 100 100
5 0 533 534 10 2 100 100 100
7 8 100 204 203 59 612 611 100 100 100
7 282 631 633 516 50 79 284 100 100 100
6 178 350 352 326 110 179 100 100 100
5 4 303 304 512 511 100 100 100
5 88 260 258 728 729 100 100 100
6 64 141 139 706 708 316 100 100 100
5 25 694 697 575 42 100 100 100
4 15 187 227 221 100 100 100
6 235 594 595 537 72 237 100 100 100
8 14 92 93 39 320 323 543 542 100 100 100
5 7 368 582 579 46 100 100 100
7 60 554 556 541 112 114 108 100 100 100
6 58 822 823 115 116 77 100 100 100
7 95 586 722 718 38 212 214 100 100 100
5 3 698 702 347 41 100 100 100
5 172 176 106 331 329 100 100 100
6 22 23 49 324 571 570 100 100 100
5 238 640 682 680 239 100 100 100
5 11 566 711 710 18 100 100 100
4 28 66 132 131 100 100 100
5 280 281 656 658 552 100 100 100
4 16 67 99 97 100 100 100
6 55 689 691 545 319 56 100 100 100
6 44 833 835 351 145 144 100 100 100
5 1 27 673 676 573 100 100 100
6 152 361 510 826 824 153 100 100 100
4 229 616 618 230 100 100 100
5 146 318 337 335 148 100 100 100
5 21 344 349 376 372 100 100 100
4 194 548 549 195 100 100 100
6 95 96 6 531 587 586 100 100 100
8 3 41 348 345 493 499 279 162 100 100 100
4 17 109 454 452 100 100 100
4 263 264 563 561 100 100 100
6 37 52 51 257 261 206 100 100 100
5 9 13 627 628 527 100 100 100
10 43 367 370 369 53 54 126 129 170 168 100 100 100
3 24 423 422 100 100 100
5 25 42 117 121 68 100 100 100
5 287 289 90 538 539 100 100 100
6 453 491 488 317 716 715 100 100 100
6 0 1 573 639 637 533 100 100 100
7 0 2 209 476 473 27 1 100 100 100
7 84 327 690 689 55 70 85 100 100 100
7 50 516 665 663 159 160 80 100 100 100
6 7 46 47 217 220 125 100 100 100
4 32 450 471 467 100 100 100
5 270 532 531 6 271 100 100 100
5 293 359 358 107 295 100 100 100
5 2 10 122 210 209 100 100 100
6 173 330 328 29 104 174 100 100 100
6 188 355 354 34 134 191 100 100 100
4 9 86 87 13 100 100 100
4 26 557 696 695 100 100 100
6 51 643 649 536 259 257 100 100 100
5 235 236 562 596 594 100 100 100
7 8 611 615 547 265 266 101 100 100 100
6 35 699 698 3 162 163 100 100 100
3 36 75 74 100 100 100
6 44 144 255 252 832 834 100 100 100
6 37 719 720 645 644 52 100 100 100
3 20 679 678 100 100 100
7 14 672 674 28 131 133 92 100 100 100
4 4 169 305 303 100 100 100
4 118 576 577 119 100 100 100
4 201 374 373 200 100 100 100
7 56 319 321 39 93 94 71 100 100 100
6 59 203 233 231 518 519 100 100 100
6 58 78 156 154 825 822 100 100 100
5 112 541 621 617 113 100 100 100
7 15 45 333 357 356 189 187 100 100 100
5 139 140 62 707 706 100 100 100
5 280 552 635 632 283 100 100 100
5 11 18 61 124 123 100 100 100
4 5 243 247 193 100 100 100
6 270 272 31 597 600 532 100 100 100
5 12 40 558 727 724 100 100 100
5 222 225 149 336 334 100 100 100
7 4 511 605 601 43 168 169 100 100 100
5 5 193 196 341 339 100 100 100
5 178 180 145 351 350 100 100 100
5 6 96 136 274 271 100 100 100
5 263 561 562 236 268 100 100 100
6 7 125 127 53 369 368 100 100 100
5 16 97 98 664 662 100 100 100
5 47 48 102 218 217 100 100 100
3 8 101 100 100 100 100
4 73 76 363 362 100 100 100
5 64 316 686 685 65 100 100 100
6 281 291 288 540 657 656 100 100 100
4 29 328 515 514 100 100 100
6 17 452 453 715 717 553 100 100 100
8 35 163 164 86 9 527 704 700 100 100 100
6 252 253 115 823 836 832 100 100 100
5 22 570 654 651 33 100 100 100
6 23 24 422 425 120 49 100 100 100
7 11 123 122 10 534 568 566 100 100 100
5 72 537 538 90 91 100 100 100
7 31 273 277 183 30 598 597 100 100 100
7 238 240 34 354 522 641 640 100 100 100
7 48 580 584 548 194 198 102 100 100 100
6 12 724 725 147 150 81 100 100 100
5 84 111 110 326 327 100 100 100
6 13 87 89 730 732 627 100 100 100
4 14 542 675 672 100 100 100
4 15 221 223 45 100 100 100
5 19 20 678 684 659 100 100 100
7 16 662 667 557 26 69 67 100 100 100
3 38 213 212 100 100 100
6 113 617 616 229 232 137 100 100 100
5 259 536 731 728 258 100 100 100
6 17 553 555 60 108 109 100 100 100
4 172 329 330 173 100 100 100
4 21 372 375 57 100 100 100
3 54 128 126 100 100 100
6 18 710 713 572 63 61 100 100 100
5 230 618 619 518 231 100 100 100
7 19 449 450 32 681 679 20 100 100 100
6 21 57 495 494 346 344 100 100 100
5 487 660 661 317 488 100 100 100
5 152 155 73 362 361 100 100 100
5 159 663 664 98 161 100 100 100
4 287 539 540 288 100 100 100
6 22 33 424 423 24 23 100 100 100
6 26 695 694 25 68 69 100 100 100
8 244 340 365 364 36 74 142 245 100 100 100
7 27 473 474 66 28 674 673 100 100 100
8 29 514 599 598 30 184 185 104 100 100 100
3 31 272 273 100 100 100
6 32 467 469 239 680 681 100 100 100
7 33 651 652 512 304 428 424 100 100 100
4 34 240 241 134 100 100 100
3 35 700 699 100 100 100
4 346 494 493 345 100 100 100
5 36 364 363 76 75 100 100 100
5 264 265 547 564 563 100 100 100
7 38 718 719 37 206 215 213 100 100 100
6 195 549 550 343 342 197 100 100 100
3 39 321 320 100 100 100
7 40 82 202 200 373 559 558 100 100 100
3 41 347 348 100 100 100
5 107 358 360 331 106 100 100 100
4 283 632 631 282 100 100 100
5 42 575 576 118 117 100 100 100
5 147 725 726 318 146 100 100 100
4 43 601 603 367 100 100 100
6 65 685 687 359 293 294 100 100 100
3 44 834 833 100 100 100
5 63 572 709 707 62 100 100 100
5 45 223 222 334 333 100 100 100
5 46 579 580 48 47 100 100 100
4 189 356 355 188 100 100 100
6 49 120 119 577 578 324 100 100 100
3 50 80 79 100 100 100
4 197 342 341 196 100 100 100
4 52 644 643 51 100 100 100
4 148 335 336 149 100 100 100
4 53 127 128 54 100 100 100
4 56 71 70 55 100 100 100
4 153 824 825 154 100 100 100
6 201 497 495 57 375 374 100 100 100
3 58 77 78 100 100 100
4 59 519 613 612 100 100 100
3 60 555 554 100 100 100
4 88 729 730 89 100 100 100
5 482 480 420 421 434 100 100 100
10 430 425 422 423 424 428 429 426 427 504 100 100 100
5 466 448 458 459 464 100 100 100
8 482 434 462 461 485 484 433 481 100 100 100
5 442 437 436 435 508 100 100 100
6 508 507 441 439 440 442 100 100 100
8 466 465 447 446 444 445 443 448 100 100 100
7 472 471 450 449 489 490 451 100 100 100
6 492 491 453 452 454 455 100 100 100
7 486 459 458 456 457 501 503 100 100 100
3 462 460 461 100 100 100
4 466 464 463 465 100 100 100
6 470 469 467 471 472 468 100 100 100
5 477 475 474 473 476 100 100 100
5 482 481 479 478 480 100 100 100
6 503 502 483 484 485 486 100 100 100
6 492 490 489 487 488 491 100 100 100
11 503 501 500 499 493 494 495 497 498 496 502 100 100 100
3 508 504 507 100 100 100
6 820 812 669 842 843 831 100 100 100
7 827 826 510 624 623 509 818 100 100 100
7 653 513 606 605 511 512 652 100 100 100
7 793 599 514 515 608 607 788 100 100 100
6 634 517 666 665 516 633 100 100 100
7 620 520 614 613 519 518 619 100 100 100
6 592 521 642 641 522 593 100 100 100
6 626 625 525 524 523 526 100 100 100
7 704 527 628 629 529 528 705 100 100 100
6 610 530 688 802 799 609 100 100 100
6 792 587 531 532 600 794 100 100 100
7 568 534 533 637 638 535 569 100 100 100
8 731 536 649 650 789 790 630 733 100 100 100
8 540 539 538 537 595 755 759 657 100 100 100
5 765 621 541 556 763 100 100 100
6 675 542 543 544 574 677 100 100 100
7 808 546 545 691 693 671 813 100 100 100
5 754 564 547 615 758 100 100 100
8 740 551 550 549 548 584 585 741 100 100 100
3 769 683 767 100 100 100
6 753 636 635 552 658 760 100 100 100
7 556 554 555 553 717 772 763 100 100 100
6 696 557 667 668 744 748 100 100 100
6 782 727 558 559 560 780 100 100 100
7 756 596 562 561 563 564 754 100 100 100
5 692 565 670 671 693 100 100 100
6 569 567 712 711 566 568 100 100 100
4 654 570 571 655 100 100 100
6 804 709 572 713 714 800 100 100 100
7 811 639 573 676 677 574 809 100 100 100
7 578 577 576 575 697 749 745 100 100 100
7 583 581 585 584 580 579 582 100 100 100
6 792 791 723 722 586 587 100 100 100
6 593 589 588 590 591 592 100 100 100
5 756 755 595 594 596 100 100 100
6 794 600 597 598 599 793 100 100 100
6 604 603 601 605 606 602 100 100 100
4 609 607 608 610 100 100 100
7 758 615 611 612 613 614 757 100 100 100
8 619 618 616 617 621 765 764 620 100 100 100
5 626 622 623 624 625 100 100 100
6 630 629 628 627 732 733 100 100 100
6 636 634 633 631 632 635 100 100 100
5 810 638 637 639 811 100 100 100
7 767 683 682 640 641 642 766 100 100 100
8 650 649 643 644 645 646 647 648 100 100 100
7 747 653 652 651 654 655 746 100 100 100
5 760 658 656 657 759 100 100 100
6 768 661 660 659 684 770 100 100 100
7 668 667 662 664 663 665 666 100 100 100
5 670 669 812 813 671 100 100 100
6 676 673 674 672 675 677 100 100 100
9 770 684 678 679 681 680 682 683 769 100 100 100
6 802 688 687 685 686 801 100 100 100
5 693 691 689 690 692 100 100 100
6 749 697 694 695 696 748 100 100 100
8 705 701 703 702 698 699 700 704 100 100 100
6 804 803 708 706 707 709 100 100 100
5 714 713 710 711 712 100 100 100
5 772 717 715 716 771 100 100 100
6 723 721 720 719 718 722 100 100 100
6 782 781 726 725 724 727 100 100 100
6 732 730 729 728 731 733 100 100 100
6 846 837 827 818 829 844 100 100 100
7 840 839 820 831 830 819 821 100 100 100
8 825 824 826 827 837 836 823 822 100 100 100
6 844 829 828 830 831 843 100 100 100
8 846 845 835 833 834 832 836 837 100 100 100
3 840 838 839 100 100 100
6 846 844 843 842 841 845 100 100 100
6 468 167 165 135 242 470 100 100 100
8 124 61 63 62 140 297 308 306 100 100 100
6 314 313 83 151 226 224 100 100 100
8 440 439 103 199 248 246 309 310 100 100 100
4 458 448 443 456 100 100 100
4 380 267 269 383 100 100 100
6 141 64 65 294 391 387 100 100 100
5 411 409 285 216 311 100 100 100
5 192 135 165 166 190 100 100 100
5 182 105 186 278 275 100 100 100
4 475 132 66 474 100 100 100
7 99 67 69 68 121 397 396 100 100 100
5 85 70 71 94 207 100 100 100
4 394 389 211 307 100 100 100
6 484 483 130 83 313 433 100 100 100
6 219 103 439 441 301 250 100 100 100
7 392 296 177 175 105 182 388 100 100 100
5 384 237 72 91 378 100 100 100
8 142 74 75 76 73 155 157 143 100 100 100
5 379 290 292 298 385 100 100 100
5 402 234 205 381 404 100 100 100
6 156 78 77 116 138 158 100 100 100
7 299 284 79 80 160 382 386 100 100 100
6 300 171 170 129 249 302 100 100 100
9 151 83 130 496 498 202 82 81 150 100 100 100
4 446 312 262 444 100 100 100
3 111 84 85 100 100 100
10 89 87 86 164 457 456 443 445 260 88 100 100 100
3 254 256 181 100 100 100
6 378 91 90 289 290 379 100 100 100
6 207 94 93 92 133 208 100 100 100
7 407 136 96 95 214 286 410 100 100 100
6 161 98 97 99 396 398 100 100 100
8 381 205 204 100 101 266 267 380 100 100 100
6 199 103 219 218 102 198 100 100 100
6 174 104 185 186 105 175 100 100 100
6 296 295 107 106 176 177 100 100 100
6 190 166 315 314 224 228 100 100 100
6 454 109 108 114 400 455 100 100 100
3 179 110 111 100 100 100
6 401 400 114 112 113 137 100 100 100
5 138 116 115 253 254 100 100 100
8 397 121 117 118 119 120 425 430 100 100 100
7 210 122 123 124 306 307 211 100 100 100
8 249 129 126 128 127 125 220 251 100 100 100
7 472 451 420 480 478 167 468 100 100 100
4 496 130 483 502 100 100 100
4 208 133 131 132 100 100 100
6 242 135 192 191 134 241 100 100 100
5 408 276 274 136 407 100 100 100
4 401 137 232 403 100 100 100
5 158 138 435 143 157 100 100 100
6 297 140 139 141 387 393 100 100 100
7 436 309 246 245 142 143 435 100 100 100
6 256 255 144 145 180 181 100 100 100
8 226 151 150 147 146 148 149 225 100 100 100
7 158 157 155 152 153 154 156 100 100 100
4 427 426 171 300 100 100 100
6 382 160 159 161 398 399 100 100 100
7 457 164 163 162 279 500 501 100 100 100
6 315 166 165 167 478 479 100 100 100
7 429 305 169 168 170 171 426 100 100 100
6 177 176 172 173 174 175 100 100 100
4 181 180 178 179 100 100 100
6 388 182 275 276 408 412 100 100 100
6 278 186 185 184 183 277 100 100 100
8 192 190 228 227 187 189 188 191 100 100 100
3 477 390 475 100 100 100
9 197 196 193 247 248 199 198 194 195 100 100 100
5 497 201 200 202 498 100 100 100
5 234 233 203 204 205 100 100 100
7 312 311 216 215 206 261 262 100 100 100
2 207 208 100 100 100
7 477 476 209 210 211 389 390 100 100 100
7 286 214 212 213 215 216 285 100 100 100
6 251 220 217 218 219 250 100 100 100
8 228 224 226 225 222 223 221 227 100 100 100
4 440 310 437 442 100 100 100
8 403 232 229 230 231 233 234 402 100 100 100
7 464 459 486 485 461 460 463 100 100 100
7 384 383 269 268 236 235 237 100 100 100
7 470 242 241 240 238 239 469 100 100 100
6 248 247 243 244 245 246 100 100 100
5 302 249 251 250 301 100 100 100
5 256 254 253 252 255 100 100 100
8 445 444 262 261 257 259 258 260 100 100 100
7 269 267 266 265 264 263 268 100 100 100
9 276 275 278 277 273 272 270 271 274 100 100 100
3 500 279 499 100 100 100
9 299 298 292 291 281 280 283 282 284 100 100 100
4 410 286 285 409 100 100 100
6 292 290 289 287 288 291 100 100 100
6 392 391 294 293 295 296 100 100 100
4 395 308 297 393 100 100 100
4 385 298 299 386 100 100 100
7 427 300 302 301 441 507 504 100 100 100
5 429 428 304 303 305 100 100 100
5 394 307 306 308 395 100 100 100
4 437 310 309 436 100 100 100
5 447 411 311 312 446 100 100 100
6 433 313 314 315 479 481 100 100 100
4 590 588 338 366 100 100 100
5 721 322 646 645 720 100 100 100
7 604 602 736 737 581 583 371 100 100 100
6 376 349 703 701 325 377 100 100 100
5 801 686 316 708 803 100 100 100
4 828 734 819 830 100 100 100
4 646 322 332 647 100 100 100
5 771 716 317 661 768 100 100 100
6 842 669 670 565 353 841 100 100 100
5 774 752 520 620 764 100 100 100
5 744 668 666 517 742 100 100 100
7 366 338 337 318 726 781 778 100 100 100
6 323 320 321 319 545 546 100 100 100
5 797 535 638 810 816 100 100 100
5 560 377 325 776 780 100 100 100
5 766 642 521 775 784 100 100 100
5 806 788 607 609 799 100 100 100
5 775 521 592 591 779 100 100 100
6 742 517 634 636 753 762 100 100 100
5 738 526 523 551 740 100 100 100
6 332 322 721 723 791 785 100 100 100
6 543 323 546 808 807 544 100 100 100
6 571 324 578 745 746 655 100 100 100
4 757 614 520 752 100 100 100
5 796 777 528 529 787 100 100 100
6 776 325 701 705 528 777 100 100 100
5 551 523 524 343 550 100 100 100
4 789 650 648 786 100 100 100
5 569 535 797 798 567 100 100 100
7 690 327 326 352 353 565 692 100 100 100
5 735 509 623 622 739 100 100 100
6 735 734 828 829 818 509 100 100 100
9 608 515 328 330 329 331 360 530 610 100 100 100
6 736 602 606 513 743 751 100 100 100
5 647 332 785 786 648 100 100 100
9 589 357 333 334 336 335 337 338 588 100 100 100
5 787 529 629 630 790 100 100 100
8 525 365 340 339 341 342 343 524 100 100 100
4 743 513 653 747 100 100 100
8 703 349 344 346 345 348 347 702 100 100 100
7 352 350 351 835 845 841 353 100 100 100
7 522 354 355 356 357 589 593 100 100 100
6 530 360 358 359 687 688 100 100 100
4 741 585 581 737 100 100 100
9 625 624 510 361 362 363 364 365 525 100 100 100
5 779 591 590 366 778 100 100 100
5 604 371 370 367 603 100 100 100
6 583 582 368 369 370 371 100 100 100
8 560 559 373 374 375 372 376 377 100 100 100
4 809 574 544 807 100 100 100
5 739 622 626 526 738 100 100 100
5 800 714 712 567 798 100 100 100
