ply
format ascii 1.0
comment converted from made-by-Polyhedron_join_facets_2
element vertex 512
property float x
property float y
property float z
element face 258
property list uchar uint vertex_indices
property uchar red
property uchar green
property uchar blue
end_header
-722 2146 -5410
-541 2150 -5411
2014 -2482 -5208
2081 -2445 -5407
-2921 -1141 -5224
-1540 2069 -5463
-2221 1807 -5392
2095 -2433 -5267
-1378 -2715 -5223
-317 2149 -5439
-861 2139 -5371
940 2038 -5378
2466 1272 -5424
2514 1194 -5266
1308 1967 -5323
2353 -2149 -5366
2368 -2127 -5219
-2110 -2524 -5296
-897 -2782 -5361
-2313 -2409 -5236
1491 1916 -5196
1315 1964 -5244
1450 1928 -5211
1319 1963 -5243
2668 -1346 -5169
2760 -473 -5286
2749 -662 -5276
2684 -1248 -5191
2707 -1084 -5223
2734 -857 -5258
2730 -903 -5253
2763 -323 -5286
2763 -172 -5280
-2815 778 -5095
-2783 906 -5072
1602 1879 -5152
2056 1669 -5235
1945 1730 -5221
2289 1488 -5233
2236 1538 -5239
1753 1821 -5188
1825 1788 -5201
2116 1630 -5240
2173 1589 -5241
1702 1843 -5177
1631 1870 -5160
1607 1877 -5154
2450 1293 -5238
2644 885 -5195
2515 1192 -5238
2550 1129 -5234
2606 998 -5217
2576 1073 -5228
2353 1420 -5228
2390 1375 -5233
2667 805 -5177
391 -339 -3260
2361 -878 -4746
313 -385 -3198
2579 -1720 -5155
2614 -1602 -5129
2230 -2293 -5171
2317 -2191 -5184
2423 -2039 -5188
2454 -1987 -5186
2495 -1915 -5182
2337 -2167 -5186
2368 -2125 -5189
2544 -1822 -5175
2536 -1839 -5177
263 -380 -3162
2611 -1528 -5097
270 -381 -3167
2011 -2483 -5171
2086 -2438 -5173
1654 -2650 -5128
1551 -2679 -5103
1923 -2531 -5164
1817 -2582 -5153
1677 -2642 -5133
1750 -2612 -5144
1463 -2699 -5080
1414 -2709 -5065
2145 -2383 -5163
2097 -2430 -5173
-123 -721 -3146
-120 -752 -3169
-2440 -2294 -5121
-2015 -2553 -5082
-2105 -2519 -5102
-2259 -2444 -5128
-2303 -2412 -5129
-1911 -2586 -5054
-2420 -2312 -5122
-2212 -2470 -5122
-2197 -2477 -5119
-2325 -2395 -5128
-2354 -2371 -5127
-129 -725 -3150
-2709 -1945 -5141
-2741 -1878 -5134
-2813 -1682 -5101
-2777 -1788 -5121
-2539 -2195 -5137
-2577 -2154 -5143
-2646 -2056 -5146
-2832 -1613 -5085
-2600 -2126 -5147
-2611 -2113 -5148
-2646 1294 -5156
-2544 1479 -5175
-2487 1550 -5172
-2727 1096 -5118
-2560 1457 -5175
-2595 1392 -5168
-2695 1181 -5136
-2661 1260 -5150
-2766 969 -5087
-2746 1040 -5106
-2485 1552 -5172
-2418 1625 -5164
-2781 912 -5071
-2780 909 -5069
-2060 1901 -5181
-2026 1918 -5177
-1925 1959 -5161
-1747 2016 -5123
-1827 1994 -5142
-1697 2027 -5109
-2380 1665 -5164
-2184 1825 -5184
-2115 1870 -5184
-2235 1789 -5182
-2261 1770 -5181
-2339 1702 -5171
-2275 1758 -5179
2328 1446 -5225
2340 1434 -5225
258 -380 -3159
2174 -2353 -5160
2152 -2376 -5161
-123 -719 -3144
-124 -717 -3143
-93 -368 -2975
258 -380 -3159
-2440 -2293 -5120
-2468 -2266 -5121
-117 -390 -2975
-124 -716 -3142
-2404 1640 -5161
-519 -350 -3168
-2384 1660 -5163
-116 -345 -2975
-108 -6 -3155
-140 -366 -2975
-495 -357 -3153
-105 28 -3179
-108 9 -3165
-120 21 -3176
-85 614 -3630
-211 368 -3453
-109 2 -3160
-117 15 -3171
-2842 -1572 -5074
-574 -358 -3205
-534 -354 -3177
-511 -355 -3162
-515 -354 -3164
-848 2139 -5325
215 2121 -5396
409 2104 -5385
-1182 2110 -5244
-796 2141 -5334
657 2076 -5359
-475 2149 -5377
778 2060 -5344
-50 2138 -5399
-252 2146 -5394
-572 2148 -5367
-670 2146 -5354
-285 2147 -5392
-370 2148 -5386
-893 2135 -5315
-1130 2115 -5257
1064 2015 -5292
942 2037 -5318
1185 1991 -5263
1189 1990 -5262
1419 1864 -5067
641 1626 -4582
-18 1518 -4334
-158 -2246 -4317
-776 -2333 -4496
-2847 611 -5126
-2947 -685 -5236
-2886 -1390 -5135
-2950 -292 -5248
-2951 -488 -5246
-2941 -121 -5240
-2938 -86 -5237
-2846 -1557 -5077
-2905 -1274 -5164
-2918 -1144 -5186
-2903 257 -5195
-2885 378 -5173
-2938 -897 -5219
-2934 -969 -5211
-2908 208 -5202
-2925 60 -5221
-2827 715 -5100
-2448 -339 -4552
-2762 764 -5011
-2544 231 -4698
-2844 -1564 -5074
-2586 -957 -4730
2725 454 -5227
2755 107 -5267
2762 -78 -5277
2739 323 -5245
2711 559 -5208
2689 695 -5178
2680 744 -5166
2752 169 -5263
2744 266 -5252
2763 -135 -5278
2678 753 -5163
2677 751 -5161
2378 54 -4757
2284 -406 -4630
1364 -2718 -5050
1344 -2709 -5036
463 -2383 -4527
-68 -2267 -4348
2635 -1518 -5128
2658 -1399 -5155
2340 -702 -4708
2626 -1555 -5117
2618 -1541 -5106
2672 -801 -5155
2326 -612 -4686
-1569 2054 -5124
-1340 2091 -5201
-1329 2093 -5204
-1641 2038 -5093
-1581 2010 -5050
-753 1687 -4565
-1215 2106 -5234
-66 1530 -4350
198 2125 -5529
485 2100 -5510
1451 1933 -5530
538 2094 -5508
844 2054 -5502
766 2065 -5502
1312 1969 -5516
1094 2013 -5504
966 2036 -5501
1161 2001 -5507
1197 1993 -5509
1437 1938 -5528
1411 1944 -5525
1330 1562 -5920
2062 1667 -5471
1931 1739 -5480
2234 1540 -5482
1730 1834 -5508
1872 1768 -5487
2110 1636 -5470
2167 1595 -5474
1650 1867 -5522
1621 1878 -5528
2264 1513 -5489
1547 1902 -5546
1331 1562 -5919
2650 871 -5488
2548 1135 -5446
2295 1483 -5481
2603 1008 -5461
2579 1069 -5452
2356 1418 -5464
2392 1374 -5456
2466 1272 -5446
2519 1187 -5444
2672 787 -5509
2666 817 -5501
2272 1505 -5489
2730 435 -5499
2757 78 -5507
2763 -74 -5516
2733 403 -5499
2717 529 -5501
2695 669 -5509
2764 -299 -5536
2764 -181 -5525
2751 197 -5502
2750 204 -5502
2677 764 -5516
2238 578 -5939
2666 -1361 -5505
2636 -1519 -5511
2760 -473 -5538
2749 -683 -5520
2688 -1224 -5503
2705 -1103 -5504
2746 -711 -5518
2729 -911 -5507
2762 -391 -5547
2759 -391 -5550
2352 -2152 -5428
2585 -1704 -5481
2613 -1611 -5509
2243 -2283 -5444
2288 -2229 -5436
2428 -2035 -5430
2382 -2106 -5428
2434 -2024 -5430
2511 -1888 -5441
2542 -1828 -5449
2526 -1861 -5444
2171 -2359 -5459
2245 -1454 -5879
2620 -1584 -5517
2261 -1452 -5868
2086 -2442 -5425
1616 -2669 -5429
1563 -2684 -5439
1911 -2541 -5414
1829 -2581 -5414
1666 -2652 -5423
1749 -2617 -5417
1984 -2502 -5417
2082 -2445 -5424
1463 -2709 -5460
2142 -2390 -5446
2115 -2416 -5435
2168 -2362 -5459
1305 -2319 -5868
634 -2802 -5446
520 -2806 -5449
1310 -2739 -5464
797 -2793 -5445
1024 -2775 -5448
1354 -2732 -5469
1196 -2756 -5455
1089 -2769 -5450
25 -2817 -5470
245 -2813 -5460
1401 -2722 -5475
1297 -2339 -5853
-1115 -2760 -5424
-231 -2817 -5477
-433 -2813 -5456
-1619 -2675 -5445
-1594 -2681 -5443
-1261 -2739 -5427
-1394 -2718 -5431
-495 -2811 -5450
-552 -2808 -5446
-1662 -2665 -5450
-738 -2796 -5435
-1018 -2772 -5424
-894 -2784 -5428
-178 -2817 -5483
-178 -2813 -5487
-2465 -2284 -5429
-2025 -2562 -5413
-2268 -2448 -5390
-1929 -2593 -5432
-2388 -2355 -5409
-2215 -2477 -5392
-2106 -2529 -5401
-1851 -2616 -5451
-2319 -2411 -5396
-2375 -2365 -5406
-2488 -2262 -5436
-1613 -2250 -5852
-1792 -2632 -5466
-1610 -2262 -5844
-2713 -1967 -5385
-2760 -1870 -5388
-2828 -1698 -5407
-2800 -1776 -5396
-2530 -2219 -5425
-2593 -2149 -5404
-2667 -2047 -5387
-2850 -1624 -5421
-2623 -2113 -5395
-2645 -2084 -5390
-2499 -2251 -5436
-2958 -706 -5426
-2899 -1410 -5408
-2963 -301 -5464
-2963 -461 -5447
-2942 -1015 -5409
-2873 -1531 -5420
-2923 -1236 -5404
-2919 -1274 -5403
-2951 -864 -5416
-2944 -987 -5410
-2858 -1594 -5428
-2870 588 -5448
-2959 -189 -5477
-2946 -16 -5464
-2835 779 -5453
-2817 857 -5459
-2915 278 -5451
-2901 382 -5449
-2929 156 -5455
-2939 59 -5460
-2959 -202 -5479
-2953 -203 -5485
-2656 1303 -5420
-2557 1477 -5418
-2518 1527 -5427
-2395 1663 -5464
-2742 1102 -5445
-2576 1450 -5415
-2618 1376 -5416
-2707 1190 -5432
-2682 1246 -5425
-2776 1007 -5463
-2770 1025 -5459
-2442 1613 -5448
-2441 1615 -5449
-2333 1720 -5488
-2786 971 -5472
-2392 849 -5863
-2071 1901 -5442
-2019 1928 -5440
-1923 1967 -5445
-1723 2030 -5474
-1843 1996 -5454
-1669 2043 -5485
-2131 1868 -5447
-2275 1769 -5473
-2222 1808 -5461
-2326 1727 -5488
-2314 1737 -5485
-2326 1727 -5489
-1470 1632 -5930
-1275 2106 -5476
-326 2150 -5511
-48 2141 -5543
-212 2147 -5524
-720 2147 -5482
-537 2152 -5492
-1540 2070 -5490
-1315 2102 -5477
-1064 2126 -5474
-874 2141 -5475
-16 2139 -5548
-16 2135 -5552
-1610 2056 -5498
-1469 1635 -5928
-67 1179 -6213
1475 803 -6211
1328 1557 -5923
1499 778 -6211
1812 -341 -6210
2212 598 -5950
2230 579 -5945
1810 -416 -6210
1412 -1537 -6211
2238 -1451 -5884
1403 -1546 -6211
-13 -1788 -6213
1302 -2311 -5873
-130 -1784 -6213
-1605 -1480 -6215
-1603 -2232 -5865
-1612 -1473 -6215
-1908 -254 -6216
-2416 -1394 -5875
-2418 -1389 -5874
-2418 -1392 -5874
-1908 -247 -6216
-2386 851 -5867
-2373 865 -5872
-149 1182 -6213
-1465 1620 -5937
-1597 896 -6215
-1598 898 -6214
-1380 -2714 -5212
-1374 -2715 -5214
-951 -2775 -5301
-988 -2772 -5296
-857 -2784 -5311
654 -2795 -5238
441 -2804 -5269
830 -2785 -5207
969 -2773 -5177
-235 -2814 -5329
-364 -2812 -5333
1180 -2749 -5119
1092 -2761 -5146
38 -2813 -5311
218 -2810 -5294
-1842 -2605 -5035
-1839 -2606 -5036
-1772 -2584 -4991
-1143 -2751 -5267
-1631 -2662 -5129
-1553 -2680 -5157
-1290 -2729 -5235
-500 -2808 -5334
-579 -2804 -5331
-1711 -2641 -5094
-728 -2794 -5322
-1368 -2496 -4800
1343 -2722 -5056
1300 -2730 -5075
524 -2582 -4843
25 184 185 175 173 170 169 176 177 180 181 174 178 179 172 168 182 183 171 246 247 190 189 188 187 186 100 100 100
22 210 212 211 209 193 204 203 207 208 199 198 196 197 194 205 206 202 201 195 200 213 214 100 100 100
16 216 222 223 218 215 219 220 221 225 226 227 228 239 238 224 217 100 100 100
7 143 144 138 137 136 153 152 100 100 100
8 143 147 148 142 141 140 139 144 100 100 100
6 147 154 155 146 145 148 100 100 100
11 153 161 162 151 149 150 167 166 155 154 152 100 100 100
8 454 478 479 439 453 451 261 456 100 100 100
8 458 460 297 307 322 320 463 461 100 100 100
9 465 466 336 348 363 377 375 469 467 100 100 100
6 410 426 476 475 471 473 100 100 100
7 235 237 236 233 234 238 239 100 100 100
8 240 243 244 245 247 246 242 241 100 100 100
4 156 189 190 159 100 100 100
6 35 188 189 156 157 46 100 100 100
15 44 45 46 157 161 153 136 38 39 43 42 36 37 41 40 100 100 100
15 56 226 225 55 48 51 52 50 49 47 54 53 137 138 70 100 100 100
3 56 227 226 100 100 100
6 56 70 72 58 228 227 100 100 100
5 57 235 239 228 58 100 100 100
4 57 58 72 71 100 100 100
19 60 236 237 71 72 70 138 144 139 61 62 66 67 63 64 65 69 68 59 100 100 100
17 73 74 84 83 140 141 85 230 229 82 81 76 75 79 80 78 77 100 100 100
4 85 86 231 230 100 100 100
4 86 191 232 231 100 100 100
7 85 141 142 98 192 191 86 100 100 100
14 101 102 100 99 105 108 107 104 103 146 155 166 163 106 100 100 100
3 164 210 214 100 100 100
4 164 165 212 210 100 100 100
6 122 211 212 165 167 150 100 100 100
16 117 121 122 150 149 120 119 111 110 113 114 109 116 115 112 118 100 100 100
18 158 244 243 128 126 127 125 124 123 131 130 132 133 135 134 129 151 162 100 100 100
4 158 160 245 244 100 100 100
5 159 190 247 245 160 100 100 100
7 163 166 167 165 164 214 213 100 100 100
18 255 257 258 254 260 259 250 272 273 261 451 450 248 249 251 253 252 256 100 100 100
12 262 267 268 264 271 273 272 270 269 265 266 263 100 100 100
16 297 460 459 285 276 279 280 281 282 275 278 277 274 284 283 296 100 100 100
14 286 289 295 294 287 288 293 292 306 307 297 296 291 290 100 100 100
12 300 301 304 305 303 302 298 299 321 322 307 306 100 100 100
15 317 318 316 315 313 314 308 312 311 319 320 322 321 310 309 100 100 100
16 333 334 323 331 330 326 327 329 328 324 325 332 347 348 336 335 100 100 100
14 339 343 344 341 340 337 338 346 345 362 363 348 347 342 100 100 100
17 357 359 361 360 349 354 355 353 352 358 376 377 363 362 350 351 356 100 100 100
14 375 377 376 371 367 365 370 369 366 372 373 368 364 374 100 100 100
14 382 383 386 387 384 378 379 381 380 385 399 474 472 388 100 100 100
15 389 392 391 409 410 473 474 399 394 390 396 395 393 398 397 100 100 100
13 401 402 408 407 405 406 400 403 404 425 426 410 409 100 100 100
18 415 418 419 411 417 416 412 413 422 423 414 424 477 476 426 425 420 421 100 100 100
15 436 437 434 435 433 427 428 429 431 430 432 452 453 439 438 100 100 100
14 440 448 449 444 445 441 443 442 450 451 453 452 446 447 100 100 100
3 454 456 455 100 100 100
4 459 460 458 457 100 100 100
3 461 463 462 100 100 100
3 464 466 465 100 100 100
3 467 469 468 100 100 100
5 470 472 474 473 471 100 100 100
5 476 477 481 480 475 100 100 100
4 480 481 479 478 100 100 100
15 454 455 457 458 461 462 464 465 467 468 470 471 475 480 478 100 100 100
4 143 152 154 147 100 100 100
5 169 248 450 442 176 100 100 100
5 25 300 306 292 31 100 100 100
5 196 198 401 409 391 100 100 100
4 88 365 367 92 100 100 100
4 126 128 432 430 100 100 100
4 101 106 385 380 100 100 100
4 40 265 269 44 100 100 100
6 129 134 436 438 424 414 100 100 100
4 59 68 317 309 100 100 100
4 112 115 418 415 100 100 100
8 61 139 140 83 333 335 319 311 100 100 100
8 87 145 146 103 382 388 374 364 100 100 100
4 75 324 328 79 100 100 100
4 48 274 277 51 100 100 100
6 38 136 137 53 279 276 100 100 100
3 10 182 168 100 100 100
4 186 257 255 184 100 100 100
3 4 393 395 100 100 100
4 215 286 290 219 100 100 100
5 193 209 33 403 400 100 100 100
4 24 298 302 27 100 100 100
4 99 378 384 105 100 100 100
4 123 124 428 427 100 100 100
4 63 313 315 64 100 100 100
5 2 73 77 326 330 100 100 100
4 42 267 262 36 100 100 100
4 12 47 49 13 100 100 100
4 110 412 416 113 100 100 100
4 90 366 369 94 100 100 100
3 1 178 174 100 100 100
4 173 251 249 170 100 100 100
4 216 287 294 222 100 100 100
4 194 197 392 389 100 100 100
3 5 240 241 100 100 100
4 203 405 407 207 100 100 100
4 29 304 301 26 100 100 100
4 20 250 259 22 100 100 100
3 6 132 130 100 100 100
4 195 390 394 200 100 100 100
4 114 417 411 109 100 100 100
6 34 121 117 420 425 404 100 100 100
4 102 381 379 100 100 100 100
4 127 431 429 125 100 100 100
3 19 91 96 100 100 100
4 111 119 422 413 100 100 100
4 76 81 332 325 100 100 100
4 39 264 268 43 100 100 100
4 37 263 266 41 100 100 100
5 15 66 62 312 308 100 100 100
6 233 236 60 310 321 299 100 100 100
5 220 291 296 283 221 100 100 100
4 52 278 275 50 100 100 100
4 78 80 329 327 100 100 100
4 104 107 386 383 100 100 100
3 17 89 95 100 100 100
3 11 256 252 100 100 100
5 12 281 280 54 47 100 100 100
4 171 183 448 440 100 100 100
4 193 400 406 204 100 100 100
5 217 224 32 293 288 100 100 100
4 194 389 397 205 100 100 100
6 7 84 74 3 331 323 100 100 100
4 28 303 305 30 100 100 100
6 10 168 172 0 444 449 100 100 100
5 177 443 441 9 180 100 100 100
5 14 21 23 260 254 100 100 100
4 218 289 286 215 100 100 100
4 195 201 396 390 100 100 100
4 65 316 318 69 100 100 100
4 36 262 263 37 100 100 100
4 196 391 392 197 100 100 100
5 24 234 233 299 298 100 100 100
4 55 284 274 48 100 100 100
4 15 308 314 16 100 100 100
4 87 364 368 93 100 100 100
4 198 199 402 401 100 100 100
4 169 170 249 248 100 100 100
4 99 100 379 378 100 100 100
4 123 427 433 131 100 100 100
4 125 429 428 124 100 100 100
4 101 380 381 102 100 100 100
3 7 323 334 100 100 100
4 133 434 437 135 100 100 100
4 126 430 431 127 100 100 100
4 208 408 402 199 100 100 100
4 26 301 300 25 100 100 100
5 13 49 50 275 282 100 100 100
5 17 370 365 88 89 100 100 100
6 38 276 285 271 264 39 100 100 100
4 2 3 74 73 100 100 100
7 128 243 240 5 446 452 432 100 100 100
4 34 404 403 33 100 100 100
4 59 309 310 60 100 100 100
5 171 440 447 242 246 100 100 100
5 90 91 19 372 366 100 100 100
4 109 411 419 116 100 100 100
7 20 35 46 45 270 272 250 100 100 100
4 76 325 324 75 100 100 100
4 110 111 413 412 100 100 100
6 129 414 423 120 149 151 100 100 100
5 206 398 393 4 202 100 100 100
3 0 172 179 100 100 100
4 173 175 253 251 100 100 100
4 40 41 266 265 100 100 100
4 217 288 287 216 100 100 100
6 1 174 181 9 441 445 100 100 100
4 112 415 421 118 100 100 100
4 51 277 278 52 100 100 100
4 218 223 295 289 100 100 100
4 61 311 312 62 100 100 100
5 175 185 11 252 253 100 100 100
4 42 43 268 267 100 100 100
5 6 130 131 433 435 100 100 100
4 78 327 326 77 100 100 100
4 113 416 417 114 100 100 100
4 103 104 383 382 100 100 100
4 219 290 291 220 100 100 100
3 14 254 258 100 100 100
4 79 328 329 80 100 100 100
4 176 442 443 177 100 100 100
4 105 384 387 108 100 100 100
4 54 280 279 53 100 100 100
7 200 394 399 385 106 163 213 100 100 100
5 16 314 313 63 67 100 100 100
6 0 179 178 1 445 444 100 100 100
4 93 368 373 97 100 100 100
4 2 330 331 3 100 100 100
5 82 342 347 332 81 100 100 100
5 4 395 396 201 202 100 100 100
5 5 241 242 447 446 100 100 100
4 64 315 316 65 100 100 100
4 27 302 303 28 100 100 100
5 6 435 434 133 132 100 100 100
5 7 334 333 83 84 100 100 100
3 9 181 180 100 100 100
5 10 449 448 183 182 100 100 100
5 11 185 184 255 256 100 100 100
4 12 13 282 281 100 100 100
6 14 258 257 186 187 21 100 100 100
4 204 406 405 203 100 100 100
4 44 269 270 45 100 100 100
4 29 30 305 304 100 100 100
5 221 283 284 55 225 100 100 100
4 22 259 260 23 100 100 100
4 15 16 67 66 100 100 100
5 17 95 94 369 370 100 100 100
4 205 397 398 206 100 100 100
4 115 116 419 418 100 100 100
4 118 421 420 117 100 100 100
4 134 135 437 436 100 100 100
4 31 292 293 32 100 100 100
4 68 69 318 317 100 100 100
5 19 96 97 373 372 100 100 100
4 207 407 408 208 100 100 100
4 107 108 387 386 100 100 100
4 120 423 422 119 100 100 100
4 222 294 295 223 100 100 100
4 235 57 71 237 100 100 100
7 160 158 162 161 157 156 159 100 100 100
7 23 21 187 188 35 20 22 100 100 100
12 234 24 27 28 30 29 26 25 31 32 224 238 100 100 100
6 121 34 33 209 211 122 100 100 100
8 455 456 261 273 271 285 459 457 100 100 100
8 336 466 464 462 463 320 319 335 100 100 100
7 468 469 375 374 388 472 470 100 100 100
6 439 479 481 477 424 438 100 100 100
30 508 511 509 510 493 494 490 489 487 488 496 495 491 492 504 505 507 486 484 485 500 503 483 482 502 501 506 498 497 499 -1 0 0
5 508 511 232 191 192 100 0 0
6 511 509 229 230 231 232 100 0 0
4 499 508 192 98 100 0 0
17 497 499 98 142 148 145 87 93 97 96 91 90 94 95 89 88 92 100 0 0
5 495 491 350 362 345 100 0 0
4 500 503 354 349 100 0 0
4 510 493 343 339 100 0 0
4 489 487 337 340 100 0 0
3 486 484 18 100 0 0
4 501 506 358 352 100 0 0
4 492 504 356 351 100 0 0
5 482 502 353 355 8 100 0 0
4 488 496 346 338 100 0 0
4 494 490 341 344 100 0 0
4 505 507 359 357 100 0 0
4 487 488 338 337 100 0 0
6 509 510 339 342 82 229 100 0 0
4 485 500 349 360 100 0 0
5 498 497 92 367 371 100 0 0
4 490 489 340 341 100 0 0
4 491 492 351 350 100 0 0
3 483 482 8 100 0 0
4 502 501 352 353 100 0 0
4 493 494 344 343 100 0 0
5 503 483 8 355 354 100 0 0
4 504 505 357 356 100 0 0
5 506 498 371 376 358 100 0 0
4 496 495 345 346 100 0 0
5 507 486 18 361 359 100 0 0
5 484 485 360 361 18 100 0 0
