ply
format ascii 1.0
comment converted from made-by-Polyhedron_join_facets_2
element vertex 584
property float x
property float y
property float z
element face 294
property list uchar uint vertex_indices
property uchar red
property uchar green
property uchar blue
end_header
-1151 2483 -984
-1447 2175 -807
2750 2173 -913
1846 3070 -861
2392 2659 -867
-1590 -2908 -978
-538 2921 -859
-1802 1750 -930
-1100 2528 -901
-2649 -87 -704
-2725 -485 -920
2840 1949 -879
1712 3133 -826
-2698 -1384 -927
-2725 -1213 -987
724 3302 -727
2357 2696 -911
2311 2733 -690
2287 2763 -941
2919 1631 -913
-2658 -1565 -923
2583 2442 -948
2581 2444 -927
-71 3142 -979
-165 3109 -877
1211 3276 -738
1413 -2349 -836
653 -2899 -823
-1820 1729 -875
-1921 1573 -893
-1867 1657 -893
-2176 1122 -847
-2292 893 -847
-1013 2595 -835
2951 786 -893
2961 980 -942
2958 890 -942
-120 3126 -802
-163 3111 -811
2256 -1236 -834
1573 3176 -537
1688 3129 -529
1639 3151 -540
1589 3171 -540
1174 3267 -478
1228 3259 -486
2803 -12 -721
2823 64 -708
-1590 -2908 -977
-1709 -2838 -977
-1438 -2957 -722
110 3201 -748
-7 3163 -748
-2402 -2144 -937
-2495 -1984 -877
-2533 -1905 -815
-2515 -1944 -849
2396 -982 -818
2312 -1134 -785
-517 2933 -823
-372 3012 -823
-282 3055 -754
-2750 -953 -869
-2750 -905 -836
2927 577 -824
2916 504 -785
2949 767 -873
1541 -2211 -783
1694 -2041 -876
2191 2837 -637
2068 2895 -462
-2649 -89 -690
-2604 -30 -464
-2462 497 -762
-2415 616 -807
654 -2897 -762
528 -2956 -762
269 3242 -695
225 3231 -695
817 -2807 -744
986 -2700 -744
758 -2839 -703
1035 3286 -494
1131 3272 -465
2954 1378 -813
2953 1391 -819
2934 1560 -858
2931 1578 -858
2959 1317 -755
-1666 1926 -780
-1720 1861 -802
-1765 1803 -802
2422 2626 -779
2582 2435 -715
2525 2508 -779
2550 2478 -763
2593 2420 -691
-1478 -2933 -718
-724 2795 -670
-839 2709 -632
-621 2860 -670
-640 -3180 -891
-663 -3154 -667
-2749 -865 -777
1022 -2674 -719
1130 3261 -419
-1994 1450 -879
-1952 1522 -879
-2118 1228 -818
1730 3108 -510
1642 3119 -400
706 3300 -661
593 3293 -661
-1389 -3003 -943
-1474 -2966 -943
-1370 -3010 -933
-1311 -3029 -862
-1496 -2953 -913
-1424 -2967 -732
1453 3219 -626
1401 3232 -626
1352 3241 -597
1545 3185 -526
1274 3251 -486
1497 3191 -467
1319 3237 -467
2891 368 -682
2840 139 -682
2896 397 -678
-2178 -2455 -998
-2279 -2325 -998
-2348 -2223 -937
-478 -3129 -515
-918 -3087 -621
-425 -3126 -489
2660 2328 -712
2704 2248 -712
2641 2353 -691
2652 2309 -635
-2536 290 -729
-2563 205 -694
-2595 93 -594
-2587 105 -560
-2477 455 -729
-2468 437 -560
438 3274 -690
279 3244 -690
534 3286 -624
532 3278 -553
-2603 -30 -462
-2698 -313 -733
-2688 -263 -714
-2681 -233 -690
-2686 -327 -573
-874 -3150 -998
-764 -3165 -933
-863 -3152 -998
-934 -3112 -694
-728 -3169 -891
-782 -3141 -694
1965 2991 -610
2166 2858 -638
2103 2904 -665
1989 2978 -634
2054 2938 -665
2167 2857 -637
2041 2925 -490
-1803 -2778 -976
-1759 -2805 -957
1409 -2351 -743
1503 -2252 -743
1473 -2261 -563
-2704 -1341 -731
-297 3042 -710
-463 2942 -614
-1456 2164 -776
-1599 2000 -711
-1600 1989 -655
-2729 -1169 -823
-2719 -1252 -790
-2740 -1061 -823
-2705 -1336 -729
-2704 -1319 -700
2310 2734 -669
2234 2799 -626
2235 2781 -556
2340 2703 -669
-1064 -3096 -793
-1229 -3055 -857
-1184 -3068 -857
-1247 -3034 -725
-1293 -3033 -829
-1307 -3019 -744
-1056 -3097 -785
-1037 -3095 -725
1143 -2586 -730
1150 -2580 -734
1281 -2472 -734
1132 -2594 -719
1341 -2415 -671
1340 -2412 -634
2154 -1406 -873
2141 -1427 -878
2156 -1403 -871
-504 -3191 -923
-407 -3191 -891
-561 -3188 -901
-593 -3184 -872
-582 -3172 -748
1818 3067 -516
1816 3068 -515
1808 3071 -510
1839 3027 -401
1927 3008 -540
1994 2957 -490
2497 2520 -631
2254 2763 -561
2371 2664 -631
888 3298 -586
1033 3286 -494
933 3279 -441
802 3298 -586
765 3288 -510
-2647 -1598 -748
-2584 -1789 -864
-2630 -1660 -813
-2533 -1904 -815
-2649 -1590 -731
-2646 -1594 -719
1952 -1704 -912
1831 -1870 -912
1781 -1936 -882
1776 -1942 -876
1788 -1908 -749
2004 -1628 -878
1907 -1745 -749
-2740 -643 -806
-2743 -686 -780
-2729 -519 -806
-2719 -448 -759
-2743 -688 -777
-2719 -563 -560
-2731 -685 -565
-2716 -426 -733
-2714 -509 -573
-2172 -2461 -988
2692 -347 -842
2680 -379 -833
2765 -140 -812
2734 -230 -842
2801 -18 -721
-2713 -1155 -625
-2730 -946 -592
2511 -753 -875
2579 -610 -875
2439 -898 -818
2547 -648 -710
2667 -411 -814
2665 -411 -781
-2327 819 -835
-2311 854 -835
-2369 722 -807
-2440 496 -542
-1876 1592 -607
2731 -203 -664
2760 -119 -664
2516 2473 -590
2424 2571 -561
2488 2509 -584
2768 2123 -726
2804 2040 -726
2734 2189 -700
-1765 1799 -779
-1616 1963 -624
-1834 1659 -607
1810 3026 -350
1837 3000 -329
-2647 -1463 -550
-2640 -1508 -568
-1391 -2946 -656
-1236 -3026 -697
-1008 -3055 -609
292 3249 -918
134 3209 -996
1831 3081 -930
1794 3100 -939
1943 3016 -959
1994 2984 -987
416 3273 -896
598 3296 -896
376 3265 -918
1503 3214 -955
1574 3191 -943
1630 3171 -943
1734 3130 -961
1738 3128 -963
2294 -1139 -694
2535 -662 -681
1663 -2037 -598
1480 -2251 -553
2815 123 -582
1986 -1609 -659
2054 -1511 -669
2705 -252 -646
2814 121 -582
-2096 1214 -574
-2594 -13 -452
-1389 2180 -466
-1353 2216 -456
-2234 940 -565
-2436 504 -538
-1971 1423 -569
-1614 1940 -525
-1765 1738 -550
2941 846 -699
2958 1318 -735
2896 425 -648
2815 126 -581
765 -2825 -635
1016 -2662 -616
1230 -2497 -584
1173 -2545 -595
1416 -2302 -529
69 60 1142
399 -130 945
-2735 -827 -563
-2733 -782 -561
-2668 -1322 -542
-2734 -848 -563
-2647 -1439 -534
-2588 -24 -445
55 52 1142
-902 2647 -569
-917 2635 -566
-183 3073 -610
-462 2942 -613
-1343 2223 -451
68 74 1142
54 68 1142
-296 258 938
-430 -3089 -448
-1222 -2141 292
2896 1735 -724
2880 1800 -719
2835 1955 -704
2916 1649 -729
2684 2251 -635
2604 2312 -590
2829 1969 -702
2723 2188 -655
2924 1581 -728
-19 3136 -601
221 3211 -579
959 3271 -416
1072 3253 -376
476 3266 -542
394 3252 -556
-121 3097 -606
778 1335 629
1116 1926 385
-1412 -2850 -507
-1234 -2152 285
1702 3077 -347
1726 3063 -340
1803 2991 -285
1195 3185 -304
2014 2908 -400
1897 2962 -336
2332 2644 -522
1806 2982 -276
-2466 -1968 -723
-2556 -1821 -719
-2542 -1860 -734
-2632 -1529 -568
-2612 -1500 -515
-2316 -2030 -571
-56 -3157 -966
-192 -3175 -904
-146 -3121 -544
374 -3027 -886
245 -3078 -967
483 -2975 -749
447 -2973 -628
-2284 -2280 -842
-2278 -2294 -853
-2129 -2255 -571
-1675 -2524 -291
-1676 -2167 19
-1609 -2530 -238
-1453 -2208 151
-1787 -2130 -45
-1807 -2163 -91
-2378 -1718 -383
-2266 -1958 -440
-287 -3184 -880
-380 -3130 -504
-396 -3191 -880
-484 -3175 -748
-238 -3179 -871
-153 -3122 -544
-1099 2529 -897
-1065 2555 -855
-1081 2499 -566
-1335 2281 -706
-1276 2308 -508
-433 -3114 -475
-1047 -3008 -553
-430 -3089 -448
-1141 -2963 -534
-868 -2612 -72
-1548 -2760 -481
-1542 -2736 -432
-1622 -2570 -285
-1674 -2525 -291
30 -3137 -975
190 -3096 -975
-31 -3151 -961
71 -3084 -584
206 -3091 -967
159 -3063 -597
-2046 -2588 -995
-1610 -2867 -789
-1679 -2835 -846
-2073 -2561 -988
-2182 -2436 -933
-2204 -2400 -902
-1574 -2758 -518
-2074 -2462 -799
2271 2439 -390
1512 2675 68
1534 2808 -1
2170 2621 -390
1664 2886 -127
1491 3218 -962
1743 3123 -986
1216 3282 -866
1115 3294 -866
1269 3273 -886
1265 3273 -884
1357 3252 -962
942 3307 -907
761 3306 -912
790 3307 -907
677 3301 -941
981 3305 -919
647 3291 -998
-1183 2452 -1000
-1293 2342 -1000
-1148 2485 -1000
-1484 2139 -1000
-2178 -2456 -1000
2750 2178 -1000
-2748 -756 -1000
-2747 -732 -1000
2404 2645 -1000
1588 -2164 -1000
1632 -2115 -1000
-2408 -2136 -1000
-1526 2091 -1000
-1747 1818 -1000
-1681 1904 -1000
-1598 -2904 -1000
-1587 -2910 -1000
-2488 -2001 -1000
-568 2903 -1000
-669 2843 -1000
-875 -3150 -1000
-1043 -3112 -1000
2932 658 -1000
2918 548 -1000
480 -2985 -1000
459 -2993 -1000
-1809 1733 -1000
-63 -3157 -1000
2851 1916 -1000
2889 1766 -1000
2871 1847 -1000
2869 1857 -1000
2956 1028 -1000
2951 861 -1000
-1004 2604 -1000
-846 2727 -1000
-804 2758 -1000
-2631 -12 -1000
-2650 -85 -1000
-2692 -270 -1000
-2691 -269 -1000
-2725 -482 -1000
-222 -3177 -1000
-295 -3184 -1000
2833 1972 -1000
-658 -3181 -1000
-600 -3186 -1000
-2279 -2326 -1000
-2689 -1432 -1000
-2701 -1366 -1000
-2725 -1213 -1000
-362 3016 -1000
-1708 -2840 -1000
2950 1220 -1000
2667 2328 -1000
-1145 -3086 -1000
2330 2724 -1000
2293 2759 -1000
2914 1611 -1000
2831 96 -1000
2837 122 -1000
-2666 -1533 -1000
-2657 -1566 -1000
2591 2432 -1000
-58 3146 -1000
-227 3080 -1000
1413 -2350 -1000
1425 -2338 -1000
656 -2901 -1000
638 -2910 -1000
-1928 1554 -1000
-1878 1632 -1000
-2200 1070 -1000
-2299 876 -1000
2292 -1167 -1000
-2535 -1907 -1000
-2522 -1933 -1000
2377 -1011 -1000
-2748 -978 -1000
2888 357 -1000
-2474 471 -1000
-2428 585 -1000
808 -2817 -1000
965 -2717 -1000
2944 1320 -1000
2925 1523 -1000
-2022 1394 -1000
-1395 -3002 -1000
-1481 -2964 -1000
-1353 -3019 -1000
-1290 -3041 -1000
2874 286 -1000
-2536 296 -1000
-2585 145 -1000
-775 -3166 -1000
-863 -3152 -1000
2173 2858 -1000
2060 2940 -1000
-1910 -2706 -1000
-1801 -2781 -1000
-1206 -3068 -1000
1129 -2598 -1000
1156 -2578 -1000
1279 -2475 -1000
2175 -1365 -1000
2079 -1516 -1000
-518 -3192 -1000
-418 -3192 -1000
-2582 -1798 -1000
-2625 -1679 -1000
1949 -1707 -1000
1834 -1866 -1000
1774 -1943 -1000
-2743 -671 -1000
2692 -328 -1000
2648 -438 -1000
2783 -67 -1000
2761 -136 -1000
2488 -794 -1000
2561 -640 -1000
-2339 790 -1000
2804 2052 -1000
190 -3095 -1000
131 3208 -1000
2008 2975 -1000
-2047 -2587 -1000
405 3261 -1000
262 -3071 -1000
31 -3136 -1000
-2008 -2623 -1000
-1932 -2690 -1000
1505 3206 -1000
1758 3113 -1000
1736 3123 -1000
1334 3250 -1000
1010 3291 -1000
643 3291 -1000
649 3291 -1000
10 323 324 317 316 314 315 350 359 358 337 100 100 100
14 318 319 321 320 322 324 323 331 341 340 378 417 419 382 100 100 100
16 387 389 361 341 331 338 339 330 326 325 328 327 329 374 392 390 100 100 100
10 334 335 332 333 336 339 338 337 358 357 100 100 100
12 298 301 302 296 297 303 304 300 317 324 322 299 100 100 100
12 306 330 339 336 308 307 312 313 311 305 309 310 100 100 100
4 323 337 338 331 100 100 100
5 3 284 285 210 209 100 100 100
6 145 288 290 282 77 146 100 100 100
6 25 435 436 82 83 44 100 100 100
6 15 441 443 289 112 111 100 100 100
6 119 291 433 439 437 120 100 100 100
6 4 16 17 183 186 92 100 100 100
3 12 42 41 100 100 100
6 15 111 221 218 440 442 100 100 100
4 2 136 271 269 100 100 100
6 25 45 123 121 438 435 100 100 100
4 3 209 213 160 100 100 100
5 3 160 163 286 284 100 100 100
5 145 147 112 289 288 100 100 100
5 17 18 69 184 183 100 100 100
4 40 43 293 292 100 100 100
6 218 219 82 436 444 440 100 100 100
5 51 78 77 282 283 100 100 100
3 14 179 178 100 100 100
3 22 95 93 100 100 100
5 119 122 40 292 291 100 100 100
8 210 285 295 294 12 41 109 211 100 100 100
3 10 238 239 100 100 100
5 12 294 293 43 42 100 100 100
3 15 442 441 100 100 100
4 164 287 286 163 100 100 100
4 21 94 95 22 100 100 100
4 24 38 37 23 100 100 100
4 120 437 438 121 100 100 100
3 25 44 45 100 100 100
5 409 407 340 341 361 100 100 100
12 429 359 350 345 342 343 344 348 349 346 347 428 100 100 100
12 430 365 354 353 355 356 352 351 357 358 359 429 100 100 100
5 393 375 385 386 391 100 100 100
8 409 361 389 388 412 411 360 408 100 100 100
7 369 364 363 362 365 430 432 100 100 100
6 432 431 368 366 367 369 100 100 100
8 393 392 374 373 371 372 370 375 100 100 100
7 399 398 377 376 416 417 378 100 100 100
6 419 418 380 379 381 382 100 100 100
7 413 386 385 383 384 425 427 100 100 100
3 389 387 388 100 100 100
4 393 391 390 392 100 100 100
6 397 396 394 398 399 395 100 100 100
5 404 402 401 400 403 100 100 100
5 409 408 406 405 407 100 100 100
6 427 426 410 411 412 413 100 100 100
6 419 417 416 414 415 418 100 100 100
5 432 430 429 428 431 100 100 100
6 395 134 132 102 208 397 100 100 100
8 91 28 30 29 107 263 274 272 100 100 100
6 280 279 50 118 192 190 100 100 100
8 367 366 70 166 214 212 275 276 100 100 100
4 385 375 370 383 100 100 100
4 298 233 235 301 100 100 100
6 108 31 32 260 309 305 100 100 100
5 329 327 251 182 277 100 100 100
5 159 102 132 133 157 100 100 100
5 149 72 153 244 241 100 100 100
6 402 333 332 99 33 401 100 100 100
7 66 34 36 35 88 315 314 100 100 100
8 52 37 38 61 173 334 357 351 100 100 100
4 312 307 177 273 100 100 100
6 411 410 97 50 279 360 100 100 100
6 185 70 366 368 267 216 100 100 100
7 310 262 144 142 72 149 306 100 100 100
5 302 203 39 58 296 100 100 100
8 109 41 42 43 40 122 124 110 100 100 100
5 297 256 258 264 303 100 100 100
5 320 200 171 299 322 100 100 100
6 123 45 44 83 105 125 100 100 100
7 265 250 46 47 127 300 304 100 100 100
6 266 138 137 96 215 268 100 100 100
9 118 50 97 421 422 168 49 48 117 100 100 100
4 373 278 228 371 100 100 100
5 352 78 51 52 351 100 100 100
10 56 54 53 131 384 383 370 372 226 55 100 100 100
5 353 220 222 148 355 100 100 100
6 296 58 57 255 256 297 100 100 100
6 173 61 60 59 100 174 100 100 100
7 325 103 63 62 180 252 328 100 100 100
6 128 65 64 66 314 316 100 100 100
8 299 171 170 67 68 232 233 298 100 100 100
6 166 70 185 184 69 165 100 100 100
6 141 71 152 153 72 142 100 100 100
6 262 261 74 73 143 144 100 100 100
6 157 133 281 280 190 194 100 100 100
6 381 76 75 81 318 382 100 100 100
5 356 146 77 78 352 100 100 100
6 319 318 81 79 80 104 100 100 100
7 354 105 83 82 219 220 353 100 100 100
8 315 88 84 85 86 87 345 350 100 100 100
7 176 89 90 91 272 273 177 100 100 100
8 215 96 93 95 94 92 186 217 100 100 100
7 399 378 340 407 405 134 395 100 100 100
4 421 97 410 426 100 100 100
6 335 174 100 98 99 332 100 100 100
6 208 102 159 158 101 207 100 100 100
5 326 242 240 103 325 100 100 100
4 319 104 198 321 100 100 100
7 125 105 354 365 362 110 124 100 100 100
6 263 107 106 108 305 311 100 100 100
7 363 275 212 211 109 110 362 100 100 100
6 222 221 111 112 147 148 100 100 100
8 192 118 117 114 113 115 116 191 100 100 100
7 125 124 122 119 120 121 123 100 100 100
4 347 346 138 266 100 100 100
6 300 127 126 128 316 317 100 100 100
7 384 131 130 129 245 424 425 100 100 100
6 281 133 132 134 405 406 100 100 100
7 349 271 136 135 137 138 346 100 100 100
6 144 143 139 140 141 142 100 100 100
6 356 355 148 147 145 146 100 100 100
6 306 149 241 242 326 330 100 100 100
6 244 153 152 151 150 243 100 100 100
8 159 157 194 193 154 156 155 158 100 100 100
5 404 308 336 333 402 100 100 100
9 164 163 160 213 214 166 165 161 162 100 100 100
5 200 199 169 170 171 100 100 100
7 278 277 182 181 172 227 228 100 100 100
4 335 334 173 174 100 100 100
7 404 403 175 176 177 307 308 100 100 100
7 252 180 178 179 181 182 251 100 100 100
6 217 186 183 184 185 216 100 100 100
8 194 190 192 191 188 189 187 193 100 100 100
4 367 276 364 369 100 100 100
8 321 198 195 196 197 199 200 320 100 100 100
7 391 386 413 412 388 387 390 100 100 100
7 302 301 235 234 202 201 203 100 100 100
7 397 208 207 206 204 205 396 100 100 100
6 214 213 209 210 211 212 100 100 100
5 268 215 217 216 267 100 100 100
5 222 220 219 218 221 100 100 100
8 372 371 228 227 223 225 224 226 100 100 100
7 235 233 232 231 230 229 234 100 100 100
9 242 241 244 243 239 238 236 237 240 100 100 100
3 424 245 423 100 100 100
9 265 264 258 257 247 246 249 248 250 100 100 100
4 328 252 251 327 100 100 100
6 258 256 255 253 254 257 100 100 100
6 310 309 260 259 261 262 100 100 100
4 313 274 263 311 100 100 100
4 303 264 265 304 100 100 100
7 347 266 268 267 368 431 428 100 100 100
5 349 348 270 269 271 100 100 100
5 312 273 272 274 313 100 100 100
4 364 276 275 363 100 100 100
5 374 329 277 278 373 100 100 100
6 360 279 280 281 406 408 100 100 100
138 498 461 462 534 533 535 536 546 501 467 466 541 540 491 492 552 553 489 488 473 574 568 573 471 470 515 514 528 529 547 548 549 512 513 455 456 558 557 556 551 550 520 523 564 565 561 560 563 562 505 506 537 525 469 468 479 478 499 530 531 504 475 476 477 474 490 567 451 500 509 454 502 503 542 543 570 578 579 577 580 581 583 582 572 569 510 511 497 464 465 482 481 480 448 446 447 449 458 460 459 472 517 516 532 518 519 566 527 526 538 539 483 484 486 485 487 559 453 452 524 496 495 494 507 508 555 554 521 522 463 457 493 450 571 575 576 544 545 -1 0 0
5 498 461 5 48 49 100 0 0
4 486 485 150 151 100 0 0
5 473 574 414 416 376 100 0 0
3 449 447 1 100 0 0
6 513 455 67 170 169 26 100 0 0
5 562 505 46 250 248 100 0 0
5 567 451 2 269 270 100 0 0
5 554 521 55 226 224 100 0 0
5 532 518 31 108 106 100 0 0
5 467 466 154 193 187 100 0 0
5 550 520 39 203 201 100 0 0
5 497 464 6 59 60 100 0 0
4 454 502 16 4 100 0 0
6 514 528 79 81 75 27 100 0 0
6 524 496 14 178 180 62 100 0 0
5 526 538 139 143 73 100 0 0
3 475 504 19 100 0 0
4 552 553 205 204 100 0 0
3 472 459 7 100 0 0
5 482 481 33 99 98 100 0 0
4 561 560 246 247 100 0 0
5 469 468 34 66 64 100 0 0
4 510 511 24 23 100 0 0
4 480 448 0 8 100 0 0
4 547 548 196 195 100 0 0
4 533 535 115 113 100 0 0
4 542 543 162 161 100 0 0
4 452 524 62 63 100 0 0
6 450 571 420 423 245 129 100 0 0
5 471 470 76 381 379 100 0 0
4 557 556 229 230 100 0 0
7 494 507 20 223 227 172 13 100 0 0
8 500 509 21 22 93 96 137 135 100 0 0
4 476 477 343 342 100 0 0
5 478 499 84 88 35 100 0 0
5 523 564 253 255 57 100 0 0
5 568 573 380 418 415 100 0 0
3 446 448 0 100 0 0
8 446 447 1 175 403 400 8 0 100 0 0
7 569 510 23 37 52 51 283 100 0 0
5 506 537 126 127 47 100 0 0
5 489 488 377 398 394 100 0 0
4 559 453 237 236 100 0 0
5 566 527 74 261 259 100 0 0
6 449 458 89 176 175 1 100 0 0
6 539 483 9 71 141 140 100 0 0
5 540 491 101 158 155 100 0 0
4 463 457 53 54 100 0 0
5 508 555 225 223 20 100 0 0
4 551 550 201 202 100 0 0
5 456 558 231 232 68 100 0 0
4 493 450 129 130 100 0 0
3 494 495 13 100 0 0
6 465 482 98 100 59 6 100 0 0
4 530 531 86 85 100 0 0
3 545 544 167 100 0 0
6 511 497 60 61 38 24 100 0 0
6 549 512 26 169 199 197 100 0 0
4 528 529 80 79 100 0 0
4 466 541 156 154 100 0 0
5 516 532 106 107 29 100 0 0
4 560 563 249 246 100 0 0
6 460 459 7 28 91 90 100 0 0
5 487 559 236 238 10 100 0 0
3 462 461 5 100 0 0
5 536 546 188 191 116 100 0 0
5 451 500 135 136 2 100 0 0
6 453 452 63 103 240 237 100 0 0
5 556 551 202 234 229 100 0 0
6 509 454 4 92 94 21 100 0 0
4 525 469 64 65 100 0 0
4 455 456 68 67 100 0 0
4 518 519 32 31 100 0 0
5 565 561 247 257 254 100 0 0
3 484 483 9 100 0 0
4 573 471 379 380 100 0 0
5 457 493 130 131 53 100 0 0
3 490 474 11 100 0 0
6 475 476 342 345 87 19 100 0 0
4 458 460 90 89 100 0 0
5 520 523 57 58 39 100 0 0
6 485 487 10 239 243 150 100 0 0
4 492 552 204 206 100 0 0
6 503 542 161 165 69 18 100 0 0
6 462 534 114 117 48 5 100 0 0
4 522 463 54 56 100 0 0
3 465 464 6 100 0 0
4 501 467 187 189 100 0 0
4 468 479 36 34 100 0 0
6 529 547 195 198 104 80 100 0 0
4 555 554 224 225 100 0 0
5 470 515 27 75 76 100 0 0
4 538 539 140 139 100 0 0
5 472 517 30 28 7 100 0 0
4 548 549 197 196 100 0 0
4 488 473 376 377 100 0 0
4 574 568 415 414 100 0 0
5 537 525 65 128 126 100 0 0
4 564 565 254 253 100 0 0
5 477 474 11 344 343 100 0 0
4 479 478 35 36 100 0 0
6 481 480 8 400 401 33 100 0 0
6 484 486 151 152 71 9 100 0 0
5 553 489 394 396 205 100 0 0
6 490 567 270 348 344 11 100 0 0
5 491 492 206 207 101 100 0 0
3 575 571 420 100 0 0
4 558 557 230 231 100 0 0
7 496 495 13 172 181 179 14 100 0 0
5 543 570 287 164 162 100 0 0
5 545 498 49 168 167 100 0 0
4 527 526 73 74 100 0 0
4 563 562 248 249 100 0 0
4 499 530 85 84 100 0 0
4 534 533 113 114 100 0 0
5 519 566 259 260 32 100 0 0
4 517 516 29 30 100 0 0
4 546 501 189 188 100 0 0
5 502 503 18 17 16 100 0 0
4 541 540 155 156 100 0 0
5 531 504 19 87 86 100 0 0
4 505 506 47 46 100 0 0
3 508 507 20 100 0 0
4 535 536 116 115 100 0 0
3 513 512 26 100 0 0
3 514 515 27 100 0 0
4 521 522 56 55 100 0 0
10 575 576 422 421 426 427 425 424 423 420 100 0 0
4 577 580 439 433 100 0 0
3 579 578 434 100 0 0
8 580 581 444 436 435 438 437 439 100 0 0
8 581 583 445 443 441 442 440 444 100 0 0
3 582 583 445 100 0 0
5 576 544 167 168 422 100 0 0
5 572 569 283 282 290 100 0 0
8 570 578 434 295 285 284 286 287 100 0 0
7 582 572 290 288 289 443 445 100 0 0
9 579 577 433 291 292 293 294 295 434 100 0 0
