ply
format ascii 1.0
comment converted from made-by-Polyhedron_join_facets_2
element vertex 424
property float x
property float y
property float z
element face 214
property list uchar uint vertex_indices
property uchar red
property uchar green
property uchar blue
end_header
1346 -1797 -924
1343 -1802 -924
1345 -1800 -924
345 -320 1046
377 -279 1046
284 -233 1176
345 -320 1046
380 -394 970
392 -405 953
409 -410 937
465 -490 828
466 -489 828
464 -488 831
555 -627 648
559 -641 634
780 -953 208
782 -951 208
607 -679 563
779 -976 188
787 -993 164
810 -963 164
812 -987 147
814 -1033 114
843 -1058 72
851 -1048 72
870 -1117 2
879 -1115 -4
881 -1121 -11
895 -1103 -11
905 -1222 -116
910 -1238 -134
939 -1291 -205
1053 -1271 -302
1029 -1323 -320
1068 -1275 -320
1051 -1393 -373
1061 -1392 -379
1083 -1364 -379
1106 -1435 -444
1098 -1453 -450
1102 -1456 -455
1115 -1440 -455
-1207 1265 -970
-1191 1276 -970
-1204 1269 -969
-1206 1267 -969
-1177 1282 -935
-1082 1340 -869
-1055 1357 -869
-1092 1330 -863
-984 1385 -836
-871 1459 -836
-834 1478 -812
-774 1509 -769
-902 1413 -717
-572 1630 -717
-819 1490 -681
-726 1551 -681
-827 1485 -672
-729 1552 -625
-711 1563 -625
-724 1553 -617
-600 1624 -565
-618 1605 -531
-482 1695 -531
-576 1639 -514
-592 1637 -487
-588 1640 -486
-576 1648 -486
-537 1614 -357
-504 1636 -357
-485 1662 -387
-478 1675 -406
-461 1712 -461
-660 1470 -294
-659 1468 -291
-482 1585 -291
-486 1601 -311
-656 1471 -288
-574 1527 -260
-531 1555 -260
-490 1580 -285
-578 1502 -221
-552 1513 -210
2238 1424 -1180
2233 1428 -1180
2235 1427 -1180
2244 1418 -1183
2238 1408 -1209
2197 1401 -1278
2071 1495 -1278
2125 1474 -1244
2189 1440 -1218
2223 1434 -1184
2161 1443 -1333
284 -232 1177
299 -287 1114
325 -338 1046
359 -379 995
547 -635 648
480 -548 769
772 -1024 147
767 -1011 164
782 -1035 132
864 -1129 -4
957 -1358 -302
1023 -1419 -373
1074 -1464 -444
1044 -1448 -411
2264 1315 -1020
1986 1399 -980
2235 1305 -970
2268 1375 -1102
2262 1393 -1123
2210 1417 -1131
1942 1538 -1163
1391 1727 -1218
2086 1485 -1171
1964 1547 -1281
1796 1604 -1273
-1094 1262 -810
-1092 1258 -805
-1084 1269 -805
-984 1273 -662
-828 1481 -662
-839 1475 -672
-1052 1278 -769
-945 1321 -627
-840 1460 -627
-905 1336 -578
-818 1452 -578
-831 1465 -617
-860 1403 -542
-853 1412 -542
-839 1426 -565
-803 1429 -475
-779 1461 -475
-780 1476 -498
-818 1438 -514
-751 1407 -394
-665 1521 -394
-762 1477 -469
-706 1459 -353
-697 1472 -355
-1118 1308 -863
-1096 1262 -812
-1104 1278 -830
-779 1478 -497
307 2039 -1165
288 2044 -1165
289 2044 -1165
929 1868 -1235
252 2022 -1235
255 2025 -1227
580 1970 -1281
316 2037 -1295
253 2023 -1237
111 -1105 -3080
24 -1085 -3079
-605 -922 -3079
-1078 -793 -3078
-1109 -722 -3078
-1120 -670 -3078
-1027 -367 -3079
-604 938 -3080
-576 1020 -3080
-405 1020 -3080
-274 990 -3080
-202 969 -3080
559 735 -3081
583 718 -3081
585 691 -3081
178 -860 -3080
-399 1262 91
-379 1217 140
-298 1050 321
-3 511 898
9 490 921
43 445 966
74 413 996
-402 1347 -11
-1202 -778 -177
121 -144 1271
60 -165 1217
-485 -389 671
-491 -392 664
1658 -1198 -1108
1820 -643 -1087
2000 -31 -1054
1638 -1270 -1095
1564 -1522 -1112
1570 -1499 -1114
-1729 869 -1530
-1728 874 -1529
-1727 877 -1529
-1710 929 -1529
-1696 939 -1583
-1752 754 -1599
-1842 501 -1559
586 1968 -1281
1011 1844 -1273
2153 1445 -1345
2146 1439 -1357
1884 1320 -1646
-2053 -231 -1557
-2215 -968 -1500
-2217 -1222 -1407
-486 -386 669
-142 -105 1038
-66 -13 1108
-60 17 1105
-73 95 1057
-213 413 743
2030 71 -1050
448 4 1075
313 -147 1193
1349 -1804 -930
1420 -1849 -1047
1430 -1838 -1056
1497 -1696 -1086
294 -1392 -2751
670 -1984 -2072
777 -2209 -1802
766 -2232 -1769
756 -2236 -1761
748 -2233 -1762
2147 1417 -1357
2179 1388 -1308
2292 1021 -1045
-1691 958 -1542
-362 1757 -556
-764 1360 -2640
-785 1348 -2647
-798 1342 -2631
-1688 958 -1561
1264 -2072 -1294
1354 -2026 -1191
1355 -2023 -1187
1290 -1836 -921
523 -627 669
231 -184 1249
191 -147 1292
170 -142 1292
-1394 -1721 -1685
697 -2232 -1738
875 -2230 -1673
1114 -2138 -1447
637 302 930
1439 760 39
1716 921 -271
226 94 1244
184 23 1274
177 -18 1290
193 -33 1294
214 28 1269
-2085 -1422 -1848
-2051 -1389 -1904
-1820 -1219 -2220
-1187 -844 -2969
-1113 -810 -3043
-2133 -1477 -1756
-633 1149 -2929
-606 1078 -3012
-742 1297 -2728
253 161 1212
251 186 1196
-2086 -562 -1734
-2078 -518 -1727
-1861 365 -1634
-1773 662 -1624
-1675 924 -1641
-2100 -379 -1575
-2096 -366 -1576
-2203 -1106 -1802
-2221 -1114 -1761
-2201 -818 -1611
-2158 -604 -1577
-1154 -1753 -1744
748 -2241 -1746
-1791 -1622 -1680
-2036 -1559 -1680
193 -144 1294
211 -139 1291
215 -121 1291
214 -111 1292
193 -67 1299
171 -96 1301
163 -121 1301
1362 -2021 -1191
1370 -2013 -1181
1368 -2010 -1171
-471 1385 -50
-470 1382 -47
-2060 -1553 -1680
-2084 -1531 -1648
-2227 -1468 -1604
-2183 -1505 -1658
-2118 -1536 -1682
1203 -2098 -1367
1269 -2069 -1294
-291 1032 340
-18 534 872
2278 1161 -933
2271 1134 -933
2259 875 -1025
2308 1056 -1027
2308 1057 -1027
2285 1155 -947
1522 -1651 -1112
1407 -1937 -1156
1357 -2024 -1199
244 -156 1265
253 -145 1261
-423 1626 -360
269 2039 -1151
-621 1439 -2571
-631 1361 -2682
-652 1420 -2607
266 170 1204
993 -2049 -1647
-2234 -1463 -1598
-2046 -1275 -1244
-2242 -1436 -1564
-2239 -1458 -1595
-1978 43 -1576
280 -129 1240
683 305 880
604 270 967
592 262 980
348 -26 1189
2251 1209 -880
2194 1191 -811
1047 521 476
250 -182 1243
-411 1384 -56
-1701 946 -1523
155 -58 1294
-362 975 313
-431 1154 146
-547 1377 -101
-608 1478 -225
-665 1469 -300
-84 183 1006
-176 522 745
148 -65 1293
143 -79 1293
151 -124 1298
227 1994 -1396
-484 1615 -328
-2095 -1268 -1904
-2215 -1484 -1659
-2231 -1472 -1645
-2265 -1438 -1619
-2285 -1391 -1615
-2277 -1338 -1648
-2275 -1331 -1653
-2193 -1163 -1829
2286 1163 -950
2305 1138 -1017
2275 1353 -1083
2265 1228 -913
-2286 -1388 -1580
-2285 -1389 -1577
-2270 -1316 -1506
-2266 -1228 -1547
-2023 -1092 -2038
-1838 -1214 -2203
2249 1415 -1165
297 154 1194
-2223 -1251 -1407
-2233 -1259 -1424
-2266 -1304 -1493
-2278 -1406 -1581
-2244 -1434 -1564
-2132 -1265 -1316
-2151 -1236 -1316
-170 -173 1012
1391 -1913 -1074
1373 -1970 -1118
2307 1057 -1030
2240 1370 -1209
847 -2237 -1702
845 -2237 -1705
1349 -1814 -939
1314 -1861 -960
-2244 -1057 -1587
-2208 -834 -1587
2236 1237 -886
2258 1223 -898
227 1996 -1381
145 -136 1293
-731 1378 -2630
-666 1412 -2612
-759 1322 -2694
-2265 -1438 -1608
-2249 -1454 -1605
-510 1461 -138
-2204 -1493 -1666
-2162 -1509 -1701
-1930 -1177 -1052
-1893 -1149 -996
-2188 -1148 -1839
-2253 -1235 -1474
-2257 -1150 -1547
-2235 -1022 -1520
-2228 -973 -1524
-2199 -782 -1567
-1687 950 -1594
-1665 955 -1641
1699 1518 -1020
1704 1516 -1020
1639 1647 -1163
1557 1676 -1168
402 2017 -1167
341 1985 -1104
555 1978 -1176
153 343 1060
-4 639 742
850 1892 -1177
480 249 1057
630 300 935
534 263 1018
272 224 1167
297 216 1167
3 2 0 1 100 100 100
3 5 3 4 100 100 100
6 9 4 3 6 7 8 100 100 100
3 12 10 11 100 100 100
7 17 11 10 13 14 15 16 100 100 100
5 20 16 15 18 19 100 100 100
6 24 20 19 21 22 23 100 100 100
6 28 24 23 25 26 27 100 100 100
8 34 28 27 29 30 31 32 33 100 100 100
5 37 34 33 35 36 100 100 100
6 41 37 36 38 39 40 100 100 100
4 40 1 0 41 100 100 100
4 45 42 43 44 100 100 100
5 48 43 42 46 47 100 100 100
5 51 48 47 49 50 100 100 100
6 55 51 50 52 53 54 100 100 100
4 57 55 54 56 100 100 100
5 60 57 56 58 59 100 100 100
6 64 60 59 61 62 63 100 100 100
6 68 64 63 65 66 67 100 100 100
7 73 68 67 69 70 71 72 100 100 100
6 77 70 69 74 75 76 100 100 100
6 81 76 75 78 79 80 100 100 100
4 80 79 82 83 100 100 100
3 86 84 85 100 100 100
9 93 85 84 87 88 89 90 91 92 100 100 100
3 90 89 94 100 100 100
6 97 6 3 5 95 96 100 100 100
4 7 6 97 98 100 100 100
7 99 13 10 12 9 8 100 100 100 100
3 14 13 99 100 100 100
5 101 21 19 18 102 100 100 100
4 103 22 21 101 100 100 100
3 104 26 25 100 100 100
4 104 29 27 26 100 100 100
3 32 31 105 100 100 100
5 35 33 32 105 106 100 100 100
6 107 38 36 35 106 108 100 100 100
3 39 38 107 100 100 100
5 92 91 118 119 116 100 100 100
3 122 120 121 100 100 100
6 126 122 121 123 124 125 100 100 100
4 128 124 123 127 100 100 100
5 131 128 127 129 130 100 100 100
5 134 130 129 132 133 100 100 100
6 138 133 132 135 136 137 100 100 100
5 141 136 135 139 140 100 100 100
4 140 139 142 143 100 100 100
4 49 47 46 144 100 100 100
6 145 52 50 49 144 146 100 100 100
6 126 53 52 145 120 122 100 100 100
6 125 58 56 54 53 126 100 100 100
7 131 61 59 58 125 124 128 100 100 100
5 134 62 61 131 130 100 100 100
6 138 65 63 62 134 133 100 100 100
5 138 137 147 66 65 100 100 100
3 150 148 149 100 100 100
5 156 152 151 154 155 100 100 100
16 157 158 159 160 161 162 163 164 165 166 167 168 169 170 171 172 100 100 100
5 181 182 183 184 185 100 100 100
6 186 187 188 189 190 191 100 100 100
7 192 193 194 195 196 197 198 100 100 100
9 199 200 119 118 201 202 203 169 168 100 100 100
11 192 204 205 206 207 208 209 210 211 212 193 100 100 100
19 188 213 214 215 17 16 20 24 28 34 37 41 0 2 216 217 218 219 189 100 100 100
8 157 220 221 222 223 224 225 158 100 100 100
7 171 226 227 228 187 186 172 100 100 100
16 43 48 51 55 57 60 64 68 73 230 231 232 233 234 229 44 100 100 100
23 235 236 237 238 108 106 105 31 30 103 101 102 239 98 97 96 240 241 242 243 244 245 246 100 100 100
5 250 251 252 253 254 100 100 100
6 255 256 257 258 259 260 100 100 100
3 261 262 263 100 100 100
6 250 264 265 179 178 251 100 100 100
7 163 266 267 268 269 270 164 100 100 100
8 271 272 267 266 273 274 275 276 100 100 100
8 224 278 244 243 279 280 277 225 100 100 100
7 281 282 283 284 285 286 287 100 100 100
4 225 277 159 158 100 100 100
5 236 288 289 290 237 100 100 100
4 173 291 292 174 100 100 100
5 293 294 295 296 297 100 100 100
4 235 246 298 299 100 100 100
4 175 300 301 176 100 100 100
6 302 303 304 305 306 307 100 100 100
7 190 308 309 289 288 310 191 100 100 100
4 282 311 312 283 100 100 100
5 166 316 317 315 167 100 100 100
3 220 319 221 100 100 100
4 320 321 322 323 100 100 100
4 267 272 324 268 100 100 100
7 214 326 327 328 329 325 215 100 100 100
7 302 330 331 249 248 332 303 100 100 100
6 240 333 311 282 281 241 100 100 100
8 42 45 335 195 194 146 144 46 100 100 100
5 252 336 286 285 253 100 100 100
22 193 212 337 338 339 340 78 75 74 341 142 139 135 132 129 127 123 121 120 145 146 194 100 100 100
6 192 198 324 272 271 204 100 100 100
5 211 342 343 337 212 100 100 100
6 286 336 344 345 346 287 100 100 100
4 189 219 308 190 100 100 100
4 279 294 293 280 100 100 100
7 167 315 347 155 154 199 168 100 100 100
5 235 299 310 288 236 100 100 100
5 71 348 334 313 72 100 100 100
9 191 310 299 298 319 220 157 172 186 100 100 100
4 209 345 344 210 100 100 100
10 255 350 351 352 353 354 355 356 349 256 100 100 100
4 357 358 359 360 100 100 100
9 140 143 341 74 69 67 66 147 141 100 100 100
4 340 82 79 78 100 100 100
4 361 362 363 364 100 100 100
6 161 258 257 366 365 162 100 100 100
4 84 86 367 87 100 100 100
9 369 370 371 363 362 372 373 374 375 100 100 100
3 183 376 184 100 100 100
9 210 344 336 252 251 178 177 342 211 100 100 100
7 217 377 378 290 289 309 218 100 100 100
7 113 367 86 85 93 117 114 100 100 100
11 305 379 380 88 87 367 113 112 359 358 306 100 100 100
5 90 94 201 118 91 100 100 100
8 221 319 298 246 245 381 382 222 100 100 100
4 377 383 384 378 100 100 100
6 385 386 275 274 355 354 100 100 100
5 223 382 381 278 224 100 100 100
5 300 338 337 343 301 100 100 100
5 165 262 261 316 166 100 100 100
7 99 100 239 102 18 15 14 100 100 100
7 25 23 22 103 30 29 104 100 100 100
10 383 216 2 1 40 39 107 108 238 384 100 100 100
7 387 388 360 359 112 109 111 100 100 100
8 88 380 227 226 202 201 94 89 100 100 100
4 347 389 156 155 100 100 100
4 150 149 153 314 100 100 100
8 208 376 183 182 390 346 345 209 100 100 100
5 231 391 392 393 232 100 100 100
4 351 395 394 352 100 100 100
4 218 309 308 219 100 100 100
4 80 83 396 81 100 100 100
4 71 70 77 348 100 100 100
4 397 398 297 296 100 100 100
7 291 396 83 82 340 339 292 100 100 100
6 352 394 372 362 361 353 100 100 100
4 399 400 375 374 100 100 100
5 273 401 356 355 274 100 100 100
3 370 402 371 100 100 100
4 256 349 366 257 100 100 100
6 385 403 404 405 406 386 100 100 100
3 142 341 143 100 100 100
4 147 137 136 141 100 100 100
4 330 388 387 331 100 100 100
6 261 263 393 392 317 316 100 100 100
12 4 9 12 11 17 215 325 312 311 333 95 5 100 100 100
7 205 405 404 402 370 369 206 100 100 100
6 204 271 276 406 405 205 100 100 100
3 169 203 170 100 100 100
4 160 259 258 161 100 100 100
9 293 297 398 260 259 160 159 277 280 100 100 100
5 110 249 331 387 111 100 100 100
5 176 301 343 342 177 100 100 100
6 372 394 395 323 322 373 100 100 100
12 181 400 399 321 320 295 294 279 243 242 390 182 100 100 100
4 227 380 379 228 100 100 100
6 196 407 408 270 269 197 100 100 100
4 306 358 357 307 100 100 100
5 237 290 378 384 238 100 100 100
3 222 382 223 100 100 100
7 228 379 305 304 213 188 187 100 100 100
5 260 398 397 350 255 100 100 100
5 349 356 401 365 366 100 100 100
6 174 292 339 338 300 175 100 100 100
9 164 270 408 233 232 393 263 262 165 100 100 100
5 321 399 374 373 322 100 100 100
9 173 180 334 348 77 76 81 396 291 100 100 100
4 233 408 407 234 100 100 100
6 213 304 303 332 326 214 100 100 100
4 216 383 377 217 100 100 100
6 353 361 364 403 385 354 100 100 100
7 206 369 375 400 181 185 207 100 100 100
5 325 329 284 283 312 100 100 100
6 241 281 287 346 390 242 100 100 100
6 229 234 407 196 195 335 100 100 100
6 360 388 330 302 307 357 100 100 100
6 365 401 273 266 163 162 100 100 100
8 350 397 296 295 320 323 395 351 100 100 100
5 250 254 368 318 264 100 100 100
5 247 327 326 332 248 100 100 100
4 95 333 240 96 100 100 100
5 8 7 98 239 100 100 100 100
5 202 226 171 170 203 100 100 100
6 315 317 392 391 389 347 100 100 100
4 44 229 335 45 100 100 100
6 371 402 404 403 364 363 100 100 100
3 114 117 115 100 100 100
4 278 381 245 244 100 100 100
8 230 314 153 152 156 389 391 231 100 100 100
4 275 386 406 276 100 100 100
5 184 376 208 207 185 100 100 100
5 268 324 198 197 269 100 100 100
15 409 410 420 421 419 423 422 416 417 414 413 415 418 412 411 -1 0 0
5 409 410 110 111 109 100 0 0
7 411 409 109 112 113 114 115 100 0 0
7 412 411 115 117 93 92 116 100 0 0
7 413 415 151 152 153 149 148 100 0 0
10 416 417 180 173 174 175 176 177 178 179 100 0 0
6 410 420 247 248 249 110 100 0 0
6 415 418 200 199 154 151 100 0 0
9 414 413 148 150 314 230 73 72 313 100 0 0
5 418 412 116 119 200 100 0 0
5 423 422 265 264 318 100 0 0
5 417 414 313 334 180 100 0 0
9 421 419 368 254 253 285 284 329 328 100 0 0
4 419 423 318 368 100 0 0
4 422 416 179 265 100 0 0
5 420 421 328 327 247 100 0 0
