ply
format ascii 1.0
comment converted from made-by-Polyhedron_multi_join_facets
element vertex 512
property float x
property float y
property float z
element face 266
property list uchar uint vertex_indices
property uchar red
property uchar green
property uchar blue
end_header
-722 2146 -5410
-541 2150 -5411
2014 -2482 -5208
2081 -2445 -5407
-2921 -1141 -5224
-1540 2069 -5463
-2221 1807 -5392
2095 -2433 -5267
-1378 -2715 -5223
-317 2149 -5439
-861 2139 -5371
940 2038 -5378
2466 1272 -5424
2514 1194 -5266
1308 1967 -5323
2353 -2149 -5366
2368 -2127 -5219
-2110 -2524 -5296
-982 -2771 -5267
-897 -2782 -5361
-2313 -2409 -5236
1491 1916 -5196
1315 1964 -5244
1450 1928 -5211
1319 1963 -5243
656 -2794 -5213
428 -2804 -5239
833 -2784 -5188
966 -2773 -5162
-237 -2813 -5277
-332 -2811 -5277
1180 -2749 -5109
1092 -2760 -5133
42 -2812 -5268
212 -2810 -5257
2668 -1346 -5169
2760 -473 -5286
2749 -662 -5276
2684 -1248 -5191
2707 -1084 -5223
2734 -857 -5258
2730 -903 -5253
2763 -323 -5286
2763 -172 -5280
-2815 778 -5095
-2783 906 -5072
1602 1879 -5152
2056 1669 -5235
1945 1730 -5221
2289 1488 -5233
2236 1538 -5239
1753 1821 -5188
1825 1788 -5201
2116 1630 -5240
2173 1589 -5241
1702 1843 -5177
1631 1870 -5160
1607 1877 -5154
2450 1293 -5238
2644 885 -5195
2515 1192 -5238
2550 1129 -5234
2606 998 -5217
2576 1073 -5228
2353 1420 -5228
2390 1375 -5233
2667 805 -5177
391 -339 -3260
2361 -878 -4746
313 -385 -3198
2579 -1720 -5155
2614 -1602 -5129
2230 -2293 -5171
2317 -2191 -5184
2423 -2039 -5188
2454 -1987 -5186
2495 -1915 -5182
2337 -2167 -5186
2368 -2125 -5189
2544 -1822 -5175
2536 -1839 -5177
263 -380 -3162
2611 -1528 -5097
270 -381 -3167
2011 -2483 -5171
2086 -2438 -5173
1654 -2650 -5128
1551 -2679 -5103
1923 -2531 -5164
1817 -2582 -5153
1677 -2642 -5133
1750 -2612 -5144
1463 -2699 -5080
1414 -2709 -5065
2145 -2383 -5163
2097 -2430 -5173
-123 -721 -3146
-120 -752 -3169
-2440 -2294 -5121
-2015 -2553 -5082
-2105 -2519 -5102
-2259 -2444 -5128
-2303 -2412 -5129
-1911 -2586 -5054
-2420 -2312 -5122
-2212 -2470 -5122
-2197 -2477 -5119
-1839 -2606 -5034
-2325 -2395 -5128
-2354 -2371 -5127
-129 -725 -3150
-2709 -1945 -5141
-2741 -1878 -5134
-2813 -1682 -5101
-2777 -1788 -5121
-2539 -2195 -5137
-2577 -2154 -5143
-2646 -2056 -5146
-2832 -1613 -5085
-2600 -2126 -5147
-2611 -2113 -5148
-2646 1294 -5156
-2544 1479 -5175
-2487 1550 -5172
-2727 1096 -5118
-2560 1457 -5175
-2595 1392 -5168
-2695 1181 -5136
-2661 1260 -5150
-2766 969 -5087
-2746 1040 -5106
-2485 1552 -5172
-2418 1625 -5164
-2781 912 -5071
-2780 909 -5069
-2060 1901 -5181
-2026 1918 -5177
-1925 1959 -5161
-1747 2016 -5123
-1827 1994 -5142
-1697 2027 -5109
-2380 1665 -5164
-2184 1825 -5184
-2115 1870 -5184
-2235 1789 -5182
-2261 1770 -5181
-2339 1702 -5171
-2275 1758 -5179
2328 1446 -5225
2340 1434 -5225
258 -380 -3159
2174 -2353 -5160
2152 -2376 -5161
-123 -719 -3144
-124 -717 -3143
-93 -368 -2975
258 -380 -3159
-2440 -2293 -5120
-2468 -2266 -5121
-117 -390 -2975
-124 -716 -3142
-2404 1640 -5161
-519 -350 -3168
-2384 1660 -5163
-116 -345 -2975
-108 -6 -3155
-140 -366 -2975
-495 -357 -3153
-105 28 -3179
-108 9 -3165
-120 21 -3176
-85 614 -3630
-211 368 -3453
-109 2 -3160
-117 15 -3171
-2842 -1572 -5074
-574 -358 -3205
-534 -354 -3177
-511 -355 -3162
-515 -354 -3164
-1154 -2748 -5209
-981 -2771 -5238
-1393 -2710 -5159
-1632 -2660 -5088
-1547 -2679 -5116
-1298 -2726 -5181
-1356 -2717 -5168
-503 -2806 -5272
-593 -2801 -5269
-1716 -2638 -5055
-812 -2786 -5255
-723 -2793 -5262
-480 -2806 -5272
-158 -2246 -4317
-776 -2333 -4496
-1800 -2615 -5022
-1800 -2615 -5022
-2847 611 -5126
-2947 -685 -5236
-2886 -1390 -5135
-2950 -292 -5248
-2951 -488 -5246
-2941 -121 -5240
-2938 -86 -5237
-2846 -1557 -5077
-2905 -1274 -5164
-2918 -1144 -5186
-2903 257 -5195
-2885 378 -5173
-2938 -897 -5219
-2934 -969 -5211
-2908 208 -5202
-2925 60 -5221
-2827 715 -5100
-2448 -339 -4552
-2762 764 -5011
-2544 231 -4698
-2844 -1564 -5074
-2586 -957 -4730
2725 454 -5227
2755 107 -5267
2762 -78 -5277
2739 323 -5245
2711 559 -5208
2689 695 -5178
2680 744 -5166
2752 169 -5263
2744 266 -5252
2763 -135 -5278
2678 753 -5163
2677 751 -5161
2378 54 -4757
2284 -406 -4630
1300 -2730 -5070
1265 -2735 -5079
1364 -2718 -5050
1344 -2709 -5036
463 -2383 -4527
766 -2710 -5045
-68 -2267 -4348
2635 -1518 -5128
2658 -1399 -5155
2340 -702 -4708
2626 -1555 -5117
2618 -1541 -5106
2672 -801 -5155
2326 -612 -4686
-1569 2054 -5124
-1340 2091 -5201
-1329 2093 -5204
-1641 2038 -5093
-1581 2010 -5050
-753 1687 -4565
198 2125 -5529
485 2100 -5510
1451 1933 -5530
538 2094 -5508
844 2054 -5502
766 2065 -5502
1312 1969 -5516
1094 2013 -5504
966 2036 -5501
1161 2001 -5507
1197 1993 -5509
1437 1938 -5528
1411 1944 -5525
1330 1562 -5920
2062 1667 -5471
1931 1739 -5480
2234 1540 -5482
1730 1834 -5508
1872 1768 -5487
2110 1636 -5470
2167 1595 -5474
1650 1867 -5522
1621 1878 -5528
2264 1513 -5489
1547 1902 -5546
1331 1562 -5919
2650 871 -5488
2548 1135 -5446
2295 1483 -5481
2603 1008 -5461
2579 1069 -5452
2356 1418 -5464
2392 1374 -5456
2466 1272 -5446
2519 1187 -5444
2672 787 -5509
2666 817 -5501
2272 1505 -5489
2730 435 -5499
2757 78 -5507
2763 -74 -5516
2733 403 -5499
2717 529 -5501
2695 669 -5509
2764 -299 -5536
2764 -181 -5525
2751 197 -5502
2750 204 -5502
2677 764 -5516
2238 578 -5939
2666 -1361 -5505
2636 -1519 -5511
2760 -473 -5538
2749 -683 -5520
2688 -1224 -5503
2705 -1103 -5504
2746 -711 -5518
2729 -911 -5507
2762 -391 -5547
2759 -391 -5550
2352 -2152 -5428
2585 -1704 -5481
2613 -1611 -5509
2243 -2283 -5444
2288 -2229 -5436
2428 -2035 -5430
2382 -2106 -5428
2434 -2024 -5430
2511 -1888 -5441
2542 -1828 -5449
2526 -1861 -5444
2171 -2359 -5459
2245 -1454 -5879
2620 -1584 -5517
2261 -1452 -5868
2086 -2442 -5425
1616 -2669 -5429
1563 -2684 -5439
1911 -2541 -5414
1829 -2581 -5414
1666 -2652 -5423
1749 -2617 -5417
1984 -2502 -5417
2082 -2445 -5424
1463 -2709 -5460
2142 -2390 -5446
2115 -2416 -5435
2168 -2362 -5459
1305 -2319 -5868
634 -2802 -5446
520 -2806 -5449
1310 -2739 -5464
797 -2793 -5445
1024 -2775 -5448
1354 -2732 -5469
1196 -2756 -5455
1089 -2769 -5450
25 -2817 -5470
245 -2813 -5460
1401 -2722 -5475
1297 -2339 -5853
-1115 -2760 -5424
-231 -2817 -5477
-433 -2813 -5456
-1619 -2675 -5445
-1594 -2681 -5443
-1261 -2739 -5427
-1394 -2718 -5431
-495 -2811 -5450
-552 -2808 -5446
-1662 -2665 -5450
-738 -2796 -5435
-1018 -2772 -5424
-894 -2784 -5428
-178 -2817 -5483
-178 -2813 -5487
-2465 -2284 -5429
-2025 -2562 -5413
-2268 -2448 -5390
-1929 -2593 -5432
-2388 -2355 -5409
-2215 -2477 -5392
-2106 -2529 -5401
-1851 -2616 -5451
-2319 -2411 -5396
-2375 -2365 -5406
-2488 -2262 -5436
-1613 -2250 -5852
-1792 -2632 -5466
-1610 -2262 -5844
-2713 -1967 -5385
-2760 -1870 -5388
-2828 -1698 -5407
-2800 -1776 -5396
-2530 -2219 -5425
-2593 -2149 -5404
-2667 -2047 -5387
-2850 -1624 -5421
-2623 -2113 -5395
-2645 -2084 -5390
-2499 -2251 -5436
-2958 -706 -5426
-2899 -1410 -5408
-2963 -301 -5464
-2963 -461 -5447
-2942 -1015 -5409
-2873 -1531 -5420
-2923 -1236 -5404
-2919 -1274 -5403
-2951 -864 -5416
-2944 -987 -5410
-2858 -1594 -5428
-2870 588 -5448
-2959 -189 -5477
-2946 -16 -5464
-2835 779 -5453
-2817 857 -5459
-2915 278 -5451
-2901 382 -5449
-2929 156 -5455
-2939 59 -5460
-2959 -202 -5479
-2953 -203 -5485
-2656 1303 -5420
-2557 1477 -5418
-2518 1527 -5427
-2395 1663 -5464
-2742 1102 -5445
-2576 1450 -5415
-2618 1376 -5416
-2707 1190 -5432
-2682 1246 -5425
-2776 1007 -5463
-2770 1025 -5459
-2442 1613 -5448
-2441 1615 -5449
-2333 1720 -5488
-2786 971 -5472
-2392 849 -5863
-2071 1901 -5442
-2019 1928 -5440
-1923 1967 -5445
-1723 2030 -5474
-1843 1996 -5454
-1669 2043 -5485
-2131 1868 -5447
-2275 1769 -5473
-2222 1808 -5461
-2326 1727 -5488
-2314 1737 -5485
-2326 1727 -5489
-1470 1632 -5930
-1275 2106 -5476
-326 2150 -5511
-48 2141 -5543
-212 2147 -5524
-720 2147 -5482
-537 2152 -5492
-1540 2070 -5490
-1315 2102 -5477
-1064 2126 -5474
-874 2141 -5475
-16 2139 -5548
-16 2135 -5552
-1610 2056 -5498
-1469 1635 -5928
-67 1179 -6213
1475 803 -6211
1328 1557 -5923
1499 778 -6211
1812 -341 -6210
2212 598 -5950
2230 579 -5945
1810 -416 -6210
1412 -1537 -6211
2238 -1451 -5884
1403 -1546 -6211
-13 -1788 -6213
1302 -2311 -5873
-130 -1784 -6213
-1605 -1480 -6215
-1603 -2232 -5865
-1612 -1473 -6215
-1908 -254 -6216
-2416 -1394 -5875
-2418 -1389 -5874
-2418 -1392 -5874
-1908 -247 -6216
-2386 851 -5867
-2373 865 -5872
-149 1182 -6213
-1465 1620 -5937
-1597 896 -6215
-1598 898 -6214
-793 2141 -5337
-672 2146 -5356
-481 2149 -5380
-569 2148 -5371
-288 2147 -5396
-366 2148 -5390
-849 2139 -5328
-891 2136 -5318
941 2037 -5326
1259 1976 -5252
868 1686 -4717
635 1615 -4572
-19 1509 -4326
214 2121 -5401
412 2104 -5390
-1245 2103 -5227
-1182 2110 -5245
651 2077 -5367
777 2061 -5351
-50 2138 -5404
-251 2146 -5398
-1130 2115 -5260
1066 2015 -5301
1184 1991 -5272
-496 1628 -4485
19 193 194 196 195 189 183 184 182 186 185 180 181 190 191 188 187 192 238 239 100 100 100
22 214 216 215 213 197 208 207 211 212 203 202 200 201 198 209 210 206 205 199 204 217 218 100 100 100
16 220 226 227 222 219 223 224 225 229 230 231 232 246 245 228 221 100 100 100
7 155 156 150 149 148 165 164 100 100 100
8 155 159 160 154 153 152 151 156 100 100 100
6 159 166 167 158 157 160 100 100 100
11 165 173 174 163 161 162 179 178 167 166 164 100 100 100
8 459 483 484 444 458 456 266 461 100 100 100
8 463 465 302 312 327 325 468 466 100 100 100
9 470 471 341 353 368 382 380 474 472 100 100 100
6 415 431 481 480 476 478 100 100 100
7 233 235 236 237 239 238 234 100 100 100
7 242 244 243 240 241 245 246 100 100 100
15 55 56 57 169 173 165 148 49 50 54 53 47 48 52 51 100 100 100
15 67 230 229 66 59 62 63 61 60 58 65 64 149 150 81 100 100 100
3 67 231 230 100 100 100
6 67 81 83 69 232 231 100 100 100
5 68 242 246 232 69 100 100 100
4 68 69 83 82 100 100 100
19 71 243 244 82 83 81 150 156 151 72 73 77 78 74 75 76 80 79 70 100 100 100
17 84 85 95 94 152 153 96 236 235 93 92 87 86 90 91 89 88 100 100 100
4 96 97 237 236 100 100 100
4 97 193 239 237 100 100 100
7 96 153 154 110 194 193 97 100 100 100
3 110 196 194 100 100 100
18 104 109 108 102 101 105 106 100 99 103 107 195 196 110 154 160 157 98 100 100 100
14 113 114 112 111 117 120 119 116 115 158 167 178 175 118 100 100 100
3 176 214 218 100 100 100
4 176 177 216 214 100 100 100
6 134 215 216 177 179 162 100 100 100
16 129 133 134 162 161 132 131 123 122 125 126 121 128 127 124 130 100 100 100
18 170 251 250 140 138 139 137 136 135 143 142 144 145 147 146 141 163 174 100 100 100
4 170 172 252 251 100 100 100
7 175 178 179 177 176 218 217 100 100 100
18 260 262 263 259 265 264 255 277 278 266 456 455 253 254 256 258 257 261 100 100 100
12 267 272 273 269 276 278 277 275 274 270 271 268 100 100 100
16 302 465 464 290 281 284 285 286 287 280 283 282 279 289 288 301 100 100 100
14 291 294 300 299 292 293 298 297 311 312 302 301 296 295 100 100 100
12 305 306 309 310 308 307 303 304 326 327 312 311 100 100 100
15 322 323 321 320 318 319 313 317 316 324 325 327 326 315 314 100 100 100
16 338 339 328 336 335 331 332 334 333 329 330 337 352 353 341 340 100 100 100
14 344 348 349 346 345 342 343 351 350 367 368 353 352 347 100 100 100
17 362 364 366 365 354 359 360 358 357 363 381 382 368 367 355 356 361 100 100 100
14 380 382 381 376 372 370 375 374 371 377 378 373 369 379 100 100 100
14 387 388 391 392 389 383 384 386 385 390 404 479 477 393 100 100 100
15 394 397 396 414 415 478 479 404 399 395 401 400 398 403 402 100 100 100
13 406 407 413 412 410 411 405 408 409 430 431 415 414 100 100 100
18 420 423 424 416 422 421 417 418 427 428 419 429 482 481 431 430 425 426 100 100 100
15 441 442 439 440 438 432 433 434 436 435 437 457 458 444 443 100 100 100
14 445 453 454 449 450 446 448 447 455 456 458 457 451 452 100 100 100
3 459 461 460 100 100 100
4 464 465 463 462 100 100 100
3 466 468 467 100 100 100
3 469 471 470 100 100 100
3 472 474 473 100 100 100
5 475 477 479 478 476 100 100 100
5 481 482 486 485 480 100 100 100
4 485 486 484 483 100 100 100
15 459 460 462 463 466 467 469 470 472 473 475 476 480 485 483 100 100 100
4 155 164 166 159 100 100 100
5 29 355 367 350 33 100 100 100
5 36 305 311 297 42 100 100 100
5 200 202 406 414 396 100 100 100
4 99 370 372 103 100 100 100
4 138 140 437 435 100 100 100
4 113 118 390 385 100 100 100
4 51 270 274 55 100 100 100
6 141 146 441 443 429 419 100 100 100
4 70 79 322 314 100 100 100
4 124 127 423 420 100 100 100
8 72 151 152 94 338 340 324 316 100 100 100
8 98 157 158 115 387 393 379 369 100 100 100
4 86 329 333 90 100 100 100
4 59 279 282 62 100 100 100
6 49 148 149 64 284 281 100 100 100
4 180 185 359 354 100 100 100
3 4 398 400 100 100 100
5 31 348 344 233 234 100 100 100
4 219 291 295 223 100 100 100
5 197 213 44 408 405 100 100 100
4 35 303 307 38 100 100 100
4 111 383 389 117 100 100 100
4 135 136 433 432 100 100 100
4 74 318 320 75 100 100 100
5 2 84 88 331 335 100 100 100
4 53 272 267 47 100 100 100
4 12 58 60 13 100 100 100
4 122 417 421 125 100 100 100
4 101 371 374 105 100 100 100
4 25 342 345 27 100 100 100
4 18 19 190 181 100 100 100
4 220 292 299 226 100 100 100
4 198 201 397 394 100 100 100
3 5 247 248 100 100 100
4 189 363 357 183 100 100 100
4 207 410 412 211 100 100 100
4 40 309 306 37 100 100 100
4 21 255 264 23 100 100 100
3 6 144 142 100 100 100
4 199 395 399 204 100 100 100
4 126 422 416 121 100 100 100
6 45 133 129 425 430 409 100 100 100
4 114 386 384 112 100 100 100
4 139 436 434 137 100 100 100
3 20 102 108 100 100 100
4 123 131 427 418 100 100 100
4 87 92 337 330 100 100 100
4 50 269 273 54 100 100 100
4 48 268 271 52 100 100 100
5 187 361 356 30 192 100 100 100
5 15 77 73 317 313 100 100 100
6 240 243 71 315 326 304 100 100 100
5 224 296 301 288 225 100 100 100
4 63 283 280 61 100 100 100
4 89 91 334 332 100 100 100
4 116 119 391 388 100 100 100
3 17 100 106 100 100 100
5 8 182 184 358 360 100 100 100
4 34 351 343 26 100 100 100
3 11 261 257 100 100 100
5 12 286 285 65 58 100 100 100
4 28 346 349 32 100 100 100
4 197 405 411 208 100 100 100
5 221 228 43 298 293 100 100 100
4 198 394 402 209 100 100 100
6 7 95 85 3 336 328 100 100 100
4 39 308 310 41 100 100 100
5 14 22 24 265 259 100 100 100
4 222 294 291 219 100 100 100
4 199 205 401 395 100 100 100
4 76 321 323 80 100 100 100
4 47 267 268 48 100 100 100
4 191 364 362 188 100 100 100
4 200 396 397 201 100 100 100
5 35 241 240 304 303 100 100 100
4 66 289 279 59 100 100 100
4 15 313 319 16 100 100 100
4 98 369 373 104 100 100 100
4 202 203 407 406 100 100 100
4 26 343 342 25 100 100 100
4 111 112 384 383 100 100 100
4 135 432 438 143 100 100 100
4 137 434 433 136 100 100 100
4 113 385 386 114 100 100 100
3 7 328 339 100 100 100
4 145 439 442 147 100 100 100
4 138 435 436 139 100 100 100
4 212 413 407 203 100 100 100
5 233 344 347 93 235 100 100 100
4 37 306 305 36 100 100 100
5 13 60 61 280 287 100 100 100
5 17 375 370 99 100 100 100 100
6 49 281 290 276 269 50 100 100 100
4 2 3 85 84 100 100 100
7 140 250 247 5 451 457 437 100 100 100
4 45 409 408 44 100 100 100
4 70 314 315 71 100 100 100
5 180 354 365 18 181 100 100 100
5 101 102 20 377 371 100 100 100
4 121 416 424 128 100 100 100
7 21 46 57 56 275 277 255 100 100 100
4 87 330 329 86 100 100 100
4 122 123 418 417 100 100 100
6 141 419 428 132 161 163 100 100 100
5 210 403 398 4 206 100 100 100
4 51 52 271 270 100 100 100
4 221 293 292 220 100 100 100
4 103 372 376 107 100 100 100
4 124 420 426 130 100 100 100
4 62 282 283 63 100 100 100
4 222 227 300 294 100 100 100
4 27 345 346 28 100 100 100
4 72 316 317 73 100 100 100
4 53 54 273 272 100 100 100
5 6 142 143 438 440 100 100 100
4 89 332 331 88 100 100 100
4 125 421 422 126 100 100 100
4 115 116 388 387 100 100 100
4 223 295 296 224 100 100 100
3 14 259 263 100 100 100
4 90 333 334 91 100 100 100
4 117 389 392 120 100 100 100
4 65 285 284 64 100 100 100
7 204 399 404 390 118 175 217 100 100 100
5 16 319 318 74 78 100 100 100
4 29 30 356 355 100 100 100
4 104 373 378 109 100 100 100
4 2 335 336 3 100 100 100
5 93 347 352 337 92 100 100 100
3 8 186 182 100 100 100
5 4 400 401 205 206 100 100 100
5 5 248 249 452 451 100 100 100
4 75 320 321 76 100 100 100
4 183 357 358 184 100 100 100
4 38 307 308 39 100 100 100
5 6 440 439 145 144 100 100 100
4 31 32 349 348 100 100 100
5 7 339 338 94 95 100 100 100
5 8 360 359 185 186 100 100 100
4 187 188 362 361 100 100 100
4 12 13 287 286 100 100 100
4 208 411 410 207 100 100 100
4 55 274 275 56 100 100 100
4 40 41 310 309 100 100 100
5 225 288 289 66 229 100 100 100
4 23 264 265 24 100 100 100
4 15 16 78 77 100 100 100
5 17 106 105 374 375 100 100 100
6 189 195 107 376 381 363 100 100 100
4 209 402 403 210 100 100 100
4 127 128 424 423 100 100 100
4 33 350 351 34 100 100 100
4 130 426 425 129 100 100 100
4 146 147 442 441 100 100 100
4 42 297 298 43 100 100 100
5 19 366 364 191 190 100 100 100
4 79 80 323 322 100 100 100
4 18 365 366 19 100 100 100
5 20 108 109 378 377 100 100 100
4 211 412 413 212 100 100 100
4 119 120 392 391 100 100 100
4 132 428 427 131 100 100 100
4 226 299 300 227 100 100 100
4 242 68 82 244 100 100 100
7 172 170 174 173 169 168 171 100 100 100
13 192 30 29 33 34 26 25 27 28 32 31 234 238 100 100 100
12 241 35 38 39 41 40 37 36 42 43 228 245 100 100 100
6 133 45 44 213 215 134 100 100 100
8 460 461 266 278 276 290 464 462 100 100 100
8 341 471 469 467 468 325 324 340 100 100 100
7 473 474 380 379 393 477 475 100 100 100
6 444 484 486 482 429 443 100 100 100
3 499 511 497 -1 0 0
3 499 511 497 -1 0 0
3 499 511 497 -1 0 0
3 499 511 497 -1 0 0
3 499 511 497 -1 0 0
3 499 511 497 -1 0 0
3 499 511 497 -1 0 0
3 499 511 497 -1 0 0
3 499 511 497 -1 0 0
15 502 496 22 24 23 21 46 497 511 252 251 250 247 248 249 0 -1 0
15 502 496 22 24 23 21 46 497 511 252 251 250 247 248 249 0 -1 0
4 498 499 171 168 100 0 0
6 497 498 168 169 57 46 100 0 0
5 499 511 252 172 171 100 0 0
5 506 500 253 455 447 100 0 0
3 494 493 10 100 0 0
4 509 510 262 260 100 0 0
3 490 489 1 100 0 0
4 501 504 256 254 100 0 0
4 503 508 453 445 100 0 0
6 493 487 0 449 454 10 100 0 0
5 491 507 448 446 9 100 0 0
4 500 501 254 253 100 0 0
5 502 503 445 452 249 100 0 0
3 487 488 0 100 0 0
4 504 505 258 256 100 0 0
6 489 492 9 446 450 1 100 0 0
5 505 495 11 257 258 100 0 0
4 507 506 447 448 100 0 0
6 488 490 1 450 449 0 100 0 0
3 492 491 9 100 0 0
5 508 494 10 454 453 100 0 0
5 495 509 260 261 11 100 0 0
6 510 496 22 14 263 262 100 0 0
