ply
format ascii 1.0
comment converted from made-by-Polyhedron_join_facets_2
element vertex 320
property float x
property float y
property float z
element face 164
property list uchar uint vertex_indices
property uchar red
property uchar green
property uchar blue
end_header
1346 -1797 -924
1343 -1802 -924
1345 -1800 -924
345 -320 1046
377 -279 1046
284 -233 1176
345 -320 1046
380 -394 970
392 -405 953
409 -410 937
465 -490 828
466 -489 828
464 -488 831
555 -627 648
559 -641 634
780 -953 208
782 -951 208
607 -679 563
779 -976 188
787 -993 164
810 -963 164
812 -987 147
814 -1033 114
843 -1058 72
851 -1048 72
870 -1117 2
879 -1115 -4
881 -1121 -11
895 -1103 -11
905 -1222 -116
910 -1238 -134
939 -1291 -205
1053 -1271 -302
1029 -1323 -320
1068 -1275 -320
1051 -1393 -373
1061 -1392 -379
1083 -1364 -379
1106 -1435 -444
1098 -1453 -450
1102 -1456 -455
1115 -1440 -455
-572 1630 -717
-600 1624 -565
-482 1695 -531
-576 1639 -514
-592 1637 -487
-588 1640 -486
-576 1648 -486
-537 1614 -357
-504 1636 -357
-485 1662 -387
-478 1675 -406
-461 1712 -461
-482 1585 -291
-486 1601 -311
-574 1527 -260
-531 1555 -260
-490 1580 -285
-578 1502 -221
-552 1513 -210
2238 1424 -1180
2233 1428 -1180
2235 1427 -1180
2244 1418 -1183
2238 1408 -1209
2197 1401 -1278
2071 1495 -1278
2125 1474 -1244
2189 1440 -1218
2223 1434 -1184
2161 1443 -1333
284 -232 1177
299 -287 1114
325 -338 1046
359 -379 995
547 -635 648
480 -548 769
772 -1024 147
767 -1011 164
782 -1035 132
864 -1129 -4
957 -1358 -302
1023 -1419 -373
1074 -1464 -444
1044 -1448 -411
2264 1315 -1020
1698 1518 -1020
1986 1399 -980
2235 1305 -970
2268 1375 -1102
2262 1393 -1123
2210 1417 -1131
1942 1538 -1163
1614 1656 -1163
1391 1727 -1218
1567 1673 -1165
2086 1485 -1171
1964 1547 -1281
1796 1604 -1273
307 2039 -1165
288 2044 -1165
289 2044 -1165
406 2016 -1167
550 1980 -1175
929 1868 -1235
252 2022 -1235
255 2025 -1227
580 1970 -1281
316 2037 -1295
253 2023 -1237
111 -1105 -3080
24 -1085 -3079
-605 -922 -3079
-1078 -793 -3078
-1109 -722 -3078
-1120 -670 -3078
-1027 -367 -3079
-604 938 -3080
-576 1020 -3080
-405 1020 -3080
-274 990 -3080
-202 969 -3080
559 735 -3081
583 718 -3081
585 691 -3081
178 -860 -3080
-399 1262 91
-379 1217 140
-298 1050 321
-3 511 898
9 490 921
43 445 966
74 413 996
172 326 1075
-402 1347 -11
121 -144 1271
60 -165 1217
-485 -389 671
-491 -392 664
1658 -1198 -1108
1820 -643 -1087
2000 -31 -1054
1638 -1270 -1095
1564 -1522 -1112
1570 -1499 -1114
586 1968 -1281
1011 1844 -1273
2153 1445 -1345
2146 1439 -1357
1884 1320 -1646
-486 -386 669
-142 -105 1038
-66 -13 1108
-60 17 1105
-73 95 1057
-213 413 743
2030 71 -1050
448 4 1075
313 -147 1193
1349 -1804 -930
1420 -1849 -1047
1430 -1838 -1056
1497 -1696 -1086
294 -1392 -2751
670 -1984 -2072
777 -2209 -1802
766 -2232 -1769
756 -2236 -1761
748 -2233 -1762
2147 1417 -1357
2179 1388 -1308
2292 1021 -1045
-362 1757 -556
-764 1360 -2640
-785 1348 -2647
-798 1342 -2631
1264 -2072 -1294
1354 -2026 -1191
1355 -2023 -1187
1290 -1836 -921
523 -627 669
231 -184 1249
191 -147 1292
170 -142 1292
697 -2232 -1738
875 -2230 -1673
1114 -2138 -1447
375 232 1119
483 251 1054
532 263 1019
637 302 930
1439 760 39
1716 921 -271
1418 1718 -1165
226 94 1244
184 23 1274
177 -18 1290
193 -33 1294
214 28 1269
-1187 -844 -2969
-1113 -810 -3043
-633 1149 -2929
-606 1078 -3012
-742 1297 -2728
253 161 1212
251 186 1196
847 1893 -1175
-1154 -1753 -1744
748 -2241 -1746
193 -144 1294
211 -139 1291
215 -121 1291
214 -111 1292
193 -67 1299
171 -96 1301
163 -121 1301
1362 -2021 -1191
1370 -2013 -1181
1368 -2010 -1171
-471 1385 -50
-470 1382 -47
1203 -2098 -1367
1269 -2069 -1294
-291 1032 340
-18 534 872
2278 1161 -933
2271 1134 -933
2259 875 -1025
2308 1056 -1027
2308 1057 -1027
2285 1155 -947
1522 -1651 -1112
1407 -1937 -1156
1357 -2024 -1199
244 -156 1265
253 -145 1261
-423 1626 -360
269 2039 -1151
-621 1439 -2571
-631 1361 -2682
-652 1420 -2607
266 170 1204
299 218 1165
273 226 1165
993 -2049 -1647
280 -129 1240
683 305 880
604 270 967
592 262 980
348 -26 1189
2251 1209 -880
2194 1191 -811
1047 521 476
250 -182 1243
-411 1384 -56
155 -58 1294
-362 975 313
-431 1154 146
-547 1377 -101
-84 183 1006
-176 522 745
148 -65 1293
143 -79 1293
151 -124 1298
227 1994 -1396
-484 1615 -328
2286 1163 -950
2305 1138 -1017
2275 1353 -1083
2265 1228 -913
2249 1415 -1165
297 154 1194
-170 -173 1012
1391 -1913 -1074
1373 -1970 -1118
2307 1057 -1030
2240 1370 -1209
847 -2237 -1702
845 -2237 -1705
1349 -1814 -939
1314 -1861 -960
2236 1237 -886
2258 1223 -898
227 1996 -1381
145 -136 1293
-731 1378 -2630
-666 1412 -2612
-759 1322 -2694
-510 1461 -138
-643 1590 -745
-639 1586 -717
-636 1597 -702
-617 1617 -586
-615 1616 -571
-611 1612 -544
-614 1612 -565
-610 1611 -531
-609 1613 -527
-607 1613 -514
-601 1629 -488
-588 1554 -331
-588 1515 -291
-583 1521 -263
-580 1501 -222
-1251 -731 -2928
-1199 -399 -2861
-986 933 -2567
-772 -572 293
-760 -537 346
-659 549 72
-757 -517 344
-928 1286 -2475
-929 1284 -2482
-1071 -1396 -1072
-1207 -1767 -1690
-1264 -889 -2878
-1263 -908 -2854
-1211 -1741 -1740
-581 1434 -170
3 2 0 1 100 100 100
3 5 3 4 100 100 100
6 9 4 3 6 7 8 100 100 100
3 12 10 11 100 100 100
7 17 11 10 13 14 15 16 100 100 100
5 20 16 15 18 19 100 100 100
6 24 20 19 21 22 23 100 100 100
6 28 24 23 25 26 27 100 100 100
8 34 28 27 29 30 31 32 33 100 100 100
5 37 34 33 35 36 100 100 100
6 41 37 36 38 39 40 100 100 100
4 40 1 0 41 100 100 100
7 53 48 47 49 50 51 52 100 100 100
4 57 56 59 60 100 100 100
3 63 61 62 100 100 100
9 70 62 61 64 65 66 67 68 69 100 100 100
3 67 66 71 100 100 100
6 74 6 3 5 72 73 100 100 100
4 7 6 74 75 100 100 100
7 76 13 10 12 9 8 77 100 100 100
3 14 13 76 100 100 100
5 78 21 19 18 79 100 100 100
4 80 22 21 78 100 100 100
3 81 26 25 100 100 100
4 81 29 27 26 100 100 100
3 32 31 82 100 100 100
5 35 33 32 82 83 100 100 100
6 84 38 36 35 83 85 100 100 100
3 39 38 84 100 100 100
4 89 86 87 88 100 100 100
7 94 87 86 90 91 92 93 100 100 100
7 70 69 95 96 94 93 97 100 100 100
5 69 68 98 99 95 100 100 100
3 102 100 101 100 100 100
7 107 101 100 103 104 105 106 100 100 100
5 110 106 105 108 109 100 100 100
16 111 112 113 114 115 116 117 118 119 120 121 122 123 124 125 126 100 100 100
9 127 128 129 130 131 132 133 134 135 100 100 100
6 140 141 142 143 144 145 100 100 100
9 146 147 99 98 148 149 150 123 122 100 100 100
19 142 157 158 159 17 16 20 24 28 34 37 41 0 2 160 161 162 163 143 100 100 100
8 111 164 165 166 167 168 169 112 100 100 100
7 125 170 171 172 141 140 126 100 100 100
11 188 189 190 191 192 193 88 87 94 96 194 100 100 100
5 195 196 197 198 199 100 100 100
3 202 203 204 100 100 100
6 195 205 206 133 132 196 100 100 100
6 104 207 147 146 108 105 100 100 100
7 210 211 212 213 214 215 216 100 100 100
4 169 208 113 112 100 100 100
5 178 217 218 219 179 100 100 100
4 127 220 221 128 100 100 100
4 177 187 222 223 100 100 100
4 129 224 225 130 100 100 100
6 226 227 228 229 230 231 100 100 100
7 144 232 233 218 217 234 145 100 100 100
4 211 235 236 212 100 100 100
8 100 102 238 173 53 52 237 103 100 100 100
6 95 99 147 207 194 96 100 100 100
5 120 240 241 239 121 100 100 100
5 205 242 243 244 206 100 100 100
3 164 245 165 100 100 100
7 158 247 248 249 250 246 159 100 100 100
7 226 251 252 193 192 253 227 100 100 100
6 182 254 235 211 210 183 100 100 100
11 188 194 207 104 103 237 255 135 134 244 243 100 100 100
5 197 256 215 214 198 100 100 100
5 155 260 261 257 156 100 100 100
6 215 256 262 263 264 216 100 100 100
4 143 163 232 144 100 100 100
7 121 239 265 109 108 146 122 100 100 100
5 177 223 234 217 178 100 100 100
5 51 266 255 237 52 100 100 100
9 145 234 223 222 245 164 111 126 140 100 100 100
4 153 263 262 154 100 100 100
4 267 268 269 270 100 100 100
4 61 63 271 64 100 100 100
9 189 272 199 198 214 213 250 249 190 100 100 100
3 137 273 138 100 100 100
9 154 262 256 197 196 132 131 260 155 100 100 100
7 161 274 275 219 218 233 162 100 100 100
7 91 271 63 62 70 97 92 100 100 100
11 229 276 277 65 64 271 91 90 269 268 230 100 100 100
5 67 71 148 98 68 100 100 100
8 165 245 222 187 186 278 279 166 100 100 100
4 274 280 281 275 100 100 100
5 167 279 278 209 168 100 100 100
5 224 258 257 261 225 100 100 100
5 119 203 202 240 120 100 100 100
7 76 77 181 79 18 15 14 100 100 100
7 25 23 22 80 30 29 81 100 100 100
10 280 160 2 1 40 39 84 85 180 281 100 100 100
7 282 283 270 269 90 86 89 100 100 100
8 65 277 171 170 149 148 71 66 100 100 100
4 265 284 110 109 100 100 100
4 102 101 107 238 100 100 100
8 152 273 137 136 285 264 263 153 100 100 100
5 174 286 287 288 175 100 100 100
4 162 233 232 163 100 100 100
4 57 60 289 58 100 100 100
4 51 50 55 266 100 100 100
4 251 283 282 252 100 100 100
6 202 204 288 287 241 240 100 100 100
12 4 9 12 11 17 159 246 236 235 254 72 5 100 100 100
5 188 243 242 272 189 100 100 100
3 123 150 124 100 100 100
4 114 201 200 115 100 100 100
5 88 193 252 282 89 100 100 100
5 130 225 261 260 131 100 100 100
4 171 277 276 172 100 100 100
4 230 268 267 231 100 100 100
5 179 219 275 281 180 100 100 100
3 166 279 167 100 100 100
7 172 276 229 228 157 142 141 100 100 100
6 128 221 259 258 224 129 100 100 100
4 133 206 244 134 100 100 100
9 127 135 255 266 55 54 58 289 220 100 100 100
6 157 228 227 253 247 158 100 100 100
4 160 280 274 161 100 100 100
5 246 250 213 212 236 100 100 100
6 183 210 216 264 285 184 100 100 100
6 270 283 251 226 231 267 100 100 100
5 195 199 272 242 205 100 100 100
5 191 248 247 253 192 100 100 100
4 72 254 182 73 100 100 100
5 8 7 75 181 77 100 100 100
5 149 170 125 124 150 100 100 100
6 239 241 287 286 284 265 100 100 100
3 92 97 93 100 100 100
4 209 278 186 185 100 100 100
8 173 238 107 106 110 284 286 174 100 100 100
5 138 273 152 151 139 100 100 100
4 190 249 248 191 100 100 100
30 290 291 292 293 294 296 295 297 298 299 300 301 302 303 304 319 310 311 309 308 314 315 318 317 316 305 306 307 313 312 -1 0 0
3 290 291 42 100 0 0
3 291 292 42 100 0 0
6 293 294 43 295 297 44 100 0 0
6 293 294 43 295 297 44 100 0 0
7 297 298 45 46 47 48 44 100 0 0
6 301 302 54 55 50 49 100 0 0
6 302 303 56 57 58 54 100 0 0
3 294 296 43 100 0 0
3 296 295 43 100 0 0
3 298 299 45 100 0 0
4 299 300 46 45 100 0 0
6 309 308 136 137 138 139 100 0 0
8 310 311 151 152 153 154 155 156 100 0 0
12 312 290 42 292 293 44 48 53 173 174 175 176 100 0 0
12 312 290 42 292 293 44 48 53 173 174 175 176 100 0 0
24 314 315 185 186 187 177 178 179 180 85 83 82 31 30 80 78 79 181 75 74 73 182 183 184 100 0 0
4 317 316 200 201 100 0 0
4 306 307 118 117 100 0 0
7 315 318 208 169 168 209 185 100 0 0
6 319 310 156 257 258 259 100 0 0
5 300 301 49 47 46 100 0 0
4 303 304 59 56 100 0 0
5 316 305 116 115 200 100 0 0
8 304 319 259 221 220 289 60 59 100 0 0
6 318 317 201 114 113 208 100 0 0
5 308 314 184 285 136 100 0 0
9 307 313 176 175 288 204 203 119 118 100 0 0
3 313 312 176 100 0 0
4 311 309 139 151 100 0 0
4 305 306 117 116 100 0 0
