ply
format ascii 1.0
comment converted from made-by-Polyhedron_join_facets_2
element vertex 423
property float x
property float y
property float z
element face 213
property list uchar uint vertex_indices
property uchar red
property uchar green
property uchar blue
end_header
1346 -1797 -924
1343 -1802 -924
1345 -1800 -924
345 -320 1046
377 -279 1046
284 -233 1176
345 -320 1046
380 -394 970
392 -405 953
409 -410 937
465 -490 828
466 -489 828
464 -488 831
555 -627 648
559 -641 634
780 -953 208
782 -951 208
607 -679 563
779 -976 188
787 -993 164
810 -963 164
812 -987 147
814 -1033 114
843 -1058 72
851 -1048 72
870 -1117 2
879 -1115 -4
881 -1121 -11
895 -1103 -11
905 -1222 -116
910 -1238 -134
939 -1291 -205
1053 -1271 -302
1029 -1323 -320
1068 -1275 -320
1051 -1393 -373
1061 -1392 -379
1083 -1364 -379
1106 -1435 -444
1098 -1453 -450
1102 -1456 -455
1115 -1440 -455
-1207 1265 -970
-1191 1276 -970
-1204 1269 -969
-1206 1267 -969
-1177 1282 -935
-1082 1340 -869
-1055 1357 -869
-1092 1330 -863
-984 1385 -836
-871 1459 -836
-834 1478 -812
-774 1509 -769
-902 1413 -717
-572 1630 -717
-819 1490 -681
-726 1551 -681
-827 1485 -672
-729 1552 -625
-711 1563 -625
-724 1553 -617
-600 1624 -565
-618 1605 -531
-482 1695 -531
-576 1639 -514
-592 1637 -487
-588 1640 -486
-576 1648 -486
-537 1614 -357
-504 1636 -357
-485 1662 -387
-478 1675 -406
-461 1712 -461
-660 1470 -294
-658 1469 -291
-482 1585 -291
-486 1601 -311
-661 1467 -290
-574 1527 -260
-531 1555 -260
-490 1580 -285
-578 1502 -221
-552 1513 -210
2238 1424 -1180
2233 1428 -1180
2235 1427 -1180
2244 1418 -1183
2238 1408 -1209
2197 1401 -1278
2071 1495 -1278
2125 1474 -1244
2189 1440 -1218
2223 1434 -1184
2161 1443 -1333
284 -232 1177
299 -287 1114
325 -338 1046
359 -379 995
547 -635 648
480 -548 769
772 -1024 147
767 -1011 164
782 -1035 132
864 -1129 -4
957 -1358 -302
1023 -1419 -373
1074 -1464 -444
1044 -1448 -411
2264 1315 -1020
1698 1518 -1020
1986 1399 -980
2235 1305 -970
2268 1375 -1102
2262 1393 -1123
2210 1417 -1131
1942 1538 -1163
1614 1656 -1163
1391 1727 -1218
1567 1673 -1165
2086 1485 -1171
1964 1547 -1281
1796 1604 -1273
-1094 1262 -810
-1092 1258 -805
-1084 1269 -805
-984 1273 -662
-828 1481 -662
-839 1475 -672
-1052 1278 -769
-946 1320 -627
-840 1460 -627
-723 1577 -578
-818 1452 -578
-831 1465 -617
-864 1398 -542
-853 1412 -542
-839 1426 -565
-807 1424 -475
-779 1461 -475
-780 1476 -498
-818 1438 -514
-686 1493 -394
-665 1521 -394
-762 1477 -469
-710 1454 -351
-697 1472 -355
-1118 1308 -863
-1096 1262 -812
-1104 1278 -830
-779 1478 -497
307 2039 -1165
288 2044 -1165
289 2044 -1165
406 2016 -1167
550 1980 -1175
929 1868 -1235
252 2022 -1235
255 2025 -1227
580 1970 -1281
316 2037 -1295
253 2023 -1237
111 -1105 -3080
24 -1085 -3079
-605 -922 -3079
-1078 -793 -3078
-1109 -722 -3078
-1120 -670 -3078
-1027 -367 -3079
-604 938 -3080
-576 1020 -3080
-405 1020 -3080
-274 990 -3080
-202 969 -3080
559 735 -3081
583 718 -3081
585 691 -3081
178 -860 -3080
-399 1262 91
-379 1217 140
-298 1050 321
-3 511 898
9 490 921
43 445 966
74 413 996
172 326 1075
-402 1347 -11
-1202 -778 -177
121 -144 1271
60 -165 1217
-485 -389 671
-491 -392 664
1658 -1198 -1108
1820 -643 -1087
2000 -31 -1054
1638 -1270 -1095
1564 -1522 -1112
1570 -1499 -1114
-1729 869 -1530
-1728 874 -1529
-1727 877 -1529
-1710 929 -1529
-1696 939 -1583
-1752 754 -1599
-1842 501 -1559
586 1968 -1281
1011 1844 -1273
2153 1445 -1345
2146 1439 -1357
1884 1320 -1646
-2053 -231 -1557
-2212 -967 -1495
-2197 -1116 -1407
-426 -323 733
-142 -105 1038
-66 -13 1108
-60 17 1105
-73 95 1057
-213 413 743
2030 71 -1050
448 4 1075
313 -147 1193
1349 -1804 -930
1420 -1849 -1047
1430 -1838 -1056
1497 -1696 -1086
294 -1392 -2751
670 -1984 -2072
777 -2209 -1802
766 -2232 -1769
756 -2236 -1761
748 -2233 -1762
2147 1417 -1357
2179 1388 -1308
2292 1021 -1045
-1691 958 -1542
-362 1757 -556
-764 1360 -2640
-785 1348 -2647
-798 1342 -2631
-1688 958 -1561
1264 -2072 -1294
1354 -2026 -1191
1355 -2023 -1187
1290 -1836 -921
523 -627 669
231 -184 1249
191 -147 1292
170 -142 1292
-1394 -1721 -1685
697 -2232 -1738
875 -2230 -1673
1114 -2138 -1447
375 232 1119
483 251 1054
532 263 1019
637 302 930
1439 760 39
1716 921 -271
1418 1718 -1165
226 94 1244
184 23 1274
177 -18 1290
193 -33 1294
214 28 1269
-2085 -1422 -1848
-2051 -1389 -1904
-1820 -1219 -2220
-1187 -844 -2969
-1113 -810 -3043
-2133 -1477 -1756
-633 1149 -2929
-606 1078 -3012
-742 1297 -2728
253 161 1212
251 186 1196
-2086 -562 -1734
-2078 -518 -1727
-1861 365 -1634
-1773 662 -1624
-1675 924 -1641
-2100 -379 -1575
-2096 -366 -1576
-2203 -1106 -1802
-2221 -1114 -1761
-2201 -818 -1611
-2158 -604 -1577
847 1893 -1175
-1154 -1753 -1744
748 -2241 -1746
-1791 -1622 -1680
-2036 -1559 -1680
193 -144 1294
211 -139 1291
215 -121 1291
214 -111 1292
193 -67 1299
171 -96 1301
163 -121 1301
1362 -2021 -1191
1370 -2013 -1181
1368 -2010 -1171
-471 1385 -50
-470 1382 -47
-2060 -1553 -1680
-2084 -1531 -1648
-2227 -1468 -1604
-2183 -1505 -1658
-2118 -1536 -1682
1203 -2098 -1367
1269 -2069 -1294
-291 1032 340
-18 534 872
2278 1161 -933
2271 1134 -933
2259 875 -1025
2308 1056 -1027
2308 1057 -1027
2285 1155 -947
1522 -1651 -1112
1407 -1937 -1156
1357 -2024 -1199
244 -156 1265
253 -145 1261
-423 1626 -360
269 2039 -1151
-621 1439 -2571
-631 1361 -2682
-652 1420 -2607
266 170 1204
299 218 1165
273 226 1165
993 -2049 -1647
-2234 -1463 -1598
-2046 -1275 -1244
-2242 -1436 -1564
-2239 -1458 -1595
-1978 43 -1576
280 -129 1240
683 305 880
604 270 967
592 262 980
348 -26 1189
2251 1209 -880
2194 1191 -811
1047 521 476
250 -182 1243
-411 1384 -56
-1701 946 -1523
155 -58 1294
-362 975 313
-435 1157 141
-553 1377 -105
-613 1474 -225
-664 1469 -299
-84 183 1006
-176 522 745
148 -65 1293
143 -79 1293
151 -124 1298
227 1994 -1396
-484 1615 -328
-2095 -1268 -1904
-2215 -1484 -1659
-2231 -1472 -1645
-2265 -1438 -1619
-2285 -1391 -1615
-2277 -1338 -1648
-2275 -1331 -1653
-2193 -1163 -1829
2286 1163 -950
2305 1138 -1017
2275 1353 -1083
2265 1228 -913
-2286 -1388 -1580
-2285 -1389 -1577
-2270 -1316 -1506
-2266 -1228 -1547
-2023 -1092 -2038
-1838 -1214 -2203
2249 1415 -1165
297 154 1194
-2223 -1251 -1407
-2233 -1259 -1424
-2266 -1304 -1493
-2278 -1406 -1581
-2244 -1434 -1564
-2132 -1265 -1316
-2151 -1236 -1316
-170 -173 1012
1391 -1913 -1074
1373 -1970 -1118
2307 1057 -1030
2240 1370 -1209
847 -2237 -1702
845 -2237 -1705
1349 -1814 -939
1314 -1861 -960
-2244 -1057 -1587
-2208 -834 -1587
2236 1237 -886
2258 1223 -898
227 1996 -1381
145 -136 1293
-731 1378 -2630
-666 1412 -2612
-759 1322 -2694
-2265 -1438 -1608
-2249 -1454 -1605
-510 1461 -138
-2204 -1493 -1666
-2162 -1509 -1701
-1930 -1177 -1052
-1893 -1149 -996
-2188 -1148 -1839
-2253 -1235 -1474
-2257 -1150 -1547
-2235 -1022 -1520
-2228 -973 -1524
-2199 -782 -1567
-1687 950 -1594
-1665 955 -1641
-666 1465 -296
3 2 0 1 100 100 100
3 5 3 4 100 100 100
6 9 4 3 6 7 8 100 100 100
3 12 10 11 100 100 100
7 17 11 10 13 14 15 16 100 100 100
5 20 16 15 18 19 100 100 100
6 24 20 19 21 22 23 100 100 100
6 28 24 23 25 26 27 100 100 100
8 34 28 27 29 30 31 32 33 100 100 100
5 37 34 33 35 36 100 100 100
6 41 37 36 38 39 40 100 100 100
4 40 1 0 41 100 100 100
4 45 42 43 44 100 100 100
5 48 43 42 46 47 100 100 100
5 51 48 47 49 50 100 100 100
6 55 51 50 52 53 54 100 100 100
4 57 55 54 56 100 100 100
5 60 57 56 58 59 100 100 100
6 64 60 59 61 62 63 100 100 100
6 68 64 63 65 66 67 100 100 100
7 73 68 67 69 70 71 72 100 100 100
6 77 70 69 354 422 76 100 100 100
6 81 76 422 78 79 80 100 100 100
4 80 79 82 83 100 100 100
3 86 84 85 100 100 100
9 93 85 84 87 88 89 90 91 92 100 100 100
3 90 89 94 100 100 100
6 97 6 3 5 95 96 100 100 100
4 7 6 97 98 100 100 100
7 99 13 10 12 9 8 100 100 100 100
3 14 13 99 100 100 100
5 101 21 19 18 102 100 100 100
4 103 22 21 101 100 100 100
3 104 26 25 100 100 100
4 104 29 27 26 100 100 100
3 32 31 105 100 100 100
5 35 33 32 105 106 100 100 100
6 107 38 36 35 106 108 100 100 100
3 39 38 107 100 100 100
4 112 109 110 111 100 100 100
7 117 110 109 113 114 115 116 100 100 100
7 93 92 118 119 117 116 120 100 100 100
5 92 91 121 122 118 100 100 100
3 125 123 124 100 100 100
6 129 125 124 126 127 128 100 100 100
4 131 127 126 130 100 100 100
5 134 131 130 132 133 100 100 100
5 137 133 132 135 136 100 100 100
6 141 136 135 138 139 140 100 100 100
5 144 139 138 145 143 100 100 100
3 143 145 146 100 100 100
4 49 47 46 147 100 100 100
6 148 52 50 49 147 149 100 100 100
6 129 53 52 148 123 125 100 100 100
6 128 58 56 54 53 129 100 100 100
7 134 61 59 58 128 127 131 100 100 100
5 137 62 61 134 133 100 100 100
6 141 65 63 62 137 136 100 100 100
5 141 140 150 66 65 100 100 100
3 153 151 152 100 100 100
7 158 152 151 154 155 156 157 100 100 100
5 161 157 156 159 160 100 100 100
16 162 163 164 165 166 167 168 169 170 171 172 173 174 175 176 177 100 100 100
9 178 179 180 181 182 183 184 185 186 100 100 100
5 187 188 189 190 191 100 100 100
6 192 193 194 195 196 197 100 100 100
6 198 200 201 202 203 204 100 100 100
9 205 206 122 121 207 208 209 174 173 100 100 100
25 198 210 212 213 214 215 216 217 350 351 352 353 78 422 145 138 135 132 130 126 124 123 148 149 200 100 100 100
19 194 219 220 221 17 16 20 24 28 34 37 41 0 2 222 223 224 225 195 100 100 100
8 162 226 227 228 229 230 231 163 100 100 100
7 176 232 233 234 193 192 177 100 100 100
16 43 48 51 55 57 60 64 68 73 236 237 238 239 240 235 44 100 100 100
23 241 242 243 244 108 106 105 31 30 103 101 102 245 98 97 96 246 247 248 249 250 251 252 100 100 100
11 253 254 255 256 257 258 111 110 117 119 259 100 100 100
5 260 261 262 263 264 100 100 100
6 265 266 267 268 269 270 100 100 100
3 271 272 273 100 100 100
6 260 274 275 184 183 261 100 100 100
7 168 276 277 278 279 280 169 100 100 100
8 281 282 277 276 283 284 285 286 100 100 100
6 155 287 206 205 159 156 100 100 100
8 230 289 250 249 290 291 288 231 100 100 100
7 292 293 294 295 296 297 298 100 100 100
4 231 288 164 163 100 100 100
5 242 299 300 301 243 100 100 100
4 178 302 303 179 100 100 100
5 304 305 306 307 308 100 100 100
4 241 252 309 310 100 100 100
4 180 311 312 181 100 100 100
6 313 314 315 316 317 318 100 100 100
7 196 319 320 300 299 321 197 100 100 100
4 293 322 323 294 100 100 100
8 151 153 325 236 73 72 324 154 100 100 100
6 118 122 206 287 259 119 100 100 100
5 171 327 328 326 172 100 100 100
5 274 329 330 331 275 100 100 100
3 226 332 227 100 100 100
4 333 334 335 336 100 100 100
4 277 282 337 278 100 100 100
7 220 339 340 341 342 338 221 100 100 100
7 313 343 344 258 257 345 314 100 100 100
6 246 346 322 293 292 247 100 100 100
11 253 259 287 155 154 324 347 186 185 331 330 100 100 100
8 42 45 348 201 200 149 147 46 100 100 100
5 262 349 297 296 263 100 100 100
0 100 100 100
6 198 204 337 282 281 210 100 100 100
4 217 355 356 350 100 100 100
6 297 349 357 358 359 298 100 100 100
4 195 225 319 196 100 100 100
4 290 305 304 291 100 100 100
7 172 326 360 160 159 205 173 100 100 100
5 241 310 321 299 242 100 100 100
5 71 361 347 324 72 100 100 100
9 197 321 310 309 332 226 162 177 192 100 100 100
4 215 358 357 216 100 100 100
10 265 363 364 365 366 367 368 369 362 266 100 100 100
4 370 371 372 373 100 100 100
8 143 146 354 69 67 66 150 144 100 100 100
4 353 82 79 78 100 100 100
4 374 375 376 377 100 100 100
6 166 268 267 379 378 167 100 100 100
4 84 86 380 87 100 100 100
9 254 381 264 263 296 295 342 341 255 100 100 100
9 382 383 384 376 375 385 386 387 388 100 100 100
3 189 389 190 100 100 100
9 216 357 349 262 261 183 182 355 217 100 100 100
7 223 390 391 301 300 320 224 100 100 100
7 114 380 86 85 93 120 115 100 100 100
11 316 392 393 88 87 380 114 113 372 371 317 100 100 100
5 90 94 207 121 91 100 100 100
8 227 332 309 252 251 394 395 228 100 100 100
4 390 396 397 391 100 100 100
6 398 399 285 284 368 367 100 100 100
5 229 395 394 289 230 100 100 100
5 311 351 350 356 312 100 100 100
5 170 272 271 327 171 100 100 100
7 99 100 245 102 18 15 14 100 100 100
7 25 23 22 103 30 29 104 100 100 100
10 396 222 2 1 40 39 107 108 244 397 100 100 100
7 400 401 373 372 113 109 112 100 100 100
8 88 393 233 232 208 207 94 89 100 100 100
4 360 402 161 160 100 100 100
4 153 152 158 325 100 100 100
8 214 389 189 188 403 359 358 215 100 100 100
5 237 404 405 406 238 100 100 100
4 364 408 407 365 100 100 100
4 224 320 319 225 100 100 100
4 80 83 409 81 100 100 100
4 71 70 77 361 100 100 100
4 410 411 308 307 100 100 100
7 302 409 83 82 353 352 303 100 100 100
6 365 407 385 375 374 366 100 100 100
4 412 413 388 387 100 100 100
5 283 414 369 368 284 100 100 100
3 383 415 384 100 100 100
4 266 362 379 267 100 100 100
6 398 416 417 418 419 399 100 100 100
4 145 422 354 146 100 100 100
4 150 140 139 144 100 100 100
4 343 401 400 344 100 100 100
6 271 273 406 405 328 327 100 100 100
12 4 9 12 11 17 221 338 323 322 346 95 5 100 100 100
6 418 417 415 383 382 212 100 100 100
6 210 281 286 419 418 212 100 100 100
5 253 330 329 381 254 100 100 100
3 174 209 175 100 100 100
4 165 269 268 166 100 100 100
9 304 308 411 270 269 165 164 288 291 100 100 100
5 111 258 344 400 112 100 100 100
5 181 312 356 355 182 100 100 100
6 385 407 408 336 335 386 100 100 100
12 187 413 412 334 333 306 305 290 249 248 403 188 100 100 100
4 233 393 392 234 100 100 100
6 202 420 421 280 279 203 100 100 100
4 317 371 370 318 100 100 100
5 243 301 391 397 244 100 100 100
3 228 395 229 100 100 100
7 234 392 316 315 219 194 193 100 100 100
5 270 411 410 363 265 100 100 100
5 362 369 414 378 379 100 100 100
6 179 303 352 351 311 180 100 100 100
4 184 275 331 185 100 100 100
9 169 280 421 239 238 406 273 272 170 100 100 100
5 334 412 387 386 335 100 100 100
9 178 186 347 361 77 76 81 409 302 100 100 100
4 239 421 420 240 100 100 100
6 219 315 314 345 339 220 100 100 100
4 222 396 390 223 100 100 100
6 366 374 377 416 398 367 100 100 100
7 212 382 388 413 187 191 213 100 100 100
5 338 342 295 294 323 100 100 100
6 247 292 298 359 403 248 100 100 100
6 235 240 420 202 201 348 100 100 100
6 373 401 343 313 318 370 100 100 100
6 378 414 283 276 168 167 100 100 100
8 363 410 307 306 333 336 408 364 100 100 100
5 260 264 381 329 274 100 100 100
5 256 340 339 345 257 100 100 100
4 95 346 246 96 100 100 100
5 8 7 98 245 100 100 100 100
5 208 232 176 175 209 100 100 100
6 326 328 405 404 402 360 100 100 100
4 44 235 348 45 100 100 100
6 384 415 417 416 377 376 100 100 100
3 115 120 116 100 100 100
4 289 394 251 250 100 100 100
8 236 325 158 157 161 402 404 237 100 100 100
4 285 399 419 286 100 100 100
5 190 389 214 213 191 100 100 100
4 255 341 340 256 100 100 100
5 278 337 204 203 279 100 100 100
