ply
format ascii 1.0
comment converted from made-by-Polyhedron_join_facets_2
element vertex 346
property float x
property float y
property float z
element face 175
property list uchar uint vertex_indices
property uchar red
property uchar green
property uchar blue
end_header
345 -320 1046
377 -279 1046
284 -233 1176
345 -320 1046
380 -394 970
392 -405 953
409 -410 937
465 -490 828
466 -489 828
464 -488 831
555 -627 648
559 -641 634
607 -679 563
-1207 1265 -970
-1191 1276 -970
-1204 1269 -969
-1206 1267 -969
-1177 1282 -935
-1082 1340 -869
-1055 1357 -869
-1092 1330 -863
-984 1385 -836
-871 1459 -836
-834 1478 -812
-774 1509 -769
-902 1413 -717
-572 1630 -717
-819 1490 -681
-726 1551 -681
-827 1485 -672
-729 1552 -625
-711 1563 -625
-724 1553 -617
-600 1624 -565
-618 1605 -531
-482 1695 -531
-576 1639 -514
-592 1637 -487
-588 1640 -486
-576 1648 -486
-537 1614 -357
-504 1636 -357
-485 1662 -387
-478 1675 -406
-461 1712 -461
-660 1470 -294
-659 1468 -291
-482 1585 -291
-486 1601 -311
-656 1471 -288
-574 1527 -260
-531 1555 -260
-490 1580 -285
-578 1502 -221
-552 1513 -210
2238 1424 -1180
2233 1428 -1180
2235 1427 -1180
2244 1418 -1183
2238 1408 -1209
2197 1401 -1278
2071 1495 -1278
2125 1474 -1244
2189 1440 -1218
2223 1434 -1184
2161 1443 -1333
284 -232 1177
299 -287 1114
325 -338 1046
359 -379 995
547 -635 648
480 -548 769
1698 1518 -1020
1986 1399 -980
2235 1305 -970
2268 1375 -1102
2262 1393 -1123
2210 1417 -1131
1942 1538 -1163
1614 1656 -1163
1391 1727 -1218
1567 1673 -1165
2086 1485 -1171
1964 1547 -1281
1796 1604 -1273
-1094 1262 -810
-1092 1258 -805
-1084 1269 -805
-984 1273 -662
-828 1481 -662
-839 1475 -672
-1052 1278 -769
-945 1321 -627
-840 1460 -627
-905 1336 -578
-818 1452 -578
-831 1465 -617
-860 1403 -542
-853 1412 -542
-839 1426 -565
-803 1429 -475
-779 1461 -475
-780 1476 -498
-818 1438 -514
-751 1407 -394
-665 1521 -394
-762 1477 -469
-706 1459 -353
-697 1472 -355
-1118 1308 -863
-1096 1262 -812
-1104 1278 -830
-779 1478 -497
307 2039 -1165
288 2044 -1165
289 2044 -1165
406 2016 -1167
550 1980 -1175
929 1868 -1235
252 2022 -1235
255 2025 -1227
580 1970 -1281
316 2037 -1295
253 2023 -1237
-605 -922 -3079
-1078 -793 -3078
-1109 -722 -3078
-1120 -670 -3078
-1027 -367 -3079
-604 938 -3080
-576 1020 -3080
-405 1020 -3080
-274 990 -3080
-202 969 -3080
559 735 -3081
583 718 -3081
585 691 -3081
178 -860 -3080
-399 1262 91
-379 1217 140
-298 1050 321
-3 511 898
9 490 921
43 445 966
74 413 996
172 326 1075
-402 1347 -11
-1202 -778 -177
121 -144 1271
60 -165 1217
-485 -389 671
-491 -392 664
-1729 869 -1530
-1728 874 -1529
-1727 877 -1529
-1710 929 -1529
-1696 939 -1583
-1752 754 -1599
-1842 501 -1559
586 1968 -1281
1011 1844 -1273
2153 1445 -1345
2146 1439 -1357
1884 1320 -1646
-2053 -231 -1557
-2215 -968 -1500
-2217 -1222 -1407
-486 -386 669
-142 -105 1038
-66 -13 1108
-60 17 1105
-73 95 1057
-213 413 743
448 4 1075
313 -147 1193
2147 1417 -1357
2179 1388 -1308
-1691 958 -1542
-362 1757 -556
-764 1360 -2640
-785 1348 -2647
-798 1342 -2631
-1688 958 -1561
523 -627 669
231 -184 1249
191 -147 1292
170 -142 1292
-1394 -1721 -1685
375 232 1119
483 251 1054
532 263 1019
637 302 930
1439 760 39
1716 921 -271
1418 1718 -1165
226 94 1244
184 23 1274
177 -18 1290
193 -33 1294
214 28 1269
-2085 -1422 -1848
-2051 -1389 -1904
-1820 -1219 -2220
-1187 -844 -2969
-1113 -810 -3043
-2133 -1477 -1756
-633 1149 -2929
-606 1078 -3012
-742 1297 -2728
253 161 1212
251 186 1196
-2086 -562 -1734
-2078 -518 -1727
-1861 365 -1634
-1773 662 -1624
-1675 924 -1641
-2100 -379 -1575
-2096 -366 -1576
-2203 -1106 -1802
-2221 -1114 -1761
-2201 -818 -1611
-2158 -604 -1577
847 1893 -1175
-1154 -1753 -1744
-1791 -1622 -1680
-2036 -1559 -1680
193 -144 1294
211 -139 1291
215 -121 1291
214 -111 1292
193 -67 1299
171 -96 1301
163 -121 1301
-471 1385 -50
-470 1382 -47
-2060 -1553 -1680
-2084 -1531 -1648
-2227 -1468 -1604
-2183 -1505 -1658
-2118 -1536 -1682
-291 1032 340
-18 534 872
244 -156 1265
253 -145 1261
-423 1626 -360
269 2039 -1151
-621 1439 -2571
-631 1361 -2682
-652 1420 -2607
266 170 1204
299 218 1165
273 226 1165
-2234 -1463 -1598
-2046 -1275 -1244
-2242 -1436 -1564
-2239 -1458 -1595
-1978 43 -1576
280 -129 1240
683 305 880
604 270 967
592 262 980
348 -26 1189
1047 521 476
250 -182 1243
-411 1384 -56
-1701 946 -1523
155 -58 1294
-362 975 313
-431 1154 146
-547 1377 -101
-608 1478 -225
-665 1469 -300
-84 183 1006
-176 522 745
148 -65 1293
143 -79 1293
151 -124 1298
227 1994 -1396
-484 1615 -328
-2095 -1268 -1904
-2215 -1484 -1659
-2231 -1472 -1645
-2265 -1438 -1619
-2285 -1391 -1615
-2277 -1338 -1648
-2275 -1331 -1653
-2193 -1163 -1829
2275 1353 -1083
-2286 -1388 -1580
-2285 -1389 -1577
-2270 -1316 -1506
-2266 -1228 -1547
-2023 -1092 -2038
-1838 -1214 -2203
2249 1415 -1165
297 154 1194
-2223 -1251 -1407
-2233 -1259 -1424
-2266 -1304 -1493
-2278 -1406 -1581
-2244 -1434 -1564
-2132 -1265 -1316
-2151 -1236 -1316
-170 -173 1012
2240 1370 -1209
-2244 -1057 -1587
-2208 -834 -1587
227 1996 -1381
145 -136 1293
-731 1378 -2630
-666 1412 -2612
-759 1322 -2694
-2265 -1438 -1608
-2249 -1454 -1605
-510 1461 -138
-2204 -1493 -1666
-2162 -1509 -1701
-1930 -1177 -1052
-1893 -1149 -996
-2188 -1148 -1839
-2253 -1235 -1474
-2257 -1150 -1547
-2235 -1022 -1520
-2228 -973 -1524
-2199 -782 -1567
-1687 950 -1594
-1665 955 -1641
657 -780 444
666 -770 444
636 -805 436
2256 1317 -1020
2253 1311 -1002
2265 1330 -1041
2236 1282 -941
164 -910 -3080
19 -1083 -3079
205 -866 -3044
1291 40 -57
-529 -1911 -1750
2209 1289 -1237
-540 -1930 -1707
2163 1174 -776
2046 1021 -674
2275 1348 -1081
2274 1345 -1072
2249 1330 -1186
3 2 0 1 100 100 100
6 6 1 0 3 4 5 100 100 100
3 9 7 8 100 100 100
4 16 13 14 15 100 100 100
5 19 14 13 17 18 100 100 100
5 22 19 18 20 21 100 100 100
6 26 22 21 23 24 25 100 100 100
4 28 26 25 27 100 100 100
5 31 28 27 29 30 100 100 100
6 35 31 30 32 33 34 100 100 100
6 39 35 34 36 37 38 100 100 100
7 44 39 38 40 41 42 43 100 100 100
6 48 41 40 45 46 47 100 100 100
6 52 47 46 49 50 51 100 100 100
4 51 50 53 54 100 100 100
3 57 55 56 100 100 100
9 64 56 55 58 59 60 61 62 63 100 100 100
3 61 60 65 100 100 100
6 68 3 0 2 66 67 100 100 100
4 4 3 68 69 100 100 100
7 70 10 7 9 6 5 71 100 100 100
3 11 10 70 100 100 100
7 64 63 80 81 79 78 82 100 100 100
5 63 62 83 84 80 100 100 100
3 87 85 86 100 100 100
6 91 87 86 88 89 90 100 100 100
4 93 89 88 92 100 100 100
5 96 93 92 94 95 100 100 100
5 99 95 94 97 98 100 100 100
6 103 98 97 100 101 102 100 100 100
5 106 101 100 104 105 100 100 100
4 105 104 107 108 100 100 100
4 20 18 17 109 100 100 100
6 110 23 21 20 109 111 100 100 100
6 91 24 23 110 85 87 100 100 100
6 90 29 27 25 24 91 100 100 100
7 96 32 30 29 90 89 93 100 100 100
5 99 33 32 96 95 100 100 100
6 103 36 34 33 99 98 100 100 100
5 103 102 112 37 36 100 100 100
3 115 113 114 100 100 100
7 120 114 113 116 117 118 119 100 100 100
5 123 119 118 121 122 100 100 100
9 138 139 140 141 142 143 144 145 146 100 100 100
5 147 148 149 150 151 100 100 100
7 152 153 154 155 156 157 158 100 100 100
9 159 160 84 83 161 162 163 134 133 100 100 100
11 152 164 165 166 167 168 169 170 171 172 153 100 100 100
16 14 19 22 26 28 31 35 39 44 178 179 180 181 182 177 15 100 100 100
11 188 189 190 191 192 193 73 72 79 81 194 100 100 100
5 195 196 197 198 199 100 100 100
6 200 201 202 203 204 205 100 100 100
3 206 207 208 100 100 100
6 195 209 210 144 143 196 100 100 100
7 128 211 212 213 214 215 129 100 100 100
8 216 217 212 211 218 219 220 221 100 100 100
6 117 222 160 159 121 118 100 100 100
7 226 227 228 229 230 231 232 100 100 100
4 138 233 234 139 100 100 100
5 235 236 237 238 239 100 100 100
4 140 240 241 141 100 100 100
4 227 242 243 228 100 100 100
8 113 115 245 178 44 43 244 116 100 100 100
6 80 84 160 222 194 81 100 100 100
5 131 247 248 246 132 100 100 100
5 209 249 250 251 210 100 100 100
4 252 253 254 255 100 100 100
4 212 217 256 213 100 100 100
7 173 258 259 260 261 257 174 100 100 100
6 184 263 242 227 226 185 100 100 100
11 188 194 222 117 116 244 264 146 145 251 250 100 100 100
8 13 16 265 155 154 111 109 17 100 100 100
5 197 266 231 230 198 100 100 100
22 153 172 267 268 269 270 49 46 45 271 107 104 100 97 94 92 88 86 85 110 111 154 100 100 100
6 152 158 256 217 216 164 100 100 100
5 171 272 273 267 172 100 100 100
6 231 266 274 275 276 232 100 100 100
4 224 236 235 225 100 100 100
7 132 246 277 122 121 159 133 100 100 100
5 42 278 264 244 43 100 100 100
4 169 275 274 170 100 100 100
10 200 280 281 282 283 284 285 286 279 201 100 100 100
9 105 108 271 45 40 38 37 112 106 100 100 100
4 270 53 50 49 100 100 100
4 288 289 290 291 100 100 100
6 126 203 202 293 292 127 100 100 100
4 55 57 294 58 100 100 100
9 189 295 199 198 230 229 261 260 190 100 100 100
9 296 297 298 290 289 299 300 301 302 100 100 100
3 149 303 150 100 100 100
9 170 274 266 197 196 143 142 272 171 100 100 100
7 76 294 57 56 64 82 77 100 100 100
5 61 65 161 83 62 100 100 100
6 305 306 220 219 285 284 100 100 100
5 240 268 267 273 241 100 100 100
5 130 207 206 247 131 100 100 100
8 59 304 176 175 162 161 65 60 100 100 100
4 277 307 123 122 100 100 100
4 115 114 120 245 100 100 100
8 168 303 149 148 308 276 275 169 100 100 100
5 179 309 310 311 180 100 100 100
4 281 313 312 282 100 100 100
4 51 54 314 52 100 100 100
4 42 41 48 278 100 100 100
4 315 316 239 238 100 100 100
7 233 314 54 53 270 269 234 100 100 100
6 282 312 299 289 288 283 100 100 100
4 317 318 302 301 100 100 100
5 218 319 286 285 219 100 100 100
3 297 320 298 100 100 100
4 201 279 293 202 100 100 100
6 305 321 322 323 324 306 100 100 100
3 107 271 108 100 100 100
4 112 102 101 106 100 100 100
6 206 208 311 310 248 247 100 100 100
12 1 6 9 8 12 174 257 243 242 263 66 2 100 100 100
7 165 323 322 320 297 296 166 100 100 100
6 164 216 221 324 323 165 100 100 100
5 188 250 249 295 189 100 100 100
3 134 163 135 100 100 100
4 125 204 203 126 100 100 100
9 235 239 316 205 204 125 124 223 225 100 100 100
5 141 241 273 272 142 100 100 100
6 299 312 313 255 254 300 100 100 100
12 147 318 317 253 252 237 236 224 187 186 308 148 100 100 100
6 156 325 326 215 214 157 100 100 100
5 205 316 315 280 200 100 100 100
5 279 286 319 292 293 100 100 100
6 139 234 269 268 240 140 100 100 100
4 144 210 251 145 100 100 100
9 129 215 326 181 180 311 208 207 130 100 100 100
5 253 317 301 300 254 100 100 100
9 138 146 264 278 48 47 52 314 233 100 100 100
4 181 326 325 182 100 100 100
6 283 288 291 321 305 284 100 100 100
7 166 296 302 318 147 151 167 100 100 100
5 257 261 229 228 243 100 100 100
6 185 226 232 276 308 186 100 100 100
6 177 182 325 156 155 265 100 100 100
6 292 319 218 211 128 127 100 100 100
8 280 315 238 237 252 255 313 281 100 100 100
5 195 199 295 249 209 100 100 100
5 191 259 258 262 192 100 100 100
4 66 263 184 67 100 100 100
5 5 4 69 183 71 100 100 100
5 162 175 136 135 163 100 100 100
6 246 248 310 309 307 277 100 100 100
4 15 177 265 16 100 100 100
6 298 320 322 321 291 290 100 100 100
3 77 82 78 100 100 100
8 178 245 120 119 123 307 309 179 100 100 100
4 220 306 324 221 100 100 100
5 150 303 168 167 151 100 100 100
4 190 260 259 191 100 100 100
5 213 256 158 157 214 100 100 100
19 327 328 337 342 341 333 331 330 332 344 343 345 339 336 334 335 338 340 329 -1 0 0
7 327 328 12 8 7 10 11 100 0 0
5 331 330 72 73 74 100 0 0
8 330 332 75 76 77 78 79 72 100 0 0
16 334 335 124 125 126 127 128 129 130 131 132 133 134 135 136 137 100 0 0
5 328 337 173 174 12 100 0 0
6 339 336 137 136 175 176 100 0 0
10 340 329 183 69 68 67 184 185 186 187 100 0 0
6 338 340 187 224 225 223 100 0 0
4 335 338 223 124 100 0 0
5 342 341 193 192 262 100 0 0
3 336 334 137 100 0 0
3 344 343 287 100 0 0
9 343 345 304 59 58 294 76 75 287 100 0 0
6 329 327 11 70 71 183 100 0 0
3 333 331 74 100 0 0
4 332 344 287 75 100 0 0
5 341 333 74 73 193 100 0 0
4 345 339 176 304 100 0 0
5 337 342 262 258 173 100 0 0
