ply
format ascii 1.0
comment converted from made-by-Polyhedron_join_facets_2
element vertex 424
property float x
property float y
property float z
element face 214
property list uchar uint vertex_indices
property uchar red
property uchar green
property uchar blue
end_header
1346 -1797 -924
1343 -1802 -924
1345 -1800 -924
345 -320 1046
377 -279 1046
284 -233 1176
345 -320 1046
380 -394 970
392 -405 953
409 -410 937
465 -490 828
466 -489 828
464 -488 831
555 -627 648
559 -641 634
780 -953 208
782 -951 208
607 -679 563
779 -976 188
787 -993 164
810 -963 164
812 -987 147
814 -1033 114
843 -1058 72
851 -1048 72
870 -1117 2
879 -1115 -4
881 -1121 -11
895 -1103 -11
905 -1222 -116
910 -1238 -134
939 -1291 -205
1053 -1271 -302
1029 -1323 -320
1068 -1275 -320
1051 -1393 -373
1061 -1392 -379
1083 -1364 -379
1106 -1435 -444
1098 -1453 -450
1102 -1456 -455
1115 -1440 -455
-1207 1265 -970
-1191 1276 -970
-1204 1269 -969
-1206 1267 -969
-1177 1282 -935
-1082 1340 -869
-1055 1357 -869
-1092 1330 -863
-984 1385 -836
-871 1459 -836
-834 1478 -812
-774 1509 -769
-902 1413 -717
-572 1630 -717
-819 1490 -681
-726 1551 -681
-827 1485 -672
-729 1552 -625
-711 1563 -625
-724 1553 -617
-600 1624 -565
-618 1605 -531
-482 1695 -531
-576 1639 -514
-592 1637 -487
-588 1640 -486
-576 1648 -486
-537 1614 -357
-504 1636 -357
-485 1662 -387
-478 1675 -406
-461 1712 -461
-660 1470 -294
-659 1468 -291
-482 1585 -291
-486 1601 -311
-656 1471 -288
-574 1527 -260
-531 1555 -260
-490 1580 -285
-578 1502 -221
-552 1513 -210
2238 1424 -1180
2233 1428 -1180
2235 1427 -1180
2244 1418 -1183
2238 1408 -1209
2197 1401 -1278
2071 1495 -1278
2125 1474 -1244
2189 1440 -1218
2223 1434 -1184
2161 1443 -1333
284 -232 1177
299 -287 1114
325 -338 1046
359 -379 995
547 -635 648
480 -548 769
772 -1024 147
767 -1011 164
782 -1035 132
864 -1129 -4
957 -1358 -302
1023 -1419 -373
1074 -1464 -444
1044 -1448 -411
2264 1315 -1020
1698 1518 -1020
1986 1399 -980
2235 1305 -970
2268 1375 -1102
2262 1393 -1123
2210 1417 -1131
1942 1538 -1163
1614 1656 -1163
1391 1727 -1218
1567 1673 -1165
2086 1485 -1171
1964 1547 -1281
1796 1604 -1273
-1084 1269 -805
-828 1481 -662
-839 1475 -672
-1052 1278 -769
-945 1321 -627
-840 1460 -627
-905 1336 -578
-818 1452 -578
-831 1465 -617
-860 1403 -542
-853 1412 -542
-839 1426 -565
-803 1429 -475
-779 1461 -475
-780 1476 -498
-818 1438 -514
-751 1407 -394
-665 1521 -394
-762 1477 -469
-706 1459 -353
-697 1472 -355
-1118 1308 -863
-779 1478 -497
307 2039 -1165
288 2044 -1165
289 2044 -1165
406 2016 -1167
550 1980 -1175
929 1868 -1235
252 2022 -1235
255 2025 -1227
580 1970 -1281
316 2037 -1295
253 2023 -1237
111 -1105 -3080
24 -1085 -3079
-605 -922 -3079
-1078 -793 -3078
-1109 -722 -3078
-1120 -670 -3078
-1027 -367 -3079
-604 938 -3080
-576 1020 -3080
-405 1020 -3080
-274 990 -3080
-202 969 -3080
559 735 -3081
583 718 -3081
585 691 -3081
178 -860 -3080
-399 1262 91
-379 1217 140
-298 1050 321
-3 511 898
9 490 921
43 445 966
74 413 996
172 326 1075
-402 1347 -11
-1202 -778 -177
121 -144 1271
60 -165 1217
-485 -389 671
-491 -392 664
1658 -1198 -1108
1820 -643 -1087
2000 -31 -1054
1638 -1270 -1095
1564 -1522 -1112
1570 -1499 -1114
-1696 939 -1583
-1752 754 -1599
-1842 501 -1559
586 1968 -1281
1011 1844 -1273
2153 1445 -1345
2146 1439 -1357
1884 1320 -1646
-2215 -968 -1500
-2217 -1222 -1407
-486 -386 669
2030 71 -1050
448 4 1075
313 -147 1193
1349 -1804 -930
1420 -1849 -1047
1430 -1838 -1056
1497 -1696 -1086
294 -1392 -2751
670 -1984 -2072
777 -2209 -1802
766 -2232 -1769
756 -2236 -1761
748 -2233 -1762
2147 1417 -1357
2179 1388 -1308
2292 1021 -1045
-1691 958 -1542
-362 1757 -556
-764 1360 -2640
-785 1348 -2647
-798 1342 -2631
-1688 958 -1561
1264 -2072 -1294
1354 -2026 -1191
1355 -2023 -1187
1290 -1836 -921
523 -627 669
231 -184 1249
191 -147 1292
170 -142 1292
-1394 -1721 -1685
697 -2232 -1738
875 -2230 -1673
1114 -2138 -1447
375 232 1119
483 251 1054
532 263 1019
637 302 930
1439 760 39
1716 921 -271
1418 1718 -1165
226 94 1244
184 23 1274
177 -18 1290
193 -33 1294
214 28 1269
-2085 -1422 -1848
-2051 -1389 -1904
-1820 -1219 -2220
-1187 -844 -2969
-1113 -810 -3043
-2133 -1477 -1756
-633 1149 -2929
-606 1078 -3012
-742 1297 -2728
253 161 1212
251 186 1196
-2086 -562 -1734
-2078 -518 -1727
-1861 365 -1634
-1773 662 -1624
-1675 924 -1641
-2100 -379 -1575
-2096 -366 -1576
-2203 -1106 -1802
-2221 -1114 -1761
-2201 -818 -1611
-2158 -604 -1577
847 1893 -1175
-1154 -1753 -1744
748 -2241 -1746
-1791 -1622 -1680
-2036 -1559 -1680
193 -144 1294
211 -139 1291
215 -121 1291
214 -111 1292
193 -67 1299
171 -96 1301
163 -121 1301
1362 -2021 -1191
1370 -2013 -1181
1368 -2010 -1171
-471 1385 -50
-470 1382 -47
-2060 -1553 -1680
-2084 -1531 -1648
-2227 -1468 -1604
-2183 -1505 -1658
-2118 -1536 -1682
1203 -2098 -1367
1269 -2069 -1294
-291 1032 340
-18 534 872
2278 1161 -933
2271 1134 -933
2259 875 -1025
2308 1056 -1027
2308 1057 -1027
2285 1155 -947
1522 -1651 -1112
1407 -1937 -1156
1357 -2024 -1199
244 -156 1265
253 -145 1261
-423 1626 -360
269 2039 -1151
-621 1439 -2571
-631 1361 -2682
-652 1420 -2607
266 170 1204
299 218 1165
273 226 1165
993 -2049 -1647
-2234 -1463 -1598
-2046 -1275 -1244
-2242 -1436 -1564
-2239 -1458 -1595
-1978 43 -1576
280 -129 1240
683 305 880
604 270 967
592 262 980
348 -26 1189
2251 1209 -880
2194 1191 -811
1047 521 476
250 -182 1243
-411 1384 -56
155 -58 1294
-431 1154 146
-547 1377 -101
-608 1478 -225
-665 1469 -300
-176 522 745
148 -65 1293
143 -79 1293
151 -124 1298
227 1994 -1396
-484 1615 -328
-2095 -1268 -1904
-2215 -1484 -1659
-2231 -1472 -1645
-2265 -1438 -1619
-2285 -1391 -1615
-2277 -1338 -1648
-2275 -1331 -1653
-2193 -1163 -1829
2286 1163 -950
2305 1138 -1017
2275 1353 -1083
2265 1228 -913
-2286 -1388 -1580
-2285 -1389 -1577
-2270 -1316 -1506
-2266 -1228 -1547
-2023 -1092 -2038
-1838 -1214 -2203
2249 1415 -1165
297 154 1194
-2223 -1251 -1407
-2233 -1259 -1424
-2266 -1304 -1493
-2278 -1406 -1581
-2244 -1434 -1564
-2132 -1265 -1316
-2151 -1236 -1316
-170 -173 1012
1391 -1913 -1074
1373 -1970 -1118
2307 1057 -1030
2240 1370 -1209
847 -2237 -1702
845 -2237 -1705
1349 -1814 -939
1314 -1861 -960
-2244 -1057 -1587
-2208 -834 -1587
2236 1237 -886
2258 1223 -898
227 1996 -1381
145 -136 1293
-731 1378 -2630
-666 1412 -2612
-759 1322 -2694
-2265 -1438 -1608
-2249 -1454 -1605
-510 1461 -138
-2204 -1493 -1666
-2162 -1509 -1701
-1930 -1177 -1052
-1893 -1149 -996
-2188 -1148 -1839
-2253 -1235 -1474
-2257 -1150 -1547
-2235 -1022 -1520
-2228 -973 -1524
-2199 -782 -1567
-1687 950 -1594
-1665 955 -1641
-1373 1159 -1157
-1095 1263 -812
-1093 1263 -809
-1091 1259 -805
-983 1274 -662
-963 1299 -643
-1109 1288 -841
-83 186 1005
-1780 703 -1543
-1709 930 -1533
-2054 -234 -1557
-2053 -231 -1557
-390 -308 773
-145 -111 1036
-63 -14 1111
-56 15 1108
-1699 948 -1526
-376 1011 279
-334 908 377
-121 318 902
3 2 0 1 100 100 100
3 5 3 4 100 100 100
6 9 4 3 6 7 8 100 100 100
3 12 10 11 100 100 100
7 17 11 10 13 14 15 16 100 100 100
5 20 16 15 18 19 100 100 100
6 24 20 19 21 22 23 100 100 100
6 28 24 23 25 26 27 100 100 100
8 34 28 27 29 30 31 32 33 100 100 100
5 37 34 33 35 36 100 100 100
6 41 37 36 38 39 40 100 100 100
4 40 1 0 41 100 100 100
4 45 42 43 44 100 100 100
5 48 43 42 46 47 100 100 100
5 51 48 47 49 50 100 100 100
6 55 51 50 52 53 54 100 100 100
4 57 55 54 56 100 100 100
5 60 57 56 58 59 100 100 100
6 64 60 59 61 62 63 100 100 100
6 68 64 63 65 66 67 100 100 100
7 73 68 67 69 70 71 72 100 100 100
6 77 70 69 74 75 76 100 100 100
6 81 76 75 78 79 80 100 100 100
4 80 79 82 83 100 100 100
3 86 84 85 100 100 100
9 93 85 84 87 88 89 90 91 92 100 100 100
3 90 89 94 100 100 100
6 97 6 3 5 95 96 100 100 100
4 7 6 97 98 100 100 100
7 99 13 10 12 9 8 100 100 100 100
3 14 13 99 100 100 100
5 101 21 19 18 102 100 100 100
4 103 22 21 101 100 100 100
3 104 26 25 100 100 100
4 104 29 27 26 100 100 100
3 32 31 105 100 100 100
5 35 33 32 105 106 100 100 100
6 107 38 36 35 106 108 100 100 100
3 39 38 107 100 100 100
4 112 109 110 111 100 100 100
7 117 110 109 113 114 115 116 100 100 100
7 93 92 118 119 117 116 120 100 100 100
5 92 91 121 122 118 100 100 100
5 131 128 127 129 130 100 100 100
5 134 130 129 132 133 100 100 100
6 138 133 132 135 136 137 100 100 100
5 141 136 135 139 140 100 100 100
4 140 139 142 143 100 100 100
4 49 47 46 144 100 100 100
6 125 58 56 54 53 126 100 100 100
7 131 61 59 58 125 124 128 100 100 100
5 134 62 61 131 130 100 100 100
6 138 65 63 62 134 133 100 100 100
5 138 137 145 66 65 100 100 100
3 148 146 147 100 100 100
7 153 147 146 149 150 151 152 100 100 100
5 156 152 151 154 155 100 100 100
16 157 158 159 160 161 162 163 164 165 166 167 168 169 170 171 172 100 100 100
9 173 174 175 176 177 178 179 180 181 100 100 100
5 182 183 184 185 186 100 100 100
6 187 188 189 190 191 192 100 100 100
9 196 197 122 121 198 199 200 169 168 100 100 100
19 189 204 205 206 17 16 20 24 28 34 37 41 0 2 207 208 209 210 190 100 100 100
8 157 211 212 213 214 215 216 158 100 100 100
7 171 217 218 219 188 187 172 100 100 100
16 43 48 51 55 57 60 64 68 73 221 222 223 224 225 220 44 100 100 100
23 226 227 228 229 108 106 105 31 30 103 101 102 230 98 97 96 231 232 233 234 235 236 237 100 100 100
11 238 239 240 241 242 243 111 110 117 119 244 100 100 100
5 245 246 247 248 249 100 100 100
6 250 251 252 253 254 255 100 100 100
3 256 257 258 100 100 100
6 245 259 260 179 178 246 100 100 100
7 163 261 262 263 264 265 164 100 100 100
8 266 267 262 261 268 269 270 271 100 100 100
6 150 272 197 196 154 151 100 100 100
8 215 274 235 234 275 276 273 216 100 100 100
7 277 278 279 280 281 282 283 100 100 100
4 216 273 159 158 100 100 100
5 227 284 285 286 228 100 100 100
4 173 287 288 174 100 100 100
5 289 290 291 292 293 100 100 100
4 226 237 294 295 100 100 100
4 175 296 297 176 100 100 100
6 298 299 300 301 302 303 100 100 100
7 191 304 305 285 284 306 192 100 100 100
4 278 307 308 279 100 100 100
8 146 148 310 221 73 72 309 149 100 100 100
6 118 122 197 272 244 119 100 100 100
5 166 312 313 311 167 100 100 100
5 259 314 315 316 260 100 100 100
3 211 317 212 100 100 100
4 318 319 320 321 100 100 100
4 262 267 322 263 100 100 100
7 205 324 325 326 327 323 206 100 100 100
7 298 328 329 243 242 330 299 100 100 100
6 231 331 307 278 277 232 100 100 100
11 238 244 272 150 149 309 332 181 180 316 315 100 100 100
5 247 333 282 281 248 100 100 100
6 282 333 339 340 341 283 100 100 100
4 190 210 304 191 100 100 100
4 275 290 289 276 100 100 100
7 167 311 342 155 154 196 168 100 100 100
5 226 295 306 284 227 100 100 100
5 71 343 332 309 72 100 100 100
9 192 306 295 294 317 211 157 172 187 100 100 100
10 250 345 346 347 348 349 350 351 344 251 100 100 100
4 352 353 354 355 100 100 100
9 140 143 337 74 69 67 66 145 141 100 100 100
4 336 82 79 78 100 100 100
4 356 357 358 359 100 100 100
6 161 253 252 361 360 162 100 100 100
4 84 86 362 87 100 100 100
9 239 363 249 248 281 280 327 326 240 100 100 100
9 364 365 366 358 357 367 368 369 370 100 100 100
3 184 371 185 100 100 100
7 208 372 373 286 285 305 209 100 100 100
7 114 362 86 85 93 120 115 100 100 100
11 301 374 375 88 87 362 114 113 354 353 302 100 100 100
5 90 94 198 121 91 100 100 100
8 212 317 294 237 236 376 377 213 100 100 100
4 372 378 379 373 100 100 100
6 380 381 270 269 350 349 100 100 100
5 214 377 376 274 215 100 100 100
5 165 257 256 312 166 100 100 100
7 99 100 230 102 18 15 14 100 100 100
7 25 23 22 103 30 29 104 100 100 100
10 378 207 2 1 40 39 107 108 229 379 100 100 100
7 382 383 355 354 113 109 112 100 100 100
8 88 375 218 217 199 198 94 89 100 100 100
4 342 384 156 155 100 100 100
4 148 147 153 310 100 100 100
5 222 386 387 388 223 100 100 100
4 346 390 389 347 100 100 100
4 209 305 304 210 100 100 100
4 80 83 391 81 100 100 100
4 71 70 77 343 100 100 100
4 392 393 293 292 100 100 100
7 287 391 83 82 336 335 288 100 100 100
6 347 389 367 357 356 348 100 100 100
4 394 395 370 369 100 100 100
5 268 396 351 350 269 100 100 100
3 365 397 366 100 100 100
4 251 344 361 252 100 100 100
6 380 398 399 400 401 381 100 100 100
3 142 337 143 100 100 100
4 145 137 136 141 100 100 100
4 328 383 382 329 100 100 100
6 256 258 388 387 313 312 100 100 100
12 4 9 12 11 17 206 323 308 307 331 95 5 100 100 100
7 201 400 399 397 365 364 202 100 100 100
5 238 315 314 363 239 100 100 100
3 169 200 170 100 100 100
4 160 254 253 161 100 100 100
9 289 293 393 255 254 160 159 273 276 100 100 100
5 111 243 329 382 112 100 100 100
6 367 389 390 321 320 368 100 100 100
12 182 395 394 319 318 291 290 275 234 233 385 183 100 100 100
4 218 375 374 219 100 100 100
6 193 402 403 265 264 194 100 100 100
4 302 353 352 303 100 100 100
5 228 286 373 379 229 100 100 100
3 213 377 214 100 100 100
7 219 374 301 300 204 189 188 100 100 100
5 255 393 392 345 250 100 100 100
5 344 351 396 360 361 100 100 100
6 174 288 335 334 296 175 100 100 100
4 179 260 316 180 100 100 100
9 164 265 403 224 223 388 258 257 165 100 100 100
5 319 394 369 368 320 100 100 100
9 173 181 332 343 77 76 81 391 287 100 100 100
4 224 403 402 225 100 100 100
6 204 300 299 330 324 205 100 100 100
4 207 378 372 208 100 100 100
6 348 356 359 398 380 349 100 100 100
7 202 364 370 395 182 186 203 100 100 100
5 323 327 280 279 308 100 100 100
6 232 277 283 341 385 233 100 100 100
6 355 383 328 298 303 352 100 100 100
6 360 396 268 261 163 162 100 100 100
8 345 392 292 291 318 321 390 346 100 100 100
5 245 249 363 314 259 100 100 100
5 241 325 324 330 242 100 100 100
4 95 331 231 96 100 100 100
5 8 7 98 230 100 100 100 100
5 199 217 171 170 200 100 100 100
6 311 313 387 386 384 342 100 100 100
6 366 397 399 398 359 358 100 100 100
3 115 120 116 100 100 100
4 274 376 236 235 100 100 100
8 221 310 153 152 156 384 386 222 100 100 100
4 270 381 401 271 100 100 100
4 240 326 325 241 100 100 100
5 263 322 195 194 264 100 100 100
20 406 407 408 409 421 422 423 411 419 418 417 416 414 415 412 413 420 404 410 405 -1 0 0
3 406 407 123 100 0 0
6 407 408 124 125 126 123 100 0 0
5 408 409 127 128 124 100 0 0
6 410 405 52 50 49 144 100 0 0
6 405 406 123 126 53 52 100 0 0
5 412 413 193 194 195 100 0 0
5 416 414 201 202 203 100 0 0
6 404 410 144 46 42 45 100 0 0
15 409 421 334 335 336 78 75 74 337 142 139 135 132 129 127 100 0 0
6 415 412 195 322 267 266 100 0 0
3 422 423 338 100 0 0
4 419 418 340 339 100 0 0
8 411 419 339 333 247 246 178 177 100 0 0
6 421 422 338 297 296 334 100 0 0
8 418 417 371 184 183 385 341 340 100 0 0
7 414 415 266 271 401 400 201 100 0 0
6 423 411 177 176 297 338 100 0 0
6 413 420 220 225 402 193 100 0 0
5 420 404 45 44 220 100 0 0
6 417 416 203 186 185 371 100 0 0
