ply
format ascii 1.0
comment converted from made-by-Polyhedron_join_facets_2
element vertex 426
property float x
property float y
property float z
element face 215
property list uchar uint vertex_indices
property uchar red
property uchar green
property uchar blue
end_header
1346 -1797 -924
1343 -1802 -924
1345 -1800 -924
345 -320 1046
377 -279 1046
284 -233 1176
345 -320 1046
380 -394 970
392 -405 953
409 -410 937
465 -490 828
466 -489 828
464 -488 831
555 -627 648
559 -641 634
780 -953 208
782 -951 208
779 -976 188
787 -993 164
812 -987 147
814 -1033 114
843 -1058 72
851 -1048 72
870 -1117 2
879 -1115 -4
881 -1121 -11
895 -1103 -11
905 -1222 -116
910 -1238 -134
939 -1291 -205
1053 -1271 -302
1029 -1323 -320
1068 -1275 -320
1051 -1393 -373
1061 -1392 -379
1083 -1364 -379
1106 -1435 -444
1098 -1453 -450
1102 -1456 -455
1115 -1440 -455
-1207 1265 -970
-1191 1276 -970
-1204 1269 -969
-1206 1267 -969
-1177 1282 -935
-1082 1340 -869
-1055 1357 -869
-1092 1330 -863
-984 1385 -836
-871 1459 -836
-834 1478 -812
-774 1509 -769
-902 1413 -717
-572 1630 -717
-819 1490 -681
-726 1551 -681
-827 1485 -672
-729 1552 -625
-711 1563 -625
-724 1553 -617
-600 1624 -565
-618 1605 -531
-482 1695 -531
-576 1639 -514
-592 1637 -487
-588 1640 -486
-576 1648 -486
-537 1614 -357
-504 1636 -357
-485 1662 -387
-478 1675 -406
-461 1712 -461
-660 1470 -294
-659 1468 -291
-482 1585 -291
-486 1601 -311
-656 1471 -288
-574 1527 -260
-531 1555 -260
-490 1580 -285
-578 1502 -221
-552 1513 -210
2238 1424 -1180
2233 1428 -1180
2235 1427 -1180
2244 1418 -1183
2238 1408 -1209
2197 1401 -1278
2071 1495 -1278
2125 1474 -1244
2189 1440 -1218
2223 1434 -1184
2161 1443 -1333
284 -232 1177
299 -287 1114
325 -338 1046
359 -379 995
547 -635 648
480 -548 769
772 -1024 147
767 -1011 164
782 -1035 132
864 -1129 -4
957 -1358 -302
1023 -1419 -373
1074 -1464 -444
1044 -1448 -411
2264 1315 -1020
1698 1518 -1020
1986 1399 -980
2235 1305 -970
2268 1375 -1102
2262 1393 -1123
2210 1417 -1131
1942 1538 -1163
1614 1656 -1163
1391 1727 -1218
1567 1673 -1165
2086 1485 -1171
1964 1547 -1281
1796 1604 -1273
-1094 1262 -810
-1092 1258 -805
-1084 1269 -805
-984 1273 -662
-828 1481 -662
-839 1475 -672
-1052 1278 -769
-945 1321 -627
-840 1460 -627
-905 1336 -578
-818 1452 -578
-831 1465 -617
-860 1403 -542
-853 1412 -542
-839 1426 -565
-803 1429 -475
-779 1461 -475
-780 1476 -498
-818 1438 -514
-751 1407 -394
-665 1521 -394
-762 1477 -469
-706 1459 -353
-697 1472 -355
-1118 1308 -863
-1096 1262 -812
-1104 1278 -830
-779 1478 -497
307 2039 -1165
288 2044 -1165
289 2044 -1165
406 2016 -1167
550 1980 -1175
929 1868 -1235
252 2022 -1235
255 2025 -1227
580 1970 -1281
316 2037 -1295
253 2023 -1237
111 -1105 -3080
24 -1085 -3079
-605 -922 -3079
-1078 -793 -3078
-1109 -722 -3078
-1120 -670 -3078
-1027 -367 -3079
-604 938 -3080
-576 1020 -3080
-405 1020 -3080
-274 990 -3080
-202 969 -3080
559 735 -3081
583 718 -3081
585 691 -3081
178 -860 -3080
-399 1262 91
-379 1217 140
-298 1050 321
-3 511 898
9 490 921
43 445 966
74 413 996
172 326 1075
-402 1347 -11
-1202 -778 -177
121 -144 1271
60 -165 1217
-485 -389 671
-491 -392 664
1658 -1198 -1108
1820 -643 -1087
1564 -1522 -1112
1570 -1499 -1114
-1729 869 -1530
-1728 874 -1529
-1727 877 -1529
-1710 929 -1529
-1696 939 -1583
-1752 754 -1599
-1842 501 -1559
586 1968 -1281
1011 1844 -1273
2153 1445 -1345
2146 1439 -1357
1884 1320 -1646
-2053 -231 -1557
-2215 -968 -1500
-2217 -1222 -1407
-486 -386 669
-142 -105 1038
-66 -13 1108
-60 17 1105
-73 95 1057
-213 413 743
1349 -1804 -930
1420 -1849 -1047
1430 -1838 -1056
1497 -1696 -1086
294 -1392 -2751
670 -1984 -2072
777 -2209 -1802
766 -2232 -1769
756 -2236 -1761
748 -2233 -1762
2147 1417 -1357
2179 1388 -1308
2292 1021 -1045
-1691 958 -1542
-362 1757 -556
-764 1360 -2640
-785 1348 -2647
-798 1342 -2631
-1688 958 -1561
1264 -2072 -1294
1354 -2026 -1191
1355 -2023 -1187
1290 -1836 -921
523 -627 669
231 -184 1249
191 -147 1292
170 -142 1292
-1394 -1721 -1685
697 -2232 -1738
875 -2230 -1673
1114 -2138 -1447
375 232 1119
483 251 1054
532 263 1019
637 302 930
1439 760 39
1716 921 -271
1418 1718 -1165
226 94 1244
184 23 1274
177 -18 1290
193 -33 1294
214 28 1269
-2085 -1422 -1848
-2051 -1389 -1904
-1820 -1219 -2220
-1187 -844 -2969
-1113 -810 -3043
-2133 -1477 -1756
-633 1149 -2929
-606 1078 -3012
-742 1297 -2728
253 161 1212
251 186 1196
-2086 -562 -1734
-2078 -518 -1727
-1861 365 -1634
-1773 662 -1624
-1675 924 -1641
-2100 -379 -1575
-2096 -366 -1576
-2203 -1106 -1802
-2221 -1114 -1761
-2201 -818 -1611
-2158 -604 -1577
847 1893 -1175
-1154 -1753 -1744
748 -2241 -1746
-1791 -1622 -1680
-2036 -1559 -1680
193 -144 1294
211 -139 1291
215 -121 1291
214 -111 1292
193 -67 1299
171 -96 1301
163 -121 1301
1362 -2021 -1191
1370 -2013 -1181
1368 -2010 -1171
-471 1385 -50
-470 1382 -47
-2060 -1553 -1680
-2084 -1531 -1648
-2227 -1468 -1604
-2183 -1505 -1658
-2118 -1536 -1682
1203 -2098 -1367
1269 -2069 -1294
-291 1032 340
-18 534 872
2278 1161 -933
2271 1134 -933
2259 875 -1025
2308 1056 -1027
2308 1057 -1027
2285 1155 -947
1522 -1651 -1112
1407 -1937 -1156
1357 -2024 -1199
244 -156 1265
253 -145 1261
-423 1626 -360
269 2039 -1151
-621 1439 -2571
-631 1361 -2682
-652 1420 -2607
266 170 1204
299 218 1165
273 226 1165
993 -2049 -1647
-2234 -1463 -1598
-2046 -1275 -1244
-2242 -1436 -1564
-2239 -1458 -1595
-1978 43 -1576
280 -129 1240
683 305 880
604 270 967
592 262 980
348 -26 1189
2251 1209 -880
2194 1191 -811
1047 521 476
250 -182 1243
-411 1384 -56
-1701 946 -1523
155 -58 1294
-362 975 313
-431 1154 146
-547 1377 -101
-608 1478 -225
-665 1469 -300
-84 183 1006
-176 522 745
148 -65 1293
143 -79 1293
151 -124 1298
227 1994 -1396
-484 1615 -328
-2095 -1268 -1904
-2215 -1484 -1659
-2231 -1472 -1645
-2265 -1438 -1619
-2285 -1391 -1615
-2277 -1338 -1648
-2275 -1331 -1653
-2193 -1163 -1829
2286 1163 -950
2305 1138 -1017
2275 1353 -1083
2265 1228 -913
-2286 -1388 -1580
-2285 -1389 -1577
-2270 -1316 -1506
-2266 -1228 -1547
-2023 -1092 -2038
-1838 -1214 -2203
2249 1415 -1165
297 154 1194
-2223 -1251 -1407
-2233 -1259 -1424
-2266 -1304 -1493
-2278 -1406 -1581
-2244 -1434 -1564
-2132 -1265 -1316
-2151 -1236 -1316
-170 -173 1012
1391 -1913 -1074
1373 -1970 -1118
2307 1057 -1030
2240 1370 -1209
847 -2237 -1702
845 -2237 -1705
1349 -1814 -939
1314 -1861 -960
-2244 -1057 -1587
-2208 -834 -1587
2236 1237 -886
2258 1223 -898
227 1996 -1381
145 -136 1293
-731 1378 -2630
-666 1412 -2612
-759 1322 -2694
-2265 -1438 -1608
-2249 -1454 -1605
-510 1461 -138
-2204 -1493 -1666
-2162 -1509 -1701
-1930 -1177 -1052
-1893 -1149 -996
-2188 -1148 -1839
-2253 -1235 -1474
-2257 -1150 -1547
-2235 -1022 -1520
-2228 -973 -1524
-2199 -782 -1567
-1687 950 -1594
-1665 955 -1641
603 -673 571
776 -941 220
790 -954 196
810 -963 164
818 -980 146
1950 -201 -1063
1631 -1295 -1096
1522 -1622 -1088
2199 663 -1032
612 214 939
308 -144 1200
3 2 0 1 100 100 100
3 5 3 4 100 100 100
6 9 4 3 6 7 8 100 100 100
3 12 10 11 100 100 100
6 26 22 21 23 24 25 100 100 100
8 32 26 25 27 28 29 30 31 100 100 100
5 35 32 31 33 34 100 100 100
6 39 35 34 36 37 38 100 100 100
4 38 1 0 39 100 100 100
4 43 40 41 42 100 100 100
5 46 41 40 44 45 100 100 100
5 49 46 45 47 48 100 100 100
6 53 49 48 50 51 52 100 100 100
4 55 53 52 54 100 100 100
5 58 55 54 56 57 100 100 100
6 62 58 57 59 60 61 100 100 100
6 66 62 61 63 64 65 100 100 100
7 71 66 65 67 68 69 70 100 100 100
6 75 68 67 72 73 74 100 100 100
6 79 74 73 76 77 78 100 100 100
4 78 77 80 81 100 100 100
3 84 82 83 100 100 100
9 91 83 82 85 86 87 88 89 90 100 100 100
3 88 87 92 100 100 100
6 95 6 3 5 93 94 100 100 100
4 7 6 95 96 100 100 100
7 97 13 10 12 9 8 98 100 100 100
3 14 13 97 100 100 100
5 99 19 18 17 100 100 100 100
4 101 20 19 99 100 100 100
3 102 24 23 100 100 100
4 102 27 25 24 100 100 100
3 30 29 103 100 100 100
5 33 31 30 103 104 100 100 100
6 105 36 34 33 104 106 100 100 100
3 37 36 105 100 100 100
4 110 107 108 109 100 100 100
7 115 108 107 111 112 113 114 100 100 100
7 91 90 116 117 115 114 118 100 100 100
5 90 89 119 120 116 100 100 100
3 123 121 122 100 100 100
6 127 123 122 124 125 126 100 100 100
4 129 125 124 128 100 100 100
5 132 129 128 130 131 100 100 100
5 135 131 130 133 134 100 100 100
6 139 134 133 136 137 138 100 100 100
5 142 137 136 140 141 100 100 100
4 141 140 143 144 100 100 100
4 47 45 44 145 100 100 100
6 146 50 48 47 145 147 100 100 100
6 127 51 50 146 121 123 100 100 100
6 126 56 54 52 51 127 100 100 100
7 132 59 57 56 126 125 129 100 100 100
5 135 60 59 132 131 100 100 100
6 139 63 61 60 135 134 100 100 100
5 139 138 148 64 63 100 100 100
3 151 149 150 100 100 100
7 156 150 149 152 153 154 155 100 100 100
5 159 155 154 157 158 100 100 100
16 160 161 162 163 164 165 166 167 168 169 170 171 172 173 174 175 100 100 100
9 176 177 178 179 180 181 182 183 184 100 100 100
5 185 186 187 188 189 100 100 100
7 194 195 196 197 198 199 200 100 100 100
9 201 202 120 119 203 204 205 172 171 100 100 100
11 194 206 207 208 209 210 211 212 213 214 195 100 100 100
8 160 219 220 221 222 223 224 161 100 100 100
7 174 225 226 227 191 190 175 100 100 100
16 41 46 49 53 55 58 62 66 71 229 230 231 232 233 228 42 100 100 100
23 234 235 236 237 106 104 103 29 28 101 99 100 238 96 95 94 239 240 241 242 243 244 245 100 100 100
11 246 247 248 249 250 251 109 108 115 117 252 100 100 100
5 253 254 255 256 257 100 100 100
6 258 259 260 261 262 263 100 100 100
3 264 265 266 100 100 100
6 253 267 268 182 181 254 100 100 100
7 166 269 270 271 272 273 167 100 100 100
8 274 275 270 269 276 277 278 279 100 100 100
6 153 280 202 201 157 154 100 100 100
8 223 282 243 242 283 284 281 224 100 100 100
7 285 286 287 288 289 290 291 100 100 100
4 224 281 162 161 100 100 100
5 235 292 293 294 236 100 100 100
4 176 295 296 177 100 100 100
5 297 298 299 300 301 100 100 100
4 234 245 302 303 100 100 100
4 178 304 305 179 100 100 100
6 306 307 308 309 310 311 100 100 100
7 192 312 313 293 292 314 193 100 100 100
4 286 315 316 287 100 100 100
8 149 151 318 229 71 70 317 152 100 100 100
6 116 120 202 280 252 117 100 100 100
5 169 320 321 319 170 100 100 100
5 267 322 323 324 268 100 100 100
3 219 325 220 100 100 100
4 326 327 328 329 100 100 100
4 270 275 330 271 100 100 100
7 306 336 337 251 250 338 307 100 100 100
6 239 339 315 286 285 240 100 100 100
11 246 252 280 153 152 317 340 184 183 324 323 100 100 100
8 40 43 341 197 196 147 145 44 100 100 100
5 255 342 290 289 256 100 100 100
22 195 214 343 344 345 346 76 73 72 347 143 140 136 133 130 128 124 122 121 146 147 196 100 100 100
6 194 200 330 275 274 206 100 100 100
5 213 348 349 343 214 100 100 100
6 290 342 350 351 352 291 100 100 100
4 283 298 297 284 100 100 100
7 170 319 353 158 157 201 171 100 100 100
5 234 303 314 292 235 100 100 100
5 69 354 340 317 70 100 100 100
9 193 314 303 302 325 219 160 175 190 100 100 100
4 211 351 350 212 100 100 100
10 258 356 357 358 359 360 361 362 355 259 100 100 100
4 363 364 365 366 100 100 100
9 141 144 347 72 67 65 64 148 142 100 100 100
4 346 80 77 76 100 100 100
4 367 368 369 370 100 100 100
6 164 261 260 372 371 165 100 100 100
4 82 84 373 85 100 100 100
9 247 374 257 256 289 288 335 334 248 100 100 100
9 375 376 377 369 368 378 379 380 381 100 100 100
3 187 382 188 100 100 100
9 212 350 342 255 254 181 180 348 213 100 100 100
7 216 383 384 294 293 313 217 100 100 100
7 112 373 84 83 91 118 113 100 100 100
11 309 385 386 86 85 373 112 111 365 364 310 100 100 100
5 88 92 203 119 89 100 100 100
8 220 325 302 245 244 387 388 221 100 100 100
4 383 389 390 384 100 100 100
6 391 392 278 277 361 360 100 100 100
5 222 388 387 282 223 100 100 100
5 304 344 343 349 305 100 100 100
5 168 265 264 320 169 100 100 100
7 97 98 238 100 17 15 14 100 100 100
7 23 21 20 101 28 27 102 100 100 100
10 389 215 2 1 38 37 105 106 237 390 100 100 100
7 393 394 366 365 111 107 110 100 100 100
8 86 386 226 225 204 203 92 87 100 100 100
4 353 395 159 158 100 100 100
4 151 150 156 318 100 100 100
8 210 382 187 186 396 352 351 211 100 100 100
5 230 397 398 399 231 100 100 100
4 357 401 400 358 100 100 100
4 217 313 312 218 100 100 100
4 78 81 402 79 100 100 100
4 69 68 75 354 100 100 100
4 403 404 301 300 100 100 100
7 295 402 81 80 346 345 296 100 100 100
6 358 400 378 368 367 359 100 100 100
4 405 406 381 380 100 100 100
5 276 407 362 361 277 100 100 100
3 376 408 377 100 100 100
4 259 355 372 260 100 100 100
6 391 409 410 411 412 392 100 100 100
3 143 347 144 100 100 100
4 148 138 137 142 100 100 100
4 336 394 393 337 100 100 100
6 264 266 399 398 321 320 100 100 100
7 207 411 410 408 376 375 208 100 100 100
6 206 274 279 412 411 207 100 100 100
5 246 323 322 374 247 100 100 100
3 172 205 173 100 100 100
4 163 262 261 164 100 100 100
9 297 301 404 263 262 163 162 281 284 100 100 100
5 109 251 337 393 110 100 100 100
5 179 305 349 348 180 100 100 100
6 378 400 401 329 328 379 100 100 100
12 185 406 405 327 326 299 298 283 242 241 396 186 100 100 100
4 226 386 385 227 100 100 100
6 198 413 414 273 272 199 100 100 100
4 310 364 363 311 100 100 100
5 236 294 384 390 237 100 100 100
3 221 388 222 100 100 100
5 263 404 403 356 258 100 100 100
5 355 362 407 371 372 100 100 100
6 177 296 345 344 304 178 100 100 100
4 182 268 324 183 100 100 100
9 167 273 414 232 231 399 266 265 168 100 100 100
5 327 405 380 379 328 100 100 100
9 176 184 340 354 75 74 79 402 295 100 100 100
4 232 414 413 233 100 100 100
4 215 389 383 216 100 100 100
6 359 367 370 409 391 360 100 100 100
7 208 375 381 406 185 189 209 100 100 100
5 331 335 288 287 316 100 100 100
6 240 285 291 352 396 241 100 100 100
6 228 233 413 198 197 341 100 100 100
6 366 394 336 306 311 363 100 100 100
6 371 407 276 269 166 165 100 100 100
8 356 403 300 299 326 329 401 357 100 100 100
5 253 257 374 322 267 100 100 100
5 249 333 332 338 250 100 100 100
4 93 339 239 94 100 100 100
5 8 7 96 238 98 100 100 100
5 204 225 174 173 205 100 100 100
6 319 321 398 397 395 353 100 100 100
4 42 228 341 43 100 100 100
6 377 408 410 409 370 369 100 100 100
3 113 118 114 100 100 100
4 282 387 244 243 100 100 100
8 229 318 156 155 159 395 397 230 100 100 100
4 278 392 412 279 100 100 100
5 188 382 210 209 189 100 100 100
4 248 334 333 249 100 100 100
5 271 330 200 199 272 100 100 100
11 416 415 425 424 423 420 421 422 419 418 417 -1 0 0
8 416 415 11 10 13 14 15 16 100 0 0
6 418 417 16 15 17 18 100 0 0
7 419 418 18 19 20 21 22 100 0 0
6 420 421 192 193 190 191 100 0 0
13 422 419 22 26 32 35 39 0 2 215 216 217 218 100 0 0
3 417 416 16 100 0 0
7 425 424 332 333 334 335 331 100 0 0
5 421 422 218 312 192 100 0 0
12 415 425 331 316 315 339 93 5 4 9 12 11 100 0 0
7 423 420 191 227 385 309 308 100 0 0
6 424 423 308 307 338 332 100 0 0
