ply
format ascii 1.0
comment converted from made-by-Polyhedron_join_facets_2
element vertex 512
property float x
property float y
property float z
element face 257
property list uchar uint vertex_indices
property uchar red
property uchar green
property uchar blue
end_header
-722 2146 -5410
-541 2150 -5411
2014 -2482 -5208
2081 -2445 -5407
-2921 -1141 -5224
-1540 2069 -5463
-2221 1807 -5392
2095 -2433 -5267
-1378 -2715 -5223
-317 2149 -5439
-861 2139 -5371
940 2038 -5378
2466 1272 -5424
2514 1194 -5266
1308 1967 -5323
2353 -2149 -5366
2368 -2127 -5219
-2110 -2524 -5296
-982 -2771 -5267
-897 -2782 -5361
-2313 -2409 -5236
1491 1916 -5196
1315 1964 -5244
1450 1928 -5211
1319 1963 -5243
656 -2794 -5213
428 -2804 -5239
833 -2784 -5188
966 -2773 -5162
-237 -2813 -5277
-332 -2811 -5277
1180 -2749 -5109
1092 -2760 -5133
42 -2812 -5268
212 -2810 -5257
2668 -1346 -5169
2760 -473 -5286
2749 -662 -5276
2684 -1248 -5191
2707 -1084 -5223
2734 -857 -5258
2730 -903 -5253
-2815 778 -5095
-2783 906 -5072
1602 1879 -5152
2056 1669 -5235
1945 1730 -5221
2289 1488 -5233
2236 1538 -5239
1753 1821 -5188
1825 1788 -5201
2116 1630 -5240
2173 1589 -5241
1702 1843 -5177
1631 1870 -5160
1607 1877 -5154
2450 1293 -5238
2644 885 -5195
2515 1192 -5238
2550 1129 -5234
2606 998 -5217
2576 1073 -5228
2353 1420 -5228
2390 1375 -5233
2667 805 -5177
391 -339 -3260
2361 -878 -4746
313 -385 -3198
2579 -1720 -5155
2614 -1602 -5129
2230 -2293 -5171
2317 -2191 -5184
2423 -2039 -5188
2454 -1987 -5186
2495 -1915 -5182
2337 -2167 -5186
2368 -2125 -5189
2544 -1822 -5175
2536 -1839 -5177
263 -380 -3162
2611 -1528 -5097
270 -381 -3167
2011 -2483 -5171
2086 -2438 -5173
1654 -2650 -5128
1551 -2679 -5103
1923 -2531 -5164
1817 -2582 -5153
1677 -2642 -5133
1750 -2612 -5144
1463 -2699 -5080
1414 -2709 -5065
2145 -2383 -5163
2097 -2430 -5173
-123 -721 -3146
-120 -752 -3169
-2440 -2294 -5121
-2015 -2553 -5082
-2105 -2519 -5102
-2259 -2444 -5128
-2303 -2412 -5129
-1911 -2586 -5054
-2420 -2312 -5122
-2212 -2470 -5122
-2197 -2477 -5119
-1839 -2606 -5034
-2325 -2395 -5128
-2354 -2371 -5127
-129 -725 -3150
-2709 -1945 -5141
-2741 -1878 -5134
-2813 -1682 -5101
-2777 -1788 -5121
-2539 -2195 -5137
-2577 -2154 -5143
-2646 -2056 -5146
-2832 -1613 -5085
-2600 -2126 -5147
-2611 -2113 -5148
-2646 1294 -5156
-2544 1479 -5175
-2487 1550 -5172
-2727 1096 -5118
-2560 1457 -5175
-2595 1392 -5168
-2695 1181 -5136
-2661 1260 -5150
-2766 969 -5087
-2746 1040 -5106
-2485 1552 -5172
-2418 1625 -5164
-2781 912 -5071
-2780 909 -5069
-2060 1901 -5181
-2026 1918 -5177
-1925 1959 -5161
-1747 2016 -5123
-1827 1994 -5142
-1697 2027 -5109
-2380 1665 -5164
-2184 1825 -5184
-2115 1870 -5184
-2235 1789 -5182
-2261 1770 -5181
-2339 1702 -5171
-2275 1758 -5179
2328 1446 -5225
2340 1434 -5225
258 -380 -3159
2174 -2353 -5160
2152 -2376 -5161
-123 -719 -3144
-124 -717 -3143
-93 -368 -2975
258 -380 -3159
-2440 -2293 -5120
-2468 -2266 -5121
-117 -390 -2975
-124 -716 -3142
-2404 1640 -5161
-519 -350 -3168
-2384 1660 -5163
-116 -345 -2975
-108 -6 -3155
-140 -366 -2975
-495 -357 -3153
-105 28 -3179
-108 9 -3165
-120 21 -3176
-85 614 -3630
-211 368 -3453
-109 2 -3160
-117 15 -3171
-2842 -1572 -5074
-574 -358 -3205
-534 -354 -3177
-511 -355 -3162
-515 -354 -3164
-848 2139 -5325
215 2121 -5396
409 2104 -5385
-1182 2110 -5244
-796 2141 -5334
657 2076 -5359
-475 2149 -5377
778 2060 -5344
-50 2138 -5399
-252 2146 -5394
-572 2148 -5367
-670 2146 -5354
-285 2147 -5392
-370 2148 -5386
-893 2135 -5315
-1130 2115 -5257
1064 2015 -5292
942 2037 -5318
1185 1991 -5263
1189 1990 -5262
1419 1864 -5067
641 1626 -4582
-18 1518 -4334
-1154 -2748 -5209
-981 -2771 -5238
-1393 -2710 -5159
-1632 -2660 -5088
-1547 -2679 -5116
-1298 -2726 -5181
-1356 -2717 -5168
-503 -2806 -5272
-593 -2801 -5269
-1716 -2638 -5055
-812 -2786 -5255
-723 -2793 -5262
-480 -2806 -5272
-158 -2246 -4317
-776 -2333 -4496
-1800 -2615 -5022
-1800 -2615 -5022
-2847 611 -5126
-2947 -685 -5236
-2886 -1390 -5135
-2950 -292 -5248
-2951 -488 -5246
-2941 -121 -5240
-2938 -86 -5237
-2846 -1557 -5077
-2905 -1274 -5164
-2918 -1144 -5186
-2903 257 -5195
-2885 378 -5173
-2938 -897 -5219
-2934 -969 -5211
-2908 208 -5202
-2925 60 -5221
-2827 715 -5100
-2448 -339 -4552
-2762 764 -5011
-2544 231 -4698
-2844 -1564 -5074
-2586 -957 -4730
2725 454 -5227
2739 323 -5247
2711 559 -5206
2689 695 -5175
2680 743 -5162
2678 751 -5163
2677 751 -5161
2380 54 -4758
1300 -2730 -5070
1265 -2735 -5079
1364 -2718 -5050
1344 -2709 -5036
463 -2383 -4527
766 -2710 -5045
-68 -2267 -4348
2635 -1518 -5125
2353 -808 -4731
2626 -1554 -5117
2618 -1541 -5106
-1569 2054 -5124
-1340 2091 -5201
-1329 2093 -5204
-1641 2038 -5093
-1581 2010 -5050
-753 1687 -4565
-1215 2106 -5234
-66 1530 -4350
198 2125 -5529
485 2100 -5510
1451 1933 -5530
538 2094 -5508
844 2054 -5502
766 2065 -5502
1312 1969 -5516
1094 2013 -5504
966 2036 -5501
1161 2001 -5507
1197 1993 -5509
1437 1938 -5528
1411 1944 -5525
1330 1562 -5920
2062 1667 -5471
1931 1739 -5480
2234 1540 -5482
1730 1834 -5508
1872 1768 -5487
2110 1636 -5470
2167 1595 -5474
1650 1867 -5522
1621 1878 -5528
2264 1513 -5489
1547 1902 -5546
1331 1562 -5919
2650 871 -5488
2548 1135 -5446
2295 1483 -5481
2603 1008 -5461
2579 1069 -5452
2356 1418 -5464
2392 1374 -5456
2466 1272 -5446
2519 1187 -5444
2672 787 -5509
2666 817 -5501
2272 1505 -5489
2730 435 -5499
2757 78 -5507
2763 -74 -5516
2733 403 -5499
2717 529 -5501
2695 669 -5509
2764 -299 -5536
2764 -181 -5525
2751 197 -5502
2750 204 -5502
2677 764 -5516
2238 578 -5939
2666 -1361 -5505
2636 -1519 -5511
2760 -473 -5538
2749 -683 -5520
2688 -1224 -5503
2705 -1103 -5504
2746 -711 -5518
2729 -911 -5507
2762 -391 -5547
2759 -391 -5550
2352 -2152 -5428
2585 -1704 -5481
2613 -1611 -5509
2243 -2283 -5444
2288 -2229 -5436
2428 -2035 -5430
2382 -2106 -5428
2434 -2024 -5430
2511 -1888 -5441
2542 -1828 -5449
2526 -1861 -5444
2171 -2359 -5459
2245 -1454 -5879
2620 -1584 -5517
2261 -1452 -5868
2086 -2442 -5425
1616 -2669 -5429
1563 -2684 -5439
1911 -2541 -5414
1829 -2581 -5414
1666 -2652 -5423
1749 -2617 -5417
1984 -2502 -5417
2082 -2445 -5424
1463 -2709 -5460
2142 -2390 -5446
2115 -2416 -5435
2168 -2362 -5459
1305 -2319 -5868
634 -2802 -5446
520 -2806 -5449
1310 -2739 -5464
797 -2793 -5445
1024 -2775 -5448
1354 -2732 -5469
1196 -2756 -5455
1089 -2769 -5450
25 -2817 -5470
245 -2813 -5460
1401 -2722 -5475
1297 -2339 -5853
-1115 -2760 -5424
-231 -2817 -5477
-433 -2813 -5456
-1619 -2675 -5445
-1594 -2681 -5443
-1261 -2739 -5427
-1394 -2718 -5431
-495 -2811 -5450
-552 -2808 -5446
-1662 -2665 -5450
-738 -2796 -5435
-1018 -2772 -5424
-894 -2784 -5428
-178 -2817 -5483
-178 -2813 -5487
-2465 -2284 -5429
-2025 -2562 -5413
-2268 -2448 -5390
-1929 -2593 -5432
-2388 -2355 -5409
-2215 -2477 -5392
-2106 -2529 -5401
-1851 -2616 -5451
-2319 -2411 -5396
-2375 -2365 -5406
-2488 -2262 -5436
-1613 -2250 -5852
-1792 -2632 -5466
-1610 -2262 -5844
-2713 -1967 -5385
-2760 -1870 -5388
-2828 -1698 -5407
-2800 -1776 -5396
-2530 -2219 -5425
-2593 -2149 -5404
-2667 -2047 -5387
-2850 -1624 -5421
-2623 -2113 -5395
-2645 -2084 -5390
-2499 -2251 -5436
-2958 -706 -5426
-2899 -1410 -5408
-2963 -301 -5464
-2963 -461 -5447
-2942 -1015 -5409
-2873 -1531 -5420
-2923 -1236 -5404
-2919 -1274 -5403
-2951 -864 -5416
-2944 -987 -5410
-2858 -1594 -5428
-2870 588 -5448
-2959 -189 -5477
-2946 -16 -5464
-2835 779 -5453
-2817 857 -5459
-2915 278 -5451
-2901 382 -5449
-2929 156 -5455
-2939 59 -5460
-2959 -202 -5479
-2953 -203 -5485
-2656 1303 -5420
-2557 1477 -5418
-2518 1527 -5427
-2395 1663 -5464
-2742 1102 -5445
-2576 1450 -5415
-2618 1376 -5416
-2707 1190 -5432
-2682 1246 -5425
-2776 1007 -5463
-2770 1025 -5459
-2442 1613 -5448
-2441 1615 -5449
-2333 1720 -5488
-2786 971 -5472
-2392 849 -5863
-2071 1901 -5442
-2019 1928 -5440
-1923 1967 -5445
-1723 2030 -5474
-1843 1996 -5454
-1669 2043 -5485
-2131 1868 -5447
-2275 1769 -5473
-2222 1808 -5461
-2326 1727 -5488
-2314 1737 -5485
-2326 1727 -5489
-1470 1632 -5930
-1275 2106 -5476
-326 2150 -5511
-48 2141 -5543
-212 2147 -5524
-720 2147 -5482
-537 2152 -5492
-1540 2070 -5490
-1315 2102 -5477
-1064 2126 -5474
-874 2141 -5475
-16 2139 -5548
-16 2135 -5552
-1610 2056 -5498
-1469 1635 -5928
-67 1179 -6213
1475 803 -6211
1328 1557 -5923
1499 778 -6211
1812 -341 -6210
2212 598 -5950
2230 579 -5945
1810 -416 -6210
1412 -1537 -6211
2238 -1451 -5884
1403 -1546 -6211
-13 -1788 -6213
1302 -2311 -5873
-130 -1784 -6213
-1605 -1480 -6215
-1603 -2232 -5865
-1612 -1473 -6215
-1908 -254 -6216
-2416 -1394 -5875
-2418 -1389 -5874
-2418 -1392 -5874
-1908 -247 -6216
-2386 851 -5867
-2373 865 -5872
-149 1182 -6213
-1465 1620 -5937
-1597 896 -6215
-1598 898 -6214
2680 744 -5162
2636 -1513 -5126
2659 -1393 -5156
2761 -396 -5286
2763 -323 -5287
2763 -172 -5285
2280 -406 -4627
2755 106 -5271
2762 -78 -5283
2752 169 -5266
2744 265 -5254
25 194 195 185 183 180 179 186 187 190 191 184 188 189 182 178 192 193 181 265 266 200 199 198 197 196 -1 -1 -1
19 214 215 217 216 210 204 205 203 207 206 201 202 211 212 209 208 213 253 254 -1 -1 -1
22 235 237 236 234 218 229 228 232 233 224 223 221 222 219 230 231 227 226 220 225 238 239 -1 -1 -1
7 153 154 148 147 146 163 162 -1 -1 -1
8 153 157 158 152 151 150 149 154 -1 -1 -1
6 157 164 165 156 155 158 -1 -1 -1
11 163 171 172 161 159 160 177 176 165 164 162 -1 -1 -1
8 473 497 498 458 472 470 280 475 -1 -1 -1
8 477 479 316 326 341 339 482 480 -1 -1 -1
9 484 485 355 367 382 396 394 488 486 -1 -1 -1
6 429 445 495 494 490 492 -1 -1 -1
7 248 250 251 252 254 253 249 -1 -1 -1
8 259 262 263 264 266 265 261 260 -1 -1 -1
4 166 199 200 169 -1 -1 -1
6 44 198 199 166 167 55 -1 -1 -1
15 53 54 55 167 171 163 146 47 48 52 51 45 46 50 49 -1 -1 -1
14 65 245 64 57 60 61 59 58 56 63 62 147 148 79 -1 -1 -1
4 66 67 81 80 -1 -1 -1
18 69 257 80 81 79 148 154 149 70 71 75 76 72 73 74 78 77 68 -1 -1 -1
17 82 83 93 92 150 151 94 251 250 91 90 85 84 88 89 87 86 -1 -1 -1
4 94 95 252 251 -1 -1 -1
4 95 214 254 252 -1 -1 -1
7 94 151 152 108 215 214 95 -1 -1 -1
3 108 217 215 -1 -1 -1
18 102 107 106 100 99 103 104 98 97 101 105 216 217 108 152 158 155 96 -1 -1 -1
14 111 112 110 109 115 118 117 114 113 156 165 176 173 116 -1 -1 -1
3 174 235 239 -1 -1 -1
4 174 175 237 235 -1 -1 -1
6 132 236 237 175 177 160 -1 -1 -1
16 127 131 132 160 159 130 129 121 120 123 124 119 126 125 122 128 -1 -1 -1
18 168 263 262 138 136 137 135 134 133 141 140 142 143 145 144 139 161 172 -1 -1 -1
4 168 170 264 263 -1 -1 -1
5 169 200 266 264 170 -1 -1 -1
7 173 176 177 175 174 239 238 -1 -1 -1
18 274 276 277 273 279 278 269 291 292 280 470 469 267 268 270 272 271 275 -1 -1 -1
12 281 286 287 283 290 292 291 289 288 284 285 282 -1 -1 -1
16 316 479 478 304 295 298 299 300 301 294 297 296 293 303 302 315 -1 -1 -1
14 305 308 314 313 306 307 312 311 325 326 316 315 310 309 -1 -1 -1
12 319 320 323 324 322 321 317 318 340 341 326 325 -1 -1 -1
15 336 337 335 334 332 333 327 331 330 338 339 341 340 329 328 -1 -1 -1
16 352 353 342 350 349 345 346 348 347 343 344 351 366 367 355 354 -1 -1 -1
14 358 362 363 360 359 356 357 365 364 381 382 367 366 361 -1 -1 -1
17 376 378 380 379 368 373 374 372 371 377 395 396 382 381 369 370 375 -1 -1 -1
14 394 396 395 390 386 384 389 388 385 391 392 387 383 393 -1 -1 -1
14 401 402 405 406 403 397 398 400 399 404 418 493 491 407 -1 -1 -1
15 408 411 410 428 429 492 493 418 413 409 415 414 412 417 416 -1 -1 -1
13 420 421 427 426 424 425 419 422 423 444 445 429 428 -1 -1 -1
18 434 437 438 430 436 435 431 432 441 442 433 443 496 495 445 444 439 440 -1 -1 -1
15 455 456 453 454 452 446 447 448 450 449 451 471 472 458 457 -1 -1 -1
14 459 467 468 463 464 460 462 461 469 470 472 471 465 466 -1 -1 -1
3 473 475 474 -1 -1 -1
4 478 479 477 476 -1 -1 -1
3 480 482 481 -1 -1 -1
3 483 485 484 -1 -1 -1
3 486 488 487 -1 -1 -1
5 489 491 493 492 490 -1 -1 -1
5 495 496 500 499 494 -1 -1 -1
4 499 500 498 497 -1 -1 -1
15 473 474 476 477 480 481 483 484 486 487 489 490 494 499 497 -1 -1 -1
4 153 162 164 157 -1 -1 -1
5 29 369 381 364 33 -1 -1 -1
5 179 267 469 461 186 -1 -1 -1
5 221 223 420 428 410 -1 -1 -1
4 97 384 386 101 -1 -1 -1
4 136 138 451 449 -1 -1 -1
4 111 116 404 399 -1 -1 -1
4 49 284 288 53 -1 -1 -1
6 139 144 455 457 443 433 -1 -1 -1
4 68 77 336 328 -1 -1 -1
4 122 125 437 434 -1 -1 -1
8 70 149 150 92 352 354 338 330 -1 -1 -1
8 96 155 156 113 401 407 393 383 -1 -1 -1
4 84 343 347 88 -1 -1 -1
4 57 293 296 60 -1 -1 -1
6 47 146 147 62 298 295 -1 -1 -1
4 201 206 373 368 -1 -1 -1
3 10 192 178 -1 -1 -1
4 196 276 274 194 -1 -1 -1
3 4 412 414 -1 -1 -1
5 31 362 358 248 249 -1 -1 -1
5 218 234 42 422 419 -1 -1 -1
4 35 317 321 38 -1 -1 -1
4 109 397 403 115 -1 -1 -1
4 133 134 447 446 -1 -1 -1
4 72 332 334 73 -1 -1 -1
5 2 82 86 345 349 -1 -1 -1
4 51 286 281 45 -1 -1 -1
4 12 56 58 13 -1 -1 -1
4 120 431 435 123 -1 -1 -1
4 99 385 388 103 -1 -1 -1
4 25 356 359 27 -1 -1 -1
3 1 188 184 -1 -1 -1
4 183 270 268 180 -1 -1 -1
4 18 19 211 202 -1 -1 -1
4 219 222 411 408 -1 -1 -1
3 5 259 260 -1 -1 -1
4 210 377 371 204 -1 -1 -1
4 228 424 426 232 -1 -1 -1
4 40 323 320 37 -1 -1 -1
4 21 269 278 23 -1 -1 -1
3 6 142 140 -1 -1 -1
4 220 409 413 225 -1 -1 -1
4 124 436 430 119 -1 -1 -1
6 43 131 127 439 444 423 -1 -1 -1
4 112 400 398 110 -1 -1 -1
4 137 450 448 135 -1 -1 -1
3 20 100 106 -1 -1 -1
4 121 129 441 432 -1 -1 -1
4 85 90 351 344 -1 -1 -1
4 48 283 287 52 -1 -1 -1
4 46 282 285 50 -1 -1 -1
5 208 375 370 30 213 -1 -1 -1
5 15 75 71 331 327 -1 -1 -1
6 255 257 69 329 340 318 -1 -1 -1
4 61 297 294 59 -1 -1 -1
4 87 89 348 346 -1 -1 -1
4 114 117 405 402 -1 -1 -1
3 17 98 104 -1 -1 -1
5 8 203 205 372 374 -1 -1 -1
4 34 365 357 26 -1 -1 -1
3 11 275 271 -1 -1 -1
5 12 300 299 63 56 -1 -1 -1
4 28 360 363 32 -1 -1 -1
4 181 193 467 459 -1 -1 -1
4 218 419 425 229 -1 -1 -1
4 219 408 416 230 -1 -1 -1
6 7 93 83 3 350 342 -1 -1 -1
4 39 322 324 41 -1 -1 -1
6 10 178 182 0 463 468 -1 -1 -1
5 187 462 460 9 190 -1 -1 -1
5 14 22 24 279 273 -1 -1 -1
4 220 226 415 409 -1 -1 -1
4 74 335 337 78 -1 -1 -1
4 45 281 282 46 -1 -1 -1
4 212 378 376 209 -1 -1 -1
4 221 410 411 222 -1 -1 -1
4 64 303 293 57 -1 -1 -1
4 15 327 333 16 -1 -1 -1
4 96 383 387 102 -1 -1 -1
4 223 224 421 420 -1 -1 -1
4 179 180 268 267 -1 -1 -1
4 26 357 356 25 -1 -1 -1
4 109 110 398 397 -1 -1 -1
4 133 446 452 141 -1 -1 -1
4 135 448 447 134 -1 -1 -1
4 111 399 400 112 -1 -1 -1
3 7 342 353 -1 -1 -1
4 143 453 456 145 -1 -1 -1
4 136 449 450 137 -1 -1 -1
4 233 427 421 224 -1 -1 -1
5 248 358 361 91 250 -1 -1 -1
4 37 320 319 36 -1 -1 -1
5 13 58 59 294 301 -1 -1 -1
5 17 389 384 97 98 -1 -1 -1
6 47 295 304 290 283 48 -1 -1 -1
4 2 3 83 82 -1 -1 -1
7 138 262 259 5 465 471 451 -1 -1 -1
4 43 423 422 42 -1 -1 -1
4 68 328 329 69 -1 -1 -1
5 201 368 379 18 202 -1 -1 -1
5 181 459 466 261 265 -1 -1 -1
5 99 100 20 391 385 -1 -1 -1
4 119 430 438 126 -1 -1 -1
7 21 44 55 54 289 291 269 -1 -1 -1
4 85 344 343 84 -1 -1 -1
4 120 121 432 431 -1 -1 -1
6 139 433 442 130 159 161 -1 -1 -1
5 231 417 412 4 227 -1 -1 -1
3 0 182 189 -1 -1 -1
4 183 185 272 270 -1 -1 -1
4 49 50 285 284 -1 -1 -1
4 101 386 390 105 -1 -1 -1
6 1 184 191 9 460 464 -1 -1 -1
4 122 434 440 128 -1 -1 -1
4 60 296 297 61 -1 -1 -1
4 27 359 360 28 -1 -1 -1
4 70 330 331 71 -1 -1 -1
5 185 195 11 271 272 -1 -1 -1
4 51 52 287 286 -1 -1 -1
5 6 140 141 452 454 -1 -1 -1
4 87 346 345 86 -1 -1 -1
4 123 435 436 124 -1 -1 -1
4 113 114 402 401 -1 -1 -1
3 14 273 277 -1 -1 -1
4 88 347 348 89 -1 -1 -1
4 186 461 462 187 -1 -1 -1
4 115 403 406 118 -1 -1 -1
4 63 299 298 62 -1 -1 -1
7 225 413 418 404 116 173 238 -1 -1 -1
5 16 333 332 72 76 -1 -1 -1
4 29 30 370 369 -1 -1 -1
6 0 189 188 1 464 463 -1 -1 -1
4 102 387 392 107 -1 -1 -1
4 2 349 350 3 -1 -1 -1
5 91 361 366 351 90 -1 -1 -1
3 8 207 203 -1 -1 -1
5 4 414 415 226 227 -1 -1 -1
5 5 260 261 466 465 -1 -1 -1
4 73 334 335 74 -1 -1 -1
4 204 371 372 205 -1 -1 -1
4 38 321 322 39 -1 -1 -1
5 6 454 453 143 142 -1 -1 -1
4 31 32 363 362 -1 -1 -1
5 7 353 352 92 93 -1 -1 -1
5 8 374 373 206 207 -1 -1 -1
4 208 209 376 375 -1 -1 -1
3 9 191 190 -1 -1 -1
5 10 468 467 193 192 -1 -1 -1
5 11 195 194 274 275 -1 -1 -1
4 12 13 301 300 -1 -1 -1
6 14 277 276 196 197 22 -1 -1 -1
4 229 425 424 228 -1 -1 -1
4 53 288 289 54 -1 -1 -1
4 40 41 324 323 -1 -1 -1
4 23 278 279 24 -1 -1 -1
4 15 16 76 75 -1 -1 -1
5 17 104 103 388 389 -1 -1 -1
6 210 216 105 390 395 377 -1 -1 -1
4 230 416 417 231 -1 -1 -1
4 125 126 438 437 -1 -1 -1
4 33 364 365 34 -1 -1 -1
4 128 440 439 127 -1 -1 -1
4 144 145 456 455 -1 -1 -1
5 19 380 378 212 211 -1 -1 -1
4 77 78 337 336 -1 -1 -1
4 18 379 380 19 -1 -1 -1
5 20 106 107 392 391 -1 -1 -1
4 232 426 427 233 -1 -1 -1
4 117 118 406 405 -1 -1 -1
4 130 442 441 129 -1 -1 -1
7 170 168 172 171 167 166 169 -1 -1 -1
7 24 22 197 198 44 21 23 -1 -1 -1
13 213 30 29 33 34 26 25 27 28 32 31 249 253 -1 -1 -1
6 131 43 42 234 236 132 -1 -1 -1
8 474 475 280 292 290 304 478 476 -1 -1 -1
8 355 485 483 481 482 339 338 354 -1 -1 -1
7 487 488 394 393 407 491 489 -1 -1 -1
6 458 498 500 496 443 457 -1 -1 -1
18 501 247 507 256 502 503 504 505 506 509 508 510 511 241 240 242 243 244 -1 0 0
4 247 501 245 65 0 -1 0
6 507 247 65 79 81 67 0 -1 0
4 256 507 67 66 0 -1 0
6 505 504 36 319 325 311 0 -1 0
4 242 240 305 309 0 -1 0
4 510 508 306 313 0 -1 0
5 244 243 310 315 302 0 -1 0
4 509 506 312 307 0 -1 0
4 240 241 308 305 0 -1 0
6 503 502 255 318 317 35 0 -1 0
4 508 509 307 306 0 -1 0
4 241 511 314 308 0 -1 0
4 243 242 309 310 0 -1 0
6 501 244 302 303 64 245 0 -1 0
4 506 505 311 312 0 -1 0
4 511 510 313 314 0 -1 0
6 502 256 66 80 257 255 0 -1 0
9 504 503 35 38 39 41 40 37 36 0 -1 0
