ply
format ascii 1.0
comment converted from made-by-Polyhedron_join_facets_2
element vertex 266
property float x
property float y
property float z
element face 135
property list uchar uint vertex_indices
property uchar red
property uchar green
property uchar blue
end_header
1346 -1797 -924
1343 -1802 -924
1345 -1800 -924
345 -320 1046
377 -279 1046
345 -320 1046
380 -394 970
392 -405 953
409 -410 937
465 -490 828
466 -489 828
464 -488 831
555 -627 648
559 -641 634
780 -953 208
782 -951 208
607 -679 563
779 -976 188
787 -993 164
810 -963 164
812 -987 147
814 -1033 114
843 -1058 72
851 -1048 72
870 -1117 2
879 -1115 -4
881 -1121 -11
895 -1103 -11
905 -1222 -116
910 -1238 -134
939 -1291 -205
1053 -1271 -302
1029 -1323 -320
1068 -1275 -320
1051 -1393 -373
1061 -1392 -379
1083 -1364 -379
1106 -1435 -444
1098 -1453 -450
1102 -1456 -455
1115 -1440 -455
2238 1424 -1180
2233 1428 -1180
2235 1427 -1180
2244 1418 -1183
2238 1408 -1209
2197 1401 -1278
2071 1495 -1278
2125 1474 -1244
2189 1440 -1218
2223 1434 -1184
2161 1443 -1333
325 -338 1046
359 -379 995
547 -635 648
480 -548 769
772 -1024 147
767 -1011 164
782 -1035 132
864 -1129 -4
957 -1358 -302
1023 -1419 -373
1074 -1464 -444
1044 -1448 -411
2264 1315 -1020
1698 1518 -1020
1986 1399 -980
2235 1305 -970
2268 1375 -1102
2262 1393 -1123
2210 1417 -1131
1942 1538 -1163
1614 1656 -1163
1391 1727 -1218
1567 1673 -1165
2086 1485 -1171
1964 1547 -1281
1796 1604 -1273
550 1980 -1175
929 1868 -1235
580 1970 -1281
111 -1105 -3080
24 -1085 -3079
-605 -922 -3079
-1078 -793 -3078
-1109 -722 -3078
-1120 -670 -3078
-1027 -367 -3079
-604 938 -3080
-576 1020 -3080
-405 1020 -3080
-274 990 -3080
-202 969 -3080
559 735 -3081
583 718 -3081
585 691 -3081
178 -860 -3080
1658 -1198 -1108
1820 -643 -1087
2000 -31 -1054
1638 -1270 -1095
1564 -1522 -1112
1570 -1499 -1114
586 1968 -1281
1011 1844 -1273
2153 1445 -1345
2146 1439 -1357
1884 1320 -1646
-2215 -968 -1500
-2217 -1222 -1407
2030 71 -1050
1349 -1804 -930
1420 -1849 -1047
1430 -1838 -1056
1497 -1696 -1086
294 -1392 -2751
670 -1984 -2072
777 -2209 -1802
766 -2232 -1769
756 -2236 -1761
748 -2233 -1762
2147 1417 -1357
2179 1388 -1308
2292 1021 -1045
-764 1360 -2640
-785 1348 -2647
-798 1342 -2631
1264 -2072 -1294
1354 -2026 -1191
1355 -2023 -1187
1290 -1836 -921
523 -627 669
-1394 -1721 -1685
697 -2232 -1738
875 -2230 -1673
1114 -2138 -1447
1439 760 39
1716 921 -271
1418 1718 -1165
-2085 -1422 -1848
-2051 -1389 -1904
-1820 -1219 -2220
-1187 -844 -2969
-1113 -810 -3043
-2133 -1477 -1756
-633 1149 -2929
-606 1078 -3012
-742 1297 -2728
-2086 -562 -1734
-2078 -518 -1727
-2203 -1106 -1802
-2221 -1114 -1761
-2201 -818 -1611
847 1893 -1175
-1154 -1753 -1744
748 -2241 -1746
-1791 -1622 -1680
-2036 -1559 -1680
1362 -2021 -1191
1370 -2013 -1181
1368 -2010 -1171
-2060 -1553 -1680
-2084 -1531 -1648
-2227 -1468 -1604
-2183 -1505 -1658
-2118 -1536 -1682
1203 -2098 -1367
1269 -2069 -1294
2278 1161 -933
2271 1134 -933
2259 875 -1025
2308 1056 -1027
2308 1057 -1027
2285 1155 -947
1522 -1651 -1112
1407 -1937 -1156
1357 -2024 -1199
-621 1439 -2571
-631 1361 -2682
-652 1420 -2607
993 -2049 -1647
-2234 -1463 -1598
-2046 -1275 -1244
-2242 -1436 -1564
-2239 -1458 -1595
2251 1209 -880
2194 1191 -811
1047 521 476
-2095 -1268 -1904
-2215 -1484 -1659
-2231 -1472 -1645
-2265 -1438 -1619
-2285 -1391 -1615
-2277 -1338 -1648
-2275 -1331 -1653
-2193 -1163 -1829
2286 1163 -950
2305 1138 -1017
2275 1353 -1083
2265 1228 -913
-2286 -1388 -1580
-2285 -1389 -1577
-2270 -1316 -1506
-2266 -1228 -1547
-2023 -1092 -2038
-1838 -1214 -2203
2249 1415 -1165
-2223 -1251 -1407
-2233 -1259 -1424
-2266 -1304 -1493
-2278 -1406 -1581
-2244 -1434 -1564
-2132 -1265 -1316
-2151 -1236 -1316
1391 -1913 -1074
1373 -1970 -1118
2307 1057 -1030
2240 1370 -1209
847 -2237 -1702
845 -2237 -1705
1349 -1814 -939
1314 -1861 -960
-2244 -1057 -1587
-2208 -834 -1587
2236 1237 -886
2258 1223 -898
-731 1378 -2630
-666 1412 -2612
-759 1322 -2694
-2265 -1438 -1608
-2249 -1454 -1605
-2204 -1493 -1666
-2162 -1509 -1701
-1930 -1177 -1052
-1893 -1149 -996
-2188 -1148 -1839
-2253 -1235 -1474
-2257 -1150 -1547
-2235 -1022 -1520
-2228 -973 -1524
-2199 -782 -1567
338 -310 1061
367 -274 1060
376 -261 1057
320 -328 1059
482 1997 -1171
419 1984 -1235
400 2016 -1291
-1277 929 -2176
-1434 -902 -452
-2159 -715 -1520
-1526 -888 -578
532 8 962
-638 1485 -1986
-1106 1209 -2261
-1118 1199 -2266
-176 -492 632
679 666 453
723 351 834
-2049 -401 -1714
-2083 -473 -1681
-2170 -664 -1586
-2177 -684 -1573
134 1934 -1525
710 321 850
101 1915 -1545
3 2 0 1 100 100 100
6 8 4 3 5 6 7 100 100 100
3 11 9 10 100 100 100
7 16 10 9 12 13 14 15 100 100 100
5 19 15 14 17 18 100 100 100
6 23 19 18 20 21 22 100 100 100
6 27 23 22 24 25 26 100 100 100
8 33 27 26 28 29 30 31 32 100 100 100
5 36 33 32 34 35 100 100 100
6 40 36 35 37 38 39 100 100 100
4 39 1 0 40 100 100 100
3 43 41 42 100 100 100
9 50 42 41 44 45 46 47 48 49 100 100 100
3 47 46 51 100 100 100
4 6 5 52 53 100 100 100
7 54 12 9 11 8 7 55 100 100 100
3 13 12 54 100 100 100
5 56 20 18 17 57 100 100 100
4 58 21 20 56 100 100 100
3 59 25 24 100 100 100
4 59 28 26 25 100 100 100
3 31 30 60 100 100 100
5 34 32 31 60 61 100 100 100
6 62 37 35 34 61 63 100 100 100
3 38 37 62 100 100 100
4 67 64 65 66 100 100 100
7 72 65 64 68 69 70 71 100 100 100
7 50 49 73 74 72 71 75 100 100 100
5 49 48 76 77 73 100 100 100
16 81 82 83 84 85 86 87 88 89 90 91 92 93 94 95 96 100 100 100
6 97 98 99 100 101 102 100 100 100
9 103 104 77 76 105 106 107 93 92 100 100 100
8 81 115 116 117 118 119 120 82 100 100 100
7 95 121 122 123 98 97 96 100 100 100
6 139 140 141 142 143 144 100 100 100
3 145 146 147 100 100 100
6 78 153 104 103 80 79 100 100 100
8 119 155 133 132 156 157 154 120 100 100 100
4 120 154 83 82 100 100 100
5 128 158 159 160 129 100 100 100
5 161 162 163 164 165 100 100 100
4 127 135 166 167 100 100 100
6 168 169 170 171 172 173 100 100 100
7 101 174 175 159 158 176 102 100 100 100
6 73 77 104 153 138 74 100 100 100
5 90 178 179 177 91 100 100 100
3 115 180 116 100 100 100
4 181 182 183 184 100 100 100
7 168 185 186 137 136 187 169 100 100 100
4 100 114 174 101 100 100 100
4 156 162 161 157 100 100 100
5 127 167 176 158 128 100 100 100
9 102 176 167 166 180 115 81 96 97 100 100 100
10 139 189 190 191 192 193 194 195 188 140 100 100 100
4 196 197 198 199 100 100 100
4 200 201 202 203 100 100 100
6 85 142 141 205 204 86 100 100 100
4 41 43 206 44 100 100 100
9 207 208 209 202 201 210 211 212 213 100 100 100
7 112 214 215 160 159 175 113 100 100 100
7 69 206 43 42 50 75 70 100 100 100
11 171 216 217 45 44 206 69 68 198 197 172 100 100 100
5 47 51 105 76 48 100 100 100
8 116 180 166 135 134 218 219 117 100 100 100
4 214 220 221 215 100 100 100
6 222 223 152 151 194 193 100 100 100
5 118 219 218 155 119 100 100 100
5 89 146 145 178 90 100 100 100
7 54 55 131 57 17 14 13 100 100 100
7 24 22 21 58 29 28 59 100 100 100
10 220 111 2 1 39 38 62 63 130 221 100 100 100
7 224 225 199 198 68 64 67 100 100 100
8 45 217 122 121 106 105 51 46 100 100 100
5 124 226 227 228 125 100 100 100
4 190 230 229 191 100 100 100
4 113 175 174 114 100 100 100
4 231 232 165 164 100 100 100
6 191 229 210 201 200 192 100 100 100
4 233 234 213 212 100 100 100
5 150 235 195 194 151 100 100 100
3 208 236 209 100 100 100
4 140 188 205 141 100 100 100
6 222 237 238 239 240 223 100 100 100
4 185 225 224 186 100 100 100
6 145 147 228 227 179 178 100 100 100
7 108 239 238 236 208 207 109 100 100 100
3 93 107 94 100 100 100
4 84 143 142 85 100 100 100
9 161 165 232 144 143 84 83 154 157 100 100 100
5 66 137 186 224 67 100 100 100
6 210 229 230 184 183 211 100 100 100
4 122 217 216 123 100 100 100
4 172 197 196 173 100 100 100
5 129 160 215 221 130 100 100 100
3 117 219 118 100 100 100
7 123 216 171 170 110 99 98 100 100 100
5 144 232 231 189 139 100 100 100
5 188 195 235 204 205 100 100 100
5 182 233 212 211 183 100 100 100
4 111 220 214 112 100 100 100
6 192 200 203 237 222 193 100 100 100
6 199 225 185 168 173 196 100 100 100
6 204 235 150 148 87 86 100 100 100
8 189 231 164 163 181 184 230 190 100 100 100
5 7 6 53 131 55 100 100 100
5 106 121 95 94 107 100 100 100
6 209 236 238 237 203 202 100 100 100
3 70 75 71 100 100 100
4 155 218 134 133 100 100 100
25 242 241 244 256 249 251 250 262 261 260 259 248 255 254 253 265 263 247 246 245 257 258 264 252 243 -1 0 0
4 242 241 3 4 100 0 0
5 241 244 52 5 3 100 0 0
4 246 245 78 79 100 0 0
4 247 246 79 80 100 0 0
4 251 250 108 109 100 0 0
19 252 243 16 15 19 23 27 33 36 40 0 2 111 112 113 114 100 99 110 100 0 0
5 254 253 124 125 126 100 0 0
21 244 256 132 133 134 135 127 128 129 130 63 61 60 30 29 58 56 57 131 53 52 100 0 0
9 257 258 136 137 66 65 72 74 138 100 0 0
6 259 248 88 87 148 149 100 0 0
7 261 260 149 148 150 151 152 100 0 0
3 260 259 149 100 0 0
5 245 257 138 153 78 100 0 0
7 263 247 80 103 92 91 177 100 0 0
7 243 242 4 8 11 10 16 100 0 0
5 250 262 240 239 108 100 0 0
10 256 249 234 233 182 181 163 162 156 132 100 0 0
9 248 255 126 125 228 147 146 89 88 100 0 0
3 255 254 126 100 0 0
6 264 252 110 170 169 187 100 0 0
6 249 251 109 207 213 234 100 0 0
4 258 264 187 136 100 0 0
6 265 263 177 179 227 226 100 0 0
4 253 265 226 124 100 0 0
5 262 261 152 223 240 100 0 0
