ply
format ascii 1.0
comment converted from made-by-Polyhedron_join_facets_2
element vertex 48
property float x
property float y
property float z
element face 18
property list uchar uint vertex_indices
property uchar red
property uchar green
property uchar blue
end_header
-4 97 -1348
1864 161 -1793
2163 160 -2073
-3145 2874 -4938
-2364 3071 -5201
-1056 681 -6099
1985 144 -1616
-1056 681 -6099
1757 -1258 -3222
1864 161 -1793
385 -952 -3701
4875 4107 -6277
1864 161 -1793
-1318 -3269 -5697
1860 157 -1800
4875 4107 -6277
1817 112 -1867
-1058 -358 -246
1749 -1358 -3323
-49 -4 -1246
1864 161 -1793
3101 3107 -5412
1785 -889 -2854
-2521 234 -2857
-490 -87 -1570
-166 -1408 -2384
709 136 -3036
1829 136 -2425
1359 252 -2540
1485 -1665 -3971
-266 -152 -788
522 506 -3983
723 121 -1520
3102 3112 -5415
2074 157 -2020
-28 -79 -1529
2037 174 -1842
1871 166 -1811
-30 83 -1379
1623 709 -3026
2807 209 -2063
3264 2765 -5151
1864 161 -1793
2389 188 -1928
1874 136 -1765
2842 -38 -3526
1539 58 -2245
2389 188 -1928
3 43 1 3 100 100 100
3 38 43 1 100 100 100
3 3 1 33 100 100 100
2 8 1 100 100 100
3 5 15 1 100 100 100
3 5 13 15 100 100 100
3 1 13 5 100 100 100
3 8 1 16 100 100 100
3 15 16 1 100 100 100
4 13 1 16 15 100 100 100
1 1 100 100 100
2 1 33 100 100 100
2 43 46 100 100 100
3 1 43 38 100 100 100
3 43 38 46 100 100 100
3 43 46 38 100 100 100
3 1 43 33 100 100 100
3 3 33 43 100 100 100
