ply
format ascii 1.0
comment converted from made-by-Polyhedron_join_facets_2
element vertex 424
property float x
property float y
property float z
element face 214
property list uchar uint vertex_indices
property uchar red
property uchar green
property uchar blue
end_header
1346 -1797 -924
1343 -1802 -924
1345 -1800 -924
345 -320 1046
377 -279 1046
284 -233 1176
345 -320 1046
380 -394 970
392 -405 953
409 -410 937
465 -490 828
466 -489 828
464 -488 831
555 -627 648
559 -641 634
780 -953 208
782 -951 208
607 -679 563
779 -976 188
787 -993 164
810 -963 164
812 -987 147
814 -1033 114
843 -1058 72
851 -1048 72
870 -1117 2
879 -1115 -4
881 -1121 -11
895 -1103 -11
905 -1222 -116
910 -1238 -134
939 -1291 -205
1053 -1271 -302
1029 -1323 -320
1068 -1275 -320
1051 -1393 -373
1061 -1392 -379
1083 -1364 -379
1106 -1435 -444
1098 -1453 -450
1102 -1456 -455
1115 -1440 -455
-1207 1265 -970
-1191 1276 -970
-1204 1269 -969
-1206 1267 -969
-1177 1282 -935
-1082 1340 -869
-1055 1357 -869
-1092 1330 -863
-984 1385 -836
-834 1478 -812
-774 1509 -769
-902 1413 -717
-819 1490 -681
-827 1485 -672
-729 1552 -625
-724 1553 -617
-600 1624 -565
-618 1605 -531
-576 1639 -514
-592 1637 -487
-588 1640 -486
-537 1614 -357
-504 1636 -357
-485 1662 -387
-478 1675 -406
-660 1470 -294
-659 1468 -291
-482 1585 -291
-486 1601 -311
-656 1471 -288
-574 1527 -260
-531 1555 -260
-490 1580 -285
-578 1502 -221
-552 1513 -210
2238 1424 -1180
2233 1428 -1180
2235 1427 -1180
2244 1418 -1183
2238 1408 -1209
2197 1401 -1278
2071 1495 -1278
2125 1474 -1244
2189 1440 -1218
2223 1434 -1184
2161 1443 -1333
284 -232 1177
299 -287 1114
325 -338 1046
359 -379 995
547 -635 648
480 -548 769
772 -1024 147
767 -1011 164
782 -1035 132
864 -1129 -4
957 -1358 -302
1023 -1419 -373
1074 -1464 -444
1044 -1448 -411
2264 1315 -1020
1698 1518 -1020
1986 1399 -980
2235 1305 -970
2268 1375 -1102
2262 1393 -1123
2210 1417 -1131
1942 1538 -1163
1614 1656 -1163
1391 1727 -1218
1567 1673 -1165
2086 1485 -1171
1964 1547 -1281
1796 1604 -1273
-1094 1262 -810
-1092 1258 -805
-1084 1269 -805
-984 1273 -662
-828 1481 -662
-839 1475 -672
-1052 1278 -769
-945 1321 -627
-840 1460 -627
-905 1336 -578
-818 1452 -578
-831 1465 -617
-860 1403 -542
-853 1412 -542
-839 1426 -565
-803 1429 -475
-779 1461 -475
-780 1476 -498
-818 1438 -514
-751 1407 -394
-665 1521 -394
-762 1477 -469
-706 1459 -353
-697 1472 -355
-1118 1308 -863
-1096 1262 -812
-1104 1278 -830
-779 1478 -497
307 2039 -1165
288 2044 -1165
289 2044 -1165
406 2016 -1167
550 1980 -1175
929 1868 -1235
252 2022 -1235
255 2025 -1227
580 1970 -1281
316 2037 -1295
253 2023 -1237
111 -1105 -3080
24 -1085 -3079
-605 -922 -3079
-1078 -793 -3078
-1109 -722 -3078
-1120 -670 -3078
-1027 -367 -3079
-604 938 -3080
-576 1020 -3080
-405 1020 -3080
-274 990 -3080
-202 969 -3080
559 735 -3081
583 718 -3081
585 691 -3081
178 -860 -3080
-399 1262 91
-379 1217 140
-298 1050 321
-3 511 898
9 490 921
43 445 966
74 413 996
172 326 1075
-402 1347 -11
-1202 -778 -177
121 -144 1271
60 -165 1217
-485 -389 671
-491 -392 664
1658 -1198 -1108
1820 -643 -1087
2000 -31 -1054
1638 -1270 -1095
1564 -1522 -1112
1570 -1499 -1114
-1729 869 -1530
-1728 874 -1529
-1727 877 -1529
-1710 929 -1529
-1696 939 -1583
-1752 754 -1599
-1842 501 -1559
586 1968 -1281
1011 1844 -1273
2153 1445 -1345
2146 1439 -1357
1884 1320 -1646
-2053 -231 -1557
-2215 -968 -1500
-2217 -1222 -1407
-486 -386 669
-142 -105 1038
-66 -13 1108
-60 17 1105
-73 95 1057
-213 413 743
2030 71 -1050
448 4 1075
313 -147 1193
1349 -1804 -930
1420 -1849 -1047
1430 -1838 -1056
1497 -1696 -1086
294 -1392 -2751
670 -1984 -2072
777 -2209 -1802
766 -2232 -1769
756 -2236 -1761
748 -2233 -1762
2147 1417 -1357
2179 1388 -1308
2292 1021 -1045
-1691 958 -1542
-1688 958 -1561
1264 -2072 -1294
1354 -2026 -1191
1355 -2023 -1187
1290 -1836 -921
523 -627 669
231 -184 1249
191 -147 1292
170 -142 1292
-1394 -1721 -1685
697 -2232 -1738
875 -2230 -1673
1114 -2138 -1447
375 232 1119
483 251 1054
532 263 1019
637 302 930
1439 760 39
1716 921 -271
1418 1718 -1165
226 94 1244
184 23 1274
177 -18 1290
193 -33 1294
214 28 1269
-2085 -1422 -1848
-2051 -1389 -1904
-1820 -1219 -2220
-1187 -844 -2969
-1113 -810 -3043
-2133 -1477 -1756
-633 1149 -2929
-606 1078 -3012
-742 1297 -2728
253 161 1212
251 186 1196
-2086 -562 -1734
-2078 -518 -1727
-1861 365 -1634
-1773 662 -1624
-1675 924 -1641
-2100 -379 -1575
-2096 -366 -1576
-2203 -1106 -1802
-2221 -1114 -1761
-2201 -818 -1611
-2158 -604 -1577
847 1893 -1175
-1154 -1753 -1744
748 -2241 -1746
-1791 -1622 -1680
-2036 -1559 -1680
193 -144 1294
211 -139 1291
215 -121 1291
214 -111 1292
193 -67 1299
171 -96 1301
163 -121 1301
1362 -2021 -1191
1370 -2013 -1181
1368 -2010 -1171
-471 1385 -50
-470 1382 -47
-2060 -1553 -1680
-2084 -1531 -1648
-2227 -1468 -1604
-2183 -1505 -1658
-2118 -1536 -1682
1203 -2098 -1367
1269 -2069 -1294
-291 1032 340
-18 534 872
2278 1161 -933
2271 1134 -933
2259 875 -1025
2308 1056 -1027
2308 1057 -1027
2285 1155 -947
1522 -1651 -1112
1407 -1937 -1156
1357 -2024 -1199
244 -156 1265
253 -145 1261
-423 1626 -360
269 2039 -1151
-621 1439 -2571
-631 1361 -2682
-652 1420 -2607
266 170 1204
299 218 1165
273 226 1165
993 -2049 -1647
-2234 -1463 -1598
-2046 -1275 -1244
-2242 -1436 -1564
-2239 -1458 -1595
-1978 43 -1576
280 -129 1240
683 305 880
604 270 967
592 262 980
348 -26 1189
2251 1209 -880
2194 1191 -811
1047 521 476
250 -182 1243
-411 1384 -56
-1701 946 -1523
155 -58 1294
-362 975 313
-431 1154 146
-547 1377 -101
-608 1478 -225
-665 1469 -300
-84 183 1006
-176 522 745
148 -65 1293
143 -79 1293
151 -124 1298
227 1994 -1396
-484 1615 -328
-2095 -1268 -1904
-2215 -1484 -1659
-2231 -1472 -1645
-2265 -1438 -1619
-2285 -1391 -1615
-2277 -1338 -1648
-2275 -1331 -1653
-2193 -1163 -1829
2286 1163 -950
2305 1138 -1017
2275 1353 -1083
2265 1228 -913
-2286 -1388 -1580
-2285 -1389 -1577
-2270 -1316 -1506
-2266 -1228 -1547
-2023 -1092 -2038
-1838 -1214 -2203
2249 1415 -1165
297 154 1194
-2223 -1251 -1407
-2233 -1259 -1424
-2266 -1304 -1493
-2278 -1406 -1581
-2244 -1434 -1564
-2132 -1265 -1316
-2151 -1236 -1316
-170 -173 1012
1391 -1913 -1074
1373 -1970 -1118
2307 1057 -1030
2240 1370 -1209
847 -2237 -1702
845 -2237 -1705
1349 -1814 -939
1314 -1861 -960
-2244 -1057 -1587
-2208 -834 -1587
2236 1237 -886
2258 1223 -898
227 1996 -1381
145 -136 1293
-666 1412 -2612
-759 1322 -2694
-2265 -1438 -1608
-2249 -1454 -1605
-510 1461 -138
-2204 -1493 -1666
-2162 -1509 -1701
-1930 -1177 -1052
-1893 -1149 -996
-2188 -1148 -1839
-2253 -1235 -1474
-2257 -1150 -1547
-2235 -1022 -1520
-2228 -973 -1524
-2199 -782 -1567
-1687 950 -1594
-1665 955 -1641
-943 1420 -849
-873 1458 -836
-582 1624 -717
-731 1547 -681
-717 1559 -625
-494 1687 -531
-585 1642 -486
-462 1710 -459
1 1920 -899
-784 1347 -2648
-1100 1212 -2268
-885 1303 -2532
-304 1653 -2074
-698 1395 -2621
3 2 0 1 100 100 100
3 5 3 4 100 100 100
6 9 4 3 6 7 8 100 100 100
3 12 10 11 100 100 100
7 17 11 10 13 14 15 16 100 100 100
5 20 16 15 18 19 100 100 100
6 24 20 19 21 22 23 100 100 100
6 28 24 23 25 26 27 100 100 100
8 34 28 27 29 30 31 32 33 100 100 100
5 37 34 33 35 36 100 100 100
6 41 37 36 38 39 40 100 100 100
4 40 1 0 41 100 100 100
4 45 42 43 44 100 100 100
5 48 43 42 46 47 100 100 100
6 70 64 63 67 68 69 100 100 100
6 74 69 68 71 72 73 100 100 100
4 73 72 75 76 100 100 100
3 79 77 78 100 100 100
9 86 78 77 80 81 82 83 84 85 100 100 100
3 83 82 87 100 100 100
6 90 6 3 5 88 89 100 100 100
4 7 6 90 91 100 100 100
7 92 13 10 12 9 8 93 100 100 100
3 14 13 92 100 100 100
5 94 21 19 18 95 100 100 100
4 96 22 21 94 100 100 100
3 97 26 25 100 100 100
4 97 29 27 26 100 100 100
3 32 31 98 100 100 100
5 35 33 32 98 99 100 100 100
6 100 38 36 35 99 101 100 100 100
3 39 38 100 100 100 100
4 105 102 103 104 100 100 100
7 110 103 102 106 107 108 109 100 100 100
7 86 85 111 112 110 109 113 100 100 100
5 85 84 114 115 111 100 100 100
3 118 116 117 100 100 100
6 122 118 117 119 120 121 100 100 100
4 124 120 119 123 100 100 100
5 127 124 123 125 126 100 100 100
5 130 126 125 128 129 100 100 100
6 134 129 128 131 132 133 100 100 100
5 137 132 131 135 136 100 100 100
4 136 135 138 139 100 100 100
4 49 47 46 140 100 100 100
6 141 51 50 49 140 142 100 100 100
6 122 52 51 141 116 118 100 100 100
6 121 55 54 53 52 122 100 100 100
7 127 57 56 55 121 120 124 100 100 100
5 130 58 57 127 126 100 100 100
6 134 60 59 58 130 129 100 100 100
5 134 133 143 61 60 100 100 100
3 146 144 145 100 100 100
7 151 145 144 147 148 149 150 100 100 100
5 154 150 149 152 153 100 100 100
16 155 156 157 158 159 160 161 162 163 164 165 166 167 168 169 170 100 100 100
9 171 172 173 174 175 176 177 178 179 100 100 100
5 180 181 182 183 184 100 100 100
6 185 186 187 188 189 190 100 100 100
7 191 192 193 194 195 196 197 100 100 100
9 198 199 115 114 200 201 202 167 166 100 100 100
11 191 203 204 205 206 207 208 209 210 211 192 100 100 100
19 187 212 213 214 17 16 20 24 28 34 37 41 0 2 215 216 217 218 188 100 100 100
8 155 219 220 221 222 223 224 156 100 100 100
7 169 225 226 227 186 185 170 100 100 100
23 230 231 232 233 101 99 98 31 30 96 94 95 234 91 90 89 235 236 237 238 239 240 241 100 100 100
11 242 243 244 245 246 247 104 103 110 112 248 100 100 100
5 249 250 251 252 253 100 100 100
6 254 255 256 257 258 259 100 100 100
3 260 261 262 100 100 100
6 249 263 264 177 176 250 100 100 100
7 161 265 266 267 268 269 162 100 100 100
8 270 271 266 265 272 273 274 275 100 100 100
6 148 276 199 198 152 149 100 100 100
8 223 278 239 238 279 280 277 224 100 100 100
7 281 282 283 284 285 286 287 100 100 100
4 224 277 157 156 100 100 100
5 231 288 289 290 232 100 100 100
4 171 291 292 172 100 100 100
5 293 294 295 296 297 100 100 100
4 230 241 298 299 100 100 100
4 173 300 301 174 100 100 100
6 302 303 304 305 306 307 100 100 100
7 189 308 309 289 288 310 190 100 100 100
4 282 311 312 283 100 100 100
6 111 115 199 276 248 112 100 100 100
5 164 316 317 315 165 100 100 100
5 263 318 319 320 264 100 100 100
3 219 321 220 100 100 100
4 322 323 324 325 100 100 100
4 266 271 326 267 100 100 100
7 213 328 329 330 331 327 214 100 100 100
7 302 332 333 247 246 334 303 100 100 100
6 235 335 311 282 281 236 100 100 100
11 242 248 276 148 147 313 336 179 178 320 319 100 100 100
8 42 45 337 194 193 142 140 46 100 100 100
5 251 338 286 285 252 100 100 100
22 192 211 339 340 341 342 71 68 67 343 138 135 131 128 125 123 119 117 116 141 142 193 100 100 100
6 191 197 326 271 270 203 100 100 100
5 210 344 345 339 211 100 100 100
6 286 338 346 347 348 287 100 100 100
4 188 218 308 189 100 100 100
4 279 294 293 280 100 100 100
7 165 315 349 153 152 198 166 100 100 100
5 230 299 310 288 231 100 100 100
5 65 350 336 313 66 100 100 100
9 190 310 299 298 321 219 155 170 185 100 100 100
4 208 347 346 209 100 100 100
10 254 352 353 354 355 356 357 358 351 255 100 100 100
4 359 360 361 362 100 100 100
9 136 139 343 67 63 62 61 143 137 100 100 100
4 342 75 72 71 100 100 100
4 363 364 365 366 100 100 100
6 159 257 256 368 367 160 100 100 100
4 77 79 369 80 100 100 100
9 243 370 253 252 285 284 331 330 244 100 100 100
9 371 372 373 365 364 374 375 376 377 100 100 100
3 182 378 183 100 100 100
9 209 346 338 251 250 176 175 344 210 100 100 100
7 216 379 380 290 289 309 217 100 100 100
7 107 369 79 78 86 113 108 100 100 100
11 305 381 382 81 80 369 107 106 361 360 306 100 100 100
5 83 87 200 114 84 100 100 100
8 220 321 298 241 240 383 384 221 100 100 100
4 379 385 386 380 100 100 100
6 387 388 274 273 357 356 100 100 100
5 222 384 383 278 223 100 100 100
5 300 340 339 345 301 100 100 100
5 163 261 260 316 164 100 100 100
7 92 93 234 95 18 15 14 100 100 100
7 25 23 22 96 30 29 97 100 100 100
10 385 215 2 1 40 39 100 101 233 386 100 100 100
7 389 390 362 361 106 102 105 100 100 100
8 81 382 226 225 201 200 87 82 100 100 100
4 349 391 154 153 100 100 100
4 146 145 151 314 100 100 100
8 207 378 182 181 392 348 347 208 100 100 100
4 353 396 395 354 100 100 100
4 217 309 308 218 100 100 100
4 73 76 397 74 100 100 100
4 65 64 70 350 100 100 100
4 398 399 297 296 100 100 100
7 291 397 76 75 342 341 292 100 100 100
6 354 395 374 364 363 355 100 100 100
4 400 401 377 376 100 100 100
5 272 402 358 357 273 100 100 100
3 372 403 373 100 100 100
4 255 351 368 256 100 100 100
6 387 404 405 406 407 388 100 100 100
3 138 343 139 100 100 100
4 143 133 132 137 100 100 100
4 332 390 389 333 100 100 100
6 260 262 394 393 317 316 100 100 100
12 4 9 12 11 17 214 327 312 311 335 88 5 100 100 100
7 204 406 405 403 372 371 205 100 100 100
6 203 270 275 407 406 204 100 100 100
5 242 319 318 370 243 100 100 100
3 167 202 168 100 100 100
4 158 258 257 159 100 100 100
9 293 297 399 259 258 158 157 277 280 100 100 100
5 104 247 333 389 105 100 100 100
5 174 301 345 344 175 100 100 100
6 374 395 396 325 324 375 100 100 100
12 180 401 400 323 322 295 294 279 238 237 392 181 100 100 100
4 226 382 381 227 100 100 100
6 195 408 409 269 268 196 100 100 100
4 306 360 359 307 100 100 100
5 232 290 380 386 233 100 100 100
3 221 384 222 100 100 100
7 227 381 305 304 212 187 186 100 100 100
5 259 399 398 352 254 100 100 100
5 351 358 402 367 368 100 100 100
6 172 292 341 340 300 173 100 100 100
4 177 264 320 178 100 100 100
5 323 400 376 375 324 100 100 100
9 171 179 336 350 70 69 74 397 291 100 100 100
6 212 304 303 334 328 213 100 100 100
4 215 385 379 216 100 100 100
6 355 363 366 404 387 356 100 100 100
7 205 371 377 401 180 184 206 100 100 100
5 327 331 284 283 312 100 100 100
6 236 281 287 348 392 237 100 100 100
6 228 229 408 195 194 337 100 100 100
6 362 390 332 302 307 359 100 100 100
6 367 402 272 265 161 160 100 100 100
8 352 398 296 295 322 325 396 353 100 100 100
5 249 253 370 318 263 100 100 100
5 245 329 328 334 246 100 100 100
4 88 335 235 89 100 100 100
5 8 7 91 234 93 100 100 100
5 201 225 169 168 202 100 100 100
4 44 228 337 45 100 100 100
6 373 403 405 404 366 365 100 100 100
3 108 113 109 100 100 100
4 278 383 240 239 100 100 100
4 274 388 407 275 100 100 100
5 183 378 207 206 184 100 100 100
4 244 330 329 245 100 100 100
5 267 326 197 196 268 100 100 100
14 411 410 420 421 419 423 422 418 417 416 415 414 413 412 -1 0 0
6 411 410 48 47 49 50 100 0 0
6 412 411 50 51 52 53 100 0 0
4 413 412 53 54 100 0 0
5 414 413 54 55 56 100 0 0
6 415 414 56 57 58 59 100 0 0
6 416 415 59 60 61 62 100 0 0
7 417 416 62 63 64 65 66 100 0 0
7 410 420 229 228 44 43 48 100 0 0
8 418 417 66 313 147 144 146 314 100 0 0
4 419 423 393 394 100 0 0
9 421 419 394 262 261 163 162 269 409 100 0 0
5 420 421 409 408 229 100 0 0
7 423 422 391 349 315 317 393 100 0 0
7 422 418 314 151 150 154 391 100 0 0
