ply
format ascii 1.0
comment converted from made-by-Polyhedron_join_facets_2
element vertex 422
property float x
property float y
property float z
element face 213
property list uchar uint vertex_indices
property uchar red
property uchar green
property uchar blue
end_header
1346 -1797 -924
1343 -1802 -924
1345 -1800 -924
345 -320 1046
377 -279 1046
284 -233 1176
345 -320 1046
380 -394 970
392 -405 953
409 -410 937
465 -490 828
466 -489 828
464 -488 831
555 -627 648
559 -641 634
780 -953 208
782 -951 208
607 -679 563
779 -976 188
787 -993 164
810 -963 164
812 -987 147
814 -1033 114
843 -1058 72
851 -1048 72
870 -1117 2
879 -1115 -4
881 -1121 -11
895 -1103 -11
905 -1222 -116
910 -1238 -134
939 -1291 -205
1053 -1271 -302
1029 -1323 -320
1068 -1275 -320
1051 -1393 -373
1061 -1392 -379
1083 -1364 -379
1106 -1435 -444
1098 -1453 -450
1102 -1456 -455
1115 -1440 -455
-1207 1265 -970
-1191 1276 -970
-1204 1269 -969
-1206 1267 -969
-1177 1282 -935
-1082 1340 -869
-1055 1357 -869
-1092 1330 -863
-984 1385 -836
-871 1459 -836
-834 1478 -812
-774 1509 -769
-902 1413 -717
-572 1630 -717
-819 1490 -681
-726 1551 -681
-827 1485 -672
-729 1552 -625
-711 1563 -625
-724 1553 -617
-600 1624 -565
-618 1605 -531
-482 1695 -531
-576 1639 -514
-592 1637 -487
-588 1640 -486
-576 1648 -486
-537 1614 -357
-504 1636 -357
-485 1662 -387
-478 1675 -406
-461 1712 -461
-660 1470 -294
-659 1468 -291
-482 1585 -291
-486 1601 -311
-656 1471 -288
-574 1527 -260
-531 1555 -260
-490 1580 -285
-578 1502 -221
-552 1513 -210
2238 1424 -1180
2233 1428 -1180
2235 1427 -1180
2244 1418 -1183
2238 1408 -1209
2197 1401 -1278
2071 1495 -1278
2125 1474 -1244
2189 1440 -1218
2223 1434 -1184
2161 1443 -1333
284 -232 1177
299 -287 1114
325 -338 1046
359 -379 995
547 -635 648
480 -548 769
772 -1024 147
767 -1011 164
782 -1035 132
864 -1129 -4
957 -1358 -302
1023 -1419 -373
1074 -1464 -444
1044 -1448 -411
2264 1315 -1020
1698 1518 -1020
1986 1399 -980
2235 1305 -970
2268 1375 -1102
2262 1393 -1123
2210 1417 -1131
1942 1538 -1163
1614 1656 -1163
1391 1727 -1218
1567 1673 -1165
2086 1485 -1171
1964 1547 -1281
1796 1604 -1273
-1094 1262 -810
-1092 1258 -805
-1084 1269 -805
-984 1273 -662
-828 1481 -662
-839 1475 -672
-1052 1278 -769
-945 1321 -627
-840 1460 -627
-905 1336 -578
-818 1452 -578
-831 1465 -617
-860 1403 -542
-853 1412 -542
-839 1426 -565
-803 1429 -475
-779 1461 -475
-780 1476 -498
-818 1438 -514
-751 1407 -394
-665 1521 -394
-762 1477 -469
-706 1459 -353
-697 1472 -355
-1118 1308 -863
-1096 1262 -812
-1104 1278 -830
-779 1478 -497
307 2039 -1165
288 2044 -1165
289 2044 -1165
406 2016 -1167
550 1980 -1175
929 1868 -1235
252 2022 -1235
255 2025 -1227
580 1970 -1281
316 2037 -1295
253 2023 -1237
111 -1105 -3080
24 -1085 -3079
-605 -922 -3079
-1078 -793 -3078
-1109 -722 -3078
-1120 -670 -3078
-1027 -367 -3079
-604 938 -3080
-576 1020 -3080
-405 1020 -3080
-274 990 -3080
-202 969 -3080
559 735 -3081
583 718 -3081
585 691 -3081
178 -860 -3080
-399 1262 91
-379 1217 140
-298 1050 321
-3 511 898
9 490 921
43 445 966
74 413 996
172 326 1075
-402 1347 -11
-1202 -778 -177
121 -144 1271
60 -165 1217
-485 -389 671
-491 -392 664
1658 -1198 -1108
1820 -643 -1087
2000 -31 -1054
1638 -1270 -1095
1564 -1522 -1112
1570 -1499 -1114
-1729 869 -1530
-1728 874 -1529
-1727 877 -1529
-1710 929 -1529
-1696 939 -1583
-1752 754 -1599
-1842 501 -1559
586 1968 -1281
1011 1844 -1273
2153 1445 -1345
2146 1439 -1357
1884 1320 -1646
-2053 -231 -1557
-2215 -968 -1500
-2217 -1222 -1407
-486 -386 669
-142 -105 1038
-66 -13 1108
-60 17 1105
-73 95 1057
-213 413 743
2030 71 -1050
448 4 1075
313 -147 1193
1349 -1804 -930
1420 -1849 -1047
1430 -1838 -1056
1497 -1696 -1086
294 -1392 -2751
670 -1984 -2072
777 -2209 -1802
766 -2232 -1769
756 -2236 -1761
748 -2233 -1762
2147 1417 -1357
2179 1388 -1308
2292 1021 -1045
-1691 958 -1542
-362 1757 -556
-764 1360 -2640
-785 1348 -2647
-798 1342 -2631
-1688 958 -1561
1264 -2072 -1294
1354 -2026 -1191
1355 -2023 -1187
1290 -1836 -921
523 -627 669
231 -184 1249
191 -147 1292
170 -142 1292
-1394 -1721 -1685
697 -2232 -1738
875 -2230 -1673
1114 -2138 -1447
375 232 1119
483 251 1054
532 263 1019
637 302 930
1439 760 39
1716 921 -271
1418 1718 -1165
226 94 1244
184 23 1274
177 -18 1290
193 -33 1294
214 28 1269
-2085 -1422 -1848
-2051 -1389 -1904
-1820 -1219 -2220
-1187 -844 -2969
-1113 -810 -3043
-2133 -1477 -1756
-633 1149 -2929
-606 1078 -3012
-742 1297 -2728
253 161 1212
251 186 1196
-2086 -562 -1734
-2078 -518 -1727
-1861 365 -1634
-1773 662 -1624
-1675 924 -1641
-2100 -379 -1575
-2096 -366 -1576
-2203 -1106 -1802
-2221 -1114 -1761
-2201 -818 -1611
-2158 -604 -1577
847 1893 -1175
-1154 -1753 -1744
748 -2241 -1746
-1791 -1622 -1680
-2036 -1559 -1680
193 -144 1294
211 -139 1291
215 -121 1291
214 -111 1292
193 -67 1299
171 -96 1301
163 -121 1301
1362 -2021 -1191
1370 -2013 -1181
1368 -2010 -1171
-471 1385 -50
-470 1382 -47
-2060 -1553 -1680
-2084 -1531 -1648
-2227 -1468 -1604
-2183 -1505 -1658
-2118 -1536 -1682
1203 -2098 -1367
1269 -2069 -1294
-291 1032 340
-18 534 872
2278 1161 -933
2271 1134 -933
2259 875 -1025
2308 1056 -1027
2308 1057 -1027
2285 1155 -947
1522 -1651 -1112
1407 -1937 -1156
1357 -2024 -1199
244 -156 1265
253 -145 1261
-423 1626 -360
269 2039 -1151
-621 1439 -2571
-631 1361 -2682
-652 1420 -2607
266 170 1204
299 218 1165
273 226 1165
993 -2049 -1647
-2234 -1463 -1598
-2046 -1275 -1244
-2242 -1436 -1564
-2239 -1458 -1595
-1978 43 -1576
280 -129 1240
683 305 880
604 270 967
592 262 980
348 -26 1189
2251 1209 -880
2194 1191 -811
1047 521 476
250 -182 1243
-411 1384 -56
-1701 946 -1523
155 -58 1294
-362 975 313
-431 1154 146
-547 1377 -101
-608 1478 -225
-665 1469 -300
-84 183 1006
-176 522 745
148 -65 1293
143 -79 1293
151 -124 1298
227 1994 -1396
-484 1615 -328
-2095 -1268 -1904
-2215 -1484 -1659
-2231 -1472 -1645
-2265 -1438 -1619
-2285 -1391 -1615
-2277 -1338 -1648
-2275 -1331 -1653
-2193 -1163 -1829
2286 1163 -950
2305 1138 -1017
2275 1353 -1083
2265 1228 -913
-2286 -1388 -1580
-2285 -1389 -1577
-2270 -1316 -1506
-2266 -1228 -1547
-2023 -1092 -2038
-1838 -1214 -2203
2249 1415 -1165
297 154 1194
-2223 -1251 -1407
-2233 -1259 -1424
-2266 -1304 -1493
-2278 -1406 -1581
-2244 -1434 -1564
-2132 -1265 -1316
-2151 -1236 -1316
-170 -173 1012
1391 -1913 -1074
1373 -1970 -1118
2307 1057 -1030
2240 1370 -1209
847 -2237 -1702
845 -2237 -1705
1349 -1814 -939
1314 -1861 -960
-2244 -1057 -1587
-2208 -834 -1587
2236 1237 -886
2258 1223 -898
227 1996 -1381
145 -136 1293
-731 1378 -2630
-666 1412 -2612
-759 1322 -2694
-2265 -1438 -1608
-2249 -1454 -1605
-510 1461 -138
-2204 -1493 -1666
-2162 -1509 -1701
-1930 -1177 -1052
-1893 -1149 -996
-2188 -1148 -1839
-2253 -1235 -1474
-2257 -1150 -1547
-2235 -1022 -1520
-2228 -973 -1524
-2199 -782 -1567
-1687 950 -1594
-1665 955 -1641
1 0 100 100 100
1 3 100 100 100
3 4 6 8 100 100 100
1 10 100 100 100
3 11 13 15 100 100 100
2 16 18 100 100 100
3 20 21 23 100 100 100
3 24 25 27 100 100 100
4 28 29 31 33 100 100 100
2 34 35 100 100 100
3 37 38 40 100 100 100
2 1 41 100 100 100
2 42 44 100 100 100
2 43 46 100 100 100
2 48 49 100 100 100
3 51 52 54 100 100 100
2 55 56 100 100 100
2 57 58 100 100 100
3 60 61 63 100 100 100
3 64 65 67 100 100 100
3 68 69 71 100 100 100
3 70 74 76 100 100 100
3 76 78 80 100 100 100
2 79 83 100 100 100
1 84 100 100 100
4 85 87 89 91 100 100 100
1 89 100 100 100
3 6 5 96 100 100 100
2 6 98 100 100 100
3 13 12 8 100 100 100
1 13 100 100 100
2 21 18 100 100 100
2 22 101 100 100 100
1 26 100 100 100
2 29 26 100 100 100
1 31 100 100 100
2 33 105 100 100 100
3 38 35 108 100 100 100
1 38 100 100 100
2 109 111 100 100 100
3 110 113 115 100 100 100
3 92 119 116 100 100 100
2 91 122 100 100 100
1 123 100 100 100
3 125 126 128 100 100 100
2 127 130 100 100 100
2 131 132 100 100 100
2 133 135 100 100 100
3 136 138 140 100 100 100
2 139 142 100 100 100
2 142 146 100 100 100
2 47 147 100 100 100
3 52 49 149 100 100 100
3 53 148 125 100 100 100
3 58 54 129 100 100 100
3 61 58 127 100 100 100
2 62 134 100 100 100
3 65 62 136 100 100 100
2 140 66 100 100 100
1 151 100 100 100
3 152 154 156 100 100 100
2 157 159 100 100 100
8 163 165 167 169 171 173 175 177 100 100 100
4 179 181 183 185 100 100 100
2 188 190 100 100 100
3 193 195 197 100 100 100
3 199 201 203 100 100 100
4 206 121 208 174 100 100 100
7 212 216 351 75 142 130 148 100 100 100
9 219 221 16 24 34 41 2 223 225 100 100 100
4 226 228 230 163 100 100 100
3 232 234 192 100 100 100
8 48 55 60 68 236 238 240 44 100 100 100
11 242 244 106 31 103 102 98 96 247 249 251 100 100 100
5 254 256 258 110 119 100 100 100
2 261 263 100 100 100
3 266 268 270 100 100 100
1 272 100 100 100
3 274 184 261 100 100 100
3 276 278 280 100 100 100
4 282 276 284 286 100 100 100
3 287 205 156 100 100 100
4 289 249 291 231 100 100 100
3 293 295 297 100 100 100
2 288 163 100 100 100
2 299 301 100 100 100
2 302 179 100 100 100
2 305 307 100 100 100
2 252 310 100 100 100
2 311 181 100 100 100
3 314 316 318 100 100 100
3 319 300 321 100 100 100
2 322 294 100 100 100
4 153 236 72 154 100 100 100
3 122 287 119 100 100 100
2 327 326 100 100 100
2 329 331 100 100 100
1 332 100 100 100
2 334 336 100 100 100
2 282 278 100 100 100
3 339 341 338 100 100 100
3 343 258 345 100 100 100
3 346 293 247 100 100 100
5 259 155 324 186 331 100 100 100
4 45 201 149 46 100 100 100
2 349 296 100 100 100
11 218 351 353 75 354 142 135 130 124 148 200 100 100 100
3 204 282 210 100 100 100
2 355 350 100 100 100
3 349 358 298 100 100 100
2 225 196 100 100 100
2 305 291 100 100 100
3 326 160 205 100 100 100
2 310 299 100 100 100
2 361 324 100 100 100
4 321 309 226 177 100 100 100
2 358 216 100 100 100
5 363 365 367 369 266 100 100 100
2 371 373 100 100 100
4 146 74 67 150 100 100 100
2 82 78 100 100 100
2 375 377 100 100 100
3 268 379 167 100 100 100
2 86 87 100 100 100
4 381 263 295 341 100 100 100
4 383 376 385 387 100 100 100
1 389 100 100 100
4 357 262 183 355 100 100 100
3 390 301 320 100 100 100
3 380 85 120 100 100 100
5 392 88 380 113 371 100 100 100
2 94 121 100 100 100
4 332 252 394 228 100 100 100
2 396 391 100 100 100
3 399 284 367 100 100 100
2 395 289 100 100 100
2 351 356 100 100 100
2 272 327 100 100 100
3 100 102 15 100 100 100
3 23 103 29 100 100 100
5 222 1 39 108 397 100 100 100
3 401 372 109 100 100 100
4 393 232 207 89 100 100 100
2 402 160 100 100 100
2 152 325 100 100 100
4 389 188 359 215 100 100 100
2 404 406 100 100 100
2 408 365 100 100 100
2 320 225 100 100 100
2 83 81 100 100 100
2 70 361 100 100 100
2 411 307 100 100 100
3 409 82 352 100 100 100
3 407 375 366 100 100 100
2 413 387 100 100 100
2 414 368 100 100 100
1 415 100 100 100
2 362 267 100 100 100
3 416 418 399 100 100 100
1 354 100 100 100
2 140 144 100 100 100
2 401 344 100 100 100
3 273 405 327 100 100 100
6 9 11 221 323 346 5 100 100 100
3 418 415 382 100 100 100
3 281 419 211 100 100 100
2 330 381 100 100 100
1 209 100 100 100
2 269 166 100 100 100
4 308 270 165 288 100 100 100
2 258 400 100 100 100
2 312 355 100 100 100
3 407 336 386 100 100 100
6 413 334 306 290 248 188 100 100 100
2 393 234 100 100 100
3 420 280 203 100 100 100
2 371 318 100 100 100
2 301 397 100 100 100
1 395 100 100 100
3 392 315 194 100 100 100
2 411 363 100 100 100
2 369 378 100 100 100
3 303 351 180 100 100 100
2 275 185 100 100 100
4 280 239 406 272 100 100 100
2 412 386 100 100 100
4 186 361 76 409 100 100 100
2 421 240 100 100 100
3 315 345 220 100 100 100
2 396 223 100 100 100
3 374 416 367 100 100 100
3 382 413 191 100 100 100
2 342 294 100 100 100
3 292 359 248 100 100 100
3 240 202 348 100 100 100
3 401 313 370 100 100 100
3 414 276 167 100 100 100
4 410 306 336 364 100 100 100
2 264 329 100 100 100
2 340 345 100 100 100
2 346 96 100 100 100
2 7 245 100 100 100
2 232 175 100 100 100
3 328 404 360 100 100 100
2 235 45 100 100 100
3 415 416 376 100 100 100
1 120 100 100 100
2 394 250 100 100 100
4 325 157 402 237 100 100 100
2 399 286 100 100 100
2 389 213 100 100 100
2 341 256 100 100 100
2 337 203 100 100 100
