ply
format ascii 1.0
comment converted from made-by-Polyhedron_join_facets_2
element vertex 290
property float x
property float y
property float z
element face 148
property list uchar uint vertex_indices
property uchar red
property uchar green
property uchar blue
end_header
1346 -1797 -924
1343 -1802 -924
1345 -1800 -924
555 -627 648
559 -641 634
780 -953 208
782 -951 208
607 -679 563
779 -976 188
787 -993 164
810 -963 164
812 -987 147
814 -1033 114
843 -1058 72
851 -1048 72
870 -1117 2
879 -1115 -4
881 -1121 -11
895 -1103 -11
905 -1222 -116
910 -1238 -134
939 -1291 -205
1053 -1271 -302
1029 -1323 -320
1068 -1275 -320
1051 -1393 -373
1061 -1392 -379
1083 -1364 -379
1106 -1435 -444
1098 -1453 -450
1102 -1456 -455
1115 -1440 -455
-1207 1265 -970
-1191 1276 -970
-1204 1269 -969
-1206 1267 -969
-1177 1282 -935
-1082 1340 -869
-1055 1357 -869
-1092 1330 -863
-984 1385 -836
-871 1459 -836
-834 1478 -812
-902 1413 -717
2238 1424 -1180
2233 1428 -1180
2235 1427 -1180
2244 1418 -1183
2238 1408 -1209
2197 1401 -1278
2071 1495 -1278
2125 1474 -1244
2189 1440 -1218
2223 1434 -1184
2161 1443 -1333
547 -635 648
772 -1024 147
767 -1011 164
782 -1035 132
864 -1129 -4
957 -1358 -302
1023 -1419 -373
1074 -1464 -444
1044 -1448 -411
2268 1375 -1102
2262 1393 -1123
2210 1417 -1131
2086 1485 -1171
1964 1547 -1281
1796 1604 -1273
-1094 1262 -810
-1092 1258 -805
-1084 1269 -805
-984 1273 -662
-1052 1278 -769
-945 1321 -627
-1118 1308 -863
-1096 1262 -812
-1104 1278 -830
111 -1105 -3080
24 -1085 -3079
-605 -922 -3079
-1078 -793 -3078
-1109 -722 -3078
-1120 -670 -3078
-1027 -367 -3079
-604 938 -3080
-576 1020 -3080
-405 1020 -3080
-274 990 -3080
-202 969 -3080
559 735 -3081
583 718 -3081
585 691 -3081
178 -860 -3080
-1202 -778 -177
-485 -389 671
-491 -392 664
1658 -1198 -1108
1820 -643 -1087
2000 -31 -1054
1638 -1270 -1095
1564 -1522 -1112
1570 -1499 -1114
-1729 869 -1530
-1728 874 -1529
-1727 877 -1529
-1710 929 -1529
-1696 939 -1583
-1752 754 -1599
-1842 501 -1559
2153 1445 -1345
2146 1439 -1357
1884 1320 -1646
-2053 -231 -1557
-2215 -968 -1500
-2217 -1222 -1407
-486 -386 669
2030 71 -1050
1349 -1804 -930
1420 -1849 -1047
1430 -1838 -1056
1497 -1696 -1086
294 -1392 -2751
670 -1984 -2072
777 -2209 -1802
766 -2232 -1769
756 -2236 -1761
748 -2233 -1762
2147 1417 -1357
2179 1388 -1308
2292 1021 -1045
-1691 958 -1542
-764 1360 -2640
-785 1348 -2647
-798 1342 -2631
-1688 958 -1561
1264 -2072 -1294
1354 -2026 -1191
1355 -2023 -1187
1290 -1836 -921
523 -627 669
-1394 -1721 -1685
697 -2232 -1738
875 -2230 -1673
1114 -2138 -1447
-2085 -1422 -1848
-2051 -1389 -1904
-1820 -1219 -2220
-1187 -844 -2969
-1113 -810 -3043
-2133 -1477 -1756
-633 1149 -2929
-606 1078 -3012
-742 1297 -2728
-2086 -562 -1734
-2078 -518 -1727
-1861 365 -1634
-1773 662 -1624
-1675 924 -1641
-2100 -379 -1575
-2096 -366 -1576
-2203 -1106 -1802
-2221 -1114 -1761
-2201 -818 -1611
-2158 -604 -1577
-1154 -1753 -1744
748 -2241 -1746
-1791 -1622 -1680
-2036 -1559 -1680
1362 -2021 -1191
1370 -2013 -1181
1368 -2010 -1171
-2060 -1553 -1680
-2084 -1531 -1648
-2227 -1468 -1604
-2183 -1505 -1658
-2118 -1536 -1682
1203 -2098 -1367
1269 -2069 -1294
2278 1161 -933
2271 1134 -933
2259 875 -1025
2308 1056 -1027
2308 1057 -1027
2285 1155 -947
1522 -1651 -1112
1407 -1937 -1156
1357 -2024 -1199
-621 1439 -2571
-631 1361 -2682
-652 1420 -2607
993 -2049 -1647
-2234 -1463 -1598
-2046 -1275 -1244
-2242 -1436 -1564
-2239 -1458 -1595
-1978 43 -1576
-1701 946 -1523
227 1994 -1396
-2095 -1268 -1904
-2215 -1484 -1659
-2231 -1472 -1645
-2265 -1438 -1619
-2285 -1391 -1615
-2277 -1338 -1648
-2275 -1331 -1653
-2193 -1163 -1829
2286 1163 -950
2305 1138 -1017
2275 1353 -1083
-2286 -1388 -1580
-2285 -1389 -1577
-2270 -1316 -1506
-2266 -1228 -1547
-2023 -1092 -2038
-1838 -1214 -2203
2249 1415 -1165
-2223 -1251 -1407
-2233 -1259 -1424
-2266 -1304 -1493
-2278 -1406 -1581
-2244 -1434 -1564
-2132 -1265 -1316
-2151 -1236 -1316
1391 -1913 -1074
1373 -1970 -1118
2307 1057 -1030
2240 1370 -1209
847 -2237 -1702
845 -2237 -1705
1349 -1814 -939
1314 -1861 -960
-2244 -1057 -1587
-2208 -834 -1587
227 1996 -1381
-731 1378 -2630
-666 1412 -2612
-759 1322 -2694
-2265 -1438 -1608
-2249 -1454 -1605
-2204 -1493 -1666
-2162 -1509 -1701
-1930 -1177 -1052
-1893 -1149 -996
-2188 -1148 -1839
-2253 -1235 -1474
-2257 -1150 -1547
-2235 -1022 -1520
-2228 -973 -1524
-2199 -782 -1567
-1687 950 -1594
-1665 955 -1641
505 -552 747
510 -549 744
529 -537 731
-756 1525 -790
-778 1507 -772
-789 1497 -763
-780 1503 -769
-845 1451 -717
-873 1440 -704
1703 1615 -1218
479 -560 758
488 -558 755
486 -559 756
2268 1371 -1096
2175 1433 -1135
2059 1495 -1169
1588 1667 -1244
1333 1746 -1273
-894 1393 -662
-887 1430 -693
-918 1356 -627
-925 1328 -603
272 2016 -1345
236 2006 -1331
566 1943 -1326
-372 -380 731
-429 -366 727
-438 -357 721
-710 564 -2
-442 -350 717
1118 33 175
-441 1679 -963
-119 -435 740
2276 1166 -928
2217 1106 -870
2280 1180 -940
2275 1352 -1082
3 2 0 1 100 100 100
5 10 6 5 8 9 100 100 100
6 14 10 9 11 12 13 100 100 100
6 18 14 13 15 16 17 100 100 100
8 24 18 17 19 20 21 22 23 100 100 100
5 27 24 23 25 26 100 100 100
6 31 27 26 28 29 30 100 100 100
4 30 1 0 31 100 100 100
4 35 32 33 34 100 100 100
5 38 33 32 36 37 100 100 100
5 41 38 37 39 40 100 100 100
3 46 44 45 100 100 100
9 53 45 44 47 48 49 50 51 52 100 100 100
3 50 49 54 100 100 100
3 4 3 55 100 100 100
5 56 11 9 8 57 100 100 100
4 58 12 11 56 100 100 100
3 59 16 15 100 100 100
4 59 19 17 16 100 100 100
3 22 21 60 100 100 100
5 25 23 22 60 61 100 100 100
6 62 28 26 25 61 63 100 100 100
3 29 28 62 100 100 100
3 72 70 71 100 100 100
4 39 37 36 76 100 100 100
6 77 42 40 39 76 78 100 100 100
16 79 80 81 82 83 84 85 86 87 88 89 90 91 92 93 94 100 100 100
6 98 99 100 101 102 103 100 100 100
7 104 105 106 107 108 109 110 100 100 100
8 79 123 124 125 126 127 128 80 100 100 100
7 93 129 130 131 99 98 94 100 100 100
6 146 147 148 149 150 151 100 100 100
3 152 153 154 100 100 100
7 85 155 156 157 158 159 86 100 100 100
8 160 161 156 155 162 163 164 165 100 100 100
8 127 167 143 142 168 169 166 128 100 100 100
4 128 166 81 80 100 100 100
5 138 170 171 172 139 100 100 100
5 173 174 175 176 177 100 100 100
4 137 145 178 179 100 100 100
6 180 181 182 183 184 185 100 100 100
7 102 186 187 171 170 188 103 100 100 100
5 88 190 191 189 89 100 100 100
3 123 192 124 100 100 100
4 193 194 195 196 100 100 100
4 156 161 197 157 100 100 100
8 32 35 198 107 106 78 76 36 100 100 100
6 104 110 197 161 160 114 100 100 100
4 101 122 186 102 100 100 100
4 168 174 173 169 100 100 100
5 137 179 188 170 138 100 100 100
9 103 188 179 178 192 123 79 94 98 100 100 100
10 146 201 202 203 204 205 206 207 200 147 100 100 100
4 211 212 213 214 100 100 100
6 83 149 148 216 215 84 100 100 100
4 44 46 217 47 100 100 100
9 218 219 220 213 212 221 222 223 224 100 100 100
7 120 225 226 172 171 187 121 100 100 100
7 65 217 46 45 53 67 66 100 100 100
11 183 227 228 48 47 217 65 64 210 209 184 100 100 100
5 50 54 111 68 51 100 100 100
8 124 192 178 145 144 229 230 125 100 100 100
4 225 231 232 226 100 100 100
6 233 234 164 163 206 205 100 100 100
5 126 230 229 167 127 100 100 100
5 87 153 152 190 88 100 100 100
7 15 13 12 58 20 19 59 100 100 100
10 231 119 2 1 30 29 62 63 140 232 100 100 100
8 48 228 130 129 112 111 54 49 100 100 100
5 133 236 237 238 134 100 100 100
4 202 240 239 203 100 100 100
4 121 187 186 122 100 100 100
4 241 242 177 176 100 100 100
6 203 239 221 212 211 204 100 100 100
4 243 244 224 223 100 100 100
5 162 245 207 206 163 100 100 100
3 219 246 220 100 100 100
4 147 200 216 148 100 100 100
6 233 247 248 249 250 234 100 100 100
6 152 154 238 237 191 190 100 100 100
7 115 249 248 246 219 218 116 100 100 100
6 114 160 165 250 249 115 100 100 100
3 91 113 92 100 100 100
4 82 150 149 83 100 100 100
9 173 177 242 151 150 82 81 166 169 100 100 100
6 221 239 240 196 195 222 100 100 100
4 130 228 227 131 100 100 100
6 108 251 252 159 158 109 100 100 100
4 184 209 208 185 100 100 100
5 139 172 226 232 140 100 100 100
3 125 230 126 100 100 100
7 131 227 183 182 118 100 99 100 100 100
5 151 242 241 201 146 100 100 100
5 200 207 245 215 216 100 100 100
9 86 159 252 135 134 238 154 153 87 100 100 100
5 194 243 223 222 195 100 100 100
4 135 252 251 136 100 100 100
4 119 231 225 120 100 100 100
6 204 211 214 247 233 205 100 100 100
7 116 218 224 244 95 97 117 100 100 100
6 132 136 251 108 107 198 100 100 100
6 215 245 162 155 85 84 100 100 100
8 201 241 176 175 193 196 240 202 100 100 100
5 112 129 93 92 113 100 100 100
6 189 191 237 236 235 199 100 100 100
4 34 132 198 35 100 100 100
6 220 246 248 247 214 213 100 100 100
4 167 229 144 143 100 100 100
4 164 234 250 165 100 100 100
5 157 197 110 109 158 100 100 100
37 254 253 264 265 263 285 278 279 280 282 281 274 273 271 272 261 260 258 259 257 256 284 276 275 277 270 269 262 268 267 266 289 288 286 287 283 255 -1 0 0
7 254 253 3 4 5 6 7 100 0 0
3 260 258 43 100 0 0
5 257 256 41 40 42 100 0 0
3 261 260 43 100 0 0
4 253 264 55 3 100 0 0
5 267 266 64 65 66 100 0 0
5 262 268 67 53 52 100 0 0
6 269 262 52 51 68 69 100 0 0
6 271 272 74 72 71 73 100 0 0
4 273 271 73 75 100 0 0
3 274 273 75 100 0 0
7 259 257 42 77 70 72 74 100 0 0
6 272 261 43 258 259 74 100 0 0
6 272 261 43 258 259 74 100 0 0
5 278 279 96 97 95 100 0 0
9 277 270 69 68 111 112 113 91 90 100 0 0
8 282 281 105 104 114 115 116 117 100 0 0
19 283 255 7 6 10 14 18 24 27 31 0 2 119 120 121 122 101 100 118 100 0 0
11 256 284 133 134 135 136 132 34 33 38 41 100 0 0
19 263 285 142 143 144 145 137 138 139 140 63 61 60 21 20 58 56 57 141 100 0 0
3 270 269 69 100 0 0
4 286 287 181 180 100 0 0
10 281 274 75 73 71 70 77 78 106 105 100 0 0
6 275 277 90 89 189 199 100 0 0
5 289 288 208 209 210 100 0 0
3 279 280 96 100 0 0
8 264 265 141 57 8 5 4 55 100 0 0
4 266 289 210 64 100 0 0
4 276 275 199 235 100 0 0
3 255 254 7 100 0 0
11 285 278 95 244 243 194 193 175 174 168 142 100 0 0
5 287 283 118 182 181 100 0 0
5 288 286 180 185 208 100 0 0
3 265 263 141 100 0 0
4 268 267 66 67 100 0 0
5 284 276 235 236 133 100 0 0
5 280 282 117 97 96 100 0 0
