ply
format ascii 1.0
comment converted from made-by-Polyhedron_join_facets_2
element vertex 510
property float x
property float y
property float z
element face 257
property list uchar uint vertex_indices
property uchar red
property uchar green
property uchar blue
end_header
-722 2146 -5410
-541 2150 -5411
2014 -2482 -5208
2081 -2445 -5407
-2921 -1141 -5224
-1540 2069 -5463
-2221 1807 -5392
2095 -2433 -5267
-1378 -2715 -5223
-317 2149 -5439
-861 2139 -5371
940 2038 -5378
2466 1272 -5424
2514 1194 -5266
1308 1967 -5323
2353 -2149 -5366
2368 -2127 -5219
-2110 -2524 -5296
-982 -2771 -5267
-897 -2782 -5361
-2313 -2409 -5236
1491 1916 -5196
1315 1964 -5244
1450 1928 -5211
1319 1963 -5243
656 -2794 -5213
428 -2804 -5239
833 -2784 -5188
966 -2773 -5162
-237 -2813 -5277
-332 -2811 -5277
1180 -2749 -5109
1092 -2760 -5133
42 -2812 -5268
212 -2810 -5257
2668 -1346 -5169
2760 -473 -5286
2749 -662 -5276
2684 -1248 -5191
2707 -1084 -5223
2734 -857 -5258
2730 -903 -5253
2763 -323 -5286
2763 -172 -5280
-2815 778 -5095
-2783 906 -5072
1602 1879 -5152
2056 1669 -5235
1945 1730 -5221
2289 1488 -5233
2236 1538 -5239
1753 1821 -5188
1825 1788 -5201
2116 1630 -5240
2173 1589 -5241
1702 1843 -5177
1631 1870 -5160
1607 1877 -5154
2450 1293 -5238
2644 885 -5195
2515 1192 -5238
2550 1129 -5234
2606 998 -5217
2576 1073 -5228
2353 1420 -5228
2390 1375 -5233
2667 805 -5177
391 -339 -3260
2361 -878 -4746
313 -385 -3198
2579 -1720 -5155
2614 -1602 -5129
2230 -2293 -5171
2317 -2191 -5184
2423 -2039 -5188
2454 -1987 -5186
2495 -1915 -5182
2337 -2167 -5186
2368 -2125 -5189
2544 -1822 -5175
2536 -1839 -5177
263 -380 -3162
2611 -1528 -5097
270 -381 -3167
2011 -2483 -5171
2086 -2438 -5173
1654 -2650 -5128
1551 -2679 -5103
1923 -2531 -5164
1817 -2582 -5153
1677 -2642 -5133
1750 -2612 -5144
1463 -2699 -5080
1414 -2709 -5065
2145 -2383 -5163
2097 -2430 -5173
-123 -721 -3146
-120 -752 -3169
-2440 -2294 -5121
-2015 -2553 -5082
-2105 -2519 -5102
-2259 -2444 -5128
-2303 -2412 -5129
-1911 -2586 -5054
-2420 -2312 -5122
-2212 -2470 -5122
-2197 -2477 -5119
-1839 -2606 -5034
-2325 -2395 -5128
-2354 -2371 -5127
-129 -725 -3150
-2709 -1945 -5141
-2741 -1878 -5134
-2813 -1682 -5101
-2777 -1788 -5121
-2539 -2195 -5137
-2577 -2154 -5143
-2646 -2056 -5146
-2832 -1613 -5085
-2600 -2126 -5147
-2611 -2113 -5148
-2646 1294 -5156
-2544 1479 -5175
-2487 1550 -5172
-2727 1096 -5118
-2560 1457 -5175
-2595 1392 -5168
-2695 1181 -5136
-2661 1260 -5150
-2766 969 -5087
-2746 1040 -5106
-2485 1552 -5172
-2418 1625 -5164
-2781 912 -5071
-2780 909 -5069
-2060 1901 -5181
-2026 1918 -5177
-1925 1959 -5161
-1747 2016 -5123
-1827 1994 -5142
-1697 2027 -5109
-2380 1665 -5164
-2184 1825 -5184
-2115 1870 -5184
-2235 1789 -5182
-2261 1770 -5181
-2339 1702 -5171
-2275 1758 -5179
2328 1446 -5225
2340 1434 -5225
258 -380 -3159
2174 -2353 -5160
2152 -2376 -5161
-123 -719 -3144
-124 -717 -3143
-93 -368 -2975
258 -380 -3159
-2440 -2293 -5120
-2468 -2266 -5121
-117 -390 -2975
-124 -716 -3142
-2404 1640 -5161
-519 -350 -3168
-2384 1660 -5163
-116 -345 -2975
-108 -6 -3155
-140 -366 -2975
-495 -357 -3153
-105 27 -3179
-108 9 -3165
-109 3 -3161
-118 15 -3171
-2842 -1572 -5074
-574 -358 -3205
-534 -354 -3177
-511 -355 -3162
-515 -354 -3164
-848 2139 -5325
215 2121 -5396
409 2104 -5385
-1182 2110 -5244
-796 2141 -5334
657 2076 -5359
-475 2149 -5377
778 2060 -5344
-50 2138 -5399
-252 2146 -5394
-572 2148 -5367
-670 2146 -5354
-285 2147 -5392
-370 2148 -5386
-893 2135 -5315
-1130 2115 -5257
1064 2015 -5292
942 2037 -5318
1185 1991 -5263
1189 1990 -5262
1419 1864 -5067
641 1626 -4582
-1154 -2748 -5209
-981 -2771 -5238
-1393 -2710 -5159
-1632 -2660 -5088
-1547 -2679 -5116
-1298 -2726 -5181
-1356 -2717 -5168
-503 -2806 -5272
-593 -2801 -5269
-1716 -2638 -5055
-812 -2786 -5255
-723 -2793 -5262
-480 -2806 -5272
-158 -2246 -4317
-776 -2333 -4496
-1800 -2615 -5022
-1800 -2615 -5022
-2847 611 -5126
-2947 -685 -5236
-2886 -1390 -5135
-2950 -292 -5248
-2951 -488 -5246
-2941 -121 -5240
-2938 -86 -5237
-2846 -1557 -5077
-2905 -1274 -5164
-2918 -1144 -5186
-2903 257 -5195
-2885 378 -5173
-2938 -897 -5219
-2934 -969 -5211
-2908 208 -5202
-2925 60 -5221
-2827 715 -5100
-2448 -339 -4552
-2762 764 -5011
-2544 231 -4698
-2844 -1564 -5074
-2586 -957 -4730
2725 454 -5227
2755 107 -5267
2762 -78 -5277
2739 323 -5245
2711 559 -5208
2689 695 -5178
2680 744 -5166
2752 169 -5263
2744 266 -5252
2763 -135 -5278
2678 753 -5163
2677 751 -5161
2378 54 -4757
2284 -406 -4630
1300 -2730 -5070
1265 -2735 -5079
1364 -2718 -5050
1344 -2709 -5036
463 -2383 -4527
766 -2710 -5045
-68 -2267 -4348
2635 -1518 -5128
2658 -1399 -5155
2340 -702 -4708
2626 -1555 -5117
2618 -1541 -5106
2672 -801 -5155
2326 -612 -4686
-1569 2054 -5124
-1340 2091 -5201
-1329 2093 -5204
-1641 2038 -5093
-1581 2010 -5050
-753 1687 -4565
-1215 2106 -5234
-66 1530 -4350
198 2125 -5529
485 2100 -5510
1451 1933 -5530
538 2094 -5508
844 2054 -5502
766 2065 -5502
1312 1969 -5516
1094 2013 -5504
966 2036 -5501
1161 2001 -5507
1197 1993 -5509
1437 1938 -5528
1411 1944 -5525
1330 1562 -5920
2062 1667 -5471
1931 1739 -5480
2234 1540 -5482
1730 1834 -5508
1872 1768 -5487
2110 1636 -5470
2167 1595 -5474
1650 1867 -5522
1621 1878 -5528
2264 1513 -5489
1547 1902 -5546
1331 1562 -5919
2650 871 -5488
2548 1135 -5446
2295 1483 -5481
2603 1008 -5461
2579 1069 -5452
2356 1418 -5464
2392 1374 -5456
2466 1272 -5446
2519 1187 -5444
2672 787 -5509
2666 817 -5501
2272 1505 -5489
2730 435 -5499
2757 78 -5507
2763 -74 -5516
2733 403 -5499
2717 529 -5501
2695 669 -5509
2764 -299 -5536
2764 -181 -5525
2751 197 -5502
2750 204 -5502
2677 764 -5516
2238 578 -5939
2666 -1361 -5505
2636 -1519 -5511
2760 -473 -5538
2749 -683 -5520
2688 -1224 -5503
2705 -1103 -5504
2746 -711 -5518
2729 -911 -5507
2762 -391 -5547
2759 -391 -5550
2352 -2152 -5428
2585 -1704 -5481
2613 -1611 -5509
2243 -2283 -5444
2288 -2229 -5436
2428 -2035 -5430
2382 -2106 -5428
2434 -2024 -5430
2511 -1888 -5441
2542 -1828 -5449
2526 -1861 -5444
2171 -2359 -5459
2245 -1454 -5879
2620 -1584 -5517
2261 -1452 -5868
2086 -2442 -5425
1616 -2669 -5429
1563 -2684 -5439
1911 -2541 -5414
1829 -2581 -5414
1666 -2652 -5423
1749 -2617 -5417
1984 -2502 -5417
2082 -2445 -5424
1463 -2709 -5460
2142 -2390 -5446
2115 -2416 -5435
2168 -2362 -5459
1305 -2319 -5868
634 -2802 -5446
520 -2806 -5449
1310 -2739 -5464
797 -2793 -5445
1024 -2775 -5448
1354 -2732 -5469
1196 -2756 -5455
1089 -2769 -5450
25 -2817 -5470
245 -2813 -5460
1401 -2722 -5475
1297 -2339 -5853
-1115 -2760 -5424
-231 -2817 -5477
-433 -2813 -5456
-1619 -2675 -5445
-1594 -2681 -5443
-1261 -2739 -5427
-1394 -2718 -5431
-495 -2811 -5450
-552 -2808 -5446
-1662 -2665 -5450
-738 -2796 -5435
-1018 -2772 -5424
-894 -2784 -5428
-178 -2817 -5483
-178 -2813 -5487
-2465 -2284 -5429
-2025 -2562 -5413
-2268 -2448 -5390
-1929 -2593 -5432
-2388 -2355 -5409
-2215 -2477 -5392
-2106 -2529 -5401
-1851 -2616 -5451
-2319 -2411 -5396
-2375 -2365 -5406
-2488 -2262 -5436
-1613 -2250 -5852
-1792 -2632 -5466
-1610 -2262 -5844
-2713 -1967 -5385
-2760 -1870 -5388
-2828 -1698 -5407
-2800 -1776 -5396
-2530 -2219 -5425
-2593 -2149 -5404
-2667 -2047 -5387
-2850 -1624 -5421
-2623 -2113 -5395
-2645 -2084 -5390
-2499 -2251 -5436
-2958 -706 -5426
-2899 -1410 -5408
-2963 -301 -5464
-2963 -461 -5447
-2942 -1015 -5409
-2873 -1531 -5420
-2923 -1236 -5404
-2919 -1274 -5403
-2951 -864 -5416
-2944 -987 -5410
-2858 -1594 -5428
-2870 588 -5448
-2959 -189 -5477
-2946 -16 -5464
-2835 779 -5453
-2817 857 -5459
-2915 278 -5451
-2901 382 -5449
-2929 156 -5455
-2939 59 -5460
-2959 -202 -5479
-2953 -203 -5485
-2656 1303 -5420
-2557 1477 -5418
-2518 1527 -5427
-2395 1663 -5464
-2742 1102 -5445
-2576 1450 -5415
-2618 1376 -5416
-2707 1190 -5432
-2682 1246 -5425
-2776 1007 -5463
-2770 1025 -5459
-2442 1613 -5448
-2441 1615 -5449
-2333 1720 -5488
-2786 971 -5472
-2392 849 -5863
-2071 1901 -5442
-2019 1928 -5440
-1923 1967 -5445
-1723 2030 -5474
-1843 1996 -5454
-1669 2043 -5485
-2131 1868 -5447
-2275 1769 -5473
-2222 1808 -5461
-2326 1727 -5488
-2314 1737 -5485
-2326 1727 -5489
-1470 1632 -5930
-1275 2106 -5476
-326 2150 -5511
-48 2141 -5543
-212 2147 -5524
-720 2147 -5482
-537 2152 -5492
-1540 2070 -5490
-1315 2102 -5477
-1064 2126 -5474
-874 2141 -5475
-16 2139 -5548
-16 2135 -5552
-1610 2056 -5498
-1469 1635 -5928
-67 1179 -6213
1475 803 -6211
1328 1557 -5923
1499 778 -6211
1812 -341 -6210
2212 598 -5950
2230 579 -5945
1810 -416 -6210
1412 -1537 -6211
2238 -1451 -5884
1403 -1546 -6211
-13 -1788 -6213
1302 -2311 -5873
-130 -1784 -6213
-1605 -1480 -6215
-1603 -2232 -5865
-1612 -1473 -6215
-1908 -254 -6216
-2416 -1394 -5875
-2418 -1389 -5874
-2418 -1392 -5874
-1908 -247 -6216
-2386 851 -5867
-2373 865 -5872
-149 1182 -6213
-1465 1620 -5937
-1597 896 -6215
-1598 898 -6214
-124 27 -3181
-18 1518 -4334
19 212 213 215 214 208 202 203 201 205 204 199 200 209 210 207 206 211 257 258 -1 -1 -1
22 233 235 234 232 216 227 226 230 231 222 221 219 220 217 228 229 225 224 218 223 236 237 -1 -1 -1
16 239 245 246 241 238 242 243 244 248 249 250 251 265 264 247 240 -1 -1 -1
7 155 156 150 149 148 165 164 -1 -1 -1
8 155 159 160 154 153 152 151 156 -1 -1 -1
6 159 166 167 158 157 160 -1 -1 -1
8 480 504 505 465 479 477 287 482 -1 -1 -1
8 484 486 323 333 348 346 489 487 -1 -1 -1
9 491 492 362 374 389 403 401 495 493 -1 -1 -1
6 436 452 502 501 497 499 -1 -1 -1
7 252 254 255 256 258 257 253 -1 -1 -1
7 261 263 262 259 260 264 265 -1 -1 -1
15 67 249 248 66 59 62 63 61 60 58 65 64 149 150 81 -1 -1 -1
3 67 250 249 -1 -1 -1
6 67 81 83 69 251 250 -1 -1 -1
5 68 261 265 251 69 -1 -1 -1
4 68 69 83 82 -1 -1 -1
19 71 262 263 82 83 81 150 156 151 72 73 77 78 74 75 76 80 79 70 -1 -1 -1
17 84 85 95 94 152 153 96 255 254 93 92 87 86 90 91 89 88 -1 -1 -1
4 96 97 256 255 -1 -1 -1
4 97 212 258 256 -1 -1 -1
7 96 153 154 110 213 212 97 -1 -1 -1
3 110 215 213 -1 -1 -1
18 104 109 108 102 101 105 106 100 99 103 107 214 215 110 154 160 157 98 -1 -1 -1
14 113 114 112 111 117 120 119 116 115 158 167 175 172 118 -1 -1 -1
3 173 233 237 -1 -1 -1
4 173 174 235 233 -1 -1 -1
6 134 234 235 174 176 162 -1 -1 -1
16 129 133 134 162 161 132 131 123 122 125 126 121 128 127 124 130 -1 -1 -1
7 172 175 176 174 173 237 236 -1 -1 -1
18 281 283 284 280 286 285 276 298 299 287 477 476 274 275 277 279 278 282 -1 -1 -1
12 288 293 294 290 297 299 298 296 295 291 292 289 -1 -1 -1
16 323 486 485 311 302 305 306 307 308 301 304 303 300 310 309 322 -1 -1 -1
14 312 315 321 320 313 314 319 318 332 333 323 322 317 316 -1 -1 -1
12 326 327 330 331 329 328 324 325 347 348 333 332 -1 -1 -1
15 343 344 342 341 339 340 334 338 337 345 346 348 347 336 335 -1 -1 -1
16 359 360 349 357 356 352 353 355 354 350 351 358 373 374 362 361 -1 -1 -1
14 365 369 370 367 366 363 364 372 371 388 389 374 373 368 -1 -1 -1
17 383 385 387 386 375 380 381 379 378 384 402 403 389 388 376 377 382 -1 -1 -1
14 401 403 402 397 393 391 396 395 392 398 399 394 390 400 -1 -1 -1
14 408 409 412 413 410 404 405 407 406 411 425 500 498 414 -1 -1 -1
15 415 418 417 435 436 499 500 425 420 416 422 421 419 424 423 -1 -1 -1
13 427 428 434 433 431 432 426 429 430 451 452 436 435 -1 -1 -1
18 441 444 445 437 443 442 438 439 448 449 440 450 503 502 452 451 446 447 -1 -1 -1
15 462 463 460 461 459 453 454 455 457 456 458 478 479 465 464 -1 -1 -1
14 466 474 475 470 471 467 469 468 476 477 479 478 472 473 -1 -1 -1
3 480 482 481 -1 -1 -1
4 485 486 484 483 -1 -1 -1
3 487 489 488 -1 -1 -1
3 490 492 491 -1 -1 -1
3 493 495 494 -1 -1 -1
5 496 498 500 499 497 -1 -1 -1
5 502 503 507 506 501 -1 -1 -1
4 506 507 505 504 -1 -1 -1
15 480 481 483 484 487 488 490 491 493 494 496 497 501 506 504 -1 -1 -1
4 155 164 166 159 -1 -1 -1
5 29 376 388 371 33 -1 -1 -1
5 178 274 476 468 185 -1 -1 -1
5 36 326 332 318 42 -1 -1 -1
5 219 221 427 435 417 -1 -1 -1
4 99 391 393 103 -1 -1 -1
4 138 140 458 456 -1 -1 -1
4 113 118 411 406 -1 -1 -1
4 51 291 295 55 -1 -1 -1
6 141 146 462 464 450 440 -1 -1 -1
4 70 79 343 335 -1 -1 -1
4 124 127 444 441 -1 -1 -1
8 72 151 152 94 359 361 345 337 -1 -1 -1
8 98 157 158 115 408 414 400 390 -1 -1 -1
4 86 350 354 90 -1 -1 -1
4 59 300 303 62 -1 -1 -1
6 49 148 149 64 305 302 -1 -1 -1
4 199 204 380 375 -1 -1 -1
3 10 191 177 -1 -1 -1
4 195 283 281 193 -1 -1 -1
3 4 419 421 -1 -1 -1
5 31 369 365 252 253 -1 -1 -1
4 238 312 316 242 -1 -1 -1
5 216 232 44 429 426 -1 -1 -1
4 35 324 328 38 -1 -1 -1
4 111 404 410 117 -1 -1 -1
4 135 136 454 453 -1 -1 -1
4 74 339 341 75 -1 -1 -1
5 2 84 88 352 356 -1 -1 -1
4 53 293 288 47 -1 -1 -1
4 12 58 60 13 -1 -1 -1
4 122 438 442 125 -1 -1 -1
4 101 392 395 105 -1 -1 -1
4 25 363 366 27 -1 -1 -1
3 1 187 183 -1 -1 -1
4 182 277 275 179 -1 -1 -1
4 18 19 209 200 -1 -1 -1
4 239 313 320 245 -1 -1 -1
4 217 220 418 415 -1 -1 -1
3 5 266 267 -1 -1 -1
4 208 384 378 202 -1 -1 -1
4 226 431 433 230 -1 -1 -1
4 40 330 327 37 -1 -1 -1
4 21 276 285 23 -1 -1 -1
3 6 144 142 -1 -1 -1
4 218 416 420 223 -1 -1 -1
4 126 443 437 121 -1 -1 -1
6 45 133 129 446 451 430 -1 -1 -1
4 114 407 405 112 -1 -1 -1
4 139 457 455 137 -1 -1 -1
3 20 102 108 -1 -1 -1
4 123 131 448 439 -1 -1 -1
4 87 92 358 351 -1 -1 -1
4 50 290 294 54 -1 -1 -1
4 48 289 292 52 -1 -1 -1
5 206 382 377 30 211 -1 -1 -1
5 15 77 73 338 334 -1 -1 -1
6 259 262 71 336 347 325 -1 -1 -1
5 243 317 322 309 244 -1 -1 -1
4 63 304 301 61 -1 -1 -1
4 89 91 355 353 -1 -1 -1
4 116 119 412 409 -1 -1 -1
3 17 100 106 -1 -1 -1
5 8 201 203 379 381 -1 -1 -1
4 34 372 364 26 -1 -1 -1
3 11 282 278 -1 -1 -1
5 12 307 306 65 58 -1 -1 -1
4 28 367 370 32 -1 -1 -1
4 180 192 474 466 -1 -1 -1
4 216 426 432 227 -1 -1 -1
5 240 247 43 319 314 -1 -1 -1
4 217 415 423 228 -1 -1 -1
6 7 95 85 3 357 349 -1 -1 -1
4 39 329 331 41 -1 -1 -1
6 10 177 181 0 470 475 -1 -1 -1
5 186 469 467 9 189 -1 -1 -1
5 14 22 24 286 280 -1 -1 -1
4 241 315 312 238 -1 -1 -1
4 218 224 422 416 -1 -1 -1
4 76 342 344 80 -1 -1 -1
4 47 288 289 48 -1 -1 -1
4 210 385 383 207 -1 -1 -1
4 219 417 418 220 -1 -1 -1
5 35 260 259 325 324 -1 -1 -1
4 66 310 300 59 -1 -1 -1
4 15 334 340 16 -1 -1 -1
4 98 390 394 104 -1 -1 -1
4 221 222 428 427 -1 -1 -1
4 178 179 275 274 -1 -1 -1
4 26 364 363 25 -1 -1 -1
4 111 112 405 404 -1 -1 -1
4 135 453 459 143 -1 -1 -1
4 137 455 454 136 -1 -1 -1
4 113 406 407 114 -1 -1 -1
3 7 349 360 -1 -1 -1
4 145 460 463 147 -1 -1 -1
4 138 456 457 139 -1 -1 -1
4 231 434 428 222 -1 -1 -1
5 252 365 368 93 254 -1 -1 -1
4 37 327 326 36 -1 -1 -1
5 13 60 61 301 308 -1 -1 -1
5 17 396 391 99 100 -1 -1 -1
6 49 302 311 297 290 50 -1 -1 -1
4 2 3 85 84 -1 -1 -1
7 140 269 266 5 472 478 458 -1 -1 -1
4 45 430 429 44 -1 -1 -1
4 70 335 336 71 -1 -1 -1
5 199 375 386 18 200 -1 -1 -1
5 180 466 473 268 272 -1 -1 -1
5 101 102 20 398 392 -1 -1 -1
4 121 437 445 128 -1 -1 -1
7 21 46 57 56 296 298 276 -1 -1 -1
4 87 351 350 86 -1 -1 -1
4 122 123 439 438 -1 -1 -1
6 141 440 449 132 161 163 -1 -1 -1
5 229 424 419 4 225 -1 -1 -1
3 0 181 188 -1 -1 -1
4 182 184 279 277 -1 -1 -1
4 51 52 292 291 -1 -1 -1
4 240 314 313 239 -1 -1 -1
4 103 393 397 107 -1 -1 -1
6 1 183 190 9 467 471 -1 -1 -1
4 124 441 447 130 -1 -1 -1
4 62 303 304 63 -1 -1 -1
4 241 246 321 315 -1 -1 -1
4 27 366 367 28 -1 -1 -1
4 72 337 338 73 -1 -1 -1
5 184 194 11 278 279 -1 -1 -1
4 53 54 294 293 -1 -1 -1
5 6 142 143 459 461 -1 -1 -1
4 89 353 352 88 -1 -1 -1
4 125 442 443 126 -1 -1 -1
4 115 116 409 408 -1 -1 -1
4 242 316 317 243 -1 -1 -1
3 14 280 284 -1 -1 -1
4 90 354 355 91 -1 -1 -1
4 185 468 469 186 -1 -1 -1
4 117 410 413 120 -1 -1 -1
4 65 306 305 64 -1 -1 -1
7 223 420 425 411 118 172 236 -1 -1 -1
5 16 340 339 74 78 -1 -1 -1
4 29 30 377 376 -1 -1 -1
6 0 188 187 1 471 470 -1 -1 -1
4 104 394 399 109 -1 -1 -1
4 2 356 357 3 -1 -1 -1
5 93 368 373 358 92 -1 -1 -1
3 8 205 201 -1 -1 -1
5 4 421 422 224 225 -1 -1 -1
5 5 267 268 473 472 -1 -1 -1
4 75 341 342 76 -1 -1 -1
4 202 378 379 203 -1 -1 -1
4 38 328 329 39 -1 -1 -1
5 6 461 460 145 144 -1 -1 -1
4 31 32 370 369 -1 -1 -1
5 7 360 359 94 95 -1 -1 -1
5 8 381 380 204 205 -1 -1 -1
4 206 207 383 382 -1 -1 -1
3 9 190 189 -1 -1 -1
5 10 475 474 192 191 -1 -1 -1
5 11 194 193 281 282 -1 -1 -1
4 12 13 308 307 -1 -1 -1
6 14 284 283 195 196 22 -1 -1 -1
4 227 432 431 226 -1 -1 -1
4 55 295 296 56 -1 -1 -1
4 40 41 331 330 -1 -1 -1
5 244 309 310 66 248 -1 -1 -1
4 23 285 286 24 -1 -1 -1
4 15 16 78 77 -1 -1 -1
5 17 106 105 395 396 -1 -1 -1
6 208 214 107 397 402 384 -1 -1 -1
4 228 423 424 229 -1 -1 -1
4 127 128 445 444 -1 -1 -1
4 33 371 372 34 -1 -1 -1
4 130 447 446 129 -1 -1 -1
4 146 147 463 462 -1 -1 -1
4 42 318 319 43 -1 -1 -1
5 19 387 385 210 209 -1 -1 -1
4 79 80 344 343 -1 -1 -1
4 18 386 387 19 -1 -1 -1
5 20 108 109 399 398 -1 -1 -1
4 230 433 434 231 -1 -1 -1
4 119 120 413 412 -1 -1 -1
4 132 449 448 131 -1 -1 -1
4 245 320 321 246 -1 -1 -1
4 261 68 82 263 -1 -1 -1
7 24 22 196 197 46 21 23 -1 -1 -1
13 211 30 29 33 34 26 25 27 28 32 31 253 257 -1 -1 -1
12 260 35 38 39 41 40 37 36 42 43 247 264 -1 -1 -1
6 133 45 44 232 234 134 -1 -1 -1
8 481 482 287 299 297 311 485 483 -1 -1 -1
8 362 492 490 488 489 346 345 361 -1 -1 -1
7 494 495 401 400 414 498 496 -1 -1 -1
6 465 505 507 503 450 464 -1 -1 -1
8 509 273 271 508 171 170 169 168 -1 0 0
25 273 509 198 197 196 195 193 194 184 182 179 178 185 186 189 190 183 187 188 181 177 191 192 180 272 0 -1 0
11 170 171 163 161 162 176 175 167 166 164 165 0 -1 0
8 271 273 272 268 267 266 269 270 0 -1 0
3 509 168 198 0 -1 0
6 168 169 57 46 197 198 0 -1 0
15 169 170 165 148 49 50 54 53 47 48 52 51 55 56 57 0 -1 0
18 171 508 270 269 140 138 139 137 136 135 143 142 144 145 147 146 141 163 0 -1 0
3 508 271 270 0 -1 0
