ply
format ascii 1.0
comment converted from made-by-Polyhedron_join_facets_2
element vertex 514
property float x
property float y
property float z
element face 259
property list uchar uint vertex_indices
property uchar red
property uchar green
property uchar blue
end_header
-722 2146 -5410
-541 2150 -5411
2014 -2482 -5208
2081 -2445 -5407
-2921 -1141 -5224
-1540 2069 -5463
-2221 1807 -5392
2095 -2433 -5267
-1378 -2715 -5223
-317 2149 -5439
-861 2139 -5371
940 2038 -5378
2466 1272 -5424
2514 1194 -5266
1308 1967 -5323
2353 -2149 -5366
2368 -2127 -5219
-2110 -2524 -5296
-982 -2771 -5267
-897 -2782 -5361
-2313 -2409 -5236
1491 1916 -5196
1315 1964 -5244
1450 1928 -5211
1319 1963 -5243
656 -2794 -5213
428 -2804 -5239
833 -2784 -5188
966 -2773 -5162
1180 -2749 -5109
1092 -2760 -5133
42 -2812 -5268
212 -2810 -5257
2668 -1346 -5169
2760 -473 -5286
2749 -662 -5276
2684 -1248 -5191
2707 -1084 -5223
2734 -857 -5258
2730 -903 -5253
2763 -323 -5286
2763 -172 -5280
-2815 778 -5095
-2783 906 -5072
1602 1879 -5152
2056 1669 -5235
1945 1730 -5221
2289 1488 -5233
2236 1538 -5239
1753 1821 -5188
1825 1788 -5201
2116 1630 -5240
2173 1589 -5241
1702 1843 -5177
1631 1870 -5160
1607 1877 -5154
2450 1293 -5238
2644 885 -5195
2515 1192 -5238
2550 1129 -5234
2606 998 -5217
2576 1073 -5228
2353 1420 -5228
2390 1375 -5233
2667 805 -5177
391 -339 -3260
2361 -878 -4746
313 -385 -3198
2579 -1720 -5155
2614 -1602 -5129
2230 -2293 -5171
2317 -2191 -5184
2423 -2039 -5188
2454 -1987 -5186
2495 -1915 -5182
2337 -2167 -5186
2368 -2125 -5189
2544 -1822 -5175
2536 -1839 -5177
263 -380 -3162
2611 -1528 -5097
270 -381 -3167
2011 -2483 -5171
2086 -2438 -5173
1654 -2650 -5128
1551 -2679 -5103
1923 -2531 -5164
1817 -2582 -5153
1677 -2642 -5133
1750 -2612 -5144
1463 -2699 -5080
1414 -2709 -5065
2145 -2383 -5163
2097 -2430 -5173
-123 -721 -3146
-120 -752 -3169
-2440 -2294 -5121
-2015 -2553 -5082
-2105 -2519 -5102
-2259 -2444 -5128
-2303 -2412 -5129
-1911 -2586 -5054
-2420 -2312 -5122
-2212 -2470 -5122
-2197 -2477 -5119
-1839 -2606 -5034
-2325 -2395 -5128
-2354 -2371 -5127
-129 -725 -3150
-2709 -1945 -5141
-2741 -1878 -5134
-2813 -1682 -5101
-2777 -1788 -5121
-2539 -2195 -5137
-2577 -2154 -5143
-2646 -2056 -5146
-2832 -1613 -5085
-2600 -2126 -5147
-2611 -2113 -5148
-2646 1294 -5156
-2544 1479 -5175
-2487 1550 -5172
-2727 1096 -5118
-2560 1457 -5175
-2595 1392 -5168
-2695 1181 -5136
-2661 1260 -5150
-2766 969 -5087
-2746 1040 -5106
-2485 1552 -5172
-2418 1625 -5164
-2781 912 -5071
-2780 909 -5069
-2060 1901 -5181
-2026 1918 -5177
-1925 1959 -5161
-1747 2016 -5123
-1827 1994 -5142
-1697 2027 -5109
-2380 1665 -5164
-2184 1825 -5184
-2115 1870 -5184
-2235 1789 -5182
-2261 1770 -5181
-2339 1702 -5171
-2275 1758 -5179
2328 1446 -5225
2340 1434 -5225
258 -380 -3159
2174 -2353 -5160
2152 -2376 -5161
-123 -719 -3144
-124 -717 -3143
-93 -368 -2975
258 -380 -3159
-2440 -2293 -5120
-2468 -2266 -5121
-117 -390 -2975
-124 -716 -3142
-2404 1640 -5161
-519 -350 -3168
-2384 1660 -5163
-116 -345 -2975
-108 -6 -3155
-140 -366 -2975
-495 -357 -3153
-105 28 -3179
-108 9 -3165
-120 21 -3176
-85 614 -3630
-211 368 -3453
-109 2 -3160
-117 15 -3171
-2842 -1572 -5074
-574 -358 -3205
-534 -354 -3177
-511 -355 -3162
-515 -354 -3164
-848 2139 -5325
215 2121 -5396
409 2104 -5385
-1182 2110 -5244
-796 2141 -5334
657 2076 -5359
-475 2149 -5377
778 2060 -5344
-50 2138 -5399
-252 2146 -5394
-572 2148 -5367
-670 2146 -5354
-285 2147 -5392
-370 2148 -5386
-893 2135 -5315
-1130 2115 -5257
1064 2015 -5292
942 2037 -5318
1185 1991 -5263
1189 1990 -5262
1419 1864 -5067
641 1626 -4582
-18 1518 -4334
-1393 -2710 -5159
-1632 -2660 -5088
-1547 -2679 -5116
-1356 -2717 -5168
-1716 -2638 -5055
-776 -2333 -4496
-1800 -2615 -5022
-1800 -2615 -5022
-2847 611 -5126
-2947 -685 -5236
-2886 -1390 -5135
-2950 -292 -5248
-2951 -488 -5246
-2941 -121 -5240
-2938 -86 -5237
-2846 -1557 -5077
-2905 -1274 -5164
-2918 -1144 -5186
-2903 257 -5195
-2885 378 -5173
-2938 -897 -5219
-2934 -969 -5211
-2908 208 -5202
-2925 60 -5221
-2827 715 -5100
-2448 -339 -4552
-2762 764 -5011
-2544 231 -4698
-2844 -1564 -5074
-2586 -957 -4730
2725 454 -5227
2755 107 -5267
2762 -78 -5277
2739 323 -5245
2711 559 -5208
2689 695 -5178
2680 744 -5166
2752 169 -5263
2744 266 -5252
2763 -135 -5278
2678 753 -5163
2677 751 -5161
2378 54 -4757
2284 -406 -4630
1300 -2730 -5070
1364 -2718 -5050
1344 -2709 -5036
463 -2383 -4527
2635 -1518 -5128
2658 -1399 -5155
2340 -702 -4708
2626 -1555 -5117
2618 -1541 -5106
2672 -801 -5155
2326 -612 -4686
-1569 2054 -5124
-1340 2091 -5201
-1329 2093 -5204
-1641 2038 -5093
-1581 2010 -5050
-753 1687 -4565
-1215 2106 -5234
-66 1530 -4350
198 2125 -5529
485 2100 -5510
1451 1933 -5530
538 2094 -5508
844 2054 -5502
766 2065 -5502
1312 1969 -5516
1094 2013 -5504
966 2036 -5501
1161 2001 -5507
1197 1993 -5509
1437 1938 -5528
1411 1944 -5525
1330 1562 -5920
2062 1667 -5471
1931 1739 -5480
2234 1540 -5482
1730 1834 -5508
1872 1768 -5487
2110 1636 -5470
2167 1595 -5474
1650 1867 -5522
1621 1878 -5528
2264 1513 -5489
1547 1902 -5546
1331 1562 -5919
2650 871 -5488
2548 1135 -5446
2295 1483 -5481
2603 1008 -5461
2579 1069 -5452
2356 1418 -5464
2392 1374 -5456
2466 1272 -5446
2519 1187 -5444
2672 787 -5509
2666 817 -5501
2272 1505 -5489
2730 435 -5499
2757 78 -5507
2763 -74 -5516
2733 403 -5499
2717 529 -5501
2695 669 -5509
2764 -299 -5536
2764 -181 -5525
2751 197 -5502
2750 204 -5502
2677 764 -5516
2238 578 -5939
2666 -1361 -5505
2636 -1519 -5511
2760 -473 -5538
2749 -683 -5520
2688 -1224 -5503
2705 -1103 -5504
2746 -711 -5518
2729 -911 -5507
2762 -391 -5547
2759 -391 -5550
2352 -2152 -5428
2585 -1704 -5481
2613 -1611 -5509
2243 -2283 -5444
2288 -2229 -5436
2428 -2035 -5430
2382 -2106 -5428
2434 -2024 -5430
2511 -1888 -5441
2542 -1828 -5449
2526 -1861 -5444
2171 -2359 -5459
2245 -1454 -5879
2620 -1584 -5517
2261 -1452 -5868
2086 -2442 -5425
1616 -2669 -5429
1563 -2684 -5439
1911 -2541 -5414
1829 -2581 -5414
1666 -2652 -5423
1749 -2617 -5417
1984 -2502 -5417
2082 -2445 -5424
1463 -2709 -5460
2142 -2390 -5446
2115 -2416 -5435
2168 -2362 -5459
1305 -2319 -5868
634 -2802 -5446
520 -2806 -5449
1310 -2739 -5464
797 -2793 -5445
1024 -2775 -5448
1354 -2732 -5469
1196 -2756 -5455
1089 -2769 -5450
25 -2817 -5470
245 -2813 -5460
1401 -2722 -5475
1297 -2339 -5853
-1115 -2760 -5424
-231 -2817 -5477
-433 -2813 -5456
-1619 -2675 -5445
-1594 -2681 -5443
-1261 -2739 -5427
-1394 -2718 -5431
-495 -2811 -5450
-552 -2808 -5446
-1662 -2665 -5450
-738 -2796 -5435
-1018 -2772 -5424
-894 -2784 -5428
-178 -2817 -5483
-178 -2813 -5487
-2465 -2284 -5429
-2025 -2562 -5413
-2268 -2448 -5390
-1929 -2593 -5432
-2388 -2355 -5409
-2215 -2477 -5392
-2106 -2529 -5401
-1851 -2616 -5451
-2319 -2411 -5396
-2375 -2365 -5406
-2488 -2262 -5436
-1613 -2250 -5852
-1792 -2632 -5466
-1610 -2262 -5844
-2713 -1967 -5385
-2760 -1870 -5388
-2828 -1698 -5407
-2800 -1776 -5396
-2530 -2219 -5425
-2593 -2149 -5404
-2667 -2047 -5387
-2850 -1624 -5421
-2623 -2113 -5395
-2645 -2084 -5390
-2499 -2251 -5436
-2958 -706 -5426
-2899 -1410 -5408
-2963 -301 -5464
-2963 -461 -5447
-2942 -1015 -5409
-2873 -1531 -5420
-2923 -1236 -5404
-2919 -1274 -5403
-2951 -864 -5416
-2944 -987 -5410
-2858 -1594 -5428
-2870 588 -5448
-2959 -189 -5477
-2946 -16 -5464
-2835 779 -5453
-2817 857 -5459
-2915 278 -5451
-2901 382 -5449
-2929 156 -5455
-2939 59 -5460
-2959 -202 -5479
-2953 -203 -5485
-2656 1303 -5420
-2557 1477 -5418
-2518 1527 -5427
-2395 1663 -5464
-2742 1102 -5445
-2576 1450 -5415
-2618 1376 -5416
-2707 1190 -5432
-2682 1246 -5425
-2776 1007 -5463
-2770 1025 -5459
-2442 1613 -5448
-2441 1615 -5449
-2333 1720 -5488
-2786 971 -5472
-2392 849 -5863
-2071 1901 -5442
-2019 1928 -5440
-1923 1967 -5445
-1723 2030 -5474
-1843 1996 -5454
-1669 2043 -5485
-2131 1868 -5447
-2275 1769 -5473
-2222 1808 -5461
-2326 1727 -5488
-2314 1737 -5485
-2326 1727 -5489
-1470 1632 -5930
-1275 2106 -5476
-326 2150 -5511
-48 2141 -5543
-212 2147 -5524
-720 2147 -5482
-537 2152 -5492
-1540 2070 -5490
-1315 2102 -5477
-1064 2126 -5474
-874 2141 -5475
-16 2139 -5548
-16 2135 -5552
-1610 2056 -5498
-1469 1635 -5928
-67 1179 -6213
1475 803 -6211
1328 1557 -5923
1499 778 -6211
1812 -341 -6210
2212 598 -5950
2230 579 -5945
1810 -416 -6210
1412 -1537 -6211
2238 -1451 -5884
1403 -1546 -6211
-13 -1788 -6213
1302 -2311 -5873
-130 -1784 -6213
-1605 -1480 -6215
-1603 -2232 -5865
-1612 -1473 -6215
-1908 -254 -6216
-2416 -1394 -5875
-2418 -1389 -5874
-2418 -1392 -5874
-1908 -247 -6216
-2386 851 -5867
-2373 865 -5872
-149 1182 -6213
-1465 1620 -5937
-1597 896 -6215
-1598 898 -6214
-981 -2771 -5241
-816 -2786 -5259
-122 -2813 -5273
-237 -2813 -5278
-334 -2811 -5280
1250 -2738 -5085
-158 -2243 -4315
-1154 -2748 -5211
-1303 -2726 -5180
-1298 -2726 -5181
-503 -2806 -5279
-592 -2802 -5276
-723 -2793 -5267
-530 -2298 -4425
1275 -2734 -5077
145 -2314 -4420
25 194 195 185 183 180 179 186 187 190 191 184 188 189 182 178 192 193 181 262 263 200 199 198 197 196 100 100 100
22 226 228 227 225 209 220 219 223 224 215 214 212 213 210 221 222 218 217 211 216 229 230 100 100 100
16 232 238 239 234 231 235 236 237 241 242 243 244 255 254 240 233 100 100 100
7 153 154 148 147 146 163 162 100 100 100
8 153 157 158 152 151 150 149 154 100 100 100
6 157 164 165 156 155 158 100 100 100
11 163 171 172 161 159 160 177 176 165 164 162 100 100 100
8 470 494 495 455 469 467 277 472 100 100 100
8 474 476 313 323 338 336 479 477 100 100 100
9 481 482 352 364 379 393 391 485 483 100 100 100
6 426 442 492 491 487 489 100 100 100
7 251 253 252 249 250 254 255 100 100 100
8 256 259 260 261 263 262 258 257 100 100 100
4 166 199 200 169 100 100 100
6 44 198 199 166 167 55 100 100 100
15 53 54 55 167 171 163 146 47 48 52 51 45 46 50 49 100 100 100
15 65 242 241 64 57 60 61 59 58 56 63 62 147 148 79 100 100 100
3 65 243 242 100 100 100
6 65 79 81 67 244 243 100 100 100
5 66 251 255 244 67 100 100 100
4 66 67 81 80 100 100 100
19 69 252 253 80 81 79 148 154 149 70 71 75 76 72 73 74 78 77 68 100 100 100
17 82 83 93 92 150 151 94 247 246 91 90 85 84 88 89 87 86 100 100 100
4 94 95 248 247 100 100 100
3 108 208 206 100 100 100
18 102 107 106 100 99 103 104 98 97 101 105 207 208 108 152 158 155 96 100 100 100
14 111 112 110 109 115 118 117 114 113 156 165 176 173 116 100 100 100
3 174 226 230 100 100 100
4 174 175 228 226 100 100 100
6 132 227 228 175 177 160 100 100 100
16 127 131 132 160 159 130 129 121 120 123 124 119 126 125 122 128 100 100 100
18 168 260 259 138 136 137 135 134 133 141 140 142 143 145 144 139 161 172 100 100 100
4 168 170 261 260 100 100 100
5 169 200 263 261 170 100 100 100
7 173 176 177 175 174 230 229 100 100 100
18 271 273 274 270 276 275 266 288 289 277 467 466 264 265 267 269 268 272 100 100 100
12 278 283 284 280 287 289 288 286 285 281 282 279 100 100 100
16 313 476 475 301 292 295 296 297 298 291 294 293 290 300 299 312 100 100 100
14 302 305 311 310 303 304 309 308 322 323 313 312 307 306 100 100 100
12 316 317 320 321 319 318 314 315 337 338 323 322 100 100 100
15 333 334 332 331 329 330 324 328 327 335 336 338 337 326 325 100 100 100
16 349 350 339 347 346 342 343 345 344 340 341 348 363 364 352 351 100 100 100
14 355 359 360 357 356 353 354 362 361 378 379 364 363 358 100 100 100
17 373 375 377 376 365 370 371 369 368 374 392 393 379 378 366 367 372 100 100 100
14 391 393 392 387 383 381 386 385 382 388 389 384 380 390 100 100 100
14 398 399 402 403 400 394 395 397 396 401 415 490 488 404 100 100 100
15 405 408 407 425 426 489 490 415 410 406 412 411 409 414 413 100 100 100
13 417 418 424 423 421 422 416 419 420 441 442 426 425 100 100 100
18 431 434 435 427 433 432 428 429 438 439 430 440 493 492 442 441 436 437 100 100 100
15 452 453 450 451 449 443 444 445 447 446 448 468 469 455 454 100 100 100
14 456 464 465 460 461 457 459 458 466 467 469 468 462 463 100 100 100
3 470 472 471 100 100 100
4 475 476 474 473 100 100 100
3 477 479 478 100 100 100
3 480 482 481 100 100 100
3 483 485 484 100 100 100
5 486 488 490 489 487 100 100 100
5 492 493 497 496 491 100 100 100
4 496 497 495 494 100 100 100
15 470 471 473 474 477 478 480 481 483 484 486 487 491 496 494 100 100 100
4 153 162 164 157 100 100 100
5 179 264 466 458 186 100 100 100
5 34 316 322 308 40 100 100 100
5 212 214 417 425 407 100 100 100
4 97 381 383 101 100 100 100
4 136 138 448 446 100 100 100
4 111 116 401 396 100 100 100
4 49 281 285 53 100 100 100
6 139 144 452 454 440 430 100 100 100
4 68 77 333 325 100 100 100
4 122 125 434 431 100 100 100
8 70 149 150 92 349 351 335 327 100 100 100
8 96 155 156 113 398 404 390 380 100 100 100
4 84 340 344 88 100 100 100
4 57 290 293 60 100 100 100
6 47 146 147 62 295 292 100 100 100
3 10 192 178 100 100 100
4 196 273 271 194 100 100 100
3 4 409 411 100 100 100
4 231 302 306 235 100 100 100
5 209 225 42 419 416 100 100 100
4 33 314 318 36 100 100 100
4 109 394 400 115 100 100 100
4 133 134 444 443 100 100 100
4 72 329 331 73 100 100 100
5 2 82 86 342 346 100 100 100
4 51 283 278 45 100 100 100
4 12 56 58 13 100 100 100
4 120 428 432 123 100 100 100
4 99 382 385 103 100 100 100
4 25 353 356 27 100 100 100
3 1 188 184 100 100 100
4 183 267 265 180 100 100 100
4 232 303 310 238 100 100 100
4 210 213 408 405 100 100 100
3 5 256 257 100 100 100
4 205 374 368 202 100 100 100
4 219 421 423 223 100 100 100
4 38 320 317 35 100 100 100
4 21 266 275 23 100 100 100
3 6 142 140 100 100 100
4 211 406 410 216 100 100 100
4 124 433 427 119 100 100 100
6 43 131 127 436 441 420 100 100 100
4 112 397 395 110 100 100 100
4 137 447 445 135 100 100 100
3 20 100 106 100 100 100
4 121 129 438 429 100 100 100
4 85 90 348 341 100 100 100
4 48 280 284 52 100 100 100
4 46 279 282 50 100 100 100
5 15 75 71 328 324 100 100 100
6 249 252 69 326 337 315 100 100 100
5 236 307 312 299 237 100 100 100
4 61 294 291 59 100 100 100
4 87 89 345 343 100 100 100
4 114 117 402 399 100 100 100
3 17 98 104 100 100 100
5 8 201 203 369 371 100 100 100
4 32 362 354 26 100 100 100
3 11 272 268 100 100 100
5 12 297 296 63 56 100 100 100
4 28 357 360 30 100 100 100
4 181 193 464 456 100 100 100
4 209 416 422 220 100 100 100
5 233 240 41 309 304 100 100 100
4 210 405 413 221 100 100 100
6 7 93 83 3 347 339 100 100 100
4 37 319 321 39 100 100 100
6 10 178 182 0 460 465 100 100 100
5 187 459 457 9 190 100 100 100
5 14 22 24 276 270 100 100 100
4 234 305 302 231 100 100 100
4 211 217 412 406 100 100 100
4 74 332 334 78 100 100 100
4 45 278 279 46 100 100 100
4 212 407 408 213 100 100 100
5 33 250 249 315 314 100 100 100
4 64 300 290 57 100 100 100
4 15 324 330 16 100 100 100
4 96 380 384 102 100 100 100
4 214 215 418 417 100 100 100
4 179 180 265 264 100 100 100
4 26 354 353 25 100 100 100
4 109 110 395 394 100 100 100
4 133 443 449 141 100 100 100
4 135 445 444 134 100 100 100
4 111 396 397 112 100 100 100
3 7 339 350 100 100 100
4 143 450 453 145 100 100 100
4 136 446 447 137 100 100 100
4 224 424 418 215 100 100 100
5 245 355 358 91 246 100 100 100
4 35 317 316 34 100 100 100
5 13 58 59 291 298 100 100 100
5 17 386 381 97 98 100 100 100
6 47 292 301 287 280 48 100 100 100
4 2 3 83 82 100 100 100
7 138 259 256 5 462 468 448 100 100 100
4 43 420 419 42 100 100 100
4 68 325 326 69 100 100 100
5 181 456 463 258 262 100 100 100
5 99 100 20 388 382 100 100 100
4 119 427 435 126 100 100 100
7 21 44 55 54 286 288 266 100 100 100
4 85 341 340 84 100 100 100
4 120 121 429 428 100 100 100
6 139 430 439 130 159 161 100 100 100
5 222 414 409 4 218 100 100 100
3 0 182 189 100 100 100
4 183 185 269 267 100 100 100
4 49 50 282 281 100 100 100
4 233 304 303 232 100 100 100
4 101 383 387 105 100 100 100
6 1 184 191 9 457 461 100 100 100
4 122 431 437 128 100 100 100
4 60 293 294 61 100 100 100
4 234 239 311 305 100 100 100
4 27 356 357 28 100 100 100
4 70 327 328 71 100 100 100
5 185 195 11 268 269 100 100 100
4 51 52 284 283 100 100 100
5 6 140 141 449 451 100 100 100
4 87 343 342 86 100 100 100
4 123 432 433 124 100 100 100
4 113 114 399 398 100 100 100
4 235 306 307 236 100 100 100
3 14 270 274 100 100 100
4 88 344 345 89 100 100 100
4 186 458 459 187 100 100 100
4 115 400 403 118 100 100 100
4 63 296 295 62 100 100 100
7 216 410 415 401 116 173 229 100 100 100
5 16 330 329 72 76 100 100 100
6 0 189 188 1 461 460 100 100 100
4 102 384 389 107 100 100 100
4 2 346 347 3 100 100 100
5 91 358 363 348 90 100 100 100
3 8 204 201 100 100 100
5 4 411 412 217 218 100 100 100
5 5 257 258 463 462 100 100 100
4 73 331 332 74 100 100 100
4 202 368 369 203 100 100 100
4 36 318 319 37 100 100 100
5 6 451 450 143 142 100 100 100
4 29 30 360 359 100 100 100
5 7 350 349 92 93 100 100 100
3 9 191 190 100 100 100
5 10 465 464 193 192 100 100 100
5 11 195 194 271 272 100 100 100
4 12 13 298 297 100 100 100
6 14 274 273 196 197 22 100 100 100
4 220 422 421 219 100 100 100
4 53 285 286 54 100 100 100
4 38 39 321 320 100 100 100
5 237 299 300 64 241 100 100 100
4 23 275 276 24 100 100 100
4 15 16 76 75 100 100 100
5 17 104 103 385 386 100 100 100
6 205 207 105 387 392 374 100 100 100
4 221 413 414 222 100 100 100
4 125 126 435 434 100 100 100
4 31 361 362 32 100 100 100
4 128 437 436 127 100 100 100
4 144 145 453 452 100 100 100
4 40 308 309 41 100 100 100
4 77 78 334 333 100 100 100
4 18 376 377 19 100 100 100
5 20 106 107 389 388 100 100 100
4 223 423 424 224 100 100 100
4 117 118 403 402 100 100 100
4 130 439 438 129 100 100 100
4 238 310 311 239 100 100 100
4 251 66 80 253 100 100 100
7 170 168 172 171 167 166 169 100 100 100
7 24 22 197 198 44 21 23 100 100 100
12 250 33 36 37 39 38 35 34 40 41 240 254 100 100 100
6 131 43 42 225 227 132 100 100 100
8 471 472 277 289 287 301 475 473 100 100 100
8 352 482 480 478 479 336 335 351 100 100 100
7 484 485 391 390 404 488 486 100 100 100
6 455 495 497 493 440 454 100 100 100
16 506 511 504 513 512 503 500 501 502 508 509 510 499 498 505 507 -1 0 0
10 506 511 206 208 207 205 202 203 201 204 100 0 0
6 513 512 245 246 247 248 100 0 0
4 504 513 248 95 100 0 0
8 511 504 95 94 151 152 108 206 100 0 0
6 500 501 366 378 361 31 100 0 0
4 505 507 370 365 100 0 0
6 512 503 29 359 355 245 100 0 0
4 499 498 18 19 100 0 0
4 502 508 372 367 100 0 0
4 509 510 375 373 100 0 0
5 498 505 365 376 18 100 0 0
4 501 502 367 366 100 0 0
6 507 506 204 8 371 370 100 0 0
4 508 509 373 372 100 0 0
5 510 499 19 377 375 100 0 0
10 503 500 31 32 26 25 27 28 30 29 100 0 0
