ply
format ascii 1.0
comment converted from made-by-Polyhedron_join_facets_2
element vertex 511
property float x
property float y
property float z
element face 257
property list uchar uint vertex_indices
property uchar red
property uchar green
property uchar blue
end_header
-722 2146 -5410
-541 2150 -5411
2014 -2482 -5208
2081 -2445 -5407
-2921 -1141 -5224
-1540 2069 -5463
-2221 1807 -5392
2095 -2433 -5267
-1378 -2715 -5223
-317 2149 -5439
-861 2139 -5371
940 2038 -5378
2466 1272 -5424
2514 1194 -5266
1308 1967 -5323
2353 -2149 -5366
2368 -2127 -5219
-2110 -2524 -5296
-982 -2771 -5267
-897 -2782 -5361
-2313 -2409 -5236
1491 1916 -5196
1315 1964 -5244
1450 1928 -5211
1319 1963 -5243
656 -2794 -5213
428 -2804 -5239
833 -2784 -5188
966 -2773 -5162
-237 -2813 -5277
-332 -2811 -5277
1180 -2749 -5109
1092 -2760 -5133
42 -2812 -5268
212 -2810 -5257
2668 -1346 -5169
2760 -473 -5286
2749 -662 -5276
2684 -1248 -5191
2707 -1084 -5223
2734 -857 -5258
2730 -903 -5253
2763 -323 -5286
2763 -172 -5280
-2815 778 -5095
-2783 906 -5072
1602 1879 -5152
2056 1669 -5235
1945 1730 -5221
2289 1488 -5233
2236 1538 -5239
1753 1821 -5188
1825 1788 -5201
2116 1630 -5240
2173 1589 -5241
1702 1843 -5177
1631 1870 -5160
1607 1877 -5154
2450 1293 -5238
2644 885 -5195
2515 1192 -5238
2550 1129 -5234
2606 998 -5217
2576 1073 -5228
2353 1420 -5228
2390 1375 -5233
2667 805 -5177
391 -339 -3260
2361 -878 -4746
313 -385 -3198
2579 -1720 -5155
2614 -1602 -5129
2230 -2293 -5171
2317 -2191 -5184
2423 -2039 -5188
2454 -1987 -5186
2495 -1915 -5182
2337 -2167 -5186
2368 -2125 -5189
2544 -1822 -5175
2536 -1839 -5177
263 -380 -3162
2611 -1528 -5097
270 -381 -3167
2011 -2483 -5171
2086 -2438 -5173
1654 -2650 -5128
1551 -2679 -5103
1923 -2531 -5164
1817 -2582 -5153
1677 -2642 -5133
1750 -2612 -5144
1463 -2699 -5080
1414 -2709 -5065
2145 -2383 -5163
2097 -2430 -5173
-123 -721 -3146
-120 -752 -3169
-2440 -2294 -5121
-2015 -2553 -5082
-2105 -2519 -5102
-2259 -2444 -5128
-2303 -2412 -5129
-1911 -2586 -5054
-2420 -2312 -5122
-2212 -2470 -5122
-2197 -2477 -5119
-1839 -2606 -5034
-2325 -2395 -5128
-2354 -2371 -5127
-129 -725 -3150
-2709 -1945 -5141
-2741 -1878 -5134
-2813 -1682 -5101
-2777 -1788 -5121
-2539 -2195 -5137
-2577 -2154 -5143
-2646 -2056 -5146
-2832 -1613 -5085
-2600 -2126 -5147
-2611 -2113 -5148
-2646 1294 -5156
-2544 1479 -5175
-2487 1550 -5172
-2727 1096 -5118
-2560 1457 -5175
-2595 1392 -5168
-2695 1181 -5136
-2661 1260 -5150
-2766 969 -5087
-2746 1040 -5106
-2485 1552 -5172
-2418 1625 -5164
-2781 912 -5071
-2780 909 -5069
-2060 1901 -5181
-2026 1918 -5177
-1925 1959 -5161
-1747 2016 -5123
-1827 1994 -5142
-1697 2027 -5109
-2380 1665 -5164
-2184 1825 -5184
-2115 1870 -5184
-2235 1789 -5182
-2261 1770 -5181
-2339 1702 -5171
-2275 1758 -5179
2328 1446 -5225
2340 1434 -5225
258 -380 -3159
2174 -2353 -5160
2152 -2376 -5161
-123 -719 -3144
-124 -717 -3143
-93 -368 -2975
258 -380 -3159
-2440 -2293 -5120
-2468 -2266 -5121
-117 -390 -2975
-124 -716 -3142
-2404 1640 -5161
-519 -350 -3168
-2384 1660 -5163
-116 -345 -2975
-108 -6 -3155
-140 -366 -2975
-495 -357 -3153
-105 28 -3179
-108 9 -3165
-120 21 -3176
-85 614 -3630
-211 368 -3453
-109 2 -3160
-117 15 -3171
-2842 -1572 -5074
-574 -358 -3205
-534 -354 -3177
-511 -355 -3162
-515 -354 -3164
215 2121 -5395
408 2104 -5384
659 2076 -5358
778 2060 -5342
1064 2015 -5290
942 2036 -5316
1185 1991 -5263
1185 1991 -5262
1410 1863 -5063
-1154 -2748 -5209
-981 -2771 -5238
-1393 -2710 -5159
-1632 -2660 -5088
-1547 -2679 -5116
-1298 -2726 -5181
-1356 -2717 -5168
-503 -2806 -5272
-593 -2801 -5269
-1716 -2638 -5055
-812 -2786 -5255
-723 -2793 -5262
-480 -2806 -5272
-158 -2246 -4317
-776 -2333 -4496
-1800 -2615 -5022
-1800 -2615 -5022
-2847 611 -5126
-2947 -685 -5236
-2886 -1390 -5135
-2950 -292 -5248
-2951 -488 -5246
-2941 -121 -5240
-2938 -86 -5237
-2846 -1557 -5077
-2905 -1274 -5164
-2918 -1144 -5186
-2903 257 -5195
-2885 378 -5173
-2938 -897 -5219
-2934 -969 -5211
-2908 208 -5202
-2925 60 -5221
-2827 715 -5100
-2448 -339 -4552
-2762 764 -5011
-2544 231 -4698
-2844 -1564 -5074
-2586 -957 -4730
2725 454 -5227
2755 107 -5267
2762 -78 -5277
2739 323 -5245
2711 559 -5208
2689 695 -5178
2680 744 -5166
2752 169 -5263
2744 266 -5252
2763 -135 -5278
2678 753 -5163
2677 751 -5161
2378 54 -4757
2284 -406 -4630
1300 -2730 -5070
1265 -2735 -5079
1364 -2718 -5050
1344 -2709 -5036
463 -2383 -4527
766 -2710 -5045
-68 -2267 -4348
2635 -1518 -5128
2658 -1399 -5155
2340 -702 -4708
2626 -1555 -5117
2618 -1541 -5106
2672 -801 -5155
2326 -612 -4686
-1570 2054 -5117
-1340 2091 -5202
-1629 2041 -5089
-1590 2023 -5062
-755 1691 -4569
198 2125 -5529
485 2100 -5510
1451 1933 -5530
538 2094 -5508
844 2054 -5502
766 2065 -5502
1312 1969 -5516
1094 2013 -5504
966 2036 -5501
1161 2001 -5507
1197 1993 -5509
1437 1938 -5528
1411 1944 -5525
1330 1562 -5920
2062 1667 -5471
1931 1739 -5480
2234 1540 -5482
1730 1834 -5508
1872 1768 -5487
2110 1636 -5470
2167 1595 -5474
1650 1867 -5522
1621 1878 -5528
2264 1513 -5489
1547 1902 -5546
1331 1562 -5919
2650 871 -5488
2548 1135 -5446
2295 1483 -5481
2603 1008 -5461
2579 1069 -5452
2356 1418 -5464
2392 1374 -5456
2466 1272 -5446
2519 1187 -5444
2672 787 -5509
2666 817 -5501
2272 1505 -5489
2730 435 -5499
2757 78 -5507
2763 -74 -5516
2733 403 -5499
2717 529 -5501
2695 669 -5509
2764 -299 -5536
2764 -181 -5525
2751 197 -5502
2750 204 -5502
2677 764 -5516
2238 578 -5939
2666 -1361 -5505
2636 -1519 -5511
2760 -473 -5538
2749 -683 -5520
2688 -1224 -5503
2705 -1103 -5504
2746 -711 -5518
2729 -911 -5507
2762 -391 -5547
2759 -391 -5550
2352 -2152 -5428
2585 -1704 -5481
2613 -1611 -5509
2243 -2283 -5444
2288 -2229 -5436
2428 -2035 -5430
2382 -2106 -5428
2434 -2024 -5430
2511 -1888 -5441
2542 -1828 -5449
2526 -1861 -5444
2171 -2359 -5459
2245 -1454 -5879
2620 -1584 -5517
2261 -1452 -5868
2086 -2442 -5425
1616 -2669 -5429
1563 -2684 -5439
1911 -2541 -5414
1829 -2581 -5414
1666 -2652 -5423
1749 -2617 -5417
1984 -2502 -5417
2082 -2445 -5424
1463 -2709 -5460
2142 -2390 -5446
2115 -2416 -5435
2168 -2362 -5459
1305 -2319 -5868
634 -2802 -5446
520 -2806 -5449
1310 -2739 -5464
797 -2793 -5445
1024 -2775 -5448
1354 -2732 -5469
1196 -2756 -5455
1089 -2769 -5450
25 -2817 -5470
245 -2813 -5460
1401 -2722 -5475
1297 -2339 -5853
-1115 -2760 -5424
-231 -2817 -5477
-433 -2813 -5456
-1619 -2675 -5445
-1594 -2681 -5443
-1261 -2739 -5427
-1394 -2718 -5431
-495 -2811 -5450
-552 -2808 -5446
-1662 -2665 -5450
-738 -2796 -5435
-1018 -2772 -5424
-894 -2784 -5428
-178 -2817 -5483
-178 -2813 -5487
-2465 -2284 -5429
-2025 -2562 -5413
-2268 -2448 -5390
-1929 -2593 -5432
-2388 -2355 -5409
-2215 -2477 -5392
-2106 -2529 -5401
-1851 -2616 -5451
-2319 -2411 -5396
-2375 -2365 -5406
-2488 -2262 -5436
-1613 -2250 -5852
-1792 -2632 -5466
-1610 -2262 -5844
-2713 -1967 -5385
-2760 -1870 -5388
-2828 -1698 -5407
-2800 -1776 -5396
-2530 -2219 -5425
-2593 -2149 -5404
-2667 -2047 -5387
-2850 -1624 -5421
-2623 -2113 -5395
-2645 -2084 -5390
-2499 -2251 -5436
-2958 -706 -5426
-2899 -1410 -5408
-2963 -301 -5464
-2963 -461 -5447
-2942 -1015 -5409
-2873 -1531 -5420
-2923 -1236 -5404
-2919 -1274 -5403
-2951 -864 -5416
-2944 -987 -5410
-2858 -1594 -5428
-2870 588 -5448
-2959 -189 -5477
-2946 -16 -5464
-2835 779 -5453
-2817 857 -5459
-2915 278 -5451
-2901 382 -5449
-2929 156 -5455
-2939 59 -5460
-2959 -202 -5479
-2953 -203 -5485
-2656 1303 -5420
-2557 1477 -5418
-2518 1527 -5427
-2395 1663 -5464
-2742 1102 -5445
-2576 1450 -5415
-2618 1376 -5416
-2707 1190 -5432
-2682 1246 -5425
-2776 1007 -5463
-2770 1025 -5459
-2442 1613 -5448
-2441 1615 -5449
-2333 1720 -5488
-2786 971 -5472
-2392 849 -5863
-2071 1901 -5442
-2019 1928 -5440
-1923 1967 -5445
-1723 2030 -5474
-1843 1996 -5454
-1669 2043 -5485
-2131 1868 -5447
-2275 1769 -5473
-2222 1808 -5461
-2326 1727 -5488
-2314 1737 -5485
-2326 1727 -5489
-1470 1632 -5930
-1275 2106 -5476
-326 2150 -5511
-48 2141 -5543
-212 2147 -5524
-720 2147 -5482
-537 2152 -5492
-1540 2070 -5490
-1315 2102 -5477
-1064 2126 -5474
-874 2141 -5475
-16 2139 -5548
-16 2135 -5552
-1610 2056 -5498
-1469 1635 -5928
-67 1179 -6213
1475 803 -6211
1328 1557 -5923
1499 778 -6211
1812 -341 -6210
2212 598 -5950
2230 579 -5945
1810 -416 -6210
1412 -1537 -6211
2238 -1451 -5884
1403 -1546 -6211
-13 -1788 -6213
1302 -2311 -5873
-130 -1784 -6213
-1605 -1480 -6215
-1603 -2232 -5865
-1612 -1473 -6215
-1908 -254 -6216
-2416 -1394 -5875
-2418 -1389 -5874
-2418 -1392 -5874
-1908 -247 -6216
-2386 851 -5867
-2373 865 -5872
-149 1182 -6213
-1465 1620 -5937
-1597 896 -6215
-1598 898 -6214
1171 1994 -5264
-793 2141 -5338
-672 2146 -5356
-478 2149 -5379
-570 2148 -5370
-286 2147 -5393
-368 2148 -5388
-849 2139 -5328
-890 2136 -5319
639 1622 -4579
-18 1511 -4328
-1184 2110 -5248
-50 2138 -5400
-252 2146 -5395
-1129 2115 -5263
-1329 2093 -5205
19 202 203 205 204 198 192 193 191 195 194 189 190 199 200 197 196 201 247 248 -1 -1 -1
22 223 225 224 222 206 217 216 220 221 212 211 209 210 207 218 219 215 214 208 213 226 227 -1 -1 -1
16 229 235 236 231 228 232 233 234 238 239 240 241 255 254 237 230 -1 -1 -1
7 155 156 150 149 148 165 164 -1 -1 -1
8 155 159 160 154 153 152 151 156 -1 -1 -1
6 159 166 167 158 157 160 -1 -1 -1
11 165 173 174 163 161 162 179 178 167 166 164 -1 -1 -1
8 467 491 492 452 466 464 274 469 -1 -1 -1
8 471 473 310 320 335 333 476 474 -1 -1 -1
9 478 479 349 361 376 390 388 482 480 -1 -1 -1
6 423 439 489 488 484 486 -1 -1 -1
7 242 244 245 246 248 247 243 -1 -1 -1
7 251 253 252 249 250 254 255 -1 -1 -1
15 55 56 57 169 173 165 148 49 50 54 53 47 48 52 51 -1 -1 -1
15 67 239 238 66 59 62 63 61 60 58 65 64 149 150 81 -1 -1 -1
3 67 240 239 -1 -1 -1
6 67 81 83 69 241 240 -1 -1 -1
5 68 251 255 241 69 -1 -1 -1
4 68 69 83 82 -1 -1 -1
19 71 252 253 82 83 81 150 156 151 72 73 77 78 74 75 76 80 79 70 -1 -1 -1
17 84 85 95 94 152 153 96 245 244 93 92 87 86 90 91 89 88 -1 -1 -1
4 96 97 246 245 -1 -1 -1
4 97 202 248 246 -1 -1 -1
7 96 153 154 110 203 202 97 -1 -1 -1
3 110 205 203 -1 -1 -1
18 104 109 108 102 101 105 106 100 99 103 107 204 205 110 154 160 157 98 -1 -1 -1
14 113 114 112 111 117 120 119 116 115 158 167 178 175 118 -1 -1 -1
3 176 223 227 -1 -1 -1
4 176 177 225 223 -1 -1 -1
6 134 224 225 177 179 162 -1 -1 -1
16 129 133 134 162 161 132 131 123 122 125 126 121 128 127 124 130 -1 -1 -1
7 175 178 179 177 176 227 226 -1 -1 -1
18 268 270 271 267 273 272 263 285 286 274 464 463 261 262 264 266 265 269 -1 -1 -1
12 275 280 281 277 284 286 285 283 282 278 279 276 -1 -1 -1
16 310 473 472 298 289 292 293 294 295 288 291 290 287 297 296 309 -1 -1 -1
14 299 302 308 307 300 301 306 305 319 320 310 309 304 303 -1 -1 -1
12 313 314 317 318 316 315 311 312 334 335 320 319 -1 -1 -1
15 330 331 329 328 326 327 321 325 324 332 333 335 334 323 322 -1 -1 -1
16 346 347 336 344 343 339 340 342 341 337 338 345 360 361 349 348 -1 -1 -1
14 352 356 357 354 353 350 351 359 358 375 376 361 360 355 -1 -1 -1
17 370 372 374 373 362 367 368 366 365 371 389 390 376 375 363 364 369 -1 -1 -1
14 388 390 389 384 380 378 383 382 379 385 386 381 377 387 -1 -1 -1
14 395 396 399 400 397 391 392 394 393 398 412 487 485 401 -1 -1 -1
15 402 405 404 422 423 486 487 412 407 403 409 408 406 411 410 -1 -1 -1
13 414 415 421 420 418 419 413 416 417 438 439 423 422 -1 -1 -1
18 428 431 432 424 430 429 425 426 435 436 427 437 490 489 439 438 433 434 -1 -1 -1
15 449 450 447 448 446 440 441 442 444 443 445 465 466 452 451 -1 -1 -1
14 453 461 462 457 458 454 456 455 463 464 466 465 459 460 -1 -1 -1
3 467 469 468 -1 -1 -1
4 472 473 471 470 -1 -1 -1
3 474 476 475 -1 -1 -1
3 477 479 478 -1 -1 -1
3 480 482 481 -1 -1 -1
5 483 485 487 486 484 -1 -1 -1
5 489 490 494 493 488 -1 -1 -1
4 493 494 492 491 -1 -1 -1
15 467 468 470 471 474 475 477 478 480 481 483 484 488 493 491 -1 -1 -1
4 155 164 166 159 -1 -1 -1
5 29 363 375 358 33 -1 -1 -1
5 36 313 319 305 42 -1 -1 -1
5 209 211 414 422 404 -1 -1 -1
4 99 378 380 103 -1 -1 -1
4 138 140 445 443 -1 -1 -1
4 113 118 398 393 -1 -1 -1
4 51 278 282 55 -1 -1 -1
6 141 146 449 451 437 427 -1 -1 -1
4 70 79 330 322 -1 -1 -1
4 124 127 431 428 -1 -1 -1
8 72 151 152 94 346 348 332 324 -1 -1 -1
8 98 157 158 115 395 401 387 377 -1 -1 -1
4 86 337 341 90 -1 -1 -1
4 59 287 290 62 -1 -1 -1
6 49 148 149 64 292 289 -1 -1 -1
4 189 194 367 362 -1 -1 -1
3 4 406 408 -1 -1 -1
5 31 356 352 242 243 -1 -1 -1
4 228 299 303 232 -1 -1 -1
5 206 222 44 416 413 -1 -1 -1
4 35 311 315 38 -1 -1 -1
4 111 391 397 117 -1 -1 -1
4 135 136 441 440 -1 -1 -1
4 74 326 328 75 -1 -1 -1
5 2 84 88 339 343 -1 -1 -1
4 53 280 275 47 -1 -1 -1
4 12 58 60 13 -1 -1 -1
4 122 425 429 125 -1 -1 -1
4 101 379 382 105 -1 -1 -1
4 25 350 353 27 -1 -1 -1
4 18 19 199 190 -1 -1 -1
4 229 300 307 235 -1 -1 -1
4 207 210 405 402 -1 -1 -1
4 198 371 365 192 -1 -1 -1
4 216 418 420 220 -1 -1 -1
4 40 317 314 37 -1 -1 -1
4 21 263 272 23 -1 -1 -1
3 6 144 142 -1 -1 -1
4 208 403 407 213 -1 -1 -1
4 126 430 424 121 -1 -1 -1
6 45 133 129 433 438 417 -1 -1 -1
4 114 394 392 112 -1 -1 -1
4 139 444 442 137 -1 -1 -1
3 20 102 108 -1 -1 -1
4 123 131 435 426 -1 -1 -1
4 87 92 345 338 -1 -1 -1
4 50 277 281 54 -1 -1 -1
4 48 276 279 52 -1 -1 -1
5 196 369 364 30 201 -1 -1 -1
5 15 77 73 325 321 -1 -1 -1
6 249 252 71 323 334 312 -1 -1 -1
5 233 304 309 296 234 -1 -1 -1
4 63 291 288 61 -1 -1 -1
4 89 91 342 340 -1 -1 -1
4 116 119 399 396 -1 -1 -1
3 17 100 106 -1 -1 -1
5 8 191 193 366 368 -1 -1 -1
4 34 359 351 26 -1 -1 -1
3 11 269 265 -1 -1 -1
5 12 294 293 65 58 -1 -1 -1
4 28 354 357 32 -1 -1 -1
4 206 413 419 217 -1 -1 -1
5 230 237 43 306 301 -1 -1 -1
4 207 402 410 218 -1 -1 -1
6 7 95 85 3 344 336 -1 -1 -1
4 39 316 318 41 -1 -1 -1
5 14 22 24 273 267 -1 -1 -1
4 231 302 299 228 -1 -1 -1
4 208 214 409 403 -1 -1 -1
4 76 329 331 80 -1 -1 -1
4 47 275 276 48 -1 -1 -1
4 200 372 370 197 -1 -1 -1
4 209 404 405 210 -1 -1 -1
5 35 250 249 312 311 -1 -1 -1
4 66 297 287 59 -1 -1 -1
4 15 321 327 16 -1 -1 -1
4 98 377 381 104 -1 -1 -1
4 211 212 415 414 -1 -1 -1
4 26 351 350 25 -1 -1 -1
4 111 112 392 391 -1 -1 -1
4 135 440 446 143 -1 -1 -1
4 137 442 441 136 -1 -1 -1
4 113 393 394 114 -1 -1 -1
3 7 336 347 -1 -1 -1
4 145 447 450 147 -1 -1 -1
4 138 443 444 139 -1 -1 -1
4 221 421 415 212 -1 -1 -1
5 242 352 355 93 244 -1 -1 -1
4 37 314 313 36 -1 -1 -1
5 13 60 61 288 295 -1 -1 -1
5 17 383 378 99 100 -1 -1 -1
6 49 289 298 284 277 50 -1 -1 -1
4 2 3 85 84 -1 -1 -1
4 45 417 416 44 -1 -1 -1
4 70 322 323 71 -1 -1 -1
5 189 362 373 18 190 -1 -1 -1
5 101 102 20 385 379 -1 -1 -1
4 121 424 432 128 -1 -1 -1
7 21 46 57 56 283 285 263 -1 -1 -1
4 87 338 337 86 -1 -1 -1
4 122 123 426 425 -1 -1 -1
6 141 427 436 132 161 163 -1 -1 -1
5 219 411 406 4 215 -1 -1 -1
4 51 52 279 278 -1 -1 -1
4 230 301 300 229 -1 -1 -1
4 103 380 384 107 -1 -1 -1
4 124 428 434 130 -1 -1 -1
4 62 290 291 63 -1 -1 -1
4 231 236 308 302 -1 -1 -1
4 27 353 354 28 -1 -1 -1
4 72 324 325 73 -1 -1 -1
4 53 54 281 280 -1 -1 -1
5 6 142 143 446 448 -1 -1 -1
4 89 340 339 88 -1 -1 -1
4 125 429 430 126 -1 -1 -1
4 115 116 396 395 -1 -1 -1
4 232 303 304 233 -1 -1 -1
3 14 267 271 -1 -1 -1
4 90 341 342 91 -1 -1 -1
4 117 397 400 120 -1 -1 -1
4 65 293 292 64 -1 -1 -1
7 213 407 412 398 118 175 226 -1 -1 -1
5 16 327 326 74 78 -1 -1 -1
4 29 30 364 363 -1 -1 -1
4 104 381 386 109 -1 -1 -1
4 2 343 344 3 -1 -1 -1
5 93 355 360 345 92 -1 -1 -1
3 8 195 191 -1 -1 -1
5 4 408 409 214 215 -1 -1 -1
4 75 328 329 76 -1 -1 -1
4 192 365 366 193 -1 -1 -1
4 38 315 316 39 -1 -1 -1
5 6 448 447 145 144 -1 -1 -1
4 31 32 357 356 -1 -1 -1
5 7 347 346 94 95 -1 -1 -1
5 8 368 367 194 195 -1 -1 -1
4 196 197 370 369 -1 -1 -1
4 12 13 295 294 -1 -1 -1
5 14 271 270 187 22 -1 -1 -1
4 217 419 418 216 -1 -1 -1
4 55 282 283 56 -1 -1 -1
4 40 41 318 317 -1 -1 -1
5 234 296 297 66 238 -1 -1 -1
4 23 272 273 24 -1 -1 -1
4 15 16 78 77 -1 -1 -1
5 17 106 105 382 383 -1 -1 -1
6 198 204 107 384 389 371 -1 -1 -1
4 218 410 411 219 -1 -1 -1
4 127 128 432 431 -1 -1 -1
4 33 358 359 34 -1 -1 -1
4 130 434 433 129 -1 -1 -1
4 146 147 450 449 -1 -1 -1
4 42 305 306 43 -1 -1 -1
5 19 374 372 200 199 -1 -1 -1
4 79 80 331 330 -1 -1 -1
4 18 373 374 19 -1 -1 -1
5 20 108 109 386 385 -1 -1 -1
4 220 420 421 221 -1 -1 -1
4 119 120 400 399 -1 -1 -1
4 132 436 435 131 -1 -1 -1
4 235 307 308 236 -1 -1 -1
4 251 68 82 253 -1 -1 -1
7 172 170 174 173 169 168 171 -1 -1 -1
13 201 30 29 33 34 26 25 27 28 32 31 243 247 -1 -1 -1
12 250 35 38 39 41 40 37 36 42 43 237 254 -1 -1 -1
6 133 45 44 222 224 134 -1 -1 -1
8 468 469 274 286 284 298 472 470 -1 -1 -1
8 349 479 477 475 476 333 332 348 -1 -1 -1
7 481 482 388 387 401 485 483 -1 -1 -1
6 452 492 494 490 437 451 -1 -1 -1
28 505 504 188 495 184 185 183 182 181 180 507 508 500 501 498 499 497 496 502 503 509 506 510 257 256 258 259 260 -1 0 0
4 504 505 171 168 0 -1 0
6 188 504 168 169 57 46 0 -1 0
18 259 258 140 138 139 137 136 135 143 142 144 145 147 146 141 163 174 170 0 -1 0
4 260 259 170 172 0 -1 0
4 505 260 172 171 0 -1 0
5 507 180 261 463 455 0 -1 0
3 503 502 10 0 -1 0
5 184 495 187 270 268 0 -1 0
3 499 498 1 0 -1 0
4 181 182 264 262 0 -1 0
3 256 257 5 0 -1 0
4 506 509 461 453 0 -1 0
6 502 496 0 457 462 10 0 -1 0
5 500 508 456 454 9 0 -1 0
4 180 181 262 261 0 -1 0
7 258 256 5 459 465 445 140 0 -1 0
4 510 506 453 460 0 -1 0
3 496 497 0 0 -1 0
4 182 183 266 264 0 -1 0
6 498 501 9 454 458 1 0 -1 0
5 183 185 11 265 266 0 -1 0
4 508 507 455 456 0 -1 0
6 497 499 1 458 457 0 0 -1 0
5 257 510 460 459 5 0 -1 0
3 501 500 9 0 -1 0
5 509 503 10 462 461 0 -1 0
5 185 184 268 269 11 0 -1 0
8 495 188 46 21 23 24 22 187 0 -1 0
