ply
format ascii 1.0
comment converted from made-by-Polyhedron_join_facets_2
element vertex 288
property float x
property float y
property float z
element face 146
property list uchar uint vertex_indices
property uchar red
property uchar green
property uchar blue
end_header
1346 -1797 -924
1343 -1802 -924
1345 -1800 -924
345 -320 1046
377 -279 1046
284 -233 1176
345 -320 1046
380 -394 970
392 -405 953
409 -410 937
465 -490 828
466 -489 828
464 -488 831
555 -627 648
559 -641 634
780 -953 208
782 -951 208
607 -679 563
779 -976 188
787 -993 164
810 -963 164
812 -987 147
814 -1033 114
843 -1058 72
851 -1048 72
870 -1117 2
879 -1115 -4
881 -1121 -11
895 -1103 -11
905 -1222 -116
910 -1238 -134
939 -1291 -205
1053 -1271 -302
1029 -1323 -320
1068 -1275 -320
1051 -1393 -373
1061 -1392 -379
1083 -1364 -379
1106 -1435 -444
1098 -1453 -450
1102 -1456 -455
1115 -1440 -455
2238 1424 -1180
2233 1428 -1180
2235 1427 -1180
2244 1418 -1183
2238 1408 -1209
2197 1401 -1278
2071 1495 -1278
2125 1474 -1244
2189 1440 -1218
2223 1434 -1184
2161 1443 -1333
284 -232 1177
299 -287 1114
325 -338 1046
359 -379 995
547 -635 648
480 -548 769
772 -1024 147
767 -1011 164
782 -1035 132
864 -1129 -4
957 -1358 -302
1023 -1419 -373
1074 -1464 -444
1044 -1448 -411
2264 1315 -1020
1698 1518 -1020
1986 1399 -980
2235 1305 -970
2268 1375 -1102
2262 1393 -1123
2210 1417 -1131
1942 1538 -1163
1614 1656 -1163
1567 1673 -1165
2086 1485 -1171
1964 1547 -1281
1796 1604 -1273
111 -1105 -3080
24 -1085 -3079
-605 -922 -3079
-1078 -793 -3078
-1109 -722 -3078
-1120 -670 -3078
-1027 -367 -3079
559 735 -3081
583 718 -3081
585 691 -3081
178 -860 -3080
172 326 1075
-1202 -778 -177
121 -144 1271
60 -165 1217
-485 -389 671
-491 -392 664
1658 -1198 -1108
1820 -643 -1087
2000 -31 -1054
1638 -1270 -1095
1564 -1522 -1112
1570 -1499 -1114
2153 1445 -1345
2146 1439 -1357
1884 1320 -1646
-2215 -968 -1500
-2217 -1222 -1407
-486 -386 669
-142 -105 1038
-66 -13 1108
-60 17 1105
-73 95 1057
2030 71 -1050
448 4 1075
313 -147 1193
1349 -1804 -930
1420 -1849 -1047
1430 -1838 -1056
1497 -1696 -1086
294 -1392 -2751
670 -1984 -2072
777 -2209 -1802
766 -2232 -1769
756 -2236 -1761
748 -2233 -1762
2147 1417 -1357
2179 1388 -1308
2292 1021 -1045
1264 -2072 -1294
1354 -2026 -1191
1355 -2023 -1187
1290 -1836 -921
523 -627 669
231 -184 1249
191 -147 1292
170 -142 1292
-1394 -1721 -1685
697 -2232 -1738
875 -2230 -1673
1114 -2138 -1447
375 232 1119
483 251 1054
532 263 1019
637 302 930
1439 760 39
1716 921 -271
1418 1718 -1165
226 94 1244
184 23 1274
177 -18 1290
193 -33 1294
214 28 1269
-2085 -1422 -1848
-2051 -1389 -1904
-1820 -1219 -2220
-1187 -844 -2969
-1113 -810 -3043
-2133 -1477 -1756
253 161 1212
251 186 1196
-2203 -1106 -1802
-2221 -1114 -1761
-1154 -1753 -1744
748 -2241 -1746
-1791 -1622 -1680
-2036 -1559 -1680
193 -144 1294
211 -139 1291
215 -121 1291
214 -111 1292
193 -67 1299
171 -96 1301
163 -121 1301
1362 -2021 -1191
1370 -2013 -1181
1368 -2010 -1171
-2060 -1553 -1680
-2084 -1531 -1648
-2227 -1468 -1604
-2183 -1505 -1658
-2118 -1536 -1682
1203 -2098 -1367
1269 -2069 -1294
2278 1161 -933
2271 1134 -933
2259 875 -1025
2308 1056 -1027
2308 1057 -1027
2285 1155 -947
1522 -1651 -1112
1407 -1937 -1156
1357 -2024 -1199
244 -156 1265
253 -145 1261
266 170 1204
299 218 1165
273 226 1165
993 -2049 -1647
-2234 -1463 -1598
-2046 -1275 -1244
-2242 -1436 -1564
-2239 -1458 -1595
280 -129 1240
683 305 880
604 270 967
592 262 980
348 -26 1189
2251 1209 -880
2194 1191 -811
1047 521 476
250 -182 1243
155 -58 1294
-84 183 1006
148 -65 1293
143 -79 1293
151 -124 1298
-2095 -1268 -1904
-2215 -1484 -1659
-2231 -1472 -1645
-2265 -1438 -1619
-2285 -1391 -1615
-2277 -1338 -1648
-2275 -1331 -1653
-2193 -1163 -1829
2286 1163 -950
2305 1138 -1017
2275 1353 -1083
2265 1228 -913
-2286 -1388 -1580
-2285 -1389 -1577
-2270 -1316 -1506
-2266 -1228 -1547
-2023 -1092 -2038
-1838 -1214 -2203
2249 1415 -1165
297 154 1194
-2223 -1251 -1407
-2233 -1259 -1424
-2266 -1304 -1493
-2278 -1406 -1581
-2244 -1434 -1564
-2132 -1265 -1316
-2151 -1236 -1316
-170 -173 1012
1391 -1913 -1074
1373 -1970 -1118
2307 1057 -1030
2240 1370 -1209
847 -2237 -1702
845 -2237 -1705
1349 -1814 -939
1314 -1861 -960
-2244 -1057 -1587
2236 1237 -886
2258 1223 -898
145 -136 1293
-2265 -1438 -1608
-2249 -1454 -1605
-2204 -1493 -1666
-2162 -1509 -1701
-1930 -1177 -1052
-1893 -1149 -996
-2188 -1148 -1839
-2253 -1235 -1474
-2257 -1150 -1547
-2235 -1022 -1520
-2228 -973 -1524
1406 1722 -1218
1407 1722 -1213
1406 1723 -1220
1398 1726 -1273
-784 383 -3079
-1748 -500 -2163
-65 927 -3080
-69 232 992
79 336 1046
122 370 1035
114 363 1041
138 386 1012
-2214 -964 -1501
-119 201 953
1414 1719 -1165
-2153 -872 -1772
-2209 -932 -1668
-93 216 980
-2228 -960 -1587
-2227 -970 -1525
3 2 0 1 100 100 100
3 5 3 4 100 100 100
6 9 4 3 6 7 8 100 100 100
3 12 10 11 100 100 100
7 17 11 10 13 14 15 16 100 100 100
5 20 16 15 18 19 100 100 100
6 24 20 19 21 22 23 100 100 100
6 28 24 23 25 26 27 100 100 100
8 34 28 27 29 30 31 32 33 100 100 100
5 37 34 33 35 36 100 100 100
6 41 37 36 38 39 40 100 100 100
4 40 1 0 41 100 100 100
3 44 42 43 100 100 100
9 51 43 42 45 46 47 48 49 50 100 100 100
3 48 47 52 100 100 100
6 55 6 3 5 53 54 100 100 100
4 7 6 55 56 100 100 100
7 57 13 10 12 9 8 58 100 100 100
3 14 13 57 100 100 100
5 59 21 19 18 60 100 100 100
4 61 22 21 59 100 100 100
3 62 26 25 100 100 100
4 62 29 27 26 100 100 100
3 32 31 63 100 100 100
5 35 33 32 63 64 100 100 100
6 65 38 36 35 64 66 100 100 100
3 39 38 65 100 100 100
4 70 67 68 69 100 100 100
7 75 68 67 71 72 73 74 100 100 100
5 92 93 94 95 96 100 100 100
6 97 98 99 100 101 102 100 100 100
19 99 113 114 115 17 16 20 24 28 34 37 41 0 2 116 117 118 119 100 100 100 100
8 80 120 121 122 123 124 125 81 100 100 100
7 89 126 127 128 98 97 90 100 100 100
23 129 130 131 132 66 64 63 31 30 61 59 60 133 56 55 54 134 135 136 137 138 139 140 100 100 100
11 141 142 143 144 145 146 69 68 75 76 147 100 100 100
5 148 149 150 151 152 100 100 100
6 153 154 155 156 157 158 100 100 100
8 124 164 138 137 165 166 163 125 100 100 100
7 167 168 169 170 171 172 173 100 100 100
4 125 163 82 81 100 100 100
5 130 174 175 176 131 100 100 100
5 177 178 179 180 181 100 100 100
4 129 140 182 183 100 100 100
6 184 185 186 187 188 189 100 100 100
7 101 190 191 175 174 192 102 100 100 100
4 168 193 194 169 100 100 100
5 159 195 196 197 160 100 100 100
3 120 198 121 100 100 100
4 199 200 201 202 100 100 100
7 114 204 205 206 207 203 115 100 100 100
7 184 208 209 146 145 210 185 100 100 100
6 134 211 193 168 167 135 100 100 100
5 150 212 172 171 151 100 100 100
6 172 212 214 215 216 173 100 100 100
4 100 119 190 101 100 100 100
4 165 178 177 166 100 100 100
5 129 183 192 174 130 100 100 100
9 102 192 183 182 198 120 80 90 97 100 100 100
4 110 215 214 111 100 100 100
10 153 218 219 220 221 222 223 224 217 154 100 100 100
4 225 226 227 228 100 100 100
4 229 230 231 232 100 100 100
6 84 156 155 234 233 85 100 100 100
4 42 44 235 45 100 100 100
9 142 236 152 151 171 170 207 206 143 100 100 100
9 237 238 239 231 230 240 241 242 243 100 100 100
3 94 244 95 100 100 100
7 117 245 246 176 175 191 118 100 100 100
7 72 235 44 43 51 77 73 100 100 100
11 187 247 248 46 45 235 72 71 227 226 188 100 100 100
5 48 52 103 78 49 100 100 100
8 121 198 182 140 139 249 250 122 100 100 100
4 245 251 252 246 100 100 100
5 123 250 249 164 124 100 100 100
7 57 58 133 60 18 15 14 100 100 100
7 25 23 22 61 30 29 62 100 100 100
10 251 116 2 1 40 39 65 66 132 252 100 100 100
7 254 255 228 227 71 67 70 100 100 100
8 46 248 127 126 104 103 52 47 100 100 100
8 109 244 94 93 256 216 215 110 100 100 100
4 219 258 257 220 100 100 100
4 118 191 190 119 100 100 100
4 259 260 181 180 100 100 100
6 220 257 240 230 229 221 100 100 100
4 261 262 243 242 100 100 100
5 161 263 224 223 162 100 100 100
3 238 264 239 100 100 100
4 154 217 234 155 100 100 100
4 208 255 254 209 100 100 100
12 4 9 12 11 17 115 203 194 193 211 53 5 100 100 100
7 106 267 266 264 238 237 107 100 100 100
5 141 196 195 236 142 100 100 100
3 87 105 88 100 100 100
4 83 157 156 84 100 100 100
9 177 181 260 158 157 83 82 163 166 100 100 100
5 69 146 209 254 70 100 100 100
6 240 257 258 202 201 241 100 100 100
12 92 262 261 200 199 179 178 165 137 136 256 93 100 100 100
4 127 248 247 128 100 100 100
4 188 226 225 189 100 100 100
5 131 176 246 252 132 100 100 100
3 122 250 123 100 100 100
7 128 247 187 186 113 99 98 100 100 100
5 158 260 259 218 153 100 100 100
5 217 224 263 233 234 100 100 100
5 200 261 242 241 201 100 100 100
6 113 186 185 210 204 114 100 100 100
4 116 251 245 117 100 100 100
6 221 229 232 265 253 222 100 100 100
7 107 237 243 262 92 96 108 100 100 100
5 203 207 170 169 194 100 100 100
6 135 167 173 216 256 136 100 100 100
6 228 255 208 184 189 225 100 100 100
8 218 259 180 179 199 202 258 219 100 100 100
5 148 152 236 195 159 100 100 100
5 144 205 204 210 145 100 100 100
4 53 211 134 54 100 100 100
5 8 7 56 133 58 100 100 100
5 104 126 89 88 105 100 100 100
6 239 264 266 265 232 231 100 100 100
3 73 77 74 100 100 100
4 164 249 139 138 100 100 100
5 95 244 109 108 96 100 100 100
4 143 206 205 144 100 100 100
20 268 269 282 279 277 278 276 275 285 281 280 287 286 284 283 273 272 274 271 270 -1 0 0
8 268 269 76 75 74 77 51 50 100 0 0
6 270 268 50 49 78 79 100 0 0
13 272 274 87 88 89 90 80 81 82 83 84 85 86 100 0 0
3 279 277 91 100 0 0
8 274 271 79 78 103 104 105 87 100 0 0
9 281 280 106 107 108 109 110 111 112 100 0 0
6 278 276 149 148 159 160 100 0 0
3 273 272 86 100 0 0
4 284 283 161 162 100 0 0
3 271 270 79 100 0 0
4 269 282 147 76 100 0 0
7 282 279 91 197 196 141 147 100 0 0
4 285 281 112 213 100 0 0
9 276 275 213 112 111 214 212 150 149 100 0 0
6 286 284 162 223 222 253 100 0 0
6 287 286 253 265 266 267 100 0 0
4 280 287 267 106 100 0 0
3 275 285 213 100 0 0
5 277 278 160 197 91 100 0 0
7 283 273 86 85 233 263 161 100 0 0
