ply
format ascii 1.0
comment converted from made-by-Polyhedron_join_facets_2
element vertex 512
property float x
property float y
property float z
element face 258
property list uchar uint vertex_indices
property uchar red
property uchar green
property uchar blue
end_header
-722 2146 -5410
-541 2150 -5411
2014 -2482 -5208
2081 -2445 -5407
-2921 -1141 -5224
-1540 2069 -5463
-2221 1807 -5392
2095 -2433 -5267
-1378 -2715 -5223
-317 2149 -5439
-861 2139 -5371
940 2038 -5378
2466 1272 -5424
2514 1194 -5266
1308 1967 -5323
2353 -2149 -5366
2368 -2127 -5219
-2110 -2524 -5296
-897 -2782 -5361
-2313 -2409 -5236
1491 1916 -5196
1315 1964 -5244
1450 1928 -5211
1319 1963 -5243
2668 -1346 -5169
2760 -473 -5286
2749 -662 -5276
2684 -1248 -5191
2707 -1084 -5223
2734 -857 -5258
2730 -903 -5253
2763 -323 -5286
2763 -172 -5280
-2815 778 -5095
-2783 906 -5072
1602 1879 -5152
2056 1669 -5235
1945 1730 -5221
2289 1488 -5233
2236 1538 -5239
1753 1821 -5188
1825 1788 -5201
2116 1630 -5240
2173 1589 -5241
1702 1843 -5177
1631 1870 -5160
1607 1877 -5154
2450 1293 -5238
2644 885 -5195
2515 1192 -5238
2550 1129 -5234
2606 998 -5217
2576 1073 -5228
2353 1420 -5228
2390 1375 -5233
2667 805 -5177
391 -339 -3260
2361 -878 -4746
313 -385 -3198
2579 -1720 -5155
2614 -1602 -5129
2230 -2293 -5171
2317 -2191 -5184
2423 -2039 -5188
2454 -1987 -5186
2495 -1915 -5182
2337 -2167 -5186
2368 -2125 -5189
2544 -1822 -5175
2536 -1839 -5177
263 -380 -3162
2611 -1528 -5097
270 -381 -3167
2011 -2483 -5171
2086 -2438 -5173
1654 -2650 -5128
1551 -2679 -5103
1923 -2531 -5164
1817 -2582 -5153
1677 -2642 -5133
1750 -2612 -5144
1463 -2699 -5080
1414 -2709 -5065
2145 -2383 -5163
2097 -2430 -5173
-123 -721 -3146
-120 -752 -3169
-2440 -2294 -5121
-2015 -2553 -5082
-2105 -2519 -5102
-2259 -2444 -5128
-2303 -2412 -5129
-1911 -2586 -5054
-2420 -2312 -5122
-2212 -2470 -5122
-2197 -2477 -5119
-2325 -2395 -5128
-2354 -2371 -5127
-129 -725 -3150
-2709 -1945 -5141
-2741 -1878 -5134
-2813 -1682 -5101
-2777 -1788 -5121
-2539 -2195 -5137
-2577 -2154 -5143
-2646 -2056 -5146
-2832 -1613 -5085
-2600 -2126 -5147
-2611 -2113 -5148
-2646 1294 -5156
-2544 1479 -5175
-2487 1550 -5172
-2727 1096 -5118
-2560 1457 -5175
-2595 1392 -5168
-2695 1181 -5136
-2661 1260 -5150
-2766 969 -5087
-2746 1040 -5106
-2485 1552 -5172
-2418 1625 -5164
-2781 912 -5071
-2780 909 -5069
-2060 1901 -5181
-2026 1918 -5177
-1925 1959 -5161
-1747 2016 -5123
-1827 1994 -5142
-1697 2027 -5109
-2380 1665 -5164
-2184 1825 -5184
-2115 1870 -5184
-2235 1789 -5182
-2261 1770 -5181
-2339 1702 -5171
-2275 1758 -5179
2328 1446 -5225
2340 1434 -5225
258 -380 -3159
2174 -2353 -5160
2152 -2376 -5161
-123 -719 -3144
-124 -717 -3143
-93 -368 -2975
258 -380 -3159
-2440 -2293 -5120
-2468 -2266 -5121
-117 -390 -2975
-124 -716 -3142
-2404 1640 -5161
-519 -350 -3168
-2384 1660 -5163
-116 -345 -2975
-108 -6 -3155
-140 -366 -2975
-495 -357 -3153
-105 28 -3179
-108 9 -3165
-120 21 -3176
-85 614 -3630
-211 368 -3453
-109 2 -3160
-117 15 -3171
-2842 -1572 -5074
-574 -358 -3205
-534 -354 -3177
-511 -355 -3162
-515 -354 -3164
-848 2139 -5325
215 2121 -5396
409 2104 -5385
-1182 2110 -5244
-796 2141 -5334
657 2076 -5359
-475 2149 -5377
778 2060 -5344
-50 2138 -5399
-252 2146 -5394
-572 2148 -5367
-670 2146 -5354
-285 2147 -5392
-370 2148 -5386
-893 2135 -5315
-1130 2115 -5257
1064 2015 -5292
942 2037 -5318
1185 1991 -5263
1189 1990 -5262
1419 1864 -5067
641 1626 -4582
-18 1518 -4334
-158 -2246 -4317
-776 -2333 -4496
-2847 611 -5126
-2947 -685 -5236
-2886 -1390 -5135
-2950 -292 -5248
-2951 -488 -5246
-2941 -121 -5240
-2938 -86 -5237
-2846 -1557 -5077
-2905 -1274 -5164
-2918 -1144 -5186
-2903 257 -5195
-2885 378 -5173
-2938 -897 -5219
-2934 -969 -5211
-2908 208 -5202
-2925 60 -5221
-2827 715 -5100
-2448 -339 -4552
-2762 764 -5011
-2544 231 -4698
-2844 -1564 -5074
-2586 -957 -4730
2725 454 -5227
2755 107 -5267
2762 -78 -5277
2739 323 -5245
2711 559 -5208
2689 695 -5178
2680 744 -5166
2752 169 -5263
2744 266 -5252
2763 -135 -5278
2678 753 -5163
2677 751 -5161
2378 54 -4757
2284 -406 -4630
463 -2383 -4527
-68 -2267 -4348
2635 -1518 -5128
2658 -1399 -5155
2340 -702 -4708
2626 -1555 -5117
2618 -1541 -5106
2672 -801 -5155
2326 -612 -4686
-1569 2054 -5124
-1340 2091 -5201
-1329 2093 -5204
-1641 2038 -5093
-1581 2010 -5050
-753 1687 -4565
-1215 2106 -5234
-66 1530 -4350
198 2125 -5529
485 2100 -5510
1451 1933 -5530
538 2094 -5508
844 2054 -5502
766 2065 -5502
1312 1969 -5516
1094 2013 -5504
966 2036 -5501
1161 2001 -5507
1197 1993 -5509
1437 1938 -5528
1411 1944 -5525
1330 1562 -5920
2062 1667 -5471
1931 1739 -5480
2234 1540 -5482
1730 1834 -5508
1872 1768 -5487
2110 1636 -5470
2167 1595 -5474
1650 1867 -5522
1621 1878 -5528
2264 1513 -5489
1547 1902 -5546
1331 1562 -5919
2650 871 -5488
2548 1135 -5446
2295 1483 -5481
2603 1008 -5461
2579 1069 -5452
2356 1418 -5464
2392 1374 -5456
2466 1272 -5446
2519 1187 -5444
2672 787 -5509
2666 817 -5501
2272 1505 -5489
2730 435 -5499
2757 78 -5507
2763 -74 -5516
2733 403 -5499
2717 529 -5501
2695 669 -5509
2764 -299 -5536
2764 -181 -5525
2751 197 -5502
2750 204 -5502
2677 764 -5516
2238 578 -5939
2666 -1361 -5505
2636 -1519 -5511
2760 -473 -5538
2749 -683 -5520
2688 -1224 -5503
2705 -1103 -5504
2746 -711 -5518
2729 -911 -5507
2762 -391 -5547
2759 -391 -5550
2352 -2152 -5428
2585 -1704 -5481
2613 -1611 -5509
2243 -2283 -5444
2288 -2229 -5436
2428 -2035 -5430
2382 -2106 -5428
2434 -2024 -5430
2511 -1888 -5441
2542 -1828 -5449
2526 -1861 -5444
2171 -2359 -5459
2245 -1454 -5879
2620 -1584 -5517
2261 -1452 -5868
2086 -2442 -5425
1616 -2669 -5429
1563 -2684 -5439
1911 -2541 -5414
1829 -2581 -5414
1666 -2652 -5423
1749 -2617 -5417
1984 -2502 -5417
2082 -2445 -5424
1463 -2709 -5460
2142 -2390 -5446
2115 -2416 -5435
2168 -2362 -5459
1305 -2319 -5868
634 -2802 -5446
520 -2806 -5449
1310 -2739 -5464
797 -2793 -5445
1024 -2775 -5448
1354 -2732 -5469
1196 -2756 -5455
1089 -2769 -5450
25 -2817 -5470
245 -2813 -5460
1401 -2722 -5475
1297 -2339 -5853
-1115 -2760 -5424
-231 -2817 -5477
-433 -2813 -5456
-1619 -2675 -5445
-1594 -2681 -5443
-1261 -2739 -5427
-1394 -2718 -5431
-495 -2811 -5450
-552 -2808 -5446
-1662 -2665 -5450
-738 -2796 -5435
-1018 -2772 -5424
-894 -2784 -5428
-178 -2817 -5483
-178 -2813 -5487
-2465 -2284 -5429
-2025 -2562 -5413
-2268 -2448 -5390
-1929 -2593 -5432
-2388 -2355 -5409
-2215 -2477 -5392
-2106 -2529 -5401
-1851 -2616 -5451
-2319 -2411 -5396
-2375 -2365 -5406
-2488 -2262 -5436
-1613 -2250 -5852
-1792 -2632 -5466
-1610 -2262 -5844
-2713 -1967 -5385
-2760 -1870 -5388
-2828 -1698 -5407
-2800 -1776 -5396
-2530 -2219 -5425
-2593 -2149 -5404
-2667 -2047 -5387
-2850 -1624 -5421
-2623 -2113 -5395
-2645 -2084 -5390
-2499 -2251 -5436
-2958 -706 -5426
-2899 -1410 -5408
-2963 -301 -5464
-2963 -461 -5447
-2942 -1015 -5409
-2873 -1531 -5420
-2923 -1236 -5404
-2919 -1274 -5403
-2951 -864 -5416
-2944 -987 -5410
-2858 -1594 -5428
-2870 588 -5448
-2959 -189 -5477
-2946 -16 -5464
-2835 779 -5453
-2817 857 -5459
-2915 278 -5451
-2901 382 -5449
-2929 156 -5455
-2939 59 -5460
-2959 -202 -5479
-2953 -203 -5485
-2656 1303 -5420
-2557 1477 -5418
-2518 1527 -5427
-2395 1663 -5464
-2742 1102 -5445
-2576 1450 -5415
-2618 1376 -5416
-2707 1190 -5432
-2682 1246 -5425
-2776 1007 -5463
-2770 1025 -5459
-2442 1613 -5448
-2441 1615 -5449
-2333 1720 -5488
-2786 971 -5472
-2392 849 -5863
-2071 1901 -5442
-2019 1928 -5440
-1923 1967 -5445
-1723 2030 -5474
-1843 1996 -5454
-1669 2043 -5485
-2131 1868 -5447
-2275 1769 -5473
-2222 1808 -5461
-2326 1727 -5488
-2314 1737 -5485
-2326 1727 -5489
-1470 1632 -5930
-1275 2106 -5476
-326 2150 -5511
-48 2141 -5543
-212 2147 -5524
-720 2147 -5482
-537 2152 -5492
-1540 2070 -5490
-1315 2102 -5477
-1064 2126 -5474
-874 2141 -5475
-16 2139 -5548
-16 2135 -5552
-1610 2056 -5498
-1469 1635 -5928
-67 1179 -6213
1475 803 -6211
1328 1557 -5923
1499 778 -6211
1812 -341 -6210
2212 598 -5950
2230 579 -5945
1810 -416 -6210
1412 -1537 -6211
2238 -1451 -5884
1403 -1546 -6211
-13 -1788 -6213
1302 -2311 -5873
-130 -1784 -6213
-1605 -1480 -6215
-1603 -2232 -5865
-1612 -1473 -6215
-1908 -254 -6216
-2416 -1394 -5875
-2418 -1389 -5874
-2418 -1392 -5874
-1908 -247 -6216
-2386 851 -5867
-2373 865 -5872
-149 1182 -6213
-1465 1620 -5937
-1597 896 -6215
-1598 898 -6214
-1380 -2714 -5215
-1375 -2715 -5216
-947 -2776 -5306
-989 -2772 -5300
-861 -2784 -5315
653 -2795 -5248
445 -2804 -5278
829 -2785 -5218
971 -2773 -5187
-235 -2814 -5336
-368 -2812 -5340
1181 -2750 -5131
1092 -2761 -5157
38 -2814 -5319
219 -2810 -5302
1377 -2715 -5054
1337 -2700 -5027
-1843 -2605 -5035
-1840 -2606 -5037
-1771 -2583 -4990
-1143 -2751 -5271
-1631 -2662 -5131
-1553 -2680 -5159
-1290 -2729 -5238
-500 -2808 -5340
-577 -2804 -5337
-1710 -2641 -5096
-729 -2794 -5328
-1337 -2488 -4784
1300 -2730 -5087
1220 -2663 -4964
447 -2541 -4779
25 184 185 175 173 170 169 176 177 180 181 174 178 179 172 168 182 183 171 244 245 190 189 188 187 186 100 100 100
22 210 212 211 209 193 204 203 207 208 199 198 196 197 194 205 206 202 201 195 200 213 214 100 100 100
16 216 222 223 218 215 219 220 221 225 226 227 228 237 236 224 217 100 100 100
7 143 144 138 137 136 153 152 100 100 100
8 143 147 148 142 141 140 139 144 100 100 100
6 147 154 155 146 145 148 100 100 100
11 153 161 162 151 149 150 167 166 155 154 152 100 100 100
8 452 476 477 437 451 449 259 454 100 100 100
8 456 458 295 305 320 318 461 459 100 100 100
9 463 464 334 346 361 375 373 467 465 100 100 100
6 408 424 474 473 469 471 100 100 100
7 233 235 234 231 232 236 237 100 100 100
8 238 241 242 243 245 244 240 239 100 100 100
4 156 189 190 159 100 100 100
6 35 188 189 156 157 46 100 100 100
15 44 45 46 157 161 153 136 38 39 43 42 36 37 41 40 100 100 100
15 56 226 225 55 48 51 52 50 49 47 54 53 137 138 70 100 100 100
3 56 227 226 100 100 100
6 56 70 72 58 228 227 100 100 100
5 57 233 237 228 58 100 100 100
4 57 58 72 71 100 100 100
19 60 234 235 71 72 70 138 144 139 61 62 66 67 63 64 65 69 68 59 100 100 100
4 86 191 230 229 100 100 100
7 85 141 142 98 192 191 86 100 100 100
14 101 102 100 99 105 108 107 104 103 146 155 166 163 106 100 100 100
3 164 210 214 100 100 100
4 164 165 212 210 100 100 100
6 122 211 212 165 167 150 100 100 100
16 117 121 122 150 149 120 119 111 110 113 114 109 116 115 112 118 100 100 100
18 158 242 241 128 126 127 125 124 123 131 130 132 133 135 134 129 151 162 100 100 100
4 158 160 243 242 100 100 100
5 159 190 245 243 160 100 100 100
7 163 166 167 165 164 214 213 100 100 100
18 253 255 256 252 258 257 248 270 271 259 449 448 246 247 249 251 250 254 100 100 100
12 260 265 266 262 269 271 270 268 267 263 264 261 100 100 100
16 295 458 457 283 274 277 278 279 280 273 276 275 272 282 281 294 100 100 100
14 284 287 293 292 285 286 291 290 304 305 295 294 289 288 100 100 100
12 298 299 302 303 301 300 296 297 319 320 305 304 100 100 100
15 315 316 314 313 311 312 306 310 309 317 318 320 319 308 307 100 100 100
16 331 332 321 329 328 324 325 327 326 322 323 330 345 346 334 333 100 100 100
14 337 341 342 339 338 335 336 344 343 360 361 346 345 340 100 100 100
17 355 357 359 358 347 352 353 351 350 356 374 375 361 360 348 349 354 100 100 100
14 373 375 374 369 365 363 368 367 364 370 371 366 362 372 100 100 100
14 380 381 384 385 382 376 377 379 378 383 397 472 470 386 100 100 100
15 387 390 389 407 408 471 472 397 392 388 394 393 391 396 395 100 100 100
13 399 400 406 405 403 404 398 401 402 423 424 408 407 100 100 100
18 413 416 417 409 415 414 410 411 420 421 412 422 475 474 424 423 418 419 100 100 100
15 434 435 432 433 431 425 426 427 429 428 430 450 451 437 436 100 100 100
14 438 446 447 442 443 439 441 440 448 449 451 450 444 445 100 100 100
3 452 454 453 100 100 100
4 457 458 456 455 100 100 100
3 459 461 460 100 100 100
3 462 464 463 100 100 100
3 465 467 466 100 100 100
5 468 470 472 471 469 100 100 100
5 474 475 479 478 473 100 100 100
4 478 479 477 476 100 100 100
15 452 453 455 456 459 460 462 463 465 466 468 469 473 478 476 100 100 100
4 143 152 154 147 100 100 100
5 169 246 448 440 176 100 100 100
5 25 298 304 290 31 100 100 100
5 196 198 399 407 389 100 100 100
4 88 363 365 92 100 100 100
4 126 128 430 428 100 100 100
4 101 106 383 378 100 100 100
4 40 263 267 44 100 100 100
6 129 134 434 436 422 412 100 100 100
4 59 68 315 307 100 100 100
4 112 115 416 413 100 100 100
8 61 139 140 83 331 333 317 309 100 100 100
8 87 145 146 103 380 386 372 362 100 100 100
4 75 322 326 79 100 100 100
4 48 272 275 51 100 100 100
6 38 136 137 53 277 274 100 100 100
3 10 182 168 100 100 100
4 186 255 253 184 100 100 100
3 4 391 393 100 100 100
4 215 284 288 219 100 100 100
5 193 209 33 401 398 100 100 100
4 24 296 300 27 100 100 100
4 99 376 382 105 100 100 100
4 123 124 426 425 100 100 100
4 63 311 313 64 100 100 100
5 2 73 77 324 328 100 100 100
4 42 265 260 36 100 100 100
4 12 47 49 13 100 100 100
4 110 410 414 113 100 100 100
4 90 364 367 94 100 100 100
3 1 178 174 100 100 100
4 173 249 247 170 100 100 100
4 216 285 292 222 100 100 100
4 194 197 390 387 100 100 100
3 5 238 239 100 100 100
4 203 403 405 207 100 100 100
4 29 302 299 26 100 100 100
4 20 248 257 22 100 100 100
3 6 132 130 100 100 100
4 195 388 392 200 100 100 100
4 114 415 409 109 100 100 100
6 34 121 117 418 423 402 100 100 100
4 102 379 377 100 100 100 100
4 127 429 427 125 100 100 100
3 19 91 96 100 100 100
4 111 119 420 411 100 100 100
4 76 81 330 323 100 100 100
4 39 262 266 43 100 100 100
4 37 261 264 41 100 100 100
5 15 66 62 310 306 100 100 100
6 231 234 60 308 319 297 100 100 100
5 220 289 294 281 221 100 100 100
4 52 276 273 50 100 100 100
4 78 80 327 325 100 100 100
4 104 107 384 381 100 100 100
3 17 89 95 100 100 100
3 11 254 250 100 100 100
5 12 279 278 54 47 100 100 100
4 171 183 446 438 100 100 100
4 193 398 404 204 100 100 100
5 217 224 32 291 286 100 100 100
4 194 387 395 205 100 100 100
6 7 84 74 3 329 321 100 100 100
4 28 301 303 30 100 100 100
6 10 168 172 0 442 447 100 100 100
5 177 441 439 9 180 100 100 100
5 14 21 23 258 252 100 100 100
4 218 287 284 215 100 100 100
4 195 201 394 388 100 100 100
4 65 314 316 69 100 100 100
4 36 260 261 37 100 100 100
4 196 389 390 197 100 100 100
5 24 232 231 297 296 100 100 100
4 55 282 272 48 100 100 100
4 15 306 312 16 100 100 100
4 87 362 366 93 100 100 100
4 198 199 400 399 100 100 100
4 169 170 247 246 100 100 100
4 99 100 377 376 100 100 100
4 123 425 431 131 100 100 100
4 125 427 426 124 100 100 100
4 101 378 379 102 100 100 100
3 7 321 332 100 100 100
4 133 432 435 135 100 100 100
4 126 428 429 127 100 100 100
4 208 406 400 199 100 100 100
4 26 299 298 25 100 100 100
5 13 49 50 273 280 100 100 100
5 17 368 363 88 89 100 100 100
6 38 274 283 269 262 39 100 100 100
4 2 3 74 73 100 100 100
7 128 241 238 5 444 450 430 100 100 100
4 34 402 401 33 100 100 100
4 59 307 308 60 100 100 100
5 171 438 445 240 244 100 100 100
5 90 91 19 370 364 100 100 100
4 109 409 417 116 100 100 100
7 20 35 46 45 268 270 248 100 100 100
4 76 323 322 75 100 100 100
4 110 111 411 410 100 100 100
6 129 412 421 120 149 151 100 100 100
5 206 396 391 4 202 100 100 100
3 0 172 179 100 100 100
4 173 175 251 249 100 100 100
4 40 41 264 263 100 100 100
4 217 286 285 216 100 100 100
6 1 174 181 9 439 443 100 100 100
4 112 413 419 118 100 100 100
4 51 275 276 52 100 100 100
4 218 223 293 287 100 100 100
4 61 309 310 62 100 100 100
5 175 185 11 250 251 100 100 100
4 42 43 266 265 100 100 100
5 6 130 131 431 433 100 100 100
4 78 325 324 77 100 100 100
4 113 414 415 114 100 100 100
4 103 104 381 380 100 100 100
4 219 288 289 220 100 100 100
3 14 252 256 100 100 100
4 79 326 327 80 100 100 100
4 176 440 441 177 100 100 100
4 105 382 385 108 100 100 100
4 54 278 277 53 100 100 100
7 200 392 397 383 106 163 213 100 100 100
5 16 312 311 63 67 100 100 100
6 0 179 178 1 443 442 100 100 100
4 93 366 371 97 100 100 100
4 2 328 329 3 100 100 100
5 82 340 345 330 81 100 100 100
5 4 393 394 201 202 100 100 100
5 5 239 240 445 444 100 100 100
4 64 313 314 65 100 100 100
4 27 300 301 28 100 100 100
5 6 433 432 133 132 100 100 100
5 7 332 331 83 84 100 100 100
3 9 181 180 100 100 100
5 10 447 446 183 182 100 100 100
5 11 185 184 253 254 100 100 100
4 12 13 280 279 100 100 100
6 14 256 255 186 187 21 100 100 100
4 204 404 403 203 100 100 100
4 44 267 268 45 100 100 100
4 29 30 303 302 100 100 100
5 221 281 282 55 225 100 100 100
4 22 257 258 23 100 100 100
4 15 16 67 66 100 100 100
5 17 95 94 367 368 100 100 100
4 205 395 396 206 100 100 100
4 115 116 417 416 100 100 100
4 118 419 418 117 100 100 100
4 134 135 435 434 100 100 100
4 31 290 291 32 100 100 100
4 68 69 316 315 100 100 100
5 19 96 97 371 370 100 100 100
4 207 405 406 208 100 100 100
4 107 108 385 384 100 100 100
4 120 421 420 119 100 100 100
4 222 292 293 223 100 100 100
4 233 57 71 235 100 100 100
7 160 158 162 161 157 156 159 100 100 100
7 23 21 187 188 35 20 22 100 100 100
12 232 24 27 28 30 29 26 25 31 32 224 236 100 100 100
6 121 34 33 209 211 122 100 100 100
8 453 454 259 271 269 283 457 455 100 100 100
8 334 464 462 460 461 318 317 333 100 100 100
7 466 467 373 372 386 470 468 100 100 100
6 437 477 479 475 422 436 100 100 100
32 508 511 510 496 495 509 491 492 488 487 485 486 494 493 489 490 504 505 507 484 482 483 500 503 481 480 502 501 506 498 497 499 -1 0 0
5 508 511 230 191 192 100 0 0
4 511 510 229 230 100 0 0
17 496 495 82 81 76 75 79 80 78 77 73 74 84 83 140 141 85 100 0 0
5 510 496 85 86 229 100 0 0
4 499 508 192 98 100 0 0
17 497 499 98 142 148 145 87 93 97 96 91 90 94 95 89 88 92 100 0 0
5 493 489 348 360 343 100 0 0
4 500 503 352 347 100 0 0
4 509 491 341 337 100 0 0
4 487 485 335 338 100 0 0
3 484 482 18 100 0 0
4 501 506 356 350 100 0 0
4 490 504 354 349 100 0 0
5 480 502 351 353 8 100 0 0
4 486 494 344 336 100 0 0
4 492 488 339 342 100 0 0
4 505 507 357 355 100 0 0
4 485 486 336 335 100 0 0
5 495 509 337 340 82 100 0 0
4 483 500 347 358 100 0 0
5 498 497 92 365 369 100 0 0
4 488 487 338 339 100 0 0
4 489 490 349 348 100 0 0
3 481 480 8 100 0 0
4 502 501 350 351 100 0 0
4 491 492 342 341 100 0 0
5 503 481 8 353 352 100 0 0
4 504 505 355 354 100 0 0
5 506 498 369 374 356 100 0 0
4 494 493 343 344 100 0 0
5 507 484 18 359 357 100 0 0
5 482 483 358 359 18 100 0 0
