ply
format ascii 1.0
comment converted from made-by-Polyhedron_join_facets_2
element vertex 22
property float x
property float y
property float z
element face 14
property list uchar uint vertex_indices
property uchar red
property uchar green
property uchar blue
end_header
165 -1527 -2301
-31 1500 -2304
-1455 -104 -2287
78 12 -1369
69 1 -1369
61 26 -1369
52 15 -1369
1496 128 -2236
1755 -132 -2555
1692 90 -2458
1570 79 -2313
1830 641 -2765
1503 138 -2246
1717 242 -2518
945 -1852 -3000
2017 -611 -3000
-598 -1951 -3000
-797 1824 -3000
713 1919 -3000
-1867 641 -3000
-1803 -909 -3000
1943 897 -3000
4 5 6 4 3 100 100 100
5 10 9 13 12 7 100 100 100
3 10 8 9 100 100 100
3 13 11 12 100 100 100
2 17 18 -1 0 0
8 15 21 18 17 19 20 16 14 -1 0 0
3 17 18 1 100 0 0
6 15 21 11 13 9 8 100 0 0
3 14 16 0 100 0 0
3 20 19 2 100 0 0
8 21 18 1 5 3 7 12 11 100 0 0
8 14 15 8 10 7 3 4 0 100 0 0
6 20 16 0 4 6 2 100 0 0
6 17 19 2 6 5 1 100 0 0
