ply
format ascii 1.0
comment converted from made-by-Polyhedron_join_facets_2
element vertex 466
property float x
property float y
property float z
element face 235
property list uchar uint vertex_indices
property uchar red
property uchar green
property uchar blue
end_header
2014 -2482 -5208
2081 -2445 -5407
-2921 -1141 -5224
-1540 2069 -5463
-2221 1807 -5392
2095 -2433 -5267
-1378 -2715 -5223
2466 1272 -5424
2514 1194 -5266
2353 -2149 -5366
2368 -2127 -5219
-2110 -2524 -5296
-982 -2771 -5267
-897 -2782 -5361
-2313 -2409 -5236
656 -2794 -5213
428 -2804 -5239
833 -2784 -5188
966 -2773 -5162
-237 -2813 -5277
-332 -2811 -5277
1180 -2749 -5109
1092 -2760 -5133
42 -2812 -5268
212 -2810 -5257
2668 -1346 -5169
2760 -473 -5286
2749 -662 -5276
2684 -1248 -5191
2707 -1084 -5223
2734 -857 -5258
2730 -903 -5253
2763 -323 -5286
2763 -172 -5280
-2815 778 -5095
-2783 906 -5072
2056 1669 -5235
1945 1730 -5221
2289 1488 -5233
2236 1538 -5239
2116 1630 -5240
2173 1589 -5241
2450 1293 -5238
2644 885 -5195
2515 1192 -5238
2550 1129 -5234
2606 998 -5217
2576 1073 -5228
2353 1420 -5228
2390 1375 -5233
2667 805 -5177
391 -339 -3260
2361 -878 -4746
313 -385 -3198
2579 -1720 -5155
2614 -1602 -5129
2230 -2293 -5171
2317 -2191 -5184
2423 -2039 -5188
2454 -1987 -5186
2495 -1915 -5182
2337 -2167 -5186
2368 -2125 -5189
2544 -1822 -5175
2536 -1839 -5177
263 -380 -3162
2611 -1528 -5097
270 -381 -3167
2011 -2483 -5171
2086 -2438 -5173
1654 -2650 -5128
1551 -2679 -5103
1923 -2531 -5164
1817 -2582 -5153
1677 -2642 -5133
1750 -2612 -5144
1463 -2699 -5080
1414 -2709 -5065
2145 -2383 -5163
2097 -2430 -5173
-123 -721 -3146
-120 -752 -3169
-2440 -2294 -5121
-2015 -2553 -5082
-2105 -2519 -5102
-2259 -2444 -5128
-2303 -2412 -5129
-1911 -2586 -5054
-2420 -2312 -5122
-2212 -2470 -5122
-2197 -2477 -5119
-1839 -2606 -5034
-2325 -2395 -5128
-2354 -2371 -5127
-129 -725 -3150
-2709 -1945 -5141
-2741 -1878 -5134
-2813 -1682 -5101
-2777 -1788 -5121
-2539 -2195 -5137
-2577 -2154 -5143
-2646 -2056 -5146
-2832 -1613 -5085
-2600 -2126 -5147
-2611 -2113 -5148
-2646 1294 -5156
-2544 1479 -5175
-2487 1550 -5172
-2727 1096 -5118
-2560 1457 -5175
-2595 1392 -5168
-2695 1181 -5136
-2661 1260 -5150
-2766 969 -5087
-2746 1040 -5106
-2485 1552 -5172
-2418 1625 -5164
-2781 912 -5071
-2780 909 -5069
-2060 1901 -5181
-2026 1918 -5177
-1925 1959 -5161
-1747 2016 -5123
-1827 1994 -5142
-1697 2027 -5109
-2380 1665 -5164
-2184 1825 -5184
-2115 1870 -5184
-2235 1789 -5182
-2261 1770 -5181
-2339 1702 -5171
-2275 1758 -5179
2328 1446 -5225
2340 1434 -5225
258 -380 -3159
2174 -2353 -5160
2152 -2376 -5161
-123 -719 -3144
-124 -717 -3143
-93 -368 -2975
258 -380 -3159
-2440 -2293 -5120
-2468 -2266 -5121
-117 -390 -2975
-124 -716 -3142
-2404 1640 -5161
-519 -350 -3168
-2384 1660 -5163
-116 -345 -2975
-108 -6 -3155
-140 -366 -2975
-495 -357 -3153
-105 28 -3179
-108 9 -3165
-120 21 -3176
-85 614 -3630
-211 368 -3453
-109 2 -3160
-117 15 -3171
-2842 -1572 -5074
-574 -358 -3205
-534 -354 -3177
-511 -355 -3162
-515 -354 -3164
641 1626 -4582
-18 1518 -4334
-1154 -2748 -5209
-981 -2771 -5238
-1393 -2710 -5159
-1632 -2660 -5088
-1547 -2679 -5116
-1298 -2726 -5181
-1356 -2717 -5168
-503 -2806 -5272
-593 -2801 -5269
-1716 -2638 -5055
-812 -2786 -5255
-723 -2793 -5262
-480 -2806 -5272
-158 -2246 -4317
-776 -2333 -4496
-1800 -2615 -5022
-1800 -2615 -5022
-2847 611 -5126
-2947 -685 -5236
-2886 -1390 -5135
-2950 -292 -5248
-2951 -488 -5246
-2941 -121 -5240
-2938 -86 -5237
-2846 -1557 -5077
-2905 -1274 -5164
-2918 -1144 -5186
-2903 257 -5195
-2885 378 -5173
-2938 -897 -5219
-2934 -969 -5211
-2908 208 -5202
-2925 60 -5221
-2827 715 -5100
-2448 -339 -4552
-2762 764 -5011
-2544 231 -4698
-2844 -1564 -5074
-2586 -957 -4730
2725 454 -5227
2755 107 -5267
2762 -78 -5277
2739 323 -5245
2711 559 -5208
2689 695 -5178
2680 744 -5166
2752 169 -5263
2744 266 -5252
2763 -135 -5278
2678 753 -5163
2677 751 -5161
2378 54 -4757
2284 -406 -4630
1300 -2730 -5070
1265 -2735 -5079
1364 -2718 -5050
1344 -2709 -5036
463 -2383 -4527
766 -2710 -5045
-68 -2267 -4348
2635 -1518 -5128
2658 -1399 -5155
2340 -702 -4708
2626 -1555 -5117
2618 -1541 -5106
2672 -801 -5155
2326 -612 -4686
-1581 2010 -5050
-753 1687 -4565
-66 1530 -4350
1330 1562 -5920
2062 1667 -5471
1931 1739 -5480
2234 1540 -5482
1730 1834 -5508
1872 1768 -5487
2110 1636 -5470
2167 1595 -5474
1650 1867 -5522
1621 1878 -5528
2264 1513 -5489
1547 1902 -5546
1331 1562 -5919
2650 871 -5488
2548 1135 -5446
2295 1483 -5481
2603 1008 -5461
2579 1069 -5452
2356 1418 -5464
2392 1374 -5456
2466 1272 -5446
2519 1187 -5444
2672 787 -5509
2666 817 -5501
2272 1505 -5489
2730 435 -5499
2757 78 -5507
2763 -74 -5516
2733 403 -5499
2717 529 -5501
2695 669 -5509
2764 -299 -5536
2764 -181 -5525
2751 197 -5502
2750 204 -5502
2677 764 -5516
2238 578 -5939
2666 -1361 -5505
2636 -1519 -5511
2760 -473 -5538
2749 -683 -5520
2688 -1224 -5503
2705 -1103 -5504
2746 -711 -5518
2729 -911 -5507
2762 -391 -5547
2759 -391 -5550
2352 -2152 -5428
2585 -1704 -5481
2613 -1611 -5509
2243 -2283 -5444
2288 -2229 -5436
2428 -2035 -5430
2382 -2106 -5428
2434 -2024 -5430
2511 -1888 -5441
2542 -1828 -5449
2526 -1861 -5444
2171 -2359 -5459
2245 -1454 -5879
2620 -1584 -5517
2261 -1452 -5868
2086 -2442 -5425
1616 -2669 -5429
1563 -2684 -5439
1911 -2541 -5414
1829 -2581 -5414
1666 -2652 -5423
1749 -2617 -5417
1984 -2502 -5417
2082 -2445 -5424
1463 -2709 -5460
2142 -2390 -5446
2115 -2416 -5435
2168 -2362 -5459
1305 -2319 -5868
634 -2802 -5446
520 -2806 -5449
1310 -2739 -5464
797 -2793 -5445
1024 -2775 -5448
1354 -2732 -5469
1196 -2756 -5455
1089 -2769 -5450
25 -2817 -5470
245 -2813 -5460
1401 -2722 -5475
1297 -2339 -5853
-1115 -2760 -5424
-231 -2817 -5477
-433 -2813 -5456
-1619 -2675 -5445
-1594 -2681 -5443
-1261 -2739 -5427
-1394 -2718 -5431
-495 -2811 -5450
-552 -2808 -5446
-1662 -2665 -5450
-738 -2796 -5435
-1018 -2772 -5424
-894 -2784 -5428
-178 -2817 -5483
-178 -2813 -5487
-2465 -2284 -5429
-2025 -2562 -5413
-2268 -2448 -5390
-1929 -2593 -5432
-2388 -2355 -5409
-2215 -2477 -5392
-2106 -2529 -5401
-1851 -2616 -5451
-2319 -2411 -5396
-2375 -2365 -5406
-2488 -2262 -5436
-1613 -2250 -5852
-1792 -2632 -5466
-1610 -2262 -5844
-2713 -1967 -5385
-2760 -1870 -5388
-2828 -1698 -5407
-2800 -1776 -5396
-2530 -2219 -5425
-2593 -2149 -5404
-2667 -2047 -5387
-2850 -1624 -5421
-2623 -2113 -5395
-2645 -2084 -5390
-2499 -2251 -5436
-2958 -706 -5426
-2899 -1410 -5408
-2963 -301 -5464
-2963 -461 -5447
-2942 -1015 -5409
-2873 -1531 -5420
-2923 -1236 -5404
-2919 -1274 -5403
-2951 -864 -5416
-2944 -987 -5410
-2858 -1594 -5428
-2870 588 -5448
-2959 -189 -5477
-2946 -16 -5464
-2835 779 -5453
-2817 857 -5459
-2915 278 -5451
-2901 382 -5449
-2929 156 -5455
-2939 59 -5460
-2959 -202 -5479
-2953 -203 -5485
-2656 1303 -5420
-2557 1477 -5418
-2518 1527 -5427
-2395 1663 -5464
-2742 1102 -5445
-2576 1450 -5415
-2618 1376 -5416
-2707 1190 -5432
-2682 1246 -5425
-2776 1007 -5463
-2770 1025 -5459
-2442 1613 -5448
-2441 1615 -5449
-2333 1720 -5488
-2786 971 -5472
-2392 849 -5863
-2071 1901 -5442
-2019 1928 -5440
-1923 1967 -5445
-1723 2030 -5474
-1843 1996 -5454
-1669 2043 -5485
-2131 1868 -5447
-2275 1769 -5473
-2222 1808 -5461
-2326 1727 -5488
-2314 1737 -5485
-2326 1727 -5489
-1470 1632 -5930
-1275 2106 -5476
-1540 2070 -5490
-1315 2102 -5477
-1610 2056 -5498
-1469 1635 -5928
-67 1179 -6213
1475 803 -6211
1328 1557 -5923
1499 778 -6211
1812 -341 -6210
2212 598 -5950
2230 579 -5945
1810 -416 -6210
1412 -1537 -6211
2238 -1451 -5884
1403 -1546 -6211
-13 -1788 -6213
1302 -2311 -5873
-130 -1784 -6213
-1605 -1480 -6215
-1603 -2232 -5865
-1612 -1473 -6215
-1908 -254 -6216
-2416 -1394 -5875
-2418 -1389 -5874
-2418 -1392 -5874
-1908 -247 -6216
-2386 851 -5867
-2373 865 -5872
-149 1182 -6213
-1465 1620 -5937
-1597 896 -6215
-1598 898 -6214
-1564 2057 -5179
-1407 2084 -5289
1847 1778 -5205
1744 1826 -5312
1829 1786 -5224
1671 1857 -5378
1624 1875 -5419
1476 1734 -5001
-1659 2035 -5098
-1241 2108 -5391
790 1672 -4675
-1322 2097 -5345
-1583 2011 -5052
-773 1884 -4893
1458 1931 -5531
145 2066 -5596
-1079 2125 -5474
-153 2088 -5587
19 179 180 182 181 175 169 170 168 172 171 166 167 176 177 174 173 178 224 225 100 100 100
22 200 202 201 199 183 194 193 197 198 189 188 186 187 184 195 196 192 191 185 190 203 204 100 100 100
16 206 212 213 208 205 209 210 211 215 216 217 218 232 231 214 207 100 100 100
7 139 140 134 133 132 149 148 100 100 100
8 139 143 144 138 137 136 135 140 100 100 100
6 143 150 151 142 141 144 100 100 100
11 149 157 158 147 145 146 163 162 151 150 148 100 100 100
8 424 426 272 282 297 295 429 427 100 100 100
9 431 432 311 323 338 352 350 435 433 100 100 100
6 385 401 442 441 437 439 100 100 100
7 219 221 222 223 225 224 220 100 100 100
7 228 230 229 226 227 231 232 100 100 100
4 152 164 165 155 100 100 100
15 51 216 215 50 43 46 47 45 44 42 49 48 133 134 65 100 100 100
3 51 217 216 100 100 100
6 51 65 67 53 218 217 100 100 100
5 52 228 232 218 53 100 100 100
4 52 53 67 66 100 100 100
19 55 229 230 66 67 65 134 140 135 56 57 61 62 58 59 60 64 63 54 100 100 100
17 68 69 79 78 136 137 80 222 221 77 76 71 70 74 75 73 72 100 100 100
4 80 81 223 222 100 100 100
4 81 179 225 223 100 100 100
7 80 137 138 94 180 179 81 100 100 100
3 94 182 180 100 100 100
18 88 93 92 86 85 89 90 84 83 87 91 181 182 94 138 144 141 82 100 100 100
14 97 98 96 95 101 104 103 100 99 142 151 162 159 102 100 100 100
3 160 200 204 100 100 100
4 160 161 202 200 100 100 100
6 118 201 202 161 163 146 100 100 100
16 113 117 118 146 145 116 115 107 106 109 110 105 112 111 108 114 100 100 100
4 154 156 234 233 100 100 100
5 155 165 235 234 156 100 100 100
7 159 162 163 161 160 204 203 100 100 100
12 237 242 243 239 246 248 247 245 244 240 241 238 100 100 100
16 272 426 425 260 251 254 255 256 257 250 253 252 249 259 258 271 100 100 100
14 261 264 270 269 262 263 268 267 281 282 272 271 266 265 100 100 100
12 275 276 279 280 278 277 273 274 296 297 282 281 100 100 100
15 292 293 291 290 288 289 283 287 286 294 295 297 296 285 284 100 100 100
16 308 309 298 306 305 301 302 304 303 299 300 307 322 323 311 310 100 100 100
14 314 318 319 316 315 312 313 321 320 337 338 323 322 317 100 100 100
17 332 334 336 335 324 329 330 328 327 333 351 352 338 337 325 326 331 100 100 100
14 350 352 351 346 342 340 345 344 341 347 348 343 339 349 100 100 100
14 357 358 361 362 359 353 354 356 355 360 374 440 438 363 100 100 100
15 364 367 366 384 385 439 440 374 369 365 371 370 368 373 372 100 100 100
13 376 377 383 382 380 381 375 378 379 400 401 385 384 100 100 100
18 390 393 394 386 392 391 387 388 397 398 389 399 443 442 401 400 395 396 100 100 100
15 411 412 409 410 408 402 403 404 406 405 407 418 419 414 413 100 100 100
3 420 422 421 100 100 100
4 425 426 424 423 100 100 100
3 427 429 428 100 100 100
3 430 432 431 100 100 100
3 433 435 434 100 100 100
5 436 438 440 439 437 100 100 100
5 442 443 447 446 441 100 100 100
4 446 447 445 444 100 100 100
15 420 421 423 424 427 428 430 431 433 434 436 437 441 446 444 100 100 100
4 139 148 150 143 100 100 100
5 19 325 337 320 23 100 100 100
5 26 275 281 267 32 100 100 100
5 186 188 376 384 366 100 100 100
4 83 340 342 87 100 100 100
4 122 124 407 405 100 100 100
4 97 102 360 355 100 100 100
6 125 130 411 413 399 389 100 100 100
4 54 63 292 284 100 100 100
4 108 111 393 390 100 100 100
8 56 135 136 78 308 310 294 286 100 100 100
8 82 141 142 99 357 363 349 339 100 100 100
4 70 299 303 74 100 100 100
4 43 249 252 46 100 100 100
6 38 132 133 48 254 251 100 100 100
4 166 171 329 324 100 100 100
3 2 368 370 100 100 100
5 21 318 314 219 220 100 100 100
4 205 261 265 209 100 100 100
5 183 199 34 378 375 100 100 100
4 25 273 277 28 100 100 100
4 95 353 359 101 100 100 100
4 119 120 403 402 100 100 100
4 58 288 290 59 100 100 100
5 0 68 72 301 305 100 100 100
4 40 242 237 36 100 100 100
4 7 42 44 8 100 100 100
4 106 387 391 109 100 100 100
4 85 341 344 89 100 100 100
4 15 312 315 17 100 100 100
4 12 13 176 167 100 100 100
4 206 262 269 212 100 100 100
4 184 187 367 364 100 100 100
4 175 333 327 169 100 100 100
4 193 380 382 197 100 100 100
4 30 279 276 27 100 100 100
3 4 128 126 100 100 100
4 185 365 369 190 100 100 100
4 110 392 386 105 100 100 100
6 35 117 113 395 400 379 100 100 100
4 98 356 354 96 100 100 100
4 123 406 404 121 100 100 100
3 14 86 92 100 100 100
4 107 115 397 388 100 100 100
4 71 76 307 300 100 100 100
4 39 239 243 41 100 100 100
5 173 331 326 20 178 100 100 100
5 9 61 57 287 283 100 100 100
6 226 229 55 285 296 274 100 100 100
5 210 266 271 258 211 100 100 100
4 47 253 250 45 100 100 100
4 73 75 304 302 100 100 100
4 100 103 361 358 100 100 100
3 11 84 90 100 100 100
5 6 168 170 328 330 100 100 100
4 24 321 313 16 100 100 100
5 7 256 255 49 42 100 100 100
4 18 316 319 22 100 100 100
4 183 375 381 194 100 100 100
5 207 214 33 268 263 100 100 100
4 184 364 372 195 100 100 100
6 5 79 69 1 306 298 100 100 100
4 29 278 280 31 100 100 100
4 208 264 261 205 100 100 100
4 185 191 371 365 100 100 100
4 60 291 293 64 100 100 100
4 36 237 238 37 100 100 100
4 177 334 332 174 100 100 100
4 186 366 367 187 100 100 100
5 25 227 226 274 273 100 100 100
4 50 259 249 43 100 100 100
4 9 283 289 10 100 100 100
4 82 339 343 88 100 100 100
4 188 189 377 376 100 100 100
4 16 313 312 15 100 100 100
4 95 96 354 353 100 100 100
4 119 402 408 127 100 100 100
4 121 404 403 120 100 100 100
4 97 355 356 98 100 100 100
3 5 298 309 100 100 100
4 129 409 412 131 100 100 100
4 122 405 406 123 100 100 100
4 198 383 377 189 100 100 100
5 219 314 317 77 221 100 100 100
4 27 276 275 26 100 100 100
5 8 44 45 250 257 100 100 100
5 11 345 340 83 84 100 100 100
6 38 251 260 246 239 39 100 100 100
4 0 1 69 68 100 100 100
4 35 379 378 34 100 100 100
4 54 284 285 55 100 100 100
5 166 324 335 12 167 100 100 100
5 85 86 14 347 341 100 100 100
4 105 386 394 112 100 100 100
4 71 300 299 70 100 100 100
4 106 107 388 387 100 100 100
6 125 389 398 116 145 147 100 100 100
5 196 373 368 2 192 100 100 100
4 207 263 262 206 100 100 100
4 87 342 346 91 100 100 100
4 108 390 396 114 100 100 100
4 46 252 253 47 100 100 100
4 208 213 270 264 100 100 100
4 17 315 316 18 100 100 100
4 56 286 287 57 100 100 100
4 40 41 243 242 100 100 100
5 4 126 127 408 410 100 100 100
4 73 302 301 72 100 100 100
4 109 391 392 110 100 100 100
4 99 100 358 357 100 100 100
4 209 265 266 210 100 100 100
4 74 303 304 75 100 100 100
4 101 359 362 104 100 100 100
4 49 255 254 48 100 100 100
7 190 369 374 360 102 159 203 100 100 100
5 10 289 288 58 62 100 100 100
4 19 20 326 325 100 100 100
4 88 343 348 93 100 100 100
4 0 305 306 1 100 100 100
5 77 317 322 307 76 100 100 100
3 6 172 168 100 100 100
5 2 370 371 191 192 100 100 100
4 59 290 291 60 100 100 100
4 169 327 328 170 100 100 100
4 28 277 278 29 100 100 100
5 4 410 409 129 128 100 100 100
4 21 22 319 318 100 100 100
5 5 309 308 78 79 100 100 100
5 6 330 329 171 172 100 100 100
4 173 174 332 331 100 100 100
4 7 8 257 256 100 100 100
4 194 381 380 193 100 100 100
4 30 31 280 279 100 100 100
5 211 258 259 50 215 100 100 100
4 9 10 62 61 100 100 100
5 11 90 89 344 345 100 100 100
6 175 181 91 346 351 333 100 100 100
4 195 372 373 196 100 100 100
4 111 112 394 393 100 100 100
4 23 320 321 24 100 100 100
4 114 396 395 113 100 100 100
4 130 131 412 411 100 100 100
4 32 267 268 33 100 100 100
5 13 336 334 177 176 100 100 100
4 63 64 293 292 100 100 100
4 12 335 336 13 100 100 100
5 14 92 93 348 347 100 100 100
4 197 382 383 198 100 100 100
4 103 104 362 361 100 100 100
4 116 398 397 115 100 100 100
4 212 269 270 213 100 100 100
4 228 52 66 230 100 100 100
7 156 154 158 157 153 152 155 100 100 100
13 178 20 19 23 24 16 15 17 18 22 21 220 224 100 100 100
12 227 25 28 29 31 30 27 26 32 33 214 231 100 100 100
6 117 35 34 199 201 118 100 100 100
8 421 422 236 248 246 260 425 423 100 100 100
8 311 432 430 428 429 295 294 310 100 100 100
7 434 435 350 349 363 438 436 100 100 100
6 414 445 447 443 399 413 100 100 100
18 458 461 460 456 448 449 459 457 464 465 463 462 454 453 451 452 450 455 -1 0 0
5 458 461 235 165 164 100 0 0
9 465 463 236 422 420 444 445 414 419 100 0 0
5 461 460 233 234 235 100 0 0
5 455 458 164 152 153 100 0 0
12 450 455 153 157 149 132 38 39 41 40 36 37 100 0 0
19 460 456 124 122 123 121 120 119 127 126 128 129 131 130 125 147 158 154 233 100 0 0
5 463 462 247 248 236 100 0 0
7 464 465 419 418 416 417 415 100 0 0
4 453 451 240 244 100 0 0
3 448 449 3 100 0 0
5 452 450 37 238 241 100 0 0
3 457 464 415 100 0 0
7 456 448 3 416 418 407 124 100 0 0
4 459 457 415 417 100 0 0
4 462 454 245 247 100 0 0
4 451 452 241 240 100 0 0
5 449 459 417 416 3 100 0 0
4 454 453 244 245 100 0 0
