ply
format ascii 1.0
comment converted from made-by-Polyhedron_join_facets_2
element vertex 48
property float x
property float y
property float z
element face 26
property list uchar uint vertex_indices
property uchar red
property uchar green
property uchar blue
end_header
3213 -2795 -5029
170 -1524 -2305
-55 1511 -2285
-3145 2874 -4938
-1467 -84 -2268
-2476 2291 -5897
2431 2569 -5871
2417 2555 -5883
2651 -2272 -5879
-2200 -2534 -5873
2650 -2271 -5880
-2472 2287 -5901
-2196 -2529 -5877
2049 2142 -6215
2240 -1898 -6215
-2055 1917 -6230
-1802 -2094 -6230
3226 -2807 -5053
3217 -2786 -5372
-2767 -3155 -4980
-2736 -3129 -5345
3226 -2808 -5054
3217 -2787 -5371
-3131 2862 -4915
-2784 -3144 -4982
-2782 -3155 -4988
-2731 -3128 -5350
2910 3099 -5400
-3043 2792 -5404
2930 3104 -5381
-3126 2887 -4960
-3058 2795 -5391
79 14 -1369
67 1 -1369
81 23 -1376
58 -2 -1376
1495 125 -2238
2862 3143 -5007
2891 3046 -4959
2940 3057 -5052
2876 3173 -5060
2933 3158 -5142
1754 -132 -2555
1691 91 -2458
1569 77 -2314
1831 639 -2767
1503 135 -2249
1717 241 -2519
6 2 37 40 30 23 3 100 100 100
8 38 45 47 43 42 0 17 39 100 100 100
5 0 1 19 21 17 100 100 100
4 3 23 24 4 100 100 100
6 8 10 6 27 29 18 100 100 100
5 8 18 22 20 9 100 100 100
8 5 11 12 9 20 26 31 28 100 100 100
5 5 28 27 6 7 100 100 100
5 5 7 13 15 11 100 100 100
5 6 10 14 13 7 100 100 100
6 8 9 12 16 14 10 100 100 100
4 11 15 16 12 100 100 100
4 13 14 16 15 100 100 100
4 34 35 33 32 100 100 100
7 17 21 22 18 29 41 39 100 100 100
6 20 22 21 19 25 26 100 100 100
6 23 30 31 26 25 24 100 100 100
7 28 31 30 40 41 29 27 100 100 100
5 44 43 47 46 36 100 100 100
5 41 40 37 38 39 100 100 100
3 44 42 43 100 100 100
3 47 45 46 100 100 100
8 2 34 32 36 46 45 38 37 100 100 100
7 0 42 44 36 32 33 1 100 100 100
7 1 33 35 4 24 25 19 100 100 100
5 3 4 35 34 2 100 100 100
