ply
format ascii 1.0
comment converted from made-by-Polyhedron_join_facets_2
element vertex 512
property float x
property float y
property float z
element face 258
property list uchar uint vertex_indices
property uchar red
property uchar green
property uchar blue
end_header
-722 2146 -5410
-541 2150 -5411
2014 -2482 -5208
2081 -2445 -5407
-2921 -1141 -5224
-1540 2069 -5463
-2221 1807 -5392
2095 -2433 -5267
-1378 -2715 -5223
-317 2149 -5439
-861 2139 -5371
940 2038 -5378
2466 1272 -5424
2514 1194 -5266
1308 1967 -5323
2353 -2149 -5366
2368 -2127 -5219
-2110 -2524 -5296
-982 -2771 -5267
-897 -2782 -5361
-2313 -2409 -5236
1491 1916 -5196
1315 1964 -5244
1450 1928 -5211
1319 1963 -5243
656 -2794 -5213
428 -2804 -5239
833 -2784 -5188
966 -2773 -5162
-237 -2813 -5277
-332 -2811 -5277
1180 -2749 -5109
1092 -2760 -5133
42 -2812 -5268
212 -2810 -5257
-2815 778 -5095
-2783 906 -5072
1602 1879 -5152
2056 1669 -5235
1945 1730 -5221
2289 1488 -5233
2236 1538 -5239
1753 1821 -5188
1825 1788 -5201
2116 1630 -5240
2173 1589 -5241
1702 1843 -5177
1631 1870 -5160
1607 1877 -5154
2450 1293 -5238
2515 1192 -5238
2550 1129 -5234
2576 1073 -5228
2353 1420 -5228
2390 1375 -5233
391 -339 -3260
2361 -878 -4746
313 -385 -3198
2579 -1720 -5155
2614 -1602 -5129
2230 -2293 -5171
2317 -2191 -5184
2423 -2039 -5188
2454 -1987 -5186
2495 -1915 -5182
2337 -2167 -5186
2368 -2125 -5189
2544 -1822 -5175
2536 -1839 -5177
263 -380 -3162
2611 -1528 -5097
270 -381 -3167
2011 -2483 -5171
2086 -2438 -5173
1654 -2650 -5128
1551 -2679 -5103
1923 -2531 -5164
1817 -2582 -5153
1677 -2642 -5133
1750 -2612 -5144
1463 -2699 -5080
1414 -2709 -5065
2145 -2383 -5163
2097 -2430 -5173
-123 -721 -3146
-120 -752 -3169
-2440 -2294 -5121
-2015 -2553 -5082
-2105 -2519 -5102
-2259 -2444 -5128
-2303 -2412 -5129
-1911 -2586 -5054
-2420 -2312 -5122
-2212 -2470 -5122
-2197 -2477 -5119
-1839 -2606 -5034
-2325 -2395 -5128
-2354 -2371 -5127
-129 -725 -3150
-2709 -1945 -5141
-2741 -1878 -5134
-2813 -1682 -5101
-2777 -1788 -5121
-2539 -2195 -5137
-2577 -2154 -5143
-2646 -2056 -5146
-2832 -1613 -5085
-2600 -2126 -5147
-2611 -2113 -5148
-2646 1294 -5156
-2544 1479 -5175
-2487 1550 -5172
-2727 1096 -5118
-2560 1457 -5175
-2595 1392 -5168
-2695 1181 -5136
-2661 1260 -5150
-2766 969 -5087
-2746 1040 -5106
-2485 1552 -5172
-2418 1625 -5164
-2781 912 -5071
-2780 909 -5069
-2060 1901 -5181
-2026 1918 -5177
-1925 1959 -5161
-1747 2016 -5123
-1827 1994 -5142
-1697 2027 -5109
-2380 1665 -5164
-2184 1825 -5184
-2115 1870 -5184
-2235 1789 -5182
-2261 1770 -5181
-2339 1702 -5171
-2275 1758 -5179
2328 1446 -5225
2340 1434 -5225
258 -380 -3159
2174 -2353 -5160
2152 -2376 -5161
-123 -719 -3144
-124 -717 -3143
-93 -368 -2975
258 -380 -3159
-2440 -2293 -5120
-2468 -2266 -5121
-117 -390 -2975
-124 -716 -3142
-2404 1640 -5161
-519 -350 -3168
-2384 1660 -5163
-116 -345 -2975
-108 -6 -3155
-140 -366 -2975
-495 -357 -3153
-105 28 -3179
-108 9 -3165
-120 21 -3176
-85 614 -3630
-211 368 -3453
-109 2 -3160
-117 15 -3171
-2842 -1572 -5074
-574 -358 -3205
-534 -354 -3177
-511 -355 -3162
-515 -354 -3164
-848 2139 -5325
215 2121 -5396
409 2104 -5385
-1182 2110 -5244
-796 2141 -5334
657 2076 -5359
-475 2149 -5377
778 2060 -5344
-50 2138 -5399
-252 2146 -5394
-572 2148 -5367
-670 2146 -5354
-285 2147 -5392
-370 2148 -5386
-893 2135 -5315
-1130 2115 -5257
1064 2015 -5292
942 2037 -5318
1185 1991 -5263
1189 1990 -5262
1419 1864 -5067
641 1626 -4582
-18 1518 -4334
-1154 -2748 -5209
-981 -2771 -5238
-1393 -2710 -5159
-1632 -2660 -5088
-1547 -2679 -5116
-1298 -2726 -5181
-1356 -2717 -5168
-503 -2806 -5272
-593 -2801 -5269
-1716 -2638 -5055
-812 -2786 -5255
-723 -2793 -5262
-480 -2806 -5272
-158 -2246 -4317
-776 -2333 -4496
-1800 -2615 -5022
-1800 -2615 -5022
-2847 611 -5126
-2947 -685 -5236
-2886 -1390 -5135
-2950 -292 -5248
-2951 -488 -5246
-2941 -121 -5240
-2938 -86 -5237
-2846 -1557 -5077
-2905 -1274 -5164
-2918 -1144 -5186
-2903 257 -5195
-2885 378 -5173
-2938 -897 -5219
-2934 -969 -5211
-2908 208 -5202
-2925 60 -5221
-2827 715 -5100
-2448 -339 -4552
-2762 764 -5011
-2544 231 -4698
-2844 -1564 -5074
-2586 -957 -4730
2378 54 -4757
2284 -406 -4630
1300 -2730 -5070
1265 -2735 -5079
1364 -2718 -5050
1344 -2709 -5036
463 -2383 -4527
766 -2710 -5045
-68 -2267 -4348
2635 -1518 -5128
2340 -702 -4708
2626 -1555 -5117
2618 -1541 -5106
2326 -612 -4686
-1569 2054 -5124
-1340 2091 -5201
-1329 2093 -5204
-1641 2038 -5093
-1581 2010 -5050
-753 1687 -4565
-1215 2106 -5234
-66 1530 -4350
198 2125 -5529
485 2100 -5510
1451 1933 -5530
538 2094 -5508
844 2054 -5502
766 2065 -5502
1312 1969 -5516
1094 2013 -5504
966 2036 -5501
1161 2001 -5507
1197 1993 -5509
1437 1938 -5528
1411 1944 -5525
1330 1562 -5920
2062 1667 -5471
1931 1739 -5480
2234 1540 -5482
1730 1834 -5508
1872 1768 -5487
2110 1636 -5470
2167 1595 -5474
1650 1867 -5522
1621 1878 -5528
2264 1513 -5489
1547 1902 -5546
1331 1562 -5919
2650 871 -5488
2548 1135 -5446
2295 1483 -5481
2603 1008 -5461
2579 1069 -5452
2356 1418 -5464
2392 1374 -5456
2466 1272 -5446
2519 1187 -5444
2672 787 -5509
2666 817 -5501
2272 1505 -5489
2730 435 -5499
2757 78 -5507
2763 -74 -5516
2733 403 -5499
2717 529 -5501
2695 669 -5509
2764 -299 -5536
2764 -181 -5525
2751 197 -5502
2750 204 -5502
2677 764 -5516
2238 578 -5939
2666 -1361 -5505
2636 -1519 -5511
2760 -473 -5538
2749 -683 -5520
2688 -1224 -5503
2705 -1103 -5504
2746 -711 -5518
2729 -911 -5507
2762 -391 -5547
2759 -391 -5550
2352 -2152 -5428
2585 -1704 -5481
2613 -1611 -5509
2243 -2283 -5444
2288 -2229 -5436
2428 -2035 -5430
2382 -2106 -5428
2434 -2024 -5430
2511 -1888 -5441
2542 -1828 -5449
2526 -1861 -5444
2171 -2359 -5459
2245 -1454 -5879
2620 -1584 -5517
2261 -1452 -5868
2086 -2442 -5425
1616 -2669 -5429
1563 -2684 -5439
1911 -2541 -5414
1829 -2581 -5414
1666 -2652 -5423
1749 -2617 -5417
1984 -2502 -5417
2082 -2445 -5424
1463 -2709 -5460
2142 -2390 -5446
2115 -2416 -5435
2168 -2362 -5459
1305 -2319 -5868
634 -2802 -5446
520 -2806 -5449
1310 -2739 -5464
797 -2793 -5445
1024 -2775 -5448
1354 -2732 -5469
1196 -2756 -5455
1089 -2769 -5450
25 -2817 -5470
245 -2813 -5460
1401 -2722 -5475
1297 -2339 -5853
-1115 -2760 -5424
-231 -2817 -5477
-433 -2813 -5456
-1619 -2675 -5445
-1594 -2681 -5443
-1261 -2739 -5427
-1394 -2718 -5431
-495 -2811 -5450
-552 -2808 -5446
-1662 -2665 -5450
-738 -2796 -5435
-1018 -2772 -5424
-894 -2784 -5428
-178 -2817 -5483
-178 -2813 -5487
-2465 -2284 -5429
-2025 -2562 -5413
-2268 -2448 -5390
-1929 -2593 -5432
-2388 -2355 -5409
-2215 -2477 -5392
-2106 -2529 -5401
-1851 -2616 -5451
-2319 -2411 -5396
-2375 -2365 -5406
-2488 -2262 -5436
-1613 -2250 -5852
-1792 -2632 -5466
-1610 -2262 -5844
-2713 -1967 -5385
-2760 -1870 -5388
-2828 -1698 -5407
-2800 -1776 -5396
-2530 -2219 -5425
-2593 -2149 -5404
-2667 -2047 -5387
-2850 -1624 -5421
-2623 -2113 -5395
-2645 -2084 -5390
-2499 -2251 -5436
-2958 -706 -5426
-2899 -1410 -5408
-2963 -301 -5464
-2963 -461 -5447
-2942 -1015 -5409
-2873 -1531 -5420
-2923 -1236 -5404
-2919 -1274 -5403
-2951 -864 -5416
-2944 -987 -5410
-2858 -1594 -5428
-2870 588 -5448
-2959 -189 -5477
-2946 -16 -5464
-2835 779 -5453
-2817 857 -5459
-2915 278 -5451
-2901 382 -5449
-2929 156 -5455
-2939 59 -5460
-2959 -202 -5479
-2953 -203 -5485
-2656 1303 -5420
-2557 1477 -5418
-2518 1527 -5427
-2395 1663 -5464
-2742 1102 -5445
-2576 1450 -5415
-2618 1376 -5416
-2707 1190 -5432
-2682 1246 -5425
-2776 1007 -5463
-2770 1025 -5459
-2442 1613 -5448
-2441 1615 -5449
-2333 1720 -5488
-2786 971 -5472
-2392 849 -5863
-2071 1901 -5442
-2019 1928 -5440
-1923 1967 -5445
-1723 2030 -5474
-1843 1996 -5454
-1669 2043 -5485
-2131 1868 -5447
-2275 1769 -5473
-2222 1808 -5461
-2326 1727 -5488
-2314 1737 -5485
-2326 1727 -5489
-1470 1632 -5930
-1275 2106 -5476
-326 2150 -5511
-48 2141 -5543
-212 2147 -5524
-720 2147 -5482
-537 2152 -5492
-1540 2070 -5490
-1315 2102 -5477
-1064 2126 -5474
-874 2141 -5475
-16 2139 -5548
-16 2135 -5552
-1610 2056 -5498
-1469 1635 -5928
-67 1179 -6213
1475 803 -6211
1328 1557 -5923
1499 778 -6211
1812 -341 -6210
2212 598 -5950
2230 579 -5945
1810 -416 -6210
1412 -1537 -6211
2238 -1451 -5884
1403 -1546 -6211
-13 -1788 -6213
1302 -2311 -5873
-130 -1784 -6213
-1605 -1480 -6215
-1603 -2232 -5865
-1612 -1473 -6215
-1908 -254 -6216
-2416 -1394 -5875
-2418 -1389 -5874
-2418 -1392 -5874
-1908 -247 -6216
-2386 851 -5867
-2373 865 -5872
-149 1182 -6213
-1465 1620 -5937
-1597 896 -6215
-1598 898 -6214
2668 -1347 -5190
2760 -473 -5429
2749 -672 -5394
2684 -1245 -5228
2707 -1088 -5283
2739 -796 -5366
2730 -906 -5340
2764 -307 -5448
2764 -179 -5456
2646 880 -5294
2603 1004 -5218
2606 998 -5222
2666 810 -5329
2519 675 -5030
2729 440 -5428
2757 84 -5460
2763 -75 -5462
2734 383 -5436
2715 538 -5408
2693 680 -5373
2676 766 -5346
2751 191 -5455
2749 216 -5453
2438 193 -4838
2648 -1451 -5143
2537 -727 -4972
25 184 185 175 173 170 169 176 177 180 181 174 178 179 172 168 182 183 171 250 251 190 189 188 187 186 100 100 100
19 204 205 207 206 200 194 195 193 197 196 191 192 201 202 199 198 203 237 238 100 100 100
22 225 227 226 224 208 219 218 222 223 214 213 211 212 209 220 221 217 216 210 215 228 229 100 100 100
7 143 144 138 137 136 153 152 100 100 100
8 143 147 148 142 141 140 139 144 100 100 100
6 147 154 155 146 145 148 100 100 100
11 153 161 162 151 149 150 167 166 155 154 152 100 100 100
8 458 482 483 443 457 455 265 460 100 100 100
8 462 464 301 311 326 324 467 465 100 100 100
9 469 470 340 352 367 381 379 473 471 100 100 100
6 414 430 480 479 475 477 100 100 100
7 232 234 235 236 238 237 233 100 100 100
8 244 247 248 249 251 250 246 245 100 100 100
4 156 189 190 159 100 100 100
6 37 188 189 156 157 48 100 100 100
15 46 47 48 157 161 153 136 40 41 45 44 38 39 43 42 100 100 100
6 55 69 71 57 231 230 100 100 100
5 56 240 243 231 57 100 100 100
4 56 57 71 70 100 100 100
19 59 241 242 70 71 69 138 144 139 60 61 65 66 62 63 64 68 67 58 100 100 100
17 72 73 83 82 140 141 84 235 234 81 80 75 74 78 79 77 76 100 100 100
4 84 85 236 235 100 100 100
4 85 204 238 236 100 100 100
7 84 141 142 98 205 204 85 100 100 100
3 98 207 205 100 100 100
18 92 97 96 90 89 93 94 88 87 91 95 206 207 98 142 148 145 86 100 100 100
14 101 102 100 99 105 108 107 104 103 146 155 166 163 106 100 100 100
3 164 225 229 100 100 100
4 164 165 227 225 100 100 100
6 122 226 227 165 167 150 100 100 100
16 117 121 122 150 149 120 119 111 110 113 114 109 116 115 112 118 100 100 100
18 158 248 247 128 126 127 125 124 123 131 130 132 133 135 134 129 151 162 100 100 100
4 158 160 249 248 100 100 100
5 159 190 251 249 160 100 100 100
7 163 166 167 165 164 229 228 100 100 100
18 259 261 262 258 264 263 254 276 277 265 455 454 252 253 255 257 256 260 100 100 100
12 266 271 272 268 275 277 276 274 273 269 270 267 100 100 100
16 301 464 463 289 280 283 284 285 286 279 282 281 278 288 287 300 100 100 100
14 290 293 299 298 291 292 297 296 310 311 301 300 295 294 100 100 100
12 304 305 308 309 307 306 302 303 325 326 311 310 100 100 100
15 321 322 320 319 317 318 312 316 315 323 324 326 325 314 313 100 100 100
16 337 338 327 335 334 330 331 333 332 328 329 336 351 352 340 339 100 100 100
14 343 347 348 345 344 341 342 350 349 366 367 352 351 346 100 100 100
17 361 363 365 364 353 358 359 357 356 362 380 381 367 366 354 355 360 100 100 100
14 379 381 380 375 371 369 374 373 370 376 377 372 368 378 100 100 100
14 386 387 390 391 388 382 383 385 384 389 403 478 476 392 100 100 100
15 393 396 395 413 414 477 478 403 398 394 400 399 397 402 401 100 100 100
13 405 406 412 411 409 410 404 407 408 429 430 414 413 100 100 100
18 419 422 423 415 421 420 416 417 426 427 418 428 481 480 430 429 424 425 100 100 100
15 440 441 438 439 437 431 432 433 435 434 436 456 457 443 442 100 100 100
14 444 452 453 448 449 445 447 446 454 455 457 456 450 451 100 100 100
3 458 460 459 100 100 100
4 463 464 462 461 100 100 100
3 465 467 466 100 100 100
3 468 470 469 100 100 100
3 471 473 472 100 100 100
5 474 476 478 477 475 100 100 100
5 480 481 485 484 479 100 100 100
4 484 485 483 482 100 100 100
15 458 459 461 462 465 466 468 469 471 472 474 475 479 484 482 100 100 100
4 143 152 154 147 100 100 100
5 29 354 366 349 33 100 100 100
5 169 252 454 446 176 100 100 100
5 211 213 405 413 395 100 100 100
4 87 369 371 91 100 100 100
4 126 128 436 434 100 100 100
4 101 106 389 384 100 100 100
4 42 269 273 46 100 100 100
6 129 134 440 442 428 418 100 100 100
4 58 67 321 313 100 100 100
4 112 115 422 419 100 100 100
8 60 139 140 82 337 339 323 315 100 100 100
8 86 145 146 103 386 392 378 368 100 100 100
4 74 328 332 78 100 100 100
6 40 136 137 53 283 280 100 100 100
4 191 196 358 353 100 100 100
3 10 182 168 100 100 100
4 186 261 259 184 100 100 100
3 4 397 399 100 100 100
5 31 347 343 232 233 100 100 100
5 208 224 35 407 404 100 100 100
4 99 382 388 105 100 100 100
4 123 124 432 431 100 100 100
4 62 317 319 63 100 100 100
5 2 72 76 330 334 100 100 100
4 44 271 266 38 100 100 100
4 12 49 50 13 100 100 100
4 110 416 420 113 100 100 100
4 89 370 373 93 100 100 100
4 25 341 344 27 100 100 100
3 1 178 174 100 100 100
4 173 255 253 170 100 100 100
4 18 19 201 192 100 100 100
4 209 212 396 393 100 100 100
3 5 244 245 100 100 100
4 200 362 356 194 100 100 100
4 218 409 411 222 100 100 100
4 21 254 263 23 100 100 100
3 6 132 130 100 100 100
4 210 394 398 215 100 100 100
4 114 421 415 109 100 100 100
6 36 121 117 424 429 408 100 100 100
4 102 385 383 100 100 100 100
4 127 435 433 125 100 100 100
3 20 90 96 100 100 100
4 111 119 426 417 100 100 100
4 75 80 336 329 100 100 100
4 41 268 272 45 100 100 100
4 39 267 270 43 100 100 100
5 198 360 355 30 203 100 100 100
5 15 65 61 316 312 100 100 100
6 239 241 59 314 325 303 100 100 100
4 52 282 279 51 100 100 100
4 77 79 333 331 100 100 100
4 104 107 390 387 100 100 100
3 17 88 94 100 100 100
5 8 193 195 357 359 100 100 100
4 34 350 342 26 100 100 100
3 11 260 256 100 100 100
5 12 285 284 54 49 100 100 100
4 28 345 348 32 100 100 100
4 171 183 452 444 100 100 100
4 208 404 410 219 100 100 100
4 209 393 401 220 100 100 100
6 7 83 73 3 335 327 100 100 100
6 10 168 172 0 448 453 100 100 100
5 177 447 445 9 180 100 100 100
5 14 22 24 264 258 100 100 100
4 210 216 400 394 100 100 100
4 64 320 322 68 100 100 100
4 38 266 267 39 100 100 100
4 202 363 361 199 100 100 100
4 211 395 396 212 100 100 100
4 15 312 318 16 100 100 100
4 86 368 372 92 100 100 100
4 213 214 406 405 100 100 100
4 169 170 253 252 100 100 100
4 26 342 341 25 100 100 100
4 99 100 383 382 100 100 100
4 123 431 437 131 100 100 100
4 125 433 432 124 100 100 100
4 101 384 385 102 100 100 100
3 7 327 338 100 100 100
4 133 438 441 135 100 100 100
4 126 434 435 127 100 100 100
4 223 412 406 214 100 100 100
5 232 343 346 81 234 100 100 100
5 13 50 51 279 286 100 100 100
5 17 374 369 87 88 100 100 100
6 40 280 289 275 268 41 100 100 100
4 2 3 73 72 100 100 100
7 128 247 244 5 450 456 436 100 100 100
4 36 408 407 35 100 100 100
4 58 313 314 59 100 100 100
5 191 353 364 18 192 100 100 100
5 171 444 451 246 250 100 100 100
5 89 90 20 376 370 100 100 100
4 109 415 423 116 100 100 100
7 21 37 48 47 274 276 254 100 100 100
4 75 329 328 74 100 100 100
4 110 111 417 416 100 100 100
6 129 418 427 120 149 151 100 100 100
5 221 402 397 4 217 100 100 100
3 0 172 179 100 100 100
4 173 175 257 255 100 100 100
4 42 43 270 269 100 100 100
4 91 371 375 95 100 100 100
6 1 174 181 9 445 449 100 100 100
4 112 419 425 118 100 100 100
4 27 344 345 28 100 100 100
4 60 315 316 61 100 100 100
5 175 185 11 256 257 100 100 100
4 44 45 272 271 100 100 100
5 6 130 131 437 439 100 100 100
4 77 331 330 76 100 100 100
4 113 420 421 114 100 100 100
4 103 104 387 386 100 100 100
3 14 258 262 100 100 100
4 78 332 333 79 100 100 100
4 176 446 447 177 100 100 100
4 105 388 391 108 100 100 100
4 54 284 283 53 100 100 100
7 215 398 403 389 106 163 228 100 100 100
5 16 318 317 62 66 100 100 100
4 29 30 355 354 100 100 100
6 0 179 178 1 449 448 100 100 100
4 92 372 377 97 100 100 100
4 2 334 335 3 100 100 100
5 81 346 351 336 80 100 100 100
3 8 197 193 100 100 100
5 4 399 400 216 217 100 100 100
5 5 245 246 451 450 100 100 100
4 63 319 320 64 100 100 100
4 194 356 357 195 100 100 100
5 6 439 438 133 132 100 100 100
4 31 32 348 347 100 100 100
5 7 338 337 82 83 100 100 100
5 8 359 358 196 197 100 100 100
4 198 199 361 360 100 100 100
3 9 181 180 100 100 100
5 10 453 452 183 182 100 100 100
5 11 185 184 259 260 100 100 100
4 12 13 286 285 100 100 100
6 14 262 261 186 187 22 100 100 100
4 219 410 409 218 100 100 100
4 46 273 274 47 100 100 100
4 23 263 264 24 100 100 100
4 15 16 66 65 100 100 100
5 17 94 93 373 374 100 100 100
6 200 206 95 375 380 362 100 100 100
4 220 401 402 221 100 100 100
4 115 116 423 422 100 100 100
4 33 349 350 34 100 100 100
4 118 425 424 117 100 100 100
4 134 135 441 440 100 100 100
5 19 365 363 202 201 100 100 100
4 67 68 322 321 100 100 100
4 18 364 365 19 100 100 100
5 20 96 97 377 376 100 100 100
4 222 411 412 223 100 100 100
4 107 108 391 390 100 100 100
4 120 427 426 119 100 100 100
4 240 56 70 242 100 100 100
7 160 158 162 161 157 156 159 100 100 100
7 24 22 187 188 37 21 23 100 100 100
13 203 30 29 33 34 26 25 27 28 32 31 233 237 100 100 100
6 121 36 35 224 226 122 100 100 100
8 459 460 265 277 275 289 463 461 100 100 100
8 340 470 468 466 467 324 323 339 100 100 100
7 472 473 379 378 392 476 474 100 100 100
6 443 483 485 481 428 442 100 100 100
26 511 509 499 496 497 495 498 506 505 504 500 503 508 507 501 502 494 493 487 488 491 492 490 489 486 510 -1 0 0
5 511 509 230 231 243 100 0 0
7 510 511 243 240 242 241 239 100 0 0
12 499 496 52 51 50 49 54 53 137 138 69 55 100 0 0
4 509 499 55 230 100 0 0
5 493 487 304 310 296 100 0 0
4 497 495 278 281 100 0 0
4 504 500 290 294 100 0 0
4 489 486 302 306 100 0 0
4 507 501 291 298 100 0 0
4 488 491 308 305 100 0 0
5 506 505 295 300 287 100 0 0
4 502 494 297 292 100 0 0
4 492 490 307 309 100 0 0
4 500 503 293 290 100 0 0
5 486 510 239 303 302 100 0 0
4 495 498 288 278 100 0 0
4 487 488 305 304 100 0 0
4 501 502 292 291 100 0 0
5 496 497 281 282 52 100 0 0
4 503 508 299 293 100 0 0
4 505 504 294 295 100 0 0
4 490 489 306 307 100 0 0
4 491 492 309 308 100 0 0
4 498 506 287 288 100 0 0
4 494 493 296 297 100 0 0
4 508 507 298 299 100 0 0
