ply
format ascii 1.0
comment converted from made-by-Polyhedron_join_facets_2
element vertex 510
property float x
property float y
property float z
element face 257
property list uchar uint vertex_indices
property uchar red
property uchar green
property uchar blue
end_header
-722 2146 -5410
-541 2150 -5411
2014 -2482 -5208
2081 -2445 -5407
-2921 -1141 -5224
-1540 2069 -5463
-2221 1807 -5392
2095 -2433 -5267
-1378 -2715 -5223
-317 2149 -5439
-861 2139 -5371
940 2038 -5378
2466 1272 -5424
2514 1194 -5266
1308 1967 -5323
2353 -2149 -5366
2368 -2127 -5219
-2110 -2524 -5296
-982 -2771 -5267
-897 -2782 -5361
-2313 -2409 -5236
1491 1916 -5196
1315 1964 -5244
1450 1928 -5211
1319 1963 -5243
656 -2794 -5213
427 -2804 -5236
833 -2784 -5185
966 -2773 -5161
42 -2812 -5265
211 -2809 -5254
2668 -1346 -5169
2760 -473 -5286
2749 -662 -5276
2684 -1248 -5191
2707 -1084 -5223
2734 -857 -5258
2730 -903 -5253
2763 -323 -5286
2763 -172 -5280
-2815 778 -5095
-2783 906 -5072
1602 1879 -5152
2056 1669 -5235
1945 1730 -5221
2289 1488 -5233
2236 1538 -5239
1753 1821 -5188
1825 1788 -5201
2116 1630 -5240
2173 1589 -5241
1702 1843 -5177
1631 1870 -5160
1607 1877 -5154
2450 1293 -5238
2644 885 -5195
2515 1192 -5238
2550 1129 -5234
2606 998 -5217
2576 1073 -5228
2353 1420 -5228
2390 1375 -5233
2667 805 -5177
391 -339 -3260
2361 -878 -4746
313 -385 -3198
2579 -1720 -5155
2614 -1602 -5129
2230 -2293 -5171
2317 -2191 -5184
2423 -2039 -5188
2454 -1987 -5186
2495 -1915 -5182
2337 -2167 -5186
2368 -2125 -5189
2544 -1822 -5175
2536 -1839 -5177
263 -380 -3162
2611 -1528 -5097
270 -381 -3167
2011 -2483 -5171
2086 -2438 -5173
1654 -2650 -5128
1551 -2679 -5103
1923 -2531 -5164
1817 -2582 -5153
1677 -2642 -5133
1750 -2612 -5144
1463 -2699 -5080
1414 -2709 -5065
2145 -2383 -5163
2097 -2430 -5173
-123 -721 -3146
-120 -752 -3169
-2440 -2294 -5121
-2015 -2553 -5082
-2105 -2519 -5102
-2259 -2444 -5128
-2303 -2412 -5129
-1911 -2586 -5054
-2420 -2312 -5122
-2212 -2470 -5122
-2197 -2477 -5119
-1839 -2606 -5034
-2325 -2395 -5128
-2354 -2371 -5127
-129 -725 -3150
-2709 -1945 -5141
-2741 -1878 -5134
-2813 -1682 -5101
-2777 -1788 -5121
-2539 -2195 -5137
-2577 -2154 -5143
-2646 -2056 -5146
-2832 -1613 -5085
-2600 -2126 -5147
-2611 -2113 -5148
-2646 1294 -5156
-2544 1479 -5175
-2487 1550 -5172
-2727 1096 -5118
-2560 1457 -5175
-2595 1392 -5168
-2695 1181 -5136
-2661 1260 -5150
-2766 969 -5087
-2746 1040 -5106
-2485 1552 -5172
-2418 1625 -5164
-2781 912 -5071
-2780 909 -5069
-2060 1901 -5181
-2026 1918 -5177
-1925 1959 -5161
-1747 2016 -5123
-1827 1994 -5142
-1697 2027 -5109
-2380 1665 -5164
-2184 1825 -5184
-2115 1870 -5184
-2235 1789 -5182
-2261 1770 -5181
-2339 1702 -5171
-2275 1758 -5179
2328 1446 -5225
2340 1434 -5225
258 -380 -3159
2174 -2353 -5160
2152 -2376 -5161
-123 -719 -3144
-124 -717 -3143
-93 -368 -2975
258 -380 -3159
-2440 -2293 -5120
-2468 -2266 -5121
-117 -390 -2975
-124 -716 -3142
-2404 1640 -5161
-519 -350 -3168
-2384 1660 -5163
-116 -345 -2975
-108 -6 -3155
-140 -366 -2975
-495 -357 -3153
-105 28 -3179
-108 9 -3165
-120 21 -3176
-85 614 -3630
-211 368 -3453
-109 2 -3160
-117 15 -3171
-2842 -1572 -5074
-574 -358 -3205
-534 -354 -3177
-511 -355 -3162
-515 -354 -3164
-848 2139 -5325
215 2121 -5396
409 2104 -5385
-1182 2110 -5244
-796 2141 -5334
657 2076 -5359
-475 2149 -5377
778 2060 -5344
-50 2138 -5399
-252 2146 -5394
-572 2148 -5367
-670 2146 -5354
-285 2147 -5392
-370 2148 -5386
-893 2135 -5315
-1130 2115 -5257
1064 2015 -5292
942 2037 -5318
1185 1991 -5263
1189 1990 -5262
1419 1864 -5067
641 1626 -4582
-18 1518 -4334
-1154 -2748 -5209
-981 -2771 -5238
-1393 -2710 -5159
-1632 -2660 -5088
-1547 -2679 -5116
-1298 -2726 -5181
-1356 -2717 -5168
-1716 -2638 -5055
-776 -2333 -4496
-1800 -2615 -5022
-1800 -2615 -5022
-2847 611 -5126
-2947 -685 -5236
-2886 -1390 -5135
-2950 -292 -5248
-2951 -488 -5246
-2941 -121 -5240
-2938 -86 -5237
-2846 -1557 -5077
-2905 -1274 -5164
-2918 -1144 -5186
-2903 257 -5195
-2885 378 -5173
-2938 -897 -5219
-2934 -969 -5211
-2908 208 -5202
-2925 60 -5221
-2827 715 -5100
-2448 -339 -4552
-2762 764 -5011
-2544 231 -4698
-2844 -1564 -5074
-2586 -957 -4730
2725 454 -5227
2755 107 -5267
2762 -78 -5277
2739 323 -5245
2711 559 -5208
2689 695 -5178
2680 744 -5166
2752 169 -5263
2744 266 -5252
2763 -135 -5278
2678 753 -5163
2677 751 -5161
2378 54 -4757
2284 -406 -4630
464 -2387 -4530
2635 -1518 -5128
2658 -1399 -5155
2340 -702 -4708
2626 -1555 -5117
2618 -1541 -5106
2672 -801 -5155
2326 -612 -4686
-1569 2054 -5124
-1340 2091 -5201
-1329 2093 -5204
-1641 2038 -5093
-1581 2010 -5050
-753 1687 -4565
-1215 2106 -5234
-66 1530 -4350
198 2125 -5529
485 2100 -5510
1451 1933 -5530
538 2094 -5508
844 2054 -5502
766 2065 -5502
1312 1969 -5516
1094 2013 -5504
966 2036 -5501
1161 2001 -5507
1197 1993 -5509
1437 1938 -5528
1411 1944 -5525
1330 1562 -5920
2062 1667 -5471
1931 1739 -5480
2234 1540 -5482
1730 1834 -5508
1872 1768 -5487
2110 1636 -5470
2167 1595 -5474
1650 1867 -5522
1621 1878 -5528
2264 1513 -5489
1547 1902 -5546
1331 1562 -5919
2650 871 -5488
2548 1135 -5446
2295 1483 -5481
2603 1008 -5461
2579 1069 -5452
2356 1418 -5464
2392 1374 -5456
2466 1272 -5446
2519 1187 -5444
2672 787 -5509
2666 817 -5501
2272 1505 -5489
2730 435 -5499
2757 78 -5507
2763 -74 -5516
2733 403 -5499
2717 529 -5501
2695 669 -5509
2764 -299 -5536
2764 -181 -5525
2751 197 -5502
2750 204 -5502
2677 764 -5516
2238 578 -5939
2666 -1361 -5505
2636 -1519 -5511
2760 -473 -5538
2749 -683 -5520
2688 -1224 -5503
2705 -1103 -5504
2746 -711 -5518
2729 -911 -5507
2762 -391 -5547
2759 -391 -5550
2352 -2152 -5428
2585 -1704 -5481
2613 -1611 -5509
2243 -2283 -5444
2288 -2229 -5436
2428 -2035 -5430
2382 -2106 -5428
2434 -2024 -5430
2511 -1888 -5441
2542 -1828 -5449
2526 -1861 -5444
2171 -2359 -5459
2245 -1454 -5879
2620 -1584 -5517
2261 -1452 -5868
2086 -2442 -5425
1616 -2669 -5429
1563 -2684 -5439
1911 -2541 -5414
1829 -2581 -5414
1666 -2652 -5423
1749 -2617 -5417
1984 -2502 -5417
2082 -2445 -5424
1463 -2709 -5460
2142 -2390 -5446
2115 -2416 -5435
2168 -2362 -5459
1305 -2319 -5868
634 -2802 -5446
520 -2806 -5449
1310 -2739 -5464
797 -2793 -5445
1024 -2775 -5448
1354 -2732 -5469
1196 -2756 -5455
1089 -2769 -5450
25 -2817 -5470
245 -2813 -5460
1401 -2722 -5475
1297 -2339 -5853
-1115 -2760 -5424
-231 -2817 -5477
-433 -2813 -5456
-1619 -2675 -5445
-1594 -2681 -5443
-1261 -2739 -5427
-1394 -2718 -5431
-495 -2811 -5450
-552 -2808 -5446
-1662 -2665 -5450
-738 -2796 -5435
-1018 -2772 -5424
-894 -2784 -5428
-178 -2817 -5483
-178 -2813 -5487
-2465 -2284 -5429
-2025 -2562 -5413
-2268 -2448 -5390
-1929 -2593 -5432
-2388 -2355 -5409
-2215 -2477 -5392
-2106 -2529 -5401
-1851 -2616 -5451
-2319 -2411 -5396
-2375 -2365 -5406
-2488 -2262 -5436
-1613 -2250 -5852
-1792 -2632 -5466
-1610 -2262 -5844
-2713 -1967 -5385
-2760 -1870 -5388
-2828 -1698 -5407
-2800 -1776 -5396
-2530 -2219 -5425
-2593 -2149 -5404
-2667 -2047 -5387
-2850 -1624 -5421
-2623 -2113 -5395
-2645 -2084 -5390
-2499 -2251 -5436
-2958 -706 -5426
-2899 -1410 -5408
-2963 -301 -5464
-2963 -461 -5447
-2942 -1015 -5409
-2873 -1531 -5420
-2923 -1236 -5404
-2919 -1274 -5403
-2951 -864 -5416
-2944 -987 -5410
-2858 -1594 -5428
-2870 588 -5448
-2959 -189 -5477
-2946 -16 -5464
-2835 779 -5453
-2817 857 -5459
-2915 278 -5451
-2901 382 -5449
-2929 156 -5455
-2939 59 -5460
-2959 -202 -5479
-2953 -203 -5485
-2656 1303 -5420
-2557 1477 -5418
-2518 1527 -5427
-2395 1663 -5464
-2742 1102 -5445
-2576 1450 -5415
-2618 1376 -5416
-2707 1190 -5432
-2682 1246 -5425
-2776 1007 -5463
-2770 1025 -5459
-2442 1613 -5448
-2441 1615 -5449
-2333 1720 -5488
-2786 971 -5472
-2392 849 -5863
-2071 1901 -5442
-2019 1928 -5440
-1923 1967 -5445
-1723 2030 -5474
-1843 1996 -5454
-1669 2043 -5485
-2131 1868 -5447
-2275 1769 -5473
-2222 1808 -5461
-2326 1727 -5488
-2314 1737 -5485
-2326 1727 -5489
-1470 1632 -5930
-1275 2106 -5476
-326 2150 -5511
-48 2141 -5543
-212 2147 -5524
-720 2147 -5482
-537 2152 -5492
-1540 2070 -5490
-1315 2102 -5477
-1064 2126 -5474
-874 2141 -5475
-16 2139 -5548
-16 2135 -5552
-1610 2056 -5498
-1469 1635 -5928
-67 1179 -6213
1475 803 -6211
1328 1557 -5923
1499 778 -6211
1812 -341 -6210
2212 598 -5950
2230 579 -5945
1810 -416 -6210
1412 -1537 -6211
2238 -1451 -5884
1403 -1546 -6211
-13 -1788 -6213
1302 -2311 -5873
-130 -1784 -6213
-1605 -1480 -6215
-1603 -2232 -5865
-1612 -1473 -6215
-1908 -254 -6216
-2416 -1394 -5875
-2418 -1389 -5874
-2418 -1392 -5874
-1908 -247 -6216
-2386 851 -5867
-2373 865 -5872
-149 1182 -6213
-1465 1620 -5937
-1597 896 -6215
-1598 898 -6214
-813 -2786 -5256
-237 -2813 -5277
-333 -2811 -5279
1180 -2749 -5112
1092 -2760 -5134
1366 -2717 -5051
1342 -2707 -5034
-158 -2246 -4317
-886 -2779 -5248
-503 -2806 -5277
-592 -2801 -5273
-723 -2793 -5264
-160 -2246 -4317
1300 -2730 -5075
25 192 193 183 181 178 177 184 185 188 189 182 186 187 180 176 190 191 179 260 261 198 197 196 195 194 -1 -1 -1
22 227 229 228 226 210 221 220 224 225 216 215 213 214 211 222 223 219 218 212 217 230 231 -1 -1 -1
16 233 239 240 235 232 236 237 238 242 243 244 245 253 252 241 234 -1 -1 -1
7 151 152 146 145 144 161 160 -1 -1 -1
8 151 155 156 150 149 148 147 152 -1 -1 -1
6 155 162 163 154 153 156 -1 -1 -1
11 161 169 170 159 157 158 175 174 163 162 160 -1 -1 -1
8 468 492 493 453 467 465 275 470 -1 -1 -1
8 472 474 311 321 336 334 477 475 -1 -1 -1
9 479 480 350 362 377 391 389 483 481 -1 -1 -1
6 424 440 490 489 485 487 -1 -1 -1
7 249 251 250 247 248 252 253 -1 -1 -1
8 254 257 258 259 261 260 256 255 -1 -1 -1
4 164 197 198 167 -1 -1 -1
6 42 196 197 164 165 53 -1 -1 -1
15 51 52 53 165 169 161 144 45 46 50 49 43 44 48 47 -1 -1 -1
15 63 243 242 62 55 58 59 57 56 54 61 60 145 146 77 -1 -1 -1
3 63 244 243 -1 -1 -1
6 63 77 79 65 245 244 -1 -1 -1
5 64 249 253 245 65 -1 -1 -1
4 64 65 79 78 -1 -1 -1
19 67 250 251 78 79 77 146 152 147 68 69 73 74 70 71 72 76 75 66 -1 -1 -1
3 106 209 207 -1 -1 -1
18 100 105 104 98 97 101 102 96 95 99 103 208 209 106 150 156 153 94 -1 -1 -1
14 109 110 108 107 113 116 115 112 111 154 163 174 171 114 -1 -1 -1
3 172 227 231 -1 -1 -1
4 172 173 229 227 -1 -1 -1
6 130 228 229 173 175 158 -1 -1 -1
16 125 129 130 158 157 128 127 119 118 121 122 117 124 123 120 126 -1 -1 -1
18 166 258 257 136 134 135 133 132 131 139 138 140 141 143 142 137 159 170 -1 -1 -1
4 166 168 259 258 -1 -1 -1
5 167 198 261 259 168 -1 -1 -1
7 171 174 175 173 172 231 230 -1 -1 -1
18 269 271 272 268 274 273 264 286 287 275 465 464 262 263 265 267 266 270 -1 -1 -1
12 276 281 282 278 285 287 286 284 283 279 280 277 -1 -1 -1
16 311 474 473 299 290 293 294 295 296 289 292 291 288 298 297 310 -1 -1 -1
14 300 303 309 308 301 302 307 306 320 321 311 310 305 304 -1 -1 -1
12 314 315 318 319 317 316 312 313 335 336 321 320 -1 -1 -1
15 331 332 330 329 327 328 322 326 325 333 334 336 335 324 323 -1 -1 -1
16 347 348 337 345 344 340 341 343 342 338 339 346 361 362 350 349 -1 -1 -1
14 353 357 358 355 354 351 352 360 359 376 377 362 361 356 -1 -1 -1
17 371 373 375 374 363 368 369 367 366 372 390 391 377 376 364 365 370 -1 -1 -1
14 389 391 390 385 381 379 384 383 380 386 387 382 378 388 -1 -1 -1
14 396 397 400 401 398 392 393 395 394 399 413 488 486 402 -1 -1 -1
15 403 406 405 423 424 487 488 413 408 404 410 409 407 412 411 -1 -1 -1
13 415 416 422 421 419 420 414 417 418 439 440 424 423 -1 -1 -1
18 429 432 433 425 431 430 426 427 436 437 428 438 491 490 440 439 434 435 -1 -1 -1
15 450 451 448 449 447 441 442 443 445 444 446 466 467 453 452 -1 -1 -1
14 454 462 463 458 459 455 457 456 464 465 467 466 460 461 -1 -1 -1
3 468 470 469 -1 -1 -1
4 473 474 472 471 -1 -1 -1
3 475 477 476 -1 -1 -1
3 478 480 479 -1 -1 -1
3 481 483 482 -1 -1 -1
5 484 486 488 487 485 -1 -1 -1
5 490 491 495 494 489 -1 -1 -1
4 494 495 493 492 -1 -1 -1
15 468 469 471 472 475 476 478 479 481 482 484 485 489 494 492 -1 -1 -1
4 151 160 162 155 -1 -1 -1
5 177 262 464 456 184 -1 -1 -1
5 32 314 320 306 38 -1 -1 -1
5 213 215 415 423 405 -1 -1 -1
4 95 379 381 99 -1 -1 -1
4 134 136 446 444 -1 -1 -1
4 109 114 399 394 -1 -1 -1
4 47 279 283 51 -1 -1 -1
6 137 142 450 452 438 428 -1 -1 -1
4 66 75 331 323 -1 -1 -1
4 120 123 432 429 -1 -1 -1
8 68 147 148 90 347 349 333 325 -1 -1 -1
8 94 153 154 111 396 402 388 378 -1 -1 -1
4 82 338 342 86 -1 -1 -1
4 55 288 291 58 -1 -1 -1
6 45 144 145 60 293 290 -1 -1 -1
4 199 204 368 363 -1 -1 -1
3 10 190 176 -1 -1 -1
4 194 271 269 192 -1 -1 -1
3 4 407 409 -1 -1 -1
4 232 300 304 236 -1 -1 -1
5 210 226 40 417 414 -1 -1 -1
4 31 312 316 34 -1 -1 -1
4 107 392 398 113 -1 -1 -1
4 131 132 442 441 -1 -1 -1
4 70 327 329 71 -1 -1 -1
5 2 80 84 340 344 -1 -1 -1
4 49 281 276 43 -1 -1 -1
4 12 54 56 13 -1 -1 -1
4 118 426 430 121 -1 -1 -1
4 97 380 383 101 -1 -1 -1
4 25 351 354 27 -1 -1 -1
3 1 186 182 -1 -1 -1
4 181 265 263 178 -1 -1 -1
4 233 301 308 239 -1 -1 -1
4 211 214 406 403 -1 -1 -1
3 5 254 255 -1 -1 -1
4 206 372 366 202 -1 -1 -1
4 220 419 421 224 -1 -1 -1
4 36 318 315 33 -1 -1 -1
4 21 264 273 23 -1 -1 -1
3 6 140 138 -1 -1 -1
4 212 404 408 217 -1 -1 -1
4 122 431 425 117 -1 -1 -1
6 41 129 125 434 439 418 -1 -1 -1
4 110 395 393 108 -1 -1 -1
4 135 445 443 133 -1 -1 -1
3 20 98 104 -1 -1 -1
4 119 127 436 427 -1 -1 -1
4 83 88 346 339 -1 -1 -1
4 46 278 282 50 -1 -1 -1
4 44 277 280 48 -1 -1 -1
5 15 73 69 326 322 -1 -1 -1
6 247 250 67 324 335 313 -1 -1 -1
5 237 305 310 297 238 -1 -1 -1
4 59 292 289 57 -1 -1 -1
4 85 87 343 341 -1 -1 -1
4 112 115 400 397 -1 -1 -1
3 17 96 102 -1 -1 -1
5 8 201 203 367 369 -1 -1 -1
3 11 270 266 -1 -1 -1
5 12 295 294 61 54 -1 -1 -1
4 179 191 462 454 -1 -1 -1
4 210 414 420 221 -1 -1 -1
5 234 241 39 307 302 -1 -1 -1
4 211 403 411 222 -1 -1 -1
6 7 91 81 3 345 337 -1 -1 -1
4 35 317 319 37 -1 -1 -1
6 10 176 180 0 458 463 -1 -1 -1
5 185 457 455 9 188 -1 -1 -1
5 14 22 24 274 268 -1 -1 -1
4 235 303 300 232 -1 -1 -1
4 212 218 410 404 -1 -1 -1
4 72 330 332 76 -1 -1 -1
4 43 276 277 44 -1 -1 -1
4 213 405 406 214 -1 -1 -1
5 31 248 247 313 312 -1 -1 -1
4 62 298 288 55 -1 -1 -1
4 15 322 328 16 -1 -1 -1
4 94 378 382 100 -1 -1 -1
4 215 216 416 415 -1 -1 -1
4 177 178 263 262 -1 -1 -1
4 26 352 351 25 -1 -1 -1
4 107 108 393 392 -1 -1 -1
4 131 441 447 139 -1 -1 -1
4 133 443 442 132 -1 -1 -1
4 109 394 395 110 -1 -1 -1
3 7 337 348 -1 -1 -1
4 141 448 451 143 -1 -1 -1
4 134 444 445 135 -1 -1 -1
4 225 422 416 216 -1 -1 -1
4 33 315 314 32 -1 -1 -1
5 13 56 57 289 296 -1 -1 -1
5 17 384 379 95 96 -1 -1 -1
6 45 290 299 285 278 46 -1 -1 -1
4 2 3 81 80 -1 -1 -1
7 136 257 254 5 460 466 446 -1 -1 -1
4 41 418 417 40 -1 -1 -1
4 66 323 324 67 -1 -1 -1
5 199 363 374 18 200 -1 -1 -1
5 179 454 461 256 260 -1 -1 -1
5 97 98 20 386 380 -1 -1 -1
4 117 425 433 124 -1 -1 -1
7 21 42 53 52 284 286 264 -1 -1 -1
4 83 339 338 82 -1 -1 -1
4 118 119 427 426 -1 -1 -1
6 137 428 437 128 157 159 -1 -1 -1
5 223 412 407 4 219 -1 -1 -1
3 0 180 187 -1 -1 -1
4 181 183 267 265 -1 -1 -1
4 47 48 280 279 -1 -1 -1
4 234 302 301 233 -1 -1 -1
4 99 381 385 103 -1 -1 -1
6 1 182 189 9 455 459 -1 -1 -1
4 120 429 435 126 -1 -1 -1
4 58 291 292 59 -1 -1 -1
4 235 240 309 303 -1 -1 -1
4 68 325 326 69 -1 -1 -1
5 183 193 11 266 267 -1 -1 -1
4 49 50 282 281 -1 -1 -1
5 6 138 139 447 449 -1 -1 -1
4 85 341 340 84 -1 -1 -1
4 121 430 431 122 -1 -1 -1
4 111 112 397 396 -1 -1 -1
4 236 304 305 237 -1 -1 -1
3 14 268 272 -1 -1 -1
4 86 342 343 87 -1 -1 -1
4 184 456 457 185 -1 -1 -1
4 113 398 401 116 -1 -1 -1
4 61 294 293 60 -1 -1 -1
7 217 408 413 399 114 171 230 -1 -1 -1
5 16 328 327 70 74 -1 -1 -1
6 0 187 186 1 459 458 -1 -1 -1
4 100 382 387 105 -1 -1 -1
4 2 344 345 3 -1 -1 -1
5 89 356 361 346 88 -1 -1 -1
3 8 205 201 -1 -1 -1
5 4 409 410 218 219 -1 -1 -1
5 5 255 256 461 460 -1 -1 -1
4 71 329 330 72 -1 -1 -1
4 202 366 367 203 -1 -1 -1
4 34 316 317 35 -1 -1 -1
5 6 449 448 141 140 -1 -1 -1
5 7 348 347 90 91 -1 -1 -1
5 8 369 368 204 205 -1 -1 -1
3 9 189 188 -1 -1 -1
5 10 463 462 191 190 -1 -1 -1
5 11 193 192 269 270 -1 -1 -1
4 12 13 296 295 -1 -1 -1
6 14 272 271 194 195 22 -1 -1 -1
4 221 420 419 220 -1 -1 -1
4 51 283 284 52 -1 -1 -1
4 36 37 319 318 -1 -1 -1
5 238 297 298 62 242 -1 -1 -1
4 23 273 274 24 -1 -1 -1
4 15 16 74 73 -1 -1 -1
5 17 102 101 383 384 -1 -1 -1
6 206 208 103 385 390 372 -1 -1 -1
4 222 411 412 223 -1 -1 -1
4 123 124 433 432 -1 -1 -1
4 126 435 434 125 -1 -1 -1
4 142 143 451 450 -1 -1 -1
4 38 306 307 39 -1 -1 -1
4 75 76 332 331 -1 -1 -1
4 18 374 375 19 -1 -1 -1
5 20 104 105 387 386 -1 -1 -1
4 224 421 422 225 -1 -1 -1
4 115 116 401 400 -1 -1 -1
4 128 437 436 127 -1 -1 -1
4 239 308 309 240 -1 -1 -1
4 249 64 78 251 -1 -1 -1
7 168 166 170 169 165 164 167 -1 -1 -1
7 24 22 195 196 42 21 23 -1 -1 -1
12 248 31 34 35 37 36 33 32 38 39 241 252 -1 -1 -1
6 129 41 40 226 228 130 -1 -1 -1
8 469 470 275 287 285 299 473 471 -1 -1 -1
8 350 480 478 476 477 334 333 349 -1 -1 -1
7 482 483 389 388 402 486 484 -1 -1 -1
6 453 493 495 491 438 452 -1 -1 -1
19 508 504 496 507 506 505 498 497 29 30 27 28 500 499 509 501 502 246 503 -1 0 0
13 504 508 207 209 208 206 202 203 201 205 204 199 200 0 -1 0
17 502 501 89 88 83 82 86 87 85 84 80 81 91 90 148 149 92 0 -1 0
4 246 502 92 93 0 -1 0
3 503 246 93 0 -1 0
8 508 503 93 92 149 150 106 207 0 -1 0
5 29 497 364 376 359 0 -1 0
4 509 499 357 353 0 -1 0
5 496 504 200 18 19 0 -1 0
4 498 505 370 365 0 -1 0
4 26 30 360 352 0 -1 0
4 500 28 355 358 0 -1 0
4 506 507 373 371 0 -1 0
5 501 509 353 356 89 0 -1 0
4 28 27 354 355 0 -1 0
4 497 498 365 364 0 -1 0
4 499 500 358 357 0 -1 0
4 505 506 371 370 0 -1 0
4 30 29 359 360 0 -1 0
5 507 496 19 375 373 0 -1 0
