ply
format ascii 1.0
comment converted from made-by-Polyhedron_join_facets_2
element vertex 8
property float x
property float y
property float z
element face 6
property list uchar uint vertex_indices
property uchar red
property uchar green
property uchar blue
end_header
297 -3787 2332
4316 -77 5367
6531 5642 3352
5607 2991 7076
-2509 -7631 881
5671 -993 10139
3843 -552 8632
-1100 1100 1100
4 1 0 3 2 100 100 100
4 0 1 5 4 100 100 100
4 1 2 6 5 100 100 100
4 2 3 7 6 100 100 100
4 3 0 4 7 100 100 100
4 4 5 6 7 100 100 100
