ply
format ascii 1.0
comment converted from made-by-Polyhedron_join_facets_2
element vertex 510
property float x
property float y
property float z
element face 256
property list uchar uint vertex_indices
property uchar red
property uchar green
property uchar blue
end_header
-722 2146 -5410
-541 2150 -5411
2014 -2482 -5208
2081 -2445 -5407
-2921 -1141 -5224
-1540 2069 -5463
-2221 1807 -5392
2095 -2433 -5267
-1378 -2715 -5223
-317 2149 -5439
-861 2139 -5371
940 2038 -5378
2466 1272 -5424
2514 1194 -5266
1308 1967 -5323
2353 -2149 -5366
2368 -2127 -5219
-2110 -2524 -5296
-982 -2771 -5267
-897 -2782 -5361
-2313 -2409 -5236
1491 1916 -5196
1315 1964 -5244
1450 1928 -5211
1319 1963 -5243
656 -2794 -5213
428 -2804 -5239
833 -2784 -5188
966 -2773 -5162
-237 -2813 -5277
-332 -2811 -5277
1180 -2749 -5109
1092 -2760 -5133
42 -2812 -5268
212 -2810 -5257
2668 -1346 -5169
2760 -473 -5286
2749 -662 -5276
2684 -1248 -5191
2707 -1084 -5223
2734 -857 -5258
2730 -903 -5253
2763 -323 -5286
2763 -172 -5280
-2815 778 -5095
-2783 906 -5072
1602 1879 -5152
2056 1669 -5235
1945 1730 -5221
2289 1488 -5233
2236 1538 -5239
1753 1821 -5188
1825 1788 -5201
2116 1630 -5240
2173 1589 -5241
1702 1843 -5177
1631 1870 -5160
1607 1877 -5154
2450 1293 -5238
2644 885 -5195
2515 1192 -5238
2550 1129 -5234
2606 998 -5217
2576 1073 -5228
2353 1420 -5228
2390 1375 -5233
2667 805 -5177
391 -339 -3260
2361 -878 -4746
313 -385 -3198
2579 -1720 -5155
2614 -1602 -5129
2230 -2293 -5171
2317 -2191 -5184
2423 -2039 -5188
2454 -1987 -5186
2495 -1915 -5182
2337 -2167 -5186
2368 -2125 -5189
2544 -1822 -5175
2536 -1839 -5177
263 -380 -3162
2611 -1528 -5097
270 -381 -3167
2011 -2483 -5171
2086 -2438 -5173
1654 -2650 -5128
1551 -2679 -5103
1923 -2531 -5164
1817 -2582 -5153
1677 -2642 -5133
1750 -2612 -5144
1463 -2699 -5080
1414 -2709 -5065
2145 -2383 -5163
2097 -2430 -5173
-123 -721 -3146
-120 -752 -3169
-2440 -2294 -5121
-2015 -2553 -5082
-2105 -2519 -5102
-2259 -2444 -5128
-2303 -2412 -5129
-1911 -2586 -5054
-2420 -2312 -5122
-2212 -2470 -5122
-2197 -2477 -5119
-1839 -2606 -5034
-2325 -2395 -5128
-2354 -2371 -5127
-129 -725 -3150
-2709 -1945 -5141
-2741 -1878 -5134
-2813 -1682 -5101
-2777 -1788 -5121
-2539 -2195 -5137
-2577 -2154 -5143
-2646 -2056 -5146
-2832 -1613 -5085
-2600 -2126 -5147
-2611 -2113 -5148
-2646 1294 -5156
-2544 1479 -5175
-2487 1550 -5172
-2727 1096 -5118
-2560 1457 -5175
-2595 1392 -5168
-2695 1181 -5136
-2661 1260 -5150
-2766 969 -5087
-2746 1040 -5106
-2485 1552 -5172
-2418 1625 -5164
-2781 912 -5071
-2780 909 -5069
-2060 1901 -5181
-2026 1918 -5177
-1925 1959 -5161
-1747 2016 -5123
-1827 1994 -5142
-1697 2027 -5109
-2380 1665 -5164
-2184 1825 -5184
-2115 1870 -5184
-2235 1789 -5182
-2261 1770 -5181
-2339 1702 -5171
-2275 1758 -5179
2328 1446 -5225
2340 1434 -5225
258 -380 -3159
2174 -2353 -5160
2152 -2376 -5161
-123 -719 -3144
-124 -717 -3143
-93 -368 -2975
258 -380 -3159
-2440 -2293 -5120
-2468 -2266 -5121
-117 -390 -2975
-124 -716 -3142
-2404 1640 -5161
-519 -350 -3168
-2384 1660 -5163
-116 -345 -2975
-108 -6 -3155
-140 -366 -2975
-495 -357 -3153
-105 28 -3179
-108 9 -3165
-120 21 -3176
-109 2 -3160
-117 15 -3171
-2842 -1572 -5074
-574 -358 -3205
-534 -354 -3177
-511 -355 -3162
-515 -354 -3164
-848 2139 -5325
215 2121 -5396
409 2104 -5385
-1182 2110 -5244
-796 2141 -5334
657 2076 -5359
-475 2149 -5377
778 2060 -5344
-50 2138 -5399
-252 2146 -5394
-572 2148 -5367
-670 2146 -5354
-285 2147 -5392
-370 2148 -5386
-893 2135 -5315
-1130 2115 -5257
1064 2015 -5292
942 2037 -5318
1185 1991 -5263
1189 1990 -5262
1419 1864 -5067
641 1626 -4582
-18 1518 -4334
-1154 -2748 -5209
-981 -2771 -5238
-1393 -2710 -5159
-1632 -2660 -5088
-1547 -2679 -5116
-1298 -2726 -5181
-1356 -2717 -5168
-503 -2806 -5272
-593 -2801 -5269
-1716 -2638 -5055
-812 -2786 -5255
-723 -2793 -5262
-480 -2806 -5272
-158 -2246 -4317
-776 -2333 -4496
-1800 -2615 -5022
-1800 -2615 -5022
-2847 611 -5126
-2947 -685 -5236
-2886 -1390 -5135
-2950 -292 -5248
-2951 -488 -5246
-2941 -121 -5240
-2938 -86 -5237
-2846 -1557 -5077
-2905 -1274 -5164
-2918 -1144 -5186
-2903 257 -5195
-2885 378 -5173
-2938 -897 -5219
-2934 -969 -5211
-2908 208 -5202
-2925 60 -5221
-2827 715 -5100
-2448 -339 -4552
-2762 764 -5011
-2544 231 -4698
-2844 -1564 -5074
-2586 -957 -4730
2725 454 -5227
2755 107 -5267
2762 -78 -5277
2739 323 -5245
2711 559 -5208
2689 695 -5178
2680 744 -5166
2752 169 -5263
2744 266 -5252
2763 -135 -5278
2678 753 -5163
2677 751 -5161
2378 54 -4757
2284 -406 -4630
1300 -2730 -5070
1265 -2735 -5079
1364 -2718 -5050
1344 -2709 -5036
463 -2383 -4527
766 -2710 -5045
-68 -2267 -4348
2635 -1518 -5128
2658 -1399 -5155
2340 -702 -4708
2626 -1555 -5117
2618 -1541 -5106
2672 -801 -5155
2326 -612 -4686
-1569 2054 -5124
-1340 2091 -5201
-1329 2093 -5204
-1641 2038 -5093
-1581 2010 -5050
-753 1687 -4565
-1215 2106 -5234
-66 1530 -4350
198 2125 -5529
485 2100 -5510
1451 1933 -5530
538 2094 -5508
844 2054 -5502
766 2065 -5502
1312 1969 -5516
1094 2013 -5504
966 2036 -5501
1161 2001 -5507
1197 1993 -5509
1437 1938 -5528
1411 1944 -5525
1330 1562 -5920
2062 1667 -5471
1931 1739 -5480
2234 1540 -5482
1730 1834 -5508
1872 1768 -5487
2110 1636 -5470
2167 1595 -5474
1650 1867 -5522
1621 1878 -5528
2264 1513 -5489
1547 1902 -5546
1331 1562 -5919
2650 871 -5488
2548 1135 -5446
2295 1483 -5481
2603 1008 -5461
2579 1069 -5452
2356 1418 -5464
2392 1374 -5456
2466 1272 -5446
2519 1187 -5444
2672 787 -5509
2666 817 -5501
2272 1505 -5489
2730 435 -5499
2757 78 -5507
2763 -74 -5516
2733 403 -5499
2717 529 -5501
2695 669 -5509
2764 -299 -5536
2764 -181 -5525
2751 197 -5502
2750 204 -5502
2677 764 -5516
2238 578 -5939
2666 -1361 -5505
2636 -1519 -5511
2760 -473 -5538
2749 -683 -5520
2688 -1224 -5503
2705 -1103 -5504
2746 -711 -5518
2729 -911 -5507
2762 -391 -5547
2759 -391 -5550
2352 -2152 -5428
2585 -1704 -5481
2613 -1611 -5509
2243 -2283 -5444
2288 -2229 -5436
2428 -2035 -5430
2382 -2106 -5428
2434 -2024 -5430
2511 -1888 -5441
2542 -1828 -5449
2526 -1861 -5444
2171 -2359 -5459
2245 -1454 -5879
2620 -1584 -5517
2261 -1452 -5868
2086 -2442 -5425
1616 -2669 -5429
1563 -2684 -5439
1911 -2541 -5414
1829 -2581 -5414
1666 -2652 -5423
1749 -2617 -5417
1984 -2502 -5417
2082 -2445 -5424
1463 -2709 -5460
2142 -2390 -5446
2115 -2416 -5435
2168 -2362 -5459
1305 -2319 -5868
634 -2802 -5446
520 -2806 -5449
1310 -2739 -5464
797 -2793 -5445
1024 -2775 -5448
1354 -2732 -5469
1196 -2756 -5455
1089 -2769 -5450
25 -2817 -5470
245 -2813 -5460
1401 -2722 -5475
1297 -2339 -5853
-1115 -2760 -5424
-231 -2817 -5477
-433 -2813 -5456
-1619 -2675 -5445
-1594 -2681 -5443
-1261 -2739 -5427
-1394 -2718 -5431
-495 -2811 -5450
-552 -2808 -5446
-1662 -2665 -5450
-738 -2796 -5435
-1018 -2772 -5424
-894 -2784 -5428
-178 -2817 -5483
-178 -2813 -5487
-2465 -2284 -5429
-2025 -2562 -5413
-2268 -2448 -5390
-1929 -2593 -5432
-2388 -2355 -5409
-2215 -2477 -5392
-2106 -2529 -5401
-1851 -2616 -5451
-2319 -2411 -5396
-2375 -2365 -5406
-2488 -2262 -5436
-1613 -2250 -5852
-1792 -2632 -5466
-1610 -2262 -5844
-2713 -1967 -5385
-2760 -1870 -5388
-2828 -1698 -5407
-2800 -1776 -5396
-2530 -2219 -5425
-2593 -2149 -5404
-2667 -2047 -5387
-2850 -1624 -5421
-2623 -2113 -5395
-2645 -2084 -5390
-2499 -2251 -5436
-2958 -706 -5426
-2899 -1410 -5408
-2963 -301 -5464
-2963 -461 -5447
-2942 -1015 -5409
-2873 -1531 -5420
-2923 -1236 -5404
-2919 -1274 -5403
-2951 -864 -5416
-2944 -987 -5410
-2858 -1594 -5428
-2870 588 -5448
-2959 -189 -5477
-2946 -16 -5464
-2835 779 -5453
-2817 857 -5459
-2915 278 -5451
-2901 382 -5449
-2929 156 -5455
-2939 59 -5460
-2959 -202 -5479
-2953 -203 -5485
-2656 1303 -5420
-2557 1477 -5418
-2518 1527 -5427
-2395 1663 -5464
-2742 1102 -5445
-2576 1450 -5415
-2618 1376 -5416
-2707 1190 -5432
-2682 1246 -5425
-2776 1007 -5463
-2770 1025 -5459
-2442 1613 -5448
-2441 1615 -5449
-2333 1720 -5488
-2786 971 -5472
-2392 849 -5863
-2071 1901 -5442
-2019 1928 -5440
-1923 1967 -5445
-1723 2030 -5474
-1843 1996 -5454
-1669 2043 -5485
-2131 1868 -5447
-2275 1769 -5473
-2222 1808 -5461
-2326 1727 -5488
-2314 1737 -5485
-2326 1727 -5489
-1470 1632 -5930
-1275 2106 -5476
-326 2150 -5511
-48 2141 -5543
-212 2147 -5524
-720 2147 -5482
-537 2152 -5492
-1540 2070 -5490
-1315 2102 -5477
-1064 2126 -5474
-874 2141 -5475
-16 2139 -5548
-16 2135 -5552
-1610 2056 -5498
-1469 1635 -5928
-67 1179 -6213
1475 803 -6211
1328 1557 -5923
1499 778 -6211
1812 -341 -6210
2212 598 -5950
2230 579 -5945
1810 -416 -6210
1412 -1537 -6211
2238 -1451 -5884
1403 -1546 -6211
-13 -1788 -6213
1302 -2311 -5873
-130 -1784 -6213
-1605 -1480 -6215
-1603 -2232 -5865
-1612 -1473 -6215
-1908 -254 -6216
-2416 -1394 -5875
-2418 -1389 -5874
-2418 -1392 -5874
-1908 -247 -6216
-2386 851 -5867
-2373 865 -5872
-149 1182 -6213
-1465 1620 -5937
-1597 896 -6215
-1598 898 -6214
23 194 195 185 183 180 179 186 187 190 191 184 188 189 182 178 192 193 181 274 199 198 197 196 100 100 100
19 214 215 217 216 210 204 205 203 207 206 201 202 211 212 209 208 213 259 260 100 100 100
22 235 237 236 234 218 229 228 232 233 224 223 221 222 219 230 231 227 226 220 225 238 239 100 100 100
16 241 247 248 243 240 244 245 246 250 251 252 253 267 266 249 242 100 100 100
7 155 156 150 149 148 165 164 100 100 100
8 155 159 160 154 153 152 151 156 100 100 100
6 159 166 167 158 157 160 100 100 100
9 165 163 161 162 177 176 167 166 164 100 100 100
8 482 506 507 467 481 479 289 484 100 100 100
8 486 488 325 335 350 348 491 489 100 100 100
9 493 494 364 376 391 405 403 497 495 100 100 100
6 438 454 504 503 499 501 100 100 100
7 254 256 257 258 260 259 255 100 100 100
7 263 265 264 261 262 266 267 100 100 100
6 268 271 272 274 270 269 100 100 100
1 199 100 100 100
4 46 198 199 57 100 100 100
13 55 56 57 165 148 49 50 54 53 47 48 52 51 100 100 100
15 67 251 250 66 59 62 63 61 60 58 65 64 149 150 81 100 100 100
3 67 252 251 100 100 100
6 67 81 83 69 253 252 100 100 100
5 68 263 267 253 69 100 100 100
4 68 69 83 82 100 100 100
19 71 264 265 82 83 81 150 156 151 72 73 77 78 74 75 76 80 79 70 100 100 100
17 84 85 95 94 152 153 96 257 256 93 92 87 86 90 91 89 88 100 100 100
4 96 97 258 257 100 100 100
4 97 214 260 258 100 100 100
7 96 153 154 110 215 214 97 100 100 100
3 110 217 215 100 100 100
18 104 109 108 102 101 105 106 100 99 103 107 216 217 110 154 160 157 98 100 100 100
14 113 114 112 111 117 120 119 116 115 158 167 176 173 118 100 100 100
3 174 235 239 100 100 100
4 174 175 237 235 100 100 100
6 134 236 237 175 177 162 100 100 100
16 129 133 134 162 161 132 131 123 122 125 126 121 128 127 124 130 100 100 100
16 272 271 140 138 139 137 136 135 143 142 144 145 147 146 141 163 100 100 100
1 272 100 100 100
7 173 176 177 175 174 239 238 100 100 100
18 283 285 286 282 288 287 278 300 301 289 479 478 276 277 279 281 280 284 100 100 100
12 290 295 296 292 299 301 300 298 297 293 294 291 100 100 100
16 325 488 487 313 304 307 308 309 310 303 306 305 302 312 311 324 100 100 100
14 314 317 323 322 315 316 321 320 334 335 325 324 319 318 100 100 100
12 328 329 332 333 331 330 326 327 349 350 335 334 100 100 100
15 345 346 344 343 341 342 336 340 339 347 348 350 349 338 337 100 100 100
16 361 362 351 359 358 354 355 357 356 352 353 360 375 376 364 363 100 100 100
14 367 371 372 369 368 365 366 374 373 390 391 376 375 370 100 100 100
17 385 387 389 388 377 382 383 381 380 386 404 405 391 390 378 379 384 100 100 100
14 403 405 404 399 395 393 398 397 394 400 401 396 392 402 100 100 100
14 410 411 414 415 412 406 407 409 408 413 427 502 500 416 100 100 100
15 417 420 419 437 438 501 502 427 422 418 424 423 421 426 425 100 100 100
13 429 430 436 435 433 434 428 431 432 453 454 438 437 100 100 100
18 443 446 447 439 445 444 440 441 450 451 442 452 505 504 454 453 448 449 100 100 100
15 464 465 462 463 461 455 456 457 459 458 460 480 481 467 466 100 100 100
14 468 476 477 472 473 469 471 470 478 479 481 480 474 475 100 100 100
3 482 484 483 100 100 100
4 487 488 486 485 100 100 100
3 489 491 490 100 100 100
3 492 494 493 100 100 100
3 495 497 496 100 100 100
5 498 500 502 501 499 100 100 100
5 504 505 509 508 503 100 100 100
4 508 509 507 506 100 100 100
15 482 483 485 486 489 490 492 493 495 496 498 499 503 508 506 100 100 100
4 155 164 166 159 100 100 100
5 29 378 390 373 33 100 100 100
5 179 276 478 470 186 100 100 100
5 36 328 334 320 42 100 100 100
5 221 223 429 437 419 100 100 100
4 99 393 395 103 100 100 100
4 138 140 460 458 100 100 100
4 113 118 413 408 100 100 100
4 51 293 297 55 100 100 100
6 141 146 464 466 452 442 100 100 100
4 70 79 345 337 100 100 100
4 124 127 446 443 100 100 100
8 72 151 152 94 361 363 347 339 100 100 100
8 98 157 158 115 410 416 402 392 100 100 100
4 86 352 356 90 100 100 100
4 59 302 305 62 100 100 100
6 49 148 149 64 307 304 100 100 100
4 201 206 382 377 100 100 100
3 10 192 178 100 100 100
4 196 285 283 194 100 100 100
3 4 421 423 100 100 100
5 31 371 367 254 255 100 100 100
4 240 314 318 244 100 100 100
5 218 234 44 431 428 100 100 100
4 35 326 330 38 100 100 100
4 111 406 412 117 100 100 100
4 135 136 456 455 100 100 100
4 74 341 343 75 100 100 100
5 2 84 88 354 358 100 100 100
4 53 295 290 47 100 100 100
4 12 58 60 13 100 100 100
4 122 440 444 125 100 100 100
4 101 394 397 105 100 100 100
4 25 365 368 27 100 100 100
3 1 188 184 100 100 100
4 183 279 277 180 100 100 100
4 18 19 211 202 100 100 100
4 241 315 322 247 100 100 100
4 219 222 420 417 100 100 100
3 5 268 269 100 100 100
4 210 386 380 204 100 100 100
4 228 433 435 232 100 100 100
4 40 332 329 37 100 100 100
4 21 278 287 23 100 100 100
3 6 144 142 100 100 100
4 220 418 422 225 100 100 100
4 126 445 439 121 100 100 100
6 45 133 129 448 453 432 100 100 100
4 114 409 407 112 100 100 100
4 139 459 457 137 100 100 100
3 20 102 108 100 100 100
4 123 131 450 441 100 100 100
4 87 92 360 353 100 100 100
4 50 292 296 54 100 100 100
4 48 291 294 52 100 100 100
5 208 384 379 30 213 100 100 100
5 15 77 73 340 336 100 100 100
6 261 264 71 338 349 327 100 100 100
5 245 319 324 311 246 100 100 100
4 63 306 303 61 100 100 100
4 89 91 357 355 100 100 100
4 116 119 414 411 100 100 100
3 17 100 106 100 100 100
5 8 203 205 381 383 100 100 100
4 34 374 366 26 100 100 100
3 11 284 280 100 100 100
5 12 309 308 65 58 100 100 100
4 28 369 372 32 100 100 100
4 181 193 476 468 100 100 100
4 218 428 434 229 100 100 100
5 242 249 43 321 316 100 100 100
4 219 417 425 230 100 100 100
6 7 95 85 3 359 351 100 100 100
4 39 331 333 41 100 100 100
6 10 178 182 0 472 477 100 100 100
5 187 471 469 9 190 100 100 100
5 14 22 24 288 282 100 100 100
4 243 317 314 240 100 100 100
4 220 226 424 418 100 100 100
4 76 344 346 80 100 100 100
4 47 290 291 48 100 100 100
4 212 387 385 209 100 100 100
4 221 419 420 222 100 100 100
5 35 262 261 327 326 100 100 100
4 66 312 302 59 100 100 100
4 15 336 342 16 100 100 100
4 98 392 396 104 100 100 100
4 223 224 430 429 100 100 100
4 179 180 277 276 100 100 100
4 26 366 365 25 100 100 100
4 111 112 407 406 100 100 100
4 135 455 461 143 100 100 100
4 137 457 456 136 100 100 100
4 113 408 409 114 100 100 100
3 7 351 362 100 100 100
4 145 462 465 147 100 100 100
4 138 458 459 139 100 100 100
4 233 436 430 224 100 100 100
5 254 367 370 93 256 100 100 100
4 37 329 328 36 100 100 100
5 13 60 61 303 310 100 100 100
5 17 398 393 99 100 100 100 100
6 49 304 313 299 292 50 100 100 100
4 2 3 85 84 100 100 100
7 140 271 268 5 474 480 460 100 100 100
4 45 432 431 44 100 100 100
4 70 337 338 71 100 100 100
5 201 377 388 18 202 100 100 100
5 181 468 475 270 274 100 100 100
5 101 102 20 400 394 100 100 100
4 121 439 447 128 100 100 100
7 21 46 57 56 298 300 278 100 100 100
4 87 353 352 86 100 100 100
4 122 123 441 440 100 100 100
6 141 442 451 132 161 163 100 100 100
5 231 426 421 4 227 100 100 100
3 0 182 189 100 100 100
4 183 185 281 279 100 100 100
4 51 52 294 293 100 100 100
4 242 316 315 241 100 100 100
4 103 395 399 107 100 100 100
6 1 184 191 9 469 473 100 100 100
4 124 443 449 130 100 100 100
4 62 305 306 63 100 100 100
4 243 248 323 317 100 100 100
4 27 368 369 28 100 100 100
4 72 339 340 73 100 100 100
5 185 195 11 280 281 100 100 100
4 53 54 296 295 100 100 100
5 6 142 143 461 463 100 100 100
4 89 355 354 88 100 100 100
4 125 444 445 126 100 100 100
4 115 116 411 410 100 100 100
4 244 318 319 245 100 100 100
3 14 282 286 100 100 100
4 90 356 357 91 100 100 100
4 186 470 471 187 100 100 100
4 117 412 415 120 100 100 100
4 65 308 307 64 100 100 100
7 225 422 427 413 118 173 238 100 100 100
5 16 342 341 74 78 100 100 100
4 29 30 379 378 100 100 100
6 0 189 188 1 473 472 100 100 100
4 104 396 401 109 100 100 100
4 2 358 359 3 100 100 100
5 93 370 375 360 92 100 100 100
3 8 207 203 100 100 100
5 4 423 424 226 227 100 100 100
5 5 269 270 475 474 100 100 100
4 75 343 344 76 100 100 100
4 204 380 381 205 100 100 100
4 38 330 331 39 100 100 100
5 6 463 462 145 144 100 100 100
4 31 32 372 371 100 100 100
5 7 362 361 94 95 100 100 100
5 8 383 382 206 207 100 100 100
4 208 209 385 384 100 100 100
3 9 191 190 100 100 100
5 10 477 476 193 192 100 100 100
5 11 195 194 283 284 100 100 100
4 12 13 310 309 100 100 100
6 14 286 285 196 197 22 100 100 100
4 229 434 433 228 100 100 100
4 55 297 298 56 100 100 100
4 40 41 333 332 100 100 100
5 246 311 312 66 250 100 100 100
4 23 287 288 24 100 100 100
4 15 16 78 77 100 100 100
5 17 106 105 397 398 100 100 100
6 210 216 107 399 404 386 100 100 100
4 230 425 426 231 100 100 100
4 127 128 447 446 100 100 100
4 33 373 374 34 100 100 100
4 130 449 448 129 100 100 100
4 146 147 465 464 100 100 100
4 42 320 321 43 100 100 100
5 19 389 387 212 211 100 100 100
4 79 80 346 345 100 100 100
4 18 388 389 19 100 100 100
5 20 108 109 401 400 100 100 100
4 232 435 436 233 100 100 100
4 119 120 415 414 100 100 100
4 132 451 450 131 100 100 100
4 247 322 323 248 100 100 100
4 263 68 82 265 100 100 100
7 24 22 197 198 46 21 23 100 100 100
13 213 30 29 33 34 26 25 27 28 32 31 255 259 100 100 100
12 262 35 38 39 41 40 37 36 42 43 249 266 100 100 100
6 133 45 44 234 236 134 100 100 100
8 483 484 289 301 299 313 487 485 100 100 100
8 364 494 492 490 491 348 347 363 100 100 100
7 496 497 403 402 416 500 498 100 100 100
6 467 507 509 505 452 466 100 100 100
