ply
format ascii 1.0
comment converted from made-by-Polyhedron_join_facets_2
element vertex 34
property float x
property float y
property float z
element face 19
property list uchar uint vertex_indices
property uchar red
property uchar green
property uchar blue
end_header
215 2121 -5396
409 2104 -5385
657 2076 -5359
778 2060 -5344
-50 2138 -5399
-252 2146 -5394
-285 2147 -5392
-370 2148 -5386
1064 2015 -5292
942 2037 -5318
1185 1991 -5263
1189 1990 -5262
1419 1864 -5067
641 1626 -4582
-18 1518 -4334
-66 1530 -4350
-286 2147 -5393
-369 2148 -5387
941 2037 -5329
1285 1970 -5248
1475 1869 -5093
637 1618 -4575
-18 1516 -4332
214 2121 -5400
412 2104 -5391
650 2077 -5368
-461 2148 -5378
777 2061 -5353
-50 2138 -5402
-251 2146 -5395
1066 2015 -5303
1184 1991 -5275
-134 1546 -4371
-319 1657 -4544
18 26 33 32 22 21 20 19 31 30 18 27 25 24 23 28 29 16 17 -1 0 0
18 26 33 15 14 13 12 11 10 8 9 3 2 1 0 4 5 6 7 100 0 0
3 33 32 15 100 0 0
4 22 21 13 14 100 0 0
4 21 20 12 13 100 0 0
4 32 22 14 15 100 0 0
4 23 28 4 0 100 0 0
4 31 30 8 10 100 0 0
4 25 24 1 2 100 0 0
4 29 16 6 5 100 0 0
4 24 23 0 1 100 0 0
4 27 25 2 3 100 0 0
3 17 26 7 100 0 0
4 18 27 3 9 100 0 0
4 28 29 5 4 100 0 0
4 16 17 7 6 100 0 0
4 30 18 9 8 100 0 0
4 19 31 10 11 100 0 0
4 20 19 11 12 100 0 0
