ply
format ascii 1.0
comment converted from made-by-Polyhedron_join_facets_2
element vertex 510
property float x
property float y
property float z
element face 257
property list uchar uint vertex_indices
property uchar red
property uchar green
property uchar blue
end_header
-722 2146 -5410
-541 2150 -5411
2014 -2482 -5208
2081 -2445 -5407
-2921 -1141 -5224
-1540 2069 -5463
-2221 1807 -5392
2095 -2433 -5267
-317 2149 -5439
-861 2139 -5371
940 2038 -5378
2466 1272 -5424
2514 1194 -5266
1308 1967 -5323
2353 -2149 -5366
2368 -2127 -5219
-2110 -2524 -5296
-897 -2782 -5361
-2313 -2409 -5236
1491 1916 -5196
1315 1964 -5244
1450 1928 -5211
1319 1963 -5243
2668 -1346 -5169
2760 -473 -5286
2749 -662 -5276
2684 -1248 -5191
2707 -1084 -5223
2734 -857 -5258
2730 -903 -5253
2763 -323 -5286
2763 -172 -5280
-2815 778 -5095
-2783 906 -5072
1602 1879 -5152
2056 1669 -5235
1945 1730 -5221
2289 1488 -5233
2236 1538 -5239
1753 1821 -5188
1825 1788 -5201
2116 1630 -5240
2173 1589 -5241
1702 1843 -5177
1631 1870 -5160
1607 1877 -5154
2450 1293 -5238
2644 885 -5195
2515 1192 -5238
2550 1129 -5234
2606 998 -5217
2576 1073 -5228
2353 1420 -5228
2390 1375 -5233
2667 805 -5177
391 -339 -3260
2361 -878 -4746
313 -385 -3198
2579 -1720 -5155
2614 -1602 -5129
2230 -2293 -5171
2317 -2191 -5184
2423 -2039 -5188
2454 -1987 -5186
2495 -1915 -5182
2337 -2167 -5186
2368 -2125 -5189
2544 -1822 -5175
2536 -1839 -5177
263 -380 -3162
2611 -1528 -5097
270 -381 -3167
2011 -2483 -5171
2086 -2438 -5173
1654 -2650 -5128
1551 -2679 -5103
1923 -2531 -5164
1817 -2582 -5153
1677 -2642 -5133
1750 -2612 -5144
1463 -2699 -5080
1414 -2709 -5065
2145 -2383 -5163
2097 -2430 -5173
-123 -721 -3146
-120 -752 -3169
-2440 -2294 -5121
-2015 -2553 -5082
-2105 -2519 -5102
-2259 -2444 -5128
-2303 -2412 -5129
-1911 -2586 -5054
-2420 -2312 -5122
-2212 -2470 -5122
-2197 -2477 -5119
-2325 -2395 -5128
-2354 -2371 -5127
-129 -725 -3150
-2709 -1945 -5141
-2741 -1878 -5134
-2813 -1682 -5101
-2777 -1788 -5121
-2539 -2195 -5137
-2577 -2154 -5143
-2646 -2056 -5146
-2832 -1613 -5085
-2600 -2126 -5147
-2611 -2113 -5148
-2646 1294 -5156
-2544 1479 -5175
-2487 1550 -5172
-2727 1096 -5118
-2560 1457 -5175
-2595 1392 -5168
-2695 1181 -5136
-2661 1260 -5150
-2766 969 -5087
-2746 1040 -5106
-2485 1552 -5172
-2418 1625 -5164
-2781 912 -5071
-2780 909 -5069
-2060 1901 -5181
-2026 1918 -5177
-1925 1959 -5161
-1747 2016 -5123
-1827 1994 -5142
-1697 2027 -5109
-2380 1665 -5164
-2184 1825 -5184
-2115 1870 -5184
-2235 1789 -5182
-2261 1770 -5181
-2339 1702 -5171
-2275 1758 -5179
2328 1446 -5225
2340 1434 -5225
258 -380 -3159
2174 -2353 -5160
2152 -2376 -5161
-123 -719 -3144
-124 -717 -3143
-93 -368 -2975
258 -380 -3159
-2440 -2293 -5120
-2468 -2266 -5121
-117 -390 -2975
-124 -716 -3142
-2404 1640 -5161
-519 -350 -3168
-2384 1660 -5163
-116 -345 -2975
-108 -6 -3155
-140 -366 -2975
-495 -357 -3153
-105 28 -3179
-108 9 -3165
-120 21 -3176
-85 614 -3630
-211 368 -3453
-109 2 -3160
-117 15 -3171
-2842 -1572 -5074
-574 -358 -3205
-534 -354 -3177
-511 -355 -3162
-515 -354 -3164
-848 2139 -5325
215 2121 -5396
409 2104 -5385
-1182 2110 -5244
-796 2141 -5334
657 2076 -5359
-475 2149 -5377
778 2060 -5344
-50 2138 -5399
-252 2146 -5394
-572 2148 -5367
-670 2146 -5354
-285 2147 -5392
-370 2148 -5386
-893 2135 -5315
-1130 2115 -5257
1064 2015 -5292
942 2037 -5318
1185 1991 -5263
1189 1990 -5262
1419 1864 -5067
641 1626 -4582
-18 1518 -4334
-158 -2246 -4317
-776 -2333 -4496
-2847 611 -5126
-2947 -685 -5236
-2886 -1390 -5135
-2950 -292 -5248
-2951 -488 -5246
-2941 -121 -5240
-2938 -86 -5237
-2846 -1557 -5077
-2905 -1274 -5164
-2918 -1144 -5186
-2903 257 -5195
-2885 378 -5173
-2938 -897 -5219
-2934 -969 -5211
-2908 208 -5202
-2925 60 -5221
-2827 715 -5100
-2448 -339 -4552
-2762 764 -5011
-2544 231 -4698
-2844 -1564 -5074
-2586 -957 -4730
2725 454 -5227
2755 107 -5267
2762 -78 -5277
2739 323 -5245
2711 559 -5208
2689 695 -5178
2680 744 -5166
2752 169 -5263
2744 266 -5252
2763 -135 -5278
2678 753 -5163
2677 751 -5161
2378 54 -4757
2284 -406 -4630
1344 -2709 -5036
463 -2383 -4527
-68 -2267 -4348
2635 -1518 -5128
2658 -1399 -5155
2340 -702 -4708
2626 -1555 -5117
2618 -1541 -5106
2672 -801 -5155
2326 -612 -4686
-1569 2054 -5124
-1340 2091 -5201
-1329 2093 -5204
-1641 2038 -5093
-1581 2010 -5050
-753 1687 -4565
-1215 2106 -5234
-66 1530 -4350
198 2125 -5529
485 2100 -5510
1451 1933 -5530
538 2094 -5508
844 2054 -5502
766 2065 -5502
1312 1969 -5516
1094 2013 -5504
966 2036 -5501
1161 2001 -5507
1197 1993 -5509
1437 1938 -5528
1411 1944 -5525
1330 1562 -5920
2062 1667 -5471
1931 1739 -5480
2234 1540 -5482
1730 1834 -5508
1872 1768 -5487
2110 1636 -5470
2167 1595 -5474
1650 1867 -5522
1621 1878 -5528
2264 1513 -5489
1547 1902 -5546
1331 1562 -5919
2650 871 -5488
2548 1135 -5446
2295 1483 -5481
2603 1008 -5461
2579 1069 -5452
2356 1418 -5464
2392 1374 -5456
2466 1272 -5446
2519 1187 -5444
2672 787 -5509
2666 817 -5501
2272 1505 -5489
2730 435 -5499
2757 78 -5507
2763 -74 -5516
2733 403 -5499
2717 529 -5501
2695 669 -5509
2764 -299 -5536
2764 -181 -5525
2751 197 -5502
2750 204 -5502
2677 764 -5516
2238 578 -5939
2666 -1361 -5505
2636 -1519 -5511
2760 -473 -5538
2749 -683 -5520
2688 -1224 -5503
2705 -1103 -5504
2746 -711 -5518
2729 -911 -5507
2762 -391 -5547
2759 -391 -5550
2352 -2152 -5428
2585 -1704 -5481
2613 -1611 -5509
2243 -2283 -5444
2288 -2229 -5436
2428 -2035 -5430
2382 -2106 -5428
2434 -2024 -5430
2511 -1888 -5441
2542 -1828 -5449
2526 -1861 -5444
2171 -2359 -5459
2245 -1454 -5879
2620 -1584 -5517
2261 -1452 -5868
2086 -2442 -5425
1616 -2669 -5429
1563 -2684 -5439
1911 -2541 -5414
1829 -2581 -5414
1666 -2652 -5423
1749 -2617 -5417
1984 -2502 -5417
2082 -2445 -5424
1463 -2709 -5460
2142 -2390 -5446
2115 -2416 -5435
2168 -2362 -5459
1305 -2319 -5868
634 -2802 -5446
520 -2806 -5449
1310 -2739 -5464
797 -2793 -5445
1024 -2775 -5448
1354 -2732 -5469
1196 -2756 -5455
1089 -2769 -5450
25 -2817 -5470
245 -2813 -5460
1401 -2722 -5475
1297 -2339 -5853
-1115 -2760 -5424
-231 -2817 -5477
-433 -2813 -5456
-1619 -2675 -5445
-1594 -2681 -5443
-1261 -2739 -5427
-1394 -2718 -5431
-495 -2811 -5450
-552 -2808 -5446
-1662 -2665 -5450
-738 -2796 -5435
-1018 -2772 -5424
-894 -2784 -5428
-178 -2817 -5483
-178 -2813 -5487
-2465 -2284 -5429
-2025 -2562 -5413
-2268 -2448 -5390
-1929 -2593 -5432
-2388 -2355 -5409
-2215 -2477 -5392
-2106 -2529 -5401
-1851 -2616 -5451
-2319 -2411 -5396
-2375 -2365 -5406
-2488 -2262 -5436
-1613 -2250 -5852
-1792 -2632 -5466
-1610 -2262 -5844
-2713 -1967 -5385
-2760 -1870 -5388
-2828 -1698 -5407
-2800 -1776 -5396
-2530 -2219 -5425
-2593 -2149 -5404
-2667 -2047 -5387
-2850 -1624 -5421
-2623 -2113 -5395
-2645 -2084 -5390
-2499 -2251 -5436
-2958 -706 -5426
-2899 -1410 -5408
-2963 -301 -5464
-2963 -461 -5447
-2942 -1015 -5409
-2873 -1531 -5420
-2923 -1236 -5404
-2919 -1274 -5403
-2951 -864 -5416
-2944 -987 -5410
-2858 -1594 -5428
-2870 588 -5448
-2959 -189 -5477
-2946 -16 -5464
-2835 779 -5453
-2817 857 -5459
-2915 278 -5451
-2901 382 -5449
-2929 156 -5455
-2939 59 -5460
-2959 -202 -5479
-2953 -203 -5485
-2656 1303 -5420
-2557 1477 -5418
-2518 1527 -5427
-2395 1663 -5464
-2742 1102 -5445
-2576 1450 -5415
-2618 1376 -5416
-2707 1190 -5432
-2682 1246 -5425
-2776 1007 -5463
-2770 1025 -5459
-2442 1613 -5448
-2441 1615 -5449
-2333 1720 -5488
-2786 971 -5472
-2392 849 -5863
-2071 1901 -5442
-2019 1928 -5440
-1923 1967 -5445
-1723 2030 -5474
-1843 1996 -5454
-1669 2043 -5485
-2131 1868 -5447
-2275 1769 -5473
-2222 1808 -5461
-2326 1727 -5488
-2314 1737 -5485
-2326 1727 -5489
-1470 1632 -5930
-1275 2106 -5476
-326 2150 -5511
-48 2141 -5543
-212 2147 -5524
-720 2147 -5482
-537 2152 -5492
-1540 2070 -5490
-1315 2102 -5477
-1064 2126 -5474
-874 2141 -5475
-16 2139 -5548
-16 2135 -5552
-1610 2056 -5498
-1469 1635 -5928
-67 1179 -6213
1475 803 -6211
1328 1557 -5923
1499 778 -6211
1812 -341 -6210
2212 598 -5950
2230 579 -5945
1810 -416 -6210
1412 -1537 -6211
2238 -1451 -5884
1403 -1546 -6211
-13 -1788 -6213
1302 -2311 -5873
-130 -1784 -6213
-1605 -1480 -6215
-1603 -2232 -5865
-1612 -1473 -6215
-1908 -254 -6216
-2416 -1394 -5875
-2418 -1389 -5874
-2418 -1392 -5874
-1908 -247 -6216
-2386 851 -5867
-2373 865 -5872
-149 1182 -6213
-1465 1620 -5937
-1597 896 -6215
-1598 898 -6214
-1379 -2715 -5236
-930 -2778 -5324
-993 -2772 -5317
-872 -2783 -5330
653 -2795 -5248
446 -2805 -5279
829 -2785 -5215
970 -2773 -5183
-235 -2814 -5345
-374 -2812 -5350
1180 -2750 -5124
1092 -2761 -5151
37 -2814 -5325
220 -2810 -5306
1365 -2718 -5050
-1876 -2596 -5044
-1840 -2606 -5062
-1750 -2559 -4965
-1139 -2752 -5290
-1630 -2663 -5155
-1556 -2680 -5181
-1286 -2730 -5259
-499 -2808 -5352
-574 -2805 -5350
-1707 -2643 -5122
-730 -2795 -5342
-1097 -2422 -4661
1300 -2730 -5079
1351 -2712 -5041
442 -2538 -4775
25 183 184 174 172 169 168 175 176 179 180 173 177 178 171 167 181 182 170 244 245 189 188 187 186 185 100 100 100
22 209 211 210 208 192 203 202 206 207 198 197 195 196 193 204 205 201 200 194 199 212 213 100 100 100
16 215 221 222 217 214 218 219 220 224 225 226 227 237 236 223 216 100 100 100
7 142 143 137 136 135 152 151 100 100 100
8 142 146 147 141 140 139 138 143 100 100 100
6 146 153 154 145 144 147 100 100 100
11 152 160 161 150 148 149 166 165 154 153 151 100 100 100
8 452 476 477 437 451 449 259 454 100 100 100
8 456 458 295 305 320 318 461 459 100 100 100
9 463 464 334 346 361 375 373 467 465 100 100 100
6 408 424 474 473 469 471 100 100 100
7 233 235 234 231 232 236 237 100 100 100
8 238 241 242 243 245 244 240 239 100 100 100
4 155 188 189 158 100 100 100
6 34 187 188 155 156 45 100 100 100
15 43 44 45 156 160 152 135 37 38 42 41 35 36 40 39 100 100 100
15 55 225 224 54 47 50 51 49 48 46 53 52 136 137 69 100 100 100
3 55 226 225 100 100 100
6 55 69 71 57 227 226 100 100 100
5 56 233 237 227 57 100 100 100
4 56 57 71 70 100 100 100
19 59 234 235 70 71 69 137 143 138 60 61 65 66 62 63 64 68 67 58 100 100 100
4 84 85 229 228 100 100 100
4 85 190 230 229 100 100 100
7 84 140 141 97 191 190 85 100 100 100
14 100 101 99 98 104 107 106 103 102 145 154 165 162 105 100 100 100
3 163 209 213 100 100 100
4 163 164 211 209 100 100 100
6 121 210 211 164 166 149 100 100 100
16 116 120 121 149 148 119 118 110 109 112 113 108 115 114 111 117 100 100 100
18 157 242 241 127 125 126 124 123 122 130 129 131 132 134 133 128 150 161 100 100 100
4 157 159 243 242 100 100 100
5 158 189 245 243 159 100 100 100
7 162 165 166 164 163 213 212 100 100 100
18 253 255 256 252 258 257 248 270 271 259 449 448 246 247 249 251 250 254 100 100 100
12 260 265 266 262 269 271 270 268 267 263 264 261 100 100 100
16 295 458 457 283 274 277 278 279 280 273 276 275 272 282 281 294 100 100 100
14 284 287 293 292 285 286 291 290 304 305 295 294 289 288 100 100 100
12 298 299 302 303 301 300 296 297 319 320 305 304 100 100 100
15 315 316 314 313 311 312 306 310 309 317 318 320 319 308 307 100 100 100
16 331 332 321 329 328 324 325 327 326 322 323 330 345 346 334 333 100 100 100
14 337 341 342 339 338 335 336 344 343 360 361 346 345 340 100 100 100
17 355 357 359 358 347 352 353 351 350 356 374 375 361 360 348 349 354 100 100 100
14 373 375 374 369 365 363 368 367 364 370 371 366 362 372 100 100 100
14 380 381 384 385 382 376 377 379 378 383 397 472 470 386 100 100 100
15 387 390 389 407 408 471 472 397 392 388 394 393 391 396 395 100 100 100
13 399 400 406 405 403 404 398 401 402 423 424 408 407 100 100 100
18 413 416 417 409 415 414 410 411 420 421 412 422 475 474 424 423 418 419 100 100 100
15 434 435 432 433 431 425 426 427 429 428 430 450 451 437 436 100 100 100
14 438 446 447 442 443 439 441 440 448 449 451 450 444 445 100 100 100
3 452 454 453 100 100 100
4 457 458 456 455 100 100 100
3 459 461 460 100 100 100
3 462 464 463 100 100 100
3 465 467 466 100 100 100
5 468 470 472 471 469 100 100 100
5 474 475 479 478 473 100 100 100
4 478 479 477 476 100 100 100
15 452 453 455 456 459 460 462 463 465 466 468 469 473 478 476 100 100 100
4 142 151 153 146 100 100 100
5 168 246 448 440 175 100 100 100
5 24 298 304 290 30 100 100 100
5 195 197 399 407 389 100 100 100
4 87 363 365 91 100 100 100
4 125 127 430 428 100 100 100
4 100 105 383 378 100 100 100
4 39 263 267 43 100 100 100
6 128 133 434 436 422 412 100 100 100
4 58 67 315 307 100 100 100
4 111 114 416 413 100 100 100
8 60 138 139 82 331 333 317 309 100 100 100
8 86 144 145 102 380 386 372 362 100 100 100
4 74 322 326 78 100 100 100
4 47 272 275 50 100 100 100
6 37 135 136 52 277 274 100 100 100
3 9 181 167 100 100 100
4 185 255 253 183 100 100 100
3 4 391 393 100 100 100
4 214 284 288 218 100 100 100
5 192 208 32 401 398 100 100 100
4 23 296 300 26 100 100 100
4 98 376 382 104 100 100 100
4 122 123 426 425 100 100 100
4 62 311 313 63 100 100 100
5 2 72 76 324 328 100 100 100
4 41 265 260 35 100 100 100
4 11 46 48 12 100 100 100
4 109 410 414 112 100 100 100
4 89 364 367 93 100 100 100
3 1 177 173 100 100 100
4 172 249 247 169 100 100 100
4 215 285 292 221 100 100 100
4 193 196 390 387 100 100 100
3 5 238 239 100 100 100
4 202 403 405 206 100 100 100
4 28 302 299 25 100 100 100
4 19 248 257 21 100 100 100
3 6 131 129 100 100 100
4 194 388 392 199 100 100 100
4 113 415 409 108 100 100 100
6 33 120 116 418 423 402 100 100 100
4 101 379 377 99 100 100 100
4 126 429 427 124 100 100 100
3 18 90 95 100 100 100
4 110 118 420 411 100 100 100
4 75 80 330 323 100 100 100
4 38 262 266 42 100 100 100
4 36 261 264 40 100 100 100
5 14 65 61 310 306 100 100 100
6 231 234 59 308 319 297 100 100 100
5 219 289 294 281 220 100 100 100
4 51 276 273 49 100 100 100
4 77 79 327 325 100 100 100
4 103 106 384 381 100 100 100
3 16 88 94 100 100 100
3 10 254 250 100 100 100
5 11 279 278 53 46 100 100 100
4 170 182 446 438 100 100 100
4 192 398 404 203 100 100 100
5 216 223 31 291 286 100 100 100
4 193 387 395 204 100 100 100
6 7 83 73 3 329 321 100 100 100
4 27 301 303 29 100 100 100
6 9 167 171 0 442 447 100 100 100
5 176 441 439 8 179 100 100 100
5 13 20 22 258 252 100 100 100
4 217 287 284 214 100 100 100
4 194 200 394 388 100 100 100
4 64 314 316 68 100 100 100
4 35 260 261 36 100 100 100
4 195 389 390 196 100 100 100
5 23 232 231 297 296 100 100 100
4 54 282 272 47 100 100 100
4 14 306 312 15 100 100 100
4 86 362 366 92 100 100 100
4 197 198 400 399 100 100 100
4 168 169 247 246 100 100 100
4 98 99 377 376 100 100 100
4 122 425 431 130 100 100 100
4 124 427 426 123 100 100 100
4 100 378 379 101 100 100 100
3 7 321 332 100 100 100
4 132 432 435 134 100 100 100
4 125 428 429 126 100 100 100
4 207 406 400 198 100 100 100
4 25 299 298 24 100 100 100
5 12 48 49 273 280 100 100 100
5 16 368 363 87 88 100 100 100
6 37 274 283 269 262 38 100 100 100
4 2 3 73 72 100 100 100
7 127 241 238 5 444 450 430 100 100 100
4 33 402 401 32 100 100 100
4 58 307 308 59 100 100 100
5 170 438 445 240 244 100 100 100
5 89 90 18 370 364 100 100 100
4 108 409 417 115 100 100 100
7 19 34 45 44 268 270 248 100 100 100
4 75 323 322 74 100 100 100
4 109 110 411 410 100 100 100
6 128 412 421 119 148 150 100 100 100
5 205 396 391 4 201 100 100 100
3 0 171 178 100 100 100
4 172 174 251 249 100 100 100
4 39 40 264 263 100 100 100
4 216 286 285 215 100 100 100
6 1 173 180 8 439 443 100 100 100
4 111 413 419 117 100 100 100
4 50 275 276 51 100 100 100
4 217 222 293 287 100 100 100
4 60 309 310 61 100 100 100
5 174 184 10 250 251 100 100 100
4 41 42 266 265 100 100 100
5 6 129 130 431 433 100 100 100
4 77 325 324 76 100 100 100
4 112 414 415 113 100 100 100
4 102 103 381 380 100 100 100
4 218 288 289 219 100 100 100
3 13 252 256 100 100 100
4 78 326 327 79 100 100 100
4 175 440 441 176 100 100 100
4 104 382 385 107 100 100 100
4 53 278 277 52 100 100 100
7 199 392 397 383 105 162 212 100 100 100
5 15 312 311 62 66 100 100 100
6 0 178 177 1 443 442 100 100 100
4 92 366 371 96 100 100 100
4 2 328 329 3 100 100 100
5 81 340 345 330 80 100 100 100
5 4 393 394 200 201 100 100 100
5 5 239 240 445 444 100 100 100
4 63 313 314 64 100 100 100
4 26 300 301 27 100 100 100
5 6 433 432 132 131 100 100 100
5 7 332 331 82 83 100 100 100
3 8 180 179 100 100 100
5 9 447 446 182 181 100 100 100
5 10 184 183 253 254 100 100 100
4 11 12 280 279 100 100 100
6 13 256 255 185 186 20 100 100 100
4 203 404 403 202 100 100 100
4 43 267 268 44 100 100 100
4 28 29 303 302 100 100 100
5 220 281 282 54 224 100 100 100
4 21 257 258 22 100 100 100
4 14 15 66 65 100 100 100
5 16 94 93 367 368 100 100 100
4 204 395 396 205 100 100 100
4 114 115 417 416 100 100 100
4 117 419 418 116 100 100 100
4 133 134 435 434 100 100 100
4 30 290 291 31 100 100 100
4 67 68 316 315 100 100 100
5 18 95 96 371 370 100 100 100
4 206 405 406 207 100 100 100
4 106 107 385 384 100 100 100
4 119 421 420 118 100 100 100
4 221 292 293 222 100 100 100
4 233 56 70 235 100 100 100
7 159 157 161 160 156 155 158 100 100 100
7 22 20 186 187 34 19 21 100 100 100
12 232 23 26 27 29 28 25 24 30 31 223 236 100 100 100
6 120 33 32 208 210 121 100 100 100
8 453 454 259 271 269 283 457 455 100 100 100
8 334 464 462 460 461 318 317 333 100 100 100
7 466 467 373 372 386 470 468 100 100 100
6 437 477 479 475 422 436 100 100 100
30 506 509 508 494 507 490 491 487 486 484 485 493 492 488 489 502 503 505 483 481 482 498 501 480 500 499 504 496 495 497 -1 0 0
5 506 509 230 190 191 100 0 0
5 509 508 228 229 230 100 0 0
18 508 494 81 80 75 74 78 79 77 76 72 73 83 82 139 140 84 228 100 0 0
4 497 506 191 97 100 0 0
17 495 497 97 141 147 144 86 92 96 95 90 89 93 94 88 87 91 100 0 0
5 492 488 348 360 343 100 0 0
4 498 501 352 347 100 0 0
4 507 490 341 337 100 0 0
4 486 484 335 338 100 0 0
3 483 481 17 100 0 0
4 499 504 356 350 100 0 0
4 489 502 354 349 100 0 0
4 480 500 351 353 100 0 0
4 485 493 344 336 100 0 0
4 491 487 339 342 100 0 0
4 503 505 357 355 100 0 0
4 484 485 336 335 100 0 0
5 494 507 337 340 81 100 0 0
4 482 498 347 358 100 0 0
5 496 495 91 365 369 100 0 0
4 487 486 338 339 100 0 0
4 488 489 349 348 100 0 0
4 500 499 350 351 100 0 0
4 490 491 342 341 100 0 0
4 501 480 353 352 100 0 0
4 502 503 355 354 100 0 0
5 504 496 369 374 356 100 0 0
4 493 492 343 344 100 0 0
5 505 483 17 359 357 100 0 0
5 481 482 358 359 17 100 0 0
