ply
format ascii 1.0
comment converted from made-by-Polyhedron_join_facets_2
element vertex 296
property float x
property float y
property float z
element face 150
property list uchar uint vertex_indices
property uchar red
property uchar green
property uchar blue
end_header
-1207 1265 -970
-1191 1276 -970
-1204 1269 -969
-1206 1267 -969
-1177 1282 -935
-1082 1340 -869
-1055 1357 -869
-1092 1330 -863
-984 1385 -836
-871 1459 -836
-834 1478 -812
-774 1509 -769
-902 1413 -717
-572 1630 -717
-819 1490 -681
-726 1551 -681
-827 1485 -672
-729 1552 -625
-711 1563 -625
-724 1553 -617
-600 1624 -565
-618 1605 -531
-482 1695 -531
-576 1639 -514
-592 1637 -487
-588 1640 -486
-576 1648 -486
-537 1614 -357
-504 1636 -357
-485 1662 -387
-478 1675 -406
-461 1712 -461
-660 1470 -294
-659 1468 -291
-482 1585 -291
-486 1601 -311
-656 1471 -288
-574 1527 -260
-531 1555 -260
-490 1580 -285
-578 1502 -221
-552 1513 -210
2238 1424 -1180
2233 1428 -1180
2235 1427 -1180
2244 1418 -1183
2238 1408 -1209
2197 1401 -1278
2071 1495 -1278
2125 1474 -1244
2189 1440 -1218
2223 1434 -1184
2161 1443 -1333
2264 1315 -1020
1698 1518 -1020
1986 1399 -980
2235 1305 -970
2268 1375 -1102
2262 1393 -1123
2210 1417 -1131
1942 1538 -1163
1614 1656 -1163
1391 1727 -1218
1567 1673 -1165
2086 1485 -1171
1964 1547 -1281
1796 1604 -1273
-1094 1262 -810
-1092 1258 -805
-1084 1269 -805
-984 1273 -662
-828 1481 -662
-839 1475 -672
-1052 1278 -769
-945 1321 -627
-840 1460 -627
-905 1336 -578
-818 1452 -578
-831 1465 -617
-860 1403 -542
-853 1412 -542
-839 1426 -565
-803 1429 -475
-779 1461 -475
-780 1476 -498
-818 1438 -514
-751 1407 -394
-665 1521 -394
-762 1477 -469
-706 1459 -353
-697 1472 -355
-1118 1308 -863
-1096 1262 -812
-1104 1278 -830
-779 1478 -497
307 2039 -1165
288 2044 -1165
289 2044 -1165
406 2016 -1167
550 1980 -1175
929 1868 -1235
252 2022 -1235
255 2025 -1227
580 1970 -1281
316 2037 -1295
253 2023 -1237
111 -1105 -3080
24 -1085 -3079
-605 -922 -3079
-1078 -793 -3078
-1109 -722 -3078
-1120 -670 -3078
-1027 -367 -3079
-604 938 -3080
-576 1020 -3080
-405 1020 -3080
-274 990 -3080
-202 969 -3080
559 735 -3081
583 718 -3081
585 691 -3081
178 -860 -3080
-399 1262 91
-379 1217 140
-298 1050 321
-402 1347 -11
1658 -1198 -1108
1820 -643 -1087
2000 -31 -1054
1638 -1270 -1095
-1729 869 -1530
-1728 874 -1529
-1727 877 -1529
-1710 929 -1529
-1696 939 -1583
-1752 754 -1599
-1842 501 -1559
586 1968 -1281
1011 1844 -1273
2153 1445 -1345
2146 1439 -1357
1884 1320 -1646
-2053 -231 -1557
-2215 -968 -1500
-2217 -1222 -1407
2030 71 -1050
294 -1392 -2751
670 -1984 -2072
2147 1417 -1357
2179 1388 -1308
2292 1021 -1045
-1691 958 -1542
-362 1757 -556
-764 1360 -2640
-785 1348 -2647
-798 1342 -2631
-1688 958 -1561
-1394 -1721 -1685
1439 760 39
1716 921 -271
1418 1718 -1165
-2085 -1422 -1848
-2051 -1389 -1904
-1820 -1219 -2220
-1187 -844 -2969
-1113 -810 -3043
-2133 -1477 -1756
-633 1149 -2929
-606 1078 -3012
-742 1297 -2728
-2086 -562 -1734
-2078 -518 -1727
-1861 365 -1634
-1773 662 -1624
-1675 924 -1641
-2100 -379 -1575
-2096 -366 -1576
-2203 -1106 -1802
-2221 -1114 -1761
-2201 -818 -1611
-2158 -604 -1577
847 1893 -1175
-1154 -1753 -1744
-1791 -1622 -1680
-2036 -1559 -1680
-471 1385 -50
-470 1382 -47
-2060 -1553 -1680
-2084 -1531 -1648
-2227 -1468 -1604
-2183 -1505 -1658
-2118 -1536 -1682
-291 1032 340
2278 1161 -933
2271 1134 -933
2259 875 -1025
2308 1056 -1027
2308 1057 -1027
2285 1155 -947
-423 1626 -360
269 2039 -1151
-621 1439 -2571
-631 1361 -2682
-652 1420 -2607
-2234 -1463 -1598
-2046 -1275 -1244
-2242 -1436 -1564
-2239 -1458 -1595
-1978 43 -1576
2251 1209 -880
2194 1191 -811
1047 521 476
-411 1384 -56
-1701 946 -1523
-362 975 313
-431 1154 146
-547 1377 -101
-608 1478 -225
-665 1469 -300
-176 522 745
227 1994 -1396
-484 1615 -328
-2095 -1268 -1904
-2215 -1484 -1659
-2231 -1472 -1645
-2265 -1438 -1619
-2285 -1391 -1615
-2277 -1338 -1648
-2275 -1331 -1653
-2193 -1163 -1829
2286 1163 -950
2305 1138 -1017
2275 1353 -1083
2265 1228 -913
-2286 -1388 -1580
-2285 -1389 -1577
-2270 -1316 -1506
-2266 -1228 -1547
-2023 -1092 -2038
-1838 -1214 -2203
2249 1415 -1165
-2223 -1251 -1407
-2233 -1259 -1424
-2266 -1304 -1493
-2278 -1406 -1581
-2244 -1434 -1564
-2132 -1265 -1316
-2151 -1236 -1316
2307 1057 -1030
2240 1370 -1209
-2244 -1057 -1587
-2208 -834 -1587
2236 1237 -886
2258 1223 -898
227 1996 -1381
-731 1378 -2630
-666 1412 -2612
-759 1322 -2694
-2265 -1438 -1608
-2249 -1454 -1605
-510 1461 -138
-2204 -1493 -1666
-2162 -1509 -1701
-1930 -1177 -1052
-2188 -1148 -1839
-2253 -1235 -1474
-2257 -1150 -1547
-2235 -1022 -1520
-2228 -973 -1524
-2199 -782 -1567
-1687 950 -1594
-1665 955 -1641
682 -2128 -1882
-40 580 825
35 569 817
1596 -1411 -1112
1599 -1403 -1104
1598 -1392 -1092
-267 429 661
-1760 -1001 -858
-227 467 701
1012 28 317
937 -1997 -1736
743 -2138 -1888
898 -2030 -1772
-376 -1949 -1751
-1255 -1581 -1421
-727 -1884 -1702
545 475 746
841 418 703
-43 579 824
-156 523 761
853 406 691
-174 514 751
-1915 -1156 -1023
-1919 -1169 -1036
4 3 0 1 2 100 100 100
5 6 1 0 4 5 100 100 100
5 9 6 5 7 8 100 100 100
6 13 9 8 10 11 12 100 100 100
4 15 13 12 14 100 100 100
5 18 15 14 16 17 100 100 100
6 22 18 17 19 20 21 100 100 100
6 26 22 21 23 24 25 100 100 100
7 31 26 25 27 28 29 30 100 100 100
6 35 28 27 32 33 34 100 100 100
6 39 34 33 36 37 38 100 100 100
4 38 37 40 41 100 100 100
3 44 42 43 100 100 100
9 51 43 42 45 46 47 48 49 50 100 100 100
3 48 47 52 100 100 100
4 56 53 54 55 100 100 100
7 61 54 53 57 58 59 60 100 100 100
7 51 50 62 63 61 60 64 100 100 100
5 50 49 65 66 62 100 100 100
3 69 67 68 100 100 100
6 73 69 68 70 71 72 100 100 100
4 75 71 70 74 100 100 100
5 78 75 74 76 77 100 100 100
5 81 77 76 79 80 100 100 100
6 85 80 79 82 83 84 100 100 100
5 88 83 82 86 87 100 100 100
4 87 86 89 90 100 100 100
4 7 5 4 91 100 100 100
6 92 10 8 7 91 93 100 100 100
6 73 11 10 92 67 69 100 100 100
6 72 16 14 12 11 73 100 100 100
7 78 19 17 16 72 71 75 100 100 100
5 81 20 19 78 77 100 100 100
6 85 23 21 20 81 80 100 100 100
5 85 84 94 24 23 100 100 100
3 97 95 96 100 100 100
7 102 96 95 98 99 100 101 100 100 100
5 105 101 100 103 104 100 100 100
16 106 107 108 109 110 111 112 113 114 115 116 117 118 119 120 121 100 100 100
7 130 131 132 133 134 135 136 100 100 100
9 137 138 66 65 139 140 141 118 117 100 100 100
7 120 148 149 150 127 126 121 100 100 100
16 1 6 9 13 15 18 22 26 31 152 153 154 155 156 151 2 100 100 100
6 161 162 163 164 165 166 100 100 100
3 167 168 169 100 100 100
7 112 170 171 172 173 174 113 100 100 100
8 175 176 171 170 177 178 179 180 100 100 100
6 99 181 138 137 103 100 100 100 100
4 122 185 186 123 100 100 100
5 187 188 189 190 191 100 100 100
6 193 194 195 196 197 198 100 100 100
8 95 97 200 152 31 30 199 98 100 100 100
6 62 66 138 181 160 63 100 100 100
5 115 202 203 201 116 100 100 100
4 204 205 206 207 100 100 100
4 171 176 208 172 100 100 100
7 193 209 210 159 158 211 194 100 100 100
8 0 3 213 133 132 93 91 4 100 100 100
6 130 136 208 176 175 142 100 100 100
4 183 188 187 184 100 100 100
7 116 201 220 104 103 137 117 100 100 100
5 29 221 212 199 30 100 100 100
10 161 223 224 225 226 227 228 229 222 162 100 100 100
4 230 231 232 233 100 100 100
9 87 90 218 32 27 25 24 94 88 100 100 100
4 217 40 37 36 100 100 100
4 234 235 236 237 100 100 100
6 110 164 163 239 238 111 100 100 100
4 42 44 240 45 100 100 100
9 241 242 243 236 235 244 245 246 247 100 100 100
7 58 240 44 43 51 64 59 100 100 100
11 196 248 249 46 45 240 58 57 232 231 197 100 100 100
5 48 52 139 65 49 100 100 100
6 250 251 179 178 228 227 100 100 100
5 114 168 167 202 115 100 100 100
7 252 253 233 232 57 53 56 100 100 100
8 46 249 149 148 140 139 52 47 100 100 100
4 220 254 105 104 100 100 100
4 97 96 102 200 100 100 100
5 153 255 256 257 154 100 100 100
4 224 259 258 225 100 100 100
4 38 41 260 39 100 100 100
4 29 28 35 221 100 100 100
4 261 262 191 190 100 100 100
7 185 260 41 40 217 216 186 100 100 100
6 225 258 244 235 234 226 100 100 100
5 177 264 229 228 178 100 100 100
3 242 265 243 100 100 100
4 162 222 239 163 100 100 100
6 250 266 267 268 269 251 100 100 100
3 89 218 90 100 100 100
4 94 84 83 88 100 100 100
4 209 253 252 210 100 100 100
6 167 169 257 256 203 202 100 100 100
7 143 268 267 265 242 241 144 100 100 100
6 142 175 180 269 268 143 100 100 100
3 118 141 119 100 100 100
4 109 165 164 110 100 100 100
9 187 191 262 166 165 109 108 182 184 100 100 100
5 55 159 210 252 56 100 100 100
6 244 258 259 207 206 245 100 100 100
4 149 249 248 150 100 100 100
6 134 270 271 174 173 135 100 100 100
4 197 231 230 198 100 100 100
7 150 248 196 195 145 128 127 100 100 100
5 166 262 261 223 161 100 100 100
5 222 229 264 238 239 100 100 100
6 123 186 216 215 192 124 100 100 100
9 113 174 271 155 154 257 169 168 114 100 100 100
5 205 263 246 245 206 100 100 100
9 122 125 212 221 35 34 39 260 185 100 100 100
4 155 271 270 156 100 100 100
6 226 234 237 266 250 227 100 100 100
6 151 156 270 134 133 213 100 100 100
6 233 253 209 193 198 230 100 100 100
6 238 264 177 170 112 111 100 100 100
8 223 261 190 189 204 207 259 224 100 100 100
5 140 148 120 119 141 100 100 100
6 201 203 256 255 254 220 100 100 100
4 2 151 213 3 100 100 100
6 243 265 267 266 237 236 100 100 100
3 59 64 60 100 100 100
8 152 200 102 101 105 254 255 153 100 100 100
4 179 251 269 180 100 100 100
5 172 208 136 135 173 100 100 100
24 273 274 288 289 292 281 277 276 275 282 284 283 272 285 287 286 295 294 279 278 280 293 291 290 -1 0 0
6 273 274 125 122 123 124 100 0 0
6 276 275 126 127 128 129 100 0 0
7 279 278 131 130 142 143 144 100 0 0
5 281 277 129 128 145 100 0 0
6 283 272 107 106 146 147 100 0 0
3 287 286 157 100 0 0
9 288 289 158 159 55 54 61 63 160 100 0 0
6 285 287 157 183 184 182 100 0 0
5 272 285 182 108 107 100 0 0
4 290 273 124 192 100 0 0
4 282 284 147 146 100 0 0
9 274 288 160 181 99 98 199 212 125 100 0 0
23 278 280 214 215 216 217 36 33 32 218 89 86 82 79 76 74 70 68 67 92 93 132 131 100 0 0
4 280 293 219 214 100 0 0
3 277 276 129 100 0 0
6 275 282 146 106 121 126 100 0 0
3 284 283 147 100 0 0
6 291 290 192 215 214 219 100 0 0
5 295 294 247 246 263 100 0 0
3 293 291 219 100 0 0
9 286 295 263 205 204 189 188 183 157 100 0 0
6 292 281 145 195 194 211 100 0 0
5 294 279 144 241 247 100 0 0
4 289 292 211 158 100 0 0
