ply
format ascii 1.0
comment converted from made-by-Polyhedron_join_facets_2
element vertex 468
property float x
property float y
property float z
element face 236
property list uchar uint vertex_indices
property uchar red
property uchar green
property uchar blue
end_header
2014 -2482 -5208
2081 -2445 -5407
-2921 -1141 -5224
-2221 1807 -5392
2095 -2433 -5267
-1378 -2715 -5223
2466 1272 -5424
2514 1194 -5266
2353 -2149 -5366
2368 -2127 -5219
-2110 -2524 -5296
-982 -2771 -5267
-897 -2782 -5361
-2313 -2409 -5236
656 -2794 -5213
428 -2804 -5239
833 -2784 -5188
966 -2773 -5162
-237 -2813 -5277
-332 -2811 -5277
1180 -2749 -5109
1092 -2760 -5133
42 -2812 -5268
212 -2810 -5257
2668 -1346 -5169
2760 -473 -5286
2749 -662 -5276
2684 -1248 -5191
2707 -1084 -5223
2734 -857 -5258
2730 -903 -5253
2763 -323 -5286
2763 -172 -5280
-2815 778 -5095
-2783 906 -5072
2056 1669 -5235
1945 1730 -5221
2289 1488 -5233
2236 1538 -5239
1753 1821 -5188
1825 1788 -5201
2116 1630 -5240
2173 1589 -5241
2450 1293 -5238
2644 885 -5195
2515 1192 -5238
2550 1129 -5234
2606 998 -5217
2576 1073 -5228
2353 1420 -5228
2390 1375 -5233
2667 805 -5177
391 -339 -3260
2361 -878 -4746
313 -385 -3198
2579 -1720 -5155
2614 -1602 -5129
2230 -2293 -5171
2317 -2191 -5184
2423 -2039 -5188
2454 -1987 -5186
2495 -1915 -5182
2337 -2167 -5186
2368 -2125 -5189
2544 -1822 -5175
2536 -1839 -5177
263 -380 -3162
2611 -1528 -5097
270 -381 -3167
2011 -2483 -5171
2086 -2438 -5173
1654 -2650 -5128
1551 -2679 -5103
1923 -2531 -5164
1817 -2582 -5153
1677 -2642 -5133
1750 -2612 -5144
1463 -2699 -5080
1414 -2709 -5065
2145 -2383 -5163
2097 -2430 -5173
-123 -721 -3146
-120 -752 -3169
-2440 -2294 -5121
-2015 -2553 -5082
-2105 -2519 -5102
-2259 -2444 -5128
-2303 -2412 -5129
-1911 -2586 -5054
-2420 -2312 -5122
-2212 -2470 -5122
-2197 -2477 -5119
-1839 -2606 -5034
-2325 -2395 -5128
-2354 -2371 -5127
-129 -725 -3150
-2709 -1945 -5141
-2741 -1878 -5134
-2813 -1682 -5101
-2777 -1788 -5121
-2539 -2195 -5137
-2577 -2154 -5143
-2646 -2056 -5146
-2832 -1613 -5085
-2600 -2126 -5147
-2611 -2113 -5148
-2646 1294 -5156
-2544 1479 -5175
-2487 1550 -5172
-2727 1096 -5118
-2560 1457 -5175
-2595 1392 -5168
-2695 1181 -5136
-2661 1260 -5150
-2766 969 -5087
-2746 1040 -5106
-2485 1552 -5172
-2418 1625 -5164
-2781 912 -5071
-2780 909 -5069
-2060 1901 -5181
-2026 1918 -5177
-1925 1959 -5161
-2380 1665 -5164
-2184 1825 -5184
-2115 1870 -5184
-2235 1789 -5182
-2261 1770 -5181
-2339 1702 -5171
-2275 1758 -5179
2328 1446 -5225
2340 1434 -5225
258 -380 -3159
2174 -2353 -5160
2152 -2376 -5161
-123 -719 -3144
-124 -717 -3143
-93 -368 -2975
258 -380 -3159
-2440 -2293 -5120
-2468 -2266 -5121
-117 -390 -2975
-124 -716 -3142
-2404 1640 -5161
-519 -350 -3168
-2384 1660 -5163
-116 -345 -2975
-108 -6 -3155
-140 -366 -2975
-495 -357 -3153
-105 28 -3179
-108 9 -3165
-120 21 -3176
-85 614 -3630
-211 368 -3453
-109 2 -3160
-117 15 -3171
-2842 -1572 -5074
-574 -358 -3205
-534 -354 -3177
-511 -355 -3162
-515 -354 -3164
641 1626 -4582
-18 1518 -4334
-1154 -2748 -5209
-981 -2771 -5238
-1393 -2710 -5159
-1632 -2660 -5088
-1547 -2679 -5116
-1298 -2726 -5181
-1356 -2717 -5168
-503 -2806 -5272
-593 -2801 -5269
-1716 -2638 -5055
-812 -2786 -5255
-723 -2793 -5262
-480 -2806 -5272
-158 -2246 -4317
-776 -2333 -4496
-1800 -2615 -5022
-1800 -2615 -5022
-2847 611 -5126
-2947 -685 -5236
-2886 -1390 -5135
-2950 -292 -5248
-2951 -488 -5246
-2941 -121 -5240
-2938 -86 -5237
-2846 -1557 -5077
-2905 -1274 -5164
-2918 -1144 -5186
-2903 257 -5195
-2885 378 -5173
-2938 -897 -5219
-2934 -969 -5211
-2908 208 -5202
-2925 60 -5221
-2827 715 -5100
-2448 -339 -4552
-2762 764 -5011
-2544 231 -4698
-2844 -1564 -5074
-2586 -957 -4730
2725 454 -5227
2755 107 -5267
2762 -78 -5277
2739 323 -5245
2711 559 -5208
2689 695 -5178
2680 744 -5166
2752 169 -5263
2744 266 -5252
2763 -135 -5278
2678 753 -5163
2677 751 -5161
2378 54 -4757
2284 -406 -4630
1300 -2730 -5070
1265 -2735 -5079
1364 -2718 -5050
1344 -2709 -5036
463 -2383 -4527
766 -2710 -5045
-68 -2267 -4348
2635 -1518 -5128
2658 -1399 -5155
2340 -702 -4708
2626 -1555 -5117
2618 -1541 -5106
2672 -801 -5155
2326 -612 -4686
-753 1687 -4565
-66 1530 -4350
1451 1933 -5530
1312 1969 -5516
1437 1938 -5528
1411 1944 -5525
1330 1562 -5920
2062 1667 -5471
1931 1739 -5480
2234 1540 -5482
1730 1834 -5508
1872 1768 -5487
2110 1636 -5470
2167 1595 -5474
1650 1867 -5522
1621 1878 -5528
2264 1513 -5489
1547 1902 -5546
1331 1562 -5919
2650 871 -5488
2548 1135 -5446
2295 1483 -5481
2603 1008 -5461
2579 1069 -5452
2356 1418 -5464
2392 1374 -5456
2466 1272 -5446
2519 1187 -5444
2672 787 -5509
2666 817 -5501
2272 1505 -5489
2730 435 -5499
2757 78 -5507
2763 -74 -5516
2733 403 -5499
2717 529 -5501
2695 669 -5509
2764 -299 -5536
2764 -181 -5525
2751 197 -5502
2750 204 -5502
2677 764 -5516
2238 578 -5939
2666 -1361 -5505
2636 -1519 -5511
2760 -473 -5538
2749 -683 -5520
2688 -1224 -5503
2705 -1103 -5504
2746 -711 -5518
2729 -911 -5507
2762 -391 -5547
2759 -391 -5550
2352 -2152 -5428
2585 -1704 -5481
2613 -1611 -5509
2243 -2283 -5444
2288 -2229 -5436
2428 -2035 -5430
2382 -2106 -5428
2434 -2024 -5430
2511 -1888 -5441
2542 -1828 -5449
2526 -1861 -5444
2171 -2359 -5459
2245 -1454 -5879
2620 -1584 -5517
2261 -1452 -5868
2086 -2442 -5425
1616 -2669 -5429
1563 -2684 -5439
1911 -2541 -5414
1829 -2581 -5414
1666 -2652 -5423
1749 -2617 -5417
1984 -2502 -5417
2082 -2445 -5424
1463 -2709 -5460
2142 -2390 -5446
2115 -2416 -5435
2168 -2362 -5459
1305 -2319 -5868
634 -2802 -5446
520 -2806 -5449
1310 -2739 -5464
797 -2793 -5445
1024 -2775 -5448
1354 -2732 -5469
1196 -2756 -5455
1089 -2769 -5450
25 -2817 -5470
245 -2813 -5460
1401 -2722 -5475
1297 -2339 -5853
-1115 -2760 -5424
-231 -2817 -5477
-433 -2813 -5456
-1619 -2675 -5445
-1594 -2681 -5443
-1261 -2739 -5427
-1394 -2718 -5431
-495 -2811 -5450
-552 -2808 -5446
-1662 -2665 -5450
-738 -2796 -5435
-1018 -2772 -5424
-894 -2784 -5428
-178 -2817 -5483
-178 -2813 -5487
-2465 -2284 -5429
-2025 -2562 -5413
-2268 -2448 -5390
-1929 -2593 -5432
-2388 -2355 -5409
-2215 -2477 -5392
-2106 -2529 -5401
-1851 -2616 -5451
-2319 -2411 -5396
-2375 -2365 -5406
-2488 -2262 -5436
-1613 -2250 -5852
-1792 -2632 -5466
-1610 -2262 -5844
-2713 -1967 -5385
-2760 -1870 -5388
-2828 -1698 -5407
-2800 -1776 -5396
-2530 -2219 -5425
-2593 -2149 -5404
-2667 -2047 -5387
-2850 -1624 -5421
-2623 -2113 -5395
-2645 -2084 -5390
-2499 -2251 -5436
-2958 -706 -5426
-2899 -1410 -5408
-2963 -301 -5464
-2963 -461 -5447
-2942 -1015 -5409
-2873 -1531 -5420
-2923 -1236 -5404
-2919 -1274 -5403
-2951 -864 -5416
-2944 -987 -5410
-2858 -1594 -5428
-2870 588 -5448
-2959 -189 -5477
-2946 -16 -5464
-2835 779 -5453
-2817 857 -5459
-2915 278 -5451
-2901 382 -5449
-2929 156 -5455
-2939 59 -5460
-2959 -202 -5479
-2953 -203 -5485
-2656 1303 -5420
-2557 1477 -5418
-2518 1527 -5427
-2395 1663 -5464
-2742 1102 -5445
-2576 1450 -5415
-2618 1376 -5416
-2707 1190 -5432
-2682 1246 -5425
-2776 1007 -5463
-2770 1025 -5459
-2442 1613 -5448
-2441 1615 -5449
-2333 1720 -5488
-2786 971 -5472
-2392 849 -5863
-2071 1901 -5442
-2019 1928 -5440
-1923 1967 -5445
-1723 2030 -5474
-1843 1996 -5454
-1669 2043 -5485
-2131 1868 -5447
-2275 1769 -5473
-2222 1808 -5461
-2326 1727 -5488
-2314 1737 -5485
-2326 1727 -5489
-1470 1632 -5930
-1540 2070 -5490
-1610 2056 -5498
-1469 1635 -5928
-67 1179 -6213
1475 803 -6211
1328 1557 -5923
1499 778 -6211
1812 -341 -6210
2212 598 -5950
2230 579 -5945
1810 -416 -6210
1412 -1537 -6211
2238 -1451 -5884
1403 -1546 -6211
-13 -1788 -6213
1302 -2311 -5873
-130 -1784 -6213
-1605 -1480 -6215
-1603 -2232 -5865
-1612 -1473 -6215
-1908 -254 -6216
-2416 -1394 -5875
-2418 -1389 -5874
-2418 -1392 -5874
-1908 -247 -6216
-2386 851 -5867
-2373 865 -5872
-149 1182 -6213
-1465 1620 -5937
-1597 896 -6215
-1598 898 -6214
-1540 2069 -5466
1312 1969 -5516
1464 1927 -5420
1441 1935 -5438
1392 1948 -5468
1732 1830 -5183
1695 1846 -5222
1628 1873 -5288
1533 1796 -5067
-1893 1971 -5155
-1734 2024 -5318
-1831 1994 -5226
-1678 2038 -5364
-1475 1866 -4914
896 1704 -4741
-916 1750 -4661
-465 1730 -4656
1312 1969 -5516
186 2049 -5607
-1501 2076 -5488
-220 2065 -5605
19 177 178 180 179 173 167 168 166 170 169 164 165 174 175 172 171 176 222 223 100 100 100
22 198 200 199 197 181 192 191 195 196 187 186 184 185 182 193 194 190 189 183 188 201 202 100 100 100
16 204 210 211 206 203 207 208 209 213 214 215 216 230 229 212 205 100 100 100
7 137 138 132 131 130 147 146 100 100 100
8 137 141 142 136 135 134 133 138 100 100 100
6 141 148 149 140 139 142 100 100 100
11 147 155 156 145 143 144 161 160 149 148 146 100 100 100
8 423 425 273 283 298 296 428 426 100 100 100
9 430 431 312 324 339 353 351 434 432 100 100 100
6 386 402 441 440 436 438 100 100 100
7 217 219 220 221 223 222 218 100 100 100
7 226 228 227 224 225 229 230 100 100 100
4 150 162 163 153 100 100 100
15 52 214 213 51 44 47 48 46 45 43 50 49 131 132 66 100 100 100
3 52 215 214 100 100 100
6 52 66 68 54 216 215 100 100 100
5 53 226 230 216 54 100 100 100
4 53 54 68 67 100 100 100
19 56 227 228 67 68 66 132 138 133 57 58 62 63 59 60 61 65 64 55 100 100 100
17 69 70 80 79 134 135 81 220 219 78 77 72 71 75 76 74 73 100 100 100
4 81 82 221 220 100 100 100
4 82 177 223 221 100 100 100
7 81 135 136 95 178 177 82 100 100 100
3 95 180 178 100 100 100
18 89 94 93 87 86 90 91 85 84 88 92 179 180 95 136 142 139 83 100 100 100
14 98 99 97 96 102 105 104 101 100 140 149 160 157 103 100 100 100
3 158 198 202 100 100 100
4 158 159 200 198 100 100 100
6 119 199 200 159 161 144 100 100 100
16 114 118 119 144 143 117 116 108 107 110 111 106 113 112 109 115 100 100 100
5 153 163 232 231 154 100 100 100
7 157 160 161 159 158 202 201 100 100 100
12 238 243 244 240 247 249 248 246 245 241 242 239 100 100 100
16 273 425 424 261 252 255 256 257 258 251 254 253 250 260 259 272 100 100 100
14 262 265 271 270 263 264 269 268 282 283 273 272 267 266 100 100 100
12 276 277 280 281 279 278 274 275 297 298 283 282 100 100 100
15 293 294 292 291 289 290 284 288 287 295 296 298 297 286 285 100 100 100
16 309 310 299 307 306 302 303 305 304 300 301 308 323 324 312 311 100 100 100
14 315 319 320 317 316 313 314 322 321 338 339 324 323 318 100 100 100
17 333 335 337 336 325 330 331 329 328 334 352 353 339 338 326 327 332 100 100 100
14 351 353 352 347 343 341 346 345 342 348 349 344 340 350 100 100 100
14 358 359 362 363 360 354 355 357 356 361 375 439 437 364 100 100 100
15 365 368 367 385 386 438 439 375 370 366 372 371 369 374 373 100 100 100
13 377 378 384 383 381 382 376 379 380 401 402 386 385 100 100 100
18 391 394 395 387 393 392 388 389 398 399 390 400 442 441 402 401 396 397 100 100 100
15 412 413 410 411 409 403 404 405 407 406 408 417 418 415 414 100 100 100
3 419 421 420 100 100 100
4 424 425 423 422 100 100 100
3 426 428 427 100 100 100
3 429 431 430 100 100 100
3 432 434 433 100 100 100
5 435 437 439 438 436 100 100 100
5 441 442 446 445 440 100 100 100
4 445 446 444 443 100 100 100
15 419 420 422 423 426 427 429 430 432 433 435 436 440 445 443 100 100 100
4 137 146 148 141 100 100 100
5 18 326 338 321 22 100 100 100
5 25 276 282 268 31 100 100 100
5 184 186 377 385 367 100 100 100
4 84 341 343 88 100 100 100
4 98 103 361 356 100 100 100
6 123 128 412 414 400 390 100 100 100
4 55 64 293 285 100 100 100
4 109 112 394 391 100 100 100
8 57 133 134 79 309 311 295 287 100 100 100
8 83 139 140 100 358 364 350 340 100 100 100
4 71 300 304 75 100 100 100
4 44 250 253 47 100 100 100
6 37 130 131 49 255 252 100 100 100
4 164 169 330 325 100 100 100
3 2 369 371 100 100 100
5 20 319 315 217 218 100 100 100
4 203 262 266 207 100 100 100
5 181 197 33 379 376 100 100 100
4 24 274 278 27 100 100 100
4 96 354 360 102 100 100 100
4 120 121 404 403 100 100 100
4 59 289 291 60 100 100 100
5 0 69 73 302 306 100 100 100
4 41 243 238 35 100 100 100
4 6 43 45 7 100 100 100
4 107 388 392 110 100 100 100
4 86 342 345 90 100 100 100
4 14 313 316 16 100 100 100
4 11 12 174 165 100 100 100
4 204 263 270 210 100 100 100
4 182 185 368 365 100 100 100
4 173 334 328 167 100 100 100
4 191 381 383 195 100 100 100
4 29 280 277 26 100 100 100
3 3 126 124 100 100 100
4 183 366 370 188 100 100 100
4 111 393 387 106 100 100 100
6 34 118 114 396 401 380 100 100 100
4 99 357 355 97 100 100 100
3 13 87 93 100 100 100
4 108 116 398 389 100 100 100
4 72 77 308 301 100 100 100
4 38 240 244 42 100 100 100
4 36 239 242 40 100 100 100
5 171 332 327 19 176 100 100 100
5 8 62 58 288 284 100 100 100
6 224 227 56 286 297 275 100 100 100
5 208 267 272 259 209 100 100 100
4 48 254 251 46 100 100 100
4 74 76 305 303 100 100 100
4 101 104 362 359 100 100 100
3 10 85 91 100 100 100
5 5 166 168 329 331 100 100 100
4 23 322 314 15 100 100 100
5 6 257 256 50 43 100 100 100
4 17 317 320 21 100 100 100
4 181 376 382 192 100 100 100
5 205 212 32 269 264 100 100 100
4 182 365 373 193 100 100 100
6 4 80 70 1 307 299 100 100 100
4 28 279 281 30 100 100 100
4 206 265 262 203 100 100 100
4 183 189 372 366 100 100 100
4 61 292 294 65 100 100 100
4 35 238 239 36 100 100 100
4 175 335 333 172 100 100 100
4 184 367 368 185 100 100 100
5 24 225 224 275 274 100 100 100
4 51 260 250 44 100 100 100
4 8 284 290 9 100 100 100
4 83 340 344 89 100 100 100
4 186 187 378 377 100 100 100
4 15 314 313 14 100 100 100
4 96 97 355 354 100 100 100
4 120 403 409 125 100 100 100
4 122 405 404 121 100 100 100
4 98 356 357 99 100 100 100
3 4 299 310 100 100 100
4 127 410 413 129 100 100 100
4 196 384 378 187 100 100 100
5 217 315 318 78 219 100 100 100
4 26 277 276 25 100 100 100
5 7 45 46 251 258 100 100 100
5 10 346 341 84 85 100 100 100
6 37 252 261 247 240 38 100 100 100
4 0 1 70 69 100 100 100
4 34 380 379 33 100 100 100
4 55 285 286 56 100 100 100
5 164 325 336 11 165 100 100 100
5 86 87 13 348 342 100 100 100
4 106 387 395 113 100 100 100
4 72 301 300 71 100 100 100
4 107 108 389 388 100 100 100
6 123 390 399 117 143 145 100 100 100
5 194 374 369 2 190 100 100 100
4 39 40 242 241 100 100 100
4 205 264 263 204 100 100 100
4 88 343 347 92 100 100 100
4 109 391 397 115 100 100 100
4 47 253 254 48 100 100 100
4 206 211 271 265 100 100 100
4 16 316 317 17 100 100 100
4 57 287 288 58 100 100 100
4 41 42 244 243 100 100 100
5 3 124 125 409 411 100 100 100
4 74 303 302 73 100 100 100
4 110 392 393 111 100 100 100
4 100 101 359 358 100 100 100
4 207 266 267 208 100 100 100
4 75 304 305 76 100 100 100
4 102 360 363 105 100 100 100
4 50 256 255 49 100 100 100
7 188 370 375 361 103 157 201 100 100 100
5 9 290 289 59 63 100 100 100
4 18 19 327 326 100 100 100
4 89 344 349 94 100 100 100
4 0 306 307 1 100 100 100
5 78 318 323 308 77 100 100 100
3 5 170 166 100 100 100
5 2 371 372 189 190 100 100 100
4 60 291 292 61 100 100 100
4 167 328 329 168 100 100 100
4 27 278 279 28 100 100 100
5 3 411 410 127 126 100 100 100
4 20 21 320 319 100 100 100
5 4 310 309 79 80 100 100 100
5 5 331 330 169 170 100 100 100
4 171 172 333 332 100 100 100
4 6 7 258 257 100 100 100
4 192 382 381 191 100 100 100
4 29 30 281 280 100 100 100
5 209 259 260 51 213 100 100 100
4 8 9 63 62 100 100 100
5 10 91 90 345 346 100 100 100
6 173 179 92 347 352 334 100 100 100
4 193 373 374 194 100 100 100
4 112 113 395 394 100 100 100
4 22 321 322 23 100 100 100
4 115 397 396 114 100 100 100
4 128 129 413 412 100 100 100
4 31 268 269 32 100 100 100
5 12 337 335 175 174 100 100 100
4 64 65 294 293 100 100 100
4 11 336 337 12 100 100 100
5 13 93 94 349 348 100 100 100
4 195 383 384 196 100 100 100
4 104 105 363 362 100 100 100
4 117 399 398 116 100 100 100
4 210 270 271 211 100 100 100
4 226 53 67 228 100 100 100
7 154 152 156 155 151 150 153 100 100 100
13 176 19 18 22 23 15 14 16 17 21 20 218 222 100 100 100
12 225 24 27 28 30 29 26 25 31 32 212 229 100 100 100
6 118 34 33 197 199 119 100 100 100
8 420 421 237 249 247 261 424 422 100 100 100
8 312 431 429 427 428 296 295 311 100 100 100
7 433 434 351 350 364 437 435 100 100 100
6 415 444 446 442 400 414 100 100 100
21 461 463 462 460 456 458 457 459 447 466 467 465 464 448 451 450 449 454 453 452 455 -1 0 0
5 461 463 232 163 162 100 0 0
9 467 465 237 421 419 443 444 415 418 100 0 0
4 463 462 231 232 100 0 0
5 455 461 162 150 151 100 0 0
14 452 455 151 155 147 130 37 38 42 41 35 36 40 39 100 0 0
15 460 456 122 121 120 125 124 126 127 129 128 123 145 156 152 100 0 0
5 462 460 152 154 231 100 0 0
9 465 464 234 236 235 233 248 249 237 100 0 0
5 466 467 418 417 416 100 0 0
4 457 459 408 406 100 0 0
5 453 452 39 241 245 100 0 0
4 450 449 233 235 100 0 0
5 456 458 407 405 122 100 0 0
4 448 451 236 234 100 0 0
4 458 457 406 407 100 0 0
5 459 447 416 417 408 100 0 0
5 449 454 246 248 233 100 0 0
3 464 448 234 100 0 0
3 447 466 416 100 0 0
4 454 453 245 246 100 0 0
4 451 450 235 236 100 0 0
