ply
format ascii 1.0
comment converted from made-by-Polyhedron_join_facets_2
element vertex 246
property float x
property float y
property float z
element face 125
property list uchar uint vertex_indices
property uchar red
property uchar green
property uchar blue
end_header
1346 -1797 -924
1343 -1802 -924
1345 -1800 -924
345 -320 1046
377 -279 1046
284 -233 1176
345 -320 1046
380 -394 970
392 -405 953
409 -410 937
465 -490 828
466 -489 828
464 -488 831
555 -627 648
559 -641 634
780 -953 208
782 -951 208
607 -679 563
779 -976 188
787 -993 164
810 -963 164
812 -987 147
814 -1033 114
843 -1058 72
851 -1048 72
870 -1117 2
879 -1115 -4
881 -1121 -11
895 -1103 -11
905 -1222 -116
910 -1238 -134
939 -1291 -205
1053 -1271 -302
1029 -1323 -320
1068 -1275 -320
1051 -1393 -373
1061 -1392 -379
1083 -1364 -379
1106 -1435 -444
1098 -1453 -450
1102 -1456 -455
1115 -1440 -455
284 -232 1177
299 -287 1114
325 -338 1046
359 -379 995
547 -635 648
480 -548 769
772 -1024 147
767 -1011 164
782 -1035 132
864 -1129 -4
957 -1358 -302
1023 -1419 -373
1074 -1464 -444
1044 -1448 -411
111 -1105 -3080
24 -1085 -3079
-605 -922 -3079
-1078 -793 -3078
-1109 -722 -3078
-1120 -670 -3078
-1027 -367 -3079
-604 938 -3080
-576 1020 -3080
-405 1020 -3080
-274 990 -3080
-202 969 -3080
559 735 -3081
583 718 -3081
585 691 -3081
178 -860 -3080
-1202 -778 -177
121 -144 1271
60 -165 1217
-485 -389 671
-491 -392 664
1658 -1198 -1108
1820 -643 -1087
2000 -31 -1054
1638 -1270 -1095
1564 -1522 -1112
1570 -1499 -1114
-2053 -231 -1557
-2215 -968 -1500
-2217 -1222 -1407
-486 -386 669
-142 -105 1038
-66 -13 1108
2030 71 -1050
448 4 1075
313 -147 1193
1349 -1804 -930
1420 -1849 -1047
1430 -1838 -1056
1497 -1696 -1086
294 -1392 -2751
670 -1984 -2072
777 -2209 -1802
766 -2232 -1769
756 -2236 -1761
748 -2233 -1762
2292 1021 -1045
1264 -2072 -1294
1354 -2026 -1191
1355 -2023 -1187
1290 -1836 -921
523 -627 669
231 -184 1249
191 -147 1292
170 -142 1292
-1394 -1721 -1685
697 -2232 -1738
875 -2230 -1673
1114 -2138 -1447
177 -18 1290
193 -33 1294
-2085 -1422 -1848
-2051 -1389 -1904
-1820 -1219 -2220
-1187 -844 -2969
-1113 -810 -3043
-2133 -1477 -1756
-2086 -562 -1734
-2078 -518 -1727
-2100 -379 -1575
-2096 -366 -1576
-2203 -1106 -1802
-2221 -1114 -1761
-2201 -818 -1611
-2158 -604 -1577
-1154 -1753 -1744
748 -2241 -1746
-1791 -1622 -1680
-2036 -1559 -1680
193 -144 1294
211 -139 1291
215 -121 1291
214 -111 1292
193 -67 1299
171 -96 1301
163 -121 1301
1362 -2021 -1191
1370 -2013 -1181
1368 -2010 -1171
-2060 -1553 -1680
-2084 -1531 -1648
-2227 -1468 -1604
-2183 -1505 -1658
-2118 -1536 -1682
1203 -2098 -1367
1269 -2069 -1294
2278 1161 -933
2271 1134 -933
2259 875 -1025
2308 1056 -1027
2308 1057 -1027
2285 1155 -947
1522 -1651 -1112
1407 -1937 -1156
1357 -2024 -1199
244 -156 1265
253 -145 1261
993 -2049 -1647
-2234 -1463 -1598
-2046 -1275 -1244
-2242 -1436 -1564
-2239 -1458 -1595
-1978 43 -1576
280 -129 1240
348 -26 1189
250 -182 1243
155 -58 1294
148 -65 1293
143 -79 1293
151 -124 1298
-2095 -1268 -1904
-2215 -1484 -1659
-2231 -1472 -1645
-2265 -1438 -1619
-2285 -1391 -1615
-2277 -1338 -1648
-2275 -1331 -1653
-2193 -1163 -1829
2286 1163 -950
2305 1138 -1017
-2286 -1388 -1580
-2285 -1389 -1577
-2270 -1316 -1506
-2266 -1228 -1547
-2023 -1092 -2038
-1838 -1214 -2203
-2223 -1251 -1407
-2233 -1259 -1424
-2266 -1304 -1493
-2278 -1406 -1581
-2244 -1434 -1564
-2132 -1265 -1316
-2151 -1236 -1316
-170 -173 1012
1391 -1913 -1074
1373 -1970 -1118
2307 1057 -1030
847 -2237 -1702
845 -2237 -1705
1349 -1814 -939
1314 -1861 -960
-2244 -1057 -1587
-2208 -834 -1587
145 -136 1293
-2265 -1438 -1608
-2249 -1454 -1605
-2204 -1493 -1666
-2162 -1509 -1701
-1930 -1177 -1052
-1893 -1149 -996
-2188 -1148 -1839
-2253 -1235 -1474
-2257 -1150 -1547
-2235 -1022 -1520
-2228 -973 -1524
-2199 -782 -1567
-824 935 -2784
-599 1064 -3029
-452 1092 -2996
-361 1102 -2953
-76 1129 -2792
1840 1300 -1694
1842 1300 -1692
1891 1298 -1640
-1897 300 -1544
-1900 306 -1566
-64 0 1107
-19 0 1142
622 226 931
2219 1258 -1215
182 13 1278
212 22 1271
-1868 335 -1638
-1873 331 -1628
2266 1182 -910
1647 821 -215
507 162 1052
2277 1191 -934
2293 1227 -1045
2266 1248 -1140
3 2 0 1 100 100 100
3 5 3 4 100 100 100
6 9 4 3 6 7 8 100 100 100
3 12 10 11 100 100 100
7 17 11 10 13 14 15 16 100 100 100
5 20 16 15 18 19 100 100 100
6 24 20 19 21 22 23 100 100 100
6 28 24 23 25 26 27 100 100 100
8 34 28 27 29 30 31 32 33 100 100 100
5 37 34 33 35 36 100 100 100
6 41 37 36 38 39 40 100 100 100
4 40 1 0 41 100 100 100
6 44 6 3 5 42 43 100 100 100
4 7 6 44 45 100 100 100
7 46 13 10 12 9 8 47 100 100 100
3 14 13 46 100 100 100
5 48 21 19 18 49 100 100 100
4 50 22 21 48 100 100 100
3 51 26 25 100 100 100
4 51 29 27 26 100 100 100
3 32 31 52 100 100 100
5 35 33 32 52 53 100 100 100
6 54 38 36 35 53 55 100 100 100
3 39 38 54 100 100 100
16 56 57 58 59 60 61 62 63 64 65 66 67 68 69 70 71 100 100 100
5 72 73 74 75 76 100 100 100
6 77 78 79 80 81 82 100 100 100
19 79 89 90 91 17 16 20 24 28 34 37 41 0 2 92 93 94 95 80 100 100 100
8 56 96 97 98 99 100 101 57 100 100 100
23 103 104 105 106 55 53 52 31 30 50 48 49 107 45 44 43 108 109 110 111 112 113 114 100 100 100
6 117 118 119 120 121 122 100 100 100
8 125 126 124 123 127 128 129 130 100 100 100
8 100 132 112 111 133 134 131 101 100 100 100
7 135 136 137 138 139 140 141 100 100 100
4 101 131 58 57 100 100 100
5 104 142 143 144 105 100 100 100
5 145 146 147 148 149 100 100 100
4 103 114 150 151 100 100 100
6 152 153 154 155 156 157 100 100 100
7 81 158 159 143 142 160 82 100 100 100
4 136 161 162 137 100 100 100
3 96 163 97 100 100 100
4 164 165 166 167 100 100 100
6 108 171 161 136 135 109 100 100 100
5 115 172 140 139 116 100 100 100
6 140 172 173 174 175 141 100 100 100
4 80 95 158 81 100 100 100
4 133 146 145 134 100 100 100
5 103 151 160 142 104 100 100 100
9 82 160 151 150 163 96 56 71 77 100 100 100
10 117 177 178 179 180 181 182 183 176 118 100 100 100
4 186 187 188 189 100 100 100
6 60 120 119 191 190 61 100 100 100
9 192 193 194 188 187 195 196 197 198 100 100 100
3 74 199 75 100 100 100
7 93 200 201 144 143 159 94 100 100 100
8 97 163 150 114 113 203 204 98 100 100 100
4 200 205 206 201 100 100 100
6 207 208 129 128 182 181 100 100 100
5 99 204 203 132 100 100 100 100
7 46 47 107 49 18 15 14 100 100 100
7 25 23 22 50 30 29 51 100 100 100
10 205 92 2 1 40 39 54 55 106 206 100 100 100
8 87 199 74 73 209 175 174 88 100 100 100
4 178 211 210 179 100 100 100
4 94 159 158 95 100 100 100
4 212 213 149 148 100 100 100
6 179 210 195 187 186 180 100 100 100
4 214 215 198 197 100 100 100
5 127 216 183 182 128 100 100 100
3 193 217 194 100 100 100
4 118 176 191 119 100 100 100
6 207 218 219 220 221 208 100 100 100
12 4 9 12 11 17 91 169 162 161 171 42 5 100 100 100
7 84 220 219 217 193 192 85 100 100 100
6 83 125 130 221 220 84 100 100 100
4 59 121 120 60 100 100 100
9 145 149 213 122 121 59 58 131 134 100 100 100
6 195 210 211 167 166 196 100 100 100
12 72 215 214 165 164 147 146 133 111 110 209 73 100 100 100
4 156 185 184 157 100 100 100
5 105 144 201 206 106 100 100 100
3 98 204 99 100 100 100
7 102 202 155 154 89 79 78 100 100 100
5 122 213 212 177 117 100 100 100
5 176 183 216 190 191 100 100 100
5 165 214 197 196 166 100 100 100
4 92 205 200 93 100 100 100
6 180 186 189 218 207 181 100 100 100
7 85 192 198 215 72 76 86 100 100 100
5 169 170 138 137 162 100 100 100
6 109 135 141 175 209 110 100 100 100
6 190 216 127 123 62 61 100 100 100
8 177 212 148 147 164 167 211 178 100 100 100
4 42 171 108 43 100 100 100
5 8 7 45 107 47 100 100 100
6 194 217 219 218 189 188 100 100 100
4 132 203 113 112 100 100 100
4 129 208 221 130 100 100 100
5 75 199 87 86 76 100 100 100
24 226 227 228 229 235 245 244 243 240 241 234 242 237 236 233 232 230 231 239 238 222 223 224 225 -1 0 0
4 226 227 68 67 100 0 0
8 232 230 83 84 85 86 87 88 100 0 0
7 229 235 102 78 77 71 70 100 0 0
4 237 236 115 116 100 0 0
6 238 222 63 62 123 124 100 0 0
4 224 225 66 65 100 0 0
5 239 238 124 126 168 100 0 0
6 234 242 170 169 91 90 100 0 0
4 240 241 153 152 100 0 0
6 230 231 168 126 125 83 100 0 0
4 225 226 67 66 100 0 0
5 233 232 88 174 173 100 0 0
4 244 243 184 185 100 0 0
6 242 237 116 139 138 170 100 0 0
5 236 233 173 172 115 100 0 0
6 245 244 185 156 155 202 100 0 0
4 223 224 65 64 100 0 0
4 227 228 69 68 100 0 0
4 235 245 202 102 100 0 0
4 222 223 64 63 100 0 0
6 241 234 90 89 154 153 100 0 0
5 243 240 152 157 184 100 0 0
4 228 229 70 69 100 0 0
3 231 239 168 100 0 0
