ply
format ascii 1.0
comment converted from made-by-Polyhedron_join_facets_2
element vertex 514
property float x
property float y
property float z
element face 259
property list uchar uint vertex_indices
property uchar red
property uchar green
property uchar blue
end_header
-722 2146 -5410
-541 2150 -5411
2014 -2482 -5208
2081 -2445 -5407
-2921 -1141 -5224
-1540 2069 -5463
-2221 1807 -5392
2095 -2433 -5267
-1378 -2715 -5223
-317 2149 -5439
-861 2139 -5371
940 2038 -5378
2466 1272 -5424
2514 1194 -5266
1308 1967 -5323
2353 -2149 -5366
2368 -2127 -5219
-2110 -2524 -5296
-982 -2771 -5267
-897 -2782 -5361
-2313 -2409 -5236
1491 1916 -5196
1315 1964 -5244
1450 1928 -5211
1319 1963 -5243
656 -2794 -5213
428 -2804 -5239
833 -2784 -5188
966 -2773 -5162
-237 -2813 -5277
1180 -2749 -5109
1092 -2760 -5133
42 -2812 -5268
212 -2810 -5257
2668 -1346 -5169
2760 -473 -5286
2749 -662 -5276
2684 -1248 -5191
2707 -1084 -5223
2734 -857 -5258
2730 -903 -5253
2763 -323 -5286
2763 -172 -5280
-2815 778 -5095
-2783 906 -5072
1602 1879 -5152
2056 1669 -5235
1945 1730 -5221
2289 1488 -5233
2236 1538 -5239
1753 1821 -5188
1825 1788 -5201
2116 1630 -5240
2173 1589 -5241
1702 1843 -5177
1631 1870 -5160
1607 1877 -5154
2450 1293 -5238
2644 885 -5195
2515 1192 -5238
2550 1129 -5234
2606 998 -5217
2576 1073 -5228
2353 1420 -5228
2390 1375 -5233
2667 805 -5177
391 -339 -3260
2361 -878 -4746
313 -385 -3198
2579 -1720 -5155
2614 -1602 -5129
2230 -2293 -5171
2317 -2191 -5184
2423 -2039 -5188
2454 -1987 -5186
2495 -1915 -5182
2337 -2167 -5186
2368 -2125 -5189
2544 -1822 -5175
2536 -1839 -5177
263 -380 -3162
2611 -1528 -5097
270 -381 -3167
2011 -2483 -5171
2086 -2438 -5173
1654 -2650 -5128
1551 -2679 -5103
1923 -2531 -5164
1817 -2582 -5153
1677 -2642 -5133
1750 -2612 -5144
1463 -2699 -5080
1414 -2709 -5065
2145 -2383 -5163
2097 -2430 -5173
-123 -721 -3146
-120 -752 -3169
-2440 -2294 -5121
-2015 -2553 -5082
-2105 -2519 -5102
-2259 -2444 -5128
-2303 -2412 -5129
-1911 -2586 -5054
-2420 -2312 -5122
-2212 -2470 -5122
-2197 -2477 -5119
-1839 -2606 -5034
-2325 -2395 -5128
-2354 -2371 -5127
-129 -725 -3150
-2709 -1945 -5141
-2741 -1878 -5134
-2813 -1682 -5101
-2777 -1788 -5121
-2539 -2195 -5137
-2577 -2154 -5143
-2646 -2056 -5146
-2832 -1613 -5085
-2600 -2126 -5147
-2611 -2113 -5148
-2646 1294 -5156
-2544 1479 -5175
-2487 1550 -5172
-2727 1096 -5118
-2560 1457 -5175
-2595 1392 -5168
-2695 1181 -5136
-2661 1260 -5150
-2766 969 -5087
-2746 1040 -5106
-2485 1552 -5172
-2418 1625 -5164
-2781 912 -5071
-2780 909 -5069
-2060 1901 -5181
-2026 1918 -5177
-1925 1959 -5161
-1747 2016 -5123
-1827 1994 -5142
-1697 2027 -5109
-2380 1665 -5164
-2184 1825 -5184
-2115 1870 -5184
-2235 1789 -5182
-2261 1770 -5181
-2339 1702 -5171
-2275 1758 -5179
2328 1446 -5225
2340 1434 -5225
258 -380 -3159
2174 -2353 -5160
2152 -2376 -5161
-123 -719 -3144
-124 -717 -3143
-93 -368 -2975
258 -380 -3159
-2440 -2293 -5120
-2468 -2266 -5121
-117 -390 -2975
-124 -716 -3142
-2404 1640 -5161
-519 -350 -3168
-2384 1660 -5163
-116 -345 -2975
-108 -6 -3155
-140 -366 -2975
-495 -357 -3153
-105 28 -3179
-108 9 -3165
-120 21 -3176
-85 614 -3630
-211 368 -3453
-109 2 -3160
-117 15 -3171
-2842 -1572 -5074
-574 -358 -3205
-534 -354 -3177
-511 -355 -3162
-515 -354 -3164
-848 2139 -5325
215 2121 -5396
409 2104 -5385
-1182 2110 -5244
-796 2141 -5334
657 2076 -5359
-475 2149 -5377
778 2060 -5344
-50 2138 -5399
-252 2146 -5394
-572 2148 -5367
-670 2146 -5354
-285 2147 -5392
-370 2148 -5386
-893 2135 -5315
-1130 2115 -5257
1064 2015 -5292
942 2037 -5318
1185 1991 -5263
1189 1990 -5262
1419 1864 -5067
641 1626 -4582
-18 1518 -4334
-1393 -2710 -5159
-1632 -2660 -5088
-1547 -2679 -5116
-1298 -2726 -5181
-1356 -2717 -5168
-1716 -2638 -5055
-1800 -2615 -5022
-1800 -2615 -5022
-2847 611 -5126
-2947 -685 -5236
-2886 -1390 -5135
-2950 -292 -5248
-2951 -488 -5246
-2941 -121 -5240
-2938 -86 -5237
-2846 -1557 -5077
-2905 -1274 -5164
-2918 -1144 -5186
-2903 257 -5195
-2885 378 -5173
-2938 -897 -5219
-2934 -969 -5211
-2908 208 -5202
-2925 60 -5221
-2827 715 -5100
-2448 -339 -4552
-2762 764 -5011
-2544 231 -4698
-2844 -1564 -5074
-2586 -957 -4730
2725 454 -5227
2755 107 -5267
2762 -78 -5277
2739 323 -5245
2711 559 -5208
2689 695 -5178
2680 744 -5166
2752 169 -5263
2744 266 -5252
2763 -135 -5278
2678 753 -5163
2677 751 -5161
2378 54 -4757
2284 -406 -4630
1300 -2730 -5070
1265 -2735 -5079
1364 -2718 -5050
1344 -2709 -5036
463 -2383 -4527
2635 -1518 -5128
2658 -1399 -5155
2340 -702 -4708
2626 -1555 -5117
2618 -1541 -5106
2672 -801 -5155
2326 -612 -4686
-1569 2054 -5124
-1340 2091 -5201
-1329 2093 -5204
-1641 2038 -5093
-1581 2010 -5050
-753 1687 -4565
-1215 2106 -5234
-66 1530 -4350
198 2125 -5529
485 2100 -5510
1451 1933 -5530
538 2094 -5508
844 2054 -5502
766 2065 -5502
1312 1969 -5516
1094 2013 -5504
966 2036 -5501
1161 2001 -5507
1197 1993 -5509
1437 1938 -5528
1411 1944 -5525
1330 1562 -5920
2062 1667 -5471
1931 1739 -5480
2234 1540 -5482
1730 1834 -5508
1872 1768 -5487
2110 1636 -5470
2167 1595 -5474
1650 1867 -5522
1621 1878 -5528
2264 1513 -5489
1547 1902 -5546
1331 1562 -5919
2650 871 -5488
2548 1135 -5446
2295 1483 -5481
2603 1008 -5461
2579 1069 -5452
2356 1418 -5464
2392 1374 -5456
2466 1272 -5446
2519 1187 -5444
2672 787 -5509
2666 817 -5501
2272 1505 -5489
2730 435 -5499
2757 78 -5507
2763 -74 -5516
2733 403 -5499
2717 529 -5501
2695 669 -5509
2764 -299 -5536
2764 -181 -5525
2751 197 -5502
2750 204 -5502
2677 764 -5516
2238 578 -5939
2666 -1361 -5505
2636 -1519 -5511
2760 -473 -5538
2749 -683 -5520
2688 -1224 -5503
2705 -1103 -5504
2746 -711 -5518
2729 -911 -5507
2762 -391 -5547
2759 -391 -5550
2352 -2152 -5428
2585 -1704 -5481
2613 -1611 -5509
2243 -2283 -5444
2288 -2229 -5436
2428 -2035 -5430
2382 -2106 -5428
2434 -2024 -5430
2511 -1888 -5441
2542 -1828 -5449
2526 -1861 -5444
2171 -2359 -5459
2245 -1454 -5879
2620 -1584 -5517
2261 -1452 -5868
2086 -2442 -5425
1616 -2669 -5429
1563 -2684 -5439
1911 -2541 -5414
1829 -2581 -5414
1666 -2652 -5423
1749 -2617 -5417
1984 -2502 -5417
2082 -2445 -5424
1463 -2709 -5460
2142 -2390 -5446
2115 -2416 -5435
2168 -2362 -5459
1305 -2319 -5868
634 -2802 -5446
520 -2806 -5449
1310 -2739 -5464
797 -2793 -5445
1024 -2775 -5448
1354 -2732 -5469
1196 -2756 -5455
1089 -2769 -5450
25 -2817 -5470
245 -2813 -5460
1401 -2722 -5475
1297 -2339 -5853
-1115 -2760 -5424
-231 -2817 -5477
-433 -2813 -5456
-1619 -2675 -5445
-1594 -2681 -5443
-1261 -2739 -5427
-1394 -2718 -5431
-495 -2811 -5450
-552 -2808 -5446
-1662 -2665 -5450
-738 -2796 -5435
-1018 -2772 -5424
-894 -2784 -5428
-178 -2817 -5483
-178 -2813 -5487
-2465 -2284 -5429
-2025 -2562 -5413
-2268 -2448 -5390
-1929 -2593 -5432
-2388 -2355 -5409
-2215 -2477 -5392
-2106 -2529 -5401
-1851 -2616 -5451
-2319 -2411 -5396
-2375 -2365 -5406
-2488 -2262 -5436
-1613 -2250 -5852
-1792 -2632 -5466
-1610 -2262 -5844
-2713 -1967 -5385
-2760 -1870 -5388
-2828 -1698 -5407
-2800 -1776 -5396
-2530 -2219 -5425
-2593 -2149 -5404
-2667 -2047 -5387
-2850 -1624 -5421
-2623 -2113 -5395
-2645 -2084 -5390
-2499 -2251 -5436
-2958 -706 -5426
-2899 -1410 -5408
-2963 -301 -5464
-2963 -461 -5447
-2942 -1015 -5409
-2873 -1531 -5420
-2923 -1236 -5404
-2919 -1274 -5403
-2951 -864 -5416
-2944 -987 -5410
-2858 -1594 -5428
-2870 588 -5448
-2959 -189 -5477
-2946 -16 -5464
-2835 779 -5453
-2817 857 -5459
-2915 278 -5451
-2901 382 -5449
-2929 156 -5455
-2939 59 -5460
-2959 -202 -5479
-2953 -203 -5485
-2656 1303 -5420
-2557 1477 -5418
-2518 1527 -5427
-2395 1663 -5464
-2742 1102 -5445
-2576 1450 -5415
-2618 1376 -5416
-2707 1190 -5432
-2682 1246 -5425
-2776 1007 -5463
-2770 1025 -5459
-2442 1613 -5448
-2441 1615 -5449
-2333 1720 -5488
-2786 971 -5472
-2392 849 -5863
-2071 1901 -5442
-2019 1928 -5440
-1923 1967 -5445
-1723 2030 -5474
-1843 1996 -5454
-1669 2043 -5485
-2131 1868 -5447
-2275 1769 -5473
-2222 1808 -5461
-2326 1727 -5488
-2314 1737 -5485
-2326 1727 -5489
-1470 1632 -5930
-1275 2106 -5476
-326 2150 -5511
-48 2141 -5543
-212 2147 -5524
-720 2147 -5482
-537 2152 -5492
-1540 2070 -5490
-1315 2102 -5477
-1064 2126 -5474
-874 2141 -5475
-16 2139 -5548
-16 2135 -5552
-1610 2056 -5498
-1469 1635 -5928
-67 1179 -6213
1475 803 -6211
1328 1557 -5923
1499 778 -6211
1812 -341 -6210
2212 598 -5950
2230 579 -5945
1810 -416 -6210
1412 -1537 -6211
2238 -1451 -5884
1403 -1546 -6211
-13 -1788 -6213
1302 -2311 -5873
-130 -1784 -6213
-1605 -1480 -6215
-1603 -2232 -5865
-1612 -1473 -6215
-1908 -254 -6216
-2416 -1394 -5875
-2418 -1389 -5874
-2418 -1392 -5874
-1908 -247 -6216
-2386 851 -5867
-2373 865 -5872
-149 1182 -6213
-1465 1620 -5937
-1597 896 -6215
-1598 898 -6214
-981 -2771 -5240
-814 -2786 -5258
-257 -2812 -5277
-333 -2811 -5278
-158 -2241 -4313
-776 -2333 -4495
-1219 -2738 -5196
-1154 -2748 -5210
-503 -2806 -5277
-592 -2801 -5274
-723 -2793 -5266
-890 -2365 -4554
1190 -2732 -5074
225 -2332 -4447
25 195 196 186 184 181 180 187 188 191 192 185 189 190 183 179 193 194 182 264 265 201 200 199 198 197 100 100 100
22 227 229 228 226 210 221 220 224 225 216 215 213 214 211 222 223 219 218 212 217 230 231 100 100 100
16 233 239 240 235 232 236 237 238 242 243 244 245 257 256 241 234 100 100 100
7 154 155 149 148 147 164 163 100 100 100
8 154 158 159 153 152 151 150 155 100 100 100
6 158 165 166 157 156 159 100 100 100
11 164 172 173 162 160 161 178 177 166 165 163 100 100 100
8 472 496 497 457 471 469 279 474 100 100 100
8 476 478 315 325 340 338 481 479 100 100 100
9 483 484 354 366 381 395 393 487 485 100 100 100
6 428 444 494 493 489 491 100 100 100
7 253 255 254 251 252 256 257 100 100 100
8 258 261 262 263 265 264 260 259 100 100 100
4 167 200 201 170 100 100 100
6 45 199 200 167 168 56 100 100 100
15 54 55 56 168 172 164 147 48 49 53 52 46 47 51 50 100 100 100
15 66 243 242 65 58 61 62 60 59 57 64 63 148 149 80 100 100 100
3 66 244 243 100 100 100
6 66 80 82 68 245 244 100 100 100
5 67 253 257 245 68 100 100 100
4 67 68 82 81 100 100 100
19 70 254 255 81 82 80 149 155 150 71 72 76 77 73 74 75 79 78 69 100 100 100
17 83 84 94 93 151 152 95 249 248 92 91 86 85 89 90 88 87 100 100 100
4 95 96 250 249 100 100 100
18 103 108 107 101 100 104 105 99 98 102 106 208 209 109 153 159 156 97 100 100 100
14 112 113 111 110 116 119 118 115 114 157 166 177 174 117 100 100 100
3 175 227 231 100 100 100
4 175 176 229 227 100 100 100
6 133 228 229 176 178 161 100 100 100
16 128 132 133 161 160 131 130 122 121 124 125 120 127 126 123 129 100 100 100
18 169 262 261 139 137 138 136 135 134 142 141 143 144 146 145 140 162 173 100 100 100
4 169 171 263 262 100 100 100
5 170 201 265 263 171 100 100 100
7 174 177 178 176 175 231 230 100 100 100
18 273 275 276 272 278 277 268 290 291 279 469 468 266 267 269 271 270 274 100 100 100
12 280 285 286 282 289 291 290 288 287 283 284 281 100 100 100
16 315 478 477 303 294 297 298 299 300 293 296 295 292 302 301 314 100 100 100
14 304 307 313 312 305 306 311 310 324 325 315 314 309 308 100 100 100
12 318 319 322 323 321 320 316 317 339 340 325 324 100 100 100
15 335 336 334 333 331 332 326 330 329 337 338 340 339 328 327 100 100 100
16 351 352 341 349 348 344 345 347 346 342 343 350 365 366 354 353 100 100 100
14 357 361 362 359 358 355 356 364 363 380 381 366 365 360 100 100 100
17 375 377 379 378 367 372 373 371 370 376 394 395 381 380 368 369 374 100 100 100
14 393 395 394 389 385 383 388 387 384 390 391 386 382 392 100 100 100
14 400 401 404 405 402 396 397 399 398 403 417 492 490 406 100 100 100
15 407 410 409 427 428 491 492 417 412 408 414 413 411 416 415 100 100 100
13 419 420 426 425 423 424 418 421 422 443 444 428 427 100 100 100
18 433 436 437 429 435 434 430 431 440 441 432 442 495 494 444 443 438 439 100 100 100
15 454 455 452 453 451 445 446 447 449 448 450 470 471 457 456 100 100 100
14 458 466 467 462 463 459 461 460 468 469 471 470 464 465 100 100 100
3 472 474 473 100 100 100
4 477 478 476 475 100 100 100
3 479 481 480 100 100 100
3 482 484 483 100 100 100
3 485 487 486 100 100 100
5 488 490 492 491 489 100 100 100
5 494 495 499 498 493 100 100 100
4 498 499 497 496 100 100 100
15 472 473 475 476 479 480 482 483 485 486 488 489 493 498 496 100 100 100
4 154 163 165 158 100 100 100
5 29 368 380 363 32 100 100 100
5 180 266 468 460 187 100 100 100
5 35 318 324 310 41 100 100 100
5 213 215 419 427 409 100 100 100
4 98 383 385 102 100 100 100
4 137 139 450 448 100 100 100
4 112 117 403 398 100 100 100
4 50 283 287 54 100 100 100
6 140 145 454 456 442 432 100 100 100
4 69 78 335 327 100 100 100
4 123 126 436 433 100 100 100
8 71 150 151 93 351 353 337 329 100 100 100
8 97 156 157 114 400 406 392 382 100 100 100
4 85 342 346 89 100 100 100
4 58 292 295 61 100 100 100
6 48 147 148 63 297 294 100 100 100
3 10 193 179 100 100 100
4 197 275 273 195 100 100 100
3 4 411 413 100 100 100
5 30 361 357 246 247 100 100 100
4 232 304 308 236 100 100 100
5 210 226 43 421 418 100 100 100
4 34 316 320 37 100 100 100
4 110 396 402 116 100 100 100
4 134 135 446 445 100 100 100
4 73 331 333 74 100 100 100
5 2 83 87 344 348 100 100 100
4 52 285 280 46 100 100 100
4 12 57 59 13 100 100 100
4 121 430 434 124 100 100 100
4 100 384 387 104 100 100 100
4 25 355 358 27 100 100 100
3 1 189 185 100 100 100
4 184 269 267 181 100 100 100
4 233 305 312 239 100 100 100
4 211 214 410 407 100 100 100
3 5 258 259 100 100 100
4 207 376 370 203 100 100 100
4 220 423 425 224 100 100 100
4 39 322 319 36 100 100 100
4 21 268 277 23 100 100 100
3 6 143 141 100 100 100
4 212 408 412 217 100 100 100
4 125 435 429 120 100 100 100
6 44 132 128 438 443 422 100 100 100
4 113 399 397 111 100 100 100
4 138 449 447 136 100 100 100
3 20 101 107 100 100 100
4 122 130 440 431 100 100 100
4 86 91 350 343 100 100 100
4 49 282 286 53 100 100 100
4 47 281 284 51 100 100 100
5 15 76 72 330 326 100 100 100
6 251 254 70 328 339 317 100 100 100
5 237 309 314 301 238 100 100 100
4 62 296 293 60 100 100 100
4 88 90 347 345 100 100 100
4 115 118 404 401 100 100 100
3 17 99 105 100 100 100
5 8 202 204 371 373 100 100 100
4 33 364 356 26 100 100 100
3 11 274 270 100 100 100
5 12 299 298 64 57 100 100 100
4 28 359 362 31 100 100 100
4 182 194 466 458 100 100 100
4 210 418 424 221 100 100 100
5 234 241 42 311 306 100 100 100
4 211 407 415 222 100 100 100
6 7 94 84 3 349 341 100 100 100
4 38 321 323 40 100 100 100
6 10 179 183 0 462 467 100 100 100
5 188 461 459 9 191 100 100 100
5 14 22 24 278 272 100 100 100
4 235 307 304 232 100 100 100
4 212 218 414 408 100 100 100
4 75 334 336 79 100 100 100
4 46 280 281 47 100 100 100
4 213 409 410 214 100 100 100
5 34 252 251 317 316 100 100 100
4 65 302 292 58 100 100 100
4 15 326 332 16 100 100 100
4 97 382 386 103 100 100 100
4 215 216 420 419 100 100 100
4 180 181 267 266 100 100 100
4 26 356 355 25 100 100 100
4 110 111 397 396 100 100 100
4 134 445 451 142 100 100 100
4 136 447 446 135 100 100 100
4 112 398 399 113 100 100 100
3 7 341 352 100 100 100
4 144 452 455 146 100 100 100
4 137 448 449 138 100 100 100
4 225 426 420 216 100 100 100
5 246 357 360 92 248 100 100 100
4 36 319 318 35 100 100 100
5 13 59 60 293 300 100 100 100
5 17 388 383 98 99 100 100 100
6 48 294 303 289 282 49 100 100 100
4 2 3 84 83 100 100 100
7 139 261 258 5 464 470 450 100 100 100
4 44 422 421 43 100 100 100
4 69 327 328 70 100 100 100
5 182 458 465 260 264 100 100 100
5 100 101 20 390 384 100 100 100
4 120 429 437 127 100 100 100
7 21 45 56 55 288 290 268 100 100 100
4 86 343 342 85 100 100 100
4 121 122 431 430 100 100 100
6 140 432 441 131 160 162 100 100 100
5 223 416 411 4 219 100 100 100
3 0 183 190 100 100 100
4 184 186 271 269 100 100 100
4 50 51 284 283 100 100 100
4 234 306 305 233 100 100 100
4 102 385 389 106 100 100 100
6 1 185 192 9 459 463 100 100 100
4 123 433 439 129 100 100 100
4 61 295 296 62 100 100 100
4 235 240 313 307 100 100 100
4 27 358 359 28 100 100 100
4 71 329 330 72 100 100 100
5 186 196 11 270 271 100 100 100
4 52 53 286 285 100 100 100
5 6 141 142 451 453 100 100 100
4 88 345 344 87 100 100 100
4 124 434 435 125 100 100 100
4 114 115 401 400 100 100 100
4 236 308 309 237 100 100 100
3 14 272 276 100 100 100
4 89 346 347 90 100 100 100
4 187 460 461 188 100 100 100
4 116 402 405 119 100 100 100
4 64 298 297 63 100 100 100
7 217 412 417 403 117 174 230 100 100 100
5 16 332 331 73 77 100 100 100
6 0 190 189 1 463 462 100 100 100
4 103 386 391 108 100 100 100
4 2 348 349 3 100 100 100
5 92 360 365 350 91 100 100 100
3 8 206 202 100 100 100
5 4 413 414 218 219 100 100 100
5 5 259 260 465 464 100 100 100
4 74 333 334 75 100 100 100
4 203 370 371 204 100 100 100
4 37 320 321 38 100 100 100
5 6 453 452 144 143 100 100 100
4 30 31 362 361 100 100 100
5 7 352 351 93 94 100 100 100
5 8 373 372 205 206 100 100 100
3 9 192 191 100 100 100
5 10 467 466 194 193 100 100 100
5 11 196 195 273 274 100 100 100
4 12 13 300 299 100 100 100
6 14 276 275 197 198 22 100 100 100
4 221 424 423 220 100 100 100
4 54 287 288 55 100 100 100
4 39 40 323 322 100 100 100
5 238 301 302 65 242 100 100 100
4 23 277 278 24 100 100 100
4 15 16 77 76 100 100 100
5 17 105 104 387 388 100 100 100
6 207 208 106 389 394 376 100 100 100
4 222 415 416 223 100 100 100
4 126 127 437 436 100 100 100
4 32 363 364 33 100 100 100
4 129 439 438 128 100 100 100
4 145 146 455 454 100 100 100
4 41 310 311 42 100 100 100
4 78 79 336 335 100 100 100
4 18 378 379 19 100 100 100
5 20 107 108 391 390 100 100 100
4 224 425 426 225 100 100 100
4 118 119 405 404 100 100 100
4 131 441 440 130 100 100 100
4 239 312 313 240 100 100 100
4 253 67 81 255 100 100 100
7 171 169 173 172 168 167 170 100 100 100
7 24 22 198 199 45 21 23 100 100 100
12 252 34 37 38 40 39 36 35 41 42 241 256 100 100 100
6 132 44 43 226 228 133 100 100 100
8 473 474 279 291 289 303 477 475 100 100 100
8 354 484 482 480 481 338 337 353 100 100 100
7 486 487 393 392 406 490 488 100 100 100
6 457 497 499 495 442 456 100 100 100
14 506 511 505 504 513 512 502 503 508 509 510 501 500 507 -1 0 0
10 506 511 209 208 207 203 204 202 206 205 100 0 0
7 513 512 247 246 248 249 250 100 0 0
4 504 513 250 96 100 0 0
7 505 504 96 95 152 153 109 100 0 0
4 511 505 109 209 100 0 0
5 507 506 205 372 367 100 0 0
4 501 500 18 19 100 0 0
4 503 508 374 369 100 0 0
4 509 510 377 375 100 0 0
5 500 507 367 378 18 100 0 0
5 502 503 369 368 29 100 0 0
4 508 509 375 374 100 0 0
5 510 501 19 379 377 100 0 0
12 512 502 29 32 33 26 25 27 28 31 30 247 100 0 0
