ply
format ascii 1.0
comment converted from made-by-Polyhedron_join_facets_2
element vertex 8
property float x
property float y
property float z
element face 6
property list uchar uint vertex_indices
property uchar red
property uchar green
property uchar blue
end_header
-3724 -7872 6743
5727 5252 -3802
9801 -2000 -5228
-106 -169 4622
-6451 -7105 984
57 7492 13
2953 3704 2569
-1010 1010 1010
4 1 0 3 2 100 100 100
4 0 1 5 4 100 100 100
4 1 2 6 5 100 100 100
4 2 3 7 6 100 100 100
4 3 0 4 7 100 100 100
4 4 5 6 7 100 100 100
