ply
format ascii 1.0
comment converted from made-by-Polyhedron_join_facets_2
element vertex 48
property float x
property float y
property float z
element face 26
property list uchar uint vertex_indices
property uchar red
property uchar green
property uchar blue
end_header
3213 -2795 -5029
165 -1527 -2301
-34 1499 -2302
-3055 2784 -5028
-1454 -102 -2284
-2474 2283 -5893
2428 2575 -5875
2416 2563 -5886
2651 -2271 -5880
-2201 -2535 -5874
2651 -2271 -5880
-2471 2281 -5895
-2197 -2530 -5878
2049 2150 -6216
2238 -1895 -6218
-2051 1910 -6227
-1805 -2097 -6229
3226 -2807 -5053
3217 -2787 -5372
-2765 -3154 -4983
-2743 -3128 -5349
3226 -2808 -5054
3217 -2787 -5372
-3063 2792 -5043
-2769 -3143 -4978
-2768 -3154 -4985
-2753 -3130 -5339
2918 3128 -5390
-3032 2774 -5411
2927 3129 -5381
-3063 2793 -5045
-3045 2774 -5399
78 12 -1369
69 1 -1369
63 24 -1369
54 13 -1369
1496 128 -2236
2866 3129 -5009
2893 3043 -4966
2940 3054 -5055
2873 3145 -5037
2934 3143 -5135
1755 -132 -2555
1692 90 -2458
1570 79 -2313
1830 641 -2765
1503 138 -2246
1717 242 -2518
6 2 37 40 30 23 3 100 100 100
8 38 45 47 43 42 0 17 39 100 100 100
5 0 1 19 21 17 100 100 100
4 3 23 24 4 100 100 100
6 8 10 6 27 29 18 100 100 100
5 8 18 22 20 9 100 100 100
8 5 11 12 9 20 26 31 28 100 100 100
5 5 28 27 6 7 100 100 100
5 5 7 13 15 11 100 100 100
5 6 10 14 13 7 100 100 100
6 8 9 12 16 14 10 100 100 100
4 11 15 16 12 100 100 100
4 13 14 16 15 100 100 100
4 34 35 33 32 100 100 100
7 17 21 22 18 29 41 39 100 100 100
6 20 22 21 19 25 26 100 100 100
6 23 30 31 26 25 24 100 100 100
7 28 31 30 40 41 29 27 100 100 100
5 44 43 47 46 36 100 100 100
5 41 40 37 38 39 100 100 100
3 44 42 43 100 100 100
3 47 45 46 100 100 100
8 2 34 32 36 46 45 38 37 100 100 100
7 0 42 44 36 32 33 1 100 100 100
7 1 33 35 4 24 25 19 100 100 100
5 3 4 35 34 2 100 100 100
