ply
format ascii 1.0
comment converted from made-by-Polyhedron_join_facets_2
element vertex 514
property float x
property float y
property float z
element face 259
property list uchar uint vertex_indices
property uchar red
property uchar green
property uchar blue
end_header
-722 2146 -5410
-541 2150 -5411
2014 -2482 -5208
2081 -2445 -5407
-2921 -1141 -5224
-1540 2069 -5463
-2221 1807 -5392
2095 -2433 -5267
-1378 -2715 -5223
-317 2149 -5439
-861 2139 -5371
940 2038 -5378
2466 1272 -5424
2514 1194 -5266
1308 1967 -5323
2353 -2149 -5366
2368 -2127 -5219
-2110 -2524 -5296
-982 -2771 -5267
-897 -2782 -5361
-2313 -2409 -5236
1491 1916 -5196
1315 1964 -5244
1450 1928 -5211
1319 1963 -5243
656 -2794 -5213
428 -2804 -5239
833 -2784 -5188
966 -2773 -5162
-237 -2813 -5277
-332 -2811 -5277
1180 -2749 -5109
1092 -2760 -5133
42 -2812 -5268
212 -2810 -5257
2668 -1346 -5169
2760 -473 -5286
2749 -662 -5276
2684 -1248 -5191
2707 -1084 -5223
2734 -857 -5258
2730 -903 -5253
2763 -323 -5286
2763 -172 -5280
-2815 778 -5095
-2783 906 -5072
1602 1879 -5152
2056 1669 -5235
1945 1730 -5221
2289 1488 -5233
2236 1538 -5239
1753 1821 -5188
1825 1788 -5201
2116 1630 -5240
2173 1589 -5241
1702 1843 -5177
1631 1870 -5160
1607 1877 -5154
2450 1293 -5238
2644 885 -5195
2515 1192 -5238
2550 1129 -5234
2606 998 -5217
2576 1073 -5228
2353 1420 -5228
2390 1375 -5233
2667 805 -5177
391 -339 -3260
2361 -878 -4746
313 -385 -3198
2579 -1720 -5155
2614 -1602 -5129
2230 -2293 -5171
2317 -2191 -5184
2423 -2039 -5188
2454 -1987 -5186
2495 -1915 -5182
2337 -2167 -5186
2368 -2125 -5189
2544 -1822 -5175
2536 -1839 -5177
263 -380 -3162
2611 -1528 -5097
270 -381 -3167
2011 -2483 -5171
2086 -2438 -5173
1654 -2650 -5128
1551 -2679 -5103
1923 -2531 -5164
1817 -2582 -5153
1677 -2642 -5133
1750 -2612 -5144
1463 -2699 -5080
1414 -2709 -5065
2145 -2383 -5163
2097 -2430 -5173
-123 -721 -3146
-120 -752 -3169
-2440 -2294 -5121
-2015 -2553 -5082
-2105 -2519 -5102
-2259 -2444 -5128
-2303 -2412 -5129
-1911 -2586 -5054
-2420 -2312 -5122
-2212 -2470 -5122
-2197 -2477 -5119
-1839 -2606 -5034
-2325 -2395 -5128
-2354 -2371 -5127
-129 -725 -3150
-2709 -1945 -5141
-2741 -1878 -5134
-2813 -1682 -5101
-2777 -1788 -5121
-2539 -2195 -5137
-2577 -2154 -5143
-2646 -2056 -5146
-2832 -1613 -5085
-2600 -2126 -5147
-2611 -2113 -5148
-2646 1294 -5156
-2544 1479 -5175
-2487 1550 -5172
-2727 1096 -5118
-2560 1457 -5175
-2595 1392 -5168
-2695 1181 -5136
-2661 1260 -5150
-2766 969 -5087
-2746 1040 -5106
-2485 1552 -5172
-2418 1625 -5164
-2781 912 -5071
-2780 909 -5069
-2060 1901 -5181
-2026 1918 -5177
-1925 1959 -5161
-1747 2016 -5123
-1827 1994 -5142
-1697 2027 -5109
-2380 1665 -5164
-2184 1825 -5184
-2115 1870 -5184
-2235 1789 -5182
-2261 1770 -5181
-2339 1702 -5171
-2275 1758 -5179
2328 1446 -5225
2340 1434 -5225
258 -380 -3159
2174 -2353 -5160
2152 -2376 -5161
-123 -719 -3144
-124 -717 -3143
-93 -368 -2975
258 -380 -3159
-2440 -2293 -5120
-2468 -2266 -5121
-117 -390 -2975
-124 -716 -3142
-2404 1640 -5161
-519 -350 -3168
-2384 1660 -5163
-116 -345 -2975
-108 -6 -3155
-140 -366 -2975
-495 -357 -3153
-105 28 -3179
-108 9 -3165
-120 21 -3176
-85 614 -3630
-211 368 -3453
-109 2 -3160
-117 15 -3171
-2842 -1572 -5074
-574 -358 -3205
-534 -354 -3177
-511 -355 -3162
-515 -354 -3164
-848 2139 -5325
-1182 2110 -5244
-796 2141 -5334
-475 2149 -5377
-572 2148 -5367
-670 2146 -5354
-893 2135 -5315
-1130 2115 -5257
-1154 -2748 -5209
-981 -2771 -5238
-1393 -2710 -5159
-1632 -2660 -5088
-1547 -2679 -5116
-1298 -2726 -5181
-1356 -2717 -5168
-503 -2806 -5272
-593 -2801 -5269
-1716 -2638 -5055
-812 -2786 -5255
-723 -2793 -5262
-480 -2806 -5272
-158 -2246 -4317
-776 -2333 -4496
-1800 -2615 -5022
-1800 -2615 -5022
-2847 611 -5126
-2947 -685 -5236
-2886 -1390 -5135
-2950 -292 -5248
-2951 -488 -5246
-2941 -121 -5240
-2938 -86 -5237
-2846 -1557 -5077
-2905 -1274 -5164
-2918 -1144 -5186
-2903 257 -5195
-2885 378 -5173
-2938 -897 -5219
-2934 -969 -5211
-2908 208 -5202
-2925 60 -5221
-2827 715 -5100
-2448 -339 -4552
-2762 764 -5011
-2544 231 -4698
-2844 -1564 -5074
-2586 -957 -4730
2725 454 -5227
2755 107 -5267
2762 -78 -5277
2739 323 -5245
2711 559 -5208
2689 695 -5178
2680 744 -5166
2752 169 -5263
2744 266 -5252
2763 -135 -5278
2678 753 -5163
2677 751 -5161
2378 54 -4757
2284 -406 -4630
1300 -2730 -5070
1265 -2735 -5079
1364 -2718 -5050
1344 -2709 -5036
463 -2383 -4527
766 -2710 -5045
-68 -2267 -4348
2635 -1518 -5128
2658 -1399 -5155
2340 -702 -4708
2626 -1555 -5117
2618 -1541 -5106
2672 -801 -5155
2326 -612 -4686
-1569 2054 -5124
-1340 2091 -5201
-1329 2093 -5204
-1641 2038 -5093
-1581 2010 -5050
-753 1687 -4565
-1215 2106 -5234
198 2125 -5529
485 2100 -5510
1451 1933 -5530
538 2094 -5508
844 2054 -5502
766 2065 -5502
1312 1969 -5516
1094 2013 -5504
966 2036 -5501
1161 2001 -5507
1197 1993 -5509
1437 1938 -5528
1411 1944 -5525
1330 1562 -5920
2062 1667 -5471
1931 1739 -5480
2234 1540 -5482
1730 1834 -5508
1872 1768 -5487
2110 1636 -5470
2167 1595 -5474
1650 1867 -5522
1621 1878 -5528
2264 1513 -5489
1547 1902 -5546
1331 1562 -5919
2650 871 -5488
2548 1135 -5446
2295 1483 -5481
2603 1008 -5461
2579 1069 -5452
2356 1418 -5464
2392 1374 -5456
2466 1272 -5446
2519 1187 -5444
2672 787 -5509
2666 817 -5501
2272 1505 -5489
2730 435 -5499
2757 78 -5507
2763 -74 -5516
2733 403 -5499
2717 529 -5501
2695 669 -5509
2764 -299 -5536
2764 -181 -5525
2751 197 -5502
2750 204 -5502
2677 764 -5516
2238 578 -5939
2666 -1361 -5505
2636 -1519 -5511
2760 -473 -5538
2749 -683 -5520
2688 -1224 -5503
2705 -1103 -5504
2746 -711 -5518
2729 -911 -5507
2762 -391 -5547
2759 -391 -5550
2352 -2152 -5428
2585 -1704 -5481
2613 -1611 -5509
2243 -2283 -5444
2288 -2229 -5436
2428 -2035 -5430
2382 -2106 -5428
2434 -2024 -5430
2511 -1888 -5441
2542 -1828 -5449
2526 -1861 -5444
2171 -2359 -5459
2245 -1454 -5879
2620 -1584 -5517
2261 -1452 -5868
2086 -2442 -5425
1616 -2669 -5429
1563 -2684 -5439
1911 -2541 -5414
1829 -2581 -5414
1666 -2652 -5423
1749 -2617 -5417
1984 -2502 -5417
2082 -2445 -5424
1463 -2709 -5460
2142 -2390 -5446
2115 -2416 -5435
2168 -2362 -5459
1305 -2319 -5868
634 -2802 -5446
520 -2806 -5449
1310 -2739 -5464
797 -2793 -5445
1024 -2775 -5448
1354 -2732 -5469
1196 -2756 -5455
1089 -2769 -5450
25 -2817 -5470
245 -2813 -5460
1401 -2722 -5475
1297 -2339 -5853
-1115 -2760 -5424
-231 -2817 -5477
-433 -2813 -5456
-1619 -2675 -5445
-1594 -2681 -5443
-1261 -2739 -5427
-1394 -2718 -5431
-495 -2811 -5450
-552 -2808 -5446
-1662 -2665 -5450
-738 -2796 -5435
-1018 -2772 -5424
-894 -2784 -5428
-178 -2817 -5483
-178 -2813 -5487
-2465 -2284 -5429
-2025 -2562 -5413
-2268 -2448 -5390
-1929 -2593 -5432
-2388 -2355 -5409
-2215 -2477 -5392
-2106 -2529 -5401
-1851 -2616 -5451
-2319 -2411 -5396
-2375 -2365 -5406
-2488 -2262 -5436
-1613 -2250 -5852
-1792 -2632 -5466
-1610 -2262 -5844
-2713 -1967 -5385
-2760 -1870 -5388
-2828 -1698 -5407
-2800 -1776 -5396
-2530 -2219 -5425
-2593 -2149 -5404
-2667 -2047 -5387
-2850 -1624 -5421
-2623 -2113 -5395
-2645 -2084 -5390
-2499 -2251 -5436
-2958 -706 -5426
-2899 -1410 -5408
-2963 -301 -5464
-2963 -461 -5447
-2942 -1015 -5409
-2873 -1531 -5420
-2923 -1236 -5404
-2919 -1274 -5403
-2951 -864 -5416
-2944 -987 -5410
-2858 -1594 -5428
-2870 588 -5448
-2959 -189 -5477
-2946 -16 -5464
-2835 779 -5453
-2817 857 -5459
-2915 278 -5451
-2901 382 -5449
-2929 156 -5455
-2939 59 -5460
-2959 -202 -5479
-2953 -203 -5485
-2656 1303 -5420
-2557 1477 -5418
-2518 1527 -5427
-2395 1663 -5464
-2742 1102 -5445
-2576 1450 -5415
-2618 1376 -5416
-2707 1190 -5432
-2682 1246 -5425
-2776 1007 -5463
-2770 1025 -5459
-2442 1613 -5448
-2441 1615 -5449
-2333 1720 -5488
-2786 971 -5472
-2392 849 -5863
-2071 1901 -5442
-2019 1928 -5440
-1923 1967 -5445
-1723 2030 -5474
-1843 1996 -5454
-1669 2043 -5485
-2131 1868 -5447
-2275 1769 -5473
-2222 1808 -5461
-2326 1727 -5488
-2314 1737 -5485
-2326 1727 -5489
-1470 1632 -5930
-1275 2106 -5476
-326 2150 -5511
-48 2141 -5543
-212 2147 -5524
-720 2147 -5482
-537 2152 -5492
-1540 2070 -5490
-1315 2102 -5477
-1064 2126 -5474
-874 2141 -5475
-16 2139 -5548
-16 2135 -5552
-1610 2056 -5498
-1469 1635 -5928
-67 1179 -6213
1475 803 -6211
1328 1557 -5923
1499 778 -6211
1812 -341 -6210
2212 598 -5950
2230 579 -5945
1810 -416 -6210
1412 -1537 -6211
2238 -1451 -5884
1403 -1546 -6211
-13 -1788 -6213
1302 -2311 -5873
-130 -1784 -6213
-1605 -1480 -6215
-1603 -2232 -5865
-1612 -1473 -6215
-1908 -254 -6216
-2416 -1394 -5875
-2418 -1389 -5874
-2418 -1392 -5874
-1908 -247 -6216
-2386 851 -5867
-2373 865 -5872
-149 1182 -6213
-1465 1620 -5937
-1597 896 -6215
-1598 898 -6214
-286 2147 -5393
-369 2148 -5387
941 2037 -5329
1285 1970 -5248
1475 1869 -5093
637 1618 -4575
-18 1516 -4332
214 2121 -5400
412 2104 -5391
650 2077 -5368
-461 2148 -5378
777 2061 -5353
-50 2138 -5402
-251 2146 -5395
1066 2015 -5303
1184 1991 -5275
-134 1546 -4371
-319 1657 -4544
19 201 202 204 203 197 191 192 190 194 193 188 189 198 199 196 195 200 246 247 100 100 100
22 222 224 223 221 205 216 215 219 220 211 210 208 209 206 217 218 214 213 207 212 225 226 100 100 100
16 228 234 235 230 227 231 232 233 237 238 239 240 254 253 236 229 100 100 100
7 155 156 150 149 148 165 164 100 100 100
8 155 159 160 154 153 152 151 156 100 100 100
6 159 166 167 158 157 160 100 100 100
11 165 173 174 163 161 162 179 178 167 166 164 100 100 100
8 468 492 493 453 467 465 275 470 100 100 100
8 472 474 311 321 336 334 477 475 100 100 100
9 479 480 350 362 377 391 389 483 481 100 100 100
6 424 440 490 489 485 487 100 100 100
7 241 243 244 245 247 246 242 100 100 100
7 250 252 251 248 249 253 254 100 100 100
15 55 56 57 169 173 165 148 49 50 54 53 47 48 52 51 100 100 100
15 67 238 237 66 59 62 63 61 60 58 65 64 149 150 81 100 100 100
3 67 239 238 100 100 100
6 67 81 83 69 240 239 100 100 100
5 68 250 254 240 69 100 100 100
4 68 69 83 82 100 100 100
19 71 251 252 82 83 81 150 156 151 72 73 77 78 74 75 76 80 79 70 100 100 100
17 84 85 95 94 152 153 96 244 243 93 92 87 86 90 91 89 88 100 100 100
4 96 97 245 244 100 100 100
4 97 201 247 245 100 100 100
7 96 153 154 110 202 201 97 100 100 100
3 110 204 202 100 100 100
18 104 109 108 102 101 105 106 100 99 103 107 203 204 110 154 160 157 98 100 100 100
14 113 114 112 111 117 120 119 116 115 158 167 178 175 118 100 100 100
3 176 222 226 100 100 100
4 176 177 224 222 100 100 100
6 134 223 224 177 179 162 100 100 100
16 129 133 134 162 161 132 131 123 122 125 126 121 128 127 124 130 100 100 100
18 170 259 258 140 138 139 137 136 135 143 142 144 145 147 146 141 163 174 100 100 100
4 170 172 260 259 100 100 100
7 175 178 179 177 176 226 225 100 100 100
18 269 271 272 268 274 273 264 286 287 275 465 464 262 263 265 267 266 270 100 100 100
12 276 281 282 278 285 287 286 284 283 279 280 277 100 100 100
16 311 474 473 299 290 293 294 295 296 289 292 291 288 298 297 310 100 100 100
14 300 303 309 308 301 302 307 306 320 321 311 310 305 304 100 100 100
12 314 315 318 319 317 316 312 313 335 336 321 320 100 100 100
15 331 332 330 329 327 328 322 326 325 333 334 336 335 324 323 100 100 100
16 347 348 337 345 344 340 341 343 342 338 339 346 361 362 350 349 100 100 100
14 353 357 358 355 354 351 352 360 359 376 377 362 361 356 100 100 100
17 371 373 375 374 363 368 369 367 366 372 390 391 377 376 364 365 370 100 100 100
14 389 391 390 385 381 379 384 383 380 386 387 382 378 388 100 100 100
14 396 397 400 401 398 392 393 395 394 399 413 488 486 402 100 100 100
15 403 406 405 423 424 487 488 413 408 404 410 409 407 412 411 100 100 100
13 415 416 422 421 419 420 414 417 418 439 440 424 423 100 100 100
18 429 432 433 425 431 430 426 427 436 437 428 438 491 490 440 439 434 435 100 100 100
15 450 451 448 449 447 441 442 443 445 444 446 466 467 453 452 100 100 100
14 454 462 463 458 459 455 457 456 464 465 467 466 460 461 100 100 100
3 468 470 469 100 100 100
4 473 474 472 471 100 100 100
3 475 477 476 100 100 100
3 478 480 479 100 100 100
3 481 483 482 100 100 100
5 484 486 488 487 485 100 100 100
5 490 491 495 494 489 100 100 100
4 494 495 493 492 100 100 100
15 468 469 471 472 475 476 478 479 481 482 484 485 489 494 492 100 100 100
4 155 164 166 159 100 100 100
5 29 364 376 359 33 100 100 100
5 36 314 320 306 42 100 100 100
5 208 210 415 423 405 100 100 100
4 99 379 381 103 100 100 100
4 138 140 446 444 100 100 100
4 113 118 399 394 100 100 100
4 51 279 283 55 100 100 100
6 141 146 450 452 438 428 100 100 100
4 70 79 331 323 100 100 100
4 124 127 432 429 100 100 100
8 72 151 152 94 347 349 333 325 100 100 100
8 98 157 158 115 396 402 388 378 100 100 100
4 86 338 342 90 100 100 100
4 59 288 291 62 100 100 100
6 49 148 149 64 293 290 100 100 100
4 188 193 368 363 100 100 100
3 10 186 180 100 100 100
3 4 407 409 100 100 100
5 31 357 353 241 242 100 100 100
4 227 300 304 231 100 100 100
5 205 221 44 417 414 100 100 100
4 35 312 316 38 100 100 100
4 111 392 398 117 100 100 100
4 135 136 442 441 100 100 100
4 74 327 329 75 100 100 100
5 2 84 88 340 344 100 100 100
4 53 281 276 47 100 100 100
4 12 58 60 13 100 100 100
4 122 426 430 125 100 100 100
4 101 380 383 105 100 100 100
4 25 351 354 27 100 100 100
3 1 184 183 100 100 100
4 18 19 198 189 100 100 100
4 228 301 308 234 100 100 100
4 206 209 406 403 100 100 100
3 5 255 256 100 100 100
4 197 372 366 191 100 100 100
4 215 419 421 219 100 100 100
4 40 318 315 37 100 100 100
4 21 264 273 23 100 100 100
3 6 144 142 100 100 100
4 207 404 408 212 100 100 100
4 126 431 425 121 100 100 100
6 45 133 129 434 439 418 100 100 100
4 114 395 393 112 100 100 100
4 139 445 443 137 100 100 100
3 20 102 108 100 100 100
4 123 131 436 427 100 100 100
4 87 92 346 339 100 100 100
4 50 278 282 54 100 100 100
4 48 277 280 52 100 100 100
5 195 370 365 30 200 100 100 100
5 15 77 73 326 322 100 100 100
6 248 251 71 324 335 313 100 100 100
5 232 305 310 297 233 100 100 100
4 63 292 289 61 100 100 100
4 89 91 343 341 100 100 100
4 116 119 400 397 100 100 100
3 17 100 106 100 100 100
5 8 190 192 367 369 100 100 100
4 34 360 352 26 100 100 100
3 11 270 266 100 100 100
5 12 295 294 65 58 100 100 100
4 28 355 358 32 100 100 100
4 181 187 462 454 100 100 100
4 205 414 420 216 100 100 100
5 229 236 43 307 302 100 100 100
4 206 403 411 217 100 100 100
6 7 95 85 3 345 337 100 100 100
4 39 317 319 41 100 100 100
6 10 180 182 0 458 463 100 100 100
5 14 22 24 274 268 100 100 100
4 230 303 300 227 100 100 100
4 207 213 410 404 100 100 100
4 76 330 332 80 100 100 100
4 47 276 277 48 100 100 100
4 199 373 371 196 100 100 100
4 208 405 406 209 100 100 100
5 35 249 248 313 312 100 100 100
4 66 298 288 59 100 100 100
4 15 322 328 16 100 100 100
4 98 378 382 104 100 100 100
4 210 211 416 415 100 100 100
4 26 352 351 25 100 100 100
4 111 112 393 392 100 100 100
4 135 441 447 143 100 100 100
4 137 443 442 136 100 100 100
4 113 394 395 114 100 100 100
3 7 337 348 100 100 100
4 145 448 451 147 100 100 100
4 138 444 445 139 100 100 100
4 220 422 416 211 100 100 100
5 241 353 356 93 243 100 100 100
4 37 315 314 36 100 100 100
5 13 60 61 289 296 100 100 100
5 17 384 379 99 100 100 100 100
6 49 290 299 285 278 50 100 100 100
4 2 3 85 84 100 100 100
7 140 258 255 5 460 466 446 100 100 100
4 45 418 417 44 100 100 100
4 70 323 324 71 100 100 100
5 188 363 374 18 189 100 100 100
5 181 454 461 257 261 100 100 100
5 101 102 20 386 380 100 100 100
4 121 425 433 128 100 100 100
7 21 46 57 56 284 286 264 100 100 100
4 87 339 338 86 100 100 100
4 122 123 427 426 100 100 100
6 141 428 437 132 161 163 100 100 100
5 218 412 407 4 214 100 100 100
3 0 182 185 100 100 100
4 51 52 280 279 100 100 100
4 229 302 301 228 100 100 100
4 103 381 385 107 100 100 100
4 124 429 435 130 100 100 100
4 62 291 292 63 100 100 100
4 230 235 309 303 100 100 100
4 27 354 355 28 100 100 100
4 72 325 326 73 100 100 100
4 53 54 282 281 100 100 100
5 6 142 143 447 449 100 100 100
4 89 341 340 88 100 100 100
4 125 430 431 126 100 100 100
4 115 116 397 396 100 100 100
4 231 304 305 232 100 100 100
3 14 268 272 100 100 100
4 90 342 343 91 100 100 100
4 117 398 401 120 100 100 100
4 65 294 293 64 100 100 100
7 212 408 413 399 118 175 225 100 100 100
5 16 328 327 74 78 100 100 100
4 29 30 365 364 100 100 100
6 0 185 184 1 459 458 100 100 100
4 104 382 387 109 100 100 100
4 2 344 345 3 100 100 100
5 93 356 361 346 92 100 100 100
3 8 194 190 100 100 100
5 4 409 410 213 214 100 100 100
5 5 256 257 461 460 100 100 100
4 75 329 330 76 100 100 100
4 191 366 367 192 100 100 100
4 38 316 317 39 100 100 100
5 6 449 448 145 144 100 100 100
4 31 32 358 357 100 100 100
5 7 348 347 94 95 100 100 100
5 8 369 368 193 194 100 100 100
4 195 196 371 370 100 100 100
5 10 463 462 187 186 100 100 100
4 12 13 296 295 100 100 100
4 216 420 419 215 100 100 100
4 55 283 284 56 100 100 100
4 40 41 319 318 100 100 100
5 233 297 298 66 237 100 100 100
4 23 273 274 24 100 100 100
4 15 16 78 77 100 100 100
5 17 106 105 383 384 100 100 100
6 197 203 107 385 390 372 100 100 100
4 217 411 412 218 100 100 100
4 127 128 433 432 100 100 100
4 33 359 360 34 100 100 100
4 130 435 434 129 100 100 100
4 146 147 451 450 100 100 100
4 42 306 307 43 100 100 100
5 19 375 373 199 198 100 100 100
4 79 80 332 331 100 100 100
4 18 374 375 19 100 100 100
5 20 108 109 387 386 100 100 100
4 219 421 422 220 100 100 100
4 119 120 401 400 100 100 100
4 132 437 436 131 100 100 100
4 234 308 309 235 100 100 100
4 250 68 82 252 100 100 100
7 172 170 174 173 169 168 171 100 100 100
13 200 30 29 33 34 26 25 27 28 32 31 242 246 100 100 100
12 249 35 38 39 41 40 37 36 42 43 236 253 100 100 100
6 133 45 44 221 223 134 100 100 100
8 469 470 275 287 285 299 473 471 100 100 100
8 350 480 478 476 477 334 333 349 100 100 100
7 482 483 389 388 402 486 484 100 100 100
6 453 493 495 491 438 452 100 100 100
18 513 506 497 496 509 508 503 504 505 507 498 510 511 499 500 501 502 512 -1 0 0
11 513 506 183 184 185 182 180 186 187 181 261 100 0 0
9 512 513 261 257 256 255 258 259 260 100 0 0
4 501 502 171 168 100 0 0
6 500 501 168 169 57 46 100 0 0
5 502 512 260 172 171 100 0 0
5 508 503 262 464 456 100 0 0
4 510 511 271 269 100 0 0
4 504 505 265 263 100 0 0
5 496 509 457 455 9 100 0 0
4 503 504 263 262 100 0 0
4 505 507 267 265 100 0 0
7 506 497 9 455 459 1 183 100 0 0
5 507 498 11 266 267 100 0 0
4 509 508 456 457 100 0 0
3 497 496 9 100 0 0
5 498 510 269 270 11 100 0 0
6 511 499 22 14 272 271 100 0 0
7 499 500 46 21 23 24 22 100 0 0
