ply
format ascii 1.0
comment converted from made-by-Polyhedron_join_facets_2
element vertex 48
property float x
property float y
property float z
element face 26
property list uchar uint vertex_indices
property uchar red
property uchar green
property uchar blue
end_header
-2972 -2651 -5188
-1615 255 -4261
3206 -2569 -5545
-2952 1406 -3439
-268 836 -2306
-2176 -1250 -5448
1044 1403 -5322
2394 3569 -5811
-3242 -2029 -4697
-2427 -3074 -5771
115 928 -5546
1599 2510 -5296
-2355 -2946 -5756
2390 3565 -5810
2380 3554 -5809
2406 3586 -5819
2390 3564 -5811
2467 -1921 -4981
-2638 -2203 -4922
-3021 -2658 -5182
-2979 -3043 -5677
-2640 -2670 -5318
-2633 -2662 -5311
1804 530 -2719
-3093 -2662 -5164
1217 -2396 -6202
-3214 -3079 -5647
-1042 -495 -3567
-3647 -2715 -5507
2673 1438 -1920
1749 484 -2759
-2357 -2948 -5757
333 -31 -3370
-60 770 -3477
3244 -2569 -5548
131 9 -3062
1623 990 -2661
3160 -2315 -5344
660 451 -3016
2442 -1968 -5019
2993 -1966 -5022
622 460 -2748
1388 1115 -2759
1586 1333 -2645
1606 1146 -2654
-380 672 -2773
1638 969 -2678
1843 1132 -2945
3 34 37 23 100 100 100
4 45 47 43 0 100 100 100
1 0 100 100 100
2 23 0 100 100 100
3 0 28 29 100 100 100
2 0 31 100 100 100
3 11 31 28 100 100 100
2 28 7 100 100 100
3 28 7 11 100 100 100
3 28 0 7 100 100 100
3 0 31 7 100 100 100
3 11 7 31 100 100 100
1 7 100 100 100
2 34 0 100 100 100
4 0 29 37 45 100 100 100
3 31 0 25 100 100 100
4 23 31 25 0 100 100 100
5 28 31 23 37 29 100 100 100
4 43 47 46 36 100 100 100
2 37 45 100 100 100
1 43 100 100 100
3 47 45 46 100 100 100
6 34 0 36 46 45 37 100 100 100
3 0 43 36 100 100 100
2 0 25 100 100 100
3 23 0 34 100 100 100
