ply
format ascii 1.0
comment converted from made-by-Polyhedron_join_facets_2
element vertex 858
property float x
property float y
property float z
element face 430
property list uchar uint vertex_indices
property uchar red
property uchar green
property uchar blue
end_header
-1263 2375 -1037
-1151 2483 -984
-1447 2175 -807
-2173 -2467 -1124
2750 2173 -913
1846 3070 -861
-2747 -736 -1021
2392 2659 -867
1601 -2151 -1060
-2422 -2118 -1153
-1493 2130 -1051
-1658 1929 -1112
-1590 -2908 -978
-2471 -2042 -1303
-538 2921 -859
-1022 -3129 -1207
2913 531 -1105
475 -2987 -1021
-1802 1750 -930
-69 -3157 -1025
-160 -3165 -1224
-1951 -2680 -1228
2860 1892 -1089
2865 1873 -1068
2867 1866 -1046
2955 1045 -1020
2947 844 -1032
-1100 2528 -901
-812 2754 -1033
-2649 -87 -704
-2691 -269 -1007
-2725 -485 -920
-313 -3184 -1284
2840 1949 -879
-699 -3184 -1249
-2250 -2378 -1424
1712 3133 -826
-2698 -1384 -927
-2725 -1213 -987
-362 3016 -1008
-1696 -2860 -1249
-2142 -2508 -1345
2949 1158 -1073
2668 2328 -1034
724 3302 -727
-1056 -3127 -1321
2357 2696 -911
2311 2733 -690
2287 2763 -941
2919 1631 -913
2844 149 -1135
-2658 -1565 -923
-2676 -1495 -1093
2583 2442 -948
2581 2444 -927
-71 3142 -979
-165 3109 -877
-1946 -2682 -1021
1211 3276 -738
1413 -2349 -836
653 -2899 -823
-1820 1729 -875
-1921 1573 -893
-1867 1657 -893
-2176 1122 -847
-2292 893 -847
-1013 2595 -835
2951 786 -893
2961 980 -942
2958 890 -942
-120 3126 -802
-163 3111 -811
2256 -1236 -834
1573 3176 -537
1688 3129 -529
1639 3151 -540
1589 3171 -540
1174 3267 -478
1228 3259 -486
2803 -12 -721
2823 64 -708
-1590 -2908 -977
-1709 -2838 -977
-1438 -2957 -722
110 3201 -748
-7 3163 -748
-2402 -2144 -937
-2495 -1984 -877
-2533 -1905 -815
-2515 -1944 -849
2396 -982 -818
2312 -1134 -785
-517 2933 -823
-372 3012 -823
-282 3055 -754
-2750 -953 -869
-2750 -905 -836
2927 577 -824
2916 504 -785
2949 767 -873
1541 -2211 -783
1694 -2041 -876
2191 2837 -637
2068 2895 -462
-2649 -89 -690
-2604 -30 -464
-2462 497 -762
-2415 616 -807
654 -2897 -762
528 -2956 -762
269 3242 -695
225 3231 -695
817 -2807 -744
986 -2700 -744
758 -2839 -703
1035 3286 -494
1131 3272 -465
2954 1378 -813
2953 1391 -819
2934 1560 -858
2931 1578 -858
2959 1317 -755
-1666 1926 -780
-1720 1861 -802
-1765 1803 -802
2422 2626 -779
2582 2435 -715
2525 2508 -779
2550 2478 -763
2593 2420 -691
-1478 -2933 -718
-724 2795 -670
-839 2709 -632
-621 2860 -670
-640 -3180 -891
-663 -3154 -667
-2749 -865 -777
1022 -2674 -719
1130 3261 -419
-1994 1450 -879
-1952 1522 -879
-2118 1228 -818
1730 3108 -510
1642 3119 -400
706 3300 -661
593 3293 -661
-1389 -3003 -943
-1474 -2966 -943
-1370 -3010 -933
-1311 -3029 -862
-1496 -2953 -913
-1424 -2967 -732
1453 3219 -626
1401 3232 -626
1352 3241 -597
1545 3185 -526
1274 3251 -486
1497 3191 -467
1319 3237 -467
2891 368 -682
2840 139 -682
2896 397 -678
-2178 -2455 -998
-2279 -2325 -998
-2348 -2223 -937
-478 -3129 -515
-918 -3087 -621
-425 -3126 -489
2660 2328 -712
2704 2248 -712
2641 2353 -691
2652 2309 -635
-2536 290 -729
-2563 205 -694
-2595 93 -594
-2587 105 -560
-2477 455 -729
-2468 437 -560
438 3274 -690
279 3244 -690
534 3286 -624
532 3278 -553
-2603 -30 -462
-2698 -313 -733
-2688 -263 -714
-2681 -233 -690
-2686 -327 -573
-874 -3150 -998
-764 -3165 -933
-863 -3152 -998
-934 -3112 -694
-728 -3169 -891
-782 -3141 -694
1965 2991 -610
2166 2858 -638
2103 2904 -665
1989 2978 -634
2054 2938 -665
2167 2857 -637
2041 2925 -490
-1803 -2778 -976
-1931 -2692 -1004
-1759 -2805 -957
1409 -2351 -743
1503 -2252 -743
1473 -2261 -563
-2704 -1341 -731
-297 3042 -710
-463 2942 -614
-1456 2164 -776
-1599 2000 -711
-1600 1989 -655
-2729 -1169 -823
-2719 -1252 -790
-2740 -1061 -823
-2705 -1336 -729
-2704 -1319 -700
2310 2734 -669
2234 2799 -626
2235 2781 -556
2340 2703 -669
-1064 -3096 -793
-1229 -3055 -857
-1184 -3068 -857
-1247 -3034 -725
-1293 -3033 -829
-1307 -3019 -744
-1056 -3097 -785
-1037 -3095 -725
1143 -2586 -730
1150 -2580 -734
1281 -2472 -734
1132 -2594 -719
1341 -2415 -671
1340 -2412 -634
2154 -1406 -873
2141 -1427 -878
2156 -1403 -871
-504 -3191 -923
-407 -3191 -891
-561 -3188 -901
-593 -3184 -872
-582 -3172 -748
1818 3067 -516
1816 3068 -515
1808 3071 -510
1839 3027 -401
1927 3008 -540
1994 2957 -490
2497 2520 -631
2254 2763 -561
2371 2664 -631
888 3298 -586
1033 3286 -494
933 3279 -441
802 3298 -586
765 3288 -510
-2647 -1598 -748
-2584 -1789 -864
-2630 -1660 -813
-2533 -1904 -815
-2649 -1590 -731
-2646 -1594 -719
1952 -1704 -912
1831 -1870 -912
1781 -1936 -882
1776 -1942 -876
1788 -1908 -749
2004 -1628 -878
1907 -1745 -749
-2740 -643 -806
-2743 -686 -780
-2729 -519 -806
-2719 -448 -759
-2743 -688 -777
-2719 -563 -560
-2731 -685 -565
-2716 -426 -733
-2714 -509 -573
-2172 -2461 -988
2692 -347 -842
2680 -379 -833
2765 -140 -812
2734 -230 -842
2801 -18 -721
-2713 -1155 -625
-2730 -946 -592
2511 -753 -875
2579 -610 -875
2439 -898 -818
2547 -648 -710
2667 -411 -814
2665 -411 -781
-2327 819 -835
-2311 854 -835
-2369 722 -807
-2440 496 -542
-1876 1592 -607
2731 -203 -664
2760 -119 -664
2516 2473 -590
2424 2571 -561
2488 2509 -584
2768 2123 -726
2804 2040 -726
2734 2189 -700
-1765 1799 -779
-1616 1963 -624
-1834 1659 -607
1810 3026 -350
1837 3000 -329
-2647 -1463 -550
-2640 -1508 -568
-1391 -2946 -656
-1236 -3026 -697
-1008 -3055 -609
-2249 966 -1310
203 -3078 -1370
-1436 -2996 -1395
-288 3050 -1123
-394 2997 -1145
-321 3035 -1123
-2676 -1357 -1434
-469 2955 -1189
2897 1554 -1246
-2075 -2536 -1649
292 3249 -918
134 3209 -996
-2622 29 -1167
-2537 299 -1141
-2596 118 -1141
-2483 450 -1188
-2669 -1363 -1464
-1059 -3127 -1352
-1148 -3101 -1352
-1251 -3069 -1390
-1233 -3075 -1378
-1288 -3055 -1429
-1277 -3056 -1457
1831 3081 -930
1794 3100 -939
1943 3016 -959
1994 2984 -987
2024 2965 -1014
-2000 -2640 -1455
-2105 -2545 -1355
-2090 -2560 -1363
-2144 -2506 -1361
-2140 -2511 -1355
-1996 -2643 -1462
416 3273 -896
598 3296 -896
376 3265 -918
408 3260 -1008
-747 -3183 -1420
-842 -3170 -1399
-847 -3169 -1399
-978 -3145 -1427
-2443 552 -1201
-2359 745 -1259
-2475 470 -1201
1503 3214 -955
1574 3191 -943
1630 3171 -943
1734 3130 -961
1738 3128 -963
-1353 -3004 -1603
2665 2336 -1142
2414 2633 -1114
2610 2410 -1114
2614 2406 -1120
2575 2434 -1248
-1917 -2709 -1425
-1768 -2821 -1389
-1783 -2810 -1383
-1838 -2770 -1383
-1964 -2670 -1481
-1944 -2681 -1524
2294 -1139 -694
2535 -662 -681
1663 -2037 -598
1480 -2251 -553
2815 123 -582
1986 -1609 -659
2054 -1511 -669
2705 -252 -646
2814 121 -582
-2096 1214 -574
-2594 -13 -452
-1389 2180 -466
-1353 2216 -456
-2234 940 -565
-2436 504 -538
-1971 1423 -569
-1614 1940 -525
-1765 1738 -550
2941 846 -699
2958 1318 -735
2896 425 -648
2815 126 -581
765 -2825 -635
1016 -2662 -616
1230 -2497 -584
1173 -2545 -595
1416 -2302 -529
69 60 1142
399 -130 945
-2735 -827 -563
-2733 -782 -561
-2668 -1322 -542
-2734 -848 -563
-2647 -1439 -534
-2588 -24 -445
55 52 1142
-902 2647 -569
-917 2635 -566
-183 3073 -610
-462 2942 -613
-1343 2223 -451
68 74 1142
54 68 1142
-296 258 938
-430 -3089 -448
-1222 -2141 292
2896 1735 -724
2880 1800 -719
2835 1955 -704
2916 1649 -729
2684 2251 -635
2604 2312 -590
2829 1969 -702
2723 2188 -655
2924 1581 -728
-19 3136 -601
221 3211 -579
959 3271 -416
1069 3253 -373
476 3266 -542
394 3252 -556
-121 3097 -606
778 1335 629
1116 1926 385
-1412 -2850 -507
-1234 -2152 285
1702 3077 -347
1726 3063 -340
1803 2991 -285
1195 3185 -304
2014 2908 -400
1897 2962 -336
2332 2644 -522
1806 2982 -276
-2466 -1968 -723
-2556 -1821 -719
-2542 -1860 -734
-2632 -1529 -568
-2612 -1500 -515
-2316 -2030 -571
-56 -3157 -966
-192 -3175 -904
-146 -3121 -544
374 -3027 -886
245 -3078 -967
483 -2975 -749
447 -2973 -628
-2284 -2280 -842
-2278 -2294 -853
-2129 -2255 -571
-1675 -2524 -291
-1676 -2167 19
-1609 -2530 -238
-1453 -2208 151
-1787 -2130 -45
-1807 -2163 -91
-2378 -1718 -383
-2266 -1958 -440
-287 -3184 -880
-380 -3130 -504
-396 -3191 -880
-484 -3175 -748
-238 -3179 -871
-153 -3122 -544
-1099 2529 -897
-1065 2555 -855
-1081 2499 -566
-1335 2281 -706
-1276 2308 -508
-433 -3114 -475
-1047 -3008 -553
-430 -3089 -448
-1141 -2963 -534
-868 -2612 -72
-1548 -2760 -481
-1542 -2736 -432
-1622 -2570 -285
-1674 -2525 -291
30 -3137 -975
190 -3096 -975
-31 -3151 -961
71 -3084 -584
206 -3091 -967
159 -3063 -597
-2046 -2588 -995
-1951 -2677 -1006
-1947 -2681 -1006
-1610 -2867 -789
-1940 -2686 -1004
-1679 -2835 -846
-2073 -2561 -988
-2182 -2436 -933
-2204 -2400 -902
-1574 -2758 -518
-2074 -2462 -799
2271 2439 -390
1512 2675 68
1534 2808 -1
2170 2621 -390
1664 2886 -127
1461 3150 -1331
1491 3218 -962
2750 2183 -1103
2804 2057 -1103
2665 2187 -1483
-2651 -84 -1151
-2623 24 -1170
2845 153 -1148
2766 147 -1562
1278 -2478 -1179
1412 -2352 -1215
1226 -2446 -1556
-732 -3132 -1745
-666 -3189 -1479
1914 2993 -1209
1886 3029 -1107
1743 3123 -986
1878 3001 -1250
-2376 -2193 -1455
-2252 -2285 -1747
-2311 -2198 -1747
-2473 443 -1306
-2745 -703 -1118
-2744 -688 -1118
-1382 2251 -1228
-1451 2177 -1228
-1395 2170 -1543
-2616 -1713 -1327
2329 -1096 -1171
2361 -1037 -1157
2458 -847 -1157
2532 -688 -1198
800 -2826 -1214
-606 2880 -1174
-572 2899 -1189
-591 2847 -1387
-208 3080 -1180
-355 2988 -1330
1757 -1960 -1269
2174 2858 -1050
2056 2943 -1025
2050 2947 -1025
2022 2929 -1209
2691 -302 -1202
532 -2965 -1233
661 -2903 -1244
620 -2924 -1233
698 -2883 -1264
2923 708 -1200
-1717 -2852 -1375
-1767 -2821 -1389
-1804 -2781 -1549
1943 -1712 -1221
1966 -1679 -1221
1841 -1853 -1261
1807 -1895 -1286
343 3243 -1041
-1600 1997 -1227
-1562 1969 -1539
-1499 2119 -1263
-1466 2107 -1484
2858 1897 -1096
2877 1681 -1246
-1907 1563 -1287
-1098 2518 -1228
-898 2651 -1387
2938 1218 -1167
2935 1255 -1167
2911 1463 -1224
2902 1512 -1254
2311 2743 -1060
2299 2754 -1060
2418 2598 -1290
2402 2645 -1122
2452 2574 -1248
2237 2807 -1093
2239 2780 -1215
-2746 -997 -1096
-2745 -789 -1156
-1100 -3104 -1510
-981 -3144 -1438
-1096 -3079 -1650
-1086 -3080 -1654
-841 -3127 -1698
-845 -3150 -1567
2210 -1295 -1213
2280 -1176 -1213
2064 -1520 -1275
-2725 -478 -1104
-2690 -262 -1104
-2664 -143 -1151
-2733 -572 -1141
2676 2318 -1144
2582 2374 -1395
2668 2331 -1147
2595 2406 -1264
2697 2282 -1150
2652 2232 -1455
-2557 -8 -1577
-2596 82 -1248
-2469 292 -1577
-2503 337 -1340
1576 -2180 -1221
1442 -2322 -1221
1430 -2335 -1224
1401 -2303 -1496
1649 -2092 -1269
1121 -2606 -1176
951 -2730 -1176
1160 -2576 -1188
1184 -2556 -1203
1070 -2589 -1529
880 -2775 -1214
1604 3109 -1298
1530 3139 -1298
1553 3168 -1123
1728 3123 -1016
1734 3069 -1250
-2475 -2036 -1376
-2396 -2161 -1462
-2380 -2121 -1666
-2475 -1951 -1617
2799 -5 -1160
2789 -36 -1167
2836 121 -1160
2755 80 -1544
2763 -101 -1202
2689 -145 -1544
-1336 2292 -1266
-1340 2234 -1518
-1144 2472 -1266
-607 -3192 -1481
-634 -3191 -1490
-626 -3157 -1685
-2657 -1572 -1281
-2671 -1517 -1270
-2683 -1455 -1282
-2677 -1420 -1363
-2645 -1470 -1481
-2627 -1536 -1500
-2619 -1703 -1331
-2595 -1680 -1500
2827 1995 -1114
2822 2008 -1118
2765 2004 -1388
2855 1906 -1101
2820 1825 -1371
2608 -511 -1208
2540 -669 -1208
2647 -409 -1234
34 -3119 -1415
53 -3115 -1409
129 -3096 -1409
2908 506 -1141
2867 249 -1143
2869 261 -1141
2864 237 -1148
2811 288 -1493
2913 607 -1200
2858 541 -1454
487 3235 -1147
429 3230 -1135
-117 3068 -1321
-756 2792 -1092
-905 2682 -1100
-805 2759 -1064
-700 2825 -1154
-1012 2589 -1228
-898 2653 -1382
-196 -3163 -1438
-284 -3178 -1391
-465 -3192 -1478
-333 -3185 -1391
-467 -3192 -1481
-449 -3187 -1510
-128 -3146 -1520
-2313 843 -1287
-2287 893 -1310
-2353 757 -1267
-2398 609 -1373
-24 3157 -1056
120 3205 -1011
-170 3095 -1170
163 3209 -1041
-103 3098 -1235
2931 951 -1222
2927 804 -1222
2926 791 -1226
2925 1070 -1276
-2232 -2401 -1437
-2244 -2386 -1441
-2254 -2372 -1449
-2124 -2490 -1649
-2187 -2455 -1437
-2129 -2501 -1559
-2259 -2364 -1455
-2168 -2432 -1667
-2089 1260 -1285
-1946 1501 -1285
-2189 1075 -1336
-1942 1507 -1287
-1837 1668 -1258
-1650 1925 -1258
-1656 1853 -1522
-1893 1582 -1293
-1820 1627 -1522
408 -3014 -1289
278 -3054 -1370
437 -3003 -1289
-2725 -1217 -1109
-2708 -1324 -1176
-2693 -1402 -1254
-2691 -1273 -1399
-2743 -1023 -1109
-2703 -1147 -1399
-1547 -2944 -1339
-1524 -2956 -1339
-1438 -2995 -1395
-1686 -2869 -1384
-2578 -1819 -1316
-2538 -1911 -1316
-2538 -1911 -1316
-2587 -1794 -1327
-2477 -2033 -1376
-2488 -1946 -1560
1296 3155 -1421
1432 3139 -1375
2544 2417 -1395
2413 2587 -1336
1909 2969 -1289
1636 3082 -1328
2127 2842 -1283
2193 2797 -1286
2754 160 -1597
2666 2146 -1521
2866 678 -1477
2876 1392 -1418
2795 1856 -1445
2788 1879 -1449
2885 823 -1453
2896 1043 -1428
1740 1652 -2246
2656 2150 -1528
1330 -2318 -1637
2677 -174 -1552
1803 -1846 -1503
2258 -1126 -1473
1988 -1579 -1481
1497 -2183 -1577
1598 -2082 -1549
2466 -710 -1491
2633 -308 -1531
1868 287 -2249
2727 102 -1622
650 -2873 -1531
953 -2669 -1561
874 -2728 -1549
-510 -3145 -1748
-505 -3146 -1746
87 -3080 -1587
-241 -3146 -1655
-172 -3140 -1636
323 -3009 -1553
520 -2934 -1535
711 -1738 -2253
1276 -2351 -1659
-674 -3121 -1795
-2061 -2545 -1653
-2251 -2285 -1747
-1467 -2953 -1612
-1081 -3066 -1682
-1736 -2816 -1601
-1555 -2916 -1604
-1623 -2882 -1600
-612 -2425 -2254
-639 -3120 -1809
-2673 -1218 -1513
-2602 -1555 -1557
-2314 -2184 -1753
-2582 -144 -1604
-2523 -1823 -1609
-2490 -1903 -1631
-2693 -1020 -1503
-2697 -901 -1503
-2618 -280 -1575
-2673 -579 -1528
-1640 -1833 -2253
-2251 -2204 -1798
-1422 2113 -1609
-1426 2108 -1608
-2467 297 -1579
-1825 1618 -1525
-2278 832 -1512
-2338 689 -1524
-2134 1118 -1503
-1960 1410 -1512
-1696 -210 -2249
-2517 -9 -1655
-572 2855 -1396
-374 2966 -1384
-963 2584 -1455
-1169 2394 -1518
-1110 2454 -1496
334 3043 -1558
-178 3023 -1408
790 2245 -2245
-750 1519 -2246
-1386 2140 -1622
792 2486 -2082
1308 3189 -1331
1185 3125 -1488
516 3041 -1617
1100 3084 -1551
1216 3282 -866
1115 3294 -866
1269 3273 -886
1265 3273 -884
1357 3252 -962
1255 3243 -1131
1254 3165 -1421
1249 3174 -1404
1227 3154 -1442
598 3071 -1571
942 3307 -907
761 3306 -912
790 3307 -907
677 3301 -941
981 3305 -919
1016 3288 -1015
765 2787 -1868
681 2981 -1711
818 2981 -1711
617 3286 -1008
507 3237 -1147
802 3207 -1308
948 3224 -1283
647 3291 -998
884 3272 -1112
-1339 2224 -449
1531 2807 1
9 405 406 399 398 396 397 432 441 420 100 100 100
14 400 401 403 402 404 406 405 413 423 422 460 499 501 464 100 100 100
15 469 471 443 423 413 856 412 408 407 410 409 411 456 474 472 100 100 100
9 416 417 441 857 436 437 438 434 433 100 100 100
14 747 749 750 746 745 760 759 823 826 830 828 743 744 748 100 100 100
12 751 771 770 759 760 752 756 755 754 758 757 753 100 100 100
13 770 771 762 769 768 764 765 763 767 766 761 783 782 100 100 100
14 782 783 773 774 772 781 780 777 779 778 776 775 793 792 100 100 100
12 785 786 805 804 792 793 784 788 787 790 791 789 100 100 100
14 800 801 803 802 797 815 814 804 805 796 799 798 795 794 100 100 100
12 806 825 824 814 815 808 811 810 812 813 809 807 100 100 100
14 823 824 825 819 820 818 816 817 822 821 829 848 847 826 100 100 100
12 380 383 384 378 379 385 386 382 399 406 404 381 100 100 100
12 388 412 417 418 390 389 394 395 393 387 391 392 100 100 100
4 826 847 849 830 100 100 100
8 759 770 782 792 804 814 824 823 100 100 100
3 405 421 413 100 100 100
4 12 81 82 40 100 100 100
5 5 339 340 244 243 100 100 100
3 30 183 184 100 100 100
6 19 668 669 496 498 458 100 100 100
5 0 542 543 10 2 100 100 100
7 8 100 204 203 59 621 620 100 100 100
7 282 640 642 525 50 79 284 100 100 100
6 178 350 352 326 110 179 100 100 100
5 4 303 304 521 520 100 100 100
5 88 260 258 737 738 100 100 100
6 64 141 139 715 717 316 100 100 100
5 25 703 706 584 42 100 100 100
4 15 187 227 221 100 100 100
6 235 603 604 546 72 237 100 100 100
8 14 92 93 39 320 323 552 551 100 100 100
5 7 368 591 588 46 100 100 100
7 60 563 565 550 112 114 108 100 100 100
6 58 831 832 115 116 77 100 100 100
7 95 595 731 727 38 212 214 100 100 100
5 3 707 711 347 41 100 100 100
5 172 176 106 331 329 100 100 100
6 22 23 49 324 580 579 100 100 100
5 238 649 691 689 239 100 100 100
5 11 575 720 719 18 100 100 100
4 28 66 132 131 100 100 100
5 280 281 665 667 561 100 100 100
4 16 67 99 97 100 100 100
6 55 698 700 554 319 56 100 100 100
6 44 842 844 351 145 144 100 100 100
5 1 27 682 685 582 100 100 100
6 152 361 519 835 833 153 100 100 100
4 229 625 627 230 100 100 100
5 146 318 337 335 148 100 100 100
5 21 344 349 376 372 100 100 100
4 194 557 558 195 100 100 100
6 95 96 6 540 596 595 100 100 100
8 3 41 348 345 502 508 279 162 100 100 100
4 17 109 463 461 100 100 100
4 263 264 572 570 100 100 100
6 37 52 51 257 261 206 100 100 100
5 9 13 636 637 536 100 100 100
10 43 367 370 369 53 54 126 129 170 168 100 100 100
3 24 425 424 100 100 100
5 25 42 117 121 68 100 100 100
5 287 289 90 547 548 100 100 100
6 462 500 497 317 725 724 100 100 100
6 0 1 582 648 646 542 100 100 100
7 0 2 209 485 482 27 1 100 100 100
7 84 327 699 698 55 70 85 100 100 100
7 50 525 674 672 159 160 80 100 100 100
6 7 46 47 217 220 125 100 100 100
4 32 459 480 476 100 100 100
5 270 541 540 6 271 100 100 100
5 293 359 358 107 295 100 100 100
5 2 10 122 210 209 100 100 100
6 173 330 328 29 104 174 100 100 100
6 188 355 354 34 134 191 100 100 100
4 9 86 87 13 100 100 100
4 26 566 705 704 100 100 100
6 51 652 658 545 259 257 100 100 100
5 235 236 571 605 603 100 100 100
7 8 620 624 556 265 266 101 100 100 100
6 35 708 707 3 162 163 100 100 100
3 36 75 74 100 100 100
6 44 144 255 252 841 843 100 100 100
6 37 728 729 654 653 52 100 100 100
3 20 688 687 100 100 100
7 14 681 683 28 131 133 92 100 100 100
4 4 169 305 303 100 100 100
4 118 585 586 119 100 100 100
4 201 374 373 200 100 100 100
7 56 319 321 39 93 94 71 100 100 100
6 59 203 233 231 527 528 100 100 100
6 58 78 156 154 834 831 100 100 100
5 112 550 630 626 113 100 100 100
7 15 45 333 357 356 189 187 100 100 100
5 139 140 62 716 715 100 100 100
5 280 561 644 641 283 100 100 100
5 11 18 61 124 123 100 100 100
4 5 243 247 193 100 100 100
6 270 272 31 606 609 541 100 100 100
5 12 40 567 736 733 100 100 100
5 222 225 149 336 334 100 100 100
7 4 520 614 610 43 168 169 100 100 100
5 5 193 196 341 339 100 100 100
5 178 180 145 351 350 100 100 100
5 6 96 136 274 271 100 100 100
5 263 570 571 236 268 100 100 100
6 7 125 127 53 369 368 100 100 100
5 16 97 98 673 671 100 100 100
5 47 48 102 218 217 100 100 100
3 8 101 100 100 100 100
4 73 76 363 362 100 100 100
5 64 316 695 694 65 100 100 100
6 281 291 288 549 666 665 100 100 100
4 29 328 524 523 100 100 100
6 17 461 462 724 726 562 100 100 100
8 35 163 164 86 9 536 713 709 100 100 100
6 252 253 115 832 845 841 100 100 100
5 22 579 663 660 33 100 100 100
6 23 24 424 427 120 49 100 100 100
7 11 123 122 10 543 577 575 100 100 100
5 72 546 547 90 91 100 100 100
7 31 273 277 183 30 607 606 100 100 100
7 238 240 34 354 531 650 649 100 100 100
7 48 589 593 557 194 198 102 100 100 100
6 12 733 734 147 150 81 100 100 100
5 84 111 110 326 327 100 100 100
6 13 87 89 739 741 636 100 100 100
4 14 551 684 681 100 100 100
4 15 221 223 45 100 100 100
5 19 20 687 693 668 100 100 100
7 16 671 676 566 26 69 67 100 100 100
3 38 213 212 100 100 100
6 113 626 625 229 232 137 100 100 100
5 259 545 740 737 258 100 100 100
6 17 562 564 60 108 109 100 100 100
4 172 329 330 173 100 100 100
4 21 372 375 57 100 100 100
3 54 128 126 100 100 100
6 18 719 722 581 63 61 100 100 100
5 230 627 628 527 231 100 100 100
7 19 458 459 32 690 688 20 100 100 100
6 21 57 504 503 346 344 100 100 100
5 496 669 670 317 497 100 100 100
5 152 155 73 362 361 100 100 100
5 159 672 673 98 161 100 100 100
4 287 548 549 288 100 100 100
6 22 33 426 425 24 23 100 100 100
6 26 704 703 25 68 69 100 100 100
8 244 340 365 364 36 74 142 245 100 100 100
7 27 482 483 66 28 683 682 100 100 100
8 29 523 608 607 30 184 185 104 100 100 100
3 31 272 273 100 100 100
6 32 476 478 239 689 690 100 100 100
7 33 660 661 521 304 430 426 100 100 100
4 34 240 241 134 100 100 100
3 35 709 708 100 100 100
4 346 503 502 345 100 100 100
5 36 364 363 76 75 100 100 100
5 264 265 556 573 572 100 100 100
7 38 727 728 37 206 215 213 100 100 100
6 195 558 559 343 342 197 100 100 100
3 39 321 320 100 100 100
7 40 82 202 200 373 568 567 100 100 100
3 41 347 348 100 100 100
5 107 358 360 331 106 100 100 100
4 283 641 640 282 100 100 100
5 42 584 585 118 117 100 100 100
5 147 734 735 318 146 100 100 100
4 43 610 612 367 100 100 100
6 65 694 696 359 293 294 100 100 100
3 44 843 842 100 100 100
5 63 581 718 716 62 100 100 100
5 45 223 222 334 333 100 100 100
5 46 588 589 48 47 100 100 100
4 189 356 355 188 100 100 100
6 49 120 119 586 587 324 100 100 100
3 50 80 79 100 100 100
4 197 342 341 196 100 100 100
4 52 653 652 51 100 100 100
4 148 335 336 149 100 100 100
4 53 127 128 54 100 100 100
4 56 71 70 55 100 100 100
4 153 833 834 154 100 100 100
6 201 506 504 57 375 374 100 100 100
3 58 77 78 100 100 100
4 59 528 622 621 100 100 100
3 60 564 563 100 100 100
4 88 738 739 89 100 100 100
5 491 489 422 423 443 100 100 100
12 441 432 857 427 424 425 426 430 431 428 429 513 100 100 100
0 100 100 100
5 475 457 467 468 473 100 100 100
8 491 443 471 470 494 493 442 490 100 100 100
7 451 446 445 444 857 515 517 100 100 100
6 517 516 450 448 449 451 100 100 100
8 475 474 456 455 453 454 452 457 100 100 100
7 481 480 459 458 498 499 460 100 100 100
6 501 500 462 461 463 464 100 100 100
7 495 468 467 465 466 510 512 100 100 100
3 471 469 470 100 100 100
4 475 473 472 474 100 100 100
6 479 478 476 480 481 477 100 100 100
5 486 484 483 482 485 100 100 100
5 491 490 488 487 489 100 100 100
6 512 511 492 493 494 495 100 100 100
6 501 499 498 496 497 500 100 100 100
11 512 510 509 508 502 503 504 506 507 505 511 100 100 100
5 517 515 441 513 516 100 100 100
6 829 821 678 851 852 840 100 100 100
7 836 835 519 633 632 518 827 100 100 100
7 662 522 615 614 520 521 661 100 100 100
7 802 608 523 524 617 616 797 100 100 100
6 643 526 675 674 525 642 100 100 100
7 629 529 623 622 528 527 628 100 100 100
6 601 530 651 650 531 602 100 100 100
6 635 634 534 533 532 535 100 100 100
7 713 536 637 638 538 537 714 100 100 100
6 619 539 697 811 808 618 100 100 100
6 801 596 540 541 609 803 100 100 100
7 577 543 542 646 647 544 578 100 100 100
8 740 545 658 659 798 799 639 742 100 100 100
8 549 548 547 546 604 764 768 666 100 100 100
5 774 630 550 565 772 100 100 100
6 684 551 552 553 583 686 100 100 100
7 817 555 554 700 702 680 822 100 100 100
5 763 573 556 624 767 100 100 100
8 749 560 559 558 557 593 594 750 100 100 100
3 778 692 776 100 100 100
6 762 645 644 561 667 769 100 100 100
7 565 563 564 562 726 781 772 100 100 100
6 705 566 676 677 753 757 100 100 100
6 791 736 567 568 569 789 100 100 100
7 765 605 571 570 572 573 763 100 100 100
5 701 574 679 680 702 100 100 100
6 578 576 721 720 575 577 100 100 100
4 663 579 580 664 100 100 100
6 813 718 581 722 723 809 100 100 100
7 820 648 582 685 686 583 818 100 100 100
7 587 586 585 584 706 758 754 100 100 100
7 592 590 594 593 589 588 591 100 100 100
6 801 800 732 731 595 596 100 100 100
6 602 598 597 599 600 601 100 100 100
5 765 764 604 603 605 100 100 100
6 803 609 606 607 608 802 100 100 100
6 613 612 610 614 615 611 100 100 100
4 618 616 617 619 100 100 100
7 767 624 620 621 622 623 766 100 100 100
8 628 627 625 626 630 774 773 629 100 100 100
5 635 631 632 633 634 100 100 100
6 639 638 637 636 741 742 100 100 100
6 645 643 642 640 641 644 100 100 100
5 819 647 646 648 820 100 100 100
7 776 692 691 649 650 651 775 100 100 100
8 659 658 652 653 654 655 656 657 100 100 100
7 756 662 661 660 663 664 755 100 100 100
5 769 667 665 666 768 100 100 100
6 777 670 669 668 693 779 100 100 100
7 677 676 671 673 672 674 675 100 100 100
5 679 678 821 822 680 100 100 100
6 685 682 683 681 684 686 100 100 100
9 779 693 687 688 690 689 691 692 778 100 100 100
6 811 697 696 694 695 810 100 100 100
5 702 700 698 699 701 100 100 100
6 758 706 703 704 705 757 100 100 100
8 714 710 712 711 707 708 709 713 100 100 100
6 813 812 717 715 716 718 100 100 100
5 723 722 719 720 721 100 100 100
5 781 726 724 725 780 100 100 100
6 732 730 729 728 727 731 100 100 100
6 791 790 735 734 733 736 100 100 100
6 741 739 738 737 740 742 100 100 100
6 855 846 836 827 838 853 100 100 100
7 849 848 829 840 839 828 830 100 100 100
8 834 833 835 836 846 845 832 831 100 100 100
6 853 838 837 839 840 852 100 100 100
8 855 854 844 842 843 841 845 846 100 100 100
3 849 847 848 100 100 100
6 855 853 852 851 850 854 100 100 100
6 477 167 165 135 242 479 100 100 100
8 124 61 63 62 140 297 308 306 100 100 100
6 314 313 83 151 226 224 100 100 100
8 449 448 103 199 248 246 309 310 100 100 100
4 467 457 452 465 100 100 100
4 380 267 269 383 100 100 100
6 141 64 65 294 391 387 100 100 100
5 411 409 285 216 311 100 100 100
5 192 135 165 166 190 100 100 100
5 182 105 186 278 275 100 100 100
6 484 415 417 132 66 483 100 100 100
7 99 67 69 68 121 397 396 100 100 100
7 85 70 71 94 207 416 433 100 100 100
4 394 389 211 307 100 100 100
6 493 492 130 83 313 442 100 100 100
6 219 103 448 450 301 250 100 100 100
7 392 296 177 175 105 182 388 100 100 100
5 384 237 72 91 378 100 100 100
8 142 74 75 76 73 155 157 143 100 100 100
5 379 290 292 298 385 100 100 100
5 402 234 205 381 404 100 100 100
6 156 78 77 116 138 158 100 100 100
7 299 284 79 80 160 382 386 100 100 100
6 300 171 170 129 249 302 100 100 100
9 151 83 130 505 507 202 82 81 150 100 100 100
4 455 312 262 453 100 100 100
5 434 111 84 85 433 100 100 100
10 89 87 86 164 466 465 452 454 260 88 100 100 100
5 436 254 256 181 437 100 100 100
6 378 91 90 289 290 379 100 100 100
6 207 94 93 92 133 208 100 100 100
7 407 136 96 95 214 286 410 100 100 100
6 161 98 97 99 396 398 100 100 100
8 381 205 204 100 101 266 267 380 100 100 100
6 199 103 219 218 102 198 100 100 100
6 174 104 185 186 105 175 100 100 100
6 296 295 107 106 176 177 100 100 100
6 190 166 315 314 224 228 100 100 100
6 463 109 108 114 400 464 100 100 100
5 438 179 110 111 434 100 100 100
6 401 400 114 112 113 137 100 100 100
6 436 138 116 115 253 254 100 100 100
8 397 121 117 118 119 120 427 432 100 100 100
7 210 122 123 124 306 307 211 100 100 100
8 249 129 126 128 127 125 220 251 100 100 100
7 481 460 422 489 487 167 477 100 100 100
4 505 130 492 511 100 100 100
6 417 417 208 133 131 132 100 100 100
6 242 135 192 191 134 241 100 100 100
5 408 276 274 136 407 100 100 100
4 401 137 232 403 100 100 100
7 158 138 436 857 444 143 157 100 100 100
6 297 140 139 141 387 393 100 100 100
7 445 309 246 245 142 143 444 100 100 100
6 256 255 144 145 180 181 100 100 100
8 226 151 150 147 146 148 149 225 100 100 100
7 158 157 155 152 153 154 156 100 100 100
4 429 428 171 300 100 100 100
6 382 160 159 161 398 399 100 100 100
7 466 164 163 162 279 509 510 100 100 100
6 315 166 165 167 487 488 100 100 100
7 431 305 169 168 170 171 428 100 100 100
6 177 176 172 173 174 175 100 100 100
6 438 437 181 180 178 179 100 100 100
6 388 182 275 276 408 412 100 100 100
6 278 186 185 184 183 277 100 100 100
8 192 190 228 227 187 189 188 191 100 100 100
6 486 390 418 417 415 484 100 100 100
9 197 196 193 247 248 199 198 194 195 100 100 100
5 506 201 200 202 507 100 100 100
5 234 233 203 204 205 100 100 100
7 312 311 216 215 206 261 262 100 100 100
4 417 416 207 208 100 100 100
7 486 485 209 210 211 389 390 100 100 100
7 286 214 212 213 215 216 285 100 100 100
6 251 220 217 218 219 250 100 100 100
8 228 224 226 225 222 223 221 227 100 100 100
4 449 310 446 451 100 100 100
8 403 232 229 230 231 233 234 402 100 100 100
7 473 468 495 494 470 469 472 100 100 100
7 384 383 269 268 236 235 237 100 100 100
7 479 242 241 240 238 239 478 100 100 100
6 248 247 243 244 245 246 100 100 100
5 302 249 251 250 301 100 100 100
5 256 254 253 252 255 100 100 100
8 454 453 262 261 257 259 258 260 100 100 100
7 269 267 266 265 264 263 268 100 100 100
9 276 275 278 277 273 272 270 271 274 100 100 100
3 509 279 508 100 100 100
9 299 298 292 291 281 280 283 282 284 100 100 100
4 410 286 285 409 100 100 100
6 292 290 289 287 288 291 100 100 100
6 392 391 294 293 295 296 100 100 100
4 395 308 297 393 100 100 100
4 385 298 299 386 100 100 100
7 429 300 302 301 450 516 513 100 100 100
5 431 430 304 303 305 100 100 100
5 394 307 306 308 395 100 100 100
4 446 310 309 445 100 100 100
5 456 411 311 312 455 100 100 100
6 442 313 314 315 488 490 100 100 100
4 599 597 338 366 100 100 100
5 730 322 655 654 729 100 100 100
7 613 611 745 746 590 592 371 100 100 100
6 376 349 712 710 325 377 100 100 100
5 810 695 316 717 812 100 100 100
4 837 743 828 839 100 100 100
4 655 322 332 656 100 100 100
5 780 725 317 670 777 100 100 100
6 851 678 679 574 353 850 100 100 100
5 783 761 529 629 773 100 100 100
5 753 677 675 526 751 100 100 100
7 366 338 337 318 735 790 787 100 100 100
6 323 320 321 319 554 555 100 100 100
5 806 544 647 819 825 100 100 100
5 569 377 325 785 789 100 100 100
5 775 651 530 784 793 100 100 100
5 815 797 616 618 808 100 100 100
5 784 530 601 600 788 100 100 100
6 751 526 643 645 762 771 100 100 100
5 747 535 532 560 749 100 100 100
6 332 322 730 732 800 794 100 100 100
6 552 323 555 817 816 553 100 100 100
6 580 324 587 754 755 664 100 100 100
4 766 623 529 761 100 100 100
5 805 786 537 538 796 100 100 100
6 785 325 710 714 537 786 100 100 100
5 560 532 533 343 559 100 100 100
4 798 659 657 795 100 100 100
5 578 544 806 807 576 100 100 100
7 699 327 326 352 353 574 701 100 100 100
5 744 518 632 631 748 100 100 100
6 744 743 837 838 827 518 100 100 100
9 617 524 328 330 329 331 360 539 619 100 100 100
6 745 611 615 522 752 760 100 100 100
5 656 332 794 795 657 100 100 100
9 598 357 333 334 336 335 337 338 597 100 100 100
5 796 538 638 639 799 100 100 100
8 534 365 340 339 341 342 343 533 100 100 100
4 752 522 662 756 100 100 100
8 712 349 344 346 345 348 347 711 100 100 100
7 352 350 351 844 854 850 353 100 100 100
7 531 354 355 356 357 598 602 100 100 100
6 539 360 358 359 696 697 100 100 100
4 750 594 590 746 100 100 100
9 634 633 519 361 362 363 364 365 534 100 100 100
5 788 600 599 366 787 100 100 100
5 613 371 370 367 612 100 100 100
6 592 591 368 369 370 371 100 100 100
8 569 568 373 374 375 372 376 377 100 100 100
4 818 583 553 816 100 100 100
5 748 631 635 535 747 100 100 100
5 809 723 721 576 807 100 100 100
