ply
format ascii 1.0
comment converted from made-by-Polyhedron_join_facets_2
element vertex 427
property float x
property float y
property float z
element face 212
property list uchar uint vertex_indices
property uchar red
property uchar green
property uchar blue
end_header
1346 -1797 -924
1343 -1802 -924
1345 -1800 -924
345 -320 1046
377 -279 1046
284 -233 1176
345 -320 1046
380 -394 970
392 -405 953
409 -410 937
465 -490 828
466 -489 828
464 -488 831
555 -627 648
559 -641 634
780 -953 208
782 -951 208
607 -679 563
779 -976 188
787 -993 164
810 -963 164
812 -987 147
814 -1033 114
843 -1058 72
851 -1048 72
870 -1117 2
879 -1115 -4
881 -1121 -11
895 -1103 -11
905 -1222 -116
910 -1238 -134
939 -1291 -205
1053 -1271 -302
1029 -1323 -320
1068 -1275 -320
1051 -1393 -373
1061 -1392 -379
1083 -1364 -379
1106 -1435 -444
1098 -1453 -450
1102 -1456 -455
1115 -1440 -455
-1207 1265 -970
-1191 1276 -970
-1204 1269 -969
-1206 1267 -969
-1177 1282 -935
-1082 1340 -869
-1055 1357 -869
-1092 1330 -863
-984 1385 -836
-871 1459 -836
-834 1478 -812
-774 1509 -769
-902 1413 -717
-572 1630 -717
-819 1490 -681
-726 1551 -681
-827 1485 -672
-729 1552 -625
-711 1563 -625
-724 1553 -617
-600 1624 -565
-618 1605 -531
-482 1695 -531
-576 1639 -514
-592 1637 -487
-588 1640 -486
-576 1648 -486
-537 1614 -357
-504 1636 -357
-485 1662 -387
-478 1675 -406
-461 1712 -461
291 2093 -291
-482 1585 -291
-486 1601 -311
-574 1527 -260
-531 1555 -260
-490 1580 -285
-578 1502 -221
-552 1513 -210
2238 1424 -1180
2233 1428 -1180
2235 1427 -1180
2244 1418 -1183
2238 1408 -1209
2197 1401 -1278
2071 1495 -1278
2125 1474 -1244
2189 1440 -1218
2223 1434 -1184
2161 1443 -1333
284 -232 1177
299 -287 1114
325 -338 1046
359 -379 995
547 -635 648
480 -548 769
772 -1024 147
767 -1011 164
782 -1035 132
864 -1129 -4
957 -1358 -302
1023 -1419 -373
1074 -1464 -444
1044 -1448 -411
2264 1315 -1020
1698 1518 -1020
1986 1399 -980
2235 1305 -970
2268 1375 -1102
2262 1393 -1123
2210 1417 -1131
1942 1538 -1163
1614 1656 -1163
1391 1727 -1218
1567 1673 -1165
2086 1485 -1171
1964 1547 -1281
1796 1604 -1273
-1084 1269 -805
-828 1481 -662
-839 1475 -672
-1052 1278 -769
-840 1460 -627
-222 2246 -578
-818 1452 -578
-831 1465 -617
-853 1412 -542
-839 1426 -565
-779 1461 -475
-780 1476 -498
-818 1438 -514
-673 1511 -394
-665 1521 -394
-762 1477 -469
-697 1472 -355
-1118 1308 -863
-779 1478 -497
307 2039 -1165
288 2044 -1165
289 2044 -1165
406 2016 -1167
550 1980 -1175
929 1868 -1235
252 2022 -1235
255 2025 -1227
580 1970 -1281
316 2037 -1295
253 2023 -1237
111 -1105 -3080
24 -1085 -3079
-605 -922 -3079
-1078 -793 -3078
-1109 -722 -3078
-1120 -670 -3078
-1027 -367 -3079
-604 938 -3080
-576 1020 -3080
-405 1020 -3080
-274 990 -3080
-202 969 -3080
559 735 -3081
583 718 -3081
585 691 -3081
178 -860 -3080
-399 1262 91
-379 1217 140
-298 1050 321
-3 511 898
9 490 921
43 445 966
74 413 996
172 326 1075
-402 1347 -11
-1202 -778 -177
121 -144 1271
60 -165 1217
-485 -389 671
-491 -392 664
1658 -1198 -1108
1820 -643 -1087
2000 -31 -1054
1638 -1270 -1095
1564 -1522 -1112
1570 -1499 -1114
-1696 939 -1583
-1752 754 -1599
-1842 501 -1559
586 1968 -1281
1011 1844 -1273
2153 1445 -1345
2146 1439 -1357
1884 1320 -1646
2030 71 -1050
448 4 1075
313 -147 1193
1349 -1804 -930
1420 -1849 -1047
1430 -1838 -1056
1497 -1696 -1086
294 -1392 -2751
670 -1984 -2072
777 -2209 -1802
766 -2232 -1769
756 -2236 -1761
748 -2233 -1762
2147 1417 -1357
2179 1388 -1308
2292 1021 -1045
-1691 958 -1542
-362 1757 -556
-764 1360 -2640
-785 1348 -2647
-798 1342 -2631
-1688 958 -1561
1264 -2072 -1294
1354 -2026 -1191
1355 -2023 -1187
1290 -1836 -921
523 -627 669
231 -184 1249
191 -147 1292
170 -142 1292
-1394 -1721 -1685
697 -2232 -1738
875 -2230 -1673
1114 -2138 -1447
375 232 1119
483 251 1054
532 263 1019
637 302 930
1439 760 39
1716 921 -271
1418 1718 -1165
226 94 1244
184 23 1274
177 -18 1290
193 -33 1294
214 28 1269
-2085 -1422 -1848
-2051 -1389 -1904
-1820 -1219 -2220
-1187 -844 -2969
-1113 -810 -3043
-2133 -1477 -1756
-633 1149 -2929
-606 1078 -3012
-742 1297 -2728
253 161 1212
251 186 1196
-2086 -562 -1734
-2078 -518 -1727
-1861 365 -1634
-1773 662 -1624
-1675 924 -1641
-2100 -379 -1575
-2096 -366 -1576
-2203 -1106 -1802
-2221 -1114 -1761
-2201 -818 -1611
-2158 -604 -1577
847 1893 -1175
-1154 -1753 -1744
748 -2241 -1746
-1791 -1622 -1680
-2036 -1559 -1680
193 -144 1294
211 -139 1291
215 -121 1291
214 -111 1292
193 -67 1299
171 -96 1301
163 -121 1301
1362 -2021 -1191
1370 -2013 -1181
1368 -2010 -1171
-471 1385 -50
-470 1382 -47
-2060 -1553 -1680
-2084 -1531 -1648
-2227 -1468 -1604
-2183 -1505 -1658
-2118 -1536 -1682
1203 -2098 -1367
1269 -2069 -1294
-291 1032 340
-18 534 872
2278 1161 -933
2271 1134 -933
2259 875 -1025
2308 1056 -1027
2308 1057 -1027
2285 1155 -947
1522 -1651 -1112
1407 -1937 -1156
1357 -2024 -1199
244 -156 1265
253 -145 1261
-423 1626 -360
269 2039 -1151
-621 1439 -2571
-631 1361 -2682
-652 1420 -2607
266 170 1204
299 218 1165
273 226 1165
993 -2049 -1647
-2234 -1463 -1598
-2046 -1275 -1244
-2242 -1436 -1564
-2239 -1458 -1595
-1978 43 -1576
280 -129 1240
683 305 880
604 270 967
592 262 980
348 -26 1189
2251 1209 -880
2194 1191 -811
1047 521 476
250 -182 1243
-411 1384 -56
155 -58 1294
-431 1154 146
-659 1469 -291
-176 522 745
148 -65 1293
143 -79 1293
151 -124 1298
227 1994 -1396
-484 1615 -328
-2095 -1268 -1904
-2215 -1484 -1659
-2231 -1472 -1645
-2265 -1438 -1619
-2285 -1391 -1615
-2277 -1338 -1648
-2275 -1331 -1653
-2193 -1163 -1829
2286 1163 -950
2305 1138 -1017
2275 1353 -1083
2265 1228 -913
-2286 -1388 -1580
-2285 -1389 -1577
-2270 -1316 -1506
-2266 -1228 -1547
-2023 -1092 -2038
-1838 -1214 -2203
2249 1415 -1165
297 154 1194
-2223 -1251 -1407
-2233 -1259 -1424
-2266 -1304 -1493
-2278 -1406 -1581
-2244 -1434 -1564
-2132 -1265 -1316
-2151 -1236 -1316
-170 -173 1012
1391 -1913 -1074
1373 -1970 -1118
2307 1057 -1030
2240 1370 -1209
847 -2237 -1702
845 -2237 -1705
1349 -1814 -939
1314 -1861 -960
-2244 -1057 -1587
-2208 -834 -1587
2236 1237 -886
2258 1223 -898
227 1996 -1381
145 -136 1293
-731 1378 -2630
-666 1412 -2612
-759 1322 -2694
-2265 -1438 -1608
-2249 -1454 -1605
-510 1461 -138
-2204 -1493 -1666
-2162 -1509 -1701
-1930 -1177 -1052
-1893 -1149 -996
-2188 -1148 -1839
-2253 -1235 -1474
-2257 -1150 -1547
-2235 -1022 -1520
-2228 -973 -1524
-2199 -782 -1567
-1687 950 -1594
-1665 955 -1641
-1373 1159 -1157
-1095 1263 -812
-662 1468 -293
-661 1466 -291
-677 1466 -312
-661 1467 -291
-660 1468 -290
-611 1475 -225
-1093 1263 -809
-1091 1259 -805
-983 1274 -662
-945 1320 -627
-945 1320 -627
-862 1401 -543
-861 1401 -542
-806 1426 -475
-709 1454 -353
-708 1456 -352
-1109 1288 -841
-83 186 1005
-479 -379 677
-1780 703 -1543
-1709 930 -1533
-2053 -231 -1557
-2207 -965 -1486
-2207 -1168 -1407
-145 -111 1036
-63 -14 1111
-56 15 1108
-1699 948 -1526
-551 1377 -104
-362 975 313
-334 908 377
-121 318 902
3 2 0 1 100 100 100
3 5 3 4 100 100 100
6 9 4 3 6 7 8 100 100 100
3 12 10 11 100 100 100
7 17 11 10 13 14 15 16 100 100 100
5 20 16 15 18 19 100 100 100
6 24 20 19 21 22 23 100 100 100
6 28 24 23 25 26 27 100 100 100
8 34 28 27 29 30 31 32 33 100 100 100
5 37 34 33 35 36 100 100 100
6 41 37 36 38 39 40 100 100 100
4 40 1 0 41 100 100 100
4 45 42 43 44 100 100 100
5 48 43 42 46 47 100 100 100
5 51 48 47 49 50 100 100 100
6 55 51 50 52 53 54 100 100 100
4 57 55 54 56 100 100 100
5 60 57 56 58 59 100 100 100
6 64 60 59 61 62 63 100 100 100
6 68 64 63 65 66 67 100 100 100
7 73 68 67 69 70 71 72 100 100 100
4 78 77 80 81 100 100 100
3 84 82 83 100 100 100
9 91 83 82 85 86 87 88 89 90 100 100 100
3 88 87 92 100 100 100
6 95 6 3 5 93 94 100 100 100
4 7 6 95 96 100 100 100
7 97 13 10 12 9 8 98 100 100 100
3 14 13 97 100 100 100
5 99 21 19 18 100 100 100 100
4 101 22 21 99 100 100 100
3 102 26 25 100 100 100
4 102 29 27 26 100 100 100
3 32 31 103 100 100 100
5 35 33 32 103 104 100 100 100
6 105 38 36 35 104 106 100 100 100
3 39 38 105 100 100 100
4 110 107 108 109 100 100 100
7 115 108 107 111 112 113 114 100 100 100
7 91 90 116 117 115 114 118 100 100 100
5 90 89 119 120 116 100 100 100
4 49 47 46 138 100 100 100
6 123 58 56 54 53 124 100 100 100
7 128 61 59 58 123 122 125 100 100 100
5 130 62 61 128 127 100 100 100
6 133 65 63 62 130 129 100 100 100
5 133 132 139 66 65 100 100 100
3 142 140 141 100 100 100
7 147 141 140 143 144 145 146 100 100 100
5 150 146 145 148 149 100 100 100
16 151 152 153 154 155 156 157 158 159 160 161 162 163 164 165 166 100 100 100
9 167 168 169 170 171 172 173 174 175 100 100 100
5 176 177 178 179 180 100 100 100
6 181 182 183 184 185 186 100 100 100
9 190 191 120 119 192 193 194 163 162 100 100 100
19 183 195 196 197 17 16 20 24 28 34 37 41 0 2 198 199 200 201 184 100 100 100
8 151 202 203 204 205 206 207 152 100 100 100
7 165 208 209 210 182 181 166 100 100 100
16 43 48 51 55 57 60 64 68 73 212 213 214 215 216 211 44 100 100 100
23 217 218 219 220 106 104 103 31 30 101 99 100 221 96 95 94 222 223 224 225 226 227 228 100 100 100
11 229 230 231 232 233 234 109 108 115 117 235 100 100 100
5 236 237 238 239 240 100 100 100
6 241 242 243 244 245 246 100 100 100
3 247 248 249 100 100 100
6 236 250 251 173 172 237 100 100 100
7 157 252 253 254 255 256 158 100 100 100
8 257 258 253 252 259 260 261 262 100 100 100
6 144 263 191 190 148 145 100 100 100
8 206 265 226 225 266 267 264 207 100 100 100
7 268 269 270 271 272 273 274 100 100 100
4 207 264 153 152 100 100 100
5 218 275 276 277 219 100 100 100
4 167 278 279 168 100 100 100
5 280 281 282 283 284 100 100 100
4 217 228 285 286 100 100 100
4 169 287 288 170 100 100 100
6 289 290 291 292 293 294 100 100 100
7 185 295 296 276 275 297 186 100 100 100
4 269 298 299 270 100 100 100
8 140 142 301 212 73 72 300 143 100 100 100
6 116 120 191 263 235 117 100 100 100
5 160 303 304 302 161 100 100 100
5 250 305 306 307 251 100 100 100
3 202 308 203 100 100 100
4 309 310 311 312 100 100 100
4 253 258 313 254 100 100 100
7 196 315 316 317 318 314 197 100 100 100
7 289 319 320 234 233 321 290 100 100 100
6 222 322 298 269 268 223 100 100 100
11 229 235 263 144 143 300 323 175 174 307 306 100 100 100
5 238 324 273 272 239 100 100 100
6 273 324 328 329 330 274 100 100 100
4 184 201 295 185 100 100 100
4 266 281 280 267 100 100 100
7 161 302 331 149 148 190 162 100 100 100
5 217 286 297 275 218 100 100 100
5 71 332 323 300 72 100 100 100
9 186 297 286 285 308 202 151 166 181 100 100 100
10 241 334 335 336 337 338 339 340 333 242 100 100 100
4 341 342 343 344 100 100 100
4 345 346 347 348 100 100 100
6 155 244 243 350 349 156 100 100 100
4 82 84 351 85 100 100 100
9 230 352 240 239 272 271 318 317 231 100 100 100
9 353 354 355 347 346 356 357 358 359 100 100 100
3 178 360 179 100 100 100
7 199 361 362 277 276 296 200 100 100 100
7 112 351 84 83 91 118 113 100 100 100
11 292 363 364 86 85 351 112 111 343 342 293 100 100 100
5 88 92 192 119 89 100 100 100
8 203 308 285 228 227 365 366 204 100 100 100
4 361 367 368 362 100 100 100
6 369 370 261 260 339 338 100 100 100
5 205 366 365 265 206 100 100 100
5 159 248 247 303 160 100 100 100
7 97 98 221 100 18 15 14 100 100 100
7 25 23 22 101 30 29 102 100 100 100
10 367 198 2 1 40 39 105 106 220 368 100 100 100
7 371 372 344 343 111 107 110 100 100 100
8 86 364 209 208 193 192 92 87 100 100 100
4 331 373 150 149 100 100 100
4 142 141 147 301 100 100 100
5 213 375 376 377 214 100 100 100
4 335 379 378 336 100 100 100
4 200 296 295 201 100 100 100
4 78 81 380 79 100 100 100
4 71 70 76 332 100 100 100
4 381 382 284 283 100 100 100
6 336 378 356 346 345 337 100 100 100
4 383 384 359 358 100 100 100
5 259 385 340 339 260 100 100 100
3 354 386 355 100 100 100
4 242 333 350 243 100 100 100
6 369 387 388 389 390 370 100 100 100
4 139 132 131 136 100 100 100
4 319 372 371 320 100 100 100
6 247 249 377 376 304 303 100 100 100
12 4 9 12 11 17 197 314 299 298 322 93 5 100 100 100
5 229 306 305 352 230 100 100 100
3 163 194 164 100 100 100
4 154 245 244 155 100 100 100
9 280 284 382 246 245 154 153 264 267 100 100 100
5 109 234 320 371 110 100 100 100
6 356 378 379 312 311 357 100 100 100
12 176 384 383 310 309 282 281 266 225 224 374 177 100 100 100
4 209 364 363 210 100 100 100
6 187 391 392 256 255 188 100 100 100
4 293 342 341 294 100 100 100
5 219 277 362 368 220 100 100 100
3 204 366 205 100 100 100
7 210 363 292 291 195 183 182 100 100 100
5 246 382 381 334 241 100 100 100
5 333 340 385 349 350 100 100 100
4 173 251 307 174 100 100 100
9 158 256 392 215 214 377 249 248 159 100 100 100
5 310 383 358 357 311 100 100 100
9 167 175 323 332 76 75 79 380 278 100 100 100
4 215 392 391 216 100 100 100
6 195 291 290 321 315 196 100 100 100
4 198 367 361 199 100 100 100
6 337 345 348 387 369 338 100 100 100
5 314 318 271 270 299 100 100 100
6 223 268 274 330 374 224 100 100 100
6 344 372 319 289 294 341 100 100 100
6 349 385 259 252 157 156 100 100 100
8 334 381 283 282 309 312 379 335 100 100 100
5 236 240 352 305 250 100 100 100
5 232 316 315 321 233 100 100 100
4 93 322 222 94 100 100 100
5 8 7 96 221 98 100 100 100
5 193 208 165 164 194 100 100 100
6 302 304 376 375 373 331 100 100 100
6 355 386 388 387 348 347 100 100 100
3 113 118 114 100 100 100
4 265 365 227 226 100 100 100
8 212 301 147 146 150 373 375 213 100 100 100
4 261 370 390 262 100 100 100
4 231 317 316 232 100 100 100
5 254 313 189 188 255 100 100 100
3 395 396 74 -1 0 0
7 395 396 74 75 76 70 69 100 0 0
7 398 399 77 78 79 75 74 100 0 0
3 401 402 121 100 0 0
6 402 403 122 123 124 121 100 0 0
4 403 404 125 122 100 0 0
6 404 405 126 127 128 125 100 0 0
6 406 407 129 130 127 126 100 0 0
6 407 408 131 132 133 129 100 0 0
5 408 409 135 136 131 100 0 0
4 409 410 137 135 100 0 0
6 411 394 52 50 49 138 100 0 0
6 394 401 121 124 53 52 100 0 0
5 414 415 187 188 189 100 0 0
6 393 411 138 46 42 45 100 0 0
6 416 414 189 313 258 257 100 0 0
3 425 426 327 100 0 0
4 421 420 329 328 100 0 0
9 397 395 69 67 66 139 136 135 137 100 0 0
4 399 400 80 77 100 0 0
8 412 421 328 324 238 237 172 171 100 0 0
5 424 425 327 288 287 100 0 0
8 420 419 360 178 177 374 330 329 100 0 0
7 400 423 279 278 380 81 80 100 0 0
3 410 397 137 100 0 0
7 418 417 389 388 386 354 353 100 0 0
6 417 416 257 262 390 389 100 0 0
6 426 412 171 170 288 327 100 0 0
6 423 424 287 169 168 279 100 0 0
7 413 418 353 359 384 176 180 100 0 0
6 415 422 211 216 391 187 100 0 0
5 422 393 45 44 211 100 0 0
5 419 413 180 179 360 100 0 0
