ply
format ascii 1.0
comment converted from created-by-polyhedron
element vertex 11
property float x
property float y
property float z
element face 11
property list uchar uint vertex_indices
property uchar red
property uchar green
property uchar blue
end_header
1000 0 0
809 587 0
309 951 0
-309 951 0
-809 587 0
-1000 0 0
-809 -587 0
-309 -951 0
309 -951 0
809 -587 0
0 0 3000
3 10 0 1 100 100 100
3 10 1 2 100 100 100
3 10 2 3 100 100 100
3 10 3 4 100 100 100
3 10 4 5 100 100 100
3 10 5 6 100 100 100
3 10 6 7 100 100 100
3 10 7 8 100 100 100
3 10 8 9 100 100 100
3 10 9 0 100 100 100
10 0 1 2 3 4 5 6 7 8 9 100 100 100
