ply
format ascii 1.0
comment converted from made-by-Polyhedron_join_facets_2
element vertex 16
property float x
property float y
property float z
element face 12
property list uchar uint vertex_indices
property uchar red
property uchar green
property uchar blue
end_header
0 0 0
2000 0 0
2000 2000 0
0 2000 0
0 0 2000
2000 0 2000
2000 2000 2000
0 2000 2000
1000 1000 1000
3000 1000 1000
3000 3000 1000
1000 3000 1000
1000 1000 3000
3000 1000 3000
3000 3000 3000
1000 3000 3000
4 3 2 1 4 100 100 100
0 100 100 100
0 100 100 100
0 100 100 100
0 100 100 100
0 100 100 100
0 100 100 100
0 100 100 100
0 100 100 100
0 100 100 100
0 100 100 100
0 100 100 100
