ply
format ascii 1.0
comment converted from made-by-Polyhedron_join_facets_2
element vertex 16
property float x
property float y
property float z
element face 12
property list uchar uint vertex_indices
property uchar red
property uchar green
property uchar blue
end_header
0 0 0
2000 0 0
2000 2000 0
0 2000 0
0 0 2000
2000 0 2000
2000 2000 2000
0 2000 2000
1000 1000 1000
3000 1000 1000
3000 3000 1000
1000 3000 1000
1000 1000 3000
3000 1000 3000
3000 3000 3000
1000 3000 3000
4 0 3 2 1 100 100 100
4 0 1 5 4 100 100 100
4 1 2 6 5 100 100 100
4 2 3 7 6 100 100 100
4 0 4 7 3 100 100 100
4 4 5 6 7 100 100 100
4 8 11 10 9 100 100 100
4 8 9 13 12 100 100 100
4 9 10 14 13 100 100 100
4 10 11 15 14 100 100 100
4 8 12 15 11 100 100 100
4 12 13 14 15 100 100 100
